<?xml version="1.0" encoding="UTF-8" standalone="no"?>
<!DOCTYPE svg PUBLIC "-//W3C//DTD SVG 1.1//EN"
 "http://www.w3.org/Graphics/SVG/1.1/DTD/svg11.dtd">
<!-- Generated by graphviz version 2.43.0 (0)
 -->
<!-- Title: aopp_deconv_tool.astropy_helper.fits.specifier.parse Pages: 1 -->
<svg width="351pt" height="100pt"
 viewBox="0.00 0.00 351.00 99.50" xmlns="http://www.w3.org/2000/svg" xmlns:xlink="http://www.w3.org/1999/xlink">
<g id="graph0" class="graph" transform="scale(1 1) rotate(0) translate(4 95.5)">
<title>aopp_deconv_tool.astropy_helper.fits.specifier.parse</title>
<!-- Node1 -->
<g id="node1" class="node">
<title>Node1</title>
<g id="a_node1"><a xlink:title=" ">
<polygon fill="#bfbfbf" stroke="black" points="0,-33 0,-63 146,-63 146,-33 0,-33"/>
<text text-anchor="start" x="8" y="-51" font-family="Helvetica,sans-Serif" font-size="10.00">aopp_deconv_tool.astropy</text>
<text text-anchor="middle" x="73" y="-40" font-family="Helvetica,sans-Serif" font-size="10.00">_helper.fits.specifier.parse</text>
</a>
</g>
</g>
<!-- Node2 -->
<g id="node2" class="node">
<title>Node2</title>
<g id="a_node2"><a xlink:href="../../d0/d1c/namespaceaopp__deconv__tool_1_1astropy__helper_1_1fits_1_1specifier.html#a64791b7d45d13009000960c9a16e71d5" target="_top" xlink:title=" ">
<polygon fill="none" stroke="black" points="182,-61 182,-91 343,-91 343,-61 182,-61"/>
<text text-anchor="start" x="190" y="-79" font-family="Helvetica,sans-Serif" font-size="10.00">aopp_deconv_tool.astropy</text>
<text text-anchor="middle" x="262.5" y="-68" font-family="Helvetica,sans-Serif" font-size="10.00">_helper.fits.specifier.get_help</text>
</a>
</g>
</g>
<!-- Node1&#45;&gt;Node2 -->
<g id="edge1" class="edge">
<title>Node1&#45;&gt;Node2</title>
<path fill="none" stroke="midnightblue" d="M146.22,-58.79C154.6,-60.04 163.22,-61.32 171.8,-62.6"/>
<polygon fill="midnightblue" stroke="midnightblue" points="171.42,-66.09 181.83,-64.1 172.46,-59.16 171.42,-66.09"/>
</g>
<!-- Node3 -->
<g id="node3" class="node">
<title>Node3</title>
<g id="a_node3"><a xlink:href="../../d0/d1c/namespaceaopp__deconv__tool_1_1astropy__helper_1_1fits_1_1specifier.html#ad45a86b4ae339050a4133ed88f219179" target="_top" xlink:title=" ">
<polygon fill="none" stroke="black" points="189.5,-0.5 189.5,-41.5 335.5,-41.5 335.5,-0.5 189.5,-0.5"/>
<text text-anchor="start" x="197.5" y="-29.5" font-family="Helvetica,sans-Serif" font-size="10.00">aopp_deconv_tool.astropy</text>
<text text-anchor="start" x="197.5" y="-18.5" font-family="Helvetica,sans-Serif" font-size="10.00">_helper.fits.specifier.parse</text>
<text text-anchor="middle" x="262.5" y="-7.5" font-family="Helvetica,sans-Serif" font-size="10.00">_axes_type_list</text>
</a>
</g>
</g>
<!-- Node1&#45;&gt;Node3 -->
<g id="edge2" class="edge">
<title>Node1&#45;&gt;Node3</title>
<path fill="none" stroke="midnightblue" d="M146.22,-37.6C157.05,-36.04 168.27,-34.43 179.28,-32.84"/>
<polygon fill="midnightblue" stroke="midnightblue" points="179.91,-36.28 189.31,-31.39 178.92,-29.36 179.91,-36.28"/>
</g>
</g>
</svg>
