<?xml version="1.0" encoding="UTF-8" standalone="no"?>
<!DOCTYPE svg PUBLIC "-//W3C//DTD SVG 1.1//EN"
 "http://www.w3.org/Graphics/SVG/1.1/DTD/svg11.dtd">
<!-- Generated by graphviz version 2.43.0 (0)
 -->
<!-- Title: aopp_deconv_tool.astropy_helper.fits.specifier.parse Pages: 1 -->
<svg width="347pt" height="98pt"
 viewBox="0.00 0.00 347.00 97.50" xmlns="http://www.w3.org/2000/svg" xmlns:xlink="http://www.w3.org/1999/xlink">
<g id="graph0" class="graph" transform="scale(1 1) rotate(0) translate(4 93.5)">
<title>aopp_deconv_tool.astropy_helper.fits.specifier.parse</title>
<!-- Node1 -->
<g id="Node000001" class="node">
<title>Node1</title>
<g id="a_Node000001"><a xlink:title=" ">
<polygon fill="#999999" stroke="#666666" points="145,-62.5 0,-62.5 0,-32.5 145,-32.5 145,-62.5"/>
<text text-anchor="start" x="8" y="-50.5" font-family="Helvetica,sans-Serif" font-size="10.00">aopp_deconv_tool.astropy</text>
<text text-anchor="middle" x="72.5" y="-39.5" font-family="Helvetica,sans-Serif" font-size="10.00">_helper.fits.specifier.parse</text>
</a>
</g>
</g>
<!-- Node2 -->
<g id="Node000002" class="node">
<title>Node2</title>
<g id="a_Node000002"><a xlink:href="../../d0/d1c/namespaceaopp__deconv__tool_1_1astropy__helper_1_1fits_1_1specifier.html#aaae1b59fa48ac081d54e7de105c98099" target="_top" xlink:title=" ">
<polygon fill="white" stroke="#666666" points="339,-89.5 181,-89.5 181,-59.5 339,-59.5 339,-89.5"/>
<text text-anchor="start" x="189" y="-77.5" font-family="Helvetica,sans-Serif" font-size="10.00">aopp_deconv_tool.astropy</text>
<text text-anchor="middle" x="260" y="-66.5" font-family="Helvetica,sans-Serif" font-size="10.00">_helper.fits.specifier.get_help</text>
</a>
</g>
</g>
<!-- Node1&#45;&gt;Node2 -->
<g id="edge1_Node000001_Node000002" class="edge">
<title>Node1&#45;&gt;Node2</title>
<g id="a_edge1_Node000001_Node000002"><a xlink:title=" ">
<path fill="none" stroke="#63b8ff" d="M145.22,-57.94C153.57,-59.15 162.17,-60.41 170.71,-61.65"/>
<polygon fill="#63b8ff" stroke="#63b8ff" points="170.3,-65.13 180.7,-63.1 171.31,-58.2 170.3,-65.13"/>
</a>
</g>
</g>
<!-- Node3 -->
<g id="Node000003" class="node">
<title>Node3</title>
<g id="a_Node000003"><a xlink:href="../../d0/d1c/namespaceaopp__deconv__tool_1_1astropy__helper_1_1fits_1_1specifier.html#a4cdb483f5b160680e1092f80bf69f620" target="_top" xlink:title=" ">
<polygon fill="white" stroke="#666666" points="332.5,-41 187.5,-41 187.5,0 332.5,0 332.5,-41"/>
<text text-anchor="start" x="195.5" y="-29" font-family="Helvetica,sans-Serif" font-size="10.00">aopp_deconv_tool.astropy</text>
<text text-anchor="start" x="195.5" y="-18" font-family="Helvetica,sans-Serif" font-size="10.00">_helper.fits.specifier.parse</text>
<text text-anchor="middle" x="260" y="-7" font-family="Helvetica,sans-Serif" font-size="10.00">_axes_type_list</text>
</a>
</g>
</g>
<!-- Node1&#45;&gt;Node3 -->
<g id="edge2_Node000001_Node000003" class="edge">
<title>Node1&#45;&gt;Node3</title>
<g id="a_edge2_Node000001_Node000003"><a xlink:title=" ">
<path fill="none" stroke="#63b8ff" d="M145.22,-37.06C155.73,-35.53 166.61,-33.95 177.3,-32.39"/>
<polygon fill="#63b8ff" stroke="#63b8ff" points="178.08,-35.82 187.47,-30.91 177.07,-28.89 178.08,-35.82"/>
</a>
</g>
</g>
</g>
</svg>
