<?xml version="1.0" encoding="UTF-8" standalone="no"?>
<!DOCTYPE svg PUBLIC "-//W3C//DTD SVG 1.1//EN"
 "http://www.w3.org/Graphics/SVG/1.1/DTD/svg11.dtd">
<!-- Generated by graphviz version 2.43.0 (0)
 -->
<!-- Title: aopp_deconv_tool.graphical_frontends.ssa_filtering.CallbackMixin Pages: 1 -->
<svg width="717pt" height="213pt"
 viewBox="0.00 0.00 717.00 213.16" xmlns="http://www.w3.org/2000/svg" xmlns:xlink="http://www.w3.org/1999/xlink">
<g id="graph0" class="graph" transform="scale(1 1) rotate(0) translate(4 209.16)">
<title>aopp_deconv_tool.graphical_frontends.ssa_filtering.CallbackMixin</title>
<!-- Node1 -->
<g id="node1" class="node">
<title>Node1</title>
<g id="a_node1"><a xlink:title=" ">
<polygon fill="#bfbfbf" stroke="black" points="0,-98.5 0,-128.5 203,-128.5 203,-98.5 0,-98.5"/>
<text text-anchor="start" x="8" y="-116.5" font-family="Helvetica,sans-Serif" font-size="10.00">aopp_deconv_tool.graphical</text>
<text text-anchor="middle" x="101.5" y="-105.5" font-family="Helvetica,sans-Serif" font-size="10.00">_frontends.ssa_filtering.CallbackMixin</text>
</a>
</g>
</g>
<!-- Node2 -->
<g id="node2" class="node">
<title>Node2</title>
<g id="a_node2"><a xlink:href="../../d8/dd5/classaopp__deconv__tool_1_1graphical__frontends_1_1ssa__filtering_1_1ImageAggregator.html" target="_top" xlink:title=" ">
<polygon fill="none" stroke="black" points="490,-172.5 490,-202.5 709,-202.5 709,-172.5 490,-172.5"/>
<text text-anchor="start" x="498" y="-190.5" font-family="Helvetica,sans-Serif" font-size="10.00">aopp_deconv_tool.graphical</text>
<text text-anchor="middle" x="599.5" y="-179.5" font-family="Helvetica,sans-Serif" font-size="10.00">_frontends.ssa_filtering.ImageAggregator</text>
</a>
</g>
</g>
<!-- Node1&#45;&gt;Node2 -->
<g id="edge1" class="edge">
<title>Node1&#45;&gt;Node2</title>
<path fill="none" stroke="midnightblue" d="M131.27,-134.65C157.74,-152.71 198.86,-177.32 239,-187.5 321.28,-208.37 417.6,-207.06 489.81,-201.26"/>
<polygon fill="midnightblue" stroke="midnightblue" points="133.08,-131.65 122.87,-128.81 129.08,-137.39 133.08,-131.65"/>
</g>
<!-- Node3 -->
<g id="node3" class="node">
<title>Node3</title>
<g id="a_node3"><a xlink:href="../../db/dd6/classaopp__deconv__tool_1_1graphical__frontends_1_1ssa__filtering_1_1ImagePlot.html" target="_top" xlink:title=" ">
<polygon fill="none" stroke="black" points="254.5,-147.5 254.5,-177.5 438.5,-177.5 438.5,-147.5 254.5,-147.5"/>
<text text-anchor="start" x="262.5" y="-165.5" font-family="Helvetica,sans-Serif" font-size="10.00">aopp_deconv_tool.graphical</text>
<text text-anchor="middle" x="346.5" y="-154.5" font-family="Helvetica,sans-Serif" font-size="10.00">_frontends.ssa_filtering.ImagePlot</text>
</a>
</g>
</g>
<!-- Node1&#45;&gt;Node3 -->
<g id="edge2" class="edge">
<title>Node1&#45;&gt;Node3</title>
<path fill="none" stroke="midnightblue" d="M187,-130.54C214.37,-136.06 244.5,-142.13 271.08,-147.49"/>
<polygon fill="midnightblue" stroke="midnightblue" points="187.55,-127.08 177.06,-128.53 186.17,-133.94 187.55,-127.08"/>
</g>
<!-- Node4 -->
<g id="node4" class="node">
<title>Node4</title>
<g id="a_node4"><a xlink:href="../../d6/d1d/classaopp__deconv__tool_1_1graphical__frontends_1_1ssa__filtering_1_1ImageViewer.html" target="_top" xlink:title=" ">
<polygon fill="none" stroke="black" points="247,-98.5 247,-128.5 446,-128.5 446,-98.5 247,-98.5"/>
<text text-anchor="start" x="255" y="-116.5" font-family="Helvetica,sans-Serif" font-size="10.00">aopp_deconv_tool.graphical</text>
<text text-anchor="middle" x="346.5" y="-105.5" font-family="Helvetica,sans-Serif" font-size="10.00">_frontends.ssa_filtering.ImageViewer</text>
</a>
</g>
</g>
<!-- Node1&#45;&gt;Node4 -->
<g id="edge3" class="edge">
<title>Node1&#45;&gt;Node4</title>
<path fill="none" stroke="midnightblue" d="M213.34,-113.5C224.55,-113.5 235.87,-113.5 246.94,-113.5"/>
<polygon fill="midnightblue" stroke="midnightblue" points="213.09,-110 203.09,-113.5 213.09,-117 213.09,-110"/>
</g>
<!-- Node6 -->
<g id="node6" class="node">
<title>Node6</title>
<g id="a_node6"><a xlink:href="../../d1/d4b/classaopp__deconv__tool_1_1graphical__frontends_1_1ssa__filtering_1_1LinePlot.html" target="_top" xlink:title=" ">
<polygon fill="none" stroke="black" points="260,-49.5 260,-79.5 433,-79.5 433,-49.5 260,-49.5"/>
<text text-anchor="start" x="268" y="-67.5" font-family="Helvetica,sans-Serif" font-size="10.00">aopp_deconv_tool.graphical</text>
<text text-anchor="middle" x="346.5" y="-56.5" font-family="Helvetica,sans-Serif" font-size="10.00">_frontends.ssa_filtering.LinePlot</text>
</a>
</g>
</g>
<!-- Node1&#45;&gt;Node6 -->
<g id="edge6" class="edge">
<title>Node1&#45;&gt;Node6</title>
<path fill="none" stroke="midnightblue" d="M187,-96.46C214.37,-90.94 244.5,-84.87 271.08,-79.51"/>
<polygon fill="midnightblue" stroke="midnightblue" points="186.17,-93.06 177.06,-98.47 187.55,-99.92 186.17,-93.06"/>
</g>
<!-- Node7 -->
<g id="node7" class="node">
<title>Node7</title>
<g id="a_node7"><a xlink:href="../../df/dfb/classaopp__deconv__tool_1_1graphical__frontends_1_1ssa__filtering_1_1LineRegionPanel.html" target="_top" xlink:title=" ">
<polygon fill="none" stroke="black" points="239,-0.5 239,-30.5 454,-30.5 454,-0.5 239,-0.5"/>
<text text-anchor="start" x="247" y="-18.5" font-family="Helvetica,sans-Serif" font-size="10.00">aopp_deconv_tool.graphical</text>
<text text-anchor="middle" x="346.5" y="-7.5" font-family="Helvetica,sans-Serif" font-size="10.00">_frontends.ssa_filtering.LineRegionPanel</text>
</a>
</g>
</g>
<!-- Node1&#45;&gt;Node7 -->
<g id="edge7" class="edge">
<title>Node1&#45;&gt;Node7</title>
<path fill="none" stroke="midnightblue" d="M134.32,-92.97C161.25,-76.41 201.36,-53.63 239,-39.5 247.96,-36.14 257.53,-33.16 267.12,-30.56"/>
<polygon fill="midnightblue" stroke="midnightblue" points="132.36,-90.07 125.72,-98.33 136.06,-96.01 132.36,-90.07"/>
</g>
<!-- Node4&#45;&gt;Node2 -->
<g id="edge4" class="edge">
<title>Node4&#45;&gt;Node2</title>
<path fill="none" stroke="midnightblue" d="M429.23,-130.94C437.63,-133.02 446.01,-135.22 454,-137.5 489.87,-147.71 529.89,-161.78 558.71,-172.39"/>
<polygon fill="midnightblue" stroke="midnightblue" points="429.93,-127.51 419.39,-128.55 428.28,-134.31 429.93,-127.51"/>
</g>
<!-- Node5 -->
<g id="node5" class="node">
<title>Node5</title>
<g id="a_node5"><a xlink:href="../../dd/df6/classaopp__deconv__tool_1_1graphical__frontends_1_1ssa__filtering_1_1ResidualViewer.html" target="_top" xlink:title=" ">
<polygon fill="none" stroke="black" points="511.5,-93 511.5,-134 687.5,-134 687.5,-93 511.5,-93"/>
<text text-anchor="start" x="519.5" y="-122" font-family="Helvetica,sans-Serif" font-size="10.00">aopp_deconv_tool.graphical</text>
<text text-anchor="start" x="519.5" y="-111" font-family="Helvetica,sans-Serif" font-size="10.00">_frontends.ssa_filtering.Residual</text>
<text text-anchor="middle" x="599.5" y="-100" font-family="Helvetica,sans-Serif" font-size="10.00">Viewer</text>
</a>
</g>
</g>
<!-- Node4&#45;&gt;Node5 -->
<g id="edge5" class="edge">
<title>Node4&#45;&gt;Node5</title>
<path fill="none" stroke="midnightblue" d="M456.44,-113.5C474.73,-113.5 493.5,-113.5 511.15,-113.5"/>
<polygon fill="midnightblue" stroke="midnightblue" points="456.34,-110 446.34,-113.5 456.34,-117 456.34,-110"/>
</g>
</g>
</svg>
