<?xml version="1.0" encoding="UTF-8" standalone="no"?>
<!DOCTYPE svg PUBLIC "-//W3C//DTD SVG 1.1//EN"
 "http://www.w3.org/Graphics/SVG/1.1/DTD/svg11.dtd">
<!-- Generated by graphviz version 2.43.0 (0)
 -->
<!-- Title: aopp_deconv_tool.graphical_frontends.ssa_filtering.CallbackMixin Pages: 1 -->
<svg width="715pt" height="208pt"
 viewBox="0.00 0.00 715.00 208.19" xmlns="http://www.w3.org/2000/svg" xmlns:xlink="http://www.w3.org/1999/xlink">
<g id="graph0" class="graph" transform="scale(1 1) rotate(0) translate(4 204.19)">
<title>aopp_deconv_tool.graphical_frontends.ssa_filtering.CallbackMixin</title>
<!-- Node1 -->
<g id="Node000001" class="node">
<title>Node1</title>
<g id="a_Node000001"><a xlink:title=" ">
<polygon fill="#999999" stroke="#666666" points="203,-126 0,-126 0,-96 203,-96 203,-126"/>
<text text-anchor="start" x="8" y="-114" font-family="Helvetica,sans-Serif" font-size="10.00">aopp_deconv_tool.graphical</text>
<text text-anchor="middle" x="101.5" y="-103" font-family="Helvetica,sans-Serif" font-size="10.00">_frontends.ssa_filtering.CallbackMixin</text>
</a>
</g>
</g>
<!-- Node2 -->
<g id="Node000002" class="node">
<title>Node2</title>
<g id="a_Node000002"><a xlink:href="../../d8/dd5/classaopp__deconv__tool_1_1graphical__frontends_1_1ssa__filtering_1_1ImageAggregator.html" target="_top" xlink:title=" ">
<polygon fill="white" stroke="#666666" points="707,-198 489,-198 489,-168 707,-168 707,-198"/>
<text text-anchor="start" x="497" y="-186" font-family="Helvetica,sans-Serif" font-size="10.00">aopp_deconv_tool.graphical</text>
<text text-anchor="middle" x="598" y="-175" font-family="Helvetica,sans-Serif" font-size="10.00">_frontends.ssa_filtering.ImageAggregator</text>
</a>
</g>
</g>
<!-- Node1&#45;&gt;Node2 -->
<g id="edge1_Node000001_Node000002" class="edge">
<title>Node1&#45;&gt;Node2</title>
<g id="a_edge1_Node000001_Node000002"><a xlink:title=" ">
<path fill="none" stroke="#63b8ff" d="M131.82,-131.89C158.37,-149.44 199.28,-173.17 239,-183 321.05,-203.31 416.96,-202.04 488.85,-196.39"/>
<polygon fill="#63b8ff" stroke="#63b8ff" points="133.64,-128.9 123.4,-126.21 129.73,-134.7 133.64,-128.9"/>
</a>
</g>
</g>
<!-- Node3 -->
<g id="Node000003" class="node">
<title>Node3</title>
<g id="a_Node000003"><a xlink:href="../../db/dd6/classaopp__deconv__tool_1_1graphical__frontends_1_1ssa__filtering_1_1ImagePlot.html" target="_top" xlink:title=" ">
<polygon fill="white" stroke="#666666" points="437.5,-174 254.5,-174 254.5,-144 437.5,-144 437.5,-174"/>
<text text-anchor="start" x="262.5" y="-162" font-family="Helvetica,sans-Serif" font-size="10.00">aopp_deconv_tool.graphical</text>
<text text-anchor="middle" x="346" y="-151" font-family="Helvetica,sans-Serif" font-size="10.00">_frontends.ssa_filtering.ImagePlot</text>
</a>
</g>
</g>
<!-- Node1&#45;&gt;Node3 -->
<g id="edge2_Node000001_Node000003" class="edge">
<title>Node1&#45;&gt;Node3</title>
<g id="a_edge2_Node000001_Node000003"><a xlink:title=" ">
<path fill="none" stroke="#63b8ff" d="M188.52,-128.03C214.85,-133.24 243.61,-138.93 269.21,-144"/>
<polygon fill="#63b8ff" stroke="#63b8ff" points="189.05,-124.56 178.56,-126.06 187.69,-131.43 189.05,-124.56"/>
</a>
</g>
</g>
<!-- Node4 -->
<g id="Node000004" class="node">
<title>Node4</title>
<g id="a_Node000004"><a xlink:href="../../d6/d1d/classaopp__deconv__tool_1_1graphical__frontends_1_1ssa__filtering_1_1ImageViewer.html" target="_top" xlink:title=" ">
<polygon fill="white" stroke="#666666" points="445,-126 247,-126 247,-96 445,-96 445,-126"/>
<text text-anchor="start" x="255" y="-114" font-family="Helvetica,sans-Serif" font-size="10.00">aopp_deconv_tool.graphical</text>
<text text-anchor="middle" x="346" y="-103" font-family="Helvetica,sans-Serif" font-size="10.00">_frontends.ssa_filtering.ImageViewer</text>
</a>
</g>
</g>
<!-- Node1&#45;&gt;Node4 -->
<g id="edge3_Node000001_Node000004" class="edge">
<title>Node1&#45;&gt;Node4</title>
<g id="a_edge3_Node000001_Node000004"><a xlink:title=" ">
<path fill="none" stroke="#63b8ff" d="M213.45,-111C224.61,-111 235.9,-111 246.92,-111"/>
<polygon fill="#63b8ff" stroke="#63b8ff" points="213.24,-107.5 203.24,-111 213.24,-114.5 213.24,-107.5"/>
</a>
</g>
</g>
<!-- Node6 -->
<g id="Node000006" class="node">
<title>Node6</title>
<g id="a_Node000006"><a xlink:href="../../d1/d4b/classaopp__deconv__tool_1_1graphical__frontends_1_1ssa__filtering_1_1LinePlot.html" target="_top" xlink:title=" ">
<polygon fill="white" stroke="#666666" points="432.5,-78 259.5,-78 259.5,-48 432.5,-48 432.5,-78"/>
<text text-anchor="start" x="267.5" y="-66" font-family="Helvetica,sans-Serif" font-size="10.00">aopp_deconv_tool.graphical</text>
<text text-anchor="middle" x="346" y="-55" font-family="Helvetica,sans-Serif" font-size="10.00">_frontends.ssa_filtering.LinePlot</text>
</a>
</g>
</g>
<!-- Node1&#45;&gt;Node6 -->
<g id="edge6_Node000001_Node000006" class="edge">
<title>Node1&#45;&gt;Node6</title>
<g id="a_edge6_Node000001_Node000006"><a xlink:title=" ">
<path fill="none" stroke="#63b8ff" d="M188.52,-93.97C214.85,-88.76 243.61,-83.07 269.21,-78"/>
<polygon fill="#63b8ff" stroke="#63b8ff" points="187.69,-90.57 178.56,-95.94 189.05,-97.44 187.69,-90.57"/>
</a>
</g>
</g>
<!-- Node7 -->
<g id="Node000007" class="node">
<title>Node7</title>
<g id="a_Node000007"><a xlink:href="../../df/dfb/classaopp__deconv__tool_1_1graphical__frontends_1_1ssa__filtering_1_1LineRegionPanel.html" target="_top" xlink:title=" ">
<polygon fill="white" stroke="#666666" points="453,-30 239,-30 239,0 453,0 453,-30"/>
<text text-anchor="start" x="247" y="-18" font-family="Helvetica,sans-Serif" font-size="10.00">aopp_deconv_tool.graphical</text>
<text text-anchor="middle" x="346" y="-7" font-family="Helvetica,sans-Serif" font-size="10.00">_frontends.ssa_filtering.LineRegionPanel</text>
</a>
</g>
</g>
<!-- Node1&#45;&gt;Node7 -->
<g id="edge7_Node000001_Node000007" class="edge">
<title>Node1&#45;&gt;Node7</title>
<g id="a_edge7_Node000001_Node000007"><a xlink:title=" ">
<path fill="none" stroke="#63b8ff" d="M134.89,-90.79C161.87,-74.73 201.75,-52.77 239,-39 248.11,-35.63 257.85,-32.65 267.59,-30.03"/>
<polygon fill="#63b8ff" stroke="#63b8ff" points="133.02,-87.83 126.26,-95.98 136.63,-93.82 133.02,-87.83"/>
</a>
</g>
</g>
<!-- Node4&#45;&gt;Node2 -->
<g id="edge4_Node000004_Node000002" class="edge">
<title>Node4&#45;&gt;Node2</title>
<g id="a_edge4_Node000004_Node000002"><a xlink:title=" ">
<path fill="none" stroke="#63b8ff" d="M427.91,-128.45C436.41,-130.54 444.9,-132.74 453,-135 487.9,-144.74 526.85,-157.87 555.43,-167.93"/>
<polygon fill="#63b8ff" stroke="#63b8ff" points="428.49,-124.98 417.95,-126.04 426.85,-131.79 428.49,-124.98"/>
</a>
</g>
</g>
<!-- Node5 -->
<g id="Node000005" class="node">
<title>Node5</title>
<g id="a_Node000005"><a xlink:href="../../dd/df6/classaopp__deconv__tool_1_1graphical__frontends_1_1ssa__filtering_1_1ResidualViewer.html" target="_top" xlink:title=" ">
<polygon fill="white" stroke="#666666" points="686,-131.5 510,-131.5 510,-90.5 686,-90.5 686,-131.5"/>
<text text-anchor="start" x="518" y="-119.5" font-family="Helvetica,sans-Serif" font-size="10.00">aopp_deconv_tool.graphical</text>
<text text-anchor="start" x="518" y="-108.5" font-family="Helvetica,sans-Serif" font-size="10.00">_frontends.ssa_filtering.Residual</text>
<text text-anchor="middle" x="598" y="-97.5" font-family="Helvetica,sans-Serif" font-size="10.00">Viewer</text>
</a>
</g>
</g>
<!-- Node4&#45;&gt;Node5 -->
<g id="edge5_Node000004_Node000005" class="edge">
<title>Node4&#45;&gt;Node5</title>
<g id="a_edge5_Node000004_Node000005"><a xlink:title=" ">
<path fill="none" stroke="#63b8ff" d="M455.16,-111C473.4,-111 492.13,-111 509.75,-111"/>
<polygon fill="#63b8ff" stroke="#63b8ff" points="455.09,-107.5 445.09,-111 455.09,-114.5 455.09,-107.5"/>
</a>
</g>
</g>
</g>
</svg>
