<?xml version="1.0" encoding="UTF-8" standalone="no"?>
<!DOCTYPE svg PUBLIC "-//W3C//DTD SVG 1.1//EN"
 "http://www.w3.org/Graphics/SVG/1.1/DTD/svg11.dtd">
<!-- Generated by graphviz version 2.43.0 (0)
 -->
<!-- Title: aopp_deconv_tool.numpy_helper.axes.AxesOrdering.n Pages: 1 -->
<svg width="539pt" height="194pt"
 viewBox="0.00 0.00 539.00 193.50" xmlns="http://www.w3.org/2000/svg" xmlns:xlink="http://www.w3.org/1999/xlink">
<g id="graph0" class="graph" transform="scale(1 1) rotate(0) translate(4 189.5)">
<title>aopp_deconv_tool.numpy_helper.axes.AxesOrdering.n</title>
<!-- Node1 -->
<g id="Node000001" class="node">
<title>Node1</title>
<g id="a_Node000001"><a xlink:title=" ">
<polygon fill="#999999" stroke="#666666" points="531,-102 376,-102 376,-72 531,-72 531,-102"/>
<text text-anchor="start" x="384" y="-90" font-family="Helvetica,sans-Serif" font-size="10.00">aopp_deconv_tool.numpy</text>
<text text-anchor="middle" x="453.5" y="-79" font-family="Helvetica,sans-Serif" font-size="10.00">_helper.axes.AxesOrdering.n</text>
</a>
</g>
</g>
<!-- Node2 -->
<g id="Node000002" class="node">
<title>Node2</title>
<g id="a_Node000002"><a xlink:href="../../dc/d52/classaopp__deconv__tool_1_1plot__helper_1_1LimRememberNExtremes.html#a71e6914a703c29fc9d3605237da731ec" target="_top" xlink:title=" ">
<polygon fill="white" stroke="#666666" points="340,-185.5 156,-185.5 156,-144.5 340,-144.5 340,-185.5"/>
<text text-anchor="start" x="164" y="-173.5" font-family="Helvetica,sans-Serif" font-size="10.00">aopp_deconv_tool.plot</text>
<text text-anchor="start" x="164" y="-162.5" font-family="Helvetica,sans-Serif" font-size="10.00">_helper.LimRememberNExtremes.</text>
<text text-anchor="middle" x="248" y="-151.5" font-family="Helvetica,sans-Serif" font-size="10.00">__call__</text>
</a>
</g>
</g>
<!-- Node1&#45;&gt;Node2 -->
<g id="edge1_Node000001_Node000002" class="edge">
<title>Node1&#45;&gt;Node2</title>
<g id="a_edge1_Node000001_Node000002"><a xlink:title=" ">
<path fill="none" stroke="#63b8ff" d="M410.08,-106.11C389.15,-115.27 363.43,-126.16 340,-135 331.6,-138.17 322.69,-141.34 313.86,-144.37"/>
<polygon fill="#63b8ff" stroke="#63b8ff" points="411.59,-109.27 419.33,-102.03 408.76,-102.86 411.59,-109.27"/>
</a>
</g>
</g>
<!-- Node3 -->
<g id="Node000003" class="node">
<title>Node3</title>
<g id="a_Node000003"><a xlink:href="../../dc/dbb/classaopp__deconv__tool_1_1py__ssa_1_1SSA.html#a64409d45134018ab60813efb84503539" target="_top" xlink:title=" ">
<polygon fill="white" stroke="#666666" points="308,-126 188,-126 188,-96 308,-96 308,-126"/>
<text text-anchor="start" x="196" y="-114" font-family="Helvetica,sans-Serif" font-size="10.00">aopp_deconv_tool.py</text>
<text text-anchor="middle" x="248" y="-103" font-family="Helvetica,sans-Serif" font-size="10.00">_ssa.SSA.plot_ssa</text>
</a>
</g>
</g>
<!-- Node1&#45;&gt;Node3 -->
<g id="edge2_Node000001_Node000003" class="edge">
<title>Node1&#45;&gt;Node3</title>
<g id="a_edge2_Node000001_Node000003"><a xlink:title=" ">
<path fill="none" stroke="#63b8ff" d="M365.77,-97.23C346.33,-99.52 326.14,-101.9 308.12,-104.03"/>
<polygon fill="#63b8ff" stroke="#63b8ff" points="366.33,-100.69 375.86,-96.04 365.51,-93.73 366.33,-100.69"/>
</a>
</g>
</g>
<!-- Node5 -->
<g id="Node000005" class="node">
<title>Node5</title>
<g id="a_Node000005"><a xlink:href="../../dc/dbb/classaopp__deconv__tool_1_1py__ssa_1_1SSA.html#aae96d3dab057d77761935bafcb4fb84a" target="_top" xlink:title=" ">
<polygon fill="white" stroke="#666666" points="328.5,-78 167.5,-78 167.5,-48 328.5,-48 328.5,-78"/>
<text text-anchor="start" x="175.5" y="-66" font-family="Helvetica,sans-Serif" font-size="10.00">aopp_deconv_tool.py</text>
<text text-anchor="middle" x="248" y="-55" font-family="Helvetica,sans-Serif" font-size="10.00">_ssa.SSA.quasi_hankelisation</text>
</a>
</g>
</g>
<!-- Node1&#45;&gt;Node5 -->
<g id="edge4_Node000001_Node000005" class="edge">
<title>Node1&#45;&gt;Node5</title>
<g id="a_edge4_Node000001_Node000005"><a xlink:title=" ">
<path fill="none" stroke="#63b8ff" d="M365.62,-76.75C353.34,-75.31 340.76,-73.82 328.63,-72.39"/>
<polygon fill="#63b8ff" stroke="#63b8ff" points="365.51,-80.27 375.86,-77.96 366.33,-73.31 365.51,-80.27"/>
</a>
</g>
</g>
<!-- Node6 -->
<g id="Node000006" class="node">
<title>Node6</title>
<g id="a_Node000006"><a xlink:href="../../dc/dbb/classaopp__deconv__tool_1_1py__ssa_1_1SSA.html#ad081203f3d62552d821e66ed70971109" target="_top" xlink:title=" ">
<polygon fill="white" stroke="#666666" points="322.5,-30 173.5,-30 173.5,0 322.5,0 322.5,-30"/>
<text text-anchor="start" x="181.5" y="-18" font-family="Helvetica,sans-Serif" font-size="10.00">aopp_deconv_tool.py</text>
<text text-anchor="middle" x="248" y="-7" font-family="Helvetica,sans-Serif" font-size="10.00">_ssa.SSA.reverse_mapping</text>
</a>
</g>
</g>
<!-- Node1&#45;&gt;Node6 -->
<g id="edge5_Node000001_Node000006" class="edge">
<title>Node1&#45;&gt;Node6</title>
<g id="a_edge5_Node000001_Node000006"><a xlink:title=" ">
<path fill="none" stroke="#63b8ff" d="M411.22,-67.68C390.18,-58.27 364.04,-47.25 340,-39 330.73,-35.82 320.8,-32.81 311.04,-30.07"/>
<polygon fill="#63b8ff" stroke="#63b8ff" points="409.94,-70.94 420.5,-71.87 412.82,-64.56 409.94,-70.94"/>
</a>
</g>
</g>
<!-- Node4 -->
<g id="Node000004" class="node">
<title>Node4</title>
<g id="a_Node000004"><a xlink:href="../../dc/dbb/classaopp__deconv__tool_1_1py__ssa_1_1SSA.html#a5c00b10ecd9b9b702ef09f1536ced2c4" target="_top" xlink:title=" ">
<polygon fill="white" stroke="#666666" points="120,-126 0,-126 0,-96 120,-96 120,-126"/>
<text text-anchor="start" x="8" y="-114" font-family="Helvetica,sans-Serif" font-size="10.00">aopp_deconv_tool.py</text>
<text text-anchor="middle" x="60" y="-103" font-family="Helvetica,sans-Serif" font-size="10.00">_ssa.SSA.plot_all</text>
</a>
</g>
</g>
<!-- Node3&#45;&gt;Node4 -->
<g id="edge3_Node000003_Node000004" class="edge">
<title>Node3&#45;&gt;Node4</title>
<g id="a_edge3_Node000003_Node000004"><a xlink:title=" ">
<path fill="none" stroke="#63b8ff" d="M177.85,-111C158.92,-111 138.59,-111 120.27,-111"/>
<polygon fill="#63b8ff" stroke="#63b8ff" points="177.89,-114.5 187.89,-111 177.89,-107.5 177.89,-114.5"/>
</a>
</g>
</g>
</g>
</svg>
