<?xml version="1.0" encoding="UTF-8" standalone="no"?>
<!DOCTYPE svg PUBLIC "-//W3C//DTD SVG 1.1//EN"
 "http://www.w3.org/Graphics/SVG/1.1/DTD/svg11.dtd">
<!-- Generated by graphviz version 2.43.0 (0)
 -->
<!-- Title: aopp_deconv_tool.numpy_helper.axes.AxesOrdering.n Pages: 1 -->
<svg width="542pt" height="198pt"
 viewBox="0.00 0.00 542.00 197.50" xmlns="http://www.w3.org/2000/svg" xmlns:xlink="http://www.w3.org/1999/xlink">
<g id="graph0" class="graph" transform="scale(1 1) rotate(0) translate(4 193.5)">
<title>aopp_deconv_tool.numpy_helper.axes.AxesOrdering.n</title>
<!-- Node1 -->
<g id="node1" class="node">
<title>Node1</title>
<g id="a_node1"><a xlink:title=" ">
<polygon fill="#bfbfbf" stroke="black" points="377,-73.5 377,-103.5 534,-103.5 534,-73.5 377,-73.5"/>
<text text-anchor="start" x="385" y="-91.5" font-family="Helvetica,sans-Serif" font-size="10.00">aopp_deconv_tool.numpy</text>
<text text-anchor="middle" x="455.5" y="-80.5" font-family="Helvetica,sans-Serif" font-size="10.00">_helper.axes.AxesOrdering.n</text>
</a>
</g>
</g>
<!-- Node2 -->
<g id="node2" class="node">
<title>Node2</title>
<g id="a_node2"><a xlink:href="../../dc/d52/classaopp__deconv__tool_1_1plot__helper_1_1LimRememberNExtremes.html#ac6f3ddc05cce841583a3b0e247c01708" target="_top" xlink:title=" ">
<polygon fill="none" stroke="black" points="156,-148 156,-189 341,-189 341,-148 156,-148"/>
<text text-anchor="start" x="164" y="-177" font-family="Helvetica,sans-Serif" font-size="10.00">aopp_deconv_tool.plot</text>
<text text-anchor="start" x="164" y="-166" font-family="Helvetica,sans-Serif" font-size="10.00">_helper.LimRememberNExtremes.</text>
<text text-anchor="middle" x="248.5" y="-155" font-family="Helvetica,sans-Serif" font-size="10.00">__call__</text>
</a>
</g>
</g>
<!-- Node1&#45;&gt;Node2 -->
<g id="edge1" class="edge">
<title>Node1&#45;&gt;Node2</title>
<path fill="none" stroke="midnightblue" d="M413.44,-107.75C392.05,-117.48 365.35,-129.17 341,-138.5 332.57,-141.73 323.63,-144.93 314.76,-147.97"/>
<polygon fill="midnightblue" stroke="midnightblue" points="414.93,-110.92 422.56,-103.58 412.01,-104.56 414.93,-110.92"/>
</g>
<!-- Node3 -->
<g id="node3" class="node">
<title>Node3</title>
<g id="a_node3"><a xlink:href="../../dc/dbb/classaopp__deconv__tool_1_1py__ssa_1_1SSA.html#af12ca837d22d0820153248f4857cfa51" target="_top" xlink:title=" ">
<polygon fill="none" stroke="black" points="188.5,-98.5 188.5,-128.5 308.5,-128.5 308.5,-98.5 188.5,-98.5"/>
<text text-anchor="start" x="196.5" y="-116.5" font-family="Helvetica,sans-Serif" font-size="10.00">aopp_deconv_tool.py</text>
<text text-anchor="middle" x="248.5" y="-105.5" font-family="Helvetica,sans-Serif" font-size="10.00">_ssa.SSA.plot_ssa</text>
</a>
</g>
</g>
<!-- Node1&#45;&gt;Node3 -->
<g id="edge2" class="edge">
<title>Node1&#45;&gt;Node3</title>
<path fill="none" stroke="midnightblue" d="M367.07,-99.16C347.33,-101.57 326.82,-104.07 308.57,-106.3"/>
<polygon fill="midnightblue" stroke="midnightblue" points="367.5,-102.64 377,-97.95 366.65,-95.69 367.5,-102.64"/>
</g>
<!-- Node5 -->
<g id="node5" class="node">
<title>Node5</title>
<g id="a_node5"><a xlink:href="../../dc/dbb/classaopp__deconv__tool_1_1py__ssa_1_1SSA.html#aae96d3dab057d77761935bafcb4fb84a" target="_top" xlink:title=" ">
<polygon fill="none" stroke="black" points="168,-49.5 168,-79.5 329,-79.5 329,-49.5 168,-49.5"/>
<text text-anchor="start" x="176" y="-67.5" font-family="Helvetica,sans-Serif" font-size="10.00">aopp_deconv_tool.py</text>
<text text-anchor="middle" x="248.5" y="-56.5" font-family="Helvetica,sans-Serif" font-size="10.00">_ssa.SSA.quasi_hankelisation</text>
</a>
</g>
</g>
<!-- Node1&#45;&gt;Node5 -->
<g id="edge4" class="edge">
<title>Node1&#45;&gt;Node5</title>
<path fill="none" stroke="midnightblue" d="M367,-78.26C354.43,-76.79 341.56,-75.28 329.16,-73.83"/>
<polygon fill="midnightblue" stroke="midnightblue" points="366.66,-81.74 377,-79.43 367.47,-74.79 366.66,-81.74"/>
</g>
<!-- Node6 -->
<g id="node6" class="node">
<title>Node6</title>
<g id="a_node6"><a xlink:href="../../dc/dbb/classaopp__deconv__tool_1_1py__ssa_1_1SSA.html#ad081203f3d62552d821e66ed70971109" target="_top" xlink:title=" ">
<polygon fill="none" stroke="black" points="174,-0.5 174,-30.5 323,-30.5 323,-0.5 174,-0.5"/>
<text text-anchor="start" x="182" y="-18.5" font-family="Helvetica,sans-Serif" font-size="10.00">aopp_deconv_tool.py</text>
<text text-anchor="middle" x="248.5" y="-7.5" font-family="Helvetica,sans-Serif" font-size="10.00">_ssa.SSA.reverse_mapping</text>
</a>
</g>
</g>
<!-- Node1&#45;&gt;Node6 -->
<g id="edge5" class="edge">
<title>Node1&#45;&gt;Node6</title>
<path fill="none" stroke="midnightblue" d="M412.8,-69.29C391.57,-59.91 365.19,-48.88 341,-40.5 330.89,-37 320.01,-33.66 309.41,-30.63"/>
<polygon fill="midnightblue" stroke="midnightblue" points="411.61,-72.59 422.17,-73.47 414.46,-66.2 411.61,-72.59"/>
</g>
<!-- Node4 -->
<g id="node4" class="node">
<title>Node4</title>
<g id="a_node4"><a xlink:href="../../dc/dbb/classaopp__deconv__tool_1_1py__ssa_1_1SSA.html#aaff54721af0d9ec713eac1ae66c7fbfe" target="_top" xlink:title=" ">
<polygon fill="none" stroke="black" points="0,-98.5 0,-128.5 120,-128.5 120,-98.5 0,-98.5"/>
<text text-anchor="start" x="8" y="-116.5" font-family="Helvetica,sans-Serif" font-size="10.00">aopp_deconv_tool.py</text>
<text text-anchor="middle" x="60" y="-105.5" font-family="Helvetica,sans-Serif" font-size="10.00">_ssa.SSA.plot_all</text>
</a>
</g>
</g>
<!-- Node3&#45;&gt;Node4 -->
<g id="edge3" class="edge">
<title>Node3&#45;&gt;Node4</title>
<path fill="none" stroke="midnightblue" d="M178.36,-113.5C159.27,-113.5 138.74,-113.5 120.27,-113.5"/>
<polygon fill="midnightblue" stroke="midnightblue" points="178.49,-117 188.49,-113.5 178.49,-110 178.49,-117"/>
</g>
</g>
</svg>
