<?xml version="1.0" encoding="UTF-8" standalone="no"?>
<!DOCTYPE svg PUBLIC "-//W3C//DTD SVG 1.1//EN"
 "http://www.w3.org/Graphics/SVG/1.1/DTD/svg11.dtd">
<!-- Generated by graphviz version 2.43.0 (0)
 -->
<!-- Title: aopp_deconv_tool.plot_helper.base.Base.is_ax_attached Pages: 1 -->
<svg width="314pt" height="100pt"
 viewBox="0.00 0.00 314.00 99.50" xmlns="http://www.w3.org/2000/svg" xmlns:xlink="http://www.w3.org/1999/xlink">
<g id="graph0" class="graph" transform="scale(1 1) rotate(0) translate(4 95.5)">
<title>aopp_deconv_tool.plot_helper.base.Base.is_ax_attached</title>
<!-- Node1 -->
<g id="node1" class="node">
<title>Node1</title>
<g id="a_node1"><a xlink:title=" ">
<polygon fill="#bfbfbf" stroke="black" points="179,-27.5 179,-68.5 306,-68.5 306,-27.5 179,-27.5"/>
<text text-anchor="start" x="187" y="-56.5" font-family="Helvetica,sans-Serif" font-size="10.00">aopp_deconv_tool.plot</text>
<text text-anchor="start" x="187" y="-45.5" font-family="Helvetica,sans-Serif" font-size="10.00">_helper.base.Base.is</text>
<text text-anchor="middle" x="242.5" y="-34.5" font-family="Helvetica,sans-Serif" font-size="10.00">_ax_attached</text>
</a>
</g>
</g>
<!-- Node2 -->
<g id="node2" class="node">
<title>Node2</title>
<g id="a_node2"><a xlink:href="../../d4/d84/classaopp__deconv__tool_1_1plot__helper_1_1base_1_1Base.html#afdae7a5c937a5ea046b7939467369065" target="_top" xlink:title=" ">
<polygon fill="none" stroke="black" points="0,-61 0,-91 143,-91 143,-61 0,-61"/>
<text text-anchor="start" x="8" y="-79" font-family="Helvetica,sans-Serif" font-size="10.00">aopp_deconv_tool.plot</text>
<text text-anchor="middle" x="71.5" y="-68" font-family="Helvetica,sans-Serif" font-size="10.00">_helper.base.Base.iter_ax</text>
</a>
</g>
</g>
<!-- Node1&#45;&gt;Node2 -->
<g id="edge1" class="edge">
<title>Node1&#45;&gt;Node2</title>
<path fill="none" stroke="midnightblue" d="M168.44,-60.1C160.05,-61.49 151.51,-62.91 143.16,-64.29"/>
<polygon fill="midnightblue" stroke="midnightblue" points="169.28,-63.51 178.57,-58.43 168.13,-56.61 169.28,-63.51"/>
</g>
<!-- Node3 -->
<g id="node3" class="node">
<title>Node3</title>
<g id="a_node3"><a xlink:href="../../d4/d84/classaopp__deconv__tool_1_1plot__helper_1_1base_1_1Base.html#aa722164c312e67ec4b4236e2d1ed2f31" target="_top" xlink:title=" ">
<polygon fill="none" stroke="black" points="8,-0.5 8,-41.5 135,-41.5 135,-0.5 8,-0.5"/>
<text text-anchor="start" x="16" y="-29.5" font-family="Helvetica,sans-Serif" font-size="10.00">aopp_deconv_tool.plot</text>
<text text-anchor="start" x="16" y="-18.5" font-family="Helvetica,sans-Serif" font-size="10.00">_helper.base.Base.on</text>
<text text-anchor="middle" x="71.5" y="-7.5" font-family="Helvetica,sans-Serif" font-size="10.00">_attach_ax</text>
</a>
</g>
</g>
<!-- Node1&#45;&gt;Node3 -->
<g id="edge2" class="edge">
<title>Node1&#45;&gt;Node3</title>
<path fill="none" stroke="midnightblue" d="M168.49,-36.34C157.4,-34.56 146.04,-32.75 135.2,-31.02"/>
<polygon fill="midnightblue" stroke="midnightblue" points="168.14,-39.82 178.57,-37.95 169.25,-32.91 168.14,-39.82"/>
</g>
</g>
</svg>
