<?xml version="1.0" encoding="UTF-8" standalone="no"?>
<!DOCTYPE svg PUBLIC "-//W3C//DTD SVG 1.1//EN"
 "http://www.w3.org/Graphics/SVG/1.1/DTD/svg11.dtd">
<!-- Generated by graphviz version 2.43.0 (0)
 -->
<!-- Title: aopp_deconv_tool.plot_helper.base.Base.is_ax_attached Pages: 1 -->
<svg width="313pt" height="98pt"
 viewBox="0.00 0.00 313.00 97.50" xmlns="http://www.w3.org/2000/svg" xmlns:xlink="http://www.w3.org/1999/xlink">
<g id="graph0" class="graph" transform="scale(1 1) rotate(0) translate(4 93.5)">
<title>aopp_deconv_tool.plot_helper.base.Base.is_ax_attached</title>
<!-- Node1 -->
<g id="Node000001" class="node">
<title>Node1</title>
<g id="a_Node000001"><a xlink:title=" ">
<polygon fill="#999999" stroke="#666666" points="305,-68 178,-68 178,-27 305,-27 305,-68"/>
<text text-anchor="start" x="186" y="-56" font-family="Helvetica,sans-Serif" font-size="10.00">aopp_deconv_tool.plot</text>
<text text-anchor="start" x="186" y="-45" font-family="Helvetica,sans-Serif" font-size="10.00">_helper.base.Base.is</text>
<text text-anchor="middle" x="241.5" y="-34" font-family="Helvetica,sans-Serif" font-size="10.00">_ax_attached</text>
</a>
</g>
</g>
<!-- Node2 -->
<g id="Node000002" class="node">
<title>Node2</title>
<g id="a_Node000002"><a xlink:href="../../d4/d84/classaopp__deconv__tool_1_1plot__helper_1_1base_1_1Base.html#a63e19b6f7ddc95d4a8859ac99faed4bc" target="_top" xlink:title=" ">
<polygon fill="white" stroke="#666666" points="142,-89.5 0,-89.5 0,-59.5 142,-59.5 142,-89.5"/>
<text text-anchor="start" x="8" y="-77.5" font-family="Helvetica,sans-Serif" font-size="10.00">aopp_deconv_tool.plot</text>
<text text-anchor="middle" x="71" y="-66.5" font-family="Helvetica,sans-Serif" font-size="10.00">_helper.base.Base.iter_ax</text>
</a>
</g>
</g>
<!-- Node1&#45;&gt;Node2 -->
<g id="edge1_Node000001_Node000002" class="edge">
<title>Node1&#45;&gt;Node2</title>
<g id="a_edge1_Node000001_Node000002"><a xlink:title=" ">
<path fill="none" stroke="#63b8ff" d="M167.85,-59.14C159.33,-60.51 150.65,-61.9 142.16,-63.26"/>
<polygon fill="#63b8ff" stroke="#63b8ff" points="168.44,-62.59 177.76,-57.55 167.33,-55.68 168.44,-62.59"/>
</a>
</g>
</g>
<!-- Node3 -->
<g id="Node000003" class="node">
<title>Node3</title>
<g id="a_Node000003"><a xlink:href="../../d4/d84/classaopp__deconv__tool_1_1plot__helper_1_1base_1_1Base.html#add4eb7dcd95ee988ee477eaf65e5efb1" target="_top" xlink:title=" ">
<polygon fill="white" stroke="#666666" points="134.5,-41 7.5,-41 7.5,0 134.5,0 134.5,-41"/>
<text text-anchor="start" x="15.5" y="-29" font-family="Helvetica,sans-Serif" font-size="10.00">aopp_deconv_tool.plot</text>
<text text-anchor="start" x="15.5" y="-18" font-family="Helvetica,sans-Serif" font-size="10.00">_helper.base.Base.on</text>
<text text-anchor="middle" x="71" y="-7" font-family="Helvetica,sans-Serif" font-size="10.00">_attach_ax</text>
</a>
</g>
</g>
<!-- Node1&#45;&gt;Node3 -->
<g id="edge2_Node000001_Node000003" class="edge">
<title>Node1&#45;&gt;Node3</title>
<g id="a_edge2_Node000001_Node000003"><a xlink:title=" ">
<path fill="none" stroke="#63b8ff" d="M167.7,-35.84C156.65,-34.06 145.33,-32.25 134.51,-30.52"/>
<polygon fill="#63b8ff" stroke="#63b8ff" points="167.33,-39.32 177.76,-37.45 168.44,-32.41 167.33,-39.32"/>
</a>
</g>
</g>
</g>
</svg>
