<?xml version="1.0" encoding="UTF-8" standalone="no"?>
<!DOCTYPE svg PUBLIC "-//W3C//DTD SVG 1.1//EN"
 "http://www.w3.org/Graphics/SVG/1.1/DTD/svg11.dtd">
<!-- Generated by graphviz version 2.43.0 (0)
 -->
<!-- Title: aopp_deconv_tool.plot_helper.base.Base.attach Pages: 1 -->
<svg width="348pt" height="160pt"
 viewBox="0.00 0.00 348.00 159.50" xmlns="http://www.w3.org/2000/svg" xmlns:xlink="http://www.w3.org/1999/xlink">
<g id="graph0" class="graph" transform="scale(1 1) rotate(0) translate(4 155.5)">
<title>aopp_deconv_tool.plot_helper.base.Base.attach</title>
<!-- Node1 -->
<g id="node1" class="node">
<title>Node1</title>
<g id="a_node1"><a xlink:title=" ">
<polygon fill="#bfbfbf" stroke="black" points="0,-66 0,-96 140,-96 140,-66 0,-66"/>
<text text-anchor="start" x="8" y="-84" font-family="Helvetica,sans-Serif" font-size="10.00">aopp_deconv_tool.plot</text>
<text text-anchor="middle" x="70" y="-73" font-family="Helvetica,sans-Serif" font-size="10.00">_helper.base.Base.attach</text>
</a>
</g>
</g>
<!-- Node2 -->
<g id="node2" class="node">
<title>Node2</title>
<g id="a_node2"><a xlink:href="../../d4/d84/classaopp__deconv__tool_1_1plot__helper_1_1base_1_1Base.html#ac61f12d8a8d8f88afe7fca0c4afda0c8" target="_top" xlink:title=" ">
<polygon fill="none" stroke="black" points="179.5,-121 179.5,-151 336.5,-151 336.5,-121 179.5,-121"/>
<text text-anchor="start" x="187.5" y="-139" font-family="Helvetica,sans-Serif" font-size="10.00">aopp_deconv_tool.plot</text>
<text text-anchor="middle" x="258" y="-128" font-family="Helvetica,sans-Serif" font-size="10.00">_helper.base.Base.attach_ax</text>
</a>
</g>
</g>
<!-- Node1&#45;&gt;Node2 -->
<g id="edge1" class="edge">
<title>Node1&#45;&gt;Node2</title>
<path fill="none" stroke="midnightblue" d="M121.83,-96.03C144.89,-102.85 172.35,-110.97 196.47,-118.1"/>
<polygon fill="midnightblue" stroke="midnightblue" points="195.65,-121.51 206.24,-120.99 197.64,-114.8 195.65,-121.51"/>
</g>
<!-- Node3 -->
<g id="node3" class="node">
<title>Node3</title>
<g id="a_node3"><a xlink:href="../../d5/dc9/classaopp__deconv__tool_1_1plot__helper_1_1plotters_1_1PlotSet.html#a4be8c36292fd3c938d0c40c73e5ad94c" target="_top" xlink:title=" ">
<polygon fill="none" stroke="black" points="176,-60.5 176,-101.5 340,-101.5 340,-60.5 176,-60.5"/>
<text text-anchor="start" x="184" y="-89.5" font-family="Helvetica,sans-Serif" font-size="10.00">aopp_deconv_tool.plot</text>
<text text-anchor="start" x="184" y="-78.5" font-family="Helvetica,sans-Serif" font-size="10.00">_helper.plotters.PlotSet.attach</text>
<text text-anchor="middle" x="258" y="-67.5" font-family="Helvetica,sans-Serif" font-size="10.00">_datasource</text>
</a>
</g>
</g>
<!-- Node1&#45;&gt;Node3 -->
<g id="edge2" class="edge">
<title>Node1&#45;&gt;Node3</title>
<path fill="none" stroke="midnightblue" d="M140.26,-81C148.57,-81 157.16,-81 165.73,-81"/>
<polygon fill="midnightblue" stroke="midnightblue" points="165.76,-84.5 175.76,-81 165.76,-77.5 165.76,-84.5"/>
</g>
<!-- Node4 -->
<g id="node4" class="node">
<title>Node4</title>
<g id="a_node4"><a xlink:href="../../d4/d84/classaopp__deconv__tool_1_1plot__helper_1_1base_1_1Base.html#a23bd9533864fd36c2b80acc6bd704e67" target="_top" xlink:title=" ">
<polygon fill="none" stroke="black" points="188,-0.5 188,-41.5 328,-41.5 328,-0.5 188,-0.5"/>
<text text-anchor="start" x="196" y="-29.5" font-family="Helvetica,sans-Serif" font-size="10.00">aopp_deconv_tool.plot</text>
<text text-anchor="start" x="196" y="-18.5" font-family="Helvetica,sans-Serif" font-size="10.00">_helper.base.Base.attach</text>
<text text-anchor="middle" x="258" y="-7.5" font-family="Helvetica,sans-Serif" font-size="10.00">_datasource</text>
</a>
</g>
</g>
<!-- Node1&#45;&gt;Node4 -->
<g id="edge3" class="edge">
<title>Node1&#45;&gt;Node4</title>
<path fill="none" stroke="midnightblue" d="M117.94,-65.86C137.81,-59.45 161.44,-51.83 183.53,-44.7"/>
<polygon fill="midnightblue" stroke="midnightblue" points="184.77,-47.98 193.22,-41.58 182.63,-41.31 184.77,-47.98"/>
</g>
</g>
</svg>
