<?xml version="1.0" encoding="UTF-8" standalone="no"?>
<!DOCTYPE svg PUBLIC "-//W3C//DTD SVG 1.1//EN"
 "http://www.w3.org/Graphics/SVG/1.1/DTD/svg11.dtd">
<!-- Generated by graphviz version 2.43.0 (0)
 -->
<!-- Title: aopp_deconv_tool.plot_helper.base.Base.update Pages: 1 -->
<!--zoomable 470 -->
<svg id="main" version="1.1" xmlns="http://www.w3.org/2000/svg" xmlns:xlink="http://www.w3.org/1999/xlink" xml:space="preserve" onload="init(evt)">
<style type="text/css"><![CDATA[
.edge:hover path { stroke: red; }
.edge:hover polygon { stroke: red; fill: red; }
]]></style>
<script type="text/javascript"><![CDATA[
var edges = document.getElementsByTagName('g');
if (edges && edges.length) {
  for (var i=0;i<edges.length;i++) {
    if (edges[i].id.substr(0,4)=='edge') {
      edges[i].setAttribute('class','edge');
    }
  }
}
]]></script>
        <defs>
                <circle id="rim" cx="0" cy="0" r="7"/>
                <circle id="rim2" cx="0" cy="0" r="3.5"/>
                <g id="zoomPlus">
                        <use xlink:href="#rim" fill="#404040">
                                <set attributeName="fill" to="#808080" begin="zoomplus.mouseover" end="zoomplus.mouseout"/>
                        </use>
                        <path d="M-4,0h8M0,-4v8" fill="none" stroke="white" stroke-width="1.5" pointer-events="none"/>
                </g>
                <g id="zoomMin">
                        <use xlink:href="#rim" fill="#404040">
                                <set attributeName="fill" to="#808080" begin="zoomminus.mouseover" end="zoomminus.mouseout"/>
                        </use>
                        <path d="M-4,0h8" fill="none" stroke="white" stroke-width="1.5" pointer-events="none"/>
                </g>
                <g id="dirArrow">
                        <path fill="none" stroke="white" stroke-width="1.5" d="M0,-3.0v7 M-2.5,-0.5L0,-3.0L2.5,-0.5"/>
                </g>
               <g id="resetDef">
                       <use xlink:href="#rim2" fill="#404040">
                               <set attributeName="fill" to="#808080" begin="reset.mouseover" end="reset.mouseout"/>
                       </use>
               </g>
        </defs>

<script type="text/javascript">
var viewWidth = 541;
var viewHeight = 470;
var sectionId = 'dynsection-11';
</script>
<script xlink:href="../../svgpan.js"/>
<svg id="graph" class="graph">
<g id="viewport">
<title>aopp_deconv_tool.plot_helper.base.Base.update</title>
<!-- Node1 -->
<g id="node1" class="node">
<title>Node1</title>
<g id="a_node1"><a xlink:title=" ">
<polygon fill="#bfbfbf" stroke="black" points="0,-216 0,-246 143,-246 143,-216 0,-216"/>
<text text-anchor="start" x="8" y="-234" font-family="Helvetica,sans-Serif" font-size="10.00">aopp_deconv_tool.plot</text>
<text text-anchor="middle" x="71.5" y="-223" font-family="Helvetica,sans-Serif" font-size="10.00">_helper.base.Base.update</text>
</a>
</g>
</g>
<!-- Node2 -->
<g id="node2" class="node">
<title>Node2</title>
<g id="a_node2"><a xlink:href="../../d4/d84/classaopp__deconv__tool_1_1plot__helper_1_1base_1_1Base.html#a7a1d7e4249b2f714dbb84608b328b54d" target="_top" xlink:title=" ">
<polygon fill="none" stroke="black" points="211,-420.5 211,-461.5 338,-461.5 338,-420.5 211,-420.5"/>
<text text-anchor="start" x="219" y="-449.5" font-family="Helvetica,sans-Serif" font-size="10.00">aopp_deconv_tool.plot</text>
<text text-anchor="start" x="219" y="-438.5" font-family="Helvetica,sans-Serif" font-size="10.00">_helper.base.Base.is</text>
<text text-anchor="middle" x="274.5" y="-427.5" font-family="Helvetica,sans-Serif" font-size="10.00">_datasource_attached</text>
</a>
</g>
</g>
<!-- Node1&#45;&gt;Node2 -->
<g id="edge1" class="edge">
<title>Node1&#45;&gt;Node2</title>
<path fill="none" stroke="midnightblue" d="M77.23,-246.06C88.8,-280.51 121.88,-365.57 179,-411 185.68,-416.31 193.32,-420.7 201.29,-424.31"/>
<polygon fill="midnightblue" stroke="midnightblue" points="200.19,-427.64 210.77,-428.2 202.85,-421.16 200.19,-427.64"/>
</g>
<!-- Node3 -->
<g id="node3" class="node">
<title>Node3</title>
<g id="a_node3"><a xlink:href="../../d4/d84/classaopp__deconv__tool_1_1plot__helper_1_1base_1_1Base.html#aa68816395867ba9e159925e45b5bf674" target="_top" xlink:title=" ">
<polygon fill="none" stroke="black" points="203,-360.5 203,-401.5 346,-401.5 346,-360.5 203,-360.5"/>
<text text-anchor="start" x="211" y="-389.5" font-family="Helvetica,sans-Serif" font-size="10.00">aopp_deconv_tool.plot</text>
<text text-anchor="start" x="211" y="-378.5" font-family="Helvetica,sans-Serif" font-size="10.00">_helper.base.Base.update</text>
<text text-anchor="middle" x="274.5" y="-367.5" font-family="Helvetica,sans-Serif" font-size="10.00">_plot_data</text>
</a>
</g>
</g>
<!-- Node1&#45;&gt;Node3 -->
<g id="edge2" class="edge">
<title>Node1&#45;&gt;Node3</title>
<path fill="none" stroke="midnightblue" d="M82.02,-246.27C98.63,-271.67 135.32,-322.62 179,-351 183.6,-353.99 188.52,-356.7 193.61,-359.15"/>
<polygon fill="midnightblue" stroke="midnightblue" points="192.36,-362.43 202.92,-363.3 195.21,-356.03 192.36,-362.43"/>
</g>
<!-- Node4 -->
<g id="node4" class="node">
<title>Node4</title>
<g id="a_node4"><a xlink:href="../../d3/ddd/classaopp__deconv__tool_1_1plot__helper_1_1plotters_1_1Histogram.html#a63ad74d08a87546a4f3ab67253e99291" target="_top" xlink:title=" ">
<polygon fill="none" stroke="black" points="182.5,-300.5 182.5,-341.5 366.5,-341.5 366.5,-300.5 182.5,-300.5"/>
<text text-anchor="start" x="190.5" y="-329.5" font-family="Helvetica,sans-Serif" font-size="10.00">aopp_deconv_tool.plot</text>
<text text-anchor="start" x="190.5" y="-318.5" font-family="Helvetica,sans-Serif" font-size="10.00">_helper.plotters.Histogram.update</text>
<text text-anchor="middle" x="274.5" y="-307.5" font-family="Helvetica,sans-Serif" font-size="10.00">_plot_data</text>
</a>
</g>
</g>
<!-- Node1&#45;&gt;Node4 -->
<g id="edge3" class="edge">
<title>Node1&#45;&gt;Node4</title>
<path fill="none" stroke="midnightblue" d="M95.89,-246.03C117,-259.15 149.22,-278.05 179,-291 183.71,-293.05 188.61,-295.03 193.59,-296.93"/>
<polygon fill="midnightblue" stroke="midnightblue" points="192.64,-300.31 203.23,-300.47 195.06,-293.74 192.64,-300.31"/>
</g>
<!-- Node5 -->
<g id="node5" class="node">
<title>Node5</title>
<g id="a_node5"><a xlink:href="../../da/d2d/classaopp__deconv__tool_1_1plot__helper_1_1plotters_1_1Image.html#aef69104467b09261c9e691ce59ace053" target="_top" xlink:title=" ">
<polygon fill="none" stroke="black" points="192.5,-240.5 192.5,-281.5 356.5,-281.5 356.5,-240.5 192.5,-240.5"/>
<text text-anchor="start" x="200.5" y="-269.5" font-family="Helvetica,sans-Serif" font-size="10.00">aopp_deconv_tool.plot</text>
<text text-anchor="start" x="200.5" y="-258.5" font-family="Helvetica,sans-Serif" font-size="10.00">_helper.plotters.Image.update</text>
<text text-anchor="middle" x="274.5" y="-247.5" font-family="Helvetica,sans-Serif" font-size="10.00">_plot_data</text>
</a>
</g>
</g>
<!-- Node1&#45;&gt;Node5 -->
<g id="edge4" class="edge">
<title>Node1&#45;&gt;Node5</title>
<path fill="none" stroke="midnightblue" d="M143.08,-241.53C155.79,-243.43 169.2,-245.43 182.4,-247.4"/>
<polygon fill="midnightblue" stroke="midnightblue" points="182.02,-250.89 192.43,-248.9 183.06,-243.96 182.02,-250.89"/>
</g>
<!-- Node6 -->
<g id="node6" class="node">
<title>Node6</title>
<g id="a_node6"><a xlink:href="../../d0/dba/classaopp__deconv__tool_1_1plot__helper_1_1plotters_1_1VerticalLine.html#ad9994fb98a5594710207d3d88dc1f73e" target="_top" xlink:title=" ">
<polygon fill="none" stroke="black" points="179,-180.5 179,-221.5 370,-221.5 370,-180.5 179,-180.5"/>
<text text-anchor="start" x="187" y="-209.5" font-family="Helvetica,sans-Serif" font-size="10.00">aopp_deconv_tool.plot</text>
<text text-anchor="start" x="187" y="-198.5" font-family="Helvetica,sans-Serif" font-size="10.00">_helper.plotters.VerticalLine.update</text>
<text text-anchor="middle" x="274.5" y="-187.5" font-family="Helvetica,sans-Serif" font-size="10.00">_plot_data</text>
</a>
</g>
</g>
<!-- Node1&#45;&gt;Node6 -->
<g id="edge5" class="edge">
<title>Node1&#45;&gt;Node6</title>
<path fill="none" stroke="midnightblue" d="M143.08,-220.47C151.38,-219.23 159.97,-217.95 168.6,-216.66"/>
<polygon fill="midnightblue" stroke="midnightblue" points="169.37,-220.08 178.74,-215.14 168.34,-213.16 169.37,-220.08"/>
</g>
<!-- Node7 -->
<g id="node7" class="node">
<title>Node7</title>
<g id="a_node7"><a xlink:href="../../d0/d38/classaopp__deconv__tool_1_1plot__helper_1_1plotters_1_1HorizontalLine.html#a838129b3ff9dc848d68ef447d8e83dec" target="_top" xlink:title=" ">
<polygon fill="none" stroke="black" points="201.5,-120.5 201.5,-161.5 347.5,-161.5 347.5,-120.5 201.5,-120.5"/>
<text text-anchor="start" x="209.5" y="-149.5" font-family="Helvetica,sans-Serif" font-size="10.00">aopp_deconv_tool.plot</text>
<text text-anchor="start" x="209.5" y="-138.5" font-family="Helvetica,sans-Serif" font-size="10.00">_helper.plotters.Horizontal</text>
<text text-anchor="middle" x="274.5" y="-127.5" font-family="Helvetica,sans-Serif" font-size="10.00">Line.update_plot_data</text>
</a>
</g>
</g>
<!-- Node1&#45;&gt;Node7 -->
<g id="edge6" class="edge">
<title>Node1&#45;&gt;Node7</title>
<path fill="none" stroke="midnightblue" d="M95.89,-215.97C117,-202.85 149.22,-183.95 179,-171 183.71,-168.95 188.61,-166.97 193.59,-165.07"/>
<polygon fill="midnightblue" stroke="midnightblue" points="195.06,-168.26 203.23,-161.53 192.64,-161.69 195.06,-168.26"/>
</g>
<!-- Node8 -->
<g id="node8" class="node">
<title>Node8</title>
<g id="a_node8"><a xlink:href="../../d4/d23/classaopp__deconv__tool_1_1plot__helper_1_1plotters_1_1IterativeLineGraph.html#a11abc5e97059d7a43b83b4e7a892f1c5" target="_top" xlink:title=" ">
<polygon fill="none" stroke="black" points="195.5,-60.5 195.5,-101.5 353.5,-101.5 353.5,-60.5 195.5,-60.5"/>
<text text-anchor="start" x="203.5" y="-89.5" font-family="Helvetica,sans-Serif" font-size="10.00">aopp_deconv_tool.plot</text>
<text text-anchor="start" x="203.5" y="-78.5" font-family="Helvetica,sans-Serif" font-size="10.00">_helper.plotters.IterativeLine</text>
<text text-anchor="middle" x="274.5" y="-67.5" font-family="Helvetica,sans-Serif" font-size="10.00">Graph.update_plot_data</text>
</a>
</g>
</g>
<!-- Node1&#45;&gt;Node8 -->
<g id="edge7" class="edge">
<title>Node1&#45;&gt;Node8</title>
<path fill="none" stroke="midnightblue" d="M82.02,-215.73C98.63,-190.33 135.32,-139.38 179,-111 181.59,-109.32 184.27,-107.73 187.04,-106.22"/>
<polygon fill="midnightblue" stroke="midnightblue" points="188.71,-109.3 196.08,-101.68 185.57,-103.04 188.71,-109.3"/>
</g>
<!-- Node9 -->
<g id="node9" class="node">
<title>Node9</title>
<g id="a_node9"><a xlink:href="../../d4/d84/classaopp__deconv__tool_1_1plot__helper_1_1base_1_1Base.html#adfbb2852c23a4c2227d8d1a8e2a10de6" target="_top" xlink:title=" ">
<polygon fill="none" stroke="black" points="203,-0.5 203,-41.5 346,-41.5 346,-0.5 203,-0.5"/>
<text text-anchor="start" x="211" y="-29.5" font-family="Helvetica,sans-Serif" font-size="10.00">aopp_deconv_tool.plot</text>
<text text-anchor="start" x="211" y="-18.5" font-family="Helvetica,sans-Serif" font-size="10.00">_helper.base.Base.update</text>
<text text-anchor="middle" x="274.5" y="-7.5" font-family="Helvetica,sans-Serif" font-size="10.00">_plot_visual</text>
</a>
</g>
</g>
<!-- Node1&#45;&gt;Node9 -->
<g id="edge8" class="edge">
<title>Node1&#45;&gt;Node9</title>
<path fill="none" stroke="midnightblue" d="M77.23,-215.94C88.8,-181.49 121.88,-96.43 179,-51 183.57,-47.36 188.6,-44.16 193.87,-41.35"/>
<polygon fill="midnightblue" stroke="midnightblue" points="195.46,-44.46 202.94,-36.96 192.42,-38.16 195.46,-44.46"/>
</g>
<!-- Node10 -->
<g id="node10" class="node">
<title>Node10</title>
<g id="a_node10"><a xlink:href="../../d4/d84/classaopp__deconv__tool_1_1plot__helper_1_1base_1_1Base.html#a53844168067a33d2deadf75be0d33df3" target="_top" xlink:title=" ">
<polygon fill="none" stroke="black" points="406,-0.5 406,-41.5 533,-41.5 533,-0.5 406,-0.5"/>
<text text-anchor="start" x="414" y="-29.5" font-family="Helvetica,sans-Serif" font-size="10.00">aopp_deconv_tool.plot</text>
<text text-anchor="start" x="414" y="-18.5" font-family="Helvetica,sans-Serif" font-size="10.00">_helper.base.Base.set</text>
<text text-anchor="middle" x="469.5" y="-7.5" font-family="Helvetica,sans-Serif" font-size="10.00">_ax_title</text>
</a>
</g>
</g>
<!-- Node9&#45;&gt;Node10 -->
<g id="edge9" class="edge">
<title>Node9&#45;&gt;Node10</title>
<path fill="none" stroke="midnightblue" d="M346.27,-21C362.24,-21 379.23,-21 395.3,-21"/>
<polygon fill="midnightblue" stroke="midnightblue" points="395.71,-24.5 405.71,-21 395.71,-17.5 395.71,-24.5"/>
</g>
</g>
</svg>
        <g id="navigator" transform="translate(0 0)" fill="#404254">
                <rect fill="#f2f5e9" fill-opacity="0.5" stroke="#606060" stroke-width=".5" x="0" y="0" width="60" height="60"/>
                <use id="zoomplus" xlink:href="#zoomPlus" x="17" y="9" onmousedown="handleZoom(evt,'in')"/>
                <use id="zoomminus" xlink:href="#zoomMin" x="42" y="9" onmousedown="handleZoom(evt,'out')"/>
                <use id="reset" xlink:href="#resetDef" x="30" y="36" onmousedown="handleReset()"/>
                <g id="arrowUp" xlink:href="#dirArrow" transform="translate(30 24)" onmousedown="handlePan(0,-1)">
                  <use xlink:href="#rim" fill="#404040">
                        <set attributeName="fill" to="#808080" begin="arrowUp.mouseover" end="arrowUp.mouseout"/>
                  </use>
                  <path fill="none" stroke="white" stroke-width="1.5" d="M0,-3.0v7 M-2.5,-0.5L0,-3.0L2.5,-0.5"/>
                </g>
                <g id="arrowRight" xlink:href="#dirArrow" transform="rotate(90) translate(36 -43)" onmousedown="handlePan(1,0)">
                  <use xlink:href="#rim" fill="#404040">
                        <set attributeName="fill" to="#808080" begin="arrowRight.mouseover" end="arrowRight.mouseout"/>
                  </use>
                  <path fill="none" stroke="white" stroke-width="1.5" d="M0,-3.0v7 M-2.5,-0.5L0,-3.0L2.5,-0.5"/>
                </g>
                <g id="arrowDown" xlink:href="#dirArrow" transform="rotate(180) translate(-30 -48)" onmousedown="handlePan(0,1)">
                  <use xlink:href="#rim" fill="#404040">
                        <set attributeName="fill" to="#808080" begin="arrowDown.mouseover" end="arrowDown.mouseout"/>
                  </use>
                  <path fill="none" stroke="white" stroke-width="1.5" d="M0,-3.0v7 M-2.5,-0.5L0,-3.0L2.5,-0.5"/>
                </g>
                <g id="arrowLeft" xlink:href="#dirArrow" transform="rotate(270) translate(-36 17)" onmousedown="handlePan(-1,0)">
                  <use xlink:href="#rim" fill="#404040">
                        <set attributeName="fill" to="#808080" begin="arrowLeft.mouseover" end="arrowLeft.mouseout"/>
                  </use>
                  <path fill="none" stroke="white" stroke-width="1.5" d="M0,-3.0v7 M-2.5,-0.5L0,-3.0L2.5,-0.5"/>
                </g>
        </g>
        <svg viewBox="0 0 15 15" width="100%" height="30px" preserveAspectRatio="xMaxYMin meet">
         <g id="arrow_out" transform="scale(0.3 0.3)">
          <a xlink:href="classaopp__deconv__tool_1_1plot__helper_1_1base_1_1Base_af812301308188fe5f58e8d31b6b0d622_cgraph_org.svg" target="_base">
           <rect id="button" ry="5" rx="5" y="6" x="6" height="38" width="38"
                fill="#f2f5e9" fill-opacity="0.5" stroke="#606060" stroke-width="1.0"/>
           <path id="arrow"
             d="M 11.500037,31.436501 C 11.940474,20.09759 22.043105,11.32322 32.158766,21.979434 L 37.068811,17.246167 C 37.068811,17.246167 37.088388,32 37.088388,32 L 22.160133,31.978069 C 22.160133,31.978069 26.997745,27.140456 26.997745,27.140456 C 18.528582,18.264221 13.291696,25.230495 11.500037,31.436501 z"
             style="fill:#404040;"/>
          </a>
         </g>
        </svg>
</svg>
