<?xml version="1.0" encoding="UTF-8" standalone="no"?>
<!DOCTYPE svg PUBLIC "-//W3C//DTD SVG 1.1//EN"
 "http://www.w3.org/Graphics/SVG/1.1/DTD/svg11.dtd">
<!-- Generated by graphviz version 2.43.0 (0)
 -->
<!-- Title: aopp_deconv_tool.plot_helper.base.Base.update Pages: 1 -->
<!--zoomable 462 -->

<svg id="main" version="1.1" xmlns="http://www.w3.org/2000/svg" xmlns:xlink="http://www.w3.org/1999/xlink" xml:space="preserve" onload="init(evt)">
<style type="text/css"><![CDATA[
.node, .edge {opacity: 0.7;}
.node.selected, .edge.selected {opacity: 1;}
.edge:hover path { stroke: red; }
.edge:hover polygon { stroke: red; fill: red; }
]]></style>

<defs>
  <circle id="rim" cx="0" cy="0" r="7"/>
  <circle id="rim2" cx="0" cy="0" r="3.5"/>
  <g id="zoomPlus">
    <use xlink:href="#rim" fill="#404040"><set attributeName="fill" to="#808080" begin="zoomplus.mouseover" end="zoomplus.mouseout"/></use>
    <path d="M-4,0h8M0,-4v8" fill="none" stroke="white" stroke-width="1.5" pointer-events="none"/>
  </g>
  <g id="zoomMin">
    <use xlink:href="#rim" fill="#404040"><set attributeName="fill" to="#808080" begin="zoomminus.mouseover" end="zoomminus.mouseout"/></use>
    <path d="M-4,0h8" fill="none" stroke="white" stroke-width="1.5" pointer-events="none"/>
  </g>
  <g id="arrowUp" transform="translate(30 24)">
    <use xlink:href="#rim"/>
    <path pointer-events="none" fill="none" stroke="white" stroke-width="1.5" d="M0,-3.0v7 M-2.5,-0.5L0,-3.0L2.5,-0.5"/>
  </g>
  <g id="arrowRight" transform="rotate(90) translate(36 -43)">
    <use xlink:href="#rim"/>
    <path pointer-events="none" fill="none" stroke="white" stroke-width="1.5" d="M0,-3.0v7 M-2.5,-0.5L0,-3.0L2.5,-0.5"/>
  </g>
  <g id="arrowDown" transform="rotate(180) translate(-30 -48)">
    <use xlink:href="#rim"/>
    <path pointer-events="none" fill="none" stroke="white" stroke-width="1.5" d="M0,-3.0v7 M-2.5,-0.5L0,-3.0L2.5,-0.5"/>
  </g>
  <g id="arrowLeft" transform="rotate(270) translate(-36 17)">
    <use xlink:href="#rim"/>
    <path pointer-events="none" fill="none" stroke="white" stroke-width="1.5" d="M0,-3.0v7 M-2.5,-0.5L0,-3.0L2.5,-0.5"/>
  </g>
  <g id="resetDef">
    <use xlink:href="#rim2" fill="#404040"><set attributeName="fill" to="#808080" begin="reset.mouseover" end="reset.mouseout"/></use>
  </g>
</defs>
<script type="application/ecmascript">
var viewWidth = 375;
var viewHeight = 462;
var sectionId = 'dynsection-11';
</script>
<script type="application/ecmascript" xlink:href="../../svg.min.js"/>
<svg id="graph" class="graph">
<g id="viewport">
<title>aopp_deconv_tool.plot_helper.base.Base.update</title>
<!-- Node1 -->
<g id="Node000001" class="node">
<title>Node1</title>
<g id="a_Node000001"><a xlink:title=" ">
<polygon fill="#999999" stroke="#666666" points="142,-241.5 0,-241.5 0,-211.5 142,-211.5 142,-241.5"/>
<text text-anchor="start" x="8" y="-229.5" font-family="Helvetica,sans-Serif" font-size="10.00">aopp_deconv_tool.plot</text>
<text text-anchor="middle" x="71" y="-218.5" font-family="Helvetica,sans-Serif" font-size="10.00">_helper.base.Base.update</text>
</a>
</g>
</g>
<!-- Node2 -->
<g id="Node000002" class="node">
<title>Node2</title>
<g id="a_Node000002"><a xlink:href="../../d4/d84/classaopp__deconv__tool_1_1plot__helper_1_1base_1_1Base.html#ac01b2dd2660853565f06f719db0fda96" target="_top" xlink:title=" ">
<polygon fill="white" stroke="#666666" points="336,-454 209,-454 209,-413 336,-413 336,-454"/>
<text text-anchor="start" x="217" y="-442" font-family="Helvetica,sans-Serif" font-size="10.00">aopp_deconv_tool.plot</text>
<text text-anchor="start" x="217" y="-431" font-family="Helvetica,sans-Serif" font-size="10.00">_helper.base.Base.is</text>
<text text-anchor="middle" x="272.5" y="-420" font-family="Helvetica,sans-Serif" font-size="10.00">_datasource_attached</text>
</a>
</g>
</g>
<!-- Node1&#45;&gt;Node2 -->
<g id="edge1_Node000001_Node000002" class="edge">
<title>Node1&#45;&gt;Node2</title>
<g id="a_edge1_Node000001_Node000002"><a xlink:title=" ">
<path fill="none" stroke="#63b8ff" d="M76.8,-241.68C88.42,-275.96 121.35,-359.88 178,-404.5 184.45,-409.58 191.81,-413.78 199.48,-417.25"/>
<polygon fill="#63b8ff" stroke="#63b8ff" points="198.39,-420.58 208.97,-421.12 201.04,-414.1 198.39,-420.58"/>
</a>
</g>
</g>
<!-- Node3 -->
<g id="Node000003" class="node">
<title>Node3</title>
<g id="a_Node000003"><a xlink:href="../../d4/d84/classaopp__deconv__tool_1_1plot__helper_1_1base_1_1Base.html#a81b5a121e41d702f60c9c22a8bd7a942" target="_top" xlink:title=" ">
<polygon fill="white" stroke="#666666" points="343.5,-395 201.5,-395 201.5,-354 343.5,-354 343.5,-395"/>
<text text-anchor="start" x="209.5" y="-383" font-family="Helvetica,sans-Serif" font-size="10.00">aopp_deconv_tool.plot</text>
<text text-anchor="start" x="209.5" y="-372" font-family="Helvetica,sans-Serif" font-size="10.00">_helper.base.Base.update</text>
<text text-anchor="middle" x="272.5" y="-361" font-family="Helvetica,sans-Serif" font-size="10.00">_plot_data</text>
</a>
</g>
</g>
<!-- Node1&#45;&gt;Node3 -->
<g id="edge2_Node000001_Node000003" class="edge">
<title>Node1&#45;&gt;Node3</title>
<g id="a_edge2_Node000001_Node000003"><a xlink:title=" ">
<path fill="none" stroke="#63b8ff" d="M81.47,-241.67C97.99,-266.91 134.5,-317.5 178,-345.5 182.35,-348.3 187,-350.85 191.8,-353.16"/>
<polygon fill="#63b8ff" stroke="#63b8ff" points="190.63,-356.47 201.19,-357.32 193.46,-350.07 190.63,-356.47"/>
</a>
</g>
</g>
<!-- Node4 -->
<g id="Node000004" class="node">
<title>Node4</title>
<g id="a_Node000004"><a xlink:href="../../d3/ddd/classaopp__deconv__tool_1_1plot__helper_1_1plotters_1_1Histogram.html#a428985e67f35bde1c302e9688eef63f1" target="_top" xlink:title=" ">
<polygon fill="white" stroke="#666666" points="364,-336 181,-336 181,-295 364,-295 364,-336"/>
<text text-anchor="start" x="189" y="-324" font-family="Helvetica,sans-Serif" font-size="10.00">aopp_deconv_tool.plot</text>
<text text-anchor="start" x="189" y="-313" font-family="Helvetica,sans-Serif" font-size="10.00">_helper.plotters.Histogram.update</text>
<text text-anchor="middle" x="272.5" y="-302" font-family="Helvetica,sans-Serif" font-size="10.00">_plot_data</text>
</a>
</g>
</g>
<!-- Node1&#45;&gt;Node4 -->
<g id="edge3_Node000001_Node000004" class="edge">
<title>Node1&#45;&gt;Node4</title>
<g id="a_edge3_Node000001_Node000004"><a xlink:title=" ">
<path fill="none" stroke="#63b8ff" d="M95.25,-241.59C116.24,-254.74 148.3,-273.67 178,-286.5 181.86,-288.17 185.85,-289.79 189.91,-291.35"/>
<polygon fill="#63b8ff" stroke="#63b8ff" points="188.87,-294.69 199.46,-294.88 191.29,-288.13 188.87,-294.69"/>
</a>
</g>
</g>
<!-- Node5 -->
<g id="Node000005" class="node">
<title>Node5</title>
<g id="a_Node000005"><a xlink:href="../../da/d2d/classaopp__deconv__tool_1_1plot__helper_1_1plotters_1_1Image.html#a52b23bc00ebbde2a949e4f90977f8997" target="_top" xlink:title=" ">
<polygon fill="white" stroke="#666666" points="354,-277 191,-277 191,-236 354,-236 354,-277"/>
<text text-anchor="start" x="199" y="-265" font-family="Helvetica,sans-Serif" font-size="10.00">aopp_deconv_tool.plot</text>
<text text-anchor="start" x="199" y="-254" font-family="Helvetica,sans-Serif" font-size="10.00">_helper.plotters.Image.update</text>
<text text-anchor="middle" x="272.5" y="-243" font-family="Helvetica,sans-Serif" font-size="10.00">_plot_data</text>
</a>
</g>
</g>
<!-- Node1&#45;&gt;Node5 -->
<g id="edge4_Node000001_Node000005" class="edge">
<title>Node1&#45;&gt;Node5</title>
<g id="a_edge4_Node000001_Node000005"><a xlink:title=" ">
<path fill="none" stroke="#63b8ff" d="M142.06,-237.03C154.58,-238.92 167.79,-240.91 180.8,-242.86"/>
<polygon fill="#63b8ff" stroke="#63b8ff" points="180.28,-246.32 190.69,-244.35 181.32,-239.4 180.28,-246.32"/>
</a>
</g>
</g>
<!-- Node6 -->
<g id="Node000006" class="node">
<title>Node6</title>
<g id="a_Node000006"><a xlink:href="../../d0/dba/classaopp__deconv__tool_1_1plot__helper_1_1plotters_1_1VerticalLine.html#a5a62a9d5dee256a16110861c4480f283" target="_top" xlink:title=" ">
<polygon fill="white" stroke="#666666" points="367,-218 178,-218 178,-177 367,-177 367,-218"/>
<text text-anchor="start" x="186" y="-206" font-family="Helvetica,sans-Serif" font-size="10.00">aopp_deconv_tool.plot</text>
<text text-anchor="start" x="186" y="-195" font-family="Helvetica,sans-Serif" font-size="10.00">_helper.plotters.VerticalLine.update</text>
<text text-anchor="middle" x="272.5" y="-184" font-family="Helvetica,sans-Serif" font-size="10.00">_plot_data</text>
</a>
</g>
</g>
<!-- Node1&#45;&gt;Node6 -->
<g id="edge5_Node000001_Node000006" class="edge">
<title>Node1&#45;&gt;Node6</title>
<g id="a_edge5_Node000001_Node000006"><a xlink:title=" ">
<path fill="none" stroke="#63b8ff" d="M142.06,-216.32C150.37,-215.11 158.98,-213.86 167.64,-212.6"/>
<polygon fill="#63b8ff" stroke="#63b8ff" points="168.41,-216.02 177.8,-211.12 167.4,-209.1 168.41,-216.02"/>
</a>
</g>
</g>
<!-- Node7 -->
<g id="Node000007" class="node">
<title>Node7</title>
<g id="a_Node000007"><a xlink:href="../../d0/d38/classaopp__deconv__tool_1_1plot__helper_1_1plotters_1_1HorizontalLine.html#a9710e83ef05b98080509656ffe215c0c" target="_top" xlink:title=" ">
<polygon fill="white" stroke="#666666" points="345.5,-159 199.5,-159 199.5,-118 345.5,-118 345.5,-159"/>
<text text-anchor="start" x="207.5" y="-147" font-family="Helvetica,sans-Serif" font-size="10.00">aopp_deconv_tool.plot</text>
<text text-anchor="start" x="207.5" y="-136" font-family="Helvetica,sans-Serif" font-size="10.00">_helper.plotters.Horizontal</text>
<text text-anchor="middle" x="272.5" y="-125" font-family="Helvetica,sans-Serif" font-size="10.00">Line.update_plot_data</text>
</a>
</g>
</g>
<!-- Node1&#45;&gt;Node7 -->
<g id="edge6_Node000001_Node000007" class="edge">
<title>Node1&#45;&gt;Node7</title>
<g id="a_edge6_Node000001_Node000007"><a xlink:title=" ">
<path fill="none" stroke="#63b8ff" d="M96.6,-211.29C117.66,-198.69 149.09,-180.91 178,-168.5 182.73,-166.47 187.63,-164.5 192.62,-162.61"/>
<polygon fill="#63b8ff" stroke="#63b8ff" points="194.09,-165.8 202.27,-159.07 191.68,-159.23 194.09,-165.8"/>
</a>
</g>
</g>
<!-- Node8 -->
<g id="Node000008" class="node">
<title>Node8</title>
<g id="a_Node000008"><a xlink:href="../../d4/d23/classaopp__deconv__tool_1_1plot__helper_1_1plotters_1_1IterativeLineGraph.html#af2e739de5ba63f859bba48e575f2dbb0" target="_top" xlink:title=" ">
<polygon fill="white" stroke="#666666" points="351,-100 194,-100 194,-59 351,-59 351,-100"/>
<text text-anchor="start" x="202" y="-88" font-family="Helvetica,sans-Serif" font-size="10.00">aopp_deconv_tool.plot</text>
<text text-anchor="start" x="202" y="-77" font-family="Helvetica,sans-Serif" font-size="10.00">_helper.plotters.IterativeLine</text>
<text text-anchor="middle" x="272.5" y="-66" font-family="Helvetica,sans-Serif" font-size="10.00">Graph.update_plot_data</text>
</a>
</g>
</g>
<!-- Node1&#45;&gt;Node8 -->
<g id="edge7_Node000001_Node000008" class="edge">
<title>Node1&#45;&gt;Node8</title>
<g id="a_edge7_Node000001_Node000008"><a xlink:title=" ">
<path fill="none" stroke="#63b8ff" d="M81.83,-211.24C98.61,-186.37 135.15,-137.12 178,-109.5 180.64,-107.8 183.38,-106.19 186.2,-104.66"/>
<polygon fill="#63b8ff" stroke="#63b8ff" points="188.02,-107.67 195.41,-100.08 184.9,-101.4 188.02,-107.67"/>
</a>
</g>
</g>
<!-- Node9 -->
<g id="Node000009" class="node">
<title>Node9</title>
<g id="a_Node000009"><a xlink:href="../../d4/d84/classaopp__deconv__tool_1_1plot__helper_1_1base_1_1Base.html#a6c8fbfac6f4e29c55f187001a85109a5" target="_top" xlink:title=" ">
<polygon fill="white" stroke="#666666" points="343.5,-41 201.5,-41 201.5,0 343.5,0 343.5,-41"/>
<text text-anchor="start" x="209.5" y="-29" font-family="Helvetica,sans-Serif" font-size="10.00">aopp_deconv_tool.plot</text>
<text text-anchor="start" x="209.5" y="-18" font-family="Helvetica,sans-Serif" font-size="10.00">_helper.base.Base.update</text>
<text text-anchor="middle" x="272.5" y="-7" font-family="Helvetica,sans-Serif" font-size="10.00">_plot_visual</text>
</a>
</g>
</g>
<!-- Node1&#45;&gt;Node9 -->
<g id="edge8_Node000001_Node000009" class="edge">
<title>Node1&#45;&gt;Node9</title>
<g id="a_edge8_Node000001_Node000009"><a xlink:title=" ">
<path fill="none" stroke="#63b8ff" d="M76.97,-211.28C88.83,-177.29 122.07,-94.78 178,-50.5 182.34,-47.06 187.09,-44.01 192.07,-41.31"/>
<polygon fill="#63b8ff" stroke="#63b8ff" points="193.81,-44.35 201.25,-36.81 190.73,-38.07 193.81,-44.35"/>
</a>
</g>
</g>
</g>
</svg>

<g id="navigator" transform="translate(0 0)" fill="#404254">
  <rect fill="#f2f5e9" fill-opacity="0.5" stroke="#606060" stroke-width=".5" x="0" y="0" width="60" height="60"/>
  <use id="zoomplus" xlink:href="#zoomPlus" x="17" y="9" onmousedown="handleZoom(evt,'in')"/>
  <use id="zoomminus" xlink:href="#zoomMin" x="42" y="9" onmousedown="handleZoom(evt,'out')"/>
  <use id="reset" xlink:href="#resetDef" x="30" y="36" onmousedown="handleReset()"/>
   <use id="arrowup" xlink:href="#arrowUp" x="0" y="0" onmousedown="handlePan(0,-1)"/>
  <use id="arrowright" xlink:href="#arrowRight" x="0" y="0" onmousedown="handlePan(1,0)"/>
  <use id="arrowdown" xlink:href="#arrowDown" x="0" y="0" onmousedown="handlePan(0,1)"/>
  <use id="arrowleft" xlink:href="#arrowLeft" x="0" y="0" onmousedown="handlePan(-1,0)"/>
</g>
<svg viewBox="0 0 15 15" width="100%" height="30px" preserveAspectRatio="xMaxYMin meet">
 <g id="arrow_out" transform="scale(0.3 0.3)">
  <a xlink:href="classaopp__deconv__tool_1_1plot__helper_1_1base_1_1Base_a877436e42d97d1c49d17eb8332e4e854_cgraph_org.svg" target="_base">
   <rect id="button" ry="5" rx="5" y="6" x="6" height="38" width="38"
        fill="#f2f5e9" fill-opacity="0.5" stroke="#606060" stroke-width="1.0"/>
   <path id="arrow"
     d="M 11.500037,31.436501 C 11.940474,20.09759 22.043105,11.32322 32.158766,21.979434 L 37.068811,17.246167 C 37.068811,17.246167 37.088388,32 37.088388,32 L 22.160133,31.978069 C 22.160133,31.978069 26.997745,27.140456 26.997745,27.140456 C 18.528582,18.264221 13.291696,25.230495 11.500037,31.436501 z"
     style="fill:#404040;"/>
  </a>
 </g>
</svg>

<style type='text/css'>
<![CDATA[
[data-mouse-over-selected='false'] { opacity: 0.7; }
[data-mouse-over-selected='true']  { opacity: 1.0; }
]]>
</style>
<script type="application/ecmascript"><![CDATA[
document.addEventListener('DOMContentLoaded', (event) => {
  highlightEdges();
  highlightAdjacentNodes();
});
]]></script>
</svg>
