<?xml version="1.0" encoding="UTF-8" standalone="no"?>
<!DOCTYPE svg PUBLIC "-//W3C//DTD SVG 1.1//EN"
 "http://www.w3.org/Graphics/SVG/1.1/DTD/svg11.dtd">
<!-- Generated by graphviz version 2.43.0 (0)
 -->
<!-- Title: optical_component.Refractor Pages: 1 -->
<svg width="441pt" height="170pt"
 viewBox="0.00 0.00 441.12 170.00" xmlns="http://www.w3.org/2000/svg" xmlns:xlink="http://www.w3.org/1999/xlink">
<g id="graph0" class="graph" transform="scale(1 1) rotate(0) translate(4 166)">
<title>optical_component.Refractor</title>
<!-- Node1 -->
<g id="Node000001" class="node">
<title>Node1</title>
<g id="a_Node000001"><a xlink:title=" ">
<polygon fill="#999999" stroke="#666666" points="231.62,-19 73.62,-19 73.62,0 231.62,0 231.62,-19"/>
<text text-anchor="middle" x="152.62" y="-7" font-family="Helvetica,sans-Serif" font-size="10.00">optical_component.Refractor</text>
</a>
</g>
</g>
<!-- Node2 -->
<g id="Node000002" class="node">
<title>Node2</title>
<g id="a_Node000002"><a xlink:href="../../d5/dc2/classoptical__component_1_1OpticalComponent.html" target="_top" xlink:title=" ">
<polygon fill="white" stroke="#666666" points="226.12,-96 79.12,-96 79.12,-66 226.12,-66 226.12,-96"/>
<text text-anchor="start" x="87.12" y="-84" font-family="Helvetica,sans-Serif" font-size="10.00">optical_component.Optical</text>
<text text-anchor="middle" x="152.62" y="-73" font-family="Helvetica,sans-Serif" font-size="10.00">Component</text>
</a>
</g>
</g>
<!-- Node2&#45;&gt;Node1 -->
<g id="edge1_Node000001_Node000002" class="edge">
<title>Node2&#45;&gt;Node1</title>
<g id="a_edge1_Node000001_Node000002"><a xlink:title=" ">
<path fill="none" stroke="#63b8ff" d="M152.62,-55.56C152.62,-42.95 152.62,-28.35 152.62,-19.27"/>
<polygon fill="#63b8ff" stroke="#63b8ff" points="149.12,-55.94 152.62,-65.94 156.12,-55.94 149.12,-55.94"/>
</a>
</g>
</g>
<!-- Node3 -->
<g id="Node000003" class="node">
<title>Node3</title>
<g id="a_Node000003"><a xlink:title=" ">
<polygon fill="white" stroke="#666666" points="59.62,-162 21.62,-162 21.62,-143 59.62,-143 59.62,-162"/>
<text text-anchor="middle" x="40.62" y="-150" font-family="Helvetica,sans-Serif" font-size="10.00">float</text>
</a>
</g>
</g>
<!-- Node3&#45;&gt;Node1 -->
<g id="edge7_Node000001_Node000003" class="edge">
<title>Node3&#45;&gt;Node1</title>
<g id="a_edge7_Node000001_Node000003"><a xlink:title=" ">
<path fill="none" stroke="#9a32cd" stroke-dasharray="5,2" d="M24.79,-135.02C9.46,-116.99 -9.43,-87.77 5.62,-66 23.38,-40.31 54.66,-26.5 83.81,-19.08"/>
<polygon fill="#9a32cd" stroke="#9a32cd" points="22.57,-137.8 31.86,-142.89 27.78,-133.11 22.57,-137.8"/>
</a>
</g>
<text text-anchor="middle" x="37.62" y="-78.5" font-family="Helvetica,sans-Serif" font-size="10.00" fill="grey"> focal_length</text>
</g>
<!-- Node3&#45;&gt;Node2 -->
<g id="edge2_Node000002_Node000003" class="edge">
<title>Node3&#45;&gt;Node2</title>
<g id="a_edge2_Node000002_Node000003"><a xlink:title=" ">
<path fill="none" stroke="#9a32cd" stroke-dasharray="5,2" d="M54.26,-135.02C60.78,-127.88 69.03,-119.84 77.62,-114 88.03,-106.91 100.27,-100.88 111.8,-96.03"/>
<polygon fill="#9a32cd" stroke="#9a32cd" points="51.41,-132.96 47.48,-142.8 56.69,-137.56 51.41,-132.96"/>
</a>
</g>
<text text-anchor="middle" x="99.12" y="-117" font-family="Helvetica,sans-Serif" font-size="10.00" fill="grey"> position</text>
</g>
<!-- Node4 -->
<g id="Node000004" class="node">
<title>Node4</title>
<g id="a_Node000004"><a xlink:title=" ">
<polygon fill="white" stroke="#666666" points="140.12,-162 111.12,-162 111.12,-143 140.12,-143 140.12,-162"/>
<text text-anchor="middle" x="125.62" y="-150" font-family="Helvetica,sans-Serif" font-size="10.00">str</text>
</a>
</g>
</g>
<!-- Node4&#45;&gt;Node2 -->
<g id="edge3_Node000002_Node000004" class="edge">
<title>Node4&#45;&gt;Node2</title>
<g id="a_edge3_Node000002_Node000004"><a xlink:title=" ">
<path fill="none" stroke="#9a32cd" stroke-dasharray="5,2" d="M123.76,-132.78C123.76,-126.64 124.44,-119.88 126.62,-114 129.05,-107.42 133.43,-101.19 137.91,-96"/>
<polygon fill="#9a32cd" stroke="#9a32cd" points="120.27,-133.07 124.31,-142.86 127.26,-132.69 120.27,-133.07"/>
</a>
</g>
<text text-anchor="middle" x="142.12" y="-117" font-family="Helvetica,sans-Serif" font-size="10.00" fill="grey"> name</text>
</g>
<!-- Node5 -->
<g id="Node000005" class="node">
<title>Node5</title>
<g id="a_Node000005"><a xlink:title=" ">
<polygon fill="white" stroke="#666666" points="198.62,-162 160.62,-162 160.62,-143 198.62,-143 198.62,-162"/>
<text text-anchor="middle" x="179.62" y="-150" font-family="Helvetica,sans-Serif" font-size="10.00">bool</text>
</a>
</g>
</g>
<!-- Node5&#45;&gt;Node2 -->
<g id="edge4_Node000002_Node000005" class="edge">
<title>Node5&#45;&gt;Node2</title>
<g id="a_edge4_Node000002_Node000005"><a xlink:title=" ">
<path fill="none" stroke="#9a32cd" stroke-dasharray="5,2" d="M172.59,-133.43C168.08,-121.8 162.29,-106.9 158.11,-96.14"/>
<polygon fill="#9a32cd" stroke="#9a32cd" points="169.42,-134.92 176.3,-142.98 175.95,-132.39 169.42,-134.92"/>
</a>
</g>
<text text-anchor="middle" x="213.62" y="-117" font-family="Helvetica,sans-Serif" font-size="10.00" fill="grey"> _is_aperture_stop</text>
</g>
<!-- Node6 -->
<g id="Node000006" class="node">
<title>Node6</title>
<g id="a_Node000006"><a xlink:href="../../d2/dbe/classaopp__deconv__tool_1_1geometry_1_1shape_1_1GeoShape.html" target="_top" xlink:title=" ">
<polygon fill="white" stroke="#666666" points="433.12,-96 244.12,-96 244.12,-66 433.12,-66 433.12,-96"/>
<text text-anchor="start" x="252.12" y="-84" font-family="Helvetica,sans-Serif" font-size="10.00">aopp_deconv_tool.geometry.shape.</text>
<text text-anchor="middle" x="338.62" y="-73" font-family="Helvetica,sans-Serif" font-size="10.00">GeoShape</text>
</a>
</g>
</g>
<!-- Node6&#45;&gt;Node1 -->
<g id="edge5_Node000001_Node000006" class="edge">
<title>Node6&#45;&gt;Node1</title>
<g id="a_edge5_Node000001_Node000006"><a xlink:title=" ">
<path fill="none" stroke="#9a32cd" stroke-dasharray="5,2" d="M291.37,-62.35C254.29,-48.49 204.29,-29.81 175.55,-19.07"/>
<polygon fill="#9a32cd" stroke="#9a32cd" points="290.38,-65.71 300.98,-65.94 292.83,-59.16 290.38,-65.71"/>
</a>
</g>
<text text-anchor="middle" x="268.12" y="-40" font-family="Helvetica,sans-Serif" font-size="10.00" fill="grey"> shape</text>
</g>
<!-- Node7 -->
<g id="Node000007" class="node">
<title>Node7</title>
<g id="a_Node000007"><a xlink:title=" ">
<polygon fill="white" stroke="#666666" points="366.62,-162 310.62,-162 310.62,-143 366.62,-143 366.62,-162"/>
<text text-anchor="middle" x="338.62" y="-150" font-family="Helvetica,sans-Serif" font-size="10.00">Callable</text>
</a>
</g>
</g>
<!-- Node7&#45;&gt;Node6 -->
<g id="edge6_Node000006_Node000007" class="edge">
<title>Node7&#45;&gt;Node6</title>
<g id="a_edge6_Node000006_Node000007"><a xlink:title=" ">
<path fill="none" stroke="#9a32cd" stroke-dasharray="5,2" d="M338.62,-132.71C338.62,-121.19 338.62,-106.68 338.62,-96.14"/>
<polygon fill="#9a32cd" stroke="#9a32cd" points="335.12,-132.98 338.62,-142.98 342.12,-132.98 335.12,-132.98"/>
</a>
</g>
<text text-anchor="middle" x="356.12" y="-117" font-family="Helvetica,sans-Serif" font-size="10.00" fill="grey"> metric</text>
</g>
</g>
</svg>
