<?xml version="1.0" encoding="UTF-8" standalone="no"?>
<!DOCTYPE svg PUBLIC "-//W3C//DTD SVG 1.1//EN"
 "http://www.w3.org/Graphics/SVG/1.1/DTD/svg11.dtd">
<!-- Generated by graphviz version 2.43.0 (0)
 -->
<!-- Title: aopp_deconv_tool.psf_data_ops.S Pages: 1 -->
<svg width="131pt" height="95pt"
 viewBox="0.00 0.00 131.00 95.00" xmlns="http://www.w3.org/2000/svg" xmlns:xlink="http://www.w3.org/1999/xlink">
<g id="graph0" class="graph" transform="scale(1 1) rotate(0) translate(4 91)">
<title>aopp_deconv_tool.psf_data_ops.S</title>
<!-- Node1 -->
<g id="node1" class="node">
<title>Node1</title>
<g id="a_node1"><a xlink:title=" ">
<polygon fill="#bfbfbf" stroke="black" points="0,-0.5 0,-30.5 123,-30.5 123,-0.5 0,-0.5"/>
<text text-anchor="start" x="8" y="-18.5" font-family="Helvetica,sans-Serif" font-size="10.00">aopp_deconv_tool.psf</text>
<text text-anchor="middle" x="61.5" y="-7.5" font-family="Helvetica,sans-Serif" font-size="10.00">_data_ops.S</text>
</a>
</g>
</g>
<!-- Node2 -->
<g id="node2" class="node">
<title>Node2</title>
<g id="a_node2"><a xlink:title=" ">
<polygon fill="none" stroke="#bfbfbf" points="0.5,-67.5 0.5,-86.5 54.5,-86.5 54.5,-67.5 0.5,-67.5"/>
<text text-anchor="middle" x="27.5" y="-74.5" font-family="Helvetica,sans-Serif" font-size="10.00">Generic</text>
</a>
</g>
</g>
<!-- Node2&#45;&gt;Node1 -->
<g id="edge1" class="edge">
<title>Node2&#45;&gt;Node1</title>
<path fill="none" stroke="midnightblue" d="M37.4,-58.68C42.51,-49.73 48.67,-38.94 53.49,-30.52"/>
<polygon fill="midnightblue" stroke="midnightblue" points="34.29,-57.06 32.37,-67.48 40.37,-60.53 34.29,-57.06"/>
</g>
<!-- Node3 -->
<g id="node3" class="node">
<title>Node3</title>
<g id="a_node3"><a xlink:href="../../dd/d52/classIntVar.html" target="_top" xlink:title=" ">
<polygon fill="none" stroke="black" points="72.5,-67.5 72.5,-86.5 118.5,-86.5 118.5,-67.5 72.5,-67.5"/>
<text text-anchor="middle" x="95.5" y="-74.5" font-family="Helvetica,sans-Serif" font-size="10.00">IntVar</text>
</a>
</g>
</g>
<!-- Node3&#45;&gt;Node1 -->
<g id="edge2" class="edge">
<title>Node3&#45;&gt;Node1</title>
<path fill="none" stroke="midnightblue" d="M85.6,-58.68C80.49,-49.73 74.33,-38.94 69.51,-30.52"/>
<polygon fill="midnightblue" stroke="midnightblue" points="82.63,-60.53 90.63,-67.48 88.71,-57.06 82.63,-60.53"/>
</g>
</g>
</svg>
