<?xml version="1.0" encoding="UTF-8" standalone="no"?>
<!DOCTYPE svg PUBLIC "-//W3C//DTD SVG 1.1//EN"
 "http://www.w3.org/Graphics/SVG/1.1/DTD/svg11.dtd">
<!-- Generated by graphviz version 2.43.0 (0)
 -->
<!-- Title: aopp_deconv_tool.spectral_rebin.SquareResponseFunction Pages: 1 -->
<svg width="329pt" height="171pt"
 viewBox="0.00 0.00 328.50 171.00" xmlns="http://www.w3.org/2000/svg" xmlns:xlink="http://www.w3.org/1999/xlink">
<g id="graph0" class="graph" transform="scale(1 1) rotate(0) translate(4 167)">
<title>aopp_deconv_tool.spectral_rebin.SquareResponseFunction</title>
<!-- Node1 -->
<g id="Node000001" class="node">
<title>Node1</title>
<g id="a_Node000001"><a xlink:title=" ">
<polygon fill="#999999" stroke="#666666" points="172,-30 0,-30 0,0 172,0 172,-30"/>
<text text-anchor="start" x="8" y="-18" font-family="Helvetica,sans-Serif" font-size="10.00">aopp_deconv_tool.spectral</text>
<text text-anchor="middle" x="86" y="-7" font-family="Helvetica,sans-Serif" font-size="10.00">_rebin.SquareResponseFunction</text>
</a>
</g>
</g>
<!-- Node2 -->
<g id="Node000002" class="node">
<title>Node2</title>
<g id="a_Node000002"><a xlink:href="../../d8/d61/classaopp__deconv__tool_1_1spectral__rebin_1_1ResponseFunction.html" target="_top" xlink:title=" ">
<polygon fill="white" stroke="#666666" points="320.5,-97 173.5,-97 173.5,-67 320.5,-67 320.5,-97"/>
<text text-anchor="start" x="181.5" y="-85" font-family="Helvetica,sans-Serif" font-size="10.00">aopp_deconv_tool.spectral</text>
<text text-anchor="middle" x="247" y="-74" font-family="Helvetica,sans-Serif" font-size="10.00">_rebin.ResponseFunction</text>
</a>
</g>
</g>
<!-- Node2&#45;&gt;Node1 -->
<g id="edge1_Node000001_Node000002" class="edge">
<title>Node2&#45;&gt;Node1</title>
<g id="a_edge1_Node000001_Node000002"><a xlink:title=" ">
<path fill="none" stroke="#63b8ff" d="M202.52,-63.04C176.76,-52.64 144.8,-39.74 120.87,-30.08"/>
<polygon fill="#63b8ff" stroke="#63b8ff" points="201.48,-66.4 212.07,-66.9 204.1,-59.91 201.48,-66.4"/>
</a>
</g>
</g>
<!-- Node3 -->
<g id="Node000003" class="node">
<title>Node3</title>
<g id="a_Node000003"><a xlink:title=" ">
<polygon fill="white" stroke="#666666" points="59,-163 21,-163 21,-144 59,-144 59,-163"/>
<text text-anchor="middle" x="40" y="-151" font-family="Helvetica,sans-Serif" font-size="10.00">float</text>
</a>
</g>
</g>
<!-- Node3&#45;&gt;Node1 -->
<g id="edge3_Node000001_Node000003" class="edge">
<title>Node3&#45;&gt;Node1</title>
<g id="a_edge3_Node000001_Node000003"><a xlink:title=" ">
<path fill="none" stroke="#9a32cd" stroke-dasharray="5,2" d="M34.05,-134.09C29.33,-116.23 24.89,-88.7 34,-67 40.32,-51.96 53.47,-39.13 64.97,-30.1"/>
<polygon fill="#9a32cd" stroke="#9a32cd" points="30.73,-135.22 36.91,-143.83 37.45,-133.25 30.73,-135.22"/>
</a>
</g>
<text text-anchor="middle" x="99.5" y="-79.5" font-family="Helvetica,sans-Serif" font-size="10.00" fill="grey"> full_width_half_maximum</text>
</g>
<!-- Node3&#45;&gt;Node2 -->
<g id="edge2_Node000002_Node000003" class="edge">
<title>Node3&#45;&gt;Node2</title>
<g id="a_edge2_Node000002_Node000003"><a xlink:title=" ">
<path fill="none" stroke="#9a32cd" stroke-dasharray="5,2" d="M68.82,-142.82C104.25,-130.93 164.64,-110.65 205.17,-97.04"/>
<polygon fill="#9a32cd" stroke="#9a32cd" points="67.47,-139.59 59.1,-146.09 69.7,-146.22 67.47,-139.59"/>
</a>
</g>
<text text-anchor="middle" x="175" y="-118" font-family="Helvetica,sans-Serif" font-size="10.00" fill="grey"> total_sum</text>
</g>
</g>
</svg>
