<?xml version="1.0" encoding="UTF-8" standalone="no"?>
<!DOCTYPE svg PUBLIC "-//W3C//DTD SVG 1.1//EN"
 "http://www.w3.org/Graphics/SVG/1.1/DTD/svg11.dtd">
<!-- Generated by graphviz version 2.43.0 (0)
 -->
<!-- Title: aopp_deconv_tool.graphical_frontends.ssa_filtering.LineRegionPanel.apply_region_action Pages: 1 -->
<svg width="644pt" height="50pt"
 viewBox="0.00 0.00 644.00 50.00" xmlns="http://www.w3.org/2000/svg" xmlns:xlink="http://www.w3.org/1999/xlink">
<g id="graph0" class="graph" transform="scale(1 1) rotate(0) translate(4 46)">
<title>aopp_deconv_tool.graphical_frontends.ssa_filtering.LineRegionPanel.apply_region_action</title>
<!-- Node1 -->
<g id="node1" class="node">
<title>Node1</title>
<g id="a_node1"><a xlink:title=" ">
<polygon fill="#bfbfbf" stroke="black" points="448,-0.5 448,-41.5 636,-41.5 636,-0.5 448,-0.5"/>
<text text-anchor="start" x="456" y="-29.5" font-family="Helvetica,sans-Serif" font-size="10.00">aopp_deconv_tool.graphical</text>
<text text-anchor="start" x="456" y="-18.5" font-family="Helvetica,sans-Serif" font-size="10.00">_frontends.ssa_filtering.LineRegion</text>
<text text-anchor="middle" x="542" y="-7.5" font-family="Helvetica,sans-Serif" font-size="10.00">Panel.apply_region_action</text>
</a>
</g>
</g>
<!-- Node2 -->
<g id="node2" class="node">
<title>Node2</title>
<g id="a_node2"><a xlink:href="../../df/dfb/classaopp__deconv__tool_1_1graphical__frontends_1_1ssa__filtering_1_1LineRegionPanel.html#a83a9853a1dacc7cd65e79199c4ae834d" target="_top" xlink:title=" ">
<polygon fill="none" stroke="black" points="224,-0.5 224,-41.5 412,-41.5 412,-0.5 224,-0.5"/>
<text text-anchor="start" x="232" y="-29.5" font-family="Helvetica,sans-Serif" font-size="10.00">aopp_deconv_tool.graphical</text>
<text text-anchor="start" x="232" y="-18.5" font-family="Helvetica,sans-Serif" font-size="10.00">_frontends.ssa_filtering.LineRegion</text>
<text text-anchor="middle" x="318" y="-7.5" font-family="Helvetica,sans-Serif" font-size="10.00">Panel.apply_region_limits</text>
</a>
</g>
</g>
<!-- Node1&#45;&gt;Node2 -->
<g id="edge1" class="edge">
<title>Node1&#45;&gt;Node2</title>
<path fill="none" stroke="midnightblue" d="M437.57,-21C429.14,-21 420.65,-21 412.3,-21"/>
<polygon fill="midnightblue" stroke="midnightblue" points="437.82,-24.5 447.82,-21 437.82,-17.5 437.82,-24.5"/>
</g>
<!-- Node3 -->
<g id="node3" class="node">
<title>Node3</title>
<g id="a_node3"><a xlink:href="../../df/dfb/classaopp__deconv__tool_1_1graphical__frontends_1_1ssa__filtering_1_1LineRegionPanel.html#a3d08829f40709844fd76236d30086b3a" target="_top" xlink:title=" ">
<polygon fill="none" stroke="black" points="0,-0.5 0,-41.5 188,-41.5 188,-0.5 0,-0.5"/>
<text text-anchor="start" x="8" y="-29.5" font-family="Helvetica,sans-Serif" font-size="10.00">aopp_deconv_tool.graphical</text>
<text text-anchor="start" x="8" y="-18.5" font-family="Helvetica,sans-Serif" font-size="10.00">_frontends.ssa_filtering.LineRegion</text>
<text text-anchor="middle" x="94" y="-7.5" font-family="Helvetica,sans-Serif" font-size="10.00">Panel.region_changed</text>
</a>
</g>
</g>
<!-- Node2&#45;&gt;Node3 -->
<g id="edge2" class="edge">
<title>Node2&#45;&gt;Node3</title>
<path fill="none" stroke="midnightblue" d="M213.57,-21C205.14,-21 196.65,-21 188.3,-21"/>
<polygon fill="midnightblue" stroke="midnightblue" points="213.82,-24.5 223.82,-21 213.82,-17.5 213.82,-24.5"/>
</g>
</g>
</svg>
