<?xml version="1.0" encoding="UTF-8" standalone="no"?>
<!DOCTYPE svg PUBLIC "-//W3C//DTD SVG 1.1//EN"
 "http://www.w3.org/Graphics/SVG/1.1/DTD/svg11.dtd">
<!-- Generated by graphviz version 2.43.0 (0)
 -->
<!-- Title: aopp_deconv_tool.graphical_frontends.ssa_filtering.LineRegionPanel.remove_region Pages: 1 -->
<svg width="644pt" height="73pt"
 viewBox="0.00 0.00 644.00 73.00" xmlns="http://www.w3.org/2000/svg" xmlns:xlink="http://www.w3.org/1999/xlink">
<g id="graph0" class="graph" transform="scale(1 1) rotate(0) translate(4 69)">
<title>aopp_deconv_tool.graphical_frontends.ssa_filtering.LineRegionPanel.remove_region</title>
<!-- Node1 -->
<g id="Node000001" class="node">
<title>Node1</title>
<g id="a_Node000001"><a xlink:title=" ">
<polygon fill="#999999" stroke="#666666" points="636,-65 448,-65 448,-24 636,-24 636,-65"/>
<text text-anchor="start" x="456" y="-53" font-family="Helvetica,sans-Serif" font-size="10.00">aopp_deconv_tool.graphical</text>
<text text-anchor="start" x="456" y="-42" font-family="Helvetica,sans-Serif" font-size="10.00">_frontends.ssa_filtering.LineRegion</text>
<text text-anchor="middle" x="542" y="-31" font-family="Helvetica,sans-Serif" font-size="10.00">Panel.remove_region</text>
</a>
</g>
</g>
<!-- Node2 -->
<g id="Node000002" class="node">
<title>Node2</title>
<g id="a_Node000002"><a xlink:href="../../df/dfb/classaopp__deconv__tool_1_1graphical__frontends_1_1ssa__filtering_1_1LineRegionPanel.html#a3d08829f40709844fd76236d30086b3a" target="_top" xlink:title=" ">
<polygon fill="white" stroke="#666666" points="188,-65 0,-65 0,-24 188,-24 188,-65"/>
<text text-anchor="start" x="8" y="-53" font-family="Helvetica,sans-Serif" font-size="10.00">aopp_deconv_tool.graphical</text>
<text text-anchor="start" x="8" y="-42" font-family="Helvetica,sans-Serif" font-size="10.00">_frontends.ssa_filtering.LineRegion</text>
<text text-anchor="middle" x="94" y="-31" font-family="Helvetica,sans-Serif" font-size="10.00">Panel.region_changed</text>
</a>
</g>
</g>
<!-- Node1&#45;&gt;Node2 -->
<g id="edge1_Node000001_Node000002" class="edge">
<title>Node1&#45;&gt;Node2</title>
<g id="a_edge1_Node000001_Node000002"><a xlink:title=" ">
<path fill="none" stroke="#63b8ff" d="M437.52,-49.74C428.89,-50.04 420.3,-50.31 412,-50.5 328.47,-52.44 307.53,-52.44 224,-50.5 212.46,-50.23 200.34,-49.83 188.34,-49.36"/>
<polygon fill="#63b8ff" stroke="#63b8ff" points="437.8,-53.23 447.66,-49.36 437.54,-46.23 437.8,-53.23"/>
</a>
</g>
</g>
<!-- Node3 -->
<g id="Node000003" class="node">
<title>Node3</title>
<g id="a_Node000003"><a xlink:href="../../df/dfb/classaopp__deconv__tool_1_1graphical__frontends_1_1ssa__filtering_1_1LineRegionPanel.html#afe9f1c1eda05678f157a736bbb6eead7" target="_top" xlink:title=" ">
<polygon fill="white" stroke="#666666" points="412,-41 224,-41 224,0 412,0 412,-41"/>
<text text-anchor="start" x="232" y="-29" font-family="Helvetica,sans-Serif" font-size="10.00">aopp_deconv_tool.graphical</text>
<text text-anchor="start" x="232" y="-18" font-family="Helvetica,sans-Serif" font-size="10.00">_frontends.ssa_filtering.LineRegion</text>
<text text-anchor="middle" x="318" y="-7" font-family="Helvetica,sans-Serif" font-size="10.00">Panel.set_region</text>
</a>
</g>
</g>
<!-- Node1&#45;&gt;Node3 -->
<g id="edge2_Node000001_Node000003" class="edge">
<title>Node1&#45;&gt;Node3</title>
<g id="a_edge2_Node000001_Node000003"><a xlink:title=" ">
<path fill="none" stroke="#63b8ff" d="M437.85,-33.35C429.33,-32.43 420.74,-31.5 412.3,-30.59"/>
<polygon fill="#63b8ff" stroke="#63b8ff" points="437.5,-36.83 447.82,-34.43 438.25,-29.87 437.5,-36.83"/>
</a>
</g>
</g>
<!-- Node3&#45;&gt;Node2 -->
<g id="edge3_Node000003_Node000002" class="edge">
<title>Node3&#45;&gt;Node2</title>
<g id="a_edge3_Node000003_Node000002"><a xlink:title=" ">
<path fill="none" stroke="#63b8ff" d="M213.85,-31.65C205.33,-32.57 196.74,-33.5 188.3,-34.41"/>
<polygon fill="#63b8ff" stroke="#63b8ff" points="214.25,-35.13 223.82,-30.57 213.5,-28.17 214.25,-35.13"/>
</a>
</g>
</g>
</g>
</svg>
