<?xml version="1.0" encoding="UTF-8" standalone="no"?>
<!DOCTYPE svg PUBLIC "-//W3C//DTD SVG 1.1//EN"
 "http://www.w3.org/Graphics/SVG/1.1/DTD/svg11.dtd">
<!-- Generated by graphviz version 2.43.0 (0)
 -->
<!-- Title: aopp_deconv_tool.graphical_frontends.ssa_filtering.LineRegionPanel.remove_region Pages: 1 -->
<svg width="644pt" height="74pt"
 viewBox="0.00 0.00 644.00 74.00" xmlns="http://www.w3.org/2000/svg" xmlns:xlink="http://www.w3.org/1999/xlink">
<g id="graph0" class="graph" transform="scale(1 1) rotate(0) translate(4 70)">
<title>aopp_deconv_tool.graphical_frontends.ssa_filtering.LineRegionPanel.remove_region</title>
<!-- Node1 -->
<g id="node1" class="node">
<title>Node1</title>
<g id="a_node1"><a xlink:title=" ">
<polygon fill="#bfbfbf" stroke="black" points="448,-24.5 448,-65.5 636,-65.5 636,-24.5 448,-24.5"/>
<text text-anchor="start" x="456" y="-53.5" font-family="Helvetica,sans-Serif" font-size="10.00">aopp_deconv_tool.graphical</text>
<text text-anchor="start" x="456" y="-42.5" font-family="Helvetica,sans-Serif" font-size="10.00">_frontends.ssa_filtering.LineRegion</text>
<text text-anchor="middle" x="542" y="-31.5" font-family="Helvetica,sans-Serif" font-size="10.00">Panel.remove_region</text>
</a>
</g>
</g>
<!-- Node2 -->
<g id="node2" class="node">
<title>Node2</title>
<g id="a_node2"><a xlink:href="../../df/dfb/classaopp__deconv__tool_1_1graphical__frontends_1_1ssa__filtering_1_1LineRegionPanel.html#a3d08829f40709844fd76236d30086b3a" target="_top" xlink:title=" ">
<polygon fill="none" stroke="black" points="0,-24.5 0,-65.5 188,-65.5 188,-24.5 0,-24.5"/>
<text text-anchor="start" x="8" y="-53.5" font-family="Helvetica,sans-Serif" font-size="10.00">aopp_deconv_tool.graphical</text>
<text text-anchor="start" x="8" y="-42.5" font-family="Helvetica,sans-Serif" font-size="10.00">_frontends.ssa_filtering.LineRegion</text>
<text text-anchor="middle" x="94" y="-31.5" font-family="Helvetica,sans-Serif" font-size="10.00">Panel.region_changed</text>
</a>
</g>
</g>
<!-- Node1&#45;&gt;Node2 -->
<g id="edge1" class="edge">
<title>Node1&#45;&gt;Node2</title>
<path fill="none" stroke="midnightblue" d="M437.52,-50.24C428.89,-50.54 420.3,-50.81 412,-51 328.47,-52.94 307.53,-52.94 224,-51 212.46,-50.73 200.34,-50.33 188.34,-49.86"/>
<polygon fill="midnightblue" stroke="midnightblue" points="437.8,-53.73 447.66,-49.86 437.54,-46.73 437.8,-53.73"/>
</g>
<!-- Node3 -->
<g id="node3" class="node">
<title>Node3</title>
<g id="a_node3"><a xlink:href="../../df/dfb/classaopp__deconv__tool_1_1graphical__frontends_1_1ssa__filtering_1_1LineRegionPanel.html#ab51855fc3ea43b28edabc2c9aa15ac24" target="_top" xlink:title=" ">
<polygon fill="none" stroke="black" points="224,-0.5 224,-41.5 412,-41.5 412,-0.5 224,-0.5"/>
<text text-anchor="start" x="232" y="-29.5" font-family="Helvetica,sans-Serif" font-size="10.00">aopp_deconv_tool.graphical</text>
<text text-anchor="start" x="232" y="-18.5" font-family="Helvetica,sans-Serif" font-size="10.00">_frontends.ssa_filtering.LineRegion</text>
<text text-anchor="middle" x="318" y="-7.5" font-family="Helvetica,sans-Serif" font-size="10.00">Panel.set_region</text>
</a>
</g>
</g>
<!-- Node1&#45;&gt;Node3 -->
<g id="edge2" class="edge">
<title>Node1&#45;&gt;Node3</title>
<path fill="none" stroke="midnightblue" d="M437.85,-33.85C429.33,-32.93 420.74,-32 412.3,-31.09"/>
<polygon fill="midnightblue" stroke="midnightblue" points="437.5,-37.33 447.82,-34.93 438.25,-30.37 437.5,-37.33"/>
</g>
<!-- Node3&#45;&gt;Node2 -->
<g id="edge3" class="edge">
<title>Node3&#45;&gt;Node2</title>
<path fill="none" stroke="midnightblue" d="M213.85,-32.15C205.33,-33.07 196.74,-34 188.3,-34.91"/>
<polygon fill="midnightblue" stroke="midnightblue" points="214.25,-35.63 223.82,-31.07 213.5,-28.67 214.25,-35.63"/>
</g>
</g>
</svg>
