<?xml version="1.0" encoding="UTF-8" standalone="no"?>
<!DOCTYPE svg PUBLIC "-//W3C//DTD SVG 1.1//EN"
 "http://www.w3.org/Graphics/SVG/1.1/DTD/svg11.dtd">
<!-- Generated by graphviz version 2.43.0 (0)
 -->
<!-- Title: aopp_deconv_tool.graphical_frontends.ssa_filtering.LineRegionPanel.region_changed Pages: 1 -->
<!--zoomable 206 -->

<svg id="main" version="1.1" xmlns="http://www.w3.org/2000/svg" xmlns:xlink="http://www.w3.org/1999/xlink" xml:space="preserve" onload="init(evt)">
<style type="text/css"><![CDATA[
.node, .edge {opacity: 0.7;}
.node.selected, .edge.selected {opacity: 1;}
.edge:hover path { stroke: red; }
.edge:hover polygon { stroke: red; fill: red; }
]]></style>

<defs>
  <circle id="rim" cx="0" cy="0" r="7"/>
  <circle id="rim2" cx="0" cy="0" r="3.5"/>
  <g id="zoomPlus">
    <use xlink:href="#rim" fill="#404040"><set attributeName="fill" to="#808080" begin="zoomplus.mouseover" end="zoomplus.mouseout"/></use>
    <path d="M-4,0h8M0,-4v8" fill="none" stroke="white" stroke-width="1.5" pointer-events="none"/>
  </g>
  <g id="zoomMin">
    <use xlink:href="#rim" fill="#404040"><set attributeName="fill" to="#808080" begin="zoomminus.mouseover" end="zoomminus.mouseout"/></use>
    <path d="M-4,0h8" fill="none" stroke="white" stroke-width="1.5" pointer-events="none"/>
  </g>
  <g id="arrowUp" transform="translate(30 24)">
    <use xlink:href="#rim"/>
    <path pointer-events="none" fill="none" stroke="white" stroke-width="1.5" d="M0,-3.0v7 M-2.5,-0.5L0,-3.0L2.5,-0.5"/>
  </g>
  <g id="arrowRight" transform="rotate(90) translate(36 -43)">
    <use xlink:href="#rim"/>
    <path pointer-events="none" fill="none" stroke="white" stroke-width="1.5" d="M0,-3.0v7 M-2.5,-0.5L0,-3.0L2.5,-0.5"/>
  </g>
  <g id="arrowDown" transform="rotate(180) translate(-30 -48)">
    <use xlink:href="#rim"/>
    <path pointer-events="none" fill="none" stroke="white" stroke-width="1.5" d="M0,-3.0v7 M-2.5,-0.5L0,-3.0L2.5,-0.5"/>
  </g>
  <g id="arrowLeft" transform="rotate(270) translate(-36 17)">
    <use xlink:href="#rim"/>
    <path pointer-events="none" fill="none" stroke="white" stroke-width="1.5" d="M0,-3.0v7 M-2.5,-0.5L0,-3.0L2.5,-0.5"/>
  </g>
  <g id="resetDef">
    <use xlink:href="#rim2" fill="#404040"><set attributeName="fill" to="#808080" begin="reset.mouseover" end="reset.mouseout"/></use>
  </g>
</defs>
<script type="application/ecmascript">
var viewWidth = 644;
var viewHeight = 206;
var sectionId = 'dynsection-5';
</script>
<script type="application/ecmascript" xlink:href="../../svg.min.js"/>
<svg id="graph" class="graph">
<g id="viewport">
<title>aopp_deconv_tool.graphical_frontends.ssa_filtering.LineRegionPanel.region_changed</title>
<!-- Node1 -->
<g id="Node000001" class="node">
<title>Node1</title>
<g id="a_Node000001"><a xlink:title=" ">
<polygon fill="#999999" stroke="#666666" points="188,-114 0,-114 0,-73 188,-73 188,-114"/>
<text text-anchor="start" x="8" y="-102" font-family="Helvetica,sans-Serif" font-size="10.00">aopp_deconv_tool.graphical</text>
<text text-anchor="start" x="8" y="-91" font-family="Helvetica,sans-Serif" font-size="10.00">_frontends.ssa_filtering.LineRegion</text>
<text text-anchor="middle" x="94" y="-80" font-family="Helvetica,sans-Serif" font-size="10.00">Panel.region_changed</text>
</a>
</g>
</g>
<!-- Node2 -->
<g id="Node000002" class="node">
<title>Node2</title>
<g id="a_Node000002"><a xlink:href="../../df/dfb/classaopp__deconv__tool_1_1graphical__frontends_1_1ssa__filtering_1_1LineRegionPanel.html#a181421ed36a45f889fa46266d3457134" target="_top" xlink:title=" ">
<polygon fill="white" stroke="#666666" points="412,-198 224,-198 224,-157 412,-157 412,-198"/>
<text text-anchor="start" x="232" y="-186" font-family="Helvetica,sans-Serif" font-size="10.00">aopp_deconv_tool.graphical</text>
<text text-anchor="start" x="232" y="-175" font-family="Helvetica,sans-Serif" font-size="10.00">_frontends.ssa_filtering.LineRegion</text>
<text text-anchor="middle" x="318" y="-164" font-family="Helvetica,sans-Serif" font-size="10.00">Panel.apply_region_limits</text>
</a>
</g>
</g>
<!-- Node1&#45;&gt;Node2 -->
<g id="edge1_Node000001_Node000002" class="edge">
<title>Node1&#45;&gt;Node2</title>
<g id="a_edge1_Node000001_Node000002"><a xlink:title=" ">
<path fill="none" stroke="#63b8ff" d="M140.22,-114.1C164.77,-124.95 195.78,-138.12 224,-148.5 228.79,-150.26 233.74,-152.01 238.75,-153.73"/>
<polygon fill="#63b8ff" stroke="#63b8ff" points="237.83,-157.11 248.42,-156.98 240.06,-150.47 237.83,-157.11"/>
</a>
</g>
</g>
<!-- Node4 -->
<g id="Node000004" class="node">
<title>Node4</title>
<g id="a_Node000004"><a xlink:href="../../d3/d42/classaopp__deconv__tool_1_1graphical__frontends_1_1ssa__filtering_1_1CallbackMixin.html#a8cb40ee527667ddf72e5912657da55c8" target="_top" xlink:title=" ">
<polygon fill="white" stroke="#666666" points="406,-139 230,-139 230,-98 406,-98 406,-139"/>
<text text-anchor="start" x="238" y="-127" font-family="Helvetica,sans-Serif" font-size="10.00">aopp_deconv_tool.graphical</text>
<text text-anchor="start" x="238" y="-116" font-family="Helvetica,sans-Serif" font-size="10.00">_frontends.ssa_filtering.Callback</text>
<text text-anchor="middle" x="318" y="-105" font-family="Helvetica,sans-Serif" font-size="10.00">Mixin.call_callbacks</text>
</a>
</g>
</g>
<!-- Node1&#45;&gt;Node4 -->
<g id="edge3_Node000001_Node000004" class="edge">
<title>Node1&#45;&gt;Node4</title>
<g id="a_edge3_Node000001_Node000004"><a xlink:title=" ">
<path fill="none" stroke="#63b8ff" d="M188.18,-103.99C198.61,-105.17 209.26,-106.37 219.74,-107.55"/>
<polygon fill="#63b8ff" stroke="#63b8ff" points="219.4,-111.03 229.73,-108.67 220.18,-104.07 219.4,-111.03"/>
</a>
</g>
</g>
<!-- Node5 -->
<g id="Node000005" class="node">
<title>Node5</title>
<g id="a_Node000005"><a xlink:href="../../df/dfb/classaopp__deconv__tool_1_1graphical__frontends_1_1ssa__filtering_1_1LineRegionPanel.html#a63129c76e11fe48879b400f95d9c2a14" target="_top" xlink:title=" ">
<polygon fill="white" stroke="#666666" points="636,-66 448,-66 448,-25 636,-25 636,-66"/>
<text text-anchor="start" x="456" y="-54" font-family="Helvetica,sans-Serif" font-size="10.00">aopp_deconv_tool.graphical</text>
<text text-anchor="start" x="456" y="-43" font-family="Helvetica,sans-Serif" font-size="10.00">_frontends.ssa_filtering.LineRegion</text>
<text text-anchor="middle" x="542" y="-32" font-family="Helvetica,sans-Serif" font-size="10.00">Panel.remove_region</text>
</a>
</g>
</g>
<!-- Node1&#45;&gt;Node5 -->
<g id="edge4_Node000001_Node000005" class="edge">
<title>Node1&#45;&gt;Node5</title>
<g id="a_edge4_Node000001_Node000005"><a xlink:title=" ">
<path fill="none" stroke="#63b8ff" d="M188.22,-83.47C261.18,-75.62 362.54,-64.71 437.91,-56.6"/>
<polygon fill="#63b8ff" stroke="#63b8ff" points="438.33,-60.07 447.9,-55.52 437.58,-53.11 438.33,-60.07"/>
</a>
</g>
</g>
<!-- Node6 -->
<g id="Node000006" class="node">
<title>Node6</title>
<g id="a_Node000006"><a xlink:href="../../df/dfb/classaopp__deconv__tool_1_1graphical__frontends_1_1ssa__filtering_1_1LineRegionPanel.html#afe9f1c1eda05678f157a736bbb6eead7" target="_top" xlink:title=" ">
<polygon fill="white" stroke="#666666" points="412,-41 224,-41 224,0 412,0 412,-41"/>
<text text-anchor="start" x="232" y="-29" font-family="Helvetica,sans-Serif" font-size="10.00">aopp_deconv_tool.graphical</text>
<text text-anchor="start" x="232" y="-18" font-family="Helvetica,sans-Serif" font-size="10.00">_frontends.ssa_filtering.LineRegion</text>
<text text-anchor="middle" x="318" y="-7" font-family="Helvetica,sans-Serif" font-size="10.00">Panel.set_region</text>
</a>
</g>
</g>
<!-- Node1&#45;&gt;Node6 -->
<g id="edge5_Node000001_Node000006" class="edge">
<title>Node1&#45;&gt;Node6</title>
<g id="a_edge5_Node000001_Node000006"><a xlink:title=" ">
<path fill="none" stroke="#63b8ff" d="M157.43,-72.97C184.62,-64.03 216.65,-53.5 244.85,-44.22"/>
<polygon fill="#63b8ff" stroke="#63b8ff" points="246.25,-47.45 254.65,-41 244.06,-40.8 246.25,-47.45"/>
</a>
</g>
</g>
<!-- Node3 -->
<g id="Node000003" class="node">
<title>Node3</title>
<g id="a_Node000003"><a xlink:href="../../df/dfb/classaopp__deconv__tool_1_1graphical__frontends_1_1ssa__filtering_1_1LineRegionPanel.html#a917e0d13eda408277cdbeb6d1062228b" target="_top" xlink:title=" ">
<polygon fill="white" stroke="#666666" points="636,-198 448,-198 448,-157 636,-157 636,-198"/>
<text text-anchor="start" x="456" y="-186" font-family="Helvetica,sans-Serif" font-size="10.00">aopp_deconv_tool.graphical</text>
<text text-anchor="start" x="456" y="-175" font-family="Helvetica,sans-Serif" font-size="10.00">_frontends.ssa_filtering.LineRegion</text>
<text text-anchor="middle" x="542" y="-164" font-family="Helvetica,sans-Serif" font-size="10.00">Panel.apply_region_action</text>
</a>
</g>
</g>
<!-- Node2&#45;&gt;Node3 -->
<g id="edge2_Node000002_Node000003" class="edge">
<title>Node2&#45;&gt;Node3</title>
<g id="a_edge2_Node000002_Node000003"><a xlink:title=" ">
<path fill="none" stroke="#63b8ff" d="M412.18,-177.5C420.53,-177.5 429.02,-177.5 437.46,-177.5"/>
<polygon fill="#63b8ff" stroke="#63b8ff" points="437.7,-181 447.7,-177.5 437.7,-174 437.7,-181"/>
</a>
</g>
</g>
<!-- Node6&#45;&gt;Node5 -->
<g id="edge6_Node000006_Node000005" class="edge">
<title>Node6&#45;&gt;Node5</title>
<g id="a_edge6_Node000006_Node000005"><a xlink:title=" ">
<path fill="none" stroke="#63b8ff" d="M412.18,-30.99C420.63,-31.94 429.21,-32.91 437.73,-33.87"/>
<polygon fill="#63b8ff" stroke="#63b8ff" points="437.37,-37.35 447.7,-34.99 438.15,-30.4 437.37,-37.35"/>
</a>
</g>
</g>
</g>
</svg>

<g id="navigator" transform="translate(0 0)" fill="#404254">
  <rect fill="#f2f5e9" fill-opacity="0.5" stroke="#606060" stroke-width=".5" x="0" y="0" width="60" height="60"/>
  <use id="zoomplus" xlink:href="#zoomPlus" x="17" y="9" onmousedown="handleZoom(evt,'in')"/>
  <use id="zoomminus" xlink:href="#zoomMin" x="42" y="9" onmousedown="handleZoom(evt,'out')"/>
  <use id="reset" xlink:href="#resetDef" x="30" y="36" onmousedown="handleReset()"/>
   <use id="arrowup" xlink:href="#arrowUp" x="0" y="0" onmousedown="handlePan(0,-1)"/>
  <use id="arrowright" xlink:href="#arrowRight" x="0" y="0" onmousedown="handlePan(1,0)"/>
  <use id="arrowdown" xlink:href="#arrowDown" x="0" y="0" onmousedown="handlePan(0,1)"/>
  <use id="arrowleft" xlink:href="#arrowLeft" x="0" y="0" onmousedown="handlePan(-1,0)"/>
</g>
<svg viewBox="0 0 15 15" width="100%" height="30px" preserveAspectRatio="xMaxYMin meet">
 <g id="arrow_out" transform="scale(0.3 0.3)">
  <a xlink:href="classaopp__deconv__tool_1_1graphical__frontends_1_1ssa__filtering_1_1LineRegionPanel_a3d08829f40709844fd76236d30086b3a_cgraph_org.svg" target="_base">
   <rect id="button" ry="5" rx="5" y="6" x="6" height="38" width="38"
        fill="#f2f5e9" fill-opacity="0.5" stroke="#606060" stroke-width="1.0"/>
   <path id="arrow"
     d="M 11.500037,31.436501 C 11.940474,20.09759 22.043105,11.32322 32.158766,21.979434 L 37.068811,17.246167 C 37.068811,17.246167 37.088388,32 37.088388,32 L 22.160133,31.978069 C 22.160133,31.978069 26.997745,27.140456 26.997745,27.140456 C 18.528582,18.264221 13.291696,25.230495 11.500037,31.436501 z"
     style="fill:#404040;"/>
  </a>
 </g>
</svg>

<style type='text/css'>
<![CDATA[
[data-mouse-over-selected='false'] { opacity: 0.7; }
[data-mouse-over-selected='true']  { opacity: 1.0; }
]]>
</style>
<script type="application/ecmascript"><![CDATA[
document.addEventListener('DOMContentLoaded', (event) => {
  highlightEdges();
  highlightAdjacentNodes();
});
]]></script>
</svg>
