<?xml version="1.0" encoding="UTF-8" standalone="no"?>
<!DOCTYPE svg PUBLIC "-//W3C//DTD SVG 1.1//EN"
 "http://www.w3.org/Graphics/SVG/1.1/DTD/svg11.dtd">
<!-- Generated by graphviz version 2.43.0 (0)
 -->
<!-- Title: aopp_deconv_tool.graphical_frontends.ssa_filtering.LineRegionPanel.region_changed Pages: 1 -->
<svg width="644pt" height="208pt"
 viewBox="0.00 0.00 644.00 208.00" xmlns="http://www.w3.org/2000/svg" xmlns:xlink="http://www.w3.org/1999/xlink">
<g id="graph0" class="graph" transform="scale(1 1) rotate(0) translate(4 204)">
<title>aopp_deconv_tool.graphical_frontends.ssa_filtering.LineRegionPanel.region_changed</title>
<!-- Node1 -->
<g id="node1" class="node">
<title>Node1</title>
<g id="a_node1"><a xlink:title=" ">
<polygon fill="#bfbfbf" stroke="black" points="0,-73.5 0,-114.5 188,-114.5 188,-73.5 0,-73.5"/>
<text text-anchor="start" x="8" y="-102.5" font-family="Helvetica,sans-Serif" font-size="10.00">aopp_deconv_tool.graphical</text>
<text text-anchor="start" x="8" y="-91.5" font-family="Helvetica,sans-Serif" font-size="10.00">_frontends.ssa_filtering.LineRegion</text>
<text text-anchor="middle" x="94" y="-80.5" font-family="Helvetica,sans-Serif" font-size="10.00">Panel.region_changed</text>
</a>
</g>
</g>
<!-- Node2 -->
<g id="node2" class="node">
<title>Node2</title>
<g id="a_node2"><a xlink:href="../../df/dfb/classaopp__deconv__tool_1_1graphical__frontends_1_1ssa__filtering_1_1LineRegionPanel.html#a83a9853a1dacc7cd65e79199c4ae834d" target="_top" xlink:title=" ">
<polygon fill="none" stroke="black" points="224,-158.5 224,-199.5 412,-199.5 412,-158.5 224,-158.5"/>
<text text-anchor="start" x="232" y="-187.5" font-family="Helvetica,sans-Serif" font-size="10.00">aopp_deconv_tool.graphical</text>
<text text-anchor="start" x="232" y="-176.5" font-family="Helvetica,sans-Serif" font-size="10.00">_frontends.ssa_filtering.LineRegion</text>
<text text-anchor="middle" x="318" y="-165.5" font-family="Helvetica,sans-Serif" font-size="10.00">Panel.apply_region_limits</text>
</a>
</g>
</g>
<!-- Node1&#45;&gt;Node2 -->
<g id="edge1" class="edge">
<title>Node1&#45;&gt;Node2</title>
<path fill="none" stroke="midnightblue" d="M140.56,-114.62C165.07,-125.41 195.95,-138.52 224,-149 229.5,-151.05 235.21,-153.1 240.97,-155.1"/>
<polygon fill="midnightblue" stroke="midnightblue" points="240.1,-158.51 250.7,-158.43 242.37,-151.88 240.1,-158.51"/>
</g>
<!-- Node4 -->
<g id="node4" class="node">
<title>Node4</title>
<g id="a_node4"><a xlink:href="../../d3/d42/classaopp__deconv__tool_1_1graphical__frontends_1_1ssa__filtering_1_1CallbackMixin.html#af8c3e88a8486c121a7060b04fe09b47d" target="_top" xlink:title=" ">
<polygon fill="none" stroke="black" points="230,-98.5 230,-139.5 406,-139.5 406,-98.5 230,-98.5"/>
<text text-anchor="start" x="238" y="-127.5" font-family="Helvetica,sans-Serif" font-size="10.00">aopp_deconv_tool.graphical</text>
<text text-anchor="start" x="238" y="-116.5" font-family="Helvetica,sans-Serif" font-size="10.00">_frontends.ssa_filtering.Callback</text>
<text text-anchor="middle" x="318" y="-105.5" font-family="Helvetica,sans-Serif" font-size="10.00">Mixin.call_callbacks</text>
</a>
</g>
</g>
<!-- Node1&#45;&gt;Node4 -->
<g id="edge3" class="edge">
<title>Node1&#45;&gt;Node4</title>
<path fill="none" stroke="midnightblue" d="M188.18,-104.49C198.61,-105.67 209.26,-106.87 219.74,-108.05"/>
<polygon fill="midnightblue" stroke="midnightblue" points="219.4,-111.53 229.73,-109.17 220.18,-104.57 219.4,-111.53"/>
</g>
<!-- Node5 -->
<g id="node5" class="node">
<title>Node5</title>
<g id="a_node5"><a xlink:href="../../df/dfb/classaopp__deconv__tool_1_1graphical__frontends_1_1ssa__filtering_1_1LineRegionPanel.html#ac63305bb647d739941f16a77567ab584" target="_top" xlink:title=" ">
<polygon fill="none" stroke="black" points="448,-25.5 448,-66.5 636,-66.5 636,-25.5 448,-25.5"/>
<text text-anchor="start" x="456" y="-54.5" font-family="Helvetica,sans-Serif" font-size="10.00">aopp_deconv_tool.graphical</text>
<text text-anchor="start" x="456" y="-43.5" font-family="Helvetica,sans-Serif" font-size="10.00">_frontends.ssa_filtering.LineRegion</text>
<text text-anchor="middle" x="542" y="-32.5" font-family="Helvetica,sans-Serif" font-size="10.00">Panel.remove_region</text>
</a>
</g>
</g>
<!-- Node1&#45;&gt;Node5 -->
<g id="edge4" class="edge">
<title>Node1&#45;&gt;Node5</title>
<path fill="none" stroke="midnightblue" d="M188.22,-83.97C261.18,-76.12 362.54,-65.21 437.91,-57.1"/>
<polygon fill="midnightblue" stroke="midnightblue" points="438.33,-60.57 447.9,-56.02 437.58,-53.61 438.33,-60.57"/>
</g>
<!-- Node6 -->
<g id="node6" class="node">
<title>Node6</title>
<g id="a_node6"><a xlink:href="../../df/dfb/classaopp__deconv__tool_1_1graphical__frontends_1_1ssa__filtering_1_1LineRegionPanel.html#ab51855fc3ea43b28edabc2c9aa15ac24" target="_top" xlink:title=" ">
<polygon fill="none" stroke="black" points="224,-0.5 224,-41.5 412,-41.5 412,-0.5 224,-0.5"/>
<text text-anchor="start" x="232" y="-29.5" font-family="Helvetica,sans-Serif" font-size="10.00">aopp_deconv_tool.graphical</text>
<text text-anchor="start" x="232" y="-18.5" font-family="Helvetica,sans-Serif" font-size="10.00">_frontends.ssa_filtering.LineRegion</text>
<text text-anchor="middle" x="318" y="-7.5" font-family="Helvetica,sans-Serif" font-size="10.00">Panel.set_region</text>
</a>
</g>
</g>
<!-- Node1&#45;&gt;Node6 -->
<g id="edge5" class="edge">
<title>Node1&#45;&gt;Node6</title>
<path fill="none" stroke="midnightblue" d="M157.43,-73.47C184.62,-64.53 216.65,-54 244.85,-44.72"/>
<polygon fill="midnightblue" stroke="midnightblue" points="246.25,-47.95 254.65,-41.5 244.06,-41.3 246.25,-47.95"/>
</g>
<!-- Node3 -->
<g id="node3" class="node">
<title>Node3</title>
<g id="a_node3"><a xlink:href="../../df/dfb/classaopp__deconv__tool_1_1graphical__frontends_1_1ssa__filtering_1_1LineRegionPanel.html#a917e0d13eda408277cdbeb6d1062228b" target="_top" xlink:title=" ">
<polygon fill="none" stroke="black" points="448,-158.5 448,-199.5 636,-199.5 636,-158.5 448,-158.5"/>
<text text-anchor="start" x="456" y="-187.5" font-family="Helvetica,sans-Serif" font-size="10.00">aopp_deconv_tool.graphical</text>
<text text-anchor="start" x="456" y="-176.5" font-family="Helvetica,sans-Serif" font-size="10.00">_frontends.ssa_filtering.LineRegion</text>
<text text-anchor="middle" x="542" y="-165.5" font-family="Helvetica,sans-Serif" font-size="10.00">Panel.apply_region_action</text>
</a>
</g>
</g>
<!-- Node2&#45;&gt;Node3 -->
<g id="edge2" class="edge">
<title>Node2&#45;&gt;Node3</title>
<path fill="none" stroke="midnightblue" d="M412.18,-179C420.53,-179 429.02,-179 437.46,-179"/>
<polygon fill="midnightblue" stroke="midnightblue" points="437.7,-182.5 447.7,-179 437.7,-175.5 437.7,-182.5"/>
</g>
<!-- Node6&#45;&gt;Node5 -->
<g id="edge6" class="edge">
<title>Node6&#45;&gt;Node5</title>
<path fill="none" stroke="midnightblue" d="M412.18,-31.49C420.63,-32.44 429.21,-33.41 437.73,-34.37"/>
<polygon fill="midnightblue" stroke="midnightblue" points="437.37,-37.85 447.7,-35.49 438.15,-30.9 437.37,-37.85"/>
</g>
</g>
</svg>
