<?xml version="1.0" encoding="UTF-8" standalone="no"?>
<!DOCTYPE svg PUBLIC "-//W3C//DTD SVG 1.1//EN"
 "http://www.w3.org/Graphics/SVG/1.1/DTD/svg11.dtd">
<!-- Generated by graphviz version 2.43.0 (0)
 -->
<!-- Title: aopp_deconv_tool.artefact_detection.exec_with_args Pages: 1 -->
<svg width="736pt" height="94pt"
 viewBox="0.00 0.00 736.00 93.50" xmlns="http://www.w3.org/2000/svg" xmlns:xlink="http://www.w3.org/1999/xlink">
<g id="graph0" class="graph" transform="scale(1 1) rotate(0) translate(4 89.5)">
<title>aopp_deconv_tool.artefact_detection.exec_with_args</title>
<!-- Node1 -->
<g id="node1" class="node">
<title>Node1</title>
<g id="a_node1"><a xlink:title=" ">
<polygon fill="#bfbfbf" stroke="black" points="0,-30 0,-60 146,-60 146,-30 0,-30"/>
<text text-anchor="start" x="8" y="-48" font-family="Helvetica,sans-Serif" font-size="10.00">aopp_deconv_tool.artefact</text>
<text text-anchor="middle" x="73" y="-37" font-family="Helvetica,sans-Serif" font-size="10.00">_detection.exec_with_args</text>
</a>
</g>
</g>
<!-- Node2 -->
<g id="node2" class="node">
<title>Node2</title>
<g id="a_node2"><a xlink:href="../../dd/d4d/namespaceaopp__deconv__tool_1_1artefact__detection.html#a4d46d8ae518ad501b8786cd6dd8a50dd" target="_top" xlink:title=" ">
<polygon fill="none" stroke="black" points="182,-55 182,-85 328,-85 328,-55 182,-55"/>
<text text-anchor="start" x="190" y="-73" font-family="Helvetica,sans-Serif" font-size="10.00">aopp_deconv_tool.artefact</text>
<text text-anchor="middle" x="255" y="-62" font-family="Helvetica,sans-Serif" font-size="10.00">_detection.parse_args</text>
</a>
</g>
</g>
<!-- Node1&#45;&gt;Node2 -->
<g id="edge1" class="edge">
<title>Node1&#45;&gt;Node2</title>
<path fill="none" stroke="midnightblue" d="M146.18,-55.02C154.61,-56.2 163.27,-57.4 171.82,-58.59"/>
<polygon fill="midnightblue" stroke="midnightblue" points="171.42,-62.06 181.81,-59.97 172.38,-55.13 171.42,-62.06"/>
</g>
<!-- Node5 -->
<g id="node5" class="node">
<title>Node5</title>
<g id="a_node5"><a xlink:href="../../dd/d4d/namespaceaopp__deconv__tool_1_1artefact__detection.html#ad6a49feded1a28b44da02e27344a35b3" target="_top" xlink:title=" ">
<polygon fill="none" stroke="black" points="182,-6 182,-36 328,-36 328,-6 182,-6"/>
<text text-anchor="start" x="190" y="-24" font-family="Helvetica,sans-Serif" font-size="10.00">aopp_deconv_tool.artefact</text>
<text text-anchor="middle" x="255" y="-13" font-family="Helvetica,sans-Serif" font-size="10.00">_detection.run</text>
</a>
</g>
</g>
<!-- Node1&#45;&gt;Node5 -->
<g id="edge4" class="edge">
<title>Node1&#45;&gt;Node5</title>
<path fill="none" stroke="midnightblue" d="M146.18,-35.38C154.61,-34.25 163.27,-33.1 171.82,-31.96"/>
<polygon fill="midnightblue" stroke="midnightblue" points="172.36,-35.42 181.81,-30.63 171.43,-28.48 172.36,-35.42"/>
</g>
<!-- Node3 -->
<g id="node3" class="node">
<title>Node3</title>
<g id="a_node3"><a xlink:href="../../d8/d5b/namespaceaopp__deconv__tool_1_1text.html#ae13da0dd246571ccd435ba5f64904bfe" target="_top" xlink:title=" ">
<polygon fill="none" stroke="black" points="364,-60.5 364,-79.5 519,-79.5 519,-60.5 364,-60.5"/>
<text text-anchor="middle" x="441.5" y="-67.5" font-family="Helvetica,sans-Serif" font-size="10.00">aopp_deconv_tool.text.wrap</text>
</a>
</g>
</g>
<!-- Node2&#45;&gt;Node3 -->
<g id="edge2" class="edge">
<title>Node2&#45;&gt;Node3</title>
<path fill="none" stroke="midnightblue" d="M328.13,-70C336.55,-70 345.21,-70 353.81,-70"/>
<polygon fill="midnightblue" stroke="midnightblue" points="353.86,-73.5 363.86,-70 353.86,-66.5 353.86,-73.5"/>
</g>
<!-- Node4 -->
<g id="node4" class="node">
<title>Node4</title>
<g id="a_node4"><a xlink:href="../../d8/d5b/namespaceaopp__deconv__tool_1_1text.html#a5b208e43cdecac49460b4ced231aa4a6" target="_top" xlink:title=" ">
<polygon fill="none" stroke="black" points="555,-55 555,-85 728,-85 728,-55 555,-55"/>
<text text-anchor="start" x="563" y="-73" font-family="Helvetica,sans-Serif" font-size="10.00">aopp_deconv_tool.text.combine</text>
<text text-anchor="middle" x="641.5" y="-62" font-family="Helvetica,sans-Serif" font-size="10.00">_lines_with_same_indent</text>
</a>
</g>
</g>
<!-- Node3&#45;&gt;Node4 -->
<g id="edge3" class="edge">
<title>Node3&#45;&gt;Node4</title>
<path fill="none" stroke="midnightblue" d="M519.05,-70C527.5,-70 536.18,-70 544.82,-70"/>
<polygon fill="midnightblue" stroke="midnightblue" points="544.94,-73.5 554.94,-70 544.94,-66.5 544.94,-73.5"/>
</g>
<!-- Node6 -->
<g id="node6" class="node">
<title>Node6</title>
<g id="a_node6"><a xlink:href="../../dd/d4d/namespaceaopp__deconv__tool_1_1artefact__detection.html#ad1fb96f601c1eeb861501ef40809e0cb" target="_top" xlink:title=" ">
<polygon fill="none" stroke="black" points="365.5,-0.5 365.5,-41.5 517.5,-41.5 517.5,-0.5 365.5,-0.5"/>
<text text-anchor="start" x="373.5" y="-29.5" font-family="Helvetica,sans-Serif" font-size="10.00">aopp_deconv_tool.artefact</text>
<text text-anchor="start" x="373.5" y="-18.5" font-family="Helvetica,sans-Serif" font-size="10.00">_detection.generate_masks</text>
<text text-anchor="middle" x="441.5" y="-7.5" font-family="Helvetica,sans-Serif" font-size="10.00">_from_thresholds</text>
</a>
</g>
</g>
<!-- Node5&#45;&gt;Node6 -->
<g id="edge5" class="edge">
<title>Node5&#45;&gt;Node6</title>
<path fill="none" stroke="midnightblue" d="M328.13,-21C337.01,-21 346.16,-21 355.21,-21"/>
<polygon fill="midnightblue" stroke="midnightblue" points="355.38,-24.5 365.38,-21 355.38,-17.5 355.38,-24.5"/>
</g>
</g>
</svg>
