<?xml version="1.0" encoding="UTF-8" standalone="no"?>
<!DOCTYPE svg PUBLIC "-//W3C//DTD SVG 1.1//EN"
 "http://www.w3.org/Graphics/SVG/1.1/DTD/svg11.dtd">
<!-- Generated by graphviz version 2.43.0 (0)
 -->
<!-- Title: aopp_deconv_tool.artefact_detection.go Pages: 1 -->
<svg width="981pt" height="118pt"
 viewBox="0.00 0.00 981.00 117.50" xmlns="http://www.w3.org/2000/svg" xmlns:xlink="http://www.w3.org/1999/xlink">
<g id="graph0" class="graph" transform="scale(1 1) rotate(0) translate(4 113.5)">
<title>aopp_deconv_tool.artefact_detection.go</title>
<!-- Node1 -->
<g id="node1" class="node">
<title>Node1</title>
<g id="a_node1"><a xlink:title=" ">
<polygon fill="#bfbfbf" stroke="black" points="0,-54 0,-84 146,-84 146,-54 0,-54"/>
<text text-anchor="start" x="8" y="-72" font-family="Helvetica,sans-Serif" font-size="10.00">aopp_deconv_tool.artefact</text>
<text text-anchor="middle" x="73" y="-61" font-family="Helvetica,sans-Serif" font-size="10.00">_detection.go</text>
</a>
</g>
</g>
<!-- Node2 -->
<g id="node2" class="node">
<title>Node2</title>
<g id="a_node2"><a xlink:href="../../da/d5f/namespaceaopp__deconv__tool_1_1arguments.html#a206efe8090df20dc2ee1729424f5bb9f" target="_top" xlink:title=" ">
<polygon fill="none" stroke="black" points="182,-79 182,-109 391,-109 391,-79 182,-79"/>
<text text-anchor="start" x="190" y="-97" font-family="Helvetica,sans-Serif" font-size="10.00">aopp_deconv_tool.arguments.construct</text>
<text text-anchor="middle" x="286.5" y="-86" font-family="Helvetica,sans-Serif" font-size="10.00">_arglist_from_locals</text>
</a>
</g>
</g>
<!-- Node1&#45;&gt;Node2 -->
<g id="edge1" class="edge">
<title>Node1&#45;&gt;Node2</title>
<path fill="none" stroke="midnightblue" d="M146.19,-77.53C154.45,-78.51 163.01,-79.52 171.65,-80.54"/>
<polygon fill="midnightblue" stroke="midnightblue" points="171.46,-84.04 181.8,-81.74 172.28,-77.09 171.46,-84.04"/>
</g>
<!-- Node3 -->
<g id="node3" class="node">
<title>Node3</title>
<g id="a_node3"><a xlink:href="../../dd/d4d/namespaceaopp__deconv__tool_1_1artefact__detection.html#a948e1922d2a8e9057315178c05637934" target="_top" xlink:title=" ">
<polygon fill="none" stroke="black" points="213.5,-30 213.5,-60 359.5,-60 359.5,-30 213.5,-30"/>
<text text-anchor="start" x="221.5" y="-48" font-family="Helvetica,sans-Serif" font-size="10.00">aopp_deconv_tool.artefact</text>
<text text-anchor="middle" x="286.5" y="-37" font-family="Helvetica,sans-Serif" font-size="10.00">_detection.exec_with_args</text>
</a>
</g>
</g>
<!-- Node1&#45;&gt;Node3 -->
<g id="edge2" class="edge">
<title>Node1&#45;&gt;Node3</title>
<path fill="none" stroke="midnightblue" d="M146.19,-60.81C164.55,-58.72 184.42,-56.47 203.24,-54.33"/>
<polygon fill="midnightblue" stroke="midnightblue" points="203.73,-57.8 213.27,-53.2 202.94,-50.85 203.73,-57.8"/>
</g>
<!-- Node4 -->
<g id="node4" class="node">
<title>Node4</title>
<g id="a_node4"><a xlink:href="../../dd/d4d/namespaceaopp__deconv__tool_1_1artefact__detection.html#a4d46d8ae518ad501b8786cd6dd8a50dd" target="_top" xlink:title=" ">
<polygon fill="none" stroke="black" points="427,-55 427,-85 573,-85 573,-55 427,-55"/>
<text text-anchor="start" x="435" y="-73" font-family="Helvetica,sans-Serif" font-size="10.00">aopp_deconv_tool.artefact</text>
<text text-anchor="middle" x="500" y="-62" font-family="Helvetica,sans-Serif" font-size="10.00">_detection.parse_args</text>
</a>
</g>
</g>
<!-- Node3&#45;&gt;Node4 -->
<g id="edge3" class="edge">
<title>Node3&#45;&gt;Node4</title>
<path fill="none" stroke="midnightblue" d="M359.69,-53.53C378.05,-55.7 397.92,-58.05 416.74,-60.28"/>
<polygon fill="midnightblue" stroke="midnightblue" points="416.43,-63.76 426.77,-61.46 417.25,-56.81 416.43,-63.76"/>
</g>
<!-- Node7 -->
<g id="node7" class="node">
<title>Node7</title>
<g id="a_node7"><a xlink:href="../../dd/d4d/namespaceaopp__deconv__tool_1_1artefact__detection.html#ad6a49feded1a28b44da02e27344a35b3" target="_top" xlink:title=" ">
<polygon fill="none" stroke="black" points="427,-6 427,-36 573,-36 573,-6 427,-6"/>
<text text-anchor="start" x="435" y="-24" font-family="Helvetica,sans-Serif" font-size="10.00">aopp_deconv_tool.artefact</text>
<text text-anchor="middle" x="500" y="-13" font-family="Helvetica,sans-Serif" font-size="10.00">_detection.run</text>
</a>
</g>
</g>
<!-- Node3&#45;&gt;Node7 -->
<g id="edge6" class="edge">
<title>Node3&#45;&gt;Node7</title>
<path fill="none" stroke="midnightblue" d="M359.69,-36.81C378.05,-34.72 397.92,-32.47 416.74,-30.33"/>
<polygon fill="midnightblue" stroke="midnightblue" points="417.23,-33.8 426.77,-29.2 416.44,-26.85 417.23,-33.8"/>
</g>
<!-- Node5 -->
<g id="node5" class="node">
<title>Node5</title>
<g id="a_node5"><a xlink:href="../../d8/d5b/namespaceaopp__deconv__tool_1_1text.html#ae13da0dd246571ccd435ba5f64904bfe" target="_top" xlink:title=" ">
<polygon fill="none" stroke="black" points="609,-60.5 609,-79.5 764,-79.5 764,-60.5 609,-60.5"/>
<text text-anchor="middle" x="686.5" y="-67.5" font-family="Helvetica,sans-Serif" font-size="10.00">aopp_deconv_tool.text.wrap</text>
</a>
</g>
</g>
<!-- Node4&#45;&gt;Node5 -->
<g id="edge4" class="edge">
<title>Node4&#45;&gt;Node5</title>
<path fill="none" stroke="midnightblue" d="M573.13,-70C581.55,-70 590.21,-70 598.81,-70"/>
<polygon fill="midnightblue" stroke="midnightblue" points="598.86,-73.5 608.86,-70 598.86,-66.5 598.86,-73.5"/>
</g>
<!-- Node6 -->
<g id="node6" class="node">
<title>Node6</title>
<g id="a_node6"><a xlink:href="../../d8/d5b/namespaceaopp__deconv__tool_1_1text.html#a5b208e43cdecac49460b4ced231aa4a6" target="_top" xlink:title=" ">
<polygon fill="none" stroke="black" points="800,-55 800,-85 973,-85 973,-55 800,-55"/>
<text text-anchor="start" x="808" y="-73" font-family="Helvetica,sans-Serif" font-size="10.00">aopp_deconv_tool.text.combine</text>
<text text-anchor="middle" x="886.5" y="-62" font-family="Helvetica,sans-Serif" font-size="10.00">_lines_with_same_indent</text>
</a>
</g>
</g>
<!-- Node5&#45;&gt;Node6 -->
<g id="edge5" class="edge">
<title>Node5&#45;&gt;Node6</title>
<path fill="none" stroke="midnightblue" d="M764.05,-70C772.5,-70 781.18,-70 789.82,-70"/>
<polygon fill="midnightblue" stroke="midnightblue" points="789.94,-73.5 799.94,-70 789.94,-66.5 789.94,-73.5"/>
</g>
<!-- Node8 -->
<g id="node8" class="node">
<title>Node8</title>
<g id="a_node8"><a xlink:href="../../dd/d4d/namespaceaopp__deconv__tool_1_1artefact__detection.html#ad1fb96f601c1eeb861501ef40809e0cb" target="_top" xlink:title=" ">
<polygon fill="none" stroke="black" points="610.5,-0.5 610.5,-41.5 762.5,-41.5 762.5,-0.5 610.5,-0.5"/>
<text text-anchor="start" x="618.5" y="-29.5" font-family="Helvetica,sans-Serif" font-size="10.00">aopp_deconv_tool.artefact</text>
<text text-anchor="start" x="618.5" y="-18.5" font-family="Helvetica,sans-Serif" font-size="10.00">_detection.generate_masks</text>
<text text-anchor="middle" x="686.5" y="-7.5" font-family="Helvetica,sans-Serif" font-size="10.00">_from_thresholds</text>
</a>
</g>
</g>
<!-- Node7&#45;&gt;Node8 -->
<g id="edge7" class="edge">
<title>Node7&#45;&gt;Node8</title>
<path fill="none" stroke="midnightblue" d="M573.13,-21C582.01,-21 591.16,-21 600.21,-21"/>
<polygon fill="midnightblue" stroke="midnightblue" points="600.38,-24.5 610.38,-21 600.38,-17.5 600.38,-24.5"/>
</g>
</g>
</svg>
