<?xml version="1.0" encoding="UTF-8" standalone="no"?>
<!DOCTYPE svg PUBLIC "-//W3C//DTD SVG 1.1//EN"
 "http://www.w3.org/Graphics/SVG/1.1/DTD/svg11.dtd">
<!-- Generated by graphviz version 2.43.0 (0)
 -->
<!-- Title: aopp_deconv_tool.artefact_detection.exec_with_args Pages: 1 -->
<svg width="736pt" height="92pt"
 viewBox="0.00 0.00 736.00 91.50" xmlns="http://www.w3.org/2000/svg" xmlns:xlink="http://www.w3.org/1999/xlink">
<g id="graph0" class="graph" transform="scale(1 1) rotate(0) translate(4 87.5)">
<title>aopp_deconv_tool.artefact_detection.exec_with_args</title>
<!-- Node1 -->
<g id="Node000001" class="node">
<title>Node1</title>
<g id="a_Node000001"><a xlink:title=" ">
<polygon fill="#999999" stroke="#666666" points="146,-59.5 0,-59.5 0,-29.5 146,-29.5 146,-59.5"/>
<text text-anchor="start" x="8" y="-47.5" font-family="Helvetica,sans-Serif" font-size="10.00">aopp_deconv_tool.artefact</text>
<text text-anchor="middle" x="73" y="-36.5" font-family="Helvetica,sans-Serif" font-size="10.00">_detection.exec_with_args</text>
</a>
</g>
</g>
<!-- Node1&#45;&gt;Node1 -->
<g id="edge1_Node000001_Node000001" class="edge">
<title>Node1&#45;&gt;Node1</title>
<g id="a_edge1_Node000001_Node000001"><a xlink:title=" ">
<path fill="none" stroke="#63b8ff" d="M41.01,-59.78C33.9,-68.91 44.56,-77.5 73,-77.5 89.88,-77.5 100.5,-74.47 104.86,-70.1"/>
<polygon fill="#63b8ff" stroke="#63b8ff" points="108.36,-69.82 104.99,-59.78 101.36,-69.73 108.36,-69.82"/>
</a>
</g>
</g>
<!-- Node2 -->
<g id="Node000002" class="node">
<title>Node2</title>
<g id="a_Node000002"><a xlink:href="../../dd/d4d/namespaceaopp__deconv__tool_1_1artefact__detection.html#ac6e964b0643f1b3a2a1a8bfaf7afee81" target="_top" xlink:title=" ">
<polygon fill="white" stroke="#666666" points="328,-83.5 182,-83.5 182,-53.5 328,-53.5 328,-83.5"/>
<text text-anchor="start" x="190" y="-71.5" font-family="Helvetica,sans-Serif" font-size="10.00">aopp_deconv_tool.artefact</text>
<text text-anchor="middle" x="255" y="-60.5" font-family="Helvetica,sans-Serif" font-size="10.00">_detection.parse_args</text>
</a>
</g>
</g>
<!-- Node1&#45;&gt;Node2 -->
<g id="edge2_Node000001_Node000002" class="edge">
<title>Node1&#45;&gt;Node2</title>
<g id="a_edge2_Node000001_Node000002"><a xlink:title=" ">
<path fill="none" stroke="#63b8ff" d="M146.18,-54.12C154.61,-55.25 163.27,-56.4 171.82,-57.54"/>
<polygon fill="#63b8ff" stroke="#63b8ff" points="171.43,-61.02 181.81,-58.87 172.36,-54.08 171.43,-61.02"/>
</a>
</g>
</g>
<!-- Node5 -->
<g id="Node000005" class="node">
<title>Node5</title>
<g id="a_Node000005"><a xlink:href="../../dd/d4d/namespaceaopp__deconv__tool_1_1artefact__detection.html#ad6a49feded1a28b44da02e27344a35b3" target="_top" xlink:title=" ">
<polygon fill="white" stroke="#666666" points="328,-35.5 182,-35.5 182,-5.5 328,-5.5 328,-35.5"/>
<text text-anchor="start" x="190" y="-23.5" font-family="Helvetica,sans-Serif" font-size="10.00">aopp_deconv_tool.artefact</text>
<text text-anchor="middle" x="255" y="-12.5" font-family="Helvetica,sans-Serif" font-size="10.00">_detection.run</text>
</a>
</g>
</g>
<!-- Node1&#45;&gt;Node5 -->
<g id="edge5_Node000001_Node000005" class="edge">
<title>Node1&#45;&gt;Node5</title>
<g id="a_edge5_Node000001_Node000005"><a xlink:title=" ">
<path fill="none" stroke="#63b8ff" d="M146.18,-34.88C154.61,-33.75 163.27,-32.6 171.82,-31.46"/>
<polygon fill="#63b8ff" stroke="#63b8ff" points="172.36,-34.92 181.81,-30.13 171.43,-27.98 172.36,-34.92"/>
</a>
</g>
</g>
<!-- Node3 -->
<g id="Node000003" class="node">
<title>Node3</title>
<g id="a_Node000003"><a xlink:href="../../d8/d5b/namespaceaopp__deconv__tool_1_1text.html#a75d81e58c71da89b56473e2616edd1c6" target="_top" xlink:title=" ">
<polygon fill="white" stroke="#666666" points="519,-78 364,-78 364,-59 519,-59 519,-78"/>
<text text-anchor="middle" x="441.5" y="-66" font-family="Helvetica,sans-Serif" font-size="10.00">aopp_deconv_tool.text.wrap</text>
</a>
</g>
</g>
<!-- Node2&#45;&gt;Node3 -->
<g id="edge3_Node000002_Node000003" class="edge">
<title>Node2&#45;&gt;Node3</title>
<g id="a_edge3_Node000002_Node000003"><a xlink:title=" ">
<path fill="none" stroke="#63b8ff" d="M328.13,-68.5C336.55,-68.5 345.21,-68.5 353.81,-68.5"/>
<polygon fill="#63b8ff" stroke="#63b8ff" points="353.86,-72 363.86,-68.5 353.86,-65 353.86,-72"/>
</a>
</g>
</g>
<!-- Node4 -->
<g id="Node000004" class="node">
<title>Node4</title>
<g id="a_Node000004"><a xlink:href="../../d8/d5b/namespaceaopp__deconv__tool_1_1text.html#a1496cf89a275b1b851ff81f401628c27" target="_top" xlink:title=" ">
<polygon fill="white" stroke="#666666" points="728,-83.5 555,-83.5 555,-53.5 728,-53.5 728,-83.5"/>
<text text-anchor="start" x="563" y="-71.5" font-family="Helvetica,sans-Serif" font-size="10.00">aopp_deconv_tool.text.combine</text>
<text text-anchor="middle" x="641.5" y="-60.5" font-family="Helvetica,sans-Serif" font-size="10.00">_lines_with_same_indent</text>
</a>
</g>
</g>
<!-- Node3&#45;&gt;Node4 -->
<g id="edge4_Node000003_Node000004" class="edge">
<title>Node3&#45;&gt;Node4</title>
<g id="a_edge4_Node000003_Node000004"><a xlink:title=" ">
<path fill="none" stroke="#63b8ff" d="M519.05,-68.5C527.5,-68.5 536.18,-68.5 544.82,-68.5"/>
<polygon fill="#63b8ff" stroke="#63b8ff" points="544.94,-72 554.94,-68.5 544.94,-65 544.94,-72"/>
</a>
</g>
</g>
<!-- Node6 -->
<g id="Node000006" class="node">
<title>Node6</title>
<g id="a_Node000006"><a xlink:href="../../dd/d4d/namespaceaopp__deconv__tool_1_1artefact__detection.html#a7501843f356a0777c2cfb5a90446bd3a" target="_top" xlink:title=" ">
<polygon fill="white" stroke="#666666" points="517.5,-41 365.5,-41 365.5,0 517.5,0 517.5,-41"/>
<text text-anchor="start" x="373.5" y="-29" font-family="Helvetica,sans-Serif" font-size="10.00">aopp_deconv_tool.artefact</text>
<text text-anchor="start" x="373.5" y="-18" font-family="Helvetica,sans-Serif" font-size="10.00">_detection.generate_masks</text>
<text text-anchor="middle" x="441.5" y="-7" font-family="Helvetica,sans-Serif" font-size="10.00">_from_thresholds</text>
</a>
</g>
</g>
<!-- Node5&#45;&gt;Node6 -->
<g id="edge6_Node000005_Node000006" class="edge">
<title>Node5&#45;&gt;Node6</title>
<g id="a_edge6_Node000005_Node000006"><a xlink:title=" ">
<path fill="none" stroke="#63b8ff" d="M328.13,-20.5C337.01,-20.5 346.16,-20.5 355.21,-20.5"/>
<polygon fill="#63b8ff" stroke="#63b8ff" points="355.38,-24 365.38,-20.5 355.38,-17 355.38,-24"/>
</a>
</g>
</g>
</g>
</svg>
