<?xml version="1.0" encoding="UTF-8" standalone="no"?>
<!DOCTYPE svg PUBLIC "-//W3C//DTD SVG 1.1//EN"
 "http://www.w3.org/Graphics/SVG/1.1/DTD/svg11.dtd">
<!-- Generated by graphviz version 2.43.0 (0)
 -->
<!-- Title: aopp_deconv_tool.py_ssa.SSA.reverse_mapping Pages: 1 -->
<svg width="504pt" height="230pt"
 viewBox="0.00 0.00 504.00 230.00" xmlns="http://www.w3.org/2000/svg" xmlns:xlink="http://www.w3.org/1999/xlink">
<g id="graph0" class="graph" transform="scale(1 1) rotate(0) translate(4 226)">
<title>aopp_deconv_tool.py_ssa.SSA.reverse_mapping</title>
<!-- Node1 -->
<g id="Node000001" class="node">
<title>Node1</title>
<g id="a_Node000001"><a xlink:title=" ">
<polygon fill="#999999" stroke="#666666" points="149,-126 0,-126 0,-96 149,-96 149,-126"/>
<text text-anchor="start" x="8" y="-114" font-family="Helvetica,sans-Serif" font-size="10.00">aopp_deconv_tool.py</text>
<text text-anchor="middle" x="74.5" y="-103" font-family="Helvetica,sans-Serif" font-size="10.00">_ssa.SSA.reverse_mapping</text>
</a>
</g>
</g>
<!-- Node2 -->
<g id="Node000002" class="node">
<title>Node2</title>
<g id="a_Node000002"><a xlink:href="../../dc/dbb/classaopp__deconv__tool_1_1py__ssa_1_1SSA.html#a116709b20b95929c4c1c98027c3882f8" target="_top" xlink:title=" ">
<polygon fill="white" stroke="#666666" points="322.5,-222 202.5,-222 202.5,-192 322.5,-192 322.5,-222"/>
<text text-anchor="start" x="210.5" y="-210" font-family="Helvetica,sans-Serif" font-size="10.00">aopp_deconv_tool.py</text>
<text text-anchor="middle" x="262.5" y="-199" font-family="Helvetica,sans-Serif" font-size="10.00">_ssa.SSA.embed</text>
</a>
</g>
</g>
<!-- Node1&#45;&gt;Node2 -->
<g id="edge1_Node000001_Node000002" class="edge">
<title>Node1&#45;&gt;Node2</title>
<g id="a_edge1_Node000001_Node000002"><a xlink:title=" ">
<path fill="none" stroke="#63b8ff" d="M94.7,-126.02C115.83,-141.96 151.29,-167.01 185,-183 189,-184.9 193.18,-186.69 197.45,-188.38"/>
<polygon fill="#63b8ff" stroke="#63b8ff" points="196.28,-191.68 206.87,-191.91 198.73,-185.13 196.28,-191.68"/>
</a>
</g>
</g>
<!-- Node4 -->
<g id="Node000004" class="node">
<title>Node4</title>
<g id="a_Node000004"><a xlink:href="../../dd/d26/namespaceaopp__deconv__tool_1_1py__ssa.html#a989a76a014de9ff900fe3b559b64f70e" target="_top" xlink:title=" ">
<polygon fill="white" stroke="#666666" points="334.5,-174 190.5,-174 190.5,-144 334.5,-144 334.5,-174"/>
<text text-anchor="start" x="198.5" y="-162" font-family="Helvetica,sans-Serif" font-size="10.00">aopp_deconv_tool.py</text>
<text text-anchor="middle" x="262.5" y="-151" font-family="Helvetica,sans-Serif" font-size="10.00">_ssa.frobenius_inner_prod</text>
</a>
</g>
</g>
<!-- Node1&#45;&gt;Node4 -->
<g id="edge3_Node000001_Node000004" class="edge">
<title>Node1&#45;&gt;Node4</title>
<g id="a_edge3_Node000001_Node000004"><a xlink:title=" ">
<path fill="none" stroke="#63b8ff" d="M133.84,-126.06C152.8,-130.95 174,-136.42 193.59,-141.48"/>
<polygon fill="#63b8ff" stroke="#63b8ff" points="192.81,-144.89 203.37,-144 194.56,-138.11 192.81,-144.89"/>
</a>
</g>
</g>
<!-- Node5 -->
<g id="Node000005" class="node">
<title>Node5</title>
<g id="a_Node000005"><a xlink:href="../../dd/d26/namespaceaopp__deconv__tool_1_1py__ssa.html#a8bd9aa3cd1f0fb908170f4c1257fdc1a" target="_top" xlink:title=" ">
<polygon fill="white" stroke="#666666" points="322.5,-126 202.5,-126 202.5,-96 322.5,-96 322.5,-126"/>
<text text-anchor="start" x="210.5" y="-114" font-family="Helvetica,sans-Serif" font-size="10.00">aopp_deconv_tool.py</text>
<text text-anchor="middle" x="262.5" y="-103" font-family="Helvetica,sans-Serif" font-size="10.00">_ssa.frobenius_norm</text>
</a>
</g>
</g>
<!-- Node1&#45;&gt;Node5 -->
<g id="edge4_Node000001_Node000005" class="edge">
<title>Node1&#45;&gt;Node5</title>
<g id="a_edge4_Node000001_Node000005"><a xlink:title=" ">
<path fill="none" stroke="#63b8ff" d="M149.01,-111C163.23,-111 178.08,-111 192.16,-111"/>
<polygon fill="#63b8ff" stroke="#63b8ff" points="192.26,-114.5 202.26,-111 192.26,-107.5 192.26,-114.5"/>
</a>
</g>
</g>
<!-- Node6 -->
<g id="Node000006" class="node">
<title>Node6</title>
<g id="a_Node000006"><a xlink:href="../../d4/d4e/classaopp__deconv__tool_1_1numpy__helper_1_1axes_1_1AxesOrdering.html#a2c9a54b6029b66d8210c9634c145c0ba" target="_top" xlink:title=" ">
<polygon fill="white" stroke="#666666" points="340,-78 185,-78 185,-48 340,-48 340,-78"/>
<text text-anchor="start" x="193" y="-66" font-family="Helvetica,sans-Serif" font-size="10.00">aopp_deconv_tool.numpy</text>
<text text-anchor="middle" x="262.5" y="-55" font-family="Helvetica,sans-Serif" font-size="10.00">_helper.axes.AxesOrdering.n</text>
</a>
</g>
</g>
<!-- Node1&#45;&gt;Node6 -->
<g id="edge5_Node000001_Node000006" class="edge">
<title>Node1&#45;&gt;Node6</title>
<g id="a_edge5_Node000001_Node000006"><a xlink:title=" ">
<path fill="none" stroke="#63b8ff" d="M133.84,-95.94C152.8,-91.05 174,-85.58 193.59,-80.52"/>
<polygon fill="#63b8ff" stroke="#63b8ff" points="194.56,-83.89 203.37,-78 192.81,-77.11 194.56,-83.89"/>
</a>
</g>
</g>
<!-- Node7 -->
<g id="Node000007" class="node">
<title>Node7</title>
<g id="a_Node000007"><a xlink:href="../../d4/d4e/classaopp__deconv__tool_1_1numpy__helper_1_1axes_1_1AxesOrdering.html#a39ab54eb13f6f13f73d6846a28964739" target="_top" xlink:title=" ">
<polygon fill="white" stroke="#666666" points="340,-30 185,-30 185,0 340,0 340,-30"/>
<text text-anchor="start" x="193" y="-18" font-family="Helvetica,sans-Serif" font-size="10.00">aopp_deconv_tool.numpy</text>
<text text-anchor="middle" x="262.5" y="-7" font-family="Helvetica,sans-Serif" font-size="10.00">_helper.axes.AxesOrdering.n</text>
</a>
</g>
</g>
<!-- Node1&#45;&gt;Node7 -->
<g id="edge6_Node000001_Node000007" class="edge">
<title>Node1&#45;&gt;Node7</title>
<g id="a_edge6_Node000001_Node000007"><a xlink:title=" ">
<path fill="none" stroke="#63b8ff" d="M94.7,-95.98C115.83,-80.04 151.29,-54.99 185,-39 189,-37.1 193.18,-35.31 197.45,-33.62"/>
<polygon fill="#63b8ff" stroke="#63b8ff" points="198.73,-36.87 206.87,-30.09 196.28,-30.32 198.73,-36.87"/>
</a>
</g>
</g>
<!-- Node3 -->
<g id="Node000003" class="node">
<title>Node3</title>
<g id="a_Node000003"><a xlink:href="../../dd/d26/namespaceaopp__deconv__tool_1_1py__ssa.html#a618e14a38875c0fde61dbac5637cde54" target="_top" xlink:title=" ">
<polygon fill="white" stroke="#666666" points="496,-222 376,-222 376,-192 496,-192 496,-222"/>
<text text-anchor="start" x="384" y="-210" font-family="Helvetica,sans-Serif" font-size="10.00">aopp_deconv_tool.py</text>
<text text-anchor="middle" x="436" y="-199" font-family="Helvetica,sans-Serif" font-size="10.00">_ssa.vectorise_mat</text>
</a>
</g>
</g>
<!-- Node2&#45;&gt;Node3 -->
<g id="edge2_Node000002_Node000003" class="edge">
<title>Node2&#45;&gt;Node3</title>
<g id="a_edge2_Node000002_Node000003"><a xlink:title=" ">
<path fill="none" stroke="#63b8ff" d="M322.52,-207C336.4,-207 351.32,-207 365.6,-207"/>
<polygon fill="#63b8ff" stroke="#63b8ff" points="365.87,-210.5 375.87,-207 365.87,-203.5 365.87,-210.5"/>
</a>
</g>
</g>
</g>
</svg>
