<?xml version="1.0" encoding="UTF-8" standalone="no"?>
<!DOCTYPE svg PUBLIC "-//W3C//DTD SVG 1.1//EN"
 "http://www.w3.org/Graphics/SVG/1.1/DTD/svg11.dtd">
<!-- Generated by graphviz version 2.43.0 (0)
 -->
<!-- Title: aopp_deconv_tool.py_ssa.SSA.plot_all Pages: 1 -->
<svg width="316pt" height="307pt"
 viewBox="0.00 0.00 316.00 306.50" xmlns="http://www.w3.org/2000/svg" xmlns:xlink="http://www.w3.org/1999/xlink">
<g id="graph0" class="graph" transform="scale(1 1) rotate(0) translate(4 302.5)">
<title>aopp_deconv_tool.py_ssa.SSA.plot_all</title>
<!-- Node1 -->
<g id="node1" class="node">
<title>Node1</title>
<g id="a_node1"><a xlink:title=" ">
<polygon fill="#bfbfbf" stroke="black" points="0,-145 0,-175 120,-175 120,-145 0,-145"/>
<text text-anchor="start" x="8" y="-163" font-family="Helvetica,sans-Serif" font-size="10.00">aopp_deconv_tool.py</text>
<text text-anchor="middle" x="60" y="-152" font-family="Helvetica,sans-Serif" font-size="10.00">_ssa.SSA.plot_all</text>
</a>
</g>
</g>
<!-- Node2 -->
<g id="node2" class="node">
<title>Node2</title>
<g id="a_node2"><a xlink:href="../../dc/dbb/classaopp__deconv__tool_1_1py__ssa_1_1SSA.html#a367dfe951e79610446d6499ef21aa0e4" target="_top" xlink:title=" ">
<polygon fill="none" stroke="black" points="156.5,-268 156.5,-298 307.5,-298 307.5,-268 156.5,-268"/>
<text text-anchor="start" x="164.5" y="-286" font-family="Helvetica,sans-Serif" font-size="10.00">aopp_deconv_tool.py</text>
<text text-anchor="middle" x="232" y="-275" font-family="Helvetica,sans-Serif" font-size="10.00">_ssa.SSA.plot_eigenvectors</text>
</a>
</g>
</g>
<!-- Node1&#45;&gt;Node2 -->
<g id="edge1" class="edge">
<title>Node1&#45;&gt;Node2</title>
<path fill="none" stroke="midnightblue" d="M71.8,-175.36C87.79,-197.02 119.83,-236.43 156,-259 158.64,-260.65 161.4,-262.19 164.25,-263.64"/>
<polygon fill="midnightblue" stroke="midnightblue" points="163.01,-266.92 173.56,-267.93 165.94,-260.56 163.01,-266.92"/>
</g>
<!-- Node3 -->
<g id="node3" class="node">
<title>Node3</title>
<g id="a_node3"><a xlink:href="../../dc/dbb/classaopp__deconv__tool_1_1py__ssa_1_1SSA.html#a492392837ce55bd9cf8c4d5ea4739b77" target="_top" xlink:title=" ">
<polygon fill="none" stroke="black" points="156,-219 156,-249 308,-249 308,-219 156,-219"/>
<text text-anchor="start" x="164" y="-237" font-family="Helvetica,sans-Serif" font-size="10.00">aopp_deconv_tool.py</text>
<text text-anchor="middle" x="232" y="-226" font-family="Helvetica,sans-Serif" font-size="10.00">_ssa.SSA.plot_factorvectors</text>
</a>
</g>
</g>
<!-- Node1&#45;&gt;Node3 -->
<g id="edge2" class="edge">
<title>Node1&#45;&gt;Node3</title>
<path fill="none" stroke="midnightblue" d="M86.62,-175.05C105.41,-185.7 131.77,-199.84 156,-210 160.49,-211.88 165.19,-213.71 169.94,-215.45"/>
<polygon fill="midnightblue" stroke="midnightblue" points="169.14,-218.88 179.73,-218.92 171.47,-212.28 169.14,-218.88"/>
</g>
<!-- Node4 -->
<g id="node4" class="node">
<title>Node4</title>
<g id="a_node4"><a xlink:href="../../dc/dbb/classaopp__deconv__tool_1_1py__ssa_1_1SSA.html#af12ca837d22d0820153248f4857cfa51" target="_top" xlink:title=" ">
<polygon fill="none" stroke="black" points="172,-170 172,-200 292,-200 292,-170 172,-170"/>
<text text-anchor="start" x="180" y="-188" font-family="Helvetica,sans-Serif" font-size="10.00">aopp_deconv_tool.py</text>
<text text-anchor="middle" x="232" y="-177" font-family="Helvetica,sans-Serif" font-size="10.00">_ssa.SSA.plot_ssa</text>
</a>
</g>
</g>
<!-- Node1&#45;&gt;Node4 -->
<g id="edge3" class="edge">
<title>Node1&#45;&gt;Node4</title>
<path fill="none" stroke="midnightblue" d="M120.46,-168.74C133.86,-170.72 148.2,-172.82 161.97,-174.85"/>
<polygon fill="midnightblue" stroke="midnightblue" points="161.46,-178.31 171.86,-176.3 162.48,-171.39 161.46,-178.31"/>
</g>
<!-- Node5 -->
<g id="node5" class="node">
<title>Node5</title>
<g id="a_node5"><a xlink:href="../../dc/dbb/classaopp__deconv__tool_1_1py__ssa_1_1SSA.html#a8e45248a8d5b33734f84b5e054f6a404" target="_top" xlink:title=" ">
<polygon fill="none" stroke="black" points="172,-121 172,-151 292,-151 292,-121 172,-121"/>
<text text-anchor="start" x="180" y="-139" font-family="Helvetica,sans-Serif" font-size="10.00">aopp_deconv_tool.py</text>
<text text-anchor="middle" x="232" y="-128" font-family="Helvetica,sans-Serif" font-size="10.00">_ssa.SSA.plot_svd</text>
</a>
</g>
</g>
<!-- Node1&#45;&gt;Node5 -->
<g id="edge4" class="edge">
<title>Node1&#45;&gt;Node5</title>
<path fill="none" stroke="midnightblue" d="M120.46,-151.61C133.73,-149.73 147.93,-147.73 161.57,-145.8"/>
<polygon fill="midnightblue" stroke="midnightblue" points="162.45,-149.21 171.86,-144.35 161.47,-142.28 162.45,-149.21"/>
</g>
<!-- Node6 -->
<g id="node6" class="node">
<title>Node6</title>
<g id="a_node6"><a xlink:href="../../dc/dbb/classaopp__deconv__tool_1_1py__ssa_1_1SSA.html#a21d125695aa58e390b4587ee8d615c94" target="_top" xlink:title=" ">
<polygon fill="none" stroke="black" points="164.5,-60.5 164.5,-101.5 299.5,-101.5 299.5,-60.5 164.5,-60.5"/>
<text text-anchor="start" x="172.5" y="-89.5" font-family="Helvetica,sans-Serif" font-size="10.00">aopp_deconv_tool.py</text>
<text text-anchor="start" x="172.5" y="-78.5" font-family="Helvetica,sans-Serif" font-size="10.00">_ssa.SSA.plot_trajectory</text>
<text text-anchor="middle" x="232" y="-67.5" font-family="Helvetica,sans-Serif" font-size="10.00">_decomp</text>
</a>
</g>
</g>
<!-- Node1&#45;&gt;Node6 -->
<g id="edge5" class="edge">
<title>Node1&#45;&gt;Node6</title>
<path fill="none" stroke="midnightblue" d="M89.41,-144.94C108.14,-135.18 133.32,-122.4 156,-112 160.6,-109.89 165.4,-107.76 170.23,-105.66"/>
<polygon fill="midnightblue" stroke="midnightblue" points="171.73,-108.82 179.54,-101.66 168.97,-102.39 171.73,-108.82"/>
</g>
<!-- Node7 -->
<g id="node7" class="node">
<title>Node7</title>
<g id="a_node7"><a xlink:href="../../dc/dbb/classaopp__deconv__tool_1_1py__ssa_1_1SSA.html#a4b3e9610d642445e2f55474f0ecb9415" target="_top" xlink:title=" ">
<polygon fill="none" stroke="black" points="164.5,-0.5 164.5,-41.5 299.5,-41.5 299.5,-0.5 164.5,-0.5"/>
<text text-anchor="start" x="172.5" y="-29.5" font-family="Helvetica,sans-Serif" font-size="10.00">aopp_deconv_tool.py</text>
<text text-anchor="start" x="172.5" y="-18.5" font-family="Helvetica,sans-Serif" font-size="10.00">_ssa.SSA.plot_trajectory</text>
<text text-anchor="middle" x="232" y="-7.5" font-family="Helvetica,sans-Serif" font-size="10.00">_groups</text>
</a>
</g>
</g>
<!-- Node1&#45;&gt;Node7 -->
<g id="edge6" class="edge">
<title>Node1&#45;&gt;Node7</title>
<path fill="none" stroke="midnightblue" d="M70.63,-144.95C86.09,-121.86 118.54,-77.59 156,-51 158.1,-49.51 160.29,-48.08 162.54,-46.7"/>
<polygon fill="midnightblue" stroke="midnightblue" points="164.45,-49.64 171.46,-41.7 161.03,-43.54 164.45,-49.64"/>
</g>
</g>
</svg>
