<?xml version="1.0" encoding="UTF-8" standalone="no"?>
<!DOCTYPE svg PUBLIC "-//W3C//DTD SVG 1.1//EN"
 "http://www.w3.org/Graphics/SVG/1.1/DTD/svg11.dtd">
<!-- Generated by graphviz version 2.43.0 (0)
 -->
<!-- Title: aopp_deconv_tool.py_ssa.SSA.quasi_hankelisation Pages: 1 -->
<svg width="328pt" height="88pt"
 viewBox="0.00 0.00 328.00 88.00" xmlns="http://www.w3.org/2000/svg" xmlns:xlink="http://www.w3.org/1999/xlink">
<g id="graph0" class="graph" transform="scale(1 1) rotate(0) translate(4 84)">
<title>aopp_deconv_tool.py_ssa.SSA.quasi_hankelisation</title>
<!-- Node1 -->
<g id="node1" class="node">
<title>Node1</title>
<g id="a_node1"><a xlink:title=" ">
<polygon fill="#bfbfbf" stroke="black" points="0,-24.5 0,-54.5 161,-54.5 161,-24.5 0,-24.5"/>
<text text-anchor="start" x="8" y="-42.5" font-family="Helvetica,sans-Serif" font-size="10.00">aopp_deconv_tool.py</text>
<text text-anchor="middle" x="80.5" y="-31.5" font-family="Helvetica,sans-Serif" font-size="10.00">_ssa.SSA.quasi_hankelisation</text>
</a>
</g>
</g>
<!-- Node2 -->
<g id="node2" class="node">
<title>Node2</title>
<g id="a_node2"><a xlink:href="../../dc/dbb/classaopp__deconv__tool_1_1py__ssa_1_1SSA.html#a2b5086ae5649dedc85df3459818d920b" target="_top" xlink:title=" ">
<polygon fill="none" stroke="black" points="198.5,-49.5 198.5,-79.5 318.5,-79.5 318.5,-49.5 198.5,-49.5"/>
<text text-anchor="start" x="206.5" y="-67.5" font-family="Helvetica,sans-Serif" font-size="10.00">aopp_deconv_tool.py</text>
<text text-anchor="middle" x="258.5" y="-56.5" font-family="Helvetica,sans-Serif" font-size="10.00">_ssa.SSA.diagsums</text>
</a>
</g>
</g>
<!-- Node1&#45;&gt;Node2 -->
<g id="edge1" class="edge">
<title>Node1&#45;&gt;Node2</title>
<path fill="none" stroke="midnightblue" d="M161,-50.79C170.14,-52.09 179.39,-53.41 188.38,-54.68"/>
<polygon fill="midnightblue" stroke="midnightblue" points="187.99,-58.16 198.38,-56.1 188.97,-51.23 187.99,-58.16"/>
</g>
<!-- Node3 -->
<g id="node3" class="node">
<title>Node3</title>
<g id="a_node3"><a xlink:href="../../dd/d26/namespaceaopp__deconv__tool_1_1py__ssa.html#a7af2d22a80671103151158b1330f3d50" target="_top" xlink:title=" ">
<polygon fill="none" stroke="black" points="197,-0.5 197,-30.5 320,-30.5 320,-0.5 197,-0.5"/>
<text text-anchor="start" x="205" y="-18.5" font-family="Helvetica,sans-Serif" font-size="10.00">aopp_deconv_tool.py</text>
<text text-anchor="middle" x="258.5" y="-7.5" font-family="Helvetica,sans-Serif" font-size="10.00">_ssa.unvectorise_mat</text>
</a>
</g>
</g>
<!-- Node1&#45;&gt;Node3 -->
<g id="edge2" class="edge">
<title>Node1&#45;&gt;Node3</title>
<path fill="none" stroke="midnightblue" d="M161,-28.66C169.55,-27.49 178.21,-26.31 186.65,-25.16"/>
<polygon fill="midnightblue" stroke="midnightblue" points="187.37,-28.6 196.81,-23.78 186.43,-21.66 187.37,-28.6"/>
</g>
</g>
</svg>
