<?xml version="1.0" encoding="UTF-8" standalone="no"?>
<!DOCTYPE svg PUBLIC "-//W3C//DTD SVG 1.1//EN"
 "http://www.w3.org/Graphics/SVG/1.1/DTD/svg11.dtd">
<!-- Generated by graphviz version 2.43.0 (0)
 -->
<!-- Title: aopp_deconv_tool.py_ssa.SSA.plot_all Pages: 1 -->
<svg width="507pt" height="301pt"
 viewBox="0.00 0.00 507.00 300.50" xmlns="http://www.w3.org/2000/svg" xmlns:xlink="http://www.w3.org/1999/xlink">
<g id="graph0" class="graph" transform="scale(1 1) rotate(0) translate(4 296.5)">
<title>aopp_deconv_tool.py_ssa.SSA.plot_all</title>
<!-- Node1 -->
<g id="Node000001" class="node">
<title>Node1</title>
<g id="a_Node000001"><a xlink:title=" ">
<polygon fill="#999999" stroke="#666666" points="120,-172.5 0,-172.5 0,-142.5 120,-142.5 120,-172.5"/>
<text text-anchor="start" x="8" y="-160.5" font-family="Helvetica,sans-Serif" font-size="10.00">aopp_deconv_tool.py</text>
<text text-anchor="middle" x="60" y="-149.5" font-family="Helvetica,sans-Serif" font-size="10.00">_ssa.SSA.plot_all</text>
</a>
</g>
</g>
<!-- Node2 -->
<g id="Node000002" class="node">
<title>Node2</title>
<g id="a_Node000002"><a xlink:href="../../dc/dbb/classaopp__deconv__tool_1_1py__ssa_1_1SSA.html#a8b52b3a3094a98fb10d567788674050e" target="_top" xlink:title=" ">
<polygon fill="white" stroke="#666666" points="307.5,-292.5 156.5,-292.5 156.5,-262.5 307.5,-262.5 307.5,-292.5"/>
<text text-anchor="start" x="164.5" y="-280.5" font-family="Helvetica,sans-Serif" font-size="10.00">aopp_deconv_tool.py</text>
<text text-anchor="middle" x="232" y="-269.5" font-family="Helvetica,sans-Serif" font-size="10.00">_ssa.SSA.plot_eigenvectors</text>
</a>
</g>
</g>
<!-- Node1&#45;&gt;Node2 -->
<g id="edge1_Node000001_Node000002" class="edge">
<title>Node1&#45;&gt;Node2</title>
<g id="a_edge1_Node000001_Node000002"><a xlink:title=" ">
<path fill="none" stroke="#63b8ff" d="M72.17,-172.73C88.39,-193.79 120.42,-231.68 156,-253.5 158.65,-255.13 161.43,-256.65 164.28,-258.09"/>
<polygon fill="#63b8ff" stroke="#63b8ff" points="163.06,-261.38 173.61,-262.35 165.97,-255.01 163.06,-261.38"/>
</a>
</g>
</g>
<!-- Node3 -->
<g id="Node000003" class="node">
<title>Node3</title>
<g id="a_Node000003"><a xlink:href="../../dc/dbb/classaopp__deconv__tool_1_1py__ssa_1_1SSA.html#ae8e9a7f5b2348e659006feabb358a057" target="_top" xlink:title=" ">
<polygon fill="white" stroke="#666666" points="308,-244.5 156,-244.5 156,-214.5 308,-214.5 308,-244.5"/>
<text text-anchor="start" x="164" y="-232.5" font-family="Helvetica,sans-Serif" font-size="10.00">aopp_deconv_tool.py</text>
<text text-anchor="middle" x="232" y="-221.5" font-family="Helvetica,sans-Serif" font-size="10.00">_ssa.SSA.plot_factorvectors</text>
</a>
</g>
</g>
<!-- Node1&#45;&gt;Node3 -->
<g id="edge2_Node000001_Node000003" class="edge">
<title>Node1&#45;&gt;Node3</title>
<g id="a_edge2_Node000001_Node000003"><a xlink:title=" ">
<path fill="none" stroke="#63b8ff" d="M87.9,-172.53C106.64,-182.64 132.4,-195.83 156,-205.5 160.7,-207.43 165.62,-209.3 170.59,-211.09"/>
<polygon fill="#63b8ff" stroke="#63b8ff" points="169.58,-214.45 180.18,-214.44 171.89,-207.84 169.58,-214.45"/>
</a>
</g>
</g>
<!-- Node4 -->
<g id="Node000004" class="node">
<title>Node4</title>
<g id="a_Node000004"><a xlink:href="../../dc/dbb/classaopp__deconv__tool_1_1py__ssa_1_1SSA.html#a64409d45134018ab60813efb84503539" target="_top" xlink:title=" ">
<polygon fill="white" stroke="#666666" points="292,-196.5 172,-196.5 172,-166.5 292,-166.5 292,-196.5"/>
<text text-anchor="start" x="180" y="-184.5" font-family="Helvetica,sans-Serif" font-size="10.00">aopp_deconv_tool.py</text>
<text text-anchor="middle" x="232" y="-173.5" font-family="Helvetica,sans-Serif" font-size="10.00">_ssa.SSA.plot_ssa</text>
</a>
</g>
</g>
<!-- Node1&#45;&gt;Node4 -->
<g id="edge3_Node000001_Node000004" class="edge">
<title>Node1&#45;&gt;Node4</title>
<g id="a_edge3_Node000001_Node000004"><a xlink:title=" ">
<path fill="none" stroke="#63b8ff" d="M120.46,-165.89C133.73,-167.77 147.93,-169.77 161.57,-171.7"/>
<polygon fill="#63b8ff" stroke="#63b8ff" points="161.47,-175.22 171.86,-173.15 162.45,-168.29 161.47,-175.22"/>
</a>
</g>
</g>
<!-- Node7 -->
<g id="Node000007" class="node">
<title>Node7</title>
<g id="a_Node000007"><a xlink:href="../../dc/dbb/classaopp__deconv__tool_1_1py__ssa_1_1SSA.html#a2700d61a8bb9cd826135f87b5ee82805" target="_top" xlink:title=" ">
<polygon fill="white" stroke="#666666" points="292,-148.5 172,-148.5 172,-118.5 292,-118.5 292,-148.5"/>
<text text-anchor="start" x="180" y="-136.5" font-family="Helvetica,sans-Serif" font-size="10.00">aopp_deconv_tool.py</text>
<text text-anchor="middle" x="232" y="-125.5" font-family="Helvetica,sans-Serif" font-size="10.00">_ssa.SSA.plot_svd</text>
</a>
</g>
</g>
<!-- Node1&#45;&gt;Node7 -->
<g id="edge6_Node000001_Node000007" class="edge">
<title>Node1&#45;&gt;Node7</title>
<g id="a_edge6_Node000001_Node000007"><a xlink:title=" ">
<path fill="none" stroke="#63b8ff" d="M120.46,-149.11C133.73,-147.23 147.93,-145.23 161.57,-143.3"/>
<polygon fill="#63b8ff" stroke="#63b8ff" points="162.45,-146.71 171.86,-141.85 161.47,-139.78 162.45,-146.71"/>
</a>
</g>
</g>
<!-- Node8 -->
<g id="Node000008" class="node">
<title>Node8</title>
<g id="a_Node000008"><a xlink:href="../../dc/dbb/classaopp__deconv__tool_1_1py__ssa_1_1SSA.html#ae0753c33465f2f8fc8d107f48bc72a8a" target="_top" xlink:title=" ">
<polygon fill="white" stroke="#666666" points="299.5,-100 164.5,-100 164.5,-59 299.5,-59 299.5,-100"/>
<text text-anchor="start" x="172.5" y="-88" font-family="Helvetica,sans-Serif" font-size="10.00">aopp_deconv_tool.py</text>
<text text-anchor="start" x="172.5" y="-77" font-family="Helvetica,sans-Serif" font-size="10.00">_ssa.SSA.plot_trajectory</text>
<text text-anchor="middle" x="232" y="-66" font-family="Helvetica,sans-Serif" font-size="10.00">_decomp</text>
</a>
</g>
</g>
<!-- Node1&#45;&gt;Node8 -->
<g id="edge7_Node000001_Node000008" class="edge">
<title>Node1&#45;&gt;Node8</title>
<g id="a_edge7_Node000001_Node000008"><a xlink:title=" ">
<path fill="none" stroke="#63b8ff" d="M89.37,-142.35C108.09,-132.55 133.26,-119.77 156,-109.5 160.06,-107.66 164.28,-105.82 168.54,-104"/>
<polygon fill="#63b8ff" stroke="#63b8ff" points="170.03,-107.17 177.9,-100.07 167.32,-100.72 170.03,-107.17"/>
</a>
</g>
</g>
<!-- Node9 -->
<g id="Node000009" class="node">
<title>Node9</title>
<g id="a_Node000009"><a xlink:href="../../dc/dbb/classaopp__deconv__tool_1_1py__ssa_1_1SSA.html#afcc9d027fe393caff617573199186c7f" target="_top" xlink:title=" ">
<polygon fill="white" stroke="#666666" points="299.5,-41 164.5,-41 164.5,0 299.5,0 299.5,-41"/>
<text text-anchor="start" x="172.5" y="-29" font-family="Helvetica,sans-Serif" font-size="10.00">aopp_deconv_tool.py</text>
<text text-anchor="start" x="172.5" y="-18" font-family="Helvetica,sans-Serif" font-size="10.00">_ssa.SSA.plot_trajectory</text>
<text text-anchor="middle" x="232" y="-7" font-family="Helvetica,sans-Serif" font-size="10.00">_groups</text>
</a>
</g>
</g>
<!-- Node1&#45;&gt;Node9 -->
<g id="edge8_Node000001_Node000009" class="edge">
<title>Node1&#45;&gt;Node9</title>
<g id="a_edge8_Node000001_Node000009"><a xlink:title=" ">
<path fill="none" stroke="#63b8ff" d="M70.88,-142.16C86.44,-119.12 118.73,-75.5 156,-49.5 157.63,-48.36 159.31,-47.26 161.04,-46.2"/>
<polygon fill="#63b8ff" stroke="#63b8ff" points="162.95,-49.14 169.93,-41.17 159.5,-43.04 162.95,-49.14"/>
</a>
</g>
</g>
<!-- Node5 -->
<g id="Node000005" class="node">
<title>Node5</title>
<g id="a_Node000005"><a xlink:href="../../d4/d4e/classaopp__deconv__tool_1_1numpy__helper_1_1axes_1_1AxesOrdering.html#a2c9a54b6029b66d8210c9634c145c0ba" target="_top" xlink:title=" ">
<polygon fill="white" stroke="#666666" points="499,-220.5 344,-220.5 344,-190.5 499,-190.5 499,-220.5"/>
<text text-anchor="start" x="352" y="-208.5" font-family="Helvetica,sans-Serif" font-size="10.00">aopp_deconv_tool.numpy</text>
<text text-anchor="middle" x="421.5" y="-197.5" font-family="Helvetica,sans-Serif" font-size="10.00">_helper.axes.AxesOrdering.n</text>
</a>
</g>
</g>
<!-- Node4&#45;&gt;Node5 -->
<g id="edge4_Node000004_Node000005" class="edge">
<title>Node4&#45;&gt;Node5</title>
<g id="a_edge4_Node000004_Node000005"><a xlink:title=" ">
<path fill="none" stroke="#63b8ff" d="M292.07,-189.06C305.28,-190.75 319.57,-192.58 333.65,-194.38"/>
<polygon fill="#63b8ff" stroke="#63b8ff" points="333.48,-197.89 343.84,-195.69 334.37,-190.95 333.48,-197.89"/>
</a>
</g>
</g>
<!-- Node6 -->
<g id="Node000006" class="node">
<title>Node6</title>
<g id="a_Node000006"><a xlink:href="../../d4/d4e/classaopp__deconv__tool_1_1numpy__helper_1_1axes_1_1AxesOrdering.html#a39ab54eb13f6f13f73d6846a28964739" target="_top" xlink:title=" ">
<polygon fill="white" stroke="#666666" points="499,-172.5 344,-172.5 344,-142.5 499,-142.5 499,-172.5"/>
<text text-anchor="start" x="352" y="-160.5" font-family="Helvetica,sans-Serif" font-size="10.00">aopp_deconv_tool.numpy</text>
<text text-anchor="middle" x="421.5" y="-149.5" font-family="Helvetica,sans-Serif" font-size="10.00">_helper.axes.AxesOrdering.n</text>
</a>
</g>
</g>
<!-- Node4&#45;&gt;Node6 -->
<g id="edge5_Node000004_Node000006" class="edge">
<title>Node4&#45;&gt;Node6</title>
<g id="a_edge5_Node000004_Node000006"><a xlink:title=" ">
<path fill="none" stroke="#63b8ff" d="M292.07,-173.94C305.28,-172.25 319.57,-170.42 333.65,-168.62"/>
<polygon fill="#63b8ff" stroke="#63b8ff" points="334.37,-172.05 343.84,-167.31 333.48,-165.11 334.37,-172.05"/>
</a>
</g>
</g>
</g>
</svg>
