<?xml version="1.0" encoding="UTF-8" standalone="no"?>
<!DOCTYPE svg PUBLIC "-//W3C//DTD SVG 1.1//EN"
 "http://www.w3.org/Graphics/SVG/1.1/DTD/svg11.dtd">
<!-- Generated by graphviz version 2.43.0 (0)
 -->
<!-- Title: aopp_deconv_tool.py_ssa.SSA.quasi_hankelisation Pages: 1 -->
<svg width="360pt" height="182pt"
 viewBox="0.00 0.00 360.00 182.00" xmlns="http://www.w3.org/2000/svg" xmlns:xlink="http://www.w3.org/1999/xlink">
<g id="graph0" class="graph" transform="scale(1 1) rotate(0) translate(4 178)">
<title>aopp_deconv_tool.py_ssa.SSA.quasi_hankelisation</title>
<!-- Node1 -->
<g id="Node000001" class="node">
<title>Node1</title>
<g id="a_Node000001"><a xlink:title=" ">
<polygon fill="#999999" stroke="#666666" points="161,-102 0,-102 0,-72 161,-72 161,-102"/>
<text text-anchor="start" x="8" y="-90" font-family="Helvetica,sans-Serif" font-size="10.00">aopp_deconv_tool.py</text>
<text text-anchor="middle" x="80.5" y="-79" font-family="Helvetica,sans-Serif" font-size="10.00">_ssa.SSA.quasi_hankelisation</text>
</a>
</g>
</g>
<!-- Node2 -->
<g id="Node000002" class="node">
<title>Node2</title>
<g id="a_Node000002"><a xlink:href="../../dc/dbb/classaopp__deconv__tool_1_1py__ssa_1_1SSA.html#a2b5086ae5649dedc85df3459818d920b" target="_top" xlink:title=" ">
<polygon fill="white" stroke="#666666" points="334.5,-174 214.5,-174 214.5,-144 334.5,-144 334.5,-174"/>
<text text-anchor="start" x="222.5" y="-162" font-family="Helvetica,sans-Serif" font-size="10.00">aopp_deconv_tool.py</text>
<text text-anchor="middle" x="274.5" y="-151" font-family="Helvetica,sans-Serif" font-size="10.00">_ssa.SSA.diagsums</text>
</a>
</g>
</g>
<!-- Node1&#45;&gt;Node2 -->
<g id="edge1_Node000001_Node000002" class="edge">
<title>Node1&#45;&gt;Node2</title>
<g id="a_edge1_Node000001_Node000002"><a xlink:title=" ">
<path fill="none" stroke="#63b8ff" d="M115.55,-102.1C138.38,-111.99 169.25,-124.9 197,-135 202.23,-136.9 207.7,-138.8 213.19,-140.64"/>
<polygon fill="#63b8ff" stroke="#63b8ff" points="212.49,-144.09 223.08,-143.89 214.67,-137.44 212.49,-144.09"/>
</a>
</g>
</g>
<!-- Node3 -->
<g id="Node000003" class="node">
<title>Node3</title>
<g id="a_Node000003"><a xlink:href="../../d4/d4e/classaopp__deconv__tool_1_1numpy__helper_1_1axes_1_1AxesOrdering.html#a2c9a54b6029b66d8210c9634c145c0ba" target="_top" xlink:title=" ">
<polygon fill="white" stroke="#666666" points="352,-126 197,-126 197,-96 352,-96 352,-126"/>
<text text-anchor="start" x="205" y="-114" font-family="Helvetica,sans-Serif" font-size="10.00">aopp_deconv_tool.numpy</text>
<text text-anchor="middle" x="274.5" y="-103" font-family="Helvetica,sans-Serif" font-size="10.00">_helper.axes.AxesOrdering.n</text>
</a>
</g>
</g>
<!-- Node1&#45;&gt;Node3 -->
<g id="edge2_Node000001_Node000003" class="edge">
<title>Node1&#45;&gt;Node3</title>
<g id="a_edge2_Node000001_Node000003"><a xlink:title=" ">
<path fill="none" stroke="#63b8ff" d="M161.26,-96.97C169.7,-98.02 178.31,-99.1 186.83,-100.17"/>
<polygon fill="#63b8ff" stroke="#63b8ff" points="186.41,-103.64 196.77,-101.41 187.28,-96.69 186.41,-103.64"/>
</a>
</g>
</g>
<!-- Node4 -->
<g id="Node000004" class="node">
<title>Node4</title>
<g id="a_Node000004"><a xlink:href="../../d4/d4e/classaopp__deconv__tool_1_1numpy__helper_1_1axes_1_1AxesOrdering.html#a39ab54eb13f6f13f73d6846a28964739" target="_top" xlink:title=" ">
<polygon fill="white" stroke="#666666" points="352,-78 197,-78 197,-48 352,-48 352,-78"/>
<text text-anchor="start" x="205" y="-66" font-family="Helvetica,sans-Serif" font-size="10.00">aopp_deconv_tool.numpy</text>
<text text-anchor="middle" x="274.5" y="-55" font-family="Helvetica,sans-Serif" font-size="10.00">_helper.axes.AxesOrdering.n</text>
</a>
</g>
</g>
<!-- Node1&#45;&gt;Node4 -->
<g id="edge3_Node000001_Node000004" class="edge">
<title>Node1&#45;&gt;Node4</title>
<g id="a_edge3_Node000001_Node000004"><a xlink:title=" ">
<path fill="none" stroke="#63b8ff" d="M161.26,-77.03C169.7,-75.98 178.31,-74.9 186.83,-73.83"/>
<polygon fill="#63b8ff" stroke="#63b8ff" points="187.28,-77.31 196.77,-72.59 186.41,-70.36 187.28,-77.31"/>
</a>
</g>
</g>
<!-- Node5 -->
<g id="Node000005" class="node">
<title>Node5</title>
<g id="a_Node000005"><a xlink:href="../../dd/d26/namespaceaopp__deconv__tool_1_1py__ssa.html#a7af2d22a80671103151158b1330f3d50" target="_top" xlink:title=" ">
<polygon fill="white" stroke="#666666" points="336,-30 213,-30 213,0 336,0 336,-30"/>
<text text-anchor="start" x="221" y="-18" font-family="Helvetica,sans-Serif" font-size="10.00">aopp_deconv_tool.py</text>
<text text-anchor="middle" x="274.5" y="-7" font-family="Helvetica,sans-Serif" font-size="10.00">_ssa.unvectorise_mat</text>
</a>
</g>
</g>
<!-- Node1&#45;&gt;Node5 -->
<g id="edge4_Node000001_Node000005" class="edge">
<title>Node1&#45;&gt;Node5</title>
<g id="a_edge4_Node000001_Node000005"><a xlink:title=" ">
<path fill="none" stroke="#63b8ff" d="M115.55,-71.9C138.38,-62.01 169.25,-49.1 197,-39 202.23,-37.1 207.7,-35.2 213.19,-33.36"/>
<polygon fill="#63b8ff" stroke="#63b8ff" points="214.67,-36.56 223.08,-30.11 212.49,-29.91 214.67,-36.56"/>
</a>
</g>
</g>
</g>
</svg>
