<?xml version="1.0" encoding="UTF-8" standalone="no"?>
<!DOCTYPE svg PUBLIC "-//W3C//DTD SVG 1.1//EN"
 "http://www.w3.org/Graphics/SVG/1.1/DTD/svg11.dtd">
<!-- Generated by graphviz version 2.43.0 (0)
 -->
<!-- Title: aopp_deconv_tool.py_ssa.SSA.reverse_mapping Pages: 1 -->
<svg width="493pt" height="137pt"
 viewBox="0.00 0.00 493.00 137.00" xmlns="http://www.w3.org/2000/svg" xmlns:xlink="http://www.w3.org/1999/xlink">
<g id="graph0" class="graph" transform="scale(1 1) rotate(0) translate(4 133)">
<title>aopp_deconv_tool.py_ssa.SSA.reverse_mapping</title>
<!-- Node1 -->
<g id="node1" class="node">
<title>Node1</title>
<g id="a_node1"><a xlink:title=" ">
<polygon fill="#bfbfbf" stroke="black" points="0,-49.5 0,-79.5 149,-79.5 149,-49.5 0,-49.5"/>
<text text-anchor="start" x="8" y="-67.5" font-family="Helvetica,sans-Serif" font-size="10.00">aopp_deconv_tool.py</text>
<text text-anchor="middle" x="74.5" y="-56.5" font-family="Helvetica,sans-Serif" font-size="10.00">_ssa.SSA.reverse_mapping</text>
</a>
</g>
</g>
<!-- Node2 -->
<g id="node2" class="node">
<title>Node2</title>
<g id="a_node2"><a xlink:href="../../dc/dbb/classaopp__deconv__tool_1_1py__ssa_1_1SSA.html#a116709b20b95929c4c1c98027c3882f8" target="_top" xlink:title=" ">
<polygon fill="none" stroke="black" points="197,-98.5 197,-128.5 317,-128.5 317,-98.5 197,-98.5"/>
<text text-anchor="start" x="205" y="-116.5" font-family="Helvetica,sans-Serif" font-size="10.00">aopp_deconv_tool.py</text>
<text text-anchor="middle" x="257" y="-105.5" font-family="Helvetica,sans-Serif" font-size="10.00">_ssa.SSA.embed</text>
</a>
</g>
</g>
<!-- Node1&#45;&gt;Node2 -->
<g id="edge1" class="edge">
<title>Node1&#45;&gt;Node2</title>
<path fill="none" stroke="midnightblue" d="M131.13,-79.6C150,-84.73 171.26,-90.5 190.81,-95.8"/>
<polygon fill="midnightblue" stroke="midnightblue" points="189.99,-99.21 200.55,-98.45 191.82,-92.45 189.99,-99.21"/>
</g>
<!-- Node4 -->
<g id="node4" class="node">
<title>Node4</title>
<g id="a_node4"><a xlink:href="../../dd/d26/namespaceaopp__deconv__tool_1_1py__ssa.html#a989a76a014de9ff900fe3b559b64f70e" target="_top" xlink:title=" ">
<polygon fill="none" stroke="black" points="185,-49.5 185,-79.5 329,-79.5 329,-49.5 185,-49.5"/>
<text text-anchor="start" x="193" y="-67.5" font-family="Helvetica,sans-Serif" font-size="10.00">aopp_deconv_tool.py</text>
<text text-anchor="middle" x="257" y="-56.5" font-family="Helvetica,sans-Serif" font-size="10.00">_ssa.frobenius_inner_prod</text>
</a>
</g>
</g>
<!-- Node1&#45;&gt;Node4 -->
<g id="edge3" class="edge">
<title>Node1&#45;&gt;Node4</title>
<path fill="none" stroke="midnightblue" d="M149.18,-64.5C157.56,-64.5 166.15,-64.5 174.62,-64.5"/>
<polygon fill="midnightblue" stroke="midnightblue" points="174.89,-68 184.89,-64.5 174.89,-61 174.89,-68"/>
</g>
<!-- Node5 -->
<g id="node5" class="node">
<title>Node5</title>
<g id="a_node5"><a xlink:href="../../dd/d26/namespaceaopp__deconv__tool_1_1py__ssa.html#a8bd9aa3cd1f0fb908170f4c1257fdc1a" target="_top" xlink:title=" ">
<polygon fill="none" stroke="black" points="197,-0.5 197,-30.5 317,-30.5 317,-0.5 197,-0.5"/>
<text text-anchor="start" x="205" y="-18.5" font-family="Helvetica,sans-Serif" font-size="10.00">aopp_deconv_tool.py</text>
<text text-anchor="middle" x="257" y="-7.5" font-family="Helvetica,sans-Serif" font-size="10.00">_ssa.frobenius_norm</text>
</a>
</g>
</g>
<!-- Node1&#45;&gt;Node5 -->
<g id="edge4" class="edge">
<title>Node1&#45;&gt;Node5</title>
<path fill="none" stroke="midnightblue" d="M131.13,-49.4C150,-44.27 171.26,-38.5 190.81,-33.2"/>
<polygon fill="midnightblue" stroke="midnightblue" points="191.82,-36.55 200.55,-30.55 189.99,-29.79 191.82,-36.55"/>
</g>
<!-- Node3 -->
<g id="node3" class="node">
<title>Node3</title>
<g id="a_node3"><a xlink:href="../../dd/d26/namespaceaopp__deconv__tool_1_1py__ssa.html#a618e14a38875c0fde61dbac5637cde54" target="_top" xlink:title=" ">
<polygon fill="none" stroke="black" points="365,-98.5 365,-128.5 485,-128.5 485,-98.5 365,-98.5"/>
<text text-anchor="start" x="373" y="-116.5" font-family="Helvetica,sans-Serif" font-size="10.00">aopp_deconv_tool.py</text>
<text text-anchor="middle" x="425" y="-105.5" font-family="Helvetica,sans-Serif" font-size="10.00">_ssa.vectorise_mat</text>
</a>
</g>
</g>
<!-- Node2&#45;&gt;Node3 -->
<g id="edge2" class="edge">
<title>Node2&#45;&gt;Node3</title>
<path fill="none" stroke="midnightblue" d="M317.46,-113.5C329.53,-113.5 342.31,-113.5 354.69,-113.5"/>
<polygon fill="midnightblue" stroke="midnightblue" points="354.95,-117 364.95,-113.5 354.95,-110 354.95,-117"/>
</g>
</g>
</svg>
