<?xml version="1.0" encoding="UTF-8" standalone="no"?>
<!DOCTYPE svg PUBLIC "-//W3C//DTD SVG 1.1//EN"
 "http://www.w3.org/Graphics/SVG/1.1/DTD/svg11.dtd">
<!-- Generated by graphviz version 2.43.0 (0)
 -->
<!-- Title: aopp_deconv_tool.geometry.shape.CompoundShape Pages: 1 -->
<svg width="335pt" height="181pt"
 viewBox="0.00 0.00 334.50 181.00" xmlns="http://www.w3.org/2000/svg" xmlns:xlink="http://www.w3.org/1999/xlink">

<svg id="main" version="1.1" xmlns="http://www.w3.org/2000/svg" xmlns:xlink="http://www.w3.org/1999/xlink" xml:space="preserve" onload="init(evt)">
<style type="text/css"><![CDATA[
.node, .edge {opacity: 0.7;}
.node.selected, .edge.selected {opacity: 1;}
.edge:hover path { stroke: red; }
.edge:hover polygon { stroke: red; fill: red; }
]]></style>
<script type="application/ecmascript" xlink:href="../../svg.min.js"/>
<svg id="graph" class="graph">
<g id="graph0" class="graph" transform="scale(1 1) rotate(0) translate(4 177)">
<title>aopp_deconv_tool.geometry.shape.CompoundShape</title>
<!-- Node1 -->
<g id="Node000001" class="node">
<title>Node1</title>
<g id="a_Node000001"><a xlink:title=" ">
<polygon fill="#999999" stroke="#666666" points="318,-30 129,-30 129,0 318,0 318,-30"/>
<text text-anchor="start" x="137" y="-18" font-family="Helvetica,sans-Serif" font-size="10.00">aopp_deconv_tool.geometry.shape.</text>
<text text-anchor="middle" x="223.5" y="-7" font-family="Helvetica,sans-Serif" font-size="10.00">CompoundShape</text>
</a>
</g>
</g>
<!-- Node2 -->
<g id="Node000002" class="node">
<title>Node2</title>
<g id="a_Node000002"><a xlink:href="../../d2/dbe/classaopp__deconv__tool_1_1geometry_1_1shape_1_1GeoShape.html" target="_top" xlink:title=" ">
<polygon fill="white" stroke="#666666" points="189,-107 0,-107 0,-77 189,-77 189,-107"/>
<text text-anchor="start" x="8" y="-95" font-family="Helvetica,sans-Serif" font-size="10.00">aopp_deconv_tool.geometry.shape.</text>
<text text-anchor="middle" x="94.5" y="-84" font-family="Helvetica,sans-Serif" font-size="10.00">GeoShape</text>
</a>
</g>
</g>
<!-- Node2&#45;&gt;Node1 -->
<g id="edge1_Node000001_Node000002" class="edge">
<title>Node2&#45;&gt;Node1</title>
<g id="a_edge1_Node000001_Node000002"><a xlink:title=" ">
<path fill="none" stroke="#63b8ff" d="M127.6,-71.75C150.01,-58.73 179.11,-41.81 199.34,-30.04"/>
<polygon fill="#63b8ff" stroke="#63b8ff" points="125.65,-68.84 118.76,-76.89 129.17,-74.89 125.65,-68.84"/>
</a>
</g>
</g>
<!-- Node3 -->
<g id="Node000003" class="node">
<title>Node3</title>
<g id="a_Node000003"><a xlink:title=" ">
<polygon fill="white" stroke="#666666" points="122.5,-173 66.5,-173 66.5,-154 122.5,-154 122.5,-173"/>
<text text-anchor="middle" x="94.5" y="-161" font-family="Helvetica,sans-Serif" font-size="10.00">Callable</text>
</a>
</g>
</g>
<!-- Node3&#45;&gt;Node2 -->
<g id="edge2_Node000002_Node000003" class="edge">
<title>Node3&#45;&gt;Node2</title>
<g id="a_edge2_Node000002_Node000003"><a xlink:title=" ">
<path fill="none" stroke="#9a32cd" stroke-dasharray="5,2" d="M94.5,-143.71C94.5,-132.19 94.5,-117.68 94.5,-107.14"/>
<polygon fill="#9a32cd" stroke="#9a32cd" points="91,-143.98 94.5,-153.98 98,-143.98 91,-143.98"/>
</a>
</g>
<text text-anchor="middle" x="112" y="-128" font-family="Helvetica,sans-Serif" font-size="10.00" fill="grey"> metric</text>
</g>
<!-- Node4 -->
<g id="Node000004" class="node">
<title>Node4</title>
<g id="a_Node000004"><a xlink:title=" ">
<polygon fill="white" stroke="#666666" points="239.5,-101.5 207.5,-101.5 207.5,-82.5 239.5,-82.5 239.5,-101.5"/>
<text text-anchor="middle" x="223.5" y="-89.5" font-family="Helvetica,sans-Serif" font-size="10.00">list</text>
</a>
</g>
</g>
<!-- Node4&#45;&gt;Node1 -->
<g id="edge3_Node000001_Node000004" class="edge">
<title>Node4&#45;&gt;Node1</title>
<g id="a_edge3_Node000001_Node000004"><a xlink:title=" ">
<path fill="none" stroke="#9a32cd" stroke-dasharray="5,2" d="M223.5,-72.2C223.5,-59.14 223.5,-42.01 223.5,-30.11"/>
<polygon fill="#9a32cd" stroke="#9a32cd" points="220,-72.4 223.5,-82.4 227,-72.4 220,-72.4"/>
</a>
</g>
<text text-anchor="middle" x="251" y="-51" font-family="Helvetica,sans-Serif" font-size="10.00" fill="grey"> _members</text>
</g>
<!-- Node5 -->
<g id="Node000005" class="node">
<title>Node5</title>
<g id="a_Node000005"><a xlink:title=" ">
<polygon fill="white" stroke="#666666" points="316,-101.5 287,-101.5 287,-82.5 316,-82.5 316,-101.5"/>
<text text-anchor="middle" x="301.5" y="-89.5" font-family="Helvetica,sans-Serif" font-size="10.00">np</text>
</a>
</g>
</g>
<!-- Node5&#45;&gt;Node1 -->
<g id="edge4_Node000001_Node000005" class="edge">
<title>Node5&#45;&gt;Node1</title>
<g id="a_edge4_Node000001_Node000005"><a xlink:title=" ">
<path fill="none" stroke="#9a32cd" stroke-dasharray="5,2" d="M294.92,-72.65C291.3,-64.41 286.18,-54.99 279.5,-48 272.7,-40.87 263.95,-34.86 255.41,-30.05"/>
<polygon fill="#9a32cd" stroke="#9a32cd" points="291.76,-74.18 298.7,-82.18 298.27,-71.6 291.76,-74.18"/>
</a>
</g>
<text text-anchor="middle" x="306.5" y="-51" font-family="Helvetica,sans-Serif" font-size="10.00" fill="grey"> _centre</text>
</g>
</g>
</svg>
</svg>

<style type='text/css'>
<![CDATA[
[data-mouse-over-selected='false'] { opacity: 0.7; }
[data-mouse-over-selected='true']  { opacity: 1.0; }
]]>
</style>
<script type="application/ecmascript"><![CDATA[
document.addEventListener('DOMContentLoaded', (event) => {
  highlightEdges();
  highlightAdjacentNodes();
});
]]></script>
</svg>
