<?xml version="1.0" encoding="UTF-8" standalone="no"?>
<!DOCTYPE svg PUBLIC "-//W3C//DTD SVG 1.1//EN"
 "http://www.w3.org/Graphics/SVG/1.1/DTD/svg11.dtd">
<!-- Generated by graphviz version 2.43.0 (0)
 -->
<!-- Title: aopp_deconv_tool.plot_helper.plotters.HorizontalLine Pages: 1 -->
<!--zoomable 192 -->

<svg id="main" version="1.1" xmlns="http://www.w3.org/2000/svg" xmlns:xlink="http://www.w3.org/1999/xlink" xml:space="preserve" onload="init(evt)">
<style type="text/css"><![CDATA[
.node, .edge {opacity: 0.7;}
.node.selected, .edge.selected {opacity: 1;}
.edge:hover path { stroke: red; }
.edge:hover polygon { stroke: red; fill: red; }
]]></style>

<defs>
  <circle id="rim" cx="0" cy="0" r="7"/>
  <circle id="rim2" cx="0" cy="0" r="3.5"/>
  <g id="zoomPlus">
    <use xlink:href="#rim" fill="#404040"><set attributeName="fill" to="#808080" begin="zoomplus.mouseover" end="zoomplus.mouseout"/></use>
    <path d="M-4,0h8M0,-4v8" fill="none" stroke="white" stroke-width="1.5" pointer-events="none"/>
  </g>
  <g id="zoomMin">
    <use xlink:href="#rim" fill="#404040"><set attributeName="fill" to="#808080" begin="zoomminus.mouseover" end="zoomminus.mouseout"/></use>
    <path d="M-4,0h8" fill="none" stroke="white" stroke-width="1.5" pointer-events="none"/>
  </g>
  <g id="arrowUp" transform="translate(30 24)">
    <use xlink:href="#rim"/>
    <path pointer-events="none" fill="none" stroke="white" stroke-width="1.5" d="M0,-3.0v7 M-2.5,-0.5L0,-3.0L2.5,-0.5"/>
  </g>
  <g id="arrowRight" transform="rotate(90) translate(36 -43)">
    <use xlink:href="#rim"/>
    <path pointer-events="none" fill="none" stroke="white" stroke-width="1.5" d="M0,-3.0v7 M-2.5,-0.5L0,-3.0L2.5,-0.5"/>
  </g>
  <g id="arrowDown" transform="rotate(180) translate(-30 -48)">
    <use xlink:href="#rim"/>
    <path pointer-events="none" fill="none" stroke="white" stroke-width="1.5" d="M0,-3.0v7 M-2.5,-0.5L0,-3.0L2.5,-0.5"/>
  </g>
  <g id="arrowLeft" transform="rotate(270) translate(-36 17)">
    <use xlink:href="#rim"/>
    <path pointer-events="none" fill="none" stroke="white" stroke-width="1.5" d="M0,-3.0v7 M-2.5,-0.5L0,-3.0L2.5,-0.5"/>
  </g>
  <g id="resetDef">
    <use xlink:href="#rim2" fill="#404040"><set attributeName="fill" to="#808080" begin="reset.mouseover" end="reset.mouseout"/></use>
  </g>
</defs>
<script type="application/ecmascript">
var viewWidth = 1050;
var viewHeight = 192;
var sectionId = 'dynsection-1';
</script>
<script type="application/ecmascript" xlink:href="../../svg.min.js"/>
<svg id="graph" class="graph">
<g id="viewport">
<title>aopp_deconv_tool.plot_helper.plotters.HorizontalLine</title>
<!-- Node1 -->
<g id="Node000001" class="node">
<title>Node1</title>
<g id="a_Node000001"><a xlink:title=" ">
<polygon fill="#999999" stroke="#666666" points="868.5,-30 702.5,-30 702.5,0 868.5,0 868.5,-30"/>
<text text-anchor="start" x="710.5" y="-18" font-family="Helvetica,sans-Serif" font-size="10.00">aopp_deconv_tool.plot</text>
<text text-anchor="middle" x="785.5" y="-7" font-family="Helvetica,sans-Serif" font-size="10.00">_helper.plotters.HorizontalLine</text>
</a>
</g>
</g>
<!-- Node2 -->
<g id="Node000002" class="node">
<title>Node2</title>
<g id="a_Node000002"><a xlink:href="../../d4/d84/classaopp__deconv__tool_1_1plot__helper_1_1base_1_1Base.html" target="_top" xlink:title=" ">
<polygon fill="white" stroke="#666666" points="506,-107 379,-107 379,-77 506,-77 506,-107"/>
<text text-anchor="start" x="387" y="-95" font-family="Helvetica,sans-Serif" font-size="10.00">aopp_deconv_tool.plot</text>
<text text-anchor="middle" x="442.5" y="-84" font-family="Helvetica,sans-Serif" font-size="10.00">_helper.base.Base</text>
</a>
</g>
</g>
<!-- Node2&#45;&gt;Node1 -->
<g id="edge1_Node000001_Node000002" class="edge">
<title>Node2&#45;&gt;Node1</title>
<g id="a_edge1_Node000001_Node000002"><a xlink:title=" ">
<path fill="none" stroke="#63b8ff" d="M516.16,-74.89C577.17,-61.55 663,-42.78 721.26,-30.05"/>
<polygon fill="#63b8ff" stroke="#63b8ff" points="515.23,-71.51 506.21,-77.07 516.73,-78.35 515.23,-71.51"/>
</a>
</g>
</g>
<!-- Node3 -->
<g id="Node000003" class="node">
<title>Node3</title>
<g id="a_Node000003"><a xlink:title=" ">
<polygon fill="white" stroke="#666666" points="29,-184 0,-184 0,-165 29,-165 29,-184"/>
<text text-anchor="middle" x="14.5" y="-172" font-family="Helvetica,sans-Serif" font-size="10.00">str</text>
</a>
</g>
</g>
<!-- Node3&#45;&gt;Node1 -->
<g id="edge11_Node000001_Node000003" class="edge">
<title>Node3&#45;&gt;Node1</title>
<g id="a_edge11_Node000001_Node000003"><a xlink:title=" ">
<path fill="none" stroke="#9a32cd" stroke-dasharray="5,2" d="M15.71,-154.84C17.36,-144.61 21.11,-132.52 29.5,-125 113.44,-49.79 167.15,-94.41 278.5,-77 427.19,-53.75 601.61,-34.52 702.26,-24.19"/>
<polygon fill="#9a32cd" stroke="#9a32cd" points="12.21,-154.59 14.62,-164.91 19.17,-155.35 12.21,-154.59"/>
</a>
</g>
<text text-anchor="middle" x="324" y="-95" font-family="Helvetica,sans-Serif" font-size="10.00" fill="grey"> datasource_name</text>
<text text-anchor="middle" x="324" y="-84" font-family="Helvetica,sans-Serif" font-size="10.00" fill="grey">title</text>
</g>
<!-- Node3&#45;&gt;Node2 -->
<g id="edge2_Node000002_Node000003" class="edge">
<title>Node3&#45;&gt;Node2</title>
<g id="a_edge2_Node000002_Node000003"><a xlink:title=" ">
<path fill="none" stroke="#9a32cd" stroke-dasharray="5,2" d="M25.37,-156.39C33.37,-145.39 45.3,-131.91 59.5,-125 114.09,-98.42 284.64,-93.46 378.68,-92.81"/>
<polygon fill="#9a32cd" stroke="#9a32cd" points="22.35,-154.61 19.61,-164.84 28.13,-158.55 22.35,-154.61"/>
</a>
</g>
<text text-anchor="middle" x="105" y="-139" font-family="Helvetica,sans-Serif" font-size="10.00" fill="grey"> datasource_name</text>
<text text-anchor="middle" x="105" y="-128" font-family="Helvetica,sans-Serif" font-size="10.00" fill="grey">title</text>
</g>
<!-- Node4 -->
<g id="Node000004" class="node">
<title>Node4</title>
<g id="a_Node000004"><a xlink:title=" ">
<polygon fill="white" stroke="#666666" points="842,-184 801,-184 801,-165 842,-165 842,-184"/>
<text text-anchor="middle" x="821.5" y="-172" font-family="Helvetica,sans-Serif" font-size="10.00">tuple</text>
</a>
</g>
</g>
<!-- Node4&#45;&gt;Node1 -->
<g id="edge12_Node000001_Node000004" class="edge">
<title>Node4&#45;&gt;Node1</title>
<g id="a_edge12_Node000001_Node000004"><a xlink:title=" ">
<path fill="none" stroke="#9a32cd" stroke-dasharray="5,2" d="M851.77,-162.09C858.04,-158.28 863.84,-153.33 867.5,-147 872.39,-138.53 870.6,-134.27 867.5,-125 854.37,-85.7 820.87,-49.19 800.99,-30.03"/>
<polygon fill="#9a32cd" stroke="#9a32cd" points="849.73,-159.21 842.45,-166.91 852.94,-165.43 849.73,-159.21"/>
</a>
</g>
<text text-anchor="middle" x="912.5" y="-89.5" font-family="Helvetica,sans-Serif" font-size="10.00" fill="grey"> axis_data_mappings</text>
</g>
<!-- Node4&#45;&gt;Node2 -->
<g id="edge3_Node000002_Node000004" class="edge">
<title>Node4&#45;&gt;Node2</title>
<g id="a_edge3_Node000002_Node000004"><a xlink:title=" ">
<path fill="none" stroke="#9a32cd" stroke-dasharray="5,2" d="M791.53,-161.44C782.3,-157.3 772.27,-152.34 763.5,-147 749.99,-138.76 750.15,-130.98 735.5,-125 695.29,-108.59 579.58,-99.87 506.17,-95.86"/>
<polygon fill="#9a32cd" stroke="#9a32cd" points="790.2,-164.67 800.76,-165.44 792.98,-158.25 790.2,-164.67"/>
</a>
</g>
<text text-anchor="middle" x="815.5" y="-139" font-family="Helvetica,sans-Serif" font-size="10.00" fill="grey"> axis_data_mappings</text>
<text text-anchor="middle" x="815.5" y="-128" font-family="Helvetica,sans-Serif" font-size="10.00" fill="grey">axis_labels</text>
</g>
<!-- Node5 -->
<g id="Node000005" class="node">
<title>Node5</title>
<g id="a_Node000005"><a xlink:title=" ">
<polygon fill="white" stroke="#666666" points="163.5,-184 125.5,-184 125.5,-165 163.5,-165 163.5,-184"/>
<text text-anchor="middle" x="144.5" y="-172" font-family="Helvetica,sans-Serif" font-size="10.00">bool</text>
</a>
</g>
</g>
<!-- Node5&#45;&gt;Node2 -->
<g id="edge4_Node000002_Node000005" class="edge">
<title>Node5&#45;&gt;Node2</title>
<g id="a_edge4_Node000002_Node000005"><a xlink:title=" ">
<path fill="none" stroke="#9a32cd" stroke-dasharray="5,2" d="M150.07,-155.01C154.24,-144.47 161.05,-132 171.5,-125 204.37,-102.99 309.68,-96.08 378.93,-93.93"/>
<polygon fill="#9a32cd" stroke="#9a32cd" points="146.7,-154.04 146.75,-164.63 153.32,-156.32 146.7,-154.04"/>
</a>
</g>
<text text-anchor="middle" x="204" y="-133.5" font-family="Helvetica,sans-Serif" font-size="10.00" fill="grey"> static_frame</text>
</g>
<!-- Node6 -->
<g id="Node000006" class="node">
<title>Node6</title>
<g id="a_Node000006"><a xlink:title=" ">
<polygon fill="white" stroke="#666666" points="250,-184 215,-184 215,-165 250,-165 250,-184"/>
<text text-anchor="middle" x="232.5" y="-172" font-family="Helvetica,sans-Serif" font-size="10.00">dict</text>
</a>
</g>
</g>
<!-- Node6&#45;&gt;Node2 -->
<g id="edge5_Node000002_Node000006" class="edge">
<title>Node6&#45;&gt;Node2</title>
<g id="a_edge5_Node000002_Node000006"><a xlink:title=" ">
<path fill="none" stroke="#9a32cd" stroke-dasharray="5,2" d="M236.78,-154.93C240.14,-144.55 245.91,-132.27 255.5,-125 274.59,-110.52 332.39,-102.17 378.73,-97.65"/>
<polygon fill="#9a32cd" stroke="#9a32cd" points="233.35,-154.21 234.09,-164.77 240.1,-156.05 233.35,-154.21"/>
</a>
</g>
<text text-anchor="middle" x="304.5" y="-139" font-family="Helvetica,sans-Serif" font-size="10.00" fill="grey"> plt_kwargs</text>
<text text-anchor="middle" x="304.5" y="-128" font-family="Helvetica,sans-Serif" font-size="10.00" fill="grey">show_limits_in_title</text>
</g>
<!-- Node7 -->
<g id="Node000007" class="node">
<title>Node7</title>
<g id="a_Node000007"><a xlink:title=" ">
<polygon fill="white" stroke="#666666" points="369.5,-184 337.5,-184 337.5,-165 369.5,-165 369.5,-184"/>
<text text-anchor="middle" x="353.5" y="-172" font-family="Helvetica,sans-Serif" font-size="10.00">list</text>
</a>
</g>
</g>
<!-- Node7&#45;&gt;Node2 -->
<g id="edge6_Node000002_Node000007" class="edge">
<title>Node7&#45;&gt;Node2</title>
<g id="a_edge6_Node000002_Node000007"><a xlink:title=" ">
<path fill="none" stroke="#9a32cd" stroke-dasharray="5,2" d="M355.49,-154.83C357.4,-144.95 361.14,-133.2 368.5,-125 375.32,-117.39 384.27,-111.52 393.58,-107.02"/>
<polygon fill="#9a32cd" stroke="#9a32cd" points="352,-154.51 354.02,-164.91 358.92,-155.52 352,-154.51"/>
</a>
</g>
<text text-anchor="middle" x="392" y="-133.5" font-family="Helvetica,sans-Serif" font-size="10.00" fill="grey"> ax_funcs</text>
</g>
<!-- Node8 -->
<g id="Node000008" class="node">
<title>Node8</title>
<g id="a_Node000008"><a xlink:title=" ">
<polygon fill="white" stroke="#666666" points="434,-184 399,-184 399,-165 434,-165 434,-184"/>
<text text-anchor="middle" x="416.5" y="-172" font-family="Helvetica,sans-Serif" font-size="10.00">mpl</text>
</a>
</g>
</g>
<!-- Node8&#45;&gt;Node2 -->
<g id="edge7_Node000002_Node000008" class="edge">
<title>Node8&#45;&gt;Node2</title>
<g id="a_edge7_Node000002_Node000008"><a xlink:title=" ">
<path fill="none" stroke="#9a32cd" stroke-dasharray="5,2" d="M418.06,-154.7C419.2,-145.55 421.16,-134.5 424.5,-125 426.66,-118.87 429.95,-112.54 433.14,-107.15"/>
<polygon fill="#9a32cd" stroke="#9a32cd" points="414.57,-154.38 417.03,-164.69 421.53,-155.1 414.57,-154.38"/>
</a>
</g>
<text text-anchor="middle" x="432.5" y="-133.5" font-family="Helvetica,sans-Serif" font-size="10.00" fill="grey"> ax</text>
</g>
<!-- Node9 -->
<g id="Node000009" class="node">
<title>Node9</title>
<g id="a_Node000009"><a xlink:title=" ">
<polygon fill="white" stroke="#666666" points="487,-184 452,-184 452,-165 487,-165 487,-184"/>
<text text-anchor="middle" x="469.5" y="-172" font-family="Helvetica,sans-Serif" font-size="10.00">Any</text>
</a>
</g>
</g>
<!-- Node9&#45;&gt;Node2 -->
<g id="edge8_Node000002_Node000009" class="edge">
<title>Node9&#45;&gt;Node2</title>
<g id="a_edge8_Node000002_Node000009"><a xlink:title=" ">
<path fill="none" stroke="#9a32cd" stroke-dasharray="5,2" d="M463.3,-155.02C458.43,-140.49 451.73,-120.53 447.27,-107.22"/>
<polygon fill="#9a32cd" stroke="#9a32cd" points="460.11,-156.52 466.61,-164.89 466.75,-154.29 460.11,-156.52"/>
</a>
</g>
<text text-anchor="middle" x="489.5" y="-139" font-family="Helvetica,sans-Serif" font-size="10.00" fill="grey"> datasource</text>
<text text-anchor="middle" x="489.5" y="-128" font-family="Helvetica,sans-Serif" font-size="10.00" fill="grey">hdl</text>
</g>
<!-- Node10 -->
<g id="Node000010" class="node">
<title>Node10</title>
<g id="a_Node000010"><a xlink:title=" ">
<polygon fill="white" stroke="#666666" points="571.5,-184 515.5,-184 515.5,-165 571.5,-165 571.5,-184"/>
<text text-anchor="middle" x="543.5" y="-172" font-family="Helvetica,sans-Serif" font-size="10.00">Callable</text>
</a>
</g>
</g>
<!-- Node10&#45;&gt;Node2 -->
<g id="edge9_Node000002_Node000010" class="edge">
<title>Node10&#45;&gt;Node2</title>
<g id="a_edge9_Node000002_Node000010"><a xlink:title=" ">
<path fill="none" stroke="#9a32cd" stroke-dasharray="5,2" d="M538.77,-155C535.39,-145 529.93,-133.09 521.5,-125 513.6,-117.42 503.67,-111.54 493.53,-107.03"/>
<polygon fill="#9a32cd" stroke="#9a32cd" points="535.48,-156.21 541.65,-164.82 542.19,-154.24 535.48,-156.21"/>
</a>
</g>
<text text-anchor="middle" x="596" y="-133.5" font-family="Helvetica,sans-Serif" font-size="10.00" fill="grey"> datasource_data_getter</text>
</g>
<!-- Node11 -->
<g id="Node000011" class="node">
<title>Node11</title>
<g id="a_Node000011"><a xlink:title=" ">
<polygon fill="white" stroke="#666666" points="700,-184 671,-184 671,-165 700,-165 700,-184"/>
<text text-anchor="middle" x="685.5" y="-172" font-family="Helvetica,sans-Serif" font-size="10.00">int</text>
</a>
</g>
</g>
<!-- Node11&#45;&gt;Node2 -->
<g id="edge10_Node000002_Node000011" class="edge">
<title>Node11&#45;&gt;Node2</title>
<g id="a_edge10_Node000002_Node000011"><a xlink:title=" ">
<path fill="none" stroke="#9a32cd" stroke-dasharray="5,2" d="M680.24,-155.13C676.26,-144.63 669.7,-132.17 659.5,-125 635.39,-108.06 561.14,-99.91 506.17,-96.11"/>
<polygon fill="#9a32cd" stroke="#9a32cd" points="676.94,-156.3 683.39,-164.7 683.58,-154.11 676.94,-156.3"/>
</a>
</g>
<text text-anchor="middle" x="704.5" y="-133.5" font-family="Helvetica,sans-Serif" font-size="10.00" fill="grey"> n_updates</text>
</g>
<!-- Node12 -->
<g id="Node000012" class="node">
<title>Node12</title>
<g id="a_Node000012"><a xlink:title=" ">
<polygon fill="white" stroke="#666666" points="1041.5,-101.5 1003.5,-101.5 1003.5,-82.5 1041.5,-82.5 1041.5,-101.5"/>
<text text-anchor="middle" x="1022.5" y="-89.5" font-family="Helvetica,sans-Serif" font-size="10.00">float</text>
</a>
</g>
</g>
<!-- Node12&#45;&gt;Node1 -->
<g id="edge13_Node000001_Node000012" class="edge">
<title>Node12&#45;&gt;Node1</title>
<g id="a_edge13_Node000001_Node000012"><a xlink:title=" ">
<path fill="none" stroke="#9a32cd" stroke-dasharray="5,2" d="M993.84,-78.63C992.38,-78.07 990.92,-77.52 989.5,-77 939.15,-58.61 880.39,-41.48 838.9,-30.09"/>
<polygon fill="#9a32cd" stroke="#9a32cd" points="992.85,-82.01 1003.44,-82.52 995.48,-75.52 992.85,-82.01"/>
</a>
</g>
<text text-anchor="middle" x="953" y="-51" font-family="Helvetica,sans-Serif" font-size="10.00" fill="grey"> _y_pos</text>
</g>
</g>
</svg>

<g id="navigator" transform="translate(0 0)" fill="#404254">
  <rect fill="#f2f5e9" fill-opacity="0.5" stroke="#606060" stroke-width=".5" x="0" y="0" width="60" height="60"/>
  <use id="zoomplus" xlink:href="#zoomPlus" x="17" y="9" onmousedown="handleZoom(evt,'in')"/>
  <use id="zoomminus" xlink:href="#zoomMin" x="42" y="9" onmousedown="handleZoom(evt,'out')"/>
  <use id="reset" xlink:href="#resetDef" x="30" y="36" onmousedown="handleReset()"/>
   <use id="arrowup" xlink:href="#arrowUp" x="0" y="0" onmousedown="handlePan(0,-1)"/>
  <use id="arrowright" xlink:href="#arrowRight" x="0" y="0" onmousedown="handlePan(1,0)"/>
  <use id="arrowdown" xlink:href="#arrowDown" x="0" y="0" onmousedown="handlePan(0,1)"/>
  <use id="arrowleft" xlink:href="#arrowLeft" x="0" y="0" onmousedown="handlePan(-1,0)"/>
</g>
<svg viewBox="0 0 15 15" width="100%" height="30px" preserveAspectRatio="xMaxYMin meet">
 <g id="arrow_out" transform="scale(0.3 0.3)">
  <a xlink:href="classaopp__deconv__tool_1_1plot__helper_1_1plotters_1_1HorizontalLine__coll__graph_org.svg" target="_base">
   <rect id="button" ry="5" rx="5" y="6" x="6" height="38" width="38"
        fill="#f2f5e9" fill-opacity="0.5" stroke="#606060" stroke-width="1.0"/>
   <path id="arrow"
     d="M 11.500037,31.436501 C 11.940474,20.09759 22.043105,11.32322 32.158766,21.979434 L 37.068811,17.246167 C 37.068811,17.246167 37.088388,32 37.088388,32 L 22.160133,31.978069 C 22.160133,31.978069 26.997745,27.140456 26.997745,27.140456 C 18.528582,18.264221 13.291696,25.230495 11.500037,31.436501 z"
     style="fill:#404040;"/>
  </a>
 </g>
</svg>

<style type='text/css'>
<![CDATA[
[data-mouse-over-selected='false'] { opacity: 0.7; }
[data-mouse-over-selected='true']  { opacity: 1.0; }
]]>
</style>
<script type="application/ecmascript"><![CDATA[
document.addEventListener('DOMContentLoaded', (event) => {
  highlightEdges();
  highlightAdjacentNodes();
});
]]></script>
</svg>
