<?xml version="1.0" encoding="UTF-8" standalone="no"?>
<!DOCTYPE svg PUBLIC "-//W3C//DTD SVG 1.1//EN"
 "http://www.w3.org/Graphics/SVG/1.1/DTD/svg11.dtd">
<!-- Generated by graphviz version 2.43.0 (0)
 -->
<!-- Title: aopp_deconv_tool.psf_model.turbulence_psf_model.S1 Pages: 1 -->
<svg width="136pt" height="104pt"
 viewBox="0.00 0.00 136.00 104.00" xmlns="http://www.w3.org/2000/svg" xmlns:xlink="http://www.w3.org/1999/xlink">
<g id="graph0" class="graph" transform="scale(1 1) rotate(0) translate(4 100)">
<title>aopp_deconv_tool.psf_model.turbulence_psf_model.S1</title>
<!-- Node1 -->
<g id="Node000001" class="node">
<title>Node1</title>
<g id="a_Node000001"><a xlink:title=" ">
<polygon fill="#999999" stroke="#666666" points="128,-41 0,-41 0,0 128,0 128,-41"/>
<text text-anchor="start" x="8" y="-29" font-family="Helvetica,sans-Serif" font-size="10.00">aopp_deconv_tool.psf</text>
<text text-anchor="start" x="8" y="-18" font-family="Helvetica,sans-Serif" font-size="10.00">_model.turbulence_psf</text>
<text text-anchor="middle" x="64" y="-7" font-family="Helvetica,sans-Serif" font-size="10.00">_model.S1</text>
</a>
</g>
</g>
<!-- Node2 -->
<g id="Node000002" class="node">
<title>Node2</title>
<g id="a_Node000002"><a xlink:title=" ">
<polygon fill="white" stroke="#666666" points="57,-96 3,-96 3,-77 57,-77 57,-96"/>
<text text-anchor="middle" x="30" y="-84" font-family="Helvetica,sans-Serif" font-size="10.00">Generic</text>
</a>
</g>
</g>
<!-- Node2&#45;&gt;Node1 -->
<g id="edge1_Node000001_Node000002" class="edge">
<title>Node2&#45;&gt;Node1</title>
<g id="a_edge1_Node000001_Node000002"><a xlink:title=" ">
<path fill="none" stroke="#63b8ff" d="M39.29,-68.01C43.73,-59.65 49.06,-49.62 53.64,-41.01"/>
<polygon fill="#63b8ff" stroke="#63b8ff" points="36.19,-66.4 34.59,-76.87 42.37,-69.68 36.19,-66.4"/>
</a>
</g>
</g>
<!-- Node3 -->
<g id="Node000003" class="node">
<title>Node3</title>
<g id="a_Node000003"><a xlink:href="../../dd/d52/classIntVar.html" target="_top" xlink:title=" ">
<polygon fill="white" stroke="#666666" points="120.5,-96 75.5,-96 75.5,-77 120.5,-77 120.5,-96"/>
<text text-anchor="middle" x="98" y="-84" font-family="Helvetica,sans-Serif" font-size="10.00">IntVar</text>
</a>
</g>
</g>
<!-- Node3&#45;&gt;Node1 -->
<g id="edge2_Node000001_Node000003" class="edge">
<title>Node3&#45;&gt;Node1</title>
<g id="a_edge2_Node000001_Node000003"><a xlink:title=" ">
<path fill="none" stroke="#63b8ff" d="M88.71,-68.01C84.27,-59.65 78.94,-49.62 74.36,-41.01"/>
<polygon fill="#63b8ff" stroke="#63b8ff" points="85.63,-69.68 93.41,-76.87 91.81,-66.4 85.63,-69.68"/>
</a>
</g>
</g>
</g>
</svg>
