<?xml version="1.0" encoding="UTF-8" standalone="no"?>
<!DOCTYPE svg PUBLIC "-//W3C//DTD SVG 1.1//EN"
 "http://www.w3.org/Graphics/SVG/1.1/DTD/svg11.dtd">
<!-- Generated by graphviz version 2.43.0 (0)
 -->
<!-- Title: aopp_deconv_tool.graphical_frontends.ssa_filtering.CheckButtons.on_clicked Pages: 1 -->
<svg width="512pt" height="194pt"
 viewBox="0.00 0.00 512.00 193.50" xmlns="http://www.w3.org/2000/svg" xmlns:xlink="http://www.w3.org/1999/xlink">
<g id="graph0" class="graph" transform="scale(1 1) rotate(0) translate(4 189.5)">
<title>aopp_deconv_tool.graphical_frontends.ssa_filtering.CheckButtons.on_clicked</title>
<!-- Node1 -->
<g id="Node000001" class="node">
<title>Node1</title>
<g id="a_Node000001"><a xlink:title=" ">
<polygon fill="#999999" stroke="#666666" points="216,-107.5 0,-107.5 0,-66.5 216,-66.5 216,-107.5"/>
<text text-anchor="start" x="8" y="-95.5" font-family="Helvetica,sans-Serif" font-size="10.00">aopp_deconv_tool.graphical</text>
<text text-anchor="start" x="8" y="-84.5" font-family="Helvetica,sans-Serif" font-size="10.00">_frontends.ssa_filtering.CheckButtons.on</text>
<text text-anchor="middle" x="108" y="-73.5" font-family="Helvetica,sans-Serif" font-size="10.00">_clicked</text>
</a>
</g>
</g>
<!-- Node1&#45;&gt;Node1 -->
<g id="edge5_Node000001_Node000001" class="edge">
<title>Node1&#45;&gt;Node1</title>
<g id="a_edge5_Node000001_Node000001"><a xlink:title=" ">
<path fill="none" stroke="#63b8ff" d="M58.38,-107.6C52.96,-117.15 69.5,-125.5 108,-125.5 132.06,-125.5 147.54,-122.24 154.45,-117.46"/>
<polygon fill="#63b8ff" stroke="#63b8ff" points="157.89,-118.19 157.62,-107.6 151.23,-116.05 157.89,-118.19"/>
</a>
</g>
</g>
<!-- Node2 -->
<g id="Node000002" class="node">
<title>Node2</title>
<g id="a_Node000002"><a xlink:href="../../da/d39/classaopp__deconv__tool_1_1graphical__frontends_1_1ssa__filtering_1_1WidgetBase.html#a50e64e1fc378bfc45bb50f9eb6a961fb" target="_top" xlink:title=" ">
<polygon fill="white" stroke="#666666" points="462,-185.5 294,-185.5 294,-144.5 462,-144.5 462,-185.5"/>
<text text-anchor="start" x="302" y="-173.5" font-family="Helvetica,sans-Serif" font-size="10.00">aopp_deconv_tool.graphical</text>
<text text-anchor="start" x="302" y="-162.5" font-family="Helvetica,sans-Serif" font-size="10.00">_frontends.ssa_filtering.Widget</text>
<text text-anchor="middle" x="378" y="-151.5" font-family="Helvetica,sans-Serif" font-size="10.00">Base.get_value</text>
</a>
</g>
</g>
<!-- Node1&#45;&gt;Node2 -->
<g id="edge1_Node000001_Node000002" class="edge">
<title>Node1&#45;&gt;Node2</title>
<g id="a_edge1_Node000001_Node000002"><a xlink:title=" ">
<path fill="none" stroke="#63b8ff" d="M166.39,-107.55C192.36,-116.52 223.56,-126.83 252,-135 262.26,-137.95 273.06,-140.84 283.83,-143.6"/>
<polygon fill="#63b8ff" stroke="#63b8ff" points="283.14,-147.04 293.69,-146.09 284.85,-140.25 283.14,-147.04"/>
</a>
</g>
</g>
<!-- Node3 -->
<g id="Node000003" class="node">
<title>Node3</title>
<g id="a_Node000003"><a xlink:href="../../d2/d2f/classaopp__deconv__tool_1_1graphical__frontends_1_1ssa__filtering_1_1CheckButtons.html#af410b1ad557888c7ef236bab981f1efe" target="_top" xlink:title=" ">
<polygon fill="white" stroke="#666666" points="504,-126 252,-126 252,-96 504,-96 504,-126"/>
<text text-anchor="start" x="260" y="-114" font-family="Helvetica,sans-Serif" font-size="10.00">aopp_deconv_tool.graphical</text>
<text text-anchor="middle" x="378" y="-103" font-family="Helvetica,sans-Serif" font-size="10.00">_frontends.ssa_filtering.CheckButtons.get_value</text>
</a>
</g>
</g>
<!-- Node1&#45;&gt;Node3 -->
<g id="edge2_Node000001_Node000003" class="edge">
<title>Node1&#45;&gt;Node3</title>
<g id="a_edge2_Node000001_Node000003"><a xlink:title=" ">
<path fill="none" stroke="#63b8ff" d="M216.08,-96.59C224.56,-97.35 233.2,-98.12 241.85,-98.9"/>
<polygon fill="#63b8ff" stroke="#63b8ff" points="241.72,-102.4 251.99,-99.81 242.34,-95.43 241.72,-102.4"/>
</a>
</g>
</g>
<!-- Node4 -->
<g id="Node000004" class="node">
<title>Node4</title>
<g id="a_Node000004"><a xlink:href="../../da/d4a/classaopp__deconv__tool_1_1graphical__frontends_1_1ssa__filtering_1_1TextBox.html#ad9cacfd56b8b2b133a9bc9179a05c390" target="_top" xlink:title=" ">
<polygon fill="white" stroke="#666666" points="490,-78 266,-78 266,-48 490,-48 490,-78"/>
<text text-anchor="start" x="274" y="-66" font-family="Helvetica,sans-Serif" font-size="10.00">aopp_deconv_tool.graphical</text>
<text text-anchor="middle" x="378" y="-55" font-family="Helvetica,sans-Serif" font-size="10.00">_frontends.ssa_filtering.TextBox.get_value</text>
</a>
</g>
</g>
<!-- Node1&#45;&gt;Node4 -->
<g id="edge3_Node000001_Node000004" class="edge">
<title>Node1&#45;&gt;Node4</title>
<g id="a_edge3_Node000001_Node000004"><a xlink:title=" ">
<path fill="none" stroke="#63b8ff" d="M216.08,-77.41C229.09,-76.25 242.45,-75.05 255.65,-73.87"/>
<polygon fill="#63b8ff" stroke="#63b8ff" points="256.06,-77.34 265.71,-72.97 255.44,-70.37 256.06,-77.34"/>
</a>
</g>
</g>
<!-- Node5 -->
<g id="Node000005" class="node">
<title>Node5</title>
<g id="a_Node000005"><a xlink:href="../../d9/d2e/classaopp__deconv__tool_1_1graphical__frontends_1_1ssa__filtering_1_1RadioButtons.html#ab058bb7bc5aedda2b36c5e9fe87e8d06" target="_top" xlink:title=" ">
<polygon fill="white" stroke="#666666" points="503,-30 253,-30 253,0 503,0 503,-30"/>
<text text-anchor="start" x="261" y="-18" font-family="Helvetica,sans-Serif" font-size="10.00">aopp_deconv_tool.graphical</text>
<text text-anchor="middle" x="378" y="-7" font-family="Helvetica,sans-Serif" font-size="10.00">_frontends.ssa_filtering.RadioButtons.get_value</text>
</a>
</g>
</g>
<!-- Node1&#45;&gt;Node5 -->
<g id="edge4_Node000001_Node000005" class="edge">
<title>Node1&#45;&gt;Node5</title>
<g id="a_edge4_Node000001_Node000005"><a xlink:title=" ">
<path fill="none" stroke="#63b8ff" d="M164.5,-66.44C190.78,-57.2 222.74,-46.68 252,-39 261.2,-36.58 270.84,-34.3 280.51,-32.18"/>
<polygon fill="#63b8ff" stroke="#63b8ff" points="281.54,-35.54 290.59,-30.02 280.08,-28.69 281.54,-35.54"/>
</a>
</g>
</g>
</g>
</svg>
