<?xml version="1.0" encoding="UTF-8" standalone="no"?>
<!DOCTYPE svg PUBLIC "-//W3C//DTD SVG 1.1//EN"
 "http://www.w3.org/Graphics/SVG/1.1/DTD/svg11.dtd">
<!-- Generated by graphviz version 2.43.0 (0)
 -->
<!-- Title: aopp_deconv_tool.graphical_frontends.ssa_filtering.CheckButtons.set_value Pages: 1 -->
<svg width="547pt" height="271pt"
 viewBox="0.00 0.00 547.00 271.00" xmlns="http://www.w3.org/2000/svg" xmlns:xlink="http://www.w3.org/1999/xlink">
<g id="graph0" class="graph" transform="scale(1 1) rotate(0) translate(4 267)">
<title>aopp_deconv_tool.graphical_frontends.ssa_filtering.CheckButtons.set_value</title>
<!-- Node1 -->
<g id="Node000001" class="node">
<title>Node1</title>
<g id="a_Node000001"><a xlink:title=" ">
<polygon fill="#999999" stroke="#666666" points="251,-155.5 0,-155.5 0,-125.5 251,-125.5 251,-155.5"/>
<text text-anchor="start" x="8" y="-143.5" font-family="Helvetica,sans-Serif" font-size="10.00">aopp_deconv_tool.graphical</text>
<text text-anchor="middle" x="125.5" y="-132.5" font-family="Helvetica,sans-Serif" font-size="10.00">_frontends.ssa_filtering.CheckButtons.set_value</text>
</a>
</g>
</g>
<!-- Node2 -->
<g id="Node000002" class="node">
<title>Node2</title>
<g id="a_Node000002"><a xlink:href="../../da/d39/classaopp__deconv__tool_1_1graphical__frontends_1_1ssa__filtering_1_1WidgetBase.html#a50e64e1fc378bfc45bb50f9eb6a961fb" target="_top" xlink:title=" ">
<polygon fill="white" stroke="#666666" points="497,-263 329,-263 329,-222 497,-222 497,-263"/>
<text text-anchor="start" x="337" y="-251" font-family="Helvetica,sans-Serif" font-size="10.00">aopp_deconv_tool.graphical</text>
<text text-anchor="start" x="337" y="-240" font-family="Helvetica,sans-Serif" font-size="10.00">_frontends.ssa_filtering.Widget</text>
<text text-anchor="middle" x="413" y="-229" font-family="Helvetica,sans-Serif" font-size="10.00">Base.get_value</text>
</a>
</g>
</g>
<!-- Node1&#45;&gt;Node2 -->
<g id="edge1_Node000001_Node000002" class="edge">
<title>Node1&#45;&gt;Node2</title>
<g id="a_edge1_Node000001_Node000002"><a xlink:title=" ">
<path fill="none" stroke="#63b8ff" d="M155.71,-155.6C187.38,-171.49 239.74,-196.39 287,-212.5 297.19,-215.97 307.98,-219.2 318.77,-222.16"/>
<polygon fill="#63b8ff" stroke="#63b8ff" points="318.11,-225.6 328.68,-224.79 319.91,-218.84 318.11,-225.6"/>
</a>
</g>
</g>
<!-- Node3 -->
<g id="Node000003" class="node">
<title>Node3</title>
<g id="a_Node000003"><a xlink:href="../../d2/d2f/classaopp__deconv__tool_1_1graphical__frontends_1_1ssa__filtering_1_1CheckButtons.html#af410b1ad557888c7ef236bab981f1efe" target="_top" xlink:title=" ">
<polygon fill="white" stroke="#666666" points="539,-203.5 287,-203.5 287,-173.5 539,-173.5 539,-203.5"/>
<text text-anchor="start" x="295" y="-191.5" font-family="Helvetica,sans-Serif" font-size="10.00">aopp_deconv_tool.graphical</text>
<text text-anchor="middle" x="413" y="-180.5" font-family="Helvetica,sans-Serif" font-size="10.00">_frontends.ssa_filtering.CheckButtons.get_value</text>
</a>
</g>
</g>
<!-- Node1&#45;&gt;Node3 -->
<g id="edge2_Node000001_Node000003" class="edge">
<title>Node1&#45;&gt;Node3</title>
<g id="a_edge2_Node000001_Node000003"><a xlink:title=" ">
<path fill="none" stroke="#63b8ff" d="M216.05,-155.56C246.74,-160.72 281.27,-166.52 312.68,-171.8"/>
<polygon fill="#63b8ff" stroke="#63b8ff" points="312.33,-175.29 322.77,-173.5 313.49,-168.39 312.33,-175.29"/>
</a>
</g>
</g>
<!-- Node4 -->
<g id="Node000004" class="node">
<title>Node4</title>
<g id="a_Node000004"><a xlink:href="../../da/d4a/classaopp__deconv__tool_1_1graphical__frontends_1_1ssa__filtering_1_1TextBox.html#ad9cacfd56b8b2b133a9bc9179a05c390" target="_top" xlink:title=" ">
<polygon fill="white" stroke="#666666" points="525,-155.5 301,-155.5 301,-125.5 525,-125.5 525,-155.5"/>
<text text-anchor="start" x="309" y="-143.5" font-family="Helvetica,sans-Serif" font-size="10.00">aopp_deconv_tool.graphical</text>
<text text-anchor="middle" x="413" y="-132.5" font-family="Helvetica,sans-Serif" font-size="10.00">_frontends.ssa_filtering.TextBox.get_value</text>
</a>
</g>
</g>
<!-- Node1&#45;&gt;Node4 -->
<g id="edge3_Node000001_Node000004" class="edge">
<title>Node1&#45;&gt;Node4</title>
<g id="a_edge3_Node000001_Node000004"><a xlink:title=" ">
<path fill="none" stroke="#63b8ff" d="M251.31,-140.5C264.33,-140.5 277.56,-140.5 290.54,-140.5"/>
<polygon fill="#63b8ff" stroke="#63b8ff" points="290.9,-144 300.9,-140.5 290.9,-137 290.9,-144"/>
</a>
</g>
</g>
<!-- Node5 -->
<g id="Node000005" class="node">
<title>Node5</title>
<g id="a_Node000005"><a xlink:href="../../d9/d2e/classaopp__deconv__tool_1_1graphical__frontends_1_1ssa__filtering_1_1RadioButtons.html#ab058bb7bc5aedda2b36c5e9fe87e8d06" target="_top" xlink:title=" ">
<polygon fill="white" stroke="#666666" points="538,-107.5 288,-107.5 288,-77.5 538,-77.5 538,-107.5"/>
<text text-anchor="start" x="296" y="-95.5" font-family="Helvetica,sans-Serif" font-size="10.00">aopp_deconv_tool.graphical</text>
<text text-anchor="middle" x="413" y="-84.5" font-family="Helvetica,sans-Serif" font-size="10.00">_frontends.ssa_filtering.RadioButtons.get_value</text>
</a>
</g>
</g>
<!-- Node1&#45;&gt;Node5 -->
<g id="edge4_Node000001_Node000005" class="edge">
<title>Node1&#45;&gt;Node5</title>
<g id="a_edge4_Node000001_Node000005"><a xlink:title=" ">
<path fill="none" stroke="#63b8ff" d="M216.05,-125.44C246.74,-120.28 281.27,-114.48 312.68,-109.2"/>
<polygon fill="#63b8ff" stroke="#63b8ff" points="313.49,-112.61 322.77,-107.5 312.33,-105.71 313.49,-112.61"/>
</a>
</g>
</g>
<!-- Node6 -->
<g id="Node000006" class="node">
<title>Node6</title>
<g id="a_Node000006"><a xlink:href="../../da/d39/classaopp__deconv__tool_1_1graphical__frontends_1_1ssa__filtering_1_1WidgetBase.html#a57c669a0b1d75a6756ec5e30a6a39832" target="_top" xlink:title=" ">
<polygon fill="white" stroke="#666666" points="497,-41 329,-41 329,0 497,0 497,-41"/>
<text text-anchor="start" x="337" y="-29" font-family="Helvetica,sans-Serif" font-size="10.00">aopp_deconv_tool.graphical</text>
<text text-anchor="start" x="337" y="-18" font-family="Helvetica,sans-Serif" font-size="10.00">_frontends.ssa_filtering.Widget</text>
<text text-anchor="middle" x="413" y="-7" font-family="Helvetica,sans-Serif" font-size="10.00">Base.set_active</text>
</a>
</g>
</g>
<!-- Node1&#45;&gt;Node6 -->
<g id="edge5_Node000001_Node000006" class="edge">
<title>Node1&#45;&gt;Node6</title>
<g id="a_edge5_Node000001_Node000006"><a xlink:title=" ">
<path fill="none" stroke="#63b8ff" d="M158.55,-125.5C190.79,-110.55 242.02,-87.21 287,-68.5 306.37,-60.44 327.61,-52.1 347,-44.68"/>
<polygon fill="#63b8ff" stroke="#63b8ff" points="348.26,-47.95 356.36,-41.12 345.77,-41.41 348.26,-47.95"/>
</a>
</g>
</g>
<!-- Node6&#45;&gt;Node6 -->
<g id="edge6_Node000006_Node000006" class="edge">
<title>Node6&#45;&gt;Node6</title>
<g id="a_edge6_Node000006_Node000006"><a xlink:title=" ">
<path fill="none" stroke="#63b8ff" d="M360.44,-41.1C354.7,-50.65 372.22,-59 413,-59 438.49,-59 454.89,-55.74 462.2,-50.96"/>
<polygon fill="#63b8ff" stroke="#63b8ff" points="465.65,-51.69 465.56,-41.1 459.03,-49.43 465.65,-51.69"/>
</a>
</g>
</g>
</g>
</svg>
