<?xml version="1.0" encoding="UTF-8" standalone="no"?>
<!DOCTYPE svg PUBLIC "-//W3C//DTD SVG 1.1//EN"
 "http://www.w3.org/Graphics/SVG/1.1/DTD/svg11.dtd">
<!-- Generated by graphviz version 2.43.0 (0)
 -->
<!-- Title: aopp_deconv_tool.graphical_frontends.ssa_filtering.CheckButtons.on_clicked Pages: 1 -->
<svg width="514pt" height="198pt"
 viewBox="0.00 0.00 514.00 197.50" xmlns="http://www.w3.org/2000/svg" xmlns:xlink="http://www.w3.org/1999/xlink">
<g id="graph0" class="graph" transform="scale(1 1) rotate(0) translate(4 193.5)">
<title>aopp_deconv_tool.graphical_frontends.ssa_filtering.CheckButtons.on_clicked</title>
<!-- Node1 -->
<g id="node1" class="node">
<title>Node1</title>
<g id="a_node1"><a xlink:title=" ">
<polygon fill="#bfbfbf" stroke="black" points="0,-68 0,-109 217,-109 217,-68 0,-68"/>
<text text-anchor="start" x="8" y="-97" font-family="Helvetica,sans-Serif" font-size="10.00">aopp_deconv_tool.graphical</text>
<text text-anchor="start" x="8" y="-86" font-family="Helvetica,sans-Serif" font-size="10.00">_frontends.ssa_filtering.CheckButtons.on</text>
<text text-anchor="middle" x="108.5" y="-75" font-family="Helvetica,sans-Serif" font-size="10.00">_clicked</text>
</a>
</g>
</g>
<!-- Node2 -->
<g id="node2" class="node">
<title>Node2</title>
<g id="a_node2"><a xlink:href="../../da/d39/classaopp__deconv__tool_1_1graphical__frontends_1_1ssa__filtering_1_1WidgetBase.html#a44b8666598d632f144849eb1153d8909" target="_top" xlink:title=" ">
<polygon fill="none" stroke="black" points="295,-148 295,-189 464,-189 464,-148 295,-148"/>
<text text-anchor="start" x="303" y="-177" font-family="Helvetica,sans-Serif" font-size="10.00">aopp_deconv_tool.graphical</text>
<text text-anchor="start" x="303" y="-166" font-family="Helvetica,sans-Serif" font-size="10.00">_frontends.ssa_filtering.Widget</text>
<text text-anchor="middle" x="379.5" y="-155" font-family="Helvetica,sans-Serif" font-size="10.00">Base.get_value</text>
</a>
</g>
</g>
<!-- Node1&#45;&gt;Node2 -->
<g id="edge1" class="edge">
<title>Node1&#45;&gt;Node2</title>
<path fill="none" stroke="midnightblue" d="M164.28,-109.04C190.86,-118.63 223.38,-129.82 253,-138.5 263.29,-141.51 274.11,-144.45 284.92,-147.23"/>
<polygon fill="midnightblue" stroke="midnightblue" points="284.27,-150.67 294.82,-149.74 285.98,-143.89 284.27,-150.67"/>
</g>
<!-- Node3 -->
<g id="node3" class="node">
<title>Node3</title>
<g id="a_node3"><a xlink:href="../../d2/d2f/classaopp__deconv__tool_1_1graphical__frontends_1_1ssa__filtering_1_1CheckButtons.html#a36d51bbdd702b55277de1434bdbe9e2e" target="_top" xlink:title=" ">
<polygon fill="none" stroke="black" points="253,-98.5 253,-128.5 506,-128.5 506,-98.5 253,-98.5"/>
<text text-anchor="start" x="261" y="-116.5" font-family="Helvetica,sans-Serif" font-size="10.00">aopp_deconv_tool.graphical</text>
<text text-anchor="middle" x="379.5" y="-105.5" font-family="Helvetica,sans-Serif" font-size="10.00">_frontends.ssa_filtering.CheckButtons.get_value</text>
</a>
</g>
</g>
<!-- Node1&#45;&gt;Node3 -->
<g id="edge2" class="edge">
<title>Node1&#45;&gt;Node3</title>
<path fill="none" stroke="midnightblue" d="M217.36,-98.52C225.77,-99.31 234.32,-100.1 242.87,-100.9"/>
<polygon fill="midnightblue" stroke="midnightblue" points="242.63,-104.39 252.91,-101.83 243.28,-97.42 242.63,-104.39"/>
</g>
<!-- Node4 -->
<g id="node4" class="node">
<title>Node4</title>
<g id="a_node4"><a xlink:href="../../da/d4a/classaopp__deconv__tool_1_1graphical__frontends_1_1ssa__filtering_1_1TextBox.html#aa35e9c92729265525e70acc4c973b974" target="_top" xlink:title=" ">
<polygon fill="none" stroke="black" points="267.5,-49.5 267.5,-79.5 491.5,-79.5 491.5,-49.5 267.5,-49.5"/>
<text text-anchor="start" x="275.5" y="-67.5" font-family="Helvetica,sans-Serif" font-size="10.00">aopp_deconv_tool.graphical</text>
<text text-anchor="middle" x="379.5" y="-56.5" font-family="Helvetica,sans-Serif" font-size="10.00">_frontends.ssa_filtering.TextBox.get_value</text>
</a>
</g>
</g>
<!-- Node1&#45;&gt;Node4 -->
<g id="edge3" class="edge">
<title>Node1&#45;&gt;Node4</title>
<path fill="none" stroke="midnightblue" d="M217.36,-78.88C230.41,-77.71 243.8,-76.52 257.03,-75.34"/>
<polygon fill="midnightblue" stroke="midnightblue" points="257.45,-78.81 267.1,-74.44 256.83,-71.84 257.45,-78.81"/>
</g>
<!-- Node5 -->
<g id="node5" class="node">
<title>Node5</title>
<g id="a_node5"><a xlink:href="../../d9/d2e/classaopp__deconv__tool_1_1graphical__frontends_1_1ssa__filtering_1_1RadioButtons.html#a7451826d80866b900047ca46013adeb7" target="_top" xlink:title=" ">
<polygon fill="none" stroke="black" points="254,-0.5 254,-30.5 505,-30.5 505,-0.5 254,-0.5"/>
<text text-anchor="start" x="262" y="-18.5" font-family="Helvetica,sans-Serif" font-size="10.00">aopp_deconv_tool.graphical</text>
<text text-anchor="middle" x="379.5" y="-7.5" font-family="Helvetica,sans-Serif" font-size="10.00">_frontends.ssa_filtering.RadioButtons.get_value</text>
</a>
</g>
</g>
<!-- Node1&#45;&gt;Node5 -->
<g id="edge4" class="edge">
<title>Node1&#45;&gt;Node5</title>
<path fill="none" stroke="midnightblue" d="M165.57,-67.92C191.88,-58.73 223.8,-48.26 253,-40.5 263.44,-37.73 274.44,-35.1 285.41,-32.68"/>
<polygon fill="midnightblue" stroke="midnightblue" points="286.43,-36.04 295.46,-30.5 284.95,-29.2 286.43,-36.04"/>
</g>
</g>
</svg>
