<?xml version="1.0" encoding="UTF-8" standalone="no"?>
<!DOCTYPE svg PUBLIC "-//W3C//DTD SVG 1.1//EN"
 "http://www.w3.org/Graphics/SVG/1.1/DTD/svg11.dtd">
<!-- Generated by graphviz version 2.43.0 (0)
 -->
<!-- Title: aopp_deconv_tool.graphical_frontends.ssa_filtering.ImageAggregator.set_image_agg_planes Pages: 1 -->
<svg width="543pt" height="116pt"
 viewBox="0.00 0.00 543.00 115.50" xmlns="http://www.w3.org/2000/svg" xmlns:xlink="http://www.w3.org/1999/xlink">
<g id="graph0" class="graph" transform="scale(1 1) rotate(0) translate(4 111.5)">
<title>aopp_deconv_tool.graphical_frontends.ssa_filtering.ImageAggregator.set_image_agg_planes</title>
<!-- Node1 -->
<g id="Node000001" class="node">
<title>Node1</title>
<g id="a_Node000001"><a xlink:title=" ">
<polygon fill="#999999" stroke="#666666" points="236,-71.5 0,-71.5 0,-30.5 236,-30.5 236,-71.5"/>
<text text-anchor="start" x="8" y="-59.5" font-family="Helvetica,sans-Serif" font-size="10.00">aopp_deconv_tool.graphical</text>
<text text-anchor="start" x="8" y="-48.5" font-family="Helvetica,sans-Serif" font-size="10.00">_frontends.ssa_filtering.ImageAggregator.set</text>
<text text-anchor="middle" x="118" y="-37.5" font-family="Helvetica,sans-Serif" font-size="10.00">_image_agg_planes</text>
</a>
</g>
</g>
<!-- Node2 -->
<g id="Node000002" class="node">
<title>Node2</title>
<g id="a_Node000002"><a xlink:href="../../d3/d42/classaopp__deconv__tool_1_1graphical__frontends_1_1ssa__filtering_1_1CallbackMixin.html#a8cb40ee527667ddf72e5912657da55c8" target="_top" xlink:title=" ">
<polygon fill="white" stroke="#666666" points="491.5,-107.5 315.5,-107.5 315.5,-66.5 491.5,-66.5 491.5,-107.5"/>
<text text-anchor="start" x="323.5" y="-95.5" font-family="Helvetica,sans-Serif" font-size="10.00">aopp_deconv_tool.graphical</text>
<text text-anchor="start" x="323.5" y="-84.5" font-family="Helvetica,sans-Serif" font-size="10.00">_frontends.ssa_filtering.Callback</text>
<text text-anchor="middle" x="403.5" y="-73.5" font-family="Helvetica,sans-Serif" font-size="10.00">Mixin.call_callbacks</text>
</a>
</g>
</g>
<!-- Node1&#45;&gt;Node2 -->
<g id="edge1_Node000001_Node000002" class="edge">
<title>Node1&#45;&gt;Node2</title>
<g id="a_edge1_Node000001_Node000002"><a xlink:title=" ">
<path fill="none" stroke="#63b8ff" d="M236.36,-65.9C259.21,-68.8 282.93,-71.82 305.06,-74.63"/>
<polygon fill="#63b8ff" stroke="#63b8ff" points="304.74,-78.11 315.1,-75.9 305.62,-71.17 304.74,-78.11"/>
</a>
</g>
</g>
<!-- Node3 -->
<g id="Node000003" class="node">
<title>Node3</title>
<g id="a_Node000003"><a xlink:href="../../d8/dd5/classaopp__deconv__tool_1_1graphical__frontends_1_1ssa__filtering_1_1ImageAggregator.html#afd37fadb2ce7e1ee7ad84ec2d8ba85cd" target="_top" xlink:title=" ">
<polygon fill="white" stroke="#666666" points="535,-30 272,-30 272,0 535,0 535,-30"/>
<text text-anchor="start" x="280" y="-18" font-family="Helvetica,sans-Serif" font-size="10.00">aopp_deconv_tool.graphical</text>
<text text-anchor="middle" x="403.5" y="-7" font-family="Helvetica,sans-Serif" font-size="10.00">_frontends.ssa_filtering.ImageAggregator.set_data</text>
</a>
</g>
</g>
<!-- Node1&#45;&gt;Node3 -->
<g id="edge2_Node000001_Node000003" class="edge">
<title>Node1&#45;&gt;Node3</title>
<g id="a_edge2_Node000001_Node000003"><a xlink:title=" ">
<path fill="none" stroke="#63b8ff" d="M236.36,-36.1C248.86,-34.51 261.62,-32.89 274.24,-31.29"/>
<polygon fill="#63b8ff" stroke="#63b8ff" points="274.84,-34.74 284.32,-30.01 273.96,-27.8 274.84,-34.74"/>
</a>
</g>
</g>
<!-- Node3&#45;&gt;Node3 -->
<g id="edge3_Node000003_Node000003" class="edge">
<title>Node3&#45;&gt;Node3</title>
<g id="a_edge3_Node000003_Node000003"><a xlink:title=" ">
<path fill="none" stroke="#63b8ff" d="M353.58,-30.28C342.48,-39.41 359.12,-48 403.5,-48 430.19,-48 446.85,-44.89 453.47,-40.42"/>
<polygon fill="#63b8ff" stroke="#63b8ff" points="456.97,-40.26 453.42,-30.28 449.97,-40.29 456.97,-40.26"/>
</a>
</g>
</g>
</g>
</svg>
