<?xml version="1.0" encoding="UTF-8" standalone="no"?>
<!DOCTYPE svg PUBLIC "-//W3C//DTD SVG 1.1//EN"
 "http://www.w3.org/Graphics/SVG/1.1/DTD/svg11.dtd">
<!-- Generated by graphviz version 2.43.0 (0)
 -->
<!-- Title: aopp_deconv_tool.graphical_frontends.ssa_filtering.ImageAggregator.set_data Pages: 1 -->
<!--zoomable 146 -->

<svg id="main" version="1.1" xmlns="http://www.w3.org/2000/svg" xmlns:xlink="http://www.w3.org/1999/xlink" xml:space="preserve" onload="init(evt)">
<style type="text/css"><![CDATA[
.node, .edge {opacity: 0.7;}
.node.selected, .edge.selected {opacity: 1;}
.edge:hover path { stroke: red; }
.edge:hover polygon { stroke: red; fill: red; }
]]></style>

<defs>
  <circle id="rim" cx="0" cy="0" r="7"/>
  <circle id="rim2" cx="0" cy="0" r="3.5"/>
  <g id="zoomPlus">
    <use xlink:href="#rim" fill="#404040"><set attributeName="fill" to="#808080" begin="zoomplus.mouseover" end="zoomplus.mouseout"/></use>
    <path d="M-4,0h8M0,-4v8" fill="none" stroke="white" stroke-width="1.5" pointer-events="none"/>
  </g>
  <g id="zoomMin">
    <use xlink:href="#rim" fill="#404040"><set attributeName="fill" to="#808080" begin="zoomminus.mouseover" end="zoomminus.mouseout"/></use>
    <path d="M-4,0h8" fill="none" stroke="white" stroke-width="1.5" pointer-events="none"/>
  </g>
  <g id="arrowUp" transform="translate(30 24)">
    <use xlink:href="#rim"/>
    <path pointer-events="none" fill="none" stroke="white" stroke-width="1.5" d="M0,-3.0v7 M-2.5,-0.5L0,-3.0L2.5,-0.5"/>
  </g>
  <g id="arrowRight" transform="rotate(90) translate(36 -43)">
    <use xlink:href="#rim"/>
    <path pointer-events="none" fill="none" stroke="white" stroke-width="1.5" d="M0,-3.0v7 M-2.5,-0.5L0,-3.0L2.5,-0.5"/>
  </g>
  <g id="arrowDown" transform="rotate(180) translate(-30 -48)">
    <use xlink:href="#rim"/>
    <path pointer-events="none" fill="none" stroke="white" stroke-width="1.5" d="M0,-3.0v7 M-2.5,-0.5L0,-3.0L2.5,-0.5"/>
  </g>
  <g id="arrowLeft" transform="rotate(270) translate(-36 17)">
    <use xlink:href="#rim"/>
    <path pointer-events="none" fill="none" stroke="white" stroke-width="1.5" d="M0,-3.0v7 M-2.5,-0.5L0,-3.0L2.5,-0.5"/>
  </g>
  <g id="resetDef">
    <use xlink:href="#rim2" fill="#404040"><set attributeName="fill" to="#808080" begin="reset.mouseover" end="reset.mouseout"/></use>
  </g>
</defs>
<script type="application/ecmascript">
var viewWidth = 543;
var viewHeight = 146;
var sectionId = 'dynsection-4';
</script>
<script type="application/ecmascript" xlink:href="../../svg.min.js"/>
<svg id="graph" class="graph">
<g id="viewport">
<title>aopp_deconv_tool.graphical_frontends.ssa_filtering.ImageAggregator.set_data</title>
<!-- Node1 -->
<g id="Node000001" class="node">
<title>Node1</title>
<g id="a_Node000001"><a xlink:title=" ">
<polygon fill="#999999" stroke="#666666" points="535,-78 272,-78 272,-48 535,-48 535,-78"/>
<text text-anchor="start" x="280" y="-66" font-family="Helvetica,sans-Serif" font-size="10.00">aopp_deconv_tool.graphical</text>
<text text-anchor="middle" x="403.5" y="-55" font-family="Helvetica,sans-Serif" font-size="10.00">_frontends.ssa_filtering.ImageAggregator.set_data</text>
</a>
</g>
</g>
<!-- Node1&#45;&gt;Node1 -->
<g id="edge1_Node000001_Node000001" class="edge">
<title>Node1&#45;&gt;Node1</title>
<g id="a_edge1_Node000001_Node000001"><a xlink:title=" ">
<path fill="none" stroke="#63b8ff" d="M453.47,-88.42C446.85,-92.89 430.19,-96 403.5,-96 359.12,-96 342.48,-87.41 353.58,-78.28"/>
<polygon fill="#63b8ff" stroke="#63b8ff" points="456.97,-88.26 453.42,-78.28 449.97,-88.29 456.97,-88.26"/>
</a>
</g>
</g>
<!-- Node2 -->
<g id="Node000002" class="node">
<title>Node2</title>
<g id="a_Node000002"><a xlink:href="../../d8/dd5/classaopp__deconv__tool_1_1graphical__frontends_1_1ssa__filtering_1_1ImageAggregator.html#ae11d233967e34917edcecaaa164d5354" target="_top" xlink:title=" ">
<polygon fill="white" stroke="#666666" points="236,-137.5 0,-137.5 0,-96.5 236,-96.5 236,-137.5"/>
<text text-anchor="start" x="8" y="-125.5" font-family="Helvetica,sans-Serif" font-size="10.00">aopp_deconv_tool.graphical</text>
<text text-anchor="start" x="8" y="-114.5" font-family="Helvetica,sans-Serif" font-size="10.00">_frontends.ssa_filtering.ImageAggregator.set</text>
<text text-anchor="middle" x="118" y="-103.5" font-family="Helvetica,sans-Serif" font-size="10.00">_image_agg_planes</text>
</a>
</g>
</g>
<!-- Node1&#45;&gt;Node2 -->
<g id="edge2_Node000001_Node000002" class="edge">
<title>Node1&#45;&gt;Node2</title>
<g id="a_edge2_Node000001_Node000002"><a xlink:title=" ">
<path fill="none" stroke="#63b8ff" d="M313.53,-79.95C285.99,-85.19 255.35,-91.03 226.68,-96.49"/>
<polygon fill="#63b8ff" stroke="#63b8ff" points="314.36,-83.35 323.53,-78.04 313.05,-76.48 314.36,-83.35"/>
</a>
</g>
</g>
<!-- Node3 -->
<g id="Node000003" class="node">
<title>Node3</title>
<g id="a_Node000003"><a xlink:href="../../d6/d1d/classaopp__deconv__tool_1_1graphical__frontends_1_1ssa__filtering_1_1ImageViewer.html#a3a362bcec191790684ab2d054db8042f" target="_top" xlink:title=" ">
<polygon fill="white" stroke="#666666" points="231,-78 5,-78 5,-48 231,-48 231,-78"/>
<text text-anchor="start" x="13" y="-66" font-family="Helvetica,sans-Serif" font-size="10.00">aopp_deconv_tool.graphical</text>
<text text-anchor="middle" x="118" y="-55" font-family="Helvetica,sans-Serif" font-size="10.00">_frontends.ssa_filtering.ImageViewer.show</text>
</a>
</g>
</g>
<!-- Node1&#45;&gt;Node3 -->
<g id="edge3_Node000001_Node000003" class="edge">
<title>Node1&#45;&gt;Node3</title>
<g id="a_edge3_Node000001_Node000003"><a xlink:title=" ">
<path fill="none" stroke="#63b8ff" d="M261.69,-63C251.42,-63 241.14,-63 231.06,-63"/>
<polygon fill="#63b8ff" stroke="#63b8ff" points="261.95,-66.5 271.95,-63 261.95,-59.5 261.95,-66.5"/>
</a>
</g>
</g>
<!-- Node4 -->
<g id="Node000004" class="node">
<title>Node4</title>
<g id="a_Node000004"><a xlink:href="../../dd/d48/classaopp__deconv__tool_1_1graphical__frontends_1_1ssa__filtering_1_1SSAViewer.html#aa5805401ffe03e9fed4dc9e4ee3c745e" target="_top" xlink:title=" ">
<polygon fill="white" stroke="#666666" points="225,-30 11,-30 11,0 225,0 225,-30"/>
<text text-anchor="start" x="19" y="-18" font-family="Helvetica,sans-Serif" font-size="10.00">aopp_deconv_tool.graphical</text>
<text text-anchor="middle" x="118" y="-7" font-family="Helvetica,sans-Serif" font-size="10.00">_frontends.ssa_filtering.SSAViewer.show</text>
</a>
</g>
</g>
<!-- Node1&#45;&gt;Node4 -->
<g id="edge4_Node000001_Node000004" class="edge">
<title>Node1&#45;&gt;Node4</title>
<g id="a_edge4_Node000001_Node000004"><a xlink:title=" ">
<path fill="none" stroke="#63b8ff" d="M303.56,-46.25C272.34,-40.96 238.06,-35.16 207.61,-30"/>
<polygon fill="#63b8ff" stroke="#63b8ff" points="303.13,-49.73 313.58,-47.94 304.3,-42.82 303.13,-49.73"/>
</a>
</g>
</g>
</g>
</svg>

<g id="navigator" transform="translate(0 0)" fill="#404254">
  <rect fill="#f2f5e9" fill-opacity="0.5" stroke="#606060" stroke-width=".5" x="0" y="0" width="60" height="60"/>
  <use id="zoomplus" xlink:href="#zoomPlus" x="17" y="9" onmousedown="handleZoom(evt,'in')"/>
  <use id="zoomminus" xlink:href="#zoomMin" x="42" y="9" onmousedown="handleZoom(evt,'out')"/>
  <use id="reset" xlink:href="#resetDef" x="30" y="36" onmousedown="handleReset()"/>
   <use id="arrowup" xlink:href="#arrowUp" x="0" y="0" onmousedown="handlePan(0,-1)"/>
  <use id="arrowright" xlink:href="#arrowRight" x="0" y="0" onmousedown="handlePan(1,0)"/>
  <use id="arrowdown" xlink:href="#arrowDown" x="0" y="0" onmousedown="handlePan(0,1)"/>
  <use id="arrowleft" xlink:href="#arrowLeft" x="0" y="0" onmousedown="handlePan(-1,0)"/>
</g>
<svg viewBox="0 0 15 15" width="100%" height="30px" preserveAspectRatio="xMaxYMin meet">
 <g id="arrow_out" transform="scale(0.3 0.3)">
  <a xlink:href="classaopp__deconv__tool_1_1graphical__frontends_1_1ssa__filtering_1_1ImageAggregator_afd37fadb2ce7e1ee7ad84ec2d8ba85cd_icgraph_org.svg" target="_base">
   <rect id="button" ry="5" rx="5" y="6" x="6" height="38" width="38"
        fill="#f2f5e9" fill-opacity="0.5" stroke="#606060" stroke-width="1.0"/>
   <path id="arrow"
     d="M 11.500037,31.436501 C 11.940474,20.09759 22.043105,11.32322 32.158766,21.979434 L 37.068811,17.246167 C 37.068811,17.246167 37.088388,32 37.088388,32 L 22.160133,31.978069 C 22.160133,31.978069 26.997745,27.140456 26.997745,27.140456 C 18.528582,18.264221 13.291696,25.230495 11.500037,31.436501 z"
     style="fill:#404040;"/>
  </a>
 </g>
</svg>

<style type='text/css'>
<![CDATA[
[data-mouse-over-selected='false'] { opacity: 0.7; }
[data-mouse-over-selected='true']  { opacity: 1.0; }
]]>
</style>
<script type="application/ecmascript"><![CDATA[
document.addEventListener('DOMContentLoaded', (event) => {
  highlightEdges();
  highlightAdjacentNodes();
});
]]></script>
</svg>
