<?xml version="1.0" encoding="UTF-8" standalone="no"?>
<!DOCTYPE svg PUBLIC "-//W3C//DTD SVG 1.1//EN"
 "http://www.w3.org/Graphics/SVG/1.1/DTD/svg11.dtd">
<!-- Generated by graphviz version 2.43.0 (0)
 -->
<!-- Title: aopp_deconv_tool.graphical_frontends.ssa_filtering.ImageAggregator.get_displayed_data Pages: 1 -->
<svg width="784pt" height="164pt"
 viewBox="0.00 0.00 784.00 163.50" xmlns="http://www.w3.org/2000/svg" xmlns:xlink="http://www.w3.org/1999/xlink">
<g id="graph0" class="graph" transform="scale(1 1) rotate(0) translate(4 159.5)">
<title>aopp_deconv_tool.graphical_frontends.ssa_filtering.ImageAggregator.get_displayed_data</title>
<!-- Node1 -->
<g id="Node000001" class="node">
<title>Node1</title>
<g id="a_Node000001"><a xlink:title=" ">
<polygon fill="#999999" stroke="#666666" points="776,-119.5 540,-119.5 540,-78.5 776,-78.5 776,-119.5"/>
<text text-anchor="start" x="548" y="-107.5" font-family="Helvetica,sans-Serif" font-size="10.00">aopp_deconv_tool.graphical</text>
<text text-anchor="start" x="548" y="-96.5" font-family="Helvetica,sans-Serif" font-size="10.00">_frontends.ssa_filtering.ImageAggregator.get</text>
<text text-anchor="middle" x="658" y="-85.5" font-family="Helvetica,sans-Serif" font-size="10.00">_displayed_data</text>
</a>
</g>
</g>
<!-- Node2 -->
<g id="Node000002" class="node">
<title>Node2</title>
<g id="a_Node000002"><a xlink:href="../../d6/d1d/classaopp__deconv__tool_1_1graphical__frontends_1_1ssa__filtering_1_1ImageViewer.html#a2b098f0d395c9b52797e60b07b8951a2" target="_top" xlink:title=" ">
<polygon fill="white" stroke="#666666" points="490.5,-155.5 275.5,-155.5 275.5,-114.5 490.5,-114.5 490.5,-155.5"/>
<text text-anchor="start" x="283.5" y="-143.5" font-family="Helvetica,sans-Serif" font-size="10.00">aopp_deconv_tool.graphical</text>
<text text-anchor="start" x="283.5" y="-132.5" font-family="Helvetica,sans-Serif" font-size="10.00">_frontends.ssa_filtering.ImageViewer.set</text>
<text text-anchor="middle" x="383" y="-121.5" font-family="Helvetica,sans-Serif" font-size="10.00">_clim_slider_mode</text>
</a>
</g>
</g>
<!-- Node1&#45;&gt;Node2 -->
<g id="edge1_Node000001_Node000002" class="edge">
<title>Node1&#45;&gt;Node2</title>
<g id="a_edge1_Node000001_Node000002"><a xlink:title=" ">
<path fill="none" stroke="#63b8ff" d="M529.36,-115.83C516.5,-117.53 503.53,-119.24 490.92,-120.9"/>
<polygon fill="#63b8ff" stroke="#63b8ff" points="530.18,-119.25 539.64,-114.48 529.27,-112.31 530.18,-119.25"/>
</a>
</g>
</g>
<!-- Node3 -->
<g id="Node000003" class="node">
<title>Node3</title>
<g id="a_Node000003"><a xlink:href="../../d6/d1d/classaopp__deconv__tool_1_1graphical__frontends_1_1ssa__filtering_1_1ImageViewer.html#a928f59c859e6fa028dc5fbf1fa706baf" target="_top" xlink:title=" ">
<polygon fill="white" stroke="#666666" points="504,-78 262,-78 262,-48 504,-48 504,-78"/>
<text text-anchor="start" x="270" y="-66" font-family="Helvetica,sans-Serif" font-size="10.00">aopp_deconv_tool.graphical</text>
<text text-anchor="middle" x="383" y="-55" font-family="Helvetica,sans-Serif" font-size="10.00">_frontends.ssa_filtering.ImageViewer.set_data</text>
</a>
</g>
</g>
<!-- Node1&#45;&gt;Node3 -->
<g id="edge2_Node000001_Node000003" class="edge">
<title>Node1&#45;&gt;Node3</title>
<g id="a_edge2_Node000001_Node000003"><a xlink:title=" ">
<path fill="none" stroke="#63b8ff" d="M529.52,-82.19C518.93,-80.79 508.28,-79.39 497.8,-78.01"/>
<polygon fill="#63b8ff" stroke="#63b8ff" points="529.27,-85.69 539.64,-83.52 530.18,-78.75 529.27,-85.69"/>
</a>
</g>
</g>
<!-- Node3&#45;&gt;Node3 -->
<g id="edge3_Node000003_Node000003" class="edge">
<title>Node3&#45;&gt;Node3</title>
<g id="a_edge3_Node000003_Node000003"><a xlink:title=" ">
<path fill="none" stroke="#63b8ff" d="M430.26,-88.6C423.8,-92.97 408.05,-96 383,-96 340.81,-96 324.99,-87.41 335.54,-78.28"/>
<polygon fill="#63b8ff" stroke="#63b8ff" points="433.77,-88.34 430.46,-78.28 426.77,-88.21 433.77,-88.34"/>
</a>
</g>
</g>
<!-- Node4 -->
<g id="Node000004" class="node">
<title>Node4</title>
<g id="a_Node000004"><a xlink:href="../../d6/d1d/classaopp__deconv__tool_1_1graphical__frontends_1_1ssa__filtering_1_1ImageViewer.html#a0559152975cdc4323074aec18b35b6c4" target="_top" xlink:title=" ">
<polygon fill="white" stroke="#666666" points="220.5,-137.5 5.5,-137.5 5.5,-96.5 220.5,-96.5 220.5,-137.5"/>
<text text-anchor="start" x="13.5" y="-125.5" font-family="Helvetica,sans-Serif" font-size="10.00">aopp_deconv_tool.graphical</text>
<text text-anchor="start" x="13.5" y="-114.5" font-family="Helvetica,sans-Serif" font-size="10.00">_frontends.ssa_filtering.ImageViewer.set</text>
<text text-anchor="middle" x="113" y="-103.5" font-family="Helvetica,sans-Serif" font-size="10.00">_image_plane</text>
</a>
</g>
</g>
<!-- Node3&#45;&gt;Node4 -->
<g id="edge4_Node000003_Node000004" class="edge">
<title>Node3&#45;&gt;Node4</title>
<g id="a_edge4_Node000003_Node000004"><a xlink:title=" ">
<path fill="none" stroke="#63b8ff" d="M297.21,-80.08C271.35,-85.29 242.66,-91.08 215.79,-96.49"/>
<polygon fill="#63b8ff" stroke="#63b8ff" points="298.24,-83.45 307.35,-78.04 296.85,-76.59 298.24,-83.45"/>
</a>
</g>
</g>
<!-- Node5 -->
<g id="Node000005" class="node">
<title>Node5</title>
<g id="a_Node000005"><a xlink:href="../../d6/d1d/classaopp__deconv__tool_1_1graphical__frontends_1_1ssa__filtering_1_1ImageViewer.html#a3a362bcec191790684ab2d054db8042f" target="_top" xlink:title=" ">
<polygon fill="white" stroke="#666666" points="226,-78 0,-78 0,-48 226,-48 226,-78"/>
<text text-anchor="start" x="8" y="-66" font-family="Helvetica,sans-Serif" font-size="10.00">aopp_deconv_tool.graphical</text>
<text text-anchor="middle" x="113" y="-55" font-family="Helvetica,sans-Serif" font-size="10.00">_frontends.ssa_filtering.ImageViewer.show</text>
</a>
</g>
</g>
<!-- Node3&#45;&gt;Node5 -->
<g id="edge5_Node000003_Node000005" class="edge">
<title>Node3&#45;&gt;Node5</title>
<g id="a_edge5_Node000003_Node000005"><a xlink:title=" ">
<path fill="none" stroke="#63b8ff" d="M251.71,-63C243.17,-63 234.62,-63 226.18,-63"/>
<polygon fill="#63b8ff" stroke="#63b8ff" points="251.72,-66.5 261.72,-63 251.72,-59.5 251.72,-66.5"/>
</a>
</g>
</g>
<!-- Node6 -->
<g id="Node000006" class="node">
<title>Node6</title>
<g id="a_Node000006"><a xlink:href="../../dd/d48/classaopp__deconv__tool_1_1graphical__frontends_1_1ssa__filtering_1_1SSAViewer.html#aa5805401ffe03e9fed4dc9e4ee3c745e" target="_top" xlink:title=" ">
<polygon fill="white" stroke="#666666" points="220,-30 6,-30 6,0 220,0 220,-30"/>
<text text-anchor="start" x="14" y="-18" font-family="Helvetica,sans-Serif" font-size="10.00">aopp_deconv_tool.graphical</text>
<text text-anchor="middle" x="113" y="-7" font-family="Helvetica,sans-Serif" font-size="10.00">_frontends.ssa_filtering.SSAViewer.show</text>
</a>
</g>
</g>
<!-- Node3&#45;&gt;Node6 -->
<g id="edge6_Node000003_Node000006" class="edge">
<title>Node3&#45;&gt;Node6</title>
<g id="a_edge6_Node000003_Node000006"><a xlink:title=" ">
<path fill="none" stroke="#63b8ff" d="M288.08,-46.18C258.67,-40.91 226.43,-35.14 197.76,-30"/>
<polygon fill="#63b8ff" stroke="#63b8ff" points="287.48,-49.63 297.94,-47.94 288.71,-42.74 287.48,-49.63"/>
</a>
</g>
</g>
</g>
</svg>
