<?xml version="1.0" encoding="UTF-8" standalone="no"?>
<!DOCTYPE svg PUBLIC "-//W3C//DTD SVG 1.1//EN"
 "http://www.w3.org/Graphics/SVG/1.1/DTD/svg11.dtd">
<!-- Generated by graphviz version 2.43.0 (0)
 -->
<!-- Title: aopp_deconv_tool.plot_helper.LimRememberExtremesNonNegative Pages: 1 -->
<svg width="273pt" height="193pt"
 viewBox="0.00 0.00 273.00 193.00" xmlns="http://www.w3.org/2000/svg" xmlns:xlink="http://www.w3.org/1999/xlink">
<g id="graph0" class="graph" transform="scale(1 1) rotate(0) translate(4 189)">
<title>aopp_deconv_tool.plot_helper.LimRememberExtremesNonNegative</title>
<!-- Node1 -->
<g id="Node000001" class="node">
<title>Node1</title>
<g id="a_Node000001"><a xlink:title=" ">
<polygon fill="#999999" stroke="#666666" points="173,-41 0,-41 0,0 173,0 173,-41"/>
<text text-anchor="start" x="8" y="-29" font-family="Helvetica,sans-Serif" font-size="10.00">aopp_deconv_tool.plot</text>
<text text-anchor="start" x="8" y="-18" font-family="Helvetica,sans-Serif" font-size="10.00">_helper.LimRememberExtremes</text>
<text text-anchor="middle" x="86.5" y="-7" font-family="Helvetica,sans-Serif" font-size="10.00">NonNegative</text>
</a>
</g>
</g>
<!-- Node2 -->
<g id="Node000002" class="node">
<title>Node2</title>
<g id="a_Node000002"><a xlink:href="../../d8/de3/classaopp__deconv__tool_1_1plot__helper_1_1LimRememberExtremes.html" target="_top" xlink:title=" ">
<polygon fill="white" stroke="#666666" points="265,-108 92,-108 92,-78 265,-78 265,-108"/>
<text text-anchor="start" x="100" y="-96" font-family="Helvetica,sans-Serif" font-size="10.00">aopp_deconv_tool.plot</text>
<text text-anchor="middle" x="178.5" y="-85" font-family="Helvetica,sans-Serif" font-size="10.00">_helper.LimRememberExtremes</text>
</a>
</g>
</g>
<!-- Node2&#45;&gt;Node1 -->
<g id="edge1_Node000001_Node000002" class="edge">
<title>Node2&#45;&gt;Node1</title>
<g id="a_edge1_Node000001_Node000002"><a xlink:title=" ">
<path fill="none" stroke="#63b8ff" d="M151.66,-71.43C139.17,-61.86 124.39,-50.53 112.06,-41.09"/>
<polygon fill="#63b8ff" stroke="#63b8ff" points="149.82,-74.43 159.88,-77.73 154.07,-68.87 149.82,-74.43"/>
</a>
</g>
</g>
<!-- Node3 -->
<g id="Node000003" class="node">
<title>Node3</title>
<g id="a_Node000003"><a xlink:title=" ">
<polygon fill="white" stroke="#666666" points="109.5,-185 53.5,-185 53.5,-166 109.5,-166 109.5,-185"/>
<text text-anchor="middle" x="81.5" y="-173" font-family="Helvetica,sans-Serif" font-size="10.00">Callable</text>
</a>
</g>
</g>
<!-- Node3&#45;&gt;Node1 -->
<g id="edge4_Node000001_Node000003" class="edge">
<title>Node3&#45;&gt;Node1</title>
<g id="a_edge4_Node000001_Node000003"><a xlink:title=" ">
<path fill="none" stroke="#9a32cd" stroke-dasharray="5,2" d="M71.93,-156.89C62.63,-137.56 50.83,-105.6 57.5,-78 60.63,-65.03 67.28,-51.7 73.43,-41.25"/>
<polygon fill="#9a32cd" stroke="#9a32cd" points="68.91,-158.67 76.57,-165.99 75.14,-155.49 68.91,-158.67"/>
</a>
</g>
<text text-anchor="middle" x="70" y="-90.5" font-family="Helvetica,sans-Serif" font-size="10.00" fill="grey"> func</text>
</g>
<!-- Node3&#45;&gt;Node2 -->
<g id="edge2_Node000002_Node000003" class="edge">
<title>Node3&#45;&gt;Node2</title>
<g id="a_edge2_Node000002_Node000003"><a xlink:title=" ">
<path fill="none" stroke="#9a32cd" stroke-dasharray="5,2" d="M99.77,-159.34C117.46,-144.66 144.07,-122.57 161.37,-108.22"/>
<polygon fill="#9a32cd" stroke="#9a32cd" points="97.34,-156.81 91.88,-165.89 101.81,-162.19 97.34,-156.81"/>
</a>
</g>
<text text-anchor="middle" x="152" y="-134.5" font-family="Helvetica,sans-Serif" font-size="10.00" fill="grey"> func</text>
</g>
<!-- Node4 -->
<g id="Node000004" class="node">
<title>Node4</title>
<g id="a_Node000004"><a xlink:title=" ">
<polygon fill="white" stroke="#666666" points="197.5,-185 159.5,-185 159.5,-166 197.5,-166 197.5,-185"/>
<text text-anchor="middle" x="178.5" y="-173" font-family="Helvetica,sans-Serif" font-size="10.00">float</text>
</a>
</g>
</g>
<!-- Node4&#45;&gt;Node2 -->
<g id="edge3_Node000002_Node000004" class="edge">
<title>Node4&#45;&gt;Node2</title>
<g id="a_edge3_Node000002_Node000004"><a xlink:title=" ">
<path fill="none" stroke="#9a32cd" stroke-dasharray="5,2" d="M178.5,-155.6C178.5,-141.1 178.5,-121.4 178.5,-108.22"/>
<polygon fill="#9a32cd" stroke="#9a32cd" points="175,-155.89 178.5,-165.89 182,-155.89 175,-155.89"/>
</a>
</g>
<text text-anchor="middle" x="197" y="-140" font-family="Helvetica,sans-Serif" font-size="10.00" fill="grey"> _vmax</text>
<text text-anchor="middle" x="197" y="-129" font-family="Helvetica,sans-Serif" font-size="10.00" fill="grey">_vmin</text>
</g>
</g>
</svg>
