<?xml version="1.0" encoding="UTF-8" standalone="no"?>
<!DOCTYPE svg PUBLIC "-//W3C//DTD SVG 1.1//EN"
 "http://www.w3.org/Graphics/SVG/1.1/DTD/svg11.dtd">
<!-- Generated by graphviz version 2.43.0 (0)
 -->
<!-- Title: aopp_deconv_tool.psf_model.adaptive_optics_psf_model.PSFModel.at Pages: 1 -->
<svg width="366pt" height="291pt"
 viewBox="0.00 0.00 366.00 291.00" xmlns="http://www.w3.org/2000/svg" xmlns:xlink="http://www.w3.org/1999/xlink">
<g id="graph0" class="graph" transform="scale(1 1) rotate(0) translate(4 287)">
<title>aopp_deconv_tool.psf_model.adaptive_optics_psf_model.PSFModel.at</title>
<!-- Node1 -->
<g id="node1" class="node">
<title>Node1</title>
<g id="a_node1"><a xlink:title=" ">
<polygon fill="#bfbfbf" stroke="black" points="0,-115 0,-156 137,-156 137,-115 0,-115"/>
<text text-anchor="start" x="8" y="-144" font-family="Helvetica,sans-Serif" font-size="10.00">aopp_deconv_tool.psf</text>
<text text-anchor="start" x="8" y="-133" font-family="Helvetica,sans-Serif" font-size="10.00">_model.adaptive_optics</text>
<text text-anchor="middle" x="68.5" y="-122" font-family="Helvetica,sans-Serif" font-size="10.00">_psf_model.PSFModel.at</text>
</a>
</g>
</g>
<!-- Node2 -->
<g id="node2" class="node">
<title>Node2</title>
<g id="a_node2"><a xlink:href="../../d5/de7/classaopp__deconv__tool_1_1psf__model_1_1adaptive__optics__psf__model_1_1PSFModel.html#ad3bbea09b6a560ef48ca3d8dca2dd25c" target="_top" xlink:title=" ">
<polygon fill="none" stroke="black" points="191.5,-230.5 191.5,-282.5 339.5,-282.5 339.5,-230.5 191.5,-230.5"/>
<text text-anchor="start" x="199.5" y="-270.5" font-family="Helvetica,sans-Serif" font-size="10.00">aopp_deconv_tool.psf</text>
<text text-anchor="start" x="199.5" y="-259.5" font-family="Helvetica,sans-Serif" font-size="10.00">_model.adaptive_optics</text>
<text text-anchor="start" x="199.5" y="-248.5" font-family="Helvetica,sans-Serif" font-size="10.00">_psf_model.PSFModel.ao</text>
<text text-anchor="middle" x="265.5" y="-237.5" font-family="Helvetica,sans-Serif" font-size="10.00">_corrections_to_phase_psd</text>
</a>
</g>
</g>
<!-- Node1&#45;&gt;Node2 -->
<g id="edge1" class="edge">
<title>Node1&#45;&gt;Node2</title>
<path fill="none" stroke="midnightblue" d="M90.61,-156.23C110.54,-174.93 141.93,-202.24 173,-220.5 176.21,-222.38 179.53,-224.21 182.92,-225.97"/>
<polygon fill="midnightblue" stroke="midnightblue" points="181.54,-229.19 192.06,-230.48 184.64,-222.91 181.54,-229.19"/>
</g>
<!-- Node3 -->
<g id="node3" class="node">
<title>Node3</title>
<g id="a_node3"><a xlink:href="../../d7/dea/namespaceaopp__deconv__tool_1_1psf__model_1_1adaptive__optics__psf__model.html#af312cda794f269eb0057a72628667202" target="_top" xlink:title=" ">
<polygon fill="none" stroke="black" points="196.5,-170 196.5,-211 334.5,-211 334.5,-170 196.5,-170"/>
<text text-anchor="start" x="204.5" y="-199" font-family="Helvetica,sans-Serif" font-size="10.00">aopp_deconv_tool.psf</text>
<text text-anchor="start" x="204.5" y="-188" font-family="Helvetica,sans-Serif" font-size="10.00">_model.adaptive_optics</text>
<text text-anchor="middle" x="265.5" y="-177" font-family="Helvetica,sans-Serif" font-size="10.00">_psf_model.downsample</text>
</a>
</g>
</g>
<!-- Node1&#45;&gt;Node3 -->
<g id="edge2" class="edge">
<title>Node1&#45;&gt;Node3</title>
<path fill="none" stroke="midnightblue" d="M137.15,-154.58C153,-159.05 170.02,-163.85 186.29,-168.44"/>
<polygon fill="midnightblue" stroke="midnightblue" points="185.73,-171.92 196.3,-171.27 187.63,-165.18 185.73,-171.92"/>
</g>
<!-- Node4 -->
<g id="node4" class="node">
<title>Node4</title>
<g id="a_node4"><a xlink:href="../../da/da7/namespaceaopp__deconv__tool_1_1numpy__helper_1_1array_1_1mask_1_1interp.html#ad9d6c4de15860fdbfb0b7bffb289790f" target="_top" xlink:title=" ">
<polygon fill="none" stroke="black" points="179,-120.5 179,-150.5 352,-150.5 352,-120.5 179,-120.5"/>
<text text-anchor="start" x="187" y="-138.5" font-family="Helvetica,sans-Serif" font-size="10.00">aopp_deconv_tool.numpy</text>
<text text-anchor="middle" x="265.5" y="-127.5" font-family="Helvetica,sans-Serif" font-size="10.00">_helper.array.mask.interp.interp</text>
</a>
</g>
</g>
<!-- Node1&#45;&gt;Node4 -->
<g id="edge3" class="edge">
<title>Node1&#45;&gt;Node4</title>
<path fill="none" stroke="midnightblue" d="M137.15,-135.5C147.32,-135.5 157.97,-135.5 168.6,-135.5"/>
<polygon fill="midnightblue" stroke="midnightblue" points="168.76,-139 178.76,-135.5 168.76,-132 168.76,-139"/>
</g>
<!-- Node5 -->
<g id="node5" class="node">
<title>Node5</title>
<g id="a_node5"><a xlink:href="../../d5/de7/classaopp__deconv__tool_1_1psf__model_1_1adaptive__optics__psf__model_1_1PSFModel.html#a6c5d57233e4d91fc998b59b6f9d591d1" target="_top" xlink:title=" ">
<polygon fill="none" stroke="black" points="173,-49.5 173,-101.5 358,-101.5 358,-49.5 173,-49.5"/>
<text text-anchor="start" x="181" y="-89.5" font-family="Helvetica,sans-Serif" font-size="10.00">aopp_deconv_tool.psf</text>
<text text-anchor="start" x="181" y="-78.5" font-family="Helvetica,sans-Serif" font-size="10.00">_model.adaptive_optics</text>
<text text-anchor="start" x="181" y="-67.5" font-family="Helvetica,sans-Serif" font-size="10.00">_psf_model.PSFModel.optical</text>
<text text-anchor="middle" x="265.5" y="-56.5" font-family="Helvetica,sans-Serif" font-size="10.00">_transfer_fuction_from_phase_psd</text>
</a>
</g>
</g>
<!-- Node1&#45;&gt;Node5 -->
<g id="edge4" class="edge">
<title>Node1&#45;&gt;Node5</title>
<path fill="none" stroke="midnightblue" d="M136.34,-114.94C147.27,-111.57 158.79,-108.03 170.24,-104.5"/>
<polygon fill="midnightblue" stroke="midnightblue" points="171.3,-107.84 179.83,-101.55 169.24,-101.15 171.3,-107.84"/>
</g>
<!-- Node6 -->
<g id="node6" class="node">
<title>Node6</title>
<g id="a_node6"><a xlink:href="../../de/d99/namespaceaopp__deconv__tool_1_1geo__array.html#a300fb220a527967dcb71fd53a8ca2a92" target="_top" xlink:title=" ">
<polygon fill="none" stroke="black" points="202.5,-0.5 202.5,-30.5 328.5,-30.5 328.5,-0.5 202.5,-0.5"/>
<text text-anchor="start" x="210.5" y="-18.5" font-family="Helvetica,sans-Serif" font-size="10.00">aopp_deconv_tool.geo</text>
<text text-anchor="middle" x="265.5" y="-7.5" font-family="Helvetica,sans-Serif" font-size="10.00">_array.plot_ga</text>
</a>
</g>
</g>
<!-- Node1&#45;&gt;Node6 -->
<g id="edge5" class="edge">
<title>Node1&#45;&gt;Node6</title>
<path fill="none" stroke="midnightblue" d="M86.78,-114.61C105.76,-92.98 138.2,-59.72 173,-40.5 179.24,-37.05 185.99,-34.05 192.9,-31.45"/>
<polygon fill="midnightblue" stroke="midnightblue" points="194.09,-34.75 202.38,-28.15 191.79,-28.14 194.09,-34.75"/>
</g>
</g>
</svg>
