<?xml version="1.0" encoding="UTF-8" standalone="no"?>
<!DOCTYPE svg PUBLIC "-//W3C//DTD SVG 1.1//EN"
 "http://www.w3.org/Graphics/SVG/1.1/DTD/svg11.dtd">
<!-- Generated by graphviz version 2.43.0 (0)
 -->
<!-- Title: aopp_deconv_tool.interpolate.InterpolationStratInfo Pages: 1 -->
<svg width="205pt" height="182pt"
 viewBox="0.00 0.00 204.50 182.00" xmlns="http://www.w3.org/2000/svg" xmlns:xlink="http://www.w3.org/1999/xlink">

<svg id="main" version="1.1" xmlns="http://www.w3.org/2000/svg" xmlns:xlink="http://www.w3.org/1999/xlink" xml:space="preserve" onload="init(evt)">
<style type="text/css"><![CDATA[
.node, .edge {opacity: 0.7;}
.node.selected, .edge.selected {opacity: 1;}
.edge:hover path { stroke: red; }
.edge:hover polygon { stroke: red; fill: red; }
]]></style>
<script type="application/ecmascript" xlink:href="../../svg.min.js"/>
<svg id="graph" class="graph">
<g id="graph0" class="graph" transform="scale(1 1) rotate(0) translate(4 178)">
<title>aopp_deconv_tool.interpolate.InterpolationStratInfo</title>
<!-- Node1 -->
<g id="Node000001" class="node">
<title>Node1</title>
<g id="a_Node000001"><a xlink:title=" ">
<polygon fill="#999999" stroke="#666666" points="196.5,-30 32.5,-30 32.5,0 196.5,0 196.5,-30"/>
<text text-anchor="start" x="40.5" y="-18" font-family="Helvetica,sans-Serif" font-size="10.00">aopp_deconv_tool.interpolate.</text>
<text text-anchor="middle" x="114.5" y="-7" font-family="Helvetica,sans-Serif" font-size="10.00">InterpolationStratInfo</text>
</a>
</g>
</g>
<!-- Node2 -->
<g id="Node000002" class="node">
<title>Node2</title>
<g id="a_Node000002"><a xlink:href="../../d3/d9c/classaopp__deconv__tool_1_1task__strat_1_1TaskStratInfo.html" target="_top" xlink:title=" ">
<polygon fill="white" stroke="#666666" points="129,-97 0,-97 0,-67 129,-67 129,-97"/>
<text text-anchor="start" x="8" y="-85" font-family="Helvetica,sans-Serif" font-size="10.00">aopp_deconv_tool.task</text>
<text text-anchor="middle" x="64.5" y="-74" font-family="Helvetica,sans-Serif" font-size="10.00">_strat.TaskStratInfo</text>
</a>
</g>
</g>
<!-- Node2&#45;&gt;Node1 -->
<g id="edge1_Node000001_Node000002" class="edge">
<title>Node2&#45;&gt;Node1</title>
<g id="a_edge1_Node000001_Node000002"><a xlink:title=" ">
<path fill="none" stroke="#63b8ff" d="M81.46,-58.95C88.81,-49.4 97.19,-38.5 103.67,-30.08"/>
<polygon fill="#63b8ff" stroke="#63b8ff" points="78.67,-56.84 75.35,-66.9 84.22,-61.1 78.67,-56.84"/>
</a>
</g>
</g>
<!-- Node3 -->
<g id="Node000003" class="node">
<title>Node3</title>
<g id="a_Node000003"><a xlink:title=" ">
<polygon fill="white" stroke="#666666" points="42,-174 13,-174 13,-155 42,-155 42,-174"/>
<text text-anchor="middle" x="27.5" y="-162" font-family="Helvetica,sans-Serif" font-size="10.00">str</text>
</a>
</g>
</g>
<!-- Node3&#45;&gt;Node2 -->
<g id="edge2_Node000002_Node000003" class="edge">
<title>Node3&#45;&gt;Node2</title>
<g id="a_edge2_Node000002_Node000003"><a xlink:title=" ">
<path fill="none" stroke="#9a32cd" stroke-dasharray="5,2" d="M24.45,-144.62C23.79,-135.3 24.28,-124.13 28.5,-115 31.65,-108.17 37.04,-102.18 42.7,-97.3"/>
<polygon fill="#9a32cd" stroke="#9a32cd" points="21.01,-145.29 25.67,-154.8 27.96,-144.46 21.01,-145.29"/>
</a>
</g>
<text text-anchor="middle" x="57.5" y="-129" font-family="Helvetica,sans-Serif" font-size="10.00" fill="grey"> description</text>
<text text-anchor="middle" x="57.5" y="-118" font-family="Helvetica,sans-Serif" font-size="10.00" fill="grey">name</text>
</g>
<!-- Node4 -->
<g id="Node000004" class="node">
<title>Node4</title>
<g id="a_Node000004"><a xlink:title=" ">
<polygon fill="white" stroke="#666666" points="164.5,-174 108.5,-174 108.5,-155 164.5,-155 164.5,-174"/>
<text text-anchor="middle" x="136.5" y="-162" font-family="Helvetica,sans-Serif" font-size="10.00">Callable</text>
</a>
</g>
</g>
<!-- Node4&#45;&gt;Node1 -->
<g id="edge4_Node000001_Node000004" class="edge">
<title>Node4&#45;&gt;Node1</title>
<g id="a_edge4_Node000001_Node000004"><a xlink:title=" ">
<path fill="none" stroke="#9a32cd" stroke-dasharray="5,2" d="M148.13,-145.8C149.52,-142.96 150.72,-139.97 151.5,-137 153.99,-127.54 152.88,-124.68 151.5,-115 146.98,-83.39 131.51,-49.02 122.07,-30.24"/>
<polygon fill="#9a32cd" stroke="#9a32cd" points="144.97,-144.27 143.02,-154.69 151.04,-147.76 144.97,-144.27"/>
</a>
</g>
<text text-anchor="middle" x="168.5" y="-79.5" font-family="Helvetica,sans-Serif" font-size="10.00" fill="grey"> callable</text>
</g>
<!-- Node4&#45;&gt;Node2 -->
<g id="edge3_Node000002_Node000004" class="edge">
<title>Node4&#45;&gt;Node2</title>
<g id="a_edge3_Node000002_Node000004"><a xlink:title=" ">
<path fill="none" stroke="#9a32cd" stroke-dasharray="5,2" d="M119.96,-147.78C116.44,-144.3 112.79,-140.57 109.5,-137 97.42,-123.9 84.49,-108.18 75.6,-97.09"/>
<polygon fill="#9a32cd" stroke="#9a32cd" points="117.66,-150.43 127.27,-154.89 122.54,-145.41 117.66,-150.43"/>
</a>
</g>
<text text-anchor="middle" x="130.5" y="-123.5" font-family="Helvetica,sans-Serif" font-size="10.00" fill="grey"> callable</text>
</g>
</g>
</svg>
</svg>

<style type='text/css'>
<![CDATA[
[data-mouse-over-selected='false'] { opacity: 0.7; }
[data-mouse-over-selected='true']  { opacity: 1.0; }
]]>
</style>
<script type="application/ecmascript"><![CDATA[
document.addEventListener('DOMContentLoaded', (event) => {
  highlightEdges();
  highlightAdjacentNodes();
});
]]></script>
</svg>
