<?xml version="1.0" encoding="UTF-8" standalone="no"?>
<!DOCTYPE svg PUBLIC "-//W3C//DTD SVG 1.1//EN"
 "http://www.w3.org/Graphics/SVG/1.1/DTD/svg11.dtd">
<!-- Generated by graphviz version 2.43.0 (0)
 -->
<!-- Title: aopp_deconv_tool.create_bad_pixel_mask.exec_with_args Pages: 1 -->
<svg width="797pt" height="136pt"
 viewBox="0.00 0.00 797.00 135.50" xmlns="http://www.w3.org/2000/svg" xmlns:xlink="http://www.w3.org/1999/xlink">
<g id="graph0" class="graph" transform="scale(1 1) rotate(0) translate(4 131.5)">
<title>aopp_deconv_tool.create_bad_pixel_mask.exec_with_args</title>
<!-- Node1 -->
<g id="Node000001" class="node">
<title>Node1</title>
<g id="a_Node000001"><a xlink:title=" ">
<polygon fill="#999999" stroke="#666666" points="179,-103.5 0,-103.5 0,-73.5 179,-73.5 179,-103.5"/>
<text text-anchor="start" x="8" y="-91.5" font-family="Helvetica,sans-Serif" font-size="10.00">aopp_deconv_tool.create</text>
<text text-anchor="middle" x="89.5" y="-80.5" font-family="Helvetica,sans-Serif" font-size="10.00">_bad_pixel_mask.exec_with_args</text>
</a>
</g>
</g>
<!-- Node1&#45;&gt;Node1 -->
<g id="edge1_Node000001_Node000001" class="edge">
<title>Node1&#45;&gt;Node1</title>
<g id="a_edge1_Node000001_Node000001"><a xlink:title=" ">
<path fill="none" stroke="#63b8ff" d="M53.64,-103.78C45.67,-112.91 57.62,-121.5 89.5,-121.5 108.43,-121.5 120.33,-118.47 125.21,-114.1"/>
<polygon fill="#63b8ff" stroke="#63b8ff" points="128.71,-113.83 125.36,-103.78 121.71,-113.72 128.71,-113.83"/>
</a>
</g>
</g>
<!-- Node2 -->
<g id="Node000002" class="node">
<title>Node2</title>
<g id="a_Node000002"><a xlink:href="../../d1/d07/namespaceaopp__deconv__tool_1_1create__bad__pixel__mask.html#a3e8a19668379e07eef1c7843551a8b12" target="_top" xlink:title=" ">
<polygon fill="white" stroke="#666666" points="372,-127.5 215,-127.5 215,-97.5 372,-97.5 372,-127.5"/>
<text text-anchor="start" x="223" y="-115.5" font-family="Helvetica,sans-Serif" font-size="10.00">aopp_deconv_tool.create</text>
<text text-anchor="middle" x="293.5" y="-104.5" font-family="Helvetica,sans-Serif" font-size="10.00">_bad_pixel_mask.parse_args</text>
</a>
</g>
</g>
<!-- Node1&#45;&gt;Node2 -->
<g id="edge2_Node000001_Node000002" class="edge">
<title>Node1&#45;&gt;Node2</title>
<g id="a_edge2_Node000001_Node000002"><a xlink:title=" ">
<path fill="none" stroke="#63b8ff" d="M179.1,-99.03C187.63,-100.04 196.29,-101.07 204.81,-102.08"/>
<polygon fill="#63b8ff" stroke="#63b8ff" points="204.4,-105.56 214.74,-103.26 205.23,-98.61 204.4,-105.56"/>
</a>
</g>
</g>
<!-- Node5 -->
<g id="Node000005" class="node">
<title>Node5</title>
<g id="a_Node000005"><a xlink:href="../../d1/d07/namespaceaopp__deconv__tool_1_1create__bad__pixel__mask.html#a682bc2ed60b422fd25b8e129eaaecf37" target="_top" xlink:title=" ">
<polygon fill="white" stroke="#666666" points="363,-79.5 224,-79.5 224,-49.5 363,-49.5 363,-79.5"/>
<text text-anchor="start" x="232" y="-67.5" font-family="Helvetica,sans-Serif" font-size="10.00">aopp_deconv_tool.create</text>
<text text-anchor="middle" x="293.5" y="-56.5" font-family="Helvetica,sans-Serif" font-size="10.00">_bad_pixel_mask.run</text>
</a>
</g>
</g>
<!-- Node1&#45;&gt;Node5 -->
<g id="edge5_Node000001_Node000005" class="edge">
<title>Node1&#45;&gt;Node5</title>
<g id="a_edge5_Node000001_Node000005"><a xlink:title=" ">
<path fill="none" stroke="#63b8ff" d="M179.1,-77.97C190.54,-76.61 202.2,-75.23 213.48,-73.89"/>
<polygon fill="#63b8ff" stroke="#63b8ff" points="214.19,-77.33 223.71,-72.67 213.36,-70.38 214.19,-77.33"/>
</a>
</g>
</g>
<!-- Node3 -->
<g id="Node000003" class="node">
<title>Node3</title>
<g id="a_Node000003"><a xlink:href="../../d8/d5b/namespaceaopp__deconv__tool_1_1text.html#a75d81e58c71da89b56473e2616edd1c6" target="_top" xlink:title=" ">
<polygon fill="white" stroke="#666666" points="571.5,-122 416.5,-122 416.5,-103 571.5,-103 571.5,-122"/>
<text text-anchor="middle" x="494" y="-110" font-family="Helvetica,sans-Serif" font-size="10.00">aopp_deconv_tool.text.wrap</text>
</a>
</g>
</g>
<!-- Node2&#45;&gt;Node3 -->
<g id="edge3_Node000002_Node000003" class="edge">
<title>Node2&#45;&gt;Node3</title>
<g id="a_edge3_Node000002_Node000003"><a xlink:title=" ">
<path fill="none" stroke="#63b8ff" d="M372.1,-112.5C383.25,-112.5 394.79,-112.5 406.11,-112.5"/>
<polygon fill="#63b8ff" stroke="#63b8ff" points="406.43,-116 416.43,-112.5 406.43,-109 406.43,-116"/>
</a>
</g>
</g>
<!-- Node4 -->
<g id="Node000004" class="node">
<title>Node4</title>
<g id="a_Node000004"><a xlink:href="../../d8/d5b/namespaceaopp__deconv__tool_1_1text.html#a1496cf89a275b1b851ff81f401628c27" target="_top" xlink:title=" ">
<polygon fill="white" stroke="#666666" points="789,-127.5 616,-127.5 616,-97.5 789,-97.5 789,-127.5"/>
<text text-anchor="start" x="624" y="-115.5" font-family="Helvetica,sans-Serif" font-size="10.00">aopp_deconv_tool.text.combine</text>
<text text-anchor="middle" x="702.5" y="-104.5" font-family="Helvetica,sans-Serif" font-size="10.00">_lines_with_same_indent</text>
</a>
</g>
</g>
<!-- Node3&#45;&gt;Node4 -->
<g id="edge4_Node000003_Node000004" class="edge">
<title>Node3&#45;&gt;Node4</title>
<g id="a_edge4_Node000003_Node000004"><a xlink:title=" ">
<path fill="none" stroke="#63b8ff" d="M571.6,-112.5C582.79,-112.5 594.42,-112.5 605.92,-112.5"/>
<polygon fill="#63b8ff" stroke="#63b8ff" points="605.99,-116 615.99,-112.5 605.99,-109 605.99,-116"/>
</a>
</g>
</g>
<!-- Node6 -->
<g id="Node000006" class="node">
<title>Node6</title>
<g id="a_Node000006"><a xlink:href="../../d1/d07/namespaceaopp__deconv__tool_1_1create__bad__pixel__mask.html#aa5d616fc489bafa04ef95d10cfdeb457" target="_top" xlink:title=" ">
<polygon fill="white" stroke="#666666" points="780.5,-60 624.5,-60 624.5,-19 780.5,-19 780.5,-60"/>
<text text-anchor="start" x="632.5" y="-48" font-family="Helvetica,sans-Serif" font-size="10.00">aopp_deconv_tool.create</text>
<text text-anchor="start" x="632.5" y="-37" font-family="Helvetica,sans-Serif" font-size="10.00">_bad_pixel_mask.load_const</text>
<text text-anchor="middle" x="702.5" y="-26" font-family="Helvetica,sans-Serif" font-size="10.00">_regions</text>
</a>
</g>
</g>
<!-- Node5&#45;&gt;Node6 -->
<g id="edge6_Node000005_Node000006" class="edge">
<title>Node5&#45;&gt;Node6</title>
<g id="a_edge6_Node000005_Node000006"><a xlink:title=" ">
<path fill="none" stroke="#63b8ff" d="M363.18,-61.46C421.03,-58.77 505.96,-54.49 580,-49.5 591.11,-48.75 602.78,-47.89 614.31,-46.99"/>
<polygon fill="#63b8ff" stroke="#63b8ff" points="614.7,-50.47 624.4,-46.19 614.15,-43.49 614.7,-50.47"/>
</a>
</g>
</g>
<!-- Node7 -->
<g id="Node000007" class="node">
<title>Node7</title>
<g id="a_Node000007"><a xlink:href="../../d1/d07/namespaceaopp__deconv__tool_1_1create__bad__pixel__mask.html#a31de10f018aa0c06b54e060a5536c9c8" target="_top" xlink:title=" ">
<polygon fill="white" stroke="#666666" points="580,-41 408,-41 408,0 580,0 580,-41"/>
<text text-anchor="start" x="416" y="-29" font-family="Helvetica,sans-Serif" font-size="10.00">aopp_deconv_tool.create</text>
<text text-anchor="start" x="416" y="-18" font-family="Helvetica,sans-Serif" font-size="10.00">_bad_pixel_mask.load_dynamic</text>
<text text-anchor="middle" x="494" y="-7" font-family="Helvetica,sans-Serif" font-size="10.00">_regions</text>
</a>
</g>
</g>
<!-- Node5&#45;&gt;Node7 -->
<g id="edge7_Node000005_Node000007" class="edge">
<title>Node5&#45;&gt;Node7</title>
<g id="a_edge7_Node000005_Node000007"><a xlink:title=" ">
<path fill="none" stroke="#63b8ff" d="M362.26,-49.48C373.75,-46.93 385.87,-44.25 397.92,-41.58"/>
<polygon fill="#63b8ff" stroke="#63b8ff" points="398.99,-44.92 408,-39.34 397.48,-38.09 398.99,-44.92"/>
</a>
</g>
</g>
<!-- Node7&#45;&gt;Node6 -->
<g id="edge8_Node000007_Node000006" class="edge">
<title>Node7&#45;&gt;Node6</title>
<g id="a_edge8_Node000007_Node000006"><a xlink:title=" ">
<path fill="none" stroke="#63b8ff" d="M580.18,-28.34C591.41,-29.37 602.93,-30.43 614.2,-31.47"/>
<polygon fill="#63b8ff" stroke="#63b8ff" points="614.17,-34.98 624.45,-32.41 614.81,-28.01 614.17,-34.98"/>
</a>
</g>
</g>
</g>
</svg>
