<?xml version="1.0" encoding="UTF-8" standalone="no"?>
<!DOCTYPE svg PUBLIC "-//W3C//DTD SVG 1.1//EN"
 "http://www.w3.org/Graphics/SVG/1.1/DTD/svg11.dtd">
<!-- Generated by graphviz version 2.43.0 (0)
 -->
<!-- Title: aopp_deconv_tool.create_bad_pixel_mask.go Pages: 1 -->
<svg width="1002pt" height="178pt"
 viewBox="0.00 0.00 1002.00 177.50" xmlns="http://www.w3.org/2000/svg" xmlns:xlink="http://www.w3.org/1999/xlink">
<g id="graph0" class="graph" transform="scale(1 1) rotate(0) translate(4 173.5)">
<title>aopp_deconv_tool.create_bad_pixel_mask.go</title>
<!-- Node1 -->
<g id="Node000001" class="node">
<title>Node1</title>
<g id="a_Node000001"><a xlink:title=" ">
<polygon fill="#999999" stroke="#666666" points="139,-136.5 0,-136.5 0,-106.5 139,-106.5 139,-136.5"/>
<text text-anchor="start" x="8" y="-124.5" font-family="Helvetica,sans-Serif" font-size="10.00">aopp_deconv_tool.create</text>
<text text-anchor="middle" x="69.5" y="-113.5" font-family="Helvetica,sans-Serif" font-size="10.00">_bad_pixel_mask.go</text>
</a>
</g>
</g>
<!-- Node2 -->
<g id="Node000002" class="node">
<title>Node2</title>
<g id="a_Node000002"><a xlink:href="../../da/d5f/namespaceaopp__deconv__tool_1_1arguments.html#aec2c9d770d31aa257cf89a398d910714" target="_top" xlink:title=" ">
<polygon fill="white" stroke="#666666" points="384,-169.5 175,-169.5 175,-139.5 384,-139.5 384,-169.5"/>
<text text-anchor="start" x="183" y="-157.5" font-family="Helvetica,sans-Serif" font-size="10.00">aopp_deconv_tool.arguments.construct</text>
<text text-anchor="middle" x="279.5" y="-146.5" font-family="Helvetica,sans-Serif" font-size="10.00">_arglist_from_locals</text>
</a>
</g>
</g>
<!-- Node1&#45;&gt;Node2 -->
<g id="edge1_Node000001_Node000002" class="edge">
<title>Node1&#45;&gt;Node2</title>
<g id="a_edge1_Node000001_Node000002"><a xlink:title=" ">
<path fill="none" stroke="#63b8ff" d="M139.18,-132.4C150.37,-134.17 162.17,-136.04 173.99,-137.92"/>
<polygon fill="#63b8ff" stroke="#63b8ff" points="173.47,-141.38 183.9,-139.49 174.57,-134.47 173.47,-141.38"/>
</a>
</g>
</g>
<!-- Node3 -->
<g id="Node000003" class="node">
<title>Node3</title>
<g id="a_Node000003"><a xlink:href="../../d1/d07/namespaceaopp__deconv__tool_1_1create__bad__pixel__mask.html#a0aa99e7152235361dccbaa951b53d825" target="_top" xlink:title=" ">
<polygon fill="white" stroke="#666666" points="369,-103.5 190,-103.5 190,-73.5 369,-73.5 369,-103.5"/>
<text text-anchor="start" x="198" y="-91.5" font-family="Helvetica,sans-Serif" font-size="10.00">aopp_deconv_tool.create</text>
<text text-anchor="middle" x="279.5" y="-80.5" font-family="Helvetica,sans-Serif" font-size="10.00">_bad_pixel_mask.exec_with_args</text>
</a>
</g>
</g>
<!-- Node1&#45;&gt;Node3 -->
<g id="edge2_Node000001_Node000003" class="edge">
<title>Node1&#45;&gt;Node3</title>
<g id="a_edge2_Node000001_Node000003"><a xlink:title=" ">
<path fill="none" stroke="#63b8ff" d="M139.18,-110.6C152.23,-108.53 166.11,-106.33 179.88,-104.15"/>
<polygon fill="#63b8ff" stroke="#63b8ff" points="180.53,-107.59 189.86,-102.56 179.43,-100.67 180.53,-107.59"/>
</a>
</g>
</g>
<!-- Node3&#45;&gt;Node3 -->
<g id="edge3_Node000003_Node000003" class="edge">
<title>Node3&#45;&gt;Node3</title>
<g id="a_edge3_Node000003_Node000003"><a xlink:title=" ">
<path fill="none" stroke="#63b8ff" d="M242.59,-103.78C234.38,-112.91 246.69,-121.5 279.5,-121.5 298.98,-121.5 311.24,-118.47 316.26,-114.1"/>
<polygon fill="#63b8ff" stroke="#63b8ff" points="319.76,-113.83 316.41,-103.78 312.76,-113.72 319.76,-113.83"/>
</a>
</g>
</g>
<!-- Node4 -->
<g id="Node000004" class="node">
<title>Node4</title>
<g id="a_Node000004"><a xlink:href="../../d1/d07/namespaceaopp__deconv__tool_1_1create__bad__pixel__mask.html#a3e8a19668379e07eef1c7843551a8b12" target="_top" xlink:title=" ">
<polygon fill="white" stroke="#666666" points="577,-127.5 420,-127.5 420,-97.5 577,-97.5 577,-127.5"/>
<text text-anchor="start" x="428" y="-115.5" font-family="Helvetica,sans-Serif" font-size="10.00">aopp_deconv_tool.create</text>
<text text-anchor="middle" x="498.5" y="-104.5" font-family="Helvetica,sans-Serif" font-size="10.00">_bad_pixel_mask.parse_args</text>
</a>
</g>
</g>
<!-- Node3&#45;&gt;Node4 -->
<g id="edge4_Node000003_Node000004" class="edge">
<title>Node3&#45;&gt;Node4</title>
<g id="a_edge4_Node000003_Node000004"><a xlink:title=" ">
<path fill="none" stroke="#63b8ff" d="M369.08,-98.3C382.52,-99.78 396.39,-101.32 409.82,-102.8"/>
<polygon fill="#63b8ff" stroke="#63b8ff" points="409.67,-106.31 419.99,-103.93 410.44,-99.35 409.67,-106.31"/>
</a>
</g>
</g>
<!-- Node7 -->
<g id="Node000007" class="node">
<title>Node7</title>
<g id="a_Node000007"><a xlink:href="../../d1/d07/namespaceaopp__deconv__tool_1_1create__bad__pixel__mask.html#a682bc2ed60b422fd25b8e129eaaecf37" target="_top" xlink:title=" ">
<polygon fill="white" stroke="#666666" points="568,-79.5 429,-79.5 429,-49.5 568,-49.5 568,-79.5"/>
<text text-anchor="start" x="437" y="-67.5" font-family="Helvetica,sans-Serif" font-size="10.00">aopp_deconv_tool.create</text>
<text text-anchor="middle" x="498.5" y="-56.5" font-family="Helvetica,sans-Serif" font-size="10.00">_bad_pixel_mask.run</text>
</a>
</g>
</g>
<!-- Node3&#45;&gt;Node7 -->
<g id="edge7_Node000003_Node000007" class="edge">
<title>Node3&#45;&gt;Node7</title>
<g id="a_edge7_Node000003_Node000007"><a xlink:title=" ">
<path fill="none" stroke="#63b8ff" d="M369.08,-78.7C385.42,-76.9 402.39,-75.02 418.43,-73.25"/>
<polygon fill="#63b8ff" stroke="#63b8ff" points="419.26,-76.67 428.82,-72.1 418.49,-69.72 419.26,-76.67"/>
</a>
</g>
</g>
<!-- Node5 -->
<g id="Node000005" class="node">
<title>Node5</title>
<g id="a_Node000005"><a xlink:href="../../d8/d5b/namespaceaopp__deconv__tool_1_1text.html#a75d81e58c71da89b56473e2616edd1c6" target="_top" xlink:title=" ">
<polygon fill="white" stroke="#666666" points="776.5,-122 621.5,-122 621.5,-103 776.5,-103 776.5,-122"/>
<text text-anchor="middle" x="699" y="-110" font-family="Helvetica,sans-Serif" font-size="10.00">aopp_deconv_tool.text.wrap</text>
</a>
</g>
</g>
<!-- Node4&#45;&gt;Node5 -->
<g id="edge5_Node000004_Node000005" class="edge">
<title>Node4&#45;&gt;Node5</title>
<g id="a_edge5_Node000004_Node000005"><a xlink:title=" ">
<path fill="none" stroke="#63b8ff" d="M577.1,-112.5C588.25,-112.5 599.79,-112.5 611.11,-112.5"/>
<polygon fill="#63b8ff" stroke="#63b8ff" points="611.43,-116 621.43,-112.5 611.43,-109 611.43,-116"/>
</a>
</g>
</g>
<!-- Node6 -->
<g id="Node000006" class="node">
<title>Node6</title>
<g id="a_Node000006"><a xlink:href="../../d8/d5b/namespaceaopp__deconv__tool_1_1text.html#a1496cf89a275b1b851ff81f401628c27" target="_top" xlink:title=" ">
<polygon fill="white" stroke="#666666" points="994,-127.5 821,-127.5 821,-97.5 994,-97.5 994,-127.5"/>
<text text-anchor="start" x="829" y="-115.5" font-family="Helvetica,sans-Serif" font-size="10.00">aopp_deconv_tool.text.combine</text>
<text text-anchor="middle" x="907.5" y="-104.5" font-family="Helvetica,sans-Serif" font-size="10.00">_lines_with_same_indent</text>
</a>
</g>
</g>
<!-- Node5&#45;&gt;Node6 -->
<g id="edge6_Node000005_Node000006" class="edge">
<title>Node5&#45;&gt;Node6</title>
<g id="a_edge6_Node000005_Node000006"><a xlink:title=" ">
<path fill="none" stroke="#63b8ff" d="M776.6,-112.5C787.79,-112.5 799.42,-112.5 810.92,-112.5"/>
<polygon fill="#63b8ff" stroke="#63b8ff" points="810.99,-116 820.99,-112.5 810.99,-109 810.99,-116"/>
</a>
</g>
</g>
<!-- Node8 -->
<g id="Node000008" class="node">
<title>Node8</title>
<g id="a_Node000008"><a xlink:href="../../d1/d07/namespaceaopp__deconv__tool_1_1create__bad__pixel__mask.html#aa5d616fc489bafa04ef95d10cfdeb457" target="_top" xlink:title=" ">
<polygon fill="white" stroke="#666666" points="985.5,-60 829.5,-60 829.5,-19 985.5,-19 985.5,-60"/>
<text text-anchor="start" x="837.5" y="-48" font-family="Helvetica,sans-Serif" font-size="10.00">aopp_deconv_tool.create</text>
<text text-anchor="start" x="837.5" y="-37" font-family="Helvetica,sans-Serif" font-size="10.00">_bad_pixel_mask.load_const</text>
<text text-anchor="middle" x="907.5" y="-26" font-family="Helvetica,sans-Serif" font-size="10.00">_regions</text>
</a>
</g>
</g>
<!-- Node7&#45;&gt;Node8 -->
<g id="edge8_Node000007_Node000008" class="edge">
<title>Node7&#45;&gt;Node8</title>
<g id="a_edge8_Node000007_Node000008"><a xlink:title=" ">
<path fill="none" stroke="#63b8ff" d="M568.18,-61.46C626.03,-58.77 710.96,-54.49 785,-49.5 796.11,-48.75 807.78,-47.89 819.31,-46.99"/>
<polygon fill="#63b8ff" stroke="#63b8ff" points="819.7,-50.47 829.4,-46.19 819.15,-43.49 819.7,-50.47"/>
</a>
</g>
</g>
<!-- Node9 -->
<g id="Node000009" class="node">
<title>Node9</title>
<g id="a_Node000009"><a xlink:href="../../d1/d07/namespaceaopp__deconv__tool_1_1create__bad__pixel__mask.html#a31de10f018aa0c06b54e060a5536c9c8" target="_top" xlink:title=" ">
<polygon fill="white" stroke="#666666" points="785,-41 613,-41 613,0 785,0 785,-41"/>
<text text-anchor="start" x="621" y="-29" font-family="Helvetica,sans-Serif" font-size="10.00">aopp_deconv_tool.create</text>
<text text-anchor="start" x="621" y="-18" font-family="Helvetica,sans-Serif" font-size="10.00">_bad_pixel_mask.load_dynamic</text>
<text text-anchor="middle" x="699" y="-7" font-family="Helvetica,sans-Serif" font-size="10.00">_regions</text>
</a>
</g>
</g>
<!-- Node7&#45;&gt;Node9 -->
<g id="edge9_Node000007_Node000009" class="edge">
<title>Node7&#45;&gt;Node9</title>
<g id="a_edge9_Node000007_Node000009"><a xlink:title=" ">
<path fill="none" stroke="#63b8ff" d="M567.26,-49.48C578.75,-46.93 590.87,-44.25 602.92,-41.58"/>
<polygon fill="#63b8ff" stroke="#63b8ff" points="603.99,-44.92 613,-39.34 602.48,-38.09 603.99,-44.92"/>
</a>
</g>
</g>
<!-- Node9&#45;&gt;Node8 -->
<g id="edge10_Node000009_Node000008" class="edge">
<title>Node9&#45;&gt;Node8</title>
<g id="a_edge10_Node000009_Node000008"><a xlink:title=" ">
<path fill="none" stroke="#63b8ff" d="M785.18,-28.34C796.41,-29.37 807.93,-30.43 819.2,-31.47"/>
<polygon fill="#63b8ff" stroke="#63b8ff" points="819.17,-34.98 829.45,-32.41 819.81,-28.01 819.17,-34.98"/>
</a>
</g>
</g>
</g>
</svg>
