<?xml version="1.0" encoding="UTF-8" standalone="no"?>
<!DOCTYPE svg PUBLIC "-//W3C//DTD SVG 1.1//EN"
 "http://www.w3.org/Graphics/SVG/1.1/DTD/svg11.dtd">
<!-- Generated by graphviz version 2.43.0 (0)
 -->
<!-- Title: aopp_deconv_tool.create_bad_pixel_mask.load_const_regions Pages: 1 -->
<svg width="940pt" height="75pt"
 viewBox="0.00 0.00 940.00 75.00" xmlns="http://www.w3.org/2000/svg" xmlns:xlink="http://www.w3.org/1999/xlink">
<g id="graph0" class="graph" transform="scale(1 1) rotate(0) translate(4 71)">
<title>aopp_deconv_tool.create_bad_pixel_mask.load_const_regions</title>
<!-- Node1 -->
<g id="node1" class="node">
<title>Node1</title>
<g id="a_node1"><a xlink:title=" ">
<polygon fill="#bfbfbf" stroke="black" points="775,-0.5 775,-41.5 932,-41.5 932,-0.5 775,-0.5"/>
<text text-anchor="start" x="783" y="-29.5" font-family="Helvetica,sans-Serif" font-size="10.00">aopp_deconv_tool.create</text>
<text text-anchor="start" x="783" y="-18.5" font-family="Helvetica,sans-Serif" font-size="10.00">_bad_pixel_mask.load_const</text>
<text text-anchor="middle" x="853.5" y="-7.5" font-family="Helvetica,sans-Serif" font-size="10.00">_regions</text>
</a>
</g>
</g>
<!-- Node2 -->
<g id="node2" class="node">
<title>Node2</title>
<g id="a_node2"><a xlink:href="../../d1/d07/namespaceaopp__deconv__tool_1_1create__bad__pixel__mask.html#a31de10f018aa0c06b54e060a5536c9c8" target="_top" xlink:title=" ">
<polygon fill="none" stroke="black" points="566,-25.5 566,-66.5 739,-66.5 739,-25.5 566,-25.5"/>
<text text-anchor="start" x="574" y="-54.5" font-family="Helvetica,sans-Serif" font-size="10.00">aopp_deconv_tool.create</text>
<text text-anchor="start" x="574" y="-43.5" font-family="Helvetica,sans-Serif" font-size="10.00">_bad_pixel_mask.load_dynamic</text>
<text text-anchor="middle" x="652.5" y="-32.5" font-family="Helvetica,sans-Serif" font-size="10.00">_regions</text>
</a>
</g>
</g>
<!-- Node1&#45;&gt;Node2 -->
<g id="edge1" class="edge">
<title>Node1&#45;&gt;Node2</title>
<path fill="none" stroke="midnightblue" d="M764.96,-32C756.35,-33.08 747.63,-34.18 739.04,-35.25"/>
<polygon fill="midnightblue" stroke="midnightblue" points="765.51,-35.46 774.99,-30.74 764.63,-28.51 765.51,-35.46"/>
</g>
<!-- Node3 -->
<g id="node3" class="node">
<title>Node3</title>
<g id="a_node3"><a xlink:href="../../d1/d07/namespaceaopp__deconv__tool_1_1create__bad__pixel__mask.html#ae4241a7463849ecf0dada0cc62d40b34" target="_top" xlink:title=" ">
<polygon fill="none" stroke="black" points="391,-6 391,-36 530,-36 530,-6 391,-6"/>
<text text-anchor="start" x="399" y="-24" font-family="Helvetica,sans-Serif" font-size="10.00">aopp_deconv_tool.create</text>
<text text-anchor="middle" x="460.5" y="-13" font-family="Helvetica,sans-Serif" font-size="10.00">_bad_pixel_mask.run</text>
</a>
</g>
</g>
<!-- Node1&#45;&gt;Node3 -->
<g id="edge5" class="edge">
<title>Node1&#45;&gt;Node3</title>
<path fill="none" stroke="midnightblue" d="M764.78,-16.75C756.07,-16.44 747.36,-16.18 739,-16 662.13,-14.31 642.87,-14.16 566,-16 554.38,-16.28 542.04,-16.73 530.06,-17.25"/>
<polygon fill="midnightblue" stroke="midnightblue" points="764.85,-20.26 774.98,-17.13 765.11,-13.26 764.85,-20.26"/>
</g>
<!-- Node2&#45;&gt;Node3 -->
<g id="edge2" class="edge">
<title>Node2&#45;&gt;Node3</title>
<path fill="none" stroke="midnightblue" d="M555.78,-33.41C547.1,-32.26 538.44,-31.12 530.07,-30.02"/>
<polygon fill="midnightblue" stroke="midnightblue" points="555.58,-36.91 565.95,-34.74 556.49,-29.97 555.58,-36.91"/>
</g>
<!-- Node4 -->
<g id="node4" class="node">
<title>Node4</title>
<g id="a_node4"><a xlink:href="../../d1/d07/namespaceaopp__deconv__tool_1_1create__bad__pixel__mask.html#a656853bce6dbc18e632700c0daaca43e" target="_top" xlink:title=" ">
<polygon fill="none" stroke="black" points="175,-6 175,-36 355,-36 355,-6 175,-6"/>
<text text-anchor="start" x="183" y="-24" font-family="Helvetica,sans-Serif" font-size="10.00">aopp_deconv_tool.create</text>
<text text-anchor="middle" x="265" y="-13" font-family="Helvetica,sans-Serif" font-size="10.00">_bad_pixel_mask.exec_with_args</text>
</a>
</g>
</g>
<!-- Node3&#45;&gt;Node4 -->
<g id="edge3" class="edge">
<title>Node3&#45;&gt;Node4</title>
<path fill="none" stroke="midnightblue" d="M380.62,-21C372.24,-21 363.68,-21 355.19,-21"/>
<polygon fill="midnightblue" stroke="midnightblue" points="380.73,-24.5 390.73,-21 380.73,-17.5 380.73,-24.5"/>
</g>
<!-- Node5 -->
<g id="node5" class="node">
<title>Node5</title>
<g id="a_node5"><a xlink:href="../../d1/d07/namespaceaopp__deconv__tool_1_1create__bad__pixel__mask.html#a8dd3e186d7fb2632f6636b4697448f7e" target="_top" xlink:title=" ">
<polygon fill="none" stroke="black" points="0,-6 0,-36 139,-36 139,-6 0,-6"/>
<text text-anchor="start" x="8" y="-24" font-family="Helvetica,sans-Serif" font-size="10.00">aopp_deconv_tool.create</text>
<text text-anchor="middle" x="69.5" y="-13" font-family="Helvetica,sans-Serif" font-size="10.00">_bad_pixel_mask.go</text>
</a>
</g>
</g>
<!-- Node4&#45;&gt;Node5 -->
<g id="edge4" class="edge">
<title>Node4&#45;&gt;Node5</title>
<path fill="none" stroke="midnightblue" d="M164.75,-21C156.1,-21 147.48,-21 139.16,-21"/>
<polygon fill="midnightblue" stroke="midnightblue" points="164.9,-24.5 174.9,-21 164.9,-17.5 164.9,-24.5"/>
</g>
</g>
</svg>
