<?xml version="1.0" encoding="UTF-8" standalone="no"?>
<!DOCTYPE svg PUBLIC "-//W3C//DTD SVG 1.1//EN"
 "http://www.w3.org/Graphics/SVG/1.1/DTD/svg11.dtd">
<!-- Generated by graphviz version 2.43.0 (0)
 -->
<!-- Title: aopp_deconv_tool.create_bad_pixel_mask.go Pages: 1 -->
<!--zoomable 161 -->
<svg id="main" version="1.1" xmlns="http://www.w3.org/2000/svg" xmlns:xlink="http://www.w3.org/1999/xlink" xml:space="preserve" onload="init(evt)">
<style type="text/css"><![CDATA[
.edge:hover path { stroke: red; }
.edge:hover polygon { stroke: red; fill: red; }
]]></style>
<script type="text/javascript"><![CDATA[
var edges = document.getElementsByTagName('g');
if (edges && edges.length) {
  for (var i=0;i<edges.length;i++) {
    if (edges[i].id.substr(0,4)=='edge') {
      edges[i].setAttribute('class','edge');
    }
  }
}
]]></script>
        <defs>
                <circle id="rim" cx="0" cy="0" r="7"/>
                <circle id="rim2" cx="0" cy="0" r="3.5"/>
                <g id="zoomPlus">
                        <use xlink:href="#rim" fill="#404040">
                                <set attributeName="fill" to="#808080" begin="zoomplus.mouseover" end="zoomplus.mouseout"/>
                        </use>
                        <path d="M-4,0h8M0,-4v8" fill="none" stroke="white" stroke-width="1.5" pointer-events="none"/>
                </g>
                <g id="zoomMin">
                        <use xlink:href="#rim" fill="#404040">
                                <set attributeName="fill" to="#808080" begin="zoomminus.mouseover" end="zoomminus.mouseout"/>
                        </use>
                        <path d="M-4,0h8" fill="none" stroke="white" stroke-width="1.5" pointer-events="none"/>
                </g>
                <g id="dirArrow">
                        <path fill="none" stroke="white" stroke-width="1.5" d="M0,-3.0v7 M-2.5,-0.5L0,-3.0L2.5,-0.5"/>
                </g>
               <g id="resetDef">
                       <use xlink:href="#rim2" fill="#404040">
                               <set attributeName="fill" to="#808080" begin="reset.mouseover" end="reset.mouseout"/>
                       </use>
               </g>
        </defs>

<script type="text/javascript">
var viewWidth = 1004;
var viewHeight = 161;
var sectionId = 'dynsection-2';
</script>
<script xlink:href="../../svgpan.js"/>
<svg id="graph" class="graph">
<g id="viewport">
<title>aopp_deconv_tool.create_bad_pixel_mask.go</title>
<!-- Node1 -->
<g id="node1" class="node">
<title>Node1</title>
<g id="a_node1"><a xlink:title=" ">
<polygon fill="#bfbfbf" stroke="black" points="0,-97 0,-127 139,-127 139,-97 0,-97"/>
<text text-anchor="start" x="8" y="-115" font-family="Helvetica,sans-Serif" font-size="10.00">aopp_deconv_tool.create</text>
<text text-anchor="middle" x="69.5" y="-104" font-family="Helvetica,sans-Serif" font-size="10.00">_bad_pixel_mask.go</text>
</a>
</g>
</g>
<!-- Node2 -->
<g id="node2" class="node">
<title>Node2</title>
<g id="a_node2"><a xlink:href="../../da/d5f/namespaceaopp__deconv__tool_1_1arguments.html#a206efe8090df20dc2ee1729424f5bb9f" target="_top" xlink:title=" ">
<polygon fill="none" stroke="black" points="175,-122 175,-152 384,-152 384,-122 175,-122"/>
<text text-anchor="start" x="183" y="-140" font-family="Helvetica,sans-Serif" font-size="10.00">aopp_deconv_tool.arguments.construct</text>
<text text-anchor="middle" x="279.5" y="-129" font-family="Helvetica,sans-Serif" font-size="10.00">_arglist_from_locals</text>
</a>
</g>
</g>
<!-- Node1&#45;&gt;Node2 -->
<g id="edge1" class="edge">
<title>Node1&#45;&gt;Node2</title>
<path fill="none" stroke="midnightblue" d="M139.18,-120.26C147.52,-121.26 156.21,-122.3 164.98,-123.36"/>
<polygon fill="midnightblue" stroke="midnightblue" points="164.57,-126.83 174.91,-124.55 165.4,-119.88 164.57,-126.83"/>
</g>
<!-- Node3 -->
<g id="node3" class="node">
<title>Node3</title>
<g id="a_node3"><a xlink:href="../../d1/d07/namespaceaopp__deconv__tool_1_1create__bad__pixel__mask.html#a656853bce6dbc18e632700c0daaca43e" target="_top" xlink:title=" ">
<polygon fill="none" stroke="black" points="189.5,-73 189.5,-103 369.5,-103 369.5,-73 189.5,-73"/>
<text text-anchor="start" x="197.5" y="-91" font-family="Helvetica,sans-Serif" font-size="10.00">aopp_deconv_tool.create</text>
<text text-anchor="middle" x="279.5" y="-80" font-family="Helvetica,sans-Serif" font-size="10.00">_bad_pixel_mask.exec_with_args</text>
</a>
</g>
</g>
<!-- Node1&#45;&gt;Node3 -->
<g id="edge2" class="edge">
<title>Node1&#45;&gt;Node3</title>
<path fill="none" stroke="midnightblue" d="M139.18,-104.07C152.01,-102.6 165.64,-101.02 179.18,-99.46"/>
<polygon fill="midnightblue" stroke="midnightblue" points="179.96,-102.89 189.49,-98.27 179.15,-95.94 179.96,-102.89"/>
</g>
<!-- Node4 -->
<g id="node4" class="node">
<title>Node4</title>
<g id="a_node4"><a xlink:href="../../d1/d07/namespaceaopp__deconv__tool_1_1create__bad__pixel__mask.html#a2b16b8c45b14df83d552a22fb639b9f9" target="_top" xlink:title=" ">
<polygon fill="none" stroke="black" points="420,-98 420,-128 578,-128 578,-98 420,-98"/>
<text text-anchor="start" x="428" y="-116" font-family="Helvetica,sans-Serif" font-size="10.00">aopp_deconv_tool.create</text>
<text text-anchor="middle" x="499" y="-105" font-family="Helvetica,sans-Serif" font-size="10.00">_bad_pixel_mask.parse_args</text>
</a>
</g>
</g>
<!-- Node3&#45;&gt;Node4 -->
<g id="edge3" class="edge">
<title>Node3&#45;&gt;Node4</title>
<path fill="none" stroke="midnightblue" d="M369.59,-98.24C382.87,-99.77 396.55,-101.34 409.8,-102.86"/>
<polygon fill="midnightblue" stroke="midnightblue" points="409.51,-106.35 419.84,-104.02 410.31,-99.4 409.51,-106.35"/>
</g>
<!-- Node7 -->
<g id="node7" class="node">
<title>Node7</title>
<g id="a_node7"><a xlink:href="../../d1/d07/namespaceaopp__deconv__tool_1_1create__bad__pixel__mask.html#ae4241a7463849ecf0dada0cc62d40b34" target="_top" xlink:title=" ">
<polygon fill="none" stroke="black" points="429.5,-49 429.5,-79 568.5,-79 568.5,-49 429.5,-49"/>
<text text-anchor="start" x="437.5" y="-67" font-family="Helvetica,sans-Serif" font-size="10.00">aopp_deconv_tool.create</text>
<text text-anchor="middle" x="499" y="-56" font-family="Helvetica,sans-Serif" font-size="10.00">_bad_pixel_mask.run</text>
</a>
</g>
</g>
<!-- Node3&#45;&gt;Node7 -->
<g id="edge6" class="edge">
<title>Node3&#45;&gt;Node7</title>
<path fill="none" stroke="midnightblue" d="M369.59,-78.17C385.95,-76.36 402.93,-74.49 418.97,-72.72"/>
<polygon fill="midnightblue" stroke="midnightblue" points="419.8,-76.15 429.36,-71.57 419.03,-69.19 419.8,-76.15"/>
</g>
<!-- Node5 -->
<g id="node5" class="node">
<title>Node5</title>
<g id="a_node5"><a xlink:href="../../d8/d5b/namespaceaopp__deconv__tool_1_1text.html#ae13da0dd246571ccd435ba5f64904bfe" target="_top" xlink:title=" ">
<polygon fill="none" stroke="black" points="623,-103.5 623,-122.5 778,-122.5 778,-103.5 623,-103.5"/>
<text text-anchor="middle" x="700.5" y="-110.5" font-family="Helvetica,sans-Serif" font-size="10.00">aopp_deconv_tool.text.wrap</text>
</a>
</g>
</g>
<!-- Node4&#45;&gt;Node5 -->
<g id="edge4" class="edge">
<title>Node4&#45;&gt;Node5</title>
<path fill="none" stroke="midnightblue" d="M578.28,-113C589.59,-113 601.29,-113 612.76,-113"/>
<polygon fill="midnightblue" stroke="midnightblue" points="612.76,-116.5 622.76,-113 612.76,-109.5 612.76,-116.5"/>
</g>
<!-- Node6 -->
<g id="node6" class="node">
<title>Node6</title>
<g id="a_node6"><a xlink:href="../../d8/d5b/namespaceaopp__deconv__tool_1_1text.html#a5b208e43cdecac49460b4ced231aa4a6" target="_top" xlink:title=" ">
<polygon fill="none" stroke="black" points="823,-98 823,-128 996,-128 996,-98 823,-98"/>
<text text-anchor="start" x="831" y="-116" font-family="Helvetica,sans-Serif" font-size="10.00">aopp_deconv_tool.text.combine</text>
<text text-anchor="middle" x="909.5" y="-105" font-family="Helvetica,sans-Serif" font-size="10.00">_lines_with_same_indent</text>
</a>
</g>
</g>
<!-- Node5&#45;&gt;Node6 -->
<g id="edge5" class="edge">
<title>Node5&#45;&gt;Node6</title>
<path fill="none" stroke="midnightblue" d="M778.28,-113C789.5,-113 801.16,-113 812.69,-113"/>
<polygon fill="midnightblue" stroke="midnightblue" points="812.78,-116.5 822.78,-113 812.78,-109.5 812.78,-116.5"/>
</g>
<!-- Node8 -->
<g id="node8" class="node">
<title>Node8</title>
<g id="a_node8"><a xlink:href="../../d1/d07/namespaceaopp__deconv__tool_1_1create__bad__pixel__mask.html#aa5d616fc489bafa04ef95d10cfdeb457" target="_top" xlink:title=" ">
<polygon fill="none" stroke="black" points="831,-19.5 831,-60.5 988,-60.5 988,-19.5 831,-19.5"/>
<text text-anchor="start" x="839" y="-48.5" font-family="Helvetica,sans-Serif" font-size="10.00">aopp_deconv_tool.create</text>
<text text-anchor="start" x="839" y="-37.5" font-family="Helvetica,sans-Serif" font-size="10.00">_bad_pixel_mask.load_const</text>
<text text-anchor="middle" x="909.5" y="-26.5" font-family="Helvetica,sans-Serif" font-size="10.00">_regions</text>
</a>
</g>
</g>
<!-- Node7&#45;&gt;Node8 -->
<g id="edge7" class="edge">
<title>Node7&#45;&gt;Node8</title>
<path fill="none" stroke="midnightblue" d="M568.77,-61.75C626.94,-59.65 712.48,-56.06 787,-51 797.84,-50.26 809.21,-49.38 820.47,-48.44"/>
<polygon fill="midnightblue" stroke="midnightblue" points="821.1,-51.9 830.76,-47.56 820.5,-44.93 821.1,-51.9"/>
</g>
<!-- Node9 -->
<g id="node9" class="node">
<title>Node9</title>
<g id="a_node9"><a xlink:href="../../d1/d07/namespaceaopp__deconv__tool_1_1create__bad__pixel__mask.html#a31de10f018aa0c06b54e060a5536c9c8" target="_top" xlink:title=" ">
<polygon fill="none" stroke="black" points="614,-0.5 614,-41.5 787,-41.5 787,-0.5 614,-0.5"/>
<text text-anchor="start" x="622" y="-29.5" font-family="Helvetica,sans-Serif" font-size="10.00">aopp_deconv_tool.create</text>
<text text-anchor="start" x="622" y="-18.5" font-family="Helvetica,sans-Serif" font-size="10.00">_bad_pixel_mask.load_dynamic</text>
<text text-anchor="middle" x="700.5" y="-7.5" font-family="Helvetica,sans-Serif" font-size="10.00">_regions</text>
</a>
</g>
</g>
<!-- Node7&#45;&gt;Node9 -->
<g id="edge8" class="edge">
<title>Node7&#45;&gt;Node9</title>
<path fill="none" stroke="midnightblue" d="M568.66,-49.2C580.02,-46.75 591.97,-44.18 603.85,-41.62"/>
<polygon fill="midnightblue" stroke="midnightblue" points="604.76,-45 613.8,-39.47 603.28,-38.16 604.76,-45"/>
</g>
<!-- Node9&#45;&gt;Node8 -->
<g id="edge9" class="edge">
<title>Node9&#45;&gt;Node8</title>
<path fill="none" stroke="midnightblue" d="M787.19,-28.87C798.26,-29.88 809.61,-30.92 820.71,-31.94"/>
<polygon fill="midnightblue" stroke="midnightblue" points="820.55,-35.44 830.83,-32.87 821.19,-28.47 820.55,-35.44"/>
</g>
</g>
</svg>
        <g id="navigator" transform="translate(0 0)" fill="#404254">
                <rect fill="#f2f5e9" fill-opacity="0.5" stroke="#606060" stroke-width=".5" x="0" y="0" width="60" height="60"/>
                <use id="zoomplus" xlink:href="#zoomPlus" x="17" y="9" onmousedown="handleZoom(evt,'in')"/>
                <use id="zoomminus" xlink:href="#zoomMin" x="42" y="9" onmousedown="handleZoom(evt,'out')"/>
                <use id="reset" xlink:href="#resetDef" x="30" y="36" onmousedown="handleReset()"/>
                <g id="arrowUp" xlink:href="#dirArrow" transform="translate(30 24)" onmousedown="handlePan(0,-1)">
                  <use xlink:href="#rim" fill="#404040">
                        <set attributeName="fill" to="#808080" begin="arrowUp.mouseover" end="arrowUp.mouseout"/>
                  </use>
                  <path fill="none" stroke="white" stroke-width="1.5" d="M0,-3.0v7 M-2.5,-0.5L0,-3.0L2.5,-0.5"/>
                </g>
                <g id="arrowRight" xlink:href="#dirArrow" transform="rotate(90) translate(36 -43)" onmousedown="handlePan(1,0)">
                  <use xlink:href="#rim" fill="#404040">
                        <set attributeName="fill" to="#808080" begin="arrowRight.mouseover" end="arrowRight.mouseout"/>
                  </use>
                  <path fill="none" stroke="white" stroke-width="1.5" d="M0,-3.0v7 M-2.5,-0.5L0,-3.0L2.5,-0.5"/>
                </g>
                <g id="arrowDown" xlink:href="#dirArrow" transform="rotate(180) translate(-30 -48)" onmousedown="handlePan(0,1)">
                  <use xlink:href="#rim" fill="#404040">
                        <set attributeName="fill" to="#808080" begin="arrowDown.mouseover" end="arrowDown.mouseout"/>
                  </use>
                  <path fill="none" stroke="white" stroke-width="1.5" d="M0,-3.0v7 M-2.5,-0.5L0,-3.0L2.5,-0.5"/>
                </g>
                <g id="arrowLeft" xlink:href="#dirArrow" transform="rotate(270) translate(-36 17)" onmousedown="handlePan(-1,0)">
                  <use xlink:href="#rim" fill="#404040">
                        <set attributeName="fill" to="#808080" begin="arrowLeft.mouseover" end="arrowLeft.mouseout"/>
                  </use>
                  <path fill="none" stroke="white" stroke-width="1.5" d="M0,-3.0v7 M-2.5,-0.5L0,-3.0L2.5,-0.5"/>
                </g>
        </g>
        <svg viewBox="0 0 15 15" width="100%" height="30px" preserveAspectRatio="xMaxYMin meet">
         <g id="arrow_out" transform="scale(0.3 0.3)">
          <a xlink:href="namespaceaopp__deconv__tool_1_1create__bad__pixel__mask_a8dd3e186d7fb2632f6636b4697448f7e_cgraph_org.svg" target="_base">
           <rect id="button" ry="5" rx="5" y="6" x="6" height="38" width="38"
                fill="#f2f5e9" fill-opacity="0.5" stroke="#606060" stroke-width="1.0"/>
           <path id="arrow"
             d="M 11.500037,31.436501 C 11.940474,20.09759 22.043105,11.32322 32.158766,21.979434 L 37.068811,17.246167 C 37.068811,17.246167 37.088388,32 37.088388,32 L 22.160133,31.978069 C 22.160133,31.978069 26.997745,27.140456 26.997745,27.140456 C 18.528582,18.264221 13.291696,25.230495 11.500037,31.436501 z"
             style="fill:#404040;"/>
          </a>
         </g>
        </svg>
</svg>
