<?xml version="1.0" encoding="UTF-8" standalone="no"?>
<!DOCTYPE svg PUBLIC "-//W3C//DTD SVG 1.1//EN"
 "http://www.w3.org/Graphics/SVG/1.1/DTD/svg11.dtd">
<!-- Generated by graphviz version 2.43.0 (0)
 -->
<!-- Title: aopp_deconv_tool.create_bad_pixel_mask.exec_with_args Pages: 1 -->
<svg width="800pt" height="137pt"
 viewBox="0.00 0.00 800.00 136.50" xmlns="http://www.w3.org/2000/svg" xmlns:xlink="http://www.w3.org/1999/xlink">
<g id="graph0" class="graph" transform="scale(1 1) rotate(0) translate(4 132.5)">
<title>aopp_deconv_tool.create_bad_pixel_mask.exec_with_args</title>
<!-- Node1 -->
<g id="node1" class="node">
<title>Node1</title>
<g id="a_node1"><a xlink:title=" ">
<polygon fill="#bfbfbf" stroke="black" points="0,-73 0,-103 180,-103 180,-73 0,-73"/>
<text text-anchor="start" x="8" y="-91" font-family="Helvetica,sans-Serif" font-size="10.00">aopp_deconv_tool.create</text>
<text text-anchor="middle" x="90" y="-80" font-family="Helvetica,sans-Serif" font-size="10.00">_bad_pixel_mask.exec_with_args</text>
</a>
</g>
</g>
<!-- Node2 -->
<g id="node2" class="node">
<title>Node2</title>
<g id="a_node2"><a xlink:href="../../d1/d07/namespaceaopp__deconv__tool_1_1create__bad__pixel__mask.html#a2b16b8c45b14df83d552a22fb639b9f9" target="_top" xlink:title=" ">
<polygon fill="none" stroke="black" points="216,-98 216,-128 374,-128 374,-98 216,-98"/>
<text text-anchor="start" x="224" y="-116" font-family="Helvetica,sans-Serif" font-size="10.00">aopp_deconv_tool.create</text>
<text text-anchor="middle" x="295" y="-105" font-family="Helvetica,sans-Serif" font-size="10.00">_bad_pixel_mask.parse_args</text>
</a>
</g>
</g>
<!-- Node1&#45;&gt;Node2 -->
<g id="edge1" class="edge">
<title>Node1&#45;&gt;Node2</title>
<path fill="none" stroke="midnightblue" d="M180.04,-98.97C188.61,-100.02 197.31,-101.09 205.88,-102.15"/>
<polygon fill="midnightblue" stroke="midnightblue" points="205.51,-105.63 215.86,-103.38 206.36,-98.68 205.51,-105.63"/>
</g>
<!-- Node5 -->
<g id="node5" class="node">
<title>Node5</title>
<g id="a_node5"><a xlink:href="../../d1/d07/namespaceaopp__deconv__tool_1_1create__bad__pixel__mask.html#ae4241a7463849ecf0dada0cc62d40b34" target="_top" xlink:title=" ">
<polygon fill="none" stroke="black" points="225.5,-49 225.5,-79 364.5,-79 364.5,-49 225.5,-49"/>
<text text-anchor="start" x="233.5" y="-67" font-family="Helvetica,sans-Serif" font-size="10.00">aopp_deconv_tool.create</text>
<text text-anchor="middle" x="295" y="-56" font-family="Helvetica,sans-Serif" font-size="10.00">_bad_pixel_mask.run</text>
</a>
</g>
</g>
<!-- Node1&#45;&gt;Node5 -->
<g id="edge4" class="edge">
<title>Node1&#45;&gt;Node5</title>
<path fill="none" stroke="midnightblue" d="M180.04,-77.47C191.82,-76.08 203.83,-74.66 215.42,-73.29"/>
<polygon fill="midnightblue" stroke="midnightblue" points="215.96,-76.75 225.48,-72.1 215.14,-69.8 215.96,-76.75"/>
</g>
<!-- Node3 -->
<g id="node3" class="node">
<title>Node3</title>
<g id="a_node3"><a xlink:href="../../d8/d5b/namespaceaopp__deconv__tool_1_1text.html#ae13da0dd246571ccd435ba5f64904bfe" target="_top" xlink:title=" ">
<polygon fill="none" stroke="black" points="419,-103.5 419,-122.5 574,-122.5 574,-103.5 419,-103.5"/>
<text text-anchor="middle" x="496.5" y="-110.5" font-family="Helvetica,sans-Serif" font-size="10.00">aopp_deconv_tool.text.wrap</text>
</a>
</g>
</g>
<!-- Node2&#45;&gt;Node3 -->
<g id="edge2" class="edge">
<title>Node2&#45;&gt;Node3</title>
<path fill="none" stroke="midnightblue" d="M374.28,-113C385.59,-113 397.29,-113 408.76,-113"/>
<polygon fill="midnightblue" stroke="midnightblue" points="408.76,-116.5 418.76,-113 408.76,-109.5 408.76,-116.5"/>
</g>
<!-- Node4 -->
<g id="node4" class="node">
<title>Node4</title>
<g id="a_node4"><a xlink:href="../../d8/d5b/namespaceaopp__deconv__tool_1_1text.html#a5b208e43cdecac49460b4ced231aa4a6" target="_top" xlink:title=" ">
<polygon fill="none" stroke="black" points="619,-98 619,-128 792,-128 792,-98 619,-98"/>
<text text-anchor="start" x="627" y="-116" font-family="Helvetica,sans-Serif" font-size="10.00">aopp_deconv_tool.text.combine</text>
<text text-anchor="middle" x="705.5" y="-105" font-family="Helvetica,sans-Serif" font-size="10.00">_lines_with_same_indent</text>
</a>
</g>
</g>
<!-- Node3&#45;&gt;Node4 -->
<g id="edge3" class="edge">
<title>Node3&#45;&gt;Node4</title>
<path fill="none" stroke="midnightblue" d="M574.28,-113C585.5,-113 597.16,-113 608.69,-113"/>
<polygon fill="midnightblue" stroke="midnightblue" points="608.78,-116.5 618.78,-113 608.78,-109.5 608.78,-116.5"/>
</g>
<!-- Node6 -->
<g id="node6" class="node">
<title>Node6</title>
<g id="a_node6"><a xlink:href="../../d1/d07/namespaceaopp__deconv__tool_1_1create__bad__pixel__mask.html#aa5d616fc489bafa04ef95d10cfdeb457" target="_top" xlink:title=" ">
<polygon fill="none" stroke="black" points="627,-19.5 627,-60.5 784,-60.5 784,-19.5 627,-19.5"/>
<text text-anchor="start" x="635" y="-48.5" font-family="Helvetica,sans-Serif" font-size="10.00">aopp_deconv_tool.create</text>
<text text-anchor="start" x="635" y="-37.5" font-family="Helvetica,sans-Serif" font-size="10.00">_bad_pixel_mask.load_const</text>
<text text-anchor="middle" x="705.5" y="-26.5" font-family="Helvetica,sans-Serif" font-size="10.00">_regions</text>
</a>
</g>
</g>
<!-- Node5&#45;&gt;Node6 -->
<g id="edge5" class="edge">
<title>Node5&#45;&gt;Node6</title>
<path fill="none" stroke="midnightblue" d="M364.77,-61.75C422.94,-59.65 508.48,-56.06 583,-51 593.84,-50.26 605.21,-49.38 616.47,-48.44"/>
<polygon fill="midnightblue" stroke="midnightblue" points="617.1,-51.9 626.76,-47.56 616.5,-44.93 617.1,-51.9"/>
</g>
<!-- Node7 -->
<g id="node7" class="node">
<title>Node7</title>
<g id="a_node7"><a xlink:href="../../d1/d07/namespaceaopp__deconv__tool_1_1create__bad__pixel__mask.html#a31de10f018aa0c06b54e060a5536c9c8" target="_top" xlink:title=" ">
<polygon fill="none" stroke="black" points="410,-0.5 410,-41.5 583,-41.5 583,-0.5 410,-0.5"/>
<text text-anchor="start" x="418" y="-29.5" font-family="Helvetica,sans-Serif" font-size="10.00">aopp_deconv_tool.create</text>
<text text-anchor="start" x="418" y="-18.5" font-family="Helvetica,sans-Serif" font-size="10.00">_bad_pixel_mask.load_dynamic</text>
<text text-anchor="middle" x="496.5" y="-7.5" font-family="Helvetica,sans-Serif" font-size="10.00">_regions</text>
</a>
</g>
</g>
<!-- Node5&#45;&gt;Node7 -->
<g id="edge6" class="edge">
<title>Node5&#45;&gt;Node7</title>
<path fill="none" stroke="midnightblue" d="M364.66,-49.2C376.02,-46.75 387.97,-44.18 399.85,-41.62"/>
<polygon fill="midnightblue" stroke="midnightblue" points="400.76,-45 409.8,-39.47 399.28,-38.16 400.76,-45"/>
</g>
<!-- Node7&#45;&gt;Node6 -->
<g id="edge7" class="edge">
<title>Node7&#45;&gt;Node6</title>
<path fill="none" stroke="midnightblue" d="M583.19,-28.87C594.26,-29.88 605.61,-30.92 616.71,-31.94"/>
<polygon fill="midnightblue" stroke="midnightblue" points="616.55,-35.44 626.83,-32.87 617.19,-28.47 616.55,-35.44"/>
</g>
</g>
</svg>
