<?xml version="1.0" encoding="UTF-8" standalone="no"?>
<!DOCTYPE svg PUBLIC "-//W3C//DTD SVG 1.1//EN"
 "http://www.w3.org/Graphics/SVG/1.1/DTD/svg11.dtd">
<!-- Generated by graphviz version 2.43.0 (0)
 -->
<!-- Title: aopp_deconv_tool.graphical_frontends.ssa_filtering.ImagePlot.set_data Pages: 1 -->
<svg width="690pt" height="417pt"
 viewBox="0.00 0.00 690.00 416.50" xmlns="http://www.w3.org/2000/svg" xmlns:xlink="http://www.w3.org/1999/xlink">
<g id="graph0" class="graph" transform="scale(1 1) rotate(0) translate(4 412.5)">
<title>aopp_deconv_tool.graphical_frontends.ssa_filtering.ImagePlot.set_data</title>
<!-- Node1 -->
<g id="node1" class="node">
<title>Node1</title>
<g id="a_node1"><a xlink:title=" ">
<polygon fill="#bfbfbf" stroke="black" points="0,-180.5 0,-210.5 229,-210.5 229,-180.5 0,-180.5"/>
<text text-anchor="start" x="8" y="-198.5" font-family="Helvetica,sans-Serif" font-size="10.00">aopp_deconv_tool.graphical</text>
<text text-anchor="middle" x="114.5" y="-187.5" font-family="Helvetica,sans-Serif" font-size="10.00">_frontends.ssa_filtering.ImagePlot.set_data</text>
</a>
</g>
</g>
<!-- Node2 -->
<g id="node2" class="node">
<title>Node2</title>
<g id="a_node2"><a xlink:href="../../db/dd6/classaopp__deconv__tool_1_1graphical__frontends_1_1ssa__filtering_1_1ImagePlot.html#a224bbaf901632786c84c7cff4372cdf0" target="_top" xlink:title=" ">
<polygon fill="none" stroke="black" points="293.5,-367 293.5,-408 488.5,-408 488.5,-367 293.5,-367"/>
<text text-anchor="start" x="301.5" y="-396" font-family="Helvetica,sans-Serif" font-size="10.00">aopp_deconv_tool.graphical</text>
<text text-anchor="start" x="301.5" y="-385" font-family="Helvetica,sans-Serif" font-size="10.00">_frontends.ssa_filtering.ImagePlot.is</text>
<text text-anchor="middle" x="391" y="-374" font-family="Helvetica,sans-Serif" font-size="10.00">_new_data_compatible</text>
</a>
</g>
</g>
<!-- Node1&#45;&gt;Node2 -->
<g id="edge1" class="edge">
<title>Node1&#45;&gt;Node2</title>
<path fill="none" stroke="midnightblue" d="M124.98,-210.77C145.95,-243.22 199.64,-319.16 265,-357.5 270.88,-360.95 277.15,-364.01 283.61,-366.71"/>
<polygon fill="midnightblue" stroke="midnightblue" points="282.62,-370.08 293.21,-370.43 285.15,-363.55 282.62,-370.08"/>
</g>
<!-- Node3 -->
<g id="node3" class="node">
<title>Node3</title>
<g id="a_node3"><a xlink:href="../../d1/d4b/classaopp__deconv__tool_1_1graphical__frontends_1_1ssa__filtering_1_1LinePlot.html#a3aff404bd0c47aa0e5eb4189987a0094" target="_top" xlink:title=" ">
<polygon fill="none" stroke="black" points="298.5,-307 298.5,-348 483.5,-348 483.5,-307 298.5,-307"/>
<text text-anchor="start" x="306.5" y="-336" font-family="Helvetica,sans-Serif" font-size="10.00">aopp_deconv_tool.graphical</text>
<text text-anchor="start" x="306.5" y="-325" font-family="Helvetica,sans-Serif" font-size="10.00">_frontends.ssa_filtering.LinePlot.is</text>
<text text-anchor="middle" x="391" y="-314" font-family="Helvetica,sans-Serif" font-size="10.00">_new_data_compatible</text>
</a>
</g>
</g>
<!-- Node1&#45;&gt;Node3 -->
<g id="edge2" class="edge">
<title>Node1&#45;&gt;Node3</title>
<path fill="none" stroke="midnightblue" d="M133.09,-210.7C159.8,-233.01 213.01,-274.46 265,-297.5 272.55,-300.85 280.53,-303.85 288.66,-306.55"/>
<polygon fill="midnightblue" stroke="midnightblue" points="287.67,-309.9 298.26,-309.57 289.77,-303.23 287.67,-309.9"/>
</g>
<!-- Node4 -->
<g id="node4" class="node">
<title>Node4</title>
<g id="a_node4"><a xlink:href="../../d7/d1a/classaopp__deconv__tool_1_1graphical__frontends_1_1ssa__filtering_1_1BasePlot.html#ab90f403d403358f326201c91c4b4ba5d" target="_top" xlink:title=" ">
<polygon fill="none" stroke="black" points="282,-257.5 282,-287.5 500,-287.5 500,-257.5 282,-257.5"/>
<text text-anchor="start" x="290" y="-275.5" font-family="Helvetica,sans-Serif" font-size="10.00">aopp_deconv_tool.graphical</text>
<text text-anchor="middle" x="391" y="-264.5" font-family="Helvetica,sans-Serif" font-size="10.00">_frontends.ssa_filtering.BasePlot.remove</text>
</a>
</g>
</g>
<!-- Node1&#45;&gt;Node4 -->
<g id="edge3" class="edge">
<title>Node1&#45;&gt;Node4</title>
<path fill="none" stroke="midnightblue" d="M153.1,-210.61C183.03,-222.21 226.2,-237.96 265,-248.5 273.94,-250.93 283.31,-253.21 292.72,-255.32"/>
<polygon fill="midnightblue" stroke="midnightblue" points="292.01,-258.74 302.53,-257.45 293.5,-251.9 292.01,-258.74"/>
</g>
<!-- Node5 -->
<g id="node5" class="node">
<title>Node5</title>
<g id="a_node5"><a xlink:href="../../db/dd6/classaopp__deconv__tool_1_1graphical__frontends_1_1ssa__filtering_1_1ImagePlot.html#a311d5b0b53753851d7df74f8b229a3a1" target="_top" xlink:title=" ">
<polygon fill="none" stroke="black" points="279,-208.5 279,-238.5 503,-238.5 503,-208.5 279,-208.5"/>
<text text-anchor="start" x="287" y="-226.5" font-family="Helvetica,sans-Serif" font-size="10.00">aopp_deconv_tool.graphical</text>
<text text-anchor="middle" x="391" y="-215.5" font-family="Helvetica,sans-Serif" font-size="10.00">_frontends.ssa_filtering.ImagePlot.remove</text>
</a>
</g>
</g>
<!-- Node1&#45;&gt;Node5 -->
<g id="edge4" class="edge">
<title>Node1&#45;&gt;Node5</title>
<path fill="none" stroke="midnightblue" d="M229.13,-207.09C242.18,-208.42 255.52,-209.78 268.66,-211.12"/>
<polygon fill="midnightblue" stroke="midnightblue" points="268.36,-214.61 278.66,-212.14 269.07,-207.65 268.36,-214.61"/>
</g>
<!-- Node6 -->
<g id="node6" class="node">
<title>Node6</title>
<g id="a_node6"><a xlink:href="../../da/d39/classaopp__deconv__tool_1_1graphical__frontends_1_1ssa__filtering_1_1WidgetBase.html#add9d9e8935a19806390602a571c746b6" target="_top" xlink:title=" ">
<polygon fill="none" stroke="black" points="306.5,-148 306.5,-189 475.5,-189 475.5,-148 306.5,-148"/>
<text text-anchor="start" x="314.5" y="-177" font-family="Helvetica,sans-Serif" font-size="10.00">aopp_deconv_tool.graphical</text>
<text text-anchor="start" x="314.5" y="-166" font-family="Helvetica,sans-Serif" font-size="10.00">_frontends.ssa_filtering.Widget</text>
<text text-anchor="middle" x="391" y="-155" font-family="Helvetica,sans-Serif" font-size="10.00">Base.remove</text>
</a>
</g>
</g>
<!-- Node1&#45;&gt;Node6 -->
<g id="edge5" class="edge">
<title>Node1&#45;&gt;Node6</title>
<path fill="none" stroke="midnightblue" d="M229.13,-184.32C251.41,-182.13 274.55,-179.86 296.1,-177.74"/>
<polygon fill="midnightblue" stroke="midnightblue" points="296.6,-181.2 306.21,-176.74 295.92,-174.24 296.6,-181.2"/>
</g>
<!-- Node7 -->
<g id="node7" class="node">
<title>Node7</title>
<g id="a_node7"><a xlink:href="../../d6/da1/classaopp__deconv__tool_1_1task__strat_1_1TaskStratSet.html#a089f805d274ef3be0b64217e99ffed9d" target="_top" xlink:title=" ">
<polygon fill="none" stroke="black" points="316.5,-98.5 316.5,-128.5 465.5,-128.5 465.5,-98.5 316.5,-98.5"/>
<text text-anchor="start" x="324.5" y="-116.5" font-family="Helvetica,sans-Serif" font-size="10.00">aopp_deconv_tool.task</text>
<text text-anchor="middle" x="391" y="-105.5" font-family="Helvetica,sans-Serif" font-size="10.00">_strat.TaskStratSet.remove</text>
</a>
</g>
</g>
<!-- Node1&#45;&gt;Node7 -->
<g id="edge6" class="edge">
<title>Node1&#45;&gt;Node7</title>
<path fill="none" stroke="midnightblue" d="M149.98,-180.47C179.93,-167.87 224.7,-150.12 265,-138.5 278.26,-134.67 292.48,-131.23 306.4,-128.21"/>
<polygon fill="midnightblue" stroke="midnightblue" points="307.41,-131.57 316.47,-126.08 305.96,-124.72 307.41,-131.57"/>
</g>
<!-- Node9 -->
<g id="node9" class="node">
<title>Node9</title>
<g id="a_node9"><a xlink:href="../../db/dd6/classaopp__deconv__tool_1_1graphical__frontends_1_1ssa__filtering_1_1ImagePlot.html#a24d4cfa969821f6eef9e608178a0b12f" target="_top" xlink:title=" ">
<polygon fill="none" stroke="black" points="265,-49.5 265,-79.5 517,-79.5 517,-49.5 265,-49.5"/>
<text text-anchor="start" x="273" y="-67.5" font-family="Helvetica,sans-Serif" font-size="10.00">aopp_deconv_tool.graphical</text>
<text text-anchor="middle" x="391" y="-56.5" font-family="Helvetica,sans-Serif" font-size="10.00">_frontends.ssa_filtering.ImagePlot.sanitise_data</text>
</a>
</g>
</g>
<!-- Node1&#45;&gt;Node9 -->
<g id="edge8" class="edge">
<title>Node1&#45;&gt;Node9</title>
<path fill="none" stroke="midnightblue" d="M131.99,-180.18C158.11,-156.81 211.53,-112.55 265,-89.5 271.08,-86.88 277.44,-84.53 283.94,-82.43"/>
<polygon fill="midnightblue" stroke="midnightblue" points="284.98,-85.77 293.54,-79.51 282.95,-79.07 284.98,-85.77"/>
</g>
<!-- Node10 -->
<g id="node10" class="node">
<title>Node10</title>
<g id="a_node10"><a xlink:href="../../d1/d4b/classaopp__deconv__tool_1_1graphical__frontends_1_1ssa__filtering_1_1LinePlot.html#ab47bbe68324258fda7c8375944f12531" target="_top" xlink:title=" ">
<polygon fill="none" stroke="black" points="270,-0.5 270,-30.5 512,-30.5 512,-0.5 270,-0.5"/>
<text text-anchor="start" x="278" y="-18.5" font-family="Helvetica,sans-Serif" font-size="10.00">aopp_deconv_tool.graphical</text>
<text text-anchor="middle" x="391" y="-7.5" font-family="Helvetica,sans-Serif" font-size="10.00">_frontends.ssa_filtering.LinePlot.sanitise_data</text>
</a>
</g>
</g>
<!-- Node1&#45;&gt;Node10 -->
<g id="edge9" class="edge">
<title>Node1&#45;&gt;Node10</title>
<path fill="none" stroke="midnightblue" d="M125.37,-180.23C146.68,-148.58 200.38,-75.84 265,-40.5 269.21,-38.2 273.6,-36.11 278.11,-34.21"/>
<polygon fill="midnightblue" stroke="midnightblue" points="279.46,-37.44 287.53,-30.57 276.94,-30.91 279.46,-37.44"/>
</g>
<!-- Node8 -->
<g id="node8" class="node">
<title>Node8</title>
<g id="a_node8"><a xlink:href="../../d6/da1/classaopp__deconv__tool_1_1task__strat_1_1TaskStratSet.html#a9c869a7fb815955cc1bb5666e5ebe08f" target="_top" xlink:title=" ">
<polygon fill="none" stroke="black" points="553,-93 553,-134 682,-134 682,-93 553,-93"/>
<text text-anchor="start" x="561" y="-122" font-family="Helvetica,sans-Serif" font-size="10.00">aopp_deconv_tool.task</text>
<text text-anchor="start" x="561" y="-111" font-family="Helvetica,sans-Serif" font-size="10.00">_strat.TaskStratSet.</text>
<text text-anchor="middle" x="617.5" y="-100" font-family="Helvetica,sans-Serif" font-size="10.00">_del_item</text>
</a>
</g>
</g>
<!-- Node7&#45;&gt;Node8 -->
<g id="edge7" class="edge">
<title>Node7&#45;&gt;Node8</title>
<path fill="none" stroke="midnightblue" d="M465.51,-113.5C490.24,-113.5 517.82,-113.5 542.58,-113.5"/>
<polygon fill="midnightblue" stroke="midnightblue" points="542.64,-117 552.64,-113.5 542.64,-110 542.64,-117"/>
</g>
</g>
</svg>
