<?xml version="1.0" encoding="UTF-8" standalone="no"?>
<!DOCTYPE svg PUBLIC "-//W3C//DTD SVG 1.1//EN"
 "http://www.w3.org/Graphics/SVG/1.1/DTD/svg11.dtd">
<!-- Generated by graphviz version 2.43.0 (0)
 -->
<!-- Title: aopp_deconv_tool.graphical_frontends.ssa_filtering.ImagePlot.remove Pages: 1 -->
<svg width="760pt" height="88pt"
 viewBox="0.00 0.00 760.00 88.00" xmlns="http://www.w3.org/2000/svg" xmlns:xlink="http://www.w3.org/1999/xlink">
<g id="graph0" class="graph" transform="scale(1 1) rotate(0) translate(4 84)">
<title>aopp_deconv_tool.graphical_frontends.ssa_filtering.ImagePlot.remove</title>
<!-- Node1 -->
<g id="node1" class="node">
<title>Node1</title>
<g id="a_node1"><a xlink:title=" ">
<polygon fill="#bfbfbf" stroke="black" points="528,-24.5 528,-54.5 752,-54.5 752,-24.5 528,-24.5"/>
<text text-anchor="start" x="536" y="-42.5" font-family="Helvetica,sans-Serif" font-size="10.00">aopp_deconv_tool.graphical</text>
<text text-anchor="middle" x="640" y="-31.5" font-family="Helvetica,sans-Serif" font-size="10.00">_frontends.ssa_filtering.ImagePlot.remove</text>
</a>
</g>
</g>
<!-- Node2 -->
<g id="node2" class="node">
<title>Node2</title>
<g id="a_node2"><a xlink:href="../../db/dd6/classaopp__deconv__tool_1_1graphical__frontends_1_1ssa__filtering_1_1ImagePlot.html#aaad6d78efd48d8e620295a5106faaf8a" target="_top" xlink:title=" ">
<polygon fill="none" stroke="black" points="263,-49.5 263,-79.5 492,-79.5 492,-49.5 263,-49.5"/>
<text text-anchor="start" x="271" y="-67.5" font-family="Helvetica,sans-Serif" font-size="10.00">aopp_deconv_tool.graphical</text>
<text text-anchor="middle" x="377.5" y="-56.5" font-family="Helvetica,sans-Serif" font-size="10.00">_frontends.ssa_filtering.ImagePlot.set_data</text>
</a>
</g>
</g>
<!-- Node1&#45;&gt;Node2 -->
<g id="edge1" class="edge">
<title>Node1&#45;&gt;Node2</title>
<path fill="none" stroke="midnightblue" d="M517.81,-51.13C509.3,-51.95 500.74,-52.77 492.27,-53.58"/>
<polygon fill="midnightblue" stroke="midnightblue" points="518.15,-54.61 527.77,-50.17 517.48,-47.65 518.15,-54.61"/>
</g>
<!-- Node5 -->
<g id="node5" class="node">
<title>Node5</title>
<g id="a_node5"><a xlink:href="../../d1/d4b/classaopp__deconv__tool_1_1graphical__frontends_1_1ssa__filtering_1_1LinePlot.html#afa75f9b57597a0ca2eca6c912239b41a" target="_top" xlink:title=" ">
<polygon fill="none" stroke="black" points="268.5,-0.5 268.5,-30.5 486.5,-30.5 486.5,-0.5 268.5,-0.5"/>
<text text-anchor="start" x="276.5" y="-18.5" font-family="Helvetica,sans-Serif" font-size="10.00">aopp_deconv_tool.graphical</text>
<text text-anchor="middle" x="377.5" y="-7.5" font-family="Helvetica,sans-Serif" font-size="10.00">_frontends.ssa_filtering.LinePlot.set_data</text>
</a>
</g>
</g>
<!-- Node1&#45;&gt;Node5 -->
<g id="edge4" class="edge">
<title>Node1&#45;&gt;Node5</title>
<path fill="none" stroke="midnightblue" d="M517.56,-28.31C507.32,-27.37 497.01,-26.42 486.87,-25.48"/>
<polygon fill="midnightblue" stroke="midnightblue" points="517.49,-31.82 527.77,-29.25 518.13,-24.85 517.49,-31.82"/>
</g>
<!-- Node3 -->
<g id="node3" class="node">
<title>Node3</title>
<g id="a_node3"><a xlink:href="../../d6/d1d/classaopp__deconv__tool_1_1graphical__frontends_1_1ssa__filtering_1_1ImageViewer.html#adb6b1efe24b9e6e6558ef0ba9416079d" target="_top" xlink:title=" ">
<polygon fill="none" stroke="black" points="0,-49.5 0,-79.5 227,-79.5 227,-49.5 0,-49.5"/>
<text text-anchor="start" x="8" y="-67.5" font-family="Helvetica,sans-Serif" font-size="10.00">aopp_deconv_tool.graphical</text>
<text text-anchor="middle" x="113.5" y="-56.5" font-family="Helvetica,sans-Serif" font-size="10.00">_frontends.ssa_filtering.ImageViewer.show</text>
</a>
</g>
</g>
<!-- Node2&#45;&gt;Node3 -->
<g id="edge2" class="edge">
<title>Node2&#45;&gt;Node3</title>
<path fill="none" stroke="midnightblue" d="M252.51,-64.5C244.11,-64.5 235.67,-64.5 227.33,-64.5"/>
<polygon fill="midnightblue" stroke="midnightblue" points="252.73,-68 262.73,-64.5 252.73,-61 252.73,-68"/>
</g>
<!-- Node4 -->
<g id="node4" class="node">
<title>Node4</title>
<g id="a_node4"><a xlink:href="../../dd/d48/classaopp__deconv__tool_1_1graphical__frontends_1_1ssa__filtering_1_1SSAViewer.html#a7507dee8ce74c985371256e8a870dfab" target="_top" xlink:title=" ">
<polygon fill="none" stroke="black" points="5.5,-0.5 5.5,-30.5 221.5,-30.5 221.5,-0.5 5.5,-0.5"/>
<text text-anchor="start" x="13.5" y="-18.5" font-family="Helvetica,sans-Serif" font-size="10.00">aopp_deconv_tool.graphical</text>
<text text-anchor="middle" x="113.5" y="-7.5" font-family="Helvetica,sans-Serif" font-size="10.00">_frontends.ssa_filtering.SSAViewer.show</text>
</a>
</g>
</g>
<!-- Node2&#45;&gt;Node4 -->
<g id="edge3" class="edge">
<title>Node2&#45;&gt;Node4</title>
<path fill="none" stroke="midnightblue" d="M286.16,-47.61C256.45,-42.05 223.64,-35.91 194.74,-30.51"/>
<polygon fill="midnightblue" stroke="midnightblue" points="285.64,-51.07 296.11,-49.47 286.92,-44.19 285.64,-51.07"/>
</g>
<!-- Node5&#45;&gt;Node3 -->
<g id="edge5" class="edge">
<title>Node5&#45;&gt;Node3</title>
<path fill="none" stroke="midnightblue" d="M286.16,-32.39C256.45,-37.95 223.64,-44.09 194.74,-49.49"/>
<polygon fill="midnightblue" stroke="midnightblue" points="286.92,-35.81 296.11,-30.53 285.64,-28.93 286.92,-35.81"/>
</g>
<!-- Node5&#45;&gt;Node4 -->
<g id="edge6" class="edge">
<title>Node5&#45;&gt;Node4</title>
<path fill="none" stroke="midnightblue" d="M258.29,-15.5C246.17,-15.5 233.9,-15.5 221.91,-15.5"/>
<polygon fill="midnightblue" stroke="midnightblue" points="258.42,-19 268.42,-15.5 258.42,-12 258.42,-19"/>
</g>
</g>
</svg>
