<?xml version="1.0" encoding="UTF-8" standalone="no"?>
<!DOCTYPE svg PUBLIC "-//W3C//DTD SVG 1.1//EN"
 "http://www.w3.org/Graphics/SVG/1.1/DTD/svg11.dtd">
<!-- Generated by graphviz version 2.43.0 (0)
 -->
<!-- Title: aopp_deconv_tool.graphical_frontends.ssa_filtering.ImagePlot.set_data Pages: 1 -->
<!--zoomable 463 -->

<svg id="main" version="1.1" xmlns="http://www.w3.org/2000/svg" xmlns:xlink="http://www.w3.org/1999/xlink" xml:space="preserve" onload="init(evt)">
<style type="text/css"><![CDATA[
.node, .edge {opacity: 0.7;}
.node.selected, .edge.selected {opacity: 1;}
.edge:hover path { stroke: red; }
.edge:hover polygon { stroke: red; fill: red; }
]]></style>

<defs>
  <circle id="rim" cx="0" cy="0" r="7"/>
  <circle id="rim2" cx="0" cy="0" r="3.5"/>
  <g id="zoomPlus">
    <use xlink:href="#rim" fill="#404040"><set attributeName="fill" to="#808080" begin="zoomplus.mouseover" end="zoomplus.mouseout"/></use>
    <path d="M-4,0h8M0,-4v8" fill="none" stroke="white" stroke-width="1.5" pointer-events="none"/>
  </g>
  <g id="zoomMin">
    <use xlink:href="#rim" fill="#404040"><set attributeName="fill" to="#808080" begin="zoomminus.mouseover" end="zoomminus.mouseout"/></use>
    <path d="M-4,0h8" fill="none" stroke="white" stroke-width="1.5" pointer-events="none"/>
  </g>
  <g id="arrowUp" transform="translate(30 24)">
    <use xlink:href="#rim"/>
    <path pointer-events="none" fill="none" stroke="white" stroke-width="1.5" d="M0,-3.0v7 M-2.5,-0.5L0,-3.0L2.5,-0.5"/>
  </g>
  <g id="arrowRight" transform="rotate(90) translate(36 -43)">
    <use xlink:href="#rim"/>
    <path pointer-events="none" fill="none" stroke="white" stroke-width="1.5" d="M0,-3.0v7 M-2.5,-0.5L0,-3.0L2.5,-0.5"/>
  </g>
  <g id="arrowDown" transform="rotate(180) translate(-30 -48)">
    <use xlink:href="#rim"/>
    <path pointer-events="none" fill="none" stroke="white" stroke-width="1.5" d="M0,-3.0v7 M-2.5,-0.5L0,-3.0L2.5,-0.5"/>
  </g>
  <g id="arrowLeft" transform="rotate(270) translate(-36 17)">
    <use xlink:href="#rim"/>
    <path pointer-events="none" fill="none" stroke="white" stroke-width="1.5" d="M0,-3.0v7 M-2.5,-0.5L0,-3.0L2.5,-0.5"/>
  </g>
  <g id="resetDef">
    <use xlink:href="#rim2" fill="#404040"><set attributeName="fill" to="#808080" begin="reset.mouseover" end="reset.mouseout"/></use>
  </g>
</defs>
<script type="application/ecmascript">
var viewWidth = 688;
var viewHeight = 463;
var sectionId = 'dynsection-8';
</script>
<script type="application/ecmascript" xlink:href="../../svg.min.js"/>
<svg id="graph" class="graph">
<g id="viewport">
<title>aopp_deconv_tool.graphical_frontends.ssa_filtering.ImagePlot.set_data</title>
<!-- Node1 -->
<g id="Node000001" class="node">
<title>Node1</title>
<g id="a_Node000001"><a xlink:title=" ">
<polygon fill="#999999" stroke="#666666" points="228,-216 0,-216 0,-186 228,-186 228,-216"/>
<text text-anchor="start" x="8" y="-204" font-family="Helvetica,sans-Serif" font-size="10.00">aopp_deconv_tool.graphical</text>
<text text-anchor="middle" x="114" y="-193" font-family="Helvetica,sans-Serif" font-size="10.00">_frontends.ssa_filtering.ImagePlot.set_data</text>
</a>
</g>
</g>
<!-- Node2 -->
<g id="Node000002" class="node">
<title>Node2</title>
<g id="a_Node000002"><a xlink:href="../../db/dd6/classaopp__deconv__tool_1_1graphical__frontends_1_1ssa__filtering_1_1ImagePlot.html#acda8236fbaf8ab2a3d65ad9042849a25" target="_top" xlink:title=" ">
<polygon fill="white" stroke="#666666" points="486.5,-454.5 292.5,-454.5 292.5,-413.5 486.5,-413.5 486.5,-454.5"/>
<text text-anchor="start" x="300.5" y="-442.5" font-family="Helvetica,sans-Serif" font-size="10.00">aopp_deconv_tool.graphical</text>
<text text-anchor="start" x="300.5" y="-431.5" font-family="Helvetica,sans-Serif" font-size="10.00">_frontends.ssa_filtering.ImagePlot.is</text>
<text text-anchor="middle" x="389.5" y="-420.5" font-family="Helvetica,sans-Serif" font-size="10.00">_new_data_compatible</text>
</a>
</g>
</g>
<!-- Node1&#45;&gt;Node2 -->
<g id="edge1_Node000001_Node000002" class="edge">
<title>Node1&#45;&gt;Node2</title>
<g id="a_edge1_Node000001_Node000002"><a xlink:title=" ">
<path fill="none" stroke="#63b8ff" d="M121.46,-216.16C138.58,-254.42 189.01,-355.4 264,-405 269.98,-408.96 276.44,-412.38 283.15,-415.33"/>
<polygon fill="#63b8ff" stroke="#63b8ff" points="281.86,-418.59 292.44,-419.08 284.48,-412.09 281.86,-418.59"/>
</a>
</g>
</g>
<!-- Node3 -->
<g id="Node000003" class="node">
<title>Node3</title>
<g id="a_Node000003"><a xlink:href="../../d1/d4b/classaopp__deconv__tool_1_1graphical__frontends_1_1ssa__filtering_1_1LinePlot.html#a012d15fe4bdccdd70a661ffddfadb5a5" target="_top" xlink:title=" ">
<polygon fill="white" stroke="#666666" points="481.5,-395.5 297.5,-395.5 297.5,-354.5 481.5,-354.5 481.5,-395.5"/>
<text text-anchor="start" x="305.5" y="-383.5" font-family="Helvetica,sans-Serif" font-size="10.00">aopp_deconv_tool.graphical</text>
<text text-anchor="start" x="305.5" y="-372.5" font-family="Helvetica,sans-Serif" font-size="10.00">_frontends.ssa_filtering.LinePlot.is</text>
<text text-anchor="middle" x="389.5" y="-361.5" font-family="Helvetica,sans-Serif" font-size="10.00">_new_data_compatible</text>
</a>
</g>
</g>
<!-- Node1&#45;&gt;Node3 -->
<g id="edge2_Node000001_Node000003" class="edge">
<title>Node1&#45;&gt;Node3</title>
<g id="a_edge2_Node000001_Node000003"><a xlink:title=" ">
<path fill="none" stroke="#63b8ff" d="M126.22,-216.33C148.8,-246.03 202.83,-311.39 264,-345 271.42,-349.08 279.39,-352.61 287.58,-355.66"/>
<polygon fill="#63b8ff" stroke="#63b8ff" points="286.69,-359.05 297.28,-359.03 288.98,-352.44 286.69,-359.05"/>
</a>
</g>
</g>
<!-- Node4 -->
<g id="Node000004" class="node">
<title>Node4</title>
<g id="a_Node000004"><a xlink:href="../../d7/d1a/classaopp__deconv__tool_1_1graphical__frontends_1_1ssa__filtering_1_1BasePlot.html#ac5b6b4a92ca9aa6a96cea9d16217b831" target="_top" xlink:title=" ">
<polygon fill="white" stroke="#666666" points="498,-318 281,-318 281,-288 498,-288 498,-318"/>
<text text-anchor="start" x="289" y="-306" font-family="Helvetica,sans-Serif" font-size="10.00">aopp_deconv_tool.graphical</text>
<text text-anchor="middle" x="389.5" y="-295" font-family="Helvetica,sans-Serif" font-size="10.00">_frontends.ssa_filtering.BasePlot.remove</text>
</a>
</g>
</g>
<!-- Node1&#45;&gt;Node4 -->
<g id="edge3_Node000001_Node000004" class="edge">
<title>Node1&#45;&gt;Node4</title>
<g id="a_edge3_Node000001_Node000004"><a xlink:title=" ">
<path fill="none" stroke="#63b8ff" d="M138.54,-216.1C167.11,-233.77 217.28,-262.67 264,-279 270.71,-281.35 277.72,-283.48 284.83,-285.43"/>
<polygon fill="#63b8ff" stroke="#63b8ff" points="284.02,-288.83 294.58,-287.96 285.78,-282.06 284.02,-288.83"/>
</a>
</g>
</g>
<!-- Node5 -->
<g id="Node000005" class="node">
<title>Node5</title>
<g id="a_Node000005"><a xlink:href="../../db/dd6/classaopp__deconv__tool_1_1graphical__frontends_1_1ssa__filtering_1_1ImagePlot.html#ac6cf2549f230815f44eabb01fefe2a69" target="_top" xlink:title=" ">
<polygon fill="white" stroke="#666666" points="501.5,-252 277.5,-252 277.5,-222 501.5,-222 501.5,-252"/>
<text text-anchor="start" x="285.5" y="-240" font-family="Helvetica,sans-Serif" font-size="10.00">aopp_deconv_tool.graphical</text>
<text text-anchor="middle" x="389.5" y="-229" font-family="Helvetica,sans-Serif" font-size="10.00">_frontends.ssa_filtering.ImagePlot.remove</text>
</a>
</g>
</g>
<!-- Node1&#45;&gt;Node5 -->
<g id="edge5_Node000001_Node000005" class="edge">
<title>Node1&#45;&gt;Node5</title>
<g id="a_edge5_Node000001_Node000005"><a xlink:title=" ">
<path fill="none" stroke="#63b8ff" d="M228.22,-215.9C240.97,-217.58 254.01,-219.3 266.87,-220.99"/>
<polygon fill="#63b8ff" stroke="#63b8ff" points="266.76,-224.51 277.13,-222.34 267.67,-217.57 266.76,-224.51"/>
</a>
</g>
</g>
<!-- Node6 -->
<g id="Node000006" class="node">
<title>Node6</title>
<g id="a_Node000006"><a xlink:href="../../da/d39/classaopp__deconv__tool_1_1graphical__frontends_1_1ssa__filtering_1_1WidgetBase.html#af6aef2730715bf5f18f8ecd23dc615dc" target="_top" xlink:title=" ">
<polygon fill="white" stroke="#666666" points="473.5,-185.5 305.5,-185.5 305.5,-144.5 473.5,-144.5 473.5,-185.5"/>
<text text-anchor="start" x="313.5" y="-173.5" font-family="Helvetica,sans-Serif" font-size="10.00">aopp_deconv_tool.graphical</text>
<text text-anchor="start" x="313.5" y="-162.5" font-family="Helvetica,sans-Serif" font-size="10.00">_frontends.ssa_filtering.Widget</text>
<text text-anchor="middle" x="389.5" y="-151.5" font-family="Helvetica,sans-Serif" font-size="10.00">Base.remove</text>
</a>
</g>
</g>
<!-- Node1&#45;&gt;Node6 -->
<g id="edge7_Node000001_Node000006" class="edge">
<title>Node1&#45;&gt;Node6</title>
<g id="a_edge7_Node000001_Node000006"><a xlink:title=" ">
<path fill="none" stroke="#63b8ff" d="M228.22,-186.1C250.55,-183.16 273.74,-180.11 295.31,-177.27"/>
<polygon fill="#63b8ff" stroke="#63b8ff" points="295.97,-180.71 305.43,-175.93 295.06,-173.77 295.97,-180.71"/>
</a>
</g>
</g>
<!-- Node7 -->
<g id="Node000007" class="node">
<title>Node7</title>
<g id="a_Node000007"><a xlink:href="../../d6/da1/classaopp__deconv__tool_1_1task__strat_1_1TaskStratSet.html#a089f805d274ef3be0b64217e99ffed9d" target="_top" xlink:title=" ">
<polygon fill="white" stroke="#666666" points="464,-126 315,-126 315,-96 464,-96 464,-126"/>
<text text-anchor="start" x="323" y="-114" font-family="Helvetica,sans-Serif" font-size="10.00">aopp_deconv_tool.task</text>
<text text-anchor="middle" x="389.5" y="-103" font-family="Helvetica,sans-Serif" font-size="10.00">_strat.TaskStratSet.remove</text>
</a>
</g>
</g>
<!-- Node1&#45;&gt;Node7 -->
<g id="edge9_Node000001_Node000007" class="edge">
<title>Node1&#45;&gt;Node7</title>
<g id="a_edge9_Node000001_Node000007"><a xlink:title=" ">
<path fill="none" stroke="#63b8ff" d="M144.53,-185.88C174.08,-171.28 221.19,-149.46 264,-136 277.03,-131.9 291.05,-128.32 304.81,-125.25"/>
<polygon fill="#63b8ff" stroke="#63b8ff" points="305.73,-128.63 314.77,-123.1 304.25,-121.79 305.73,-128.63"/>
</a>
</g>
</g>
<!-- Node9 -->
<g id="Node000009" class="node">
<title>Node9</title>
<g id="a_Node000009"><a xlink:href="../../db/dd6/classaopp__deconv__tool_1_1graphical__frontends_1_1ssa__filtering_1_1ImagePlot.html#aae07fedf2cff11e37b6496dfad51bb92" target="_top" xlink:title=" ">
<polygon fill="white" stroke="#666666" points="515,-78 264,-78 264,-48 515,-48 515,-78"/>
<text text-anchor="start" x="272" y="-66" font-family="Helvetica,sans-Serif" font-size="10.00">aopp_deconv_tool.graphical</text>
<text text-anchor="middle" x="389.5" y="-55" font-family="Helvetica,sans-Serif" font-size="10.00">_frontends.ssa_filtering.ImagePlot.sanitise_data</text>
</a>
</g>
</g>
<!-- Node1&#45;&gt;Node9 -->
<g id="edge11_Node000001_Node000009" class="edge">
<title>Node1&#45;&gt;Node9</title>
<g id="a_edge11_Node000001_Node000009"><a xlink:title=" ">
<path fill="none" stroke="#63b8ff" d="M129.93,-185.65C155.12,-160.74 208.73,-111.8 264,-87 268.71,-84.89 273.61,-82.96 278.61,-81.2"/>
<polygon fill="#63b8ff" stroke="#63b8ff" points="279.92,-84.45 288.34,-78.02 277.75,-77.8 279.92,-84.45"/>
</a>
</g>
</g>
<!-- Node10 -->
<g id="Node000010" class="node">
<title>Node10</title>
<g id="a_Node000010"><a xlink:href="../../d1/d4b/classaopp__deconv__tool_1_1graphical__frontends_1_1ssa__filtering_1_1LinePlot.html#ac35e5fa64883848195e0bf919d84b177" target="_top" xlink:title=" ">
<polygon fill="white" stroke="#666666" points="510,-30 269,-30 269,0 510,0 510,-30"/>
<text text-anchor="start" x="277" y="-18" font-family="Helvetica,sans-Serif" font-size="10.00">aopp_deconv_tool.graphical</text>
<text text-anchor="middle" x="389.5" y="-7" font-family="Helvetica,sans-Serif" font-size="10.00">_frontends.ssa_filtering.LinePlot.sanitise_data</text>
</a>
</g>
</g>
<!-- Node1&#45;&gt;Node10 -->
<g id="edge12_Node000001_Node000010" class="edge">
<title>Node1&#45;&gt;Node10</title>
<g id="a_edge12_Node000001_Node000010"><a xlink:title=" ">
<path fill="none" stroke="#63b8ff" d="M123.99,-185.99C144.39,-153.39 197.59,-76.04 264,-39 267.27,-37.18 270.65,-35.49 274.12,-33.93"/>
<polygon fill="#63b8ff" stroke="#63b8ff" points="275.56,-37.12 283.48,-30.09 272.9,-30.65 275.56,-37.12"/>
</a>
</g>
</g>
<!-- Node4&#45;&gt;Node4 -->
<g id="edge4_Node000004_Node000004" class="edge">
<title>Node4&#45;&gt;Node4</title>
<g id="a_edge4_Node000004_Node000004"><a xlink:title=" ">
<path fill="none" stroke="#63b8ff" d="M349.77,-318.28C340.95,-327.41 354.19,-336 389.5,-336 410.47,-336 423.65,-332.97 429.06,-328.6"/>
<polygon fill="#63b8ff" stroke="#63b8ff" points="432.56,-328.33 429.23,-318.28 425.56,-328.22 432.56,-328.33"/>
</a>
</g>
</g>
<!-- Node5&#45;&gt;Node5 -->
<g id="edge6_Node000005_Node000005" class="edge">
<title>Node5&#45;&gt;Node5</title>
<g id="a_edge6_Node000005_Node000005"><a xlink:title=" ">
<path fill="none" stroke="#63b8ff" d="M349.77,-252.28C340.95,-261.41 354.19,-270 389.5,-270 410.47,-270 423.65,-266.97 429.06,-262.6"/>
<polygon fill="#63b8ff" stroke="#63b8ff" points="432.56,-262.33 429.23,-252.28 425.56,-262.22 432.56,-262.33"/>
</a>
</g>
</g>
<!-- Node6&#45;&gt;Node6 -->
<g id="edge8_Node000006_Node000006" class="edge">
<title>Node6&#45;&gt;Node6</title>
<g id="a_edge8_Node000006_Node000006"><a xlink:title=" ">
<path fill="none" stroke="#63b8ff" d="M347.96,-185.6C343.43,-195.15 357.28,-203.5 389.5,-203.5 409.64,-203.5 422.6,-200.24 428.38,-195.46"/>
<polygon fill="#63b8ff" stroke="#63b8ff" points="431.82,-196.16 431.04,-185.6 425.06,-194.34 431.82,-196.16"/>
</a>
</g>
</g>
<!-- Node8 -->
<g id="Node000008" class="node">
<title>Node8</title>
<g id="a_Node000008"><a xlink:href="../../d6/da1/classaopp__deconv__tool_1_1task__strat_1_1TaskStratSet.html#a9c869a7fb815955cc1bb5666e5ebe08f" target="_top" xlink:title=" ">
<polygon fill="white" stroke="#666666" points="680,-131.5 551,-131.5 551,-90.5 680,-90.5 680,-131.5"/>
<text text-anchor="start" x="559" y="-119.5" font-family="Helvetica,sans-Serif" font-size="10.00">aopp_deconv_tool.task</text>
<text text-anchor="start" x="559" y="-108.5" font-family="Helvetica,sans-Serif" font-size="10.00">_strat.TaskStratSet.</text>
<text text-anchor="middle" x="615.5" y="-97.5" font-family="Helvetica,sans-Serif" font-size="10.00">_del_item</text>
</a>
</g>
</g>
<!-- Node7&#45;&gt;Node8 -->
<g id="edge10_Node000007_Node000008" class="edge">
<title>Node7&#45;&gt;Node8</title>
<g id="a_edge10_Node000007_Node000008"><a xlink:title=" ">
<path fill="none" stroke="#63b8ff" d="M464.16,-111C488.81,-111 516.29,-111 540.94,-111"/>
<polygon fill="#63b8ff" stroke="#63b8ff" points="540.95,-114.5 550.95,-111 540.95,-107.5 540.95,-114.5"/>
</a>
</g>
</g>
</g>
</svg>

<g id="navigator" transform="translate(0 0)" fill="#404254">
  <rect fill="#f2f5e9" fill-opacity="0.5" stroke="#606060" stroke-width=".5" x="0" y="0" width="60" height="60"/>
  <use id="zoomplus" xlink:href="#zoomPlus" x="17" y="9" onmousedown="handleZoom(evt,'in')"/>
  <use id="zoomminus" xlink:href="#zoomMin" x="42" y="9" onmousedown="handleZoom(evt,'out')"/>
  <use id="reset" xlink:href="#resetDef" x="30" y="36" onmousedown="handleReset()"/>
   <use id="arrowup" xlink:href="#arrowUp" x="0" y="0" onmousedown="handlePan(0,-1)"/>
  <use id="arrowright" xlink:href="#arrowRight" x="0" y="0" onmousedown="handlePan(1,0)"/>
  <use id="arrowdown" xlink:href="#arrowDown" x="0" y="0" onmousedown="handlePan(0,1)"/>
  <use id="arrowleft" xlink:href="#arrowLeft" x="0" y="0" onmousedown="handlePan(-1,0)"/>
</g>
<svg viewBox="0 0 15 15" width="100%" height="30px" preserveAspectRatio="xMaxYMin meet">
 <g id="arrow_out" transform="scale(0.3 0.3)">
  <a xlink:href="classaopp__deconv__tool_1_1graphical__frontends_1_1ssa__filtering_1_1ImagePlot_aa2bda605c014c2b3193e8c4db3e4ecfb_cgraph_org.svg" target="_base">
   <rect id="button" ry="5" rx="5" y="6" x="6" height="38" width="38"
        fill="#f2f5e9" fill-opacity="0.5" stroke="#606060" stroke-width="1.0"/>
   <path id="arrow"
     d="M 11.500037,31.436501 C 11.940474,20.09759 22.043105,11.32322 32.158766,21.979434 L 37.068811,17.246167 C 37.068811,17.246167 37.088388,32 37.088388,32 L 22.160133,31.978069 C 22.160133,31.978069 26.997745,27.140456 26.997745,27.140456 C 18.528582,18.264221 13.291696,25.230495 11.500037,31.436501 z"
     style="fill:#404040;"/>
  </a>
 </g>
</svg>

<style type='text/css'>
<![CDATA[
[data-mouse-over-selected='false'] { opacity: 0.7; }
[data-mouse-over-selected='true']  { opacity: 1.0; }
]]>
</style>
<script type="application/ecmascript"><![CDATA[
document.addEventListener('DOMContentLoaded', (event) => {
  highlightEdges();
  highlightAdjacentNodes();
});
]]></script>
</svg>
