<?xml version="1.0" encoding="UTF-8" standalone="no"?>
<!DOCTYPE svg PUBLIC "-//W3C//DTD SVG 1.1//EN"
 "http://www.w3.org/Graphics/SVG/1.1/DTD/svg11.dtd">
<!-- Generated by graphviz version 2.43.0 (0)
 -->
<!-- Title: aopp_deconv_tool.data_structures.bi_directional_map.BiDirectionalMap.update Pages: 1 -->
<svg width="403pt" height="67pt"
 viewBox="0.00 0.00 403.00 67.00" xmlns="http://www.w3.org/2000/svg" xmlns:xlink="http://www.w3.org/1999/xlink">
<g id="graph0" class="graph" transform="scale(1 1) rotate(0) translate(4 63)">
<title>aopp_deconv_tool.data_structures.bi_directional_map.BiDirectionalMap.update</title>
<!-- Node1 -->
<g id="Node000001" class="node">
<title>Node1</title>
<g id="a_Node000001"><a xlink:title=" ">
<polygon fill="#999999" stroke="#666666" points="167,-41 0,-41 0,0 167,0 167,-41"/>
<text text-anchor="start" x="8" y="-29" font-family="Helvetica,sans-Serif" font-size="10.00">aopp_deconv_tool.data</text>
<text text-anchor="start" x="8" y="-18" font-family="Helvetica,sans-Serif" font-size="10.00">_structures.bi_directional</text>
<text text-anchor="middle" x="83.5" y="-7" font-family="Helvetica,sans-Serif" font-size="10.00">_map.BiDirectionalMap.update</text>
</a>
</g>
</g>
<!-- Node2 -->
<g id="Node000002" class="node">
<title>Node2</title>
<g id="a_Node000002"><a xlink:href="../../df/da5/classaopp__deconv__tool_1_1data__structures_1_1bi__directional__map_1_1BiDirectionalMap.html#a2d4460384d592427d0594d80804d936c" target="_top" xlink:title=" ">
<polygon fill="white" stroke="#666666" points="395,-41 203,-41 203,0 395,0 395,-41"/>
<text text-anchor="start" x="211" y="-29" font-family="Helvetica,sans-Serif" font-size="10.00">aopp_deconv_tool.data</text>
<text text-anchor="start" x="211" y="-18" font-family="Helvetica,sans-Serif" font-size="10.00">_structures.bi_directional</text>
<text text-anchor="middle" x="299" y="-7" font-family="Helvetica,sans-Serif" font-size="10.00">_map.BiDirectionalMap.__setitem__</text>
</a>
</g>
</g>
<!-- Node1&#45;&gt;Node2 -->
<g id="edge1_Node000001_Node000002" class="edge">
<title>Node1&#45;&gt;Node2</title>
<g id="a_edge1_Node000001_Node000002"><a xlink:title=" ">
<path fill="none" stroke="#63b8ff" d="M167.04,-20.5C175.48,-20.5 184.13,-20.5 192.76,-20.5"/>
<polygon fill="#63b8ff" stroke="#63b8ff" points="192.87,-24 202.87,-20.5 192.87,-17 192.87,-24"/>
</a>
</g>
</g>
<!-- Node2&#45;&gt;Node2 -->
<g id="edge2_Node000002_Node000002" class="edge">
<title>Node2&#45;&gt;Node2</title>
<g id="a_edge2_Node000002_Node000002"><a xlink:title=" ">
<path fill="none" stroke="#63b8ff" d="M259.67,-41.1C255.38,-50.65 268.49,-59 299,-59 318.07,-59 330.34,-55.74 335.82,-50.96"/>
<polygon fill="#63b8ff" stroke="#63b8ff" points="339.25,-51.65 338.33,-41.1 332.47,-49.92 339.25,-51.65"/>
</a>
</g>
</g>
</g>
</svg>
