<?xml version="1.0" encoding="UTF-8" standalone="no"?>
<!DOCTYPE svg PUBLIC "-//W3C//DTD SVG 1.1//EN"
 "http://www.w3.org/Graphics/SVG/1.1/DTD/svg11.dtd">
<!-- Generated by graphviz version 2.43.0 (0)
 -->
<!-- Title: aopp_deconv_tool.data_structures.bi_directional_map.BiDirectionalMap.__getitem__ Pages: 1 -->
<svg width="562pt" height="160pt"
 viewBox="0.00 0.00 562.00 159.50" xmlns="http://www.w3.org/2000/svg" xmlns:xlink="http://www.w3.org/1999/xlink">
<g id="graph0" class="graph" transform="scale(1 1) rotate(0) translate(4 155.5)">
<title>aopp_deconv_tool.data_structures.bi_directional_map.BiDirectionalMap.__getitem__</title>
<!-- Node1 -->
<g id="node1" class="node">
<title>Node1</title>
<g id="a_node1"><a xlink:title=" ">
<polygon fill="#bfbfbf" stroke="black" points="361,-50 361,-91 554,-91 554,-50 361,-50"/>
<text text-anchor="start" x="369" y="-79" font-family="Helvetica,sans-Serif" font-size="10.00">aopp_deconv_tool.data</text>
<text text-anchor="start" x="369" y="-68" font-family="Helvetica,sans-Serif" font-size="10.00">_structures.bi_directional</text>
<text text-anchor="middle" x="457.5" y="-57" font-family="Helvetica,sans-Serif" font-size="10.00">_map.BiDirectionalMap.__getitem__</text>
</a>
</g>
</g>
<!-- Node2 -->
<g id="node2" class="node">
<title>Node2</title>
<g id="a_node2"><a xlink:href="../../d6/da1/classaopp__deconv__tool_1_1task__strat_1_1TaskStratSet.html#ad7d425601c3adf5f89372f5c7cd5fcb9" target="_top" xlink:title=" ">
<polygon fill="none" stroke="black" points="180.5,-110 180.5,-151 309.5,-151 309.5,-110 180.5,-110"/>
<text text-anchor="start" x="188.5" y="-139" font-family="Helvetica,sans-Serif" font-size="10.00">aopp_deconv_tool.task</text>
<text text-anchor="start" x="188.5" y="-128" font-family="Helvetica,sans-Serif" font-size="10.00">_strat.TaskStratSet.get</text>
<text text-anchor="middle" x="245" y="-117" font-family="Helvetica,sans-Serif" font-size="10.00">_callable</text>
</a>
</g>
</g>
<!-- Node1&#45;&gt;Node2 -->
<g id="edge1" class="edge">
<title>Node1&#45;&gt;Node2</title>
<path fill="none" stroke="midnightblue" d="M374.55,-93.86C352.99,-100 330.05,-106.54 309.61,-112.37"/>
<polygon fill="midnightblue" stroke="midnightblue" points="375.69,-97.17 384.35,-91.06 373.78,-90.44 375.69,-97.17"/>
</g>
<!-- Node4 -->
<g id="node4" class="node">
<title>Node4</title>
<g id="a_node4"><a xlink:href="../../d6/da1/classaopp__deconv__tool_1_1task__strat_1_1TaskStratSet.html#ad0d15b5cff34e71befae57b1f326753a" target="_top" xlink:title=" ">
<polygon fill="none" stroke="black" points="180.5,-50 180.5,-91 309.5,-91 309.5,-50 180.5,-50"/>
<text text-anchor="start" x="188.5" y="-79" font-family="Helvetica,sans-Serif" font-size="10.00">aopp_deconv_tool.task</text>
<text text-anchor="start" x="188.5" y="-68" font-family="Helvetica,sans-Serif" font-size="10.00">_strat.TaskStratSet.get</text>
<text text-anchor="middle" x="245" y="-57" font-family="Helvetica,sans-Serif" font-size="10.00">_description</text>
</a>
</g>
</g>
<!-- Node1&#45;&gt;Node4 -->
<g id="edge3" class="edge">
<title>Node1&#45;&gt;Node4</title>
<path fill="none" stroke="midnightblue" d="M350.59,-70.5C336.56,-70.5 322.54,-70.5 309.53,-70.5"/>
<polygon fill="midnightblue" stroke="midnightblue" points="350.8,-74 360.8,-70.5 350.8,-67 350.8,-74"/>
</g>
<!-- Node5 -->
<g id="node5" class="node">
<title>Node5</title>
<g id="a_node5"><a xlink:href="../../d6/da1/classaopp__deconv__tool_1_1task__strat_1_1TaskStratSet.html#aa904ac0f4514c2cedd25e66f229ca55a" target="_top" xlink:title=" ">
<polygon fill="none" stroke="black" points="165,-0.5 165,-30.5 325,-30.5 325,-0.5 165,-0.5"/>
<text text-anchor="start" x="173" y="-18.5" font-family="Helvetica,sans-Serif" font-size="10.00">aopp_deconv_tool.task</text>
<text text-anchor="middle" x="245" y="-7.5" font-family="Helvetica,sans-Serif" font-size="10.00">_strat.TaskStratSet.get_name</text>
</a>
</g>
</g>
<!-- Node1&#45;&gt;Node5 -->
<g id="edge4" class="edge">
<title>Node1&#45;&gt;Node5</title>
<path fill="none" stroke="midnightblue" d="M367.9,-47.35C346.15,-41.67 323.42,-35.73 303.56,-30.54"/>
<polygon fill="midnightblue" stroke="midnightblue" points="367.26,-50.8 377.82,-49.94 369.03,-44.03 367.26,-50.8"/>
</g>
<!-- Node3 -->
<g id="node3" class="node">
<title>Node3</title>
<g id="a_node3"><a xlink:href="../../d6/da1/classaopp__deconv__tool_1_1task__strat_1_1TaskStratSet.html#ad5ecc70e3c731505ae6b552e5815f4ac" target="_top" xlink:title=" ">
<polygon fill="none" stroke="black" points="0,-110 0,-151 129,-151 129,-110 0,-110"/>
<text text-anchor="start" x="8" y="-139" font-family="Helvetica,sans-Serif" font-size="10.00">aopp_deconv_tool.task</text>
<text text-anchor="start" x="8" y="-128" font-family="Helvetica,sans-Serif" font-size="10.00">_strat.TaskStratSet.</text>
<text text-anchor="middle" x="64.5" y="-117" font-family="Helvetica,sans-Serif" font-size="10.00">__call__</text>
</a>
</g>
</g>
<!-- Node2&#45;&gt;Node3 -->
<g id="edge2" class="edge">
<title>Node2&#45;&gt;Node3</title>
<path fill="none" stroke="midnightblue" d="M170.05,-130.5C156.47,-130.5 142.41,-130.5 129.16,-130.5"/>
<polygon fill="midnightblue" stroke="midnightblue" points="170.31,-134 180.31,-130.5 170.31,-127 170.31,-134"/>
</g>
</g>
</svg>
