<?xml version="1.0" encoding="UTF-8" standalone="no"?>
<!DOCTYPE svg PUBLIC "-//W3C//DTD SVG 1.1//EN"
 "http://www.w3.org/Graphics/SVG/1.1/DTD/svg11.dtd">
<!-- Generated by graphviz version 2.43.0 (0)
 -->
<!-- Title: aopp_deconv_tool.spectral_rebin.ResponseFunction Pages: 1 -->
<svg width="377pt" height="86pt"
 viewBox="0.00 0.00 377.00 86.00" xmlns="http://www.w3.org/2000/svg" xmlns:xlink="http://www.w3.org/1999/xlink">
<g id="graph0" class="graph" transform="scale(1 1) rotate(0) translate(4 82)">
<title>aopp_deconv_tool.spectral_rebin.ResponseFunction</title>
<!-- Node1 -->
<g id="Node000001" class="node">
<title>Node1</title>
<g id="a_Node000001"><a xlink:title=" ">
<polygon fill="#999999" stroke="#666666" points="147,-54 0,-54 0,-24 147,-24 147,-54"/>
<text text-anchor="start" x="8" y="-42" font-family="Helvetica,sans-Serif" font-size="10.00">aopp_deconv_tool.spectral</text>
<text text-anchor="middle" x="73.5" y="-31" font-family="Helvetica,sans-Serif" font-size="10.00">_rebin.ResponseFunction</text>
</a>
</g>
</g>
<!-- Node2 -->
<g id="Node000002" class="node">
<title>Node2</title>
<g id="a_Node000002"><a xlink:href="../../d2/dd2/classaopp__deconv__tool_1_1spectral__rebin_1_1SquareResponseFunction.html" target="_top" xlink:title=" ">
<polygon fill="white" stroke="#666666" points="362,-78 190,-78 190,-48 362,-48 362,-78"/>
<text text-anchor="start" x="198" y="-66" font-family="Helvetica,sans-Serif" font-size="10.00">aopp_deconv_tool.spectral</text>
<text text-anchor="middle" x="276" y="-55" font-family="Helvetica,sans-Serif" font-size="10.00">_rebin.SquareResponseFunction</text>
</a>
</g>
</g>
<!-- Node1&#45;&gt;Node2 -->
<g id="edge1_Node000001_Node000002" class="edge">
<title>Node1&#45;&gt;Node2</title>
<g id="a_edge1_Node000001_Node000002"><a xlink:title=" ">
<path fill="none" stroke="#63b8ff" d="M157.38,-48.92C168.14,-50.21 179.18,-51.53 189.97,-52.82"/>
<polygon fill="#63b8ff" stroke="#63b8ff" points="157.51,-45.41 147.17,-47.7 156.68,-52.36 157.51,-45.41"/>
</a>
</g>
</g>
<!-- Node3 -->
<g id="Node000003" class="node">
<title>Node3</title>
<g id="a_Node000003"><a xlink:href="../../d2/d98/classaopp__deconv__tool_1_1spectral__rebin_1_1TriangularResponseFunction.html" target="_top" xlink:title=" ">
<polygon fill="white" stroke="#666666" points="369,-30 183,-30 183,0 369,0 369,-30"/>
<text text-anchor="start" x="191" y="-18" font-family="Helvetica,sans-Serif" font-size="10.00">aopp_deconv_tool.spectral</text>
<text text-anchor="middle" x="276" y="-7" font-family="Helvetica,sans-Serif" font-size="10.00">_rebin.TriangularResponseFunction</text>
</a>
</g>
</g>
<!-- Node1&#45;&gt;Node3 -->
<g id="edge2_Node000001_Node000003" class="edge">
<title>Node1&#45;&gt;Node3</title>
<g id="a_edge2_Node000001_Node000003"><a xlink:title=" ">
<path fill="none" stroke="#63b8ff" d="M157.29,-29.09C165.68,-28.09 174.23,-27.06 182.71,-26.05"/>
<polygon fill="#63b8ff" stroke="#63b8ff" points="156.68,-25.64 147.17,-30.3 157.51,-32.59 156.68,-25.64"/>
</a>
</g>
</g>
</g>
</svg>
