<?xml version="1.0" encoding="UTF-8" standalone="no"?>
<!DOCTYPE svg PUBLIC "-//W3C//DTD SVG 1.1//EN"
 "http://www.w3.org/Graphics/SVG/1.1/DTD/svg11.dtd">
<!-- Generated by graphviz version 2.43.0 (0)
 -->
<!-- Title: aopp_deconv_tool.fits_copy_wcs.exec_with_args Pages: 1 -->
<svg width="719pt" height="88pt"
 viewBox="0.00 0.00 719.00 88.00" xmlns="http://www.w3.org/2000/svg" xmlns:xlink="http://www.w3.org/1999/xlink">
<g id="graph0" class="graph" transform="scale(1 1) rotate(0) translate(4 84)">
<title>aopp_deconv_tool.fits_copy_wcs.exec_with_args</title>
<!-- Node1 -->
<g id="node1" class="node">
<title>Node1</title>
<g id="a_node1"><a xlink:title=" ">
<polygon fill="#bfbfbf" stroke="black" points="0,-24.5 0,-54.5 148,-54.5 148,-24.5 0,-24.5"/>
<text text-anchor="start" x="8" y="-42.5" font-family="Helvetica,sans-Serif" font-size="10.00">aopp_deconv_tool.fits</text>
<text text-anchor="middle" x="74" y="-31.5" font-family="Helvetica,sans-Serif" font-size="10.00">_copy_wcs.exec_with_args</text>
</a>
</g>
</g>
<!-- Node2 -->
<g id="node2" class="node">
<title>Node2</title>
<g id="a_node2"><a xlink:href="../../d4/d1f/namespaceaopp__deconv__tool_1_1fits__copy__wcs.html#a919079e5f742632cf582ee2a7c9ff7a2" target="_top" xlink:title=" ">
<polygon fill="none" stroke="black" points="184,-49.5 184,-79.5 309,-79.5 309,-49.5 184,-49.5"/>
<text text-anchor="start" x="192" y="-67.5" font-family="Helvetica,sans-Serif" font-size="10.00">aopp_deconv_tool.fits</text>
<text text-anchor="middle" x="246.5" y="-56.5" font-family="Helvetica,sans-Serif" font-size="10.00">_copy_wcs.parse_args</text>
</a>
</g>
</g>
<!-- Node1&#45;&gt;Node2 -->
<g id="edge1" class="edge">
<title>Node1&#45;&gt;Node2</title>
<path fill="none" stroke="midnightblue" d="M148.3,-50.25C156.7,-51.48 165.27,-52.74 173.65,-53.97"/>
<polygon fill="midnightblue" stroke="midnightblue" points="173.37,-57.46 183.77,-55.45 174.39,-50.54 173.37,-57.46"/>
</g>
<!-- Node5 -->
<g id="node5" class="node">
<title>Node5</title>
<g id="a_node5"><a xlink:href="../../d4/d1f/namespaceaopp__deconv__tool_1_1fits__copy__wcs.html#ae49fe3c344fc401e274d1a5b60783839" target="_top" xlink:title=" ">
<polygon fill="none" stroke="black" points="184.5,-0.5 184.5,-30.5 308.5,-30.5 308.5,-0.5 184.5,-0.5"/>
<text text-anchor="start" x="192.5" y="-18.5" font-family="Helvetica,sans-Serif" font-size="10.00">aopp_deconv_tool.fits</text>
<text text-anchor="middle" x="246.5" y="-7.5" font-family="Helvetica,sans-Serif" font-size="10.00">_copy_wcs.run</text>
</a>
</g>
</g>
<!-- Node1&#45;&gt;Node5 -->
<g id="edge4" class="edge">
<title>Node1&#45;&gt;Node5</title>
<path fill="none" stroke="midnightblue" d="M148.3,-29.18C156.92,-27.97 165.72,-26.73 174.32,-25.52"/>
<polygon fill="midnightblue" stroke="midnightblue" points="174.88,-28.97 184.3,-24.11 173.91,-22.04 174.88,-28.97"/>
</g>
<!-- Node3 -->
<g id="node3" class="node">
<title>Node3</title>
<g id="a_node3"><a xlink:href="../../d8/d5b/namespaceaopp__deconv__tool_1_1text.html#ae13da0dd246571ccd435ba5f64904bfe" target="_top" xlink:title=" ">
<polygon fill="none" stroke="black" points="346,-55 346,-74 501,-74 501,-55 346,-55"/>
<text text-anchor="middle" x="423.5" y="-62" font-family="Helvetica,sans-Serif" font-size="10.00">aopp_deconv_tool.text.wrap</text>
</a>
</g>
</g>
<!-- Node2&#45;&gt;Node3 -->
<g id="edge2" class="edge">
<title>Node2&#45;&gt;Node3</title>
<path fill="none" stroke="midnightblue" d="M309.2,-64.5C317.78,-64.5 326.72,-64.5 335.66,-64.5"/>
<polygon fill="midnightblue" stroke="midnightblue" points="335.72,-68 345.72,-64.5 335.72,-61 335.72,-68"/>
</g>
<!-- Node4 -->
<g id="node4" class="node">
<title>Node4</title>
<g id="a_node4"><a xlink:href="../../d8/d5b/namespaceaopp__deconv__tool_1_1text.html#a5b208e43cdecac49460b4ced231aa4a6" target="_top" xlink:title=" ">
<polygon fill="none" stroke="black" points="538,-49.5 538,-79.5 711,-79.5 711,-49.5 538,-49.5"/>
<text text-anchor="start" x="546" y="-67.5" font-family="Helvetica,sans-Serif" font-size="10.00">aopp_deconv_tool.text.combine</text>
<text text-anchor="middle" x="624.5" y="-56.5" font-family="Helvetica,sans-Serif" font-size="10.00">_lines_with_same_indent</text>
</a>
</g>
</g>
<!-- Node3&#45;&gt;Node4 -->
<g id="edge3" class="edge">
<title>Node3&#45;&gt;Node4</title>
<path fill="none" stroke="midnightblue" d="M501.15,-64.5C509.9,-64.5 518.9,-64.5 527.86,-64.5"/>
<polygon fill="midnightblue" stroke="midnightblue" points="527.94,-68 537.94,-64.5 527.94,-61 527.94,-68"/>
</g>
<!-- Node6 -->
<g id="node6" class="node">
<title>Node6</title>
<g id="a_node6"><a xlink:href="../../d4/d1f/namespaceaopp__deconv__tool_1_1fits__copy__wcs.html#af6191865da902c5a391db9bb1c8b0498" target="_top" xlink:title=" ">
<polygon fill="none" stroke="black" points="345,-0.5 345,-30.5 502,-30.5 502,-0.5 345,-0.5"/>
<text text-anchor="start" x="353" y="-18.5" font-family="Helvetica,sans-Serif" font-size="10.00">aopp_deconv_tool.fits</text>
<text text-anchor="middle" x="423.5" y="-7.5" font-family="Helvetica,sans-Serif" font-size="10.00">_copy_wcs.get_fits_file_type</text>
</a>
</g>
</g>
<!-- Node5&#45;&gt;Node6 -->
<g id="edge5" class="edge">
<title>Node5&#45;&gt;Node6</title>
<path fill="none" stroke="midnightblue" d="M308.71,-15.5C317.07,-15.5 325.78,-15.5 334.5,-15.5"/>
<polygon fill="midnightblue" stroke="midnightblue" points="334.72,-19 344.72,-15.5 334.72,-12 334.72,-19"/>
</g>
</g>
</svg>
