<?xml version="1.0" encoding="UTF-8" standalone="no"?>
<!DOCTYPE svg PUBLIC "-//W3C//DTD SVG 1.1//EN"
 "http://www.w3.org/Graphics/SVG/1.1/DTD/svg11.dtd">
<!-- Generated by graphviz version 2.43.0 (0)
 -->
<!-- Title: vlt.VLT Pages: 1 -->
<svg width="418pt" height="216pt"
 viewBox="0.00 0.00 418.00 216.00" xmlns="http://www.w3.org/2000/svg" xmlns:xlink="http://www.w3.org/1999/xlink">
<g id="graph0" class="graph" transform="scale(1 1) rotate(0) translate(4 212)">
<title>vlt.VLT</title>
<!-- Node1 -->
<g id="node1" class="node">
<title>Node1</title>
<g id="a_node1"><a xlink:title=" ">
<polygon fill="#bfbfbf" stroke="black" points="107,-0.5 107,-19.5 157,-19.5 157,-0.5 107,-0.5"/>
<text text-anchor="middle" x="132" y="-7.5" font-family="Helvetica,sans-Serif" font-size="10.00">vlt.VLT</text>
</a>
</g>
</g>
<!-- Node2 -->
<g id="node2" class="node">
<title>Node2</title>
<g id="a_node2"><a xlink:title=" ">
<polygon fill="none" stroke="#bfbfbf" points="0,-188.5 0,-207.5 94,-207.5 94,-188.5 0,-188.5"/>
<text text-anchor="middle" x="47" y="-195.5" font-family="Helvetica,sans-Serif" font-size="10.00">InstrumentBase</text>
</a>
</g>
</g>
<!-- Node2&#45;&gt;Node1 -->
<g id="edge1" class="edge">
<title>Node2&#45;&gt;Node1</title>
<path fill="none" stroke="midnightblue" d="M55.29,-178.87C73.16,-139.76 114.79,-48.66 127.94,-19.88"/>
<polygon fill="midnightblue" stroke="midnightblue" points="52.07,-177.48 51.1,-188.03 58.44,-180.39 52.07,-177.48"/>
</g>
<!-- Node3 -->
<g id="node3" class="node">
<title>Node3</title>
<g id="a_node3"><a xlink:title=" ">
<polygon fill="none" stroke="#bfbfbf" points="112.5,-188.5 112.5,-207.5 151.5,-207.5 151.5,-188.5 112.5,-188.5"/>
<text text-anchor="middle" x="132" y="-195.5" font-family="Helvetica,sans-Serif" font-size="10.00">float</text>
</a>
</g>
</g>
<!-- Node3&#45;&gt;Node1 -->
<g id="edge2" class="edge">
<title>Node3&#45;&gt;Node1</title>
<path fill="none" stroke="#9a32cd" stroke-dasharray="5,2" d="M132,-177.86C132,-138.21 132,-48.42 132,-19.88"/>
<polygon fill="#9a32cd" stroke="#9a32cd" points="128.5,-178.03 132,-188.03 135.5,-178.03 128.5,-178.03"/>
<text text-anchor="start" x="132" y="-107" font-family="Helvetica,sans-Serif" font-size="10.00"> secondary_mirror_diameter</text>
<text text-anchor="middle" x="201.5" y="-96" font-family="Helvetica,sans-Serif" font-size="10.00">_frac_of_primary</text>
</g>
<!-- Node4 -->
<g id="node4" class="node">
<title>Node4</title>
<g id="a_node4"><a xlink:title=" ">
<polygon fill="none" stroke="#bfbfbf" points="279.5,-188.5 279.5,-207.5 308.5,-207.5 308.5,-188.5 279.5,-188.5"/>
<text text-anchor="middle" x="294" y="-195.5" font-family="Helvetica,sans-Serif" font-size="10.00">int</text>
</a>
</g>
</g>
<!-- Node4&#45;&gt;Node1 -->
<g id="edge3" class="edge">
<title>Node4&#45;&gt;Node1</title>
<path fill="none" stroke="#9a32cd" stroke-dasharray="5,2" d="M297.66,-178.22C302.93,-145.13 308.37,-76.35 272,-38 256.58,-21.75 192.98,-14.98 157.04,-12.41"/>
<polygon fill="#9a32cd" stroke="#9a32cd" points="294.17,-177.87 295.88,-188.32 301.06,-179.08 294.17,-177.87"/>
<text text-anchor="middle" x="355.5" y="-162" font-family="Helvetica,sans-Serif" font-size="10.00"> f_ao</text>
<text text-anchor="middle" x="355.5" y="-151" font-family="Helvetica,sans-Serif" font-size="10.00">n_actuators</text>
<text text-anchor="middle" x="355.5" y="-140" font-family="Helvetica,sans-Serif" font-size="10.00">obj_diameter</text>
<text text-anchor="start" x="301" y="-129" font-family="Helvetica,sans-Serif" font-size="10.00">primary_mirror</text>
<text text-anchor="middle" x="355.5" y="-118" font-family="Helvetica,sans-Serif" font-size="10.00">_diameter</text>
<text text-anchor="start" x="301" y="-107" font-family="Helvetica,sans-Serif" font-size="10.00">primary_mirror</text>
<text text-anchor="middle" x="355.5" y="-96" font-family="Helvetica,sans-Serif" font-size="10.00">_focal_length</text>
<text text-anchor="middle" x="355.5" y="-85" font-family="Helvetica,sans-Serif" font-size="10.00">primary_mirror_pos</text>
<text text-anchor="start" x="301" y="-74" font-family="Helvetica,sans-Serif" font-size="10.00">secondary_mirror</text>
<text text-anchor="middle" x="355.5" y="-63" font-family="Helvetica,sans-Serif" font-size="10.00">_diameter_meters</text>
<text text-anchor="start" x="301" y="-52" font-family="Helvetica,sans-Serif" font-size="10.00">secondary_mirror_dist</text>
<text text-anchor="middle" x="355.5" y="-41" font-family="Helvetica,sans-Serif" font-size="10.00">_from_primary</text>
</g>
</g>
</svg>
