<?xml version="1.0" encoding="UTF-8" standalone="no"?>
<!DOCTYPE svg PUBLIC "-//W3C//DTD SVG 1.1//EN"
 "http://www.w3.org/Graphics/SVG/1.1/DTD/svg11.dtd">
<!-- Generated by graphviz version 2.43.0 (0)
 -->
<!-- Title: vlt.VLT Pages: 1 -->
<svg width="412pt" height="214pt"
 viewBox="0.00 0.00 412.00 214.00" xmlns="http://www.w3.org/2000/svg" xmlns:xlink="http://www.w3.org/1999/xlink">
<g id="graph0" class="graph" transform="scale(1 1) rotate(0) translate(4 210)">
<title>vlt.VLT</title>
<!-- Node1 -->
<g id="Node000001" class="node">
<title>Node1</title>
<g id="a_Node000001"><a xlink:title=" ">
<polygon fill="#999999" stroke="#666666" points="152,-19 102,-19 102,0 152,0 152,-19"/>
<text text-anchor="middle" x="127" y="-7" font-family="Helvetica,sans-Serif" font-size="10.00">vlt.VLT</text>
</a>
</g>
</g>
<!-- Node2 -->
<g id="Node000002" class="node">
<title>Node2</title>
<g id="a_Node000002"><a xlink:title=" ">
<polygon fill="white" stroke="#666666" points="94,-206 0,-206 0,-187 94,-187 94,-206"/>
<text text-anchor="middle" x="47" y="-194" font-family="Helvetica,sans-Serif" font-size="10.00">InstrumentBase</text>
</a>
</g>
</g>
<!-- Node2&#45;&gt;Node1 -->
<g id="edge1_Node000001_Node000002" class="edge">
<title>Node2&#45;&gt;Node1</title>
<g id="a_edge1_Node000001_Node000002"><a xlink:title=" ">
<path fill="none" stroke="#63b8ff" d="M55.01,-176.97C71.95,-137.79 110.85,-47.84 123.18,-19.33"/>
<polygon fill="#63b8ff" stroke="#63b8ff" points="51.62,-176.01 50.86,-186.58 58.04,-178.79 51.62,-176.01"/>
</a>
</g>
</g>
<!-- Node3 -->
<g id="Node000003" class="node">
<title>Node3</title>
<g id="a_Node000003"><a xlink:title=" ">
<polygon fill="white" stroke="#666666" points="141.5,-206 112.5,-206 112.5,-187 141.5,-187 141.5,-206"/>
<text text-anchor="middle" x="127" y="-194" font-family="Helvetica,sans-Serif" font-size="10.00">int</text>
</a>
</g>
</g>
<!-- Node3&#45;&gt;Node1 -->
<g id="edge2_Node000001_Node000003" class="edge">
<title>Node3&#45;&gt;Node1</title>
<g id="a_edge2_Node000001_Node000003"><a xlink:title=" ">
<path fill="none" stroke="#9a32cd" stroke-dasharray="5,2" d="M127,-176.46C127,-137.03 127,-47.72 127,-19.33"/>
<polygon fill="#9a32cd" stroke="#9a32cd" points="123.5,-176.58 127,-186.58 130.5,-176.58 123.5,-176.58"/>
</a>
</g>
<text text-anchor="middle" x="181.5" y="-161" font-family="Helvetica,sans-Serif" font-size="10.00" fill="grey"> f_ao</text>
<text text-anchor="middle" x="181.5" y="-150" font-family="Helvetica,sans-Serif" font-size="10.00" fill="grey">n_actuators</text>
<text text-anchor="middle" x="181.5" y="-139" font-family="Helvetica,sans-Serif" font-size="10.00" fill="grey">obj_diameter</text>
<text text-anchor="start" x="127" y="-128" font-family="Helvetica,sans-Serif" font-size="10.00" fill="grey">primary_mirror</text>
<text text-anchor="middle" x="181.5" y="-117" font-family="Helvetica,sans-Serif" font-size="10.00" fill="grey">_diameter</text>
<text text-anchor="start" x="127" y="-106" font-family="Helvetica,sans-Serif" font-size="10.00" fill="grey">primary_mirror</text>
<text text-anchor="middle" x="181.5" y="-95" font-family="Helvetica,sans-Serif" font-size="10.00" fill="grey">_focal_length</text>
<text text-anchor="middle" x="181.5" y="-84" font-family="Helvetica,sans-Serif" font-size="10.00" fill="grey">primary_mirror_pos</text>
<text text-anchor="start" x="127" y="-73" font-family="Helvetica,sans-Serif" font-size="10.00" fill="grey">secondary_mirror</text>
<text text-anchor="middle" x="181.5" y="-62" font-family="Helvetica,sans-Serif" font-size="10.00" fill="grey">_diameter_meters</text>
<text text-anchor="start" x="127" y="-51" font-family="Helvetica,sans-Serif" font-size="10.00" fill="grey">secondary_mirror_dist</text>
<text text-anchor="middle" x="181.5" y="-40" font-family="Helvetica,sans-Serif" font-size="10.00" fill="grey">_from_primary</text>
</g>
<!-- Node4 -->
<g id="Node000004" class="node">
<title>Node4</title>
<g id="a_Node000004"><a xlink:title=" ">
<polygon fill="white" stroke="#666666" points="278,-206 240,-206 240,-187 278,-187 278,-206"/>
<text text-anchor="middle" x="259" y="-194" font-family="Helvetica,sans-Serif" font-size="10.00">float</text>
</a>
</g>
</g>
<!-- Node4&#45;&gt;Node1 -->
<g id="edge3_Node000001_Node000004" class="edge">
<title>Node4&#45;&gt;Node1</title>
<g id="a_edge3_Node000001_Node000004"><a xlink:title=" ">
<path fill="none" stroke="#9a32cd" stroke-dasharray="5,2" d="M262.46,-176.94C267.41,-144.22 272.37,-76.04 237,-37 225.79,-24.63 180.96,-17 152.11,-13.27"/>
<polygon fill="#9a32cd" stroke="#9a32cd" points="258.99,-176.49 260.78,-186.93 265.89,-177.65 258.99,-176.49"/>
</a>
</g>
<text text-anchor="start" x="265" y="-106" font-family="Helvetica,sans-Serif" font-size="10.00" fill="grey"> secondary_mirror_diameter</text>
<text text-anchor="middle" x="334.5" y="-95" font-family="Helvetica,sans-Serif" font-size="10.00" fill="grey">_frac_of_primary</text>
</g>
</g>
</svg>
