<?xml version="1.0" encoding="UTF-8" standalone="no"?>
<!DOCTYPE svg PUBLIC "-//W3C//DTD SVG 1.1//EN"
 "http://www.w3.org/Graphics/SVG/1.1/DTD/svg11.dtd">
<!-- Generated by graphviz version 2.43.0 (0)
 -->
<!-- Title: aopp_deconv_tool.interpolate.go Pages: 1 -->
<svg width="1083pt" height="102pt"
 viewBox="0.00 0.00 1083.00 101.50" xmlns="http://www.w3.org/2000/svg" xmlns:xlink="http://www.w3.org/1999/xlink">
<g id="graph0" class="graph" transform="scale(1 1) rotate(0) translate(4 97.5)">
<title>aopp_deconv_tool.interpolate.go</title>
<!-- Node1 -->
<g id="node1" class="node">
<title>Node1</title>
<g id="a_node1"><a xlink:title=" ">
<polygon fill="#bfbfbf" stroke="black" points="0,-43.5 0,-62.5 176,-62.5 176,-43.5 0,-43.5"/>
<text text-anchor="middle" x="88" y="-50.5" font-family="Helvetica,sans-Serif" font-size="10.00">aopp_deconv_tool.interpolate.go</text>
</a>
</g>
</g>
<!-- Node2 -->
<g id="node2" class="node">
<title>Node2</title>
<g id="a_node2"><a xlink:href="../../da/d5f/namespaceaopp__deconv__tool_1_1arguments.html#a206efe8090df20dc2ee1729424f5bb9f" target="_top" xlink:title=" ">
<polygon fill="none" stroke="black" points="212,-63 212,-93 421,-93 421,-63 212,-63"/>
<text text-anchor="start" x="220" y="-81" font-family="Helvetica,sans-Serif" font-size="10.00">aopp_deconv_tool.arguments.construct</text>
<text text-anchor="middle" x="316.5" y="-70" font-family="Helvetica,sans-Serif" font-size="10.00">_arglist_from_locals</text>
</a>
</g>
</g>
<!-- Node1&#45;&gt;Node2 -->
<g id="edge1" class="edge">
<title>Node1&#45;&gt;Node2</title>
<path fill="none" stroke="midnightblue" d="M175.28,-62.52C184,-63.49 192.94,-64.47 201.89,-65.46"/>
<polygon fill="midnightblue" stroke="midnightblue" points="201.66,-68.96 211.99,-66.57 202.43,-62 201.66,-68.96"/>
</g>
<!-- Node3 -->
<g id="node3" class="node">
<title>Node3</title>
<g id="a_node3"><a xlink:href="../../d5/ddb/namespaceaopp__deconv__tool_1_1interpolate.html#a48796d07587b5987c22e7e035354fab4" target="_top" xlink:title=" ">
<polygon fill="none" stroke="black" points="222.5,-14 222.5,-44 410.5,-44 410.5,-14 222.5,-14"/>
<text text-anchor="start" x="230.5" y="-32" font-family="Helvetica,sans-Serif" font-size="10.00">aopp_deconv_tool.interpolate.exec</text>
<text text-anchor="middle" x="316.5" y="-21" font-family="Helvetica,sans-Serif" font-size="10.00">_with_args</text>
</a>
</g>
</g>
<!-- Node1&#45;&gt;Node3 -->
<g id="edge2" class="edge">
<title>Node1&#45;&gt;Node3</title>
<path fill="none" stroke="midnightblue" d="M176.25,-43.76C188.03,-42.51 200.2,-41.22 212.23,-39.94"/>
<polygon fill="midnightblue" stroke="midnightblue" points="212.71,-43.41 222.29,-38.88 211.97,-36.45 212.71,-43.41"/>
</g>
<!-- Node4 -->
<g id="node4" class="node">
<title>Node4</title>
<g id="a_node4"><a xlink:href="../../d5/ddb/namespaceaopp__deconv__tool_1_1interpolate.html#abf004ff77536f8a4c52a86709a9ae800" target="_top" xlink:title=" ">
<polygon fill="none" stroke="black" points="457,-38.5 457,-57.5 675,-57.5 675,-38.5 457,-38.5"/>
<text text-anchor="middle" x="566" y="-45.5" font-family="Helvetica,sans-Serif" font-size="10.00">aopp_deconv_tool.interpolate.parse_args</text>
</a>
</g>
</g>
<!-- Node3&#45;&gt;Node4 -->
<g id="edge3" class="edge">
<title>Node3&#45;&gt;Node4</title>
<path fill="none" stroke="midnightblue" d="M410.72,-36.16C422.49,-37.06 434.66,-37.99 446.76,-38.92"/>
<polygon fill="midnightblue" stroke="midnightblue" points="446.66,-42.43 456.9,-39.7 447.19,-35.45 446.66,-42.43"/>
</g>
<!-- Node7 -->
<g id="node7" class="node">
<title>Node7</title>
<g id="a_node7"><a xlink:href="../../d5/ddb/namespaceaopp__deconv__tool_1_1interpolate.html#a86687f347b04c5e0da27b32cf68e98cc" target="_top" xlink:title=" ">
<polygon fill="none" stroke="black" points="476,-0.5 476,-19.5 656,-19.5 656,-0.5 476,-0.5"/>
<text text-anchor="middle" x="566" y="-7.5" font-family="Helvetica,sans-Serif" font-size="10.00">aopp_deconv_tool.interpolate.run</text>
</a>
</g>
</g>
<!-- Node3&#45;&gt;Node7 -->
<g id="edge6" class="edge">
<title>Node3&#45;&gt;Node7</title>
<path fill="none" stroke="midnightblue" d="M410.72,-21.84C428.75,-20.46 447.71,-19 465.93,-17.61"/>
<polygon fill="midnightblue" stroke="midnightblue" points="466.26,-21.09 475.96,-16.84 465.72,-14.11 466.26,-21.09"/>
</g>
<!-- Node5 -->
<g id="node5" class="node">
<title>Node5</title>
<g id="a_node5"><a xlink:href="../../d8/d5b/namespaceaopp__deconv__tool_1_1text.html#ae13da0dd246571ccd435ba5f64904bfe" target="_top" xlink:title=" ">
<polygon fill="none" stroke="black" points="711,-38.5 711,-57.5 866,-57.5 866,-38.5 711,-38.5"/>
<text text-anchor="middle" x="788.5" y="-45.5" font-family="Helvetica,sans-Serif" font-size="10.00">aopp_deconv_tool.text.wrap</text>
</a>
</g>
</g>
<!-- Node4&#45;&gt;Node5 -->
<g id="edge4" class="edge">
<title>Node4&#45;&gt;Node5</title>
<path fill="none" stroke="midnightblue" d="M675.31,-48C683.83,-48 692.36,-48 700.71,-48"/>
<polygon fill="midnightblue" stroke="midnightblue" points="700.78,-51.5 710.78,-48 700.78,-44.5 700.78,-51.5"/>
</g>
<!-- Node6 -->
<g id="node6" class="node">
<title>Node6</title>
<g id="a_node6"><a xlink:href="../../d8/d5b/namespaceaopp__deconv__tool_1_1text.html#a5b208e43cdecac49460b4ced231aa4a6" target="_top" xlink:title=" ">
<polygon fill="none" stroke="black" points="902,-33 902,-63 1075,-63 1075,-33 902,-33"/>
<text text-anchor="start" x="910" y="-51" font-family="Helvetica,sans-Serif" font-size="10.00">aopp_deconv_tool.text.combine</text>
<text text-anchor="middle" x="988.5" y="-40" font-family="Helvetica,sans-Serif" font-size="10.00">_lines_with_same_indent</text>
</a>
</g>
</g>
<!-- Node5&#45;&gt;Node6 -->
<g id="edge5" class="edge">
<title>Node5&#45;&gt;Node6</title>
<path fill="none" stroke="midnightblue" d="M866.05,-48C874.5,-48 883.18,-48 891.82,-48"/>
<polygon fill="midnightblue" stroke="midnightblue" points="891.94,-51.5 901.94,-48 891.94,-44.5 891.94,-51.5"/>
</g>
</g>
</svg>
