<?xml version="1.0" encoding="UTF-8" standalone="no"?>
<!DOCTYPE svg PUBLIC "-//W3C//DTD SVG 1.1//EN"
 "http://www.w3.org/Graphics/SVG/1.1/DTD/svg11.dtd">
<!-- Generated by graphviz version 2.43.0 (0)
 -->
<!-- Title: aopp_deconv_tool.interpolate.run Pages: 1 -->
<svg width="624pt" height="39pt"
 viewBox="0.00 0.00 624.00 39.00" xmlns="http://www.w3.org/2000/svg" xmlns:xlink="http://www.w3.org/1999/xlink">
<g id="graph0" class="graph" transform="scale(1 1) rotate(0) translate(4 35)">
<title>aopp_deconv_tool.interpolate.run</title>
<!-- Node1 -->
<g id="node1" class="node">
<title>Node1</title>
<g id="a_node1"><a xlink:title=" ">
<polygon fill="#bfbfbf" stroke="black" points="436,-6 436,-25 616,-25 616,-6 436,-6"/>
<text text-anchor="middle" x="526" y="-13" font-family="Helvetica,sans-Serif" font-size="10.00">aopp_deconv_tool.interpolate.run</text>
</a>
</g>
</g>
<!-- Node2 -->
<g id="node2" class="node">
<title>Node2</title>
<g id="a_node2"><a xlink:href="../../d5/ddb/namespaceaopp__deconv__tool_1_1interpolate.html#a48796d07587b5987c22e7e035354fab4" target="_top" xlink:title=" ">
<polygon fill="none" stroke="black" points="212,-0.5 212,-30.5 400,-30.5 400,-0.5 212,-0.5"/>
<text text-anchor="start" x="220" y="-18.5" font-family="Helvetica,sans-Serif" font-size="10.00">aopp_deconv_tool.interpolate.exec</text>
<text text-anchor="middle" x="306" y="-7.5" font-family="Helvetica,sans-Serif" font-size="10.00">_with_args</text>
</a>
</g>
</g>
<!-- Node1&#45;&gt;Node2 -->
<g id="edge1" class="edge">
<title>Node1&#45;&gt;Node2</title>
<path fill="none" stroke="midnightblue" d="M425.44,-15.5C416.98,-15.5 408.45,-15.5 400.05,-15.5"/>
<polygon fill="midnightblue" stroke="midnightblue" points="425.7,-19 435.7,-15.5 425.7,-12 425.7,-19"/>
</g>
<!-- Node3 -->
<g id="node3" class="node">
<title>Node3</title>
<g id="a_node3"><a xlink:href="../../d5/ddb/namespaceaopp__deconv__tool_1_1interpolate.html#a90751da03483cf837084f4aa70cdb1d4" target="_top" xlink:title=" ">
<polygon fill="none" stroke="black" points="0,-6 0,-25 176,-25 176,-6 0,-6"/>
<text text-anchor="middle" x="88" y="-13" font-family="Helvetica,sans-Serif" font-size="10.00">aopp_deconv_tool.interpolate.go</text>
</a>
</g>
</g>
<!-- Node2&#45;&gt;Node3 -->
<g id="edge2" class="edge">
<title>Node2&#45;&gt;Node3</title>
<path fill="none" stroke="midnightblue" d="M201.77,-15.5C193.17,-15.5 184.52,-15.5 176.06,-15.5"/>
<polygon fill="midnightblue" stroke="midnightblue" points="201.83,-19 211.83,-15.5 201.83,-12 201.83,-19"/>
</g>
</g>
</svg>
