<?xml version="1.0" encoding="UTF-8" standalone="no"?>
<!DOCTYPE svg PUBLIC "-//W3C//DTD SVG 1.1//EN"
 "http://www.w3.org/Graphics/SVG/1.1/DTD/svg11.dtd">
<!-- Generated by graphviz version 2.43.0 (0)
 -->
<!-- Title: aopp_deconv_tool.interpolate.go Pages: 1 -->
<svg width="1083pt" height="117pt"
 viewBox="0.00 0.00 1083.00 116.50" xmlns="http://www.w3.org/2000/svg" xmlns:xlink="http://www.w3.org/1999/xlink">
<g id="graph0" class="graph" transform="scale(1 1) rotate(0) translate(4 112.5)">
<title>aopp_deconv_tool.interpolate.go</title>
<!-- Node1 -->
<g id="Node000001" class="node">
<title>Node1</title>
<g id="a_Node000001"><a xlink:title=" ">
<polygon fill="#999999" stroke="#666666" points="176,-70 0,-70 0,-51 176,-51 176,-70"/>
<text text-anchor="middle" x="88" y="-58" font-family="Helvetica,sans-Serif" font-size="10.00">aopp_deconv_tool.interpolate.go</text>
</a>
</g>
</g>
<!-- Node2 -->
<g id="Node000002" class="node">
<title>Node2</title>
<g id="a_Node000002"><a xlink:href="../../da/d5f/namespaceaopp__deconv__tool_1_1arguments.html#aec2c9d770d31aa257cf89a398d910714" target="_top" xlink:title=" ">
<polygon fill="white" stroke="#666666" points="421,-108.5 212,-108.5 212,-78.5 421,-78.5 421,-108.5"/>
<text text-anchor="start" x="220" y="-96.5" font-family="Helvetica,sans-Serif" font-size="10.00">aopp_deconv_tool.arguments.construct</text>
<text text-anchor="middle" x="316.5" y="-85.5" font-family="Helvetica,sans-Serif" font-size="10.00">_arglist_from_locals</text>
</a>
</g>
</g>
<!-- Node1&#45;&gt;Node2 -->
<g id="edge1_Node000001_Node000002" class="edge">
<title>Node1&#45;&gt;Node2</title>
<g id="a_edge1_Node000001_Node000002"><a xlink:title=" ">
<path fill="none" stroke="#63b8ff" d="M154.21,-70C169.25,-72.19 185.68,-74.59 202.12,-76.98"/>
<polygon fill="#63b8ff" stroke="#63b8ff" points="201.94,-80.49 212.34,-78.47 202.95,-73.57 201.94,-80.49"/>
</a>
</g>
</g>
<!-- Node3 -->
<g id="Node000003" class="node">
<title>Node3</title>
<g id="a_Node000003"><a xlink:href="../../d5/ddb/namespaceaopp__deconv__tool_1_1interpolate.html#a7bda07803ba191b5ff2f40faf888e13a" target="_top" xlink:title=" ">
<polygon fill="white" stroke="#666666" points="410,-42.5 223,-42.5 223,-12.5 410,-12.5 410,-42.5"/>
<text text-anchor="start" x="231" y="-30.5" font-family="Helvetica,sans-Serif" font-size="10.00">aopp_deconv_tool.interpolate.exec</text>
<text text-anchor="middle" x="316.5" y="-19.5" font-family="Helvetica,sans-Serif" font-size="10.00">_with_args</text>
</a>
</g>
</g>
<!-- Node1&#45;&gt;Node3 -->
<g id="edge2_Node000001_Node000003" class="edge">
<title>Node1&#45;&gt;Node3</title>
<g id="a_edge2_Node000001_Node000003"><a xlink:title=" ">
<path fill="none" stroke="#63b8ff" d="M154.21,-51C172.54,-48.33 192.94,-45.36 212.89,-42.45"/>
<polygon fill="#63b8ff" stroke="#63b8ff" points="213.57,-45.89 222.96,-40.98 212.56,-38.96 213.57,-45.89"/>
</a>
</g>
</g>
<!-- Node3&#45;&gt;Node3 -->
<g id="edge3_Node000003_Node000003" class="edge">
<title>Node3&#45;&gt;Node3</title>
<g id="a_edge3_Node000003_Node000003"><a xlink:title=" ">
<path fill="none" stroke="#63b8ff" d="M276.42,-42.78C267.52,-51.91 280.88,-60.5 316.5,-60.5 337.65,-60.5 350.96,-57.47 356.41,-53.1"/>
<polygon fill="#63b8ff" stroke="#63b8ff" points="359.91,-52.83 356.58,-42.78 352.91,-52.72 359.91,-52.83"/>
</a>
</g>
</g>
<!-- Node4 -->
<g id="Node000004" class="node">
<title>Node4</title>
<g id="a_Node000004"><a xlink:href="../../d5/ddb/namespaceaopp__deconv__tool_1_1interpolate.html#ade9f4feccf2c0678e202594ba7e5ab69" target="_top" xlink:title=" ">
<polygon fill="white" stroke="#666666" points="675,-56 457,-56 457,-37 675,-37 675,-56"/>
<text text-anchor="middle" x="566" y="-44" font-family="Helvetica,sans-Serif" font-size="10.00">aopp_deconv_tool.interpolate.parse_args</text>
</a>
</g>
</g>
<!-- Node3&#45;&gt;Node4 -->
<g id="edge4_Node000003_Node000004" class="edge">
<title>Node3&#45;&gt;Node4</title>
<g id="a_edge4_Node000003_Node000004"><a xlink:title=" ">
<path fill="none" stroke="#63b8ff" d="M410.01,-34.6C421.92,-35.52 434.24,-36.46 446.49,-37.4"/>
<polygon fill="#63b8ff" stroke="#63b8ff" points="446.51,-40.91 456.75,-38.19 447.05,-33.93 446.51,-40.91"/>
</a>
</g>
</g>
<!-- Node7 -->
<g id="Node000007" class="node">
<title>Node7</title>
<g id="a_Node000007"><a xlink:href="../../d5/ddb/namespaceaopp__deconv__tool_1_1interpolate.html#ac068abb2260e14c9c2bd64e42804f1a2" target="_top" xlink:title=" ">
<polygon fill="white" stroke="#666666" points="656,-19 476,-19 476,0 656,0 656,-19"/>
<text text-anchor="middle" x="566" y="-7" font-family="Helvetica,sans-Serif" font-size="10.00">aopp_deconv_tool.interpolate.run</text>
</a>
</g>
</g>
<!-- Node3&#45;&gt;Node7 -->
<g id="edge7_Node000003_Node000007" class="edge">
<title>Node3&#45;&gt;Node7</title>
<g id="a_edge7_Node000003_Node000007"><a xlink:title=" ">
<path fill="none" stroke="#63b8ff" d="M410.01,-20.77C428.2,-19.45 447.35,-18.06 465.75,-16.72"/>
<polygon fill="#63b8ff" stroke="#63b8ff" points="466.16,-20.2 475.88,-15.98 465.66,-13.22 466.16,-20.2"/>
</a>
</g>
</g>
<!-- Node5 -->
<g id="Node000005" class="node">
<title>Node5</title>
<g id="a_Node000005"><a xlink:href="../../d8/d5b/namespaceaopp__deconv__tool_1_1text.html#a75d81e58c71da89b56473e2616edd1c6" target="_top" xlink:title=" ">
<polygon fill="white" stroke="#666666" points="866,-56 711,-56 711,-37 866,-37 866,-56"/>
<text text-anchor="middle" x="788.5" y="-44" font-family="Helvetica,sans-Serif" font-size="10.00">aopp_deconv_tool.text.wrap</text>
</a>
</g>
</g>
<!-- Node4&#45;&gt;Node5 -->
<g id="edge5_Node000004_Node000005" class="edge">
<title>Node4&#45;&gt;Node5</title>
<g id="a_edge5_Node000004_Node000005"><a xlink:title=" ">
<path fill="none" stroke="#63b8ff" d="M675.31,-46.5C683.83,-46.5 692.36,-46.5 700.71,-46.5"/>
<polygon fill="#63b8ff" stroke="#63b8ff" points="700.78,-50 710.78,-46.5 700.78,-43 700.78,-50"/>
</a>
</g>
</g>
<!-- Node6 -->
<g id="Node000006" class="node">
<title>Node6</title>
<g id="a_Node000006"><a xlink:href="../../d8/d5b/namespaceaopp__deconv__tool_1_1text.html#a1496cf89a275b1b851ff81f401628c27" target="_top" xlink:title=" ">
<polygon fill="white" stroke="#666666" points="1075,-61.5 902,-61.5 902,-31.5 1075,-31.5 1075,-61.5"/>
<text text-anchor="start" x="910" y="-49.5" font-family="Helvetica,sans-Serif" font-size="10.00">aopp_deconv_tool.text.combine</text>
<text text-anchor="middle" x="988.5" y="-38.5" font-family="Helvetica,sans-Serif" font-size="10.00">_lines_with_same_indent</text>
</a>
</g>
</g>
<!-- Node5&#45;&gt;Node6 -->
<g id="edge6_Node000005_Node000006" class="edge">
<title>Node5&#45;&gt;Node6</title>
<g id="a_edge6_Node000005_Node000006"><a xlink:title=" ">
<path fill="none" stroke="#63b8ff" d="M866.05,-46.5C874.5,-46.5 883.18,-46.5 891.82,-46.5"/>
<polygon fill="#63b8ff" stroke="#63b8ff" points="891.94,-50 901.94,-46.5 891.94,-43 891.94,-50"/>
</a>
</g>
</g>
</g>
</svg>
