<?xml version="1.0" encoding="UTF-8" standalone="no"?>
<!DOCTYPE svg PUBLIC "-//W3C//DTD SVG 1.1//EN"
 "http://www.w3.org/Graphics/SVG/1.1/DTD/svg11.dtd">
<!-- Generated by graphviz version 2.43.0 (0)
 -->
<!-- Title: aopp_deconv_tool.interpolate.exec_with_args Pages: 1 -->
<svg width="849pt" height="70pt"
 viewBox="0.00 0.00 849.00 69.50" xmlns="http://www.w3.org/2000/svg" xmlns:xlink="http://www.w3.org/1999/xlink">
<g id="graph0" class="graph" transform="scale(1 1) rotate(0) translate(4 65.5)">
<title>aopp_deconv_tool.interpolate.exec_with_args</title>
<!-- Node1 -->
<g id="Node000001" class="node">
<title>Node1</title>
<g id="a_Node000001"><a xlink:title=" ">
<polygon fill="#999999" stroke="#666666" points="187,-42.5 0,-42.5 0,-12.5 187,-12.5 187,-42.5"/>
<text text-anchor="start" x="8" y="-30.5" font-family="Helvetica,sans-Serif" font-size="10.00">aopp_deconv_tool.interpolate.exec</text>
<text text-anchor="middle" x="93.5" y="-19.5" font-family="Helvetica,sans-Serif" font-size="10.00">_with_args</text>
</a>
</g>
</g>
<!-- Node1&#45;&gt;Node1 -->
<g id="edge1_Node000001_Node000001" class="edge">
<title>Node1&#45;&gt;Node1</title>
<g id="a_edge1_Node000001_Node000001"><a xlink:title=" ">
<path fill="none" stroke="#63b8ff" d="M51.66,-42.78C42.37,-51.91 56.31,-60.5 93.5,-60.5 115.58,-60.5 129.47,-57.47 135.16,-53.1"/>
<polygon fill="#63b8ff" stroke="#63b8ff" points="138.66,-52.83 135.34,-42.78 131.66,-52.71 138.66,-52.83"/>
</a>
</g>
</g>
<!-- Node2 -->
<g id="Node000002" class="node">
<title>Node2</title>
<g id="a_Node000002"><a xlink:href="../../d5/ddb/namespaceaopp__deconv__tool_1_1interpolate.html#ade9f4feccf2c0678e202594ba7e5ab69" target="_top" xlink:title=" ">
<polygon fill="white" stroke="#666666" points="441,-56 223,-56 223,-37 441,-37 441,-56"/>
<text text-anchor="middle" x="332" y="-44" font-family="Helvetica,sans-Serif" font-size="10.00">aopp_deconv_tool.interpolate.parse_args</text>
</a>
</g>
</g>
<!-- Node1&#45;&gt;Node2 -->
<g id="edge2_Node000001_Node000002" class="edge">
<title>Node1&#45;&gt;Node2</title>
<g id="a_edge2_Node000001_Node000002"><a xlink:title=" ">
<path fill="none" stroke="#63b8ff" d="M187.29,-34.95C195.66,-35.63 204.21,-36.31 212.76,-37"/>
<polygon fill="#63b8ff" stroke="#63b8ff" points="212.54,-40.49 222.79,-37.81 213.1,-33.52 212.54,-40.49"/>
</a>
</g>
</g>
<!-- Node5 -->
<g id="Node000005" class="node">
<title>Node5</title>
<g id="a_Node000005"><a xlink:href="../../d5/ddb/namespaceaopp__deconv__tool_1_1interpolate.html#ac068abb2260e14c9c2bd64e42804f1a2" target="_top" xlink:title=" ">
<polygon fill="white" stroke="#666666" points="422,-19 242,-19 242,0 422,0 422,-19"/>
<text text-anchor="middle" x="332" y="-7" font-family="Helvetica,sans-Serif" font-size="10.00">aopp_deconv_tool.interpolate.run</text>
</a>
</g>
</g>
<!-- Node1&#45;&gt;Node5 -->
<g id="edge5_Node000001_Node000005" class="edge">
<title>Node1&#45;&gt;Node5</title>
<g id="a_edge5_Node000001_Node000005"><a xlink:title=" ">
<path fill="none" stroke="#63b8ff" d="M187.29,-20.44C201.91,-19.33 217.07,-18.17 231.82,-17.05"/>
<polygon fill="#63b8ff" stroke="#63b8ff" points="232.25,-20.53 241.96,-16.28 231.72,-13.55 232.25,-20.53"/>
</a>
</g>
</g>
<!-- Node3 -->
<g id="Node000003" class="node">
<title>Node3</title>
<g id="a_Node000003"><a xlink:href="../../d8/d5b/namespaceaopp__deconv__tool_1_1text.html#a75d81e58c71da89b56473e2616edd1c6" target="_top" xlink:title=" ">
<polygon fill="white" stroke="#666666" points="632,-56 477,-56 477,-37 632,-37 632,-56"/>
<text text-anchor="middle" x="554.5" y="-44" font-family="Helvetica,sans-Serif" font-size="10.00">aopp_deconv_tool.text.wrap</text>
</a>
</g>
</g>
<!-- Node2&#45;&gt;Node3 -->
<g id="edge3_Node000002_Node000003" class="edge">
<title>Node2&#45;&gt;Node3</title>
<g id="a_edge3_Node000002_Node000003"><a xlink:title=" ">
<path fill="none" stroke="#63b8ff" d="M441.31,-46.5C449.83,-46.5 458.36,-46.5 466.71,-46.5"/>
<polygon fill="#63b8ff" stroke="#63b8ff" points="466.78,-50 476.78,-46.5 466.78,-43 466.78,-50"/>
</a>
</g>
</g>
<!-- Node4 -->
<g id="Node000004" class="node">
<title>Node4</title>
<g id="a_Node000004"><a xlink:href="../../d8/d5b/namespaceaopp__deconv__tool_1_1text.html#a1496cf89a275b1b851ff81f401628c27" target="_top" xlink:title=" ">
<polygon fill="white" stroke="#666666" points="841,-61.5 668,-61.5 668,-31.5 841,-31.5 841,-61.5"/>
<text text-anchor="start" x="676" y="-49.5" font-family="Helvetica,sans-Serif" font-size="10.00">aopp_deconv_tool.text.combine</text>
<text text-anchor="middle" x="754.5" y="-38.5" font-family="Helvetica,sans-Serif" font-size="10.00">_lines_with_same_indent</text>
</a>
</g>
</g>
<!-- Node3&#45;&gt;Node4 -->
<g id="edge4_Node000003_Node000004" class="edge">
<title>Node3&#45;&gt;Node4</title>
<g id="a_edge4_Node000003_Node000004"><a xlink:title=" ">
<path fill="none" stroke="#63b8ff" d="M632.05,-46.5C640.5,-46.5 649.18,-46.5 657.82,-46.5"/>
<polygon fill="#63b8ff" stroke="#63b8ff" points="657.94,-50 667.94,-46.5 657.94,-43 657.94,-50"/>
</a>
</g>
</g>
</g>
</svg>
