<?xml version="1.0" encoding="UTF-8" standalone="no"?>
<!DOCTYPE svg PUBLIC "-//W3C//DTD SVG 1.1//EN"
 "http://www.w3.org/Graphics/SVG/1.1/DTD/svg11.dtd">
<!-- Generated by graphviz version 2.43.0 (0)
 -->
<!-- Title: aopp_deconv_tool.interpolate.array_ssa_deviations_interpolate_at_mask Pages: 1 -->
<svg width="652pt" height="50pt"
 viewBox="0.00 0.00 652.00 50.00" xmlns="http://www.w3.org/2000/svg" xmlns:xlink="http://www.w3.org/1999/xlink">
<g id="graph0" class="graph" transform="scale(1 1) rotate(0) translate(4 46)">
<title>aopp_deconv_tool.interpolate.array_ssa_deviations_interpolate_at_mask</title>
<!-- Node1 -->
<g id="node1" class="node">
<title>Node1</title>
<g id="a_node1"><a xlink:title=" ">
<polygon fill="#bfbfbf" stroke="black" points="0,-6 0,-36 200,-36 200,-6 0,-6"/>
<text text-anchor="start" x="8" y="-24" font-family="Helvetica,sans-Serif" font-size="10.00">aopp_deconv_tool.interpolate.array</text>
<text text-anchor="middle" x="100" y="-13" font-family="Helvetica,sans-Serif" font-size="10.00">_ssa_deviations_interpolate_at_mask</text>
</a>
</g>
</g>
<!-- Node2 -->
<g id="node2" class="node">
<title>Node2</title>
<g id="a_node2"><a xlink:href="../../dd/d09/namespaceaopp__deconv__tool_1_1algorithm_1_1interpolate_1_1ssa__interp.html#a5108b780cb3062375d2907681d81973b" target="_top" xlink:title=" ">
<polygon fill="none" stroke="black" points="236,-6 236,-36 468,-36 468,-6 236,-6"/>
<text text-anchor="start" x="244" y="-24" font-family="Helvetica,sans-Serif" font-size="10.00">aopp_deconv_tool.algorithm.interpolate.ssa</text>
<text text-anchor="middle" x="352" y="-13" font-family="Helvetica,sans-Serif" font-size="10.00">_interp.ssa_deviations_interpolate_at_mask</text>
</a>
</g>
</g>
<!-- Node1&#45;&gt;Node2 -->
<g id="edge1" class="edge">
<title>Node1&#45;&gt;Node2</title>
<path fill="none" stroke="midnightblue" d="M200.17,-21C208.59,-21 217.18,-21 225.77,-21"/>
<polygon fill="midnightblue" stroke="midnightblue" points="225.85,-24.5 235.85,-21 225.85,-17.5 225.85,-24.5"/>
</g>
<!-- Node3 -->
<g id="node3" class="node">
<title>Node3</title>
<g id="a_node3"><a xlink:href="../../da/df5/namespaceaopp__deconv__tool_1_1scipy__helper_1_1interp.html#afe27d8cf60620374e1470d69c646b2c3" target="_top" xlink:title=" ">
<polygon fill="none" stroke="black" points="504,-0.5 504,-41.5 644,-41.5 644,-0.5 504,-0.5"/>
<text text-anchor="start" x="512" y="-29.5" font-family="Helvetica,sans-Serif" font-size="10.00">aopp_deconv_tool.scipy</text>
<text text-anchor="start" x="512" y="-18.5" font-family="Helvetica,sans-Serif" font-size="10.00">_helper.interp.interpolate</text>
<text text-anchor="middle" x="574" y="-7.5" font-family="Helvetica,sans-Serif" font-size="10.00">_at_mask</text>
</a>
</g>
</g>
<!-- Node2&#45;&gt;Node3 -->
<g id="edge2" class="edge">
<title>Node2&#45;&gt;Node3</title>
<path fill="none" stroke="midnightblue" d="M468.15,-21C476.8,-21 485.41,-21 493.76,-21"/>
<polygon fill="midnightblue" stroke="midnightblue" points="493.8,-24.5 503.8,-21 493.8,-17.5 493.8,-24.5"/>
</g>
</g>
</svg>
