<?xml version="1.0" encoding="UTF-8" standalone="no"?>
<!DOCTYPE svg PUBLIC "-//W3C//DTD SVG 1.1//EN"
 "http://www.w3.org/Graphics/SVG/1.1/DTD/svg11.dtd">
<!-- Generated by graphviz version 2.43.0 (0)
 -->
<!-- Title: aopp_deconv_tool.deconvolve.create_plot_set Pages: 1 -->
<svg width="867pt" height="39pt"
 viewBox="0.00 0.00 867.00 39.00" xmlns="http://www.w3.org/2000/svg" xmlns:xlink="http://www.w3.org/1999/xlink">
<g id="graph0" class="graph" transform="scale(1 1) rotate(0) translate(4 35)">
<title>aopp_deconv_tool.deconvolve.create_plot_set</title>
<!-- Node1 -->
<g id="node1" class="node">
<title>Node1</title>
<g id="a_node1"><a xlink:title=" ">
<polygon fill="#bfbfbf" stroke="black" points="661,-0.5 661,-30.5 859,-30.5 859,-0.5 661,-0.5"/>
<text text-anchor="start" x="669" y="-18.5" font-family="Helvetica,sans-Serif" font-size="10.00">aopp_deconv_tool.deconvolve.create</text>
<text text-anchor="middle" x="760" y="-7.5" font-family="Helvetica,sans-Serif" font-size="10.00">_plot_set</text>
</a>
</g>
</g>
<!-- Node2 -->
<g id="node2" class="node">
<title>Node2</title>
<g id="a_node2"><a xlink:href="../../d6/de2/namespaceaopp__deconv__tool_1_1deconvolve.html#a9857f565a79f5d84be232c9b79eee861" target="_top" xlink:title=" ">
<polygon fill="none" stroke="black" points="442,-6 442,-25 625,-25 625,-6 442,-6"/>
<text text-anchor="middle" x="533.5" y="-13" font-family="Helvetica,sans-Serif" font-size="10.00">aopp_deconv_tool.deconvolve.run</text>
</a>
</g>
</g>
<!-- Node1&#45;&gt;Node2 -->
<g id="edge1" class="edge">
<title>Node1&#45;&gt;Node2</title>
<path fill="none" stroke="midnightblue" d="M650.76,-15.5C642.14,-15.5 633.49,-15.5 625.01,-15.5"/>
<polygon fill="midnightblue" stroke="midnightblue" points="650.86,-19 660.86,-15.5 650.86,-12 650.86,-19"/>
</g>
<!-- Node3 -->
<g id="node3" class="node">
<title>Node3</title>
<g id="a_node3"><a xlink:href="../../d6/de2/namespaceaopp__deconv__tool_1_1deconvolve.html#aac9167e2fdab893a6897a6bed78f442b" target="_top" xlink:title=" ">
<polygon fill="none" stroke="black" points="215,-0.5 215,-30.5 406,-30.5 406,-0.5 215,-0.5"/>
<text text-anchor="start" x="223" y="-18.5" font-family="Helvetica,sans-Serif" font-size="10.00">aopp_deconv_tool.deconvolve.exec</text>
<text text-anchor="middle" x="310.5" y="-7.5" font-family="Helvetica,sans-Serif" font-size="10.00">_with_args</text>
</a>
</g>
</g>
<!-- Node2&#45;&gt;Node3 -->
<g id="edge2" class="edge">
<title>Node2&#45;&gt;Node3</title>
<path fill="none" stroke="midnightblue" d="M431.95,-15.5C423.38,-15.5 414.72,-15.5 406.19,-15.5"/>
<polygon fill="midnightblue" stroke="midnightblue" points="431.97,-19 441.97,-15.5 431.97,-12 431.97,-19"/>
</g>
<!-- Node4 -->
<g id="node4" class="node">
<title>Node4</title>
<g id="a_node4"><a xlink:href="../../d6/de2/namespaceaopp__deconv__tool_1_1deconvolve.html#af6bd8fd6e2c673853b1544085c2bf222" target="_top" xlink:title=" ">
<polygon fill="none" stroke="black" points="0,-6 0,-25 179,-25 179,-6 0,-6"/>
<text text-anchor="middle" x="89.5" y="-13" font-family="Helvetica,sans-Serif" font-size="10.00">aopp_deconv_tool.deconvolve.go</text>
</a>
</g>
</g>
<!-- Node3&#45;&gt;Node4 -->
<g id="edge3" class="edge">
<title>Node3&#45;&gt;Node4</title>
<path fill="none" stroke="midnightblue" d="M204.45,-15.5C196,-15.5 187.52,-15.5 179.21,-15.5"/>
<polygon fill="midnightblue" stroke="midnightblue" points="204.72,-19 214.72,-15.5 204.72,-12 204.72,-19"/>
</g>
</g>
</svg>
