<?xml version="1.0" encoding="UTF-8" standalone="no"?>
<!DOCTYPE svg PUBLIC "-//W3C//DTD SVG 1.1//EN"
 "http://www.w3.org/Graphics/SVG/1.1/DTD/svg11.dtd">
<!-- Generated by graphviz version 2.43.0 (0)
 -->
<!-- Title: aopp_deconv_tool.deconvolve.go Pages: 1 -->
<svg width="1132pt" height="110pt"
 viewBox="0.00 0.00 1132.00 110.00" xmlns="http://www.w3.org/2000/svg" xmlns:xlink="http://www.w3.org/1999/xlink">
<g id="graph0" class="graph" transform="scale(1 1) rotate(0) translate(4 106)">
<title>aopp_deconv_tool.deconvolve.go</title>
<!-- Node1 -->
<g id="node1" class="node">
<title>Node1</title>
<g id="a_node1"><a xlink:title=" ">
<polygon fill="#bfbfbf" stroke="black" points="0,-52 0,-71 179,-71 179,-52 0,-52"/>
<text text-anchor="middle" x="89.5" y="-59" font-family="Helvetica,sans-Serif" font-size="10.00">aopp_deconv_tool.deconvolve.go</text>
</a>
</g>
</g>
<!-- Node2 -->
<g id="node2" class="node">
<title>Node2</title>
<g id="a_node2"><a xlink:href="../../da/d5f/namespaceaopp__deconv__tool_1_1arguments.html#a206efe8090df20dc2ee1729424f5bb9f" target="_top" xlink:title=" ">
<polygon fill="none" stroke="black" points="215,-71.5 215,-101.5 424,-101.5 424,-71.5 215,-71.5"/>
<text text-anchor="start" x="223" y="-89.5" font-family="Helvetica,sans-Serif" font-size="10.00">aopp_deconv_tool.arguments.construct</text>
<text text-anchor="middle" x="319.5" y="-78.5" font-family="Helvetica,sans-Serif" font-size="10.00">_arglist_from_locals</text>
</a>
</g>
</g>
<!-- Node1&#45;&gt;Node2 -->
<g id="edge1" class="edge">
<title>Node1&#45;&gt;Node2</title>
<path fill="none" stroke="midnightblue" d="M177.35,-71.02C186.31,-72.01 195.51,-73.01 204.71,-74.02"/>
<polygon fill="midnightblue" stroke="midnightblue" points="204.36,-77.51 214.69,-75.12 205.13,-70.55 204.36,-77.51"/>
</g>
<!-- Node3 -->
<g id="node3" class="node">
<title>Node3</title>
<g id="a_node3"><a xlink:href="../../d6/de2/namespaceaopp__deconv__tool_1_1deconvolve.html#aac9167e2fdab893a6897a6bed78f442b" target="_top" xlink:title=" ">
<polygon fill="none" stroke="black" points="224,-22.5 224,-52.5 415,-52.5 415,-22.5 224,-22.5"/>
<text text-anchor="start" x="232" y="-40.5" font-family="Helvetica,sans-Serif" font-size="10.00">aopp_deconv_tool.deconvolve.exec</text>
<text text-anchor="middle" x="319.5" y="-29.5" font-family="Helvetica,sans-Serif" font-size="10.00">_with_args</text>
</a>
</g>
</g>
<!-- Node1&#45;&gt;Node3 -->
<g id="edge2" class="edge">
<title>Node1&#45;&gt;Node3</title>
<path fill="none" stroke="midnightblue" d="M179.3,-52.15C190.62,-50.96 202.28,-49.73 213.82,-48.52"/>
<polygon fill="midnightblue" stroke="midnightblue" points="214.33,-51.98 223.91,-47.46 213.6,-45.02 214.33,-51.98"/>
</g>
<!-- Node4 -->
<g id="node4" class="node">
<title>Node4</title>
<g id="a_node4"><a xlink:href="../../d6/de2/namespaceaopp__deconv__tool_1_1deconvolve.html#afb9fb6db643cda6e6d7af7ca2c1c4940" target="_top" xlink:title=" ">
<polygon fill="none" stroke="black" points="460,-48 460,-67 681,-67 681,-48 460,-48"/>
<text text-anchor="middle" x="570.5" y="-55" font-family="Helvetica,sans-Serif" font-size="10.00">aopp_deconv_tool.deconvolve.parse_args</text>
</a>
</g>
</g>
<!-- Node3&#45;&gt;Node4 -->
<g id="edge3" class="edge">
<title>Node3&#45;&gt;Node4</title>
<path fill="none" stroke="midnightblue" d="M415.35,-45.12C426.61,-46.02 438.23,-46.96 449.78,-47.88"/>
<polygon fill="midnightblue" stroke="midnightblue" points="449.67,-51.39 459.91,-48.7 450.23,-44.41 449.67,-51.39"/>
</g>
<!-- Node7 -->
<g id="node7" class="node">
<title>Node7</title>
<g id="a_node7"><a xlink:href="../../d6/de2/namespaceaopp__deconv__tool_1_1deconvolve.html#a9857f565a79f5d84be232c9b79eee861" target="_top" xlink:title=" ">
<polygon fill="none" stroke="black" points="479,-9 479,-28 662,-28 662,-9 479,-9"/>
<text text-anchor="middle" x="570.5" y="-16" font-family="Helvetica,sans-Serif" font-size="10.00">aopp_deconv_tool.deconvolve.run</text>
</a>
</g>
</g>
<!-- Node3&#45;&gt;Node7 -->
<g id="edge6" class="edge">
<title>Node3&#45;&gt;Node7</title>
<path fill="none" stroke="midnightblue" d="M415.35,-30.26C432.69,-28.94 450.86,-27.55 468.38,-26.22"/>
<polygon fill="midnightblue" stroke="midnightblue" points="468.91,-29.69 478.61,-25.44 468.38,-22.71 468.91,-29.69"/>
</g>
<!-- Node5 -->
<g id="node5" class="node">
<title>Node5</title>
<g id="a_node5"><a xlink:href="../../d8/d5b/namespaceaopp__deconv__tool_1_1text.html#ae13da0dd246571ccd435ba5f64904bfe" target="_top" xlink:title=" ">
<polygon fill="none" stroke="black" points="738.5,-50 738.5,-69 893.5,-69 893.5,-50 738.5,-50"/>
<text text-anchor="middle" x="816" y="-57" font-family="Helvetica,sans-Serif" font-size="10.00">aopp_deconv_tool.text.wrap</text>
</a>
</g>
</g>
<!-- Node4&#45;&gt;Node5 -->
<g id="edge4" class="edge">
<title>Node4&#45;&gt;Node5</title>
<path fill="none" stroke="midnightblue" d="M681.14,-58.4C696.83,-58.53 712.8,-58.66 727.97,-58.79"/>
<polygon fill="midnightblue" stroke="midnightblue" points="728.31,-62.29 738.34,-58.87 728.37,-55.29 728.31,-62.29"/>
</g>
<!-- Node6 -->
<g id="node6" class="node">
<title>Node6</title>
<g id="a_node6"><a xlink:href="../../d8/d5b/namespaceaopp__deconv__tool_1_1text.html#a5b208e43cdecac49460b4ced231aa4a6" target="_top" xlink:title=" ">
<polygon fill="none" stroke="black" points="951,-44.5 951,-74.5 1124,-74.5 1124,-44.5 951,-44.5"/>
<text text-anchor="start" x="959" y="-62.5" font-family="Helvetica,sans-Serif" font-size="10.00">aopp_deconv_tool.text.combine</text>
<text text-anchor="middle" x="1037.5" y="-51.5" font-family="Helvetica,sans-Serif" font-size="10.00">_lines_with_same_indent</text>
</a>
</g>
</g>
<!-- Node5&#45;&gt;Node6 -->
<g id="edge5" class="edge">
<title>Node5&#45;&gt;Node6</title>
<path fill="none" stroke="midnightblue" d="M893.77,-59.5C908.88,-59.5 924.91,-59.5 940.56,-59.5"/>
<polygon fill="midnightblue" stroke="midnightblue" points="940.78,-63 950.78,-59.5 940.78,-56 940.78,-63"/>
</g>
<!-- Node8 -->
<g id="node8" class="node">
<title>Node8</title>
<g id="a_node8"><a xlink:href="../../d6/de2/namespaceaopp__deconv__tool_1_1deconvolve.html#a547bc12665a3e5c16dfb801e8ce8b085" target="_top" xlink:title=" ">
<polygon fill="none" stroke="black" points="717,-0.5 717,-30.5 915,-30.5 915,-0.5 717,-0.5"/>
<text text-anchor="start" x="725" y="-18.5" font-family="Helvetica,sans-Serif" font-size="10.00">aopp_deconv_tool.deconvolve.create</text>
<text text-anchor="middle" x="816" y="-7.5" font-family="Helvetica,sans-Serif" font-size="10.00">_plot_set</text>
</a>
</g>
</g>
<!-- Node7&#45;&gt;Node8 -->
<g id="edge7" class="edge">
<title>Node7&#45;&gt;Node8</title>
<path fill="none" stroke="midnightblue" d="M662.17,-17.38C676.67,-17.2 691.8,-17.02 706.67,-16.83"/>
<polygon fill="midnightblue" stroke="midnightblue" points="706.95,-20.33 716.9,-16.71 706.86,-13.33 706.95,-20.33"/>
</g>
</g>
</svg>
