<?xml version="1.0" encoding="UTF-8" standalone="no"?>
<!DOCTYPE svg PUBLIC "-//W3C//DTD SVG 1.1//EN"
 "http://www.w3.org/Graphics/SVG/1.1/DTD/svg11.dtd">
<!-- Generated by graphviz version 2.43.0 (0)
 -->
<!-- Title: aopp_deconv_tool.deconvolve.exec_with_args Pages: 1 -->
<svg width="898pt" height="81pt"
 viewBox="0.00 0.00 898.00 81.00" xmlns="http://www.w3.org/2000/svg" xmlns:xlink="http://www.w3.org/1999/xlink">
<g id="graph0" class="graph" transform="scale(1 1) rotate(0) translate(4 77)">
<title>aopp_deconv_tool.deconvolve.exec_with_args</title>
<!-- Node1 -->
<g id="Node000001" class="node">
<title>Node1</title>
<g id="a_Node000001"><a xlink:title=" ">
<polygon fill="#999999" stroke="#666666" points="190,-51 0,-51 0,-21 190,-21 190,-51"/>
<text text-anchor="start" x="8" y="-39" font-family="Helvetica,sans-Serif" font-size="10.00">aopp_deconv_tool.deconvolve.exec</text>
<text text-anchor="middle" x="95" y="-28" font-family="Helvetica,sans-Serif" font-size="10.00">_with_args</text>
</a>
</g>
</g>
<!-- Node2 -->
<g id="Node000002" class="node">
<title>Node2</title>
<g id="a_Node000002"><a xlink:href="../../d6/de2/namespaceaopp__deconv__tool_1_1deconvolve.html#a77bf9473e3a685d91d062977d9596d12" target="_top" xlink:title=" ">
<polygon fill="white" stroke="#666666" points="447,-65.5 226,-65.5 226,-46.5 447,-46.5 447,-65.5"/>
<text text-anchor="middle" x="336.5" y="-53.5" font-family="Helvetica,sans-Serif" font-size="10.00">aopp_deconv_tool.deconvolve.parse_args</text>
</a>
</g>
</g>
<!-- Node1&#45;&gt;Node2 -->
<g id="edge1_Node000001_Node000002" class="edge">
<title>Node1&#45;&gt;Node2</title>
<g id="a_edge1_Node000001_Node000002"><a xlink:title=" ">
<path fill="none" stroke="#63b8ff" d="M190.31,-43.88C198.69,-44.58 207.23,-45.29 215.78,-46"/>
<polygon fill="#63b8ff" stroke="#63b8ff" points="215.55,-49.5 225.8,-46.84 216.13,-42.52 215.55,-49.5"/>
</a>
</g>
</g>
<!-- Node5 -->
<g id="Node000005" class="node">
<title>Node5</title>
<g id="a_Node000005"><a xlink:href="../../d6/de2/namespaceaopp__deconv__tool_1_1deconvolve.html#a2e4be74b0e5968df978de02c7f78c079" target="_top" xlink:title=" ">
<polygon fill="white" stroke="#666666" points="428,-27.5 245,-27.5 245,-8.5 428,-8.5 428,-27.5"/>
<text text-anchor="middle" x="336.5" y="-15.5" font-family="Helvetica,sans-Serif" font-size="10.00">aopp_deconv_tool.deconvolve.run</text>
</a>
</g>
</g>
<!-- Node1&#45;&gt;Node5 -->
<g id="edge4_Node000001_Node000005" class="edge">
<title>Node1&#45;&gt;Node5</title>
<g id="a_edge4_Node000001_Node000005"><a xlink:title=" ">
<path fill="none" stroke="#63b8ff" d="M190.31,-28.91C204.88,-27.82 219.98,-26.68 234.69,-25.58"/>
<polygon fill="#63b8ff" stroke="#63b8ff" points="235.09,-29.06 244.8,-24.82 234.56,-22.08 235.09,-29.06"/>
</a>
</g>
</g>
<!-- Node3 -->
<g id="Node000003" class="node">
<title>Node3</title>
<g id="a_Node000003"><a xlink:href="../../d8/d5b/namespaceaopp__deconv__tool_1_1text.html#a75d81e58c71da89b56473e2616edd1c6" target="_top" xlink:title=" ">
<polygon fill="white" stroke="#666666" points="659.5,-67.5 504.5,-67.5 504.5,-48.5 659.5,-48.5 659.5,-67.5"/>
<text text-anchor="middle" x="582" y="-55.5" font-family="Helvetica,sans-Serif" font-size="10.00">aopp_deconv_tool.text.wrap</text>
</a>
</g>
</g>
<!-- Node2&#45;&gt;Node3 -->
<g id="edge2_Node000002_Node000003" class="edge">
<title>Node2&#45;&gt;Node3</title>
<g id="a_edge2_Node000002_Node000003"><a xlink:title=" ">
<path fill="none" stroke="#63b8ff" d="M447.14,-56.9C462.83,-57.03 478.8,-57.16 493.97,-57.29"/>
<polygon fill="#63b8ff" stroke="#63b8ff" points="494.31,-60.79 504.34,-57.37 494.37,-53.79 494.31,-60.79"/>
</a>
</g>
</g>
<!-- Node4 -->
<g id="Node000004" class="node">
<title>Node4</title>
<g id="a_Node000004"><a xlink:href="../../d8/d5b/namespaceaopp__deconv__tool_1_1text.html#a1496cf89a275b1b851ff81f401628c27" target="_top" xlink:title=" ">
<polygon fill="white" stroke="#666666" points="890,-73 717,-73 717,-43 890,-43 890,-73"/>
<text text-anchor="start" x="725" y="-61" font-family="Helvetica,sans-Serif" font-size="10.00">aopp_deconv_tool.text.combine</text>
<text text-anchor="middle" x="803.5" y="-50" font-family="Helvetica,sans-Serif" font-size="10.00">_lines_with_same_indent</text>
</a>
</g>
</g>
<!-- Node3&#45;&gt;Node4 -->
<g id="edge3_Node000003_Node000004" class="edge">
<title>Node3&#45;&gt;Node4</title>
<g id="a_edge3_Node000003_Node000004"><a xlink:title=" ">
<path fill="none" stroke="#63b8ff" d="M659.77,-58C674.88,-58 690.91,-58 706.56,-58"/>
<polygon fill="#63b8ff" stroke="#63b8ff" points="706.78,-61.5 716.78,-58 706.78,-54.5 706.78,-61.5"/>
</a>
</g>
</g>
<!-- Node6 -->
<g id="Node000006" class="node">
<title>Node6</title>
<g id="a_Node000006"><a xlink:href="../../d6/de2/namespaceaopp__deconv__tool_1_1deconvolve.html#abff289351a68843953a0db572c819ea1" target="_top" xlink:title=" ">
<polygon fill="white" stroke="#666666" points="681,-30 483,-30 483,0 681,0 681,-30"/>
<text text-anchor="start" x="491" y="-18" font-family="Helvetica,sans-Serif" font-size="10.00">aopp_deconv_tool.deconvolve.create</text>
<text text-anchor="middle" x="582" y="-7" font-family="Helvetica,sans-Serif" font-size="10.00">_plot_set</text>
</a>
</g>
</g>
<!-- Node5&#45;&gt;Node6 -->
<g id="edge5_Node000005_Node000006" class="edge">
<title>Node5&#45;&gt;Node6</title>
<g id="a_edge5_Node000005_Node000006"><a xlink:title=" ">
<path fill="none" stroke="#63b8ff" d="M428.17,-16.88C442.67,-16.7 457.8,-16.52 472.67,-16.33"/>
<polygon fill="#63b8ff" stroke="#63b8ff" points="472.95,-19.83 482.9,-16.21 472.86,-12.83 472.95,-19.83"/>
</a>
</g>
</g>
</g>
</svg>
