<?xml version="1.0" encoding="UTF-8" standalone="no"?>
<!DOCTYPE svg PUBLIC "-//W3C//DTD SVG 1.1//EN"
 "http://www.w3.org/Graphics/SVG/1.1/DTD/svg11.dtd">
<!-- Generated by graphviz version 2.43.0 (0)
 -->
<!-- Title: aopp_deconv_tool.deconvolve.exec_with_args Pages: 1 -->
<svg width="899pt" height="83pt"
 viewBox="0.00 0.00 899.00 83.00" xmlns="http://www.w3.org/2000/svg" xmlns:xlink="http://www.w3.org/1999/xlink">
<g id="graph0" class="graph" transform="scale(1 1) rotate(0) translate(4 79)">
<title>aopp_deconv_tool.deconvolve.exec_with_args</title>
<!-- Node1 -->
<g id="node1" class="node">
<title>Node1</title>
<g id="a_node1"><a xlink:title=" ">
<polygon fill="#bfbfbf" stroke="black" points="0,-22.5 0,-52.5 191,-52.5 191,-22.5 0,-22.5"/>
<text text-anchor="start" x="8" y="-40.5" font-family="Helvetica,sans-Serif" font-size="10.00">aopp_deconv_tool.deconvolve.exec</text>
<text text-anchor="middle" x="95.5" y="-29.5" font-family="Helvetica,sans-Serif" font-size="10.00">_with_args</text>
</a>
</g>
</g>
<!-- Node2 -->
<g id="node2" class="node">
<title>Node2</title>
<g id="a_node2"><a xlink:href="../../d6/de2/namespaceaopp__deconv__tool_1_1deconvolve.html#afb9fb6db643cda6e6d7af7ca2c1c4940" target="_top" xlink:title=" ">
<polygon fill="none" stroke="black" points="227,-48 227,-67 448,-67 448,-48 227,-48"/>
<text text-anchor="middle" x="337.5" y="-55" font-family="Helvetica,sans-Serif" font-size="10.00">aopp_deconv_tool.deconvolve.parse_args</text>
</a>
</g>
</g>
<!-- Node1&#45;&gt;Node2 -->
<g id="edge1" class="edge">
<title>Node1&#45;&gt;Node2</title>
<path fill="none" stroke="midnightblue" d="M191.01,-45.38C199.5,-46.08 208.16,-46.8 216.82,-47.53"/>
<polygon fill="midnightblue" stroke="midnightblue" points="216.72,-51.03 226.98,-48.37 217.3,-44.05 216.72,-51.03"/>
</g>
<!-- Node5 -->
<g id="node5" class="node">
<title>Node5</title>
<g id="a_node5"><a xlink:href="../../d6/de2/namespaceaopp__deconv__tool_1_1deconvolve.html#a9857f565a79f5d84be232c9b79eee861" target="_top" xlink:title=" ">
<polygon fill="none" stroke="black" points="246,-9 246,-28 429,-28 429,-9 246,-9"/>
<text text-anchor="middle" x="337.5" y="-16" font-family="Helvetica,sans-Serif" font-size="10.00">aopp_deconv_tool.deconvolve.run</text>
</a>
</g>
</g>
<!-- Node1&#45;&gt;Node5 -->
<g id="edge4" class="edge">
<title>Node1&#45;&gt;Node5</title>
<path fill="none" stroke="midnightblue" d="M191.01,-30.02C205.72,-28.85 220.96,-27.65 235.8,-26.47"/>
<polygon fill="midnightblue" stroke="midnightblue" points="236.3,-29.94 246,-25.66 235.75,-22.96 236.3,-29.94"/>
</g>
<!-- Node3 -->
<g id="node3" class="node">
<title>Node3</title>
<g id="a_node3"><a xlink:href="../../d8/d5b/namespaceaopp__deconv__tool_1_1text.html#ae13da0dd246571ccd435ba5f64904bfe" target="_top" xlink:title=" ">
<polygon fill="none" stroke="black" points="505.5,-50 505.5,-69 660.5,-69 660.5,-50 505.5,-50"/>
<text text-anchor="middle" x="583" y="-57" font-family="Helvetica,sans-Serif" font-size="10.00">aopp_deconv_tool.text.wrap</text>
</a>
</g>
</g>
<!-- Node2&#45;&gt;Node3 -->
<g id="edge2" class="edge">
<title>Node2&#45;&gt;Node3</title>
<path fill="none" stroke="midnightblue" d="M448.14,-58.4C463.83,-58.53 479.8,-58.66 494.97,-58.79"/>
<polygon fill="midnightblue" stroke="midnightblue" points="495.31,-62.29 505.34,-58.87 495.37,-55.29 495.31,-62.29"/>
</g>
<!-- Node4 -->
<g id="node4" class="node">
<title>Node4</title>
<g id="a_node4"><a xlink:href="../../d8/d5b/namespaceaopp__deconv__tool_1_1text.html#a5b208e43cdecac49460b4ced231aa4a6" target="_top" xlink:title=" ">
<polygon fill="none" stroke="black" points="718,-44.5 718,-74.5 891,-74.5 891,-44.5 718,-44.5"/>
<text text-anchor="start" x="726" y="-62.5" font-family="Helvetica,sans-Serif" font-size="10.00">aopp_deconv_tool.text.combine</text>
<text text-anchor="middle" x="804.5" y="-51.5" font-family="Helvetica,sans-Serif" font-size="10.00">_lines_with_same_indent</text>
</a>
</g>
</g>
<!-- Node3&#45;&gt;Node4 -->
<g id="edge3" class="edge">
<title>Node3&#45;&gt;Node4</title>
<path fill="none" stroke="midnightblue" d="M660.77,-59.5C675.88,-59.5 691.91,-59.5 707.56,-59.5"/>
<polygon fill="midnightblue" stroke="midnightblue" points="707.78,-63 717.78,-59.5 707.78,-56 707.78,-63"/>
</g>
<!-- Node6 -->
<g id="node6" class="node">
<title>Node6</title>
<g id="a_node6"><a xlink:href="../../d6/de2/namespaceaopp__deconv__tool_1_1deconvolve.html#a547bc12665a3e5c16dfb801e8ce8b085" target="_top" xlink:title=" ">
<polygon fill="none" stroke="black" points="484,-0.5 484,-30.5 682,-30.5 682,-0.5 484,-0.5"/>
<text text-anchor="start" x="492" y="-18.5" font-family="Helvetica,sans-Serif" font-size="10.00">aopp_deconv_tool.deconvolve.create</text>
<text text-anchor="middle" x="583" y="-7.5" font-family="Helvetica,sans-Serif" font-size="10.00">_plot_set</text>
</a>
</g>
</g>
<!-- Node5&#45;&gt;Node6 -->
<g id="edge5" class="edge">
<title>Node5&#45;&gt;Node6</title>
<path fill="none" stroke="midnightblue" d="M429.17,-17.38C443.67,-17.2 458.8,-17.02 473.67,-16.83"/>
<polygon fill="midnightblue" stroke="midnightblue" points="473.95,-20.33 483.9,-16.71 473.86,-13.33 473.95,-20.33"/>
</g>
</g>
</svg>
