<?xml version="1.0" encoding="UTF-8" standalone="no"?>
<!DOCTYPE svg PUBLIC "-//W3C//DTD SVG 1.1//EN"
 "http://www.w3.org/Graphics/SVG/1.1/DTD/svg11.dtd">
<!-- Generated by graphviz version 2.43.0 (0)
 -->
<!-- Title: aopp_deconv_tool.deconvolve.go Pages: 1 -->
<svg width="1132pt" height="107pt"
 viewBox="0.00 0.00 1132.00 107.00" xmlns="http://www.w3.org/2000/svg" xmlns:xlink="http://www.w3.org/1999/xlink">
<g id="graph0" class="graph" transform="scale(1 1) rotate(0) translate(4 103)">
<title>aopp_deconv_tool.deconvolve.go</title>
<!-- Node1 -->
<g id="Node000001" class="node">
<title>Node1</title>
<g id="a_Node000001"><a xlink:title=" ">
<polygon fill="#999999" stroke="#666666" points="179,-69.5 0,-69.5 0,-50.5 179,-50.5 179,-69.5"/>
<text text-anchor="middle" x="89.5" y="-57.5" font-family="Helvetica,sans-Serif" font-size="10.00">aopp_deconv_tool.deconvolve.go</text>
</a>
</g>
</g>
<!-- Node2 -->
<g id="Node000002" class="node">
<title>Node2</title>
<g id="a_Node000002"><a xlink:href="../../da/d5f/namespaceaopp__deconv__tool_1_1arguments.html#aec2c9d770d31aa257cf89a398d910714" target="_top" xlink:title=" ">
<polygon fill="white" stroke="#666666" points="424,-99 215,-99 215,-69 424,-69 424,-99"/>
<text text-anchor="start" x="223" y="-87" font-family="Helvetica,sans-Serif" font-size="10.00">aopp_deconv_tool.arguments.construct</text>
<text text-anchor="middle" x="319.5" y="-76" font-family="Helvetica,sans-Serif" font-size="10.00">_arglist_from_locals</text>
</a>
</g>
</g>
<!-- Node1&#45;&gt;Node2 -->
<g id="edge1_Node000001_Node000002" class="edge">
<title>Node1&#45;&gt;Node2</title>
<g id="a_edge1_Node000001_Node000002"><a xlink:title=" ">
<path fill="none" stroke="#63b8ff" d="M179.3,-69.35C187.66,-70.23 196.21,-71.13 204.76,-72.03"/>
<polygon fill="#63b8ff" stroke="#63b8ff" points="204.46,-75.52 214.78,-73.08 205.2,-68.55 204.46,-75.52"/>
</a>
</g>
</g>
<!-- Node3 -->
<g id="Node000003" class="node">
<title>Node3</title>
<g id="a_Node000003"><a xlink:href="../../d6/de2/namespaceaopp__deconv__tool_1_1deconvolve.html#ab47cfff58ba9849c13d9157e3f2cb893" target="_top" xlink:title=" ">
<polygon fill="white" stroke="#666666" points="414.5,-51 224.5,-51 224.5,-21 414.5,-21 414.5,-51"/>
<text text-anchor="start" x="232.5" y="-39" font-family="Helvetica,sans-Serif" font-size="10.00">aopp_deconv_tool.deconvolve.exec</text>
<text text-anchor="middle" x="319.5" y="-28" font-family="Helvetica,sans-Serif" font-size="10.00">_with_args</text>
</a>
</g>
</g>
<!-- Node1&#45;&gt;Node3 -->
<g id="edge2_Node000001_Node000003" class="edge">
<title>Node1&#45;&gt;Node3</title>
<g id="a_edge2_Node000001_Node000003"><a xlink:title=" ">
<path fill="none" stroke="#63b8ff" d="M179.3,-50.65C190.72,-49.45 202.48,-48.21 214.11,-46.99"/>
<polygon fill="#63b8ff" stroke="#63b8ff" points="214.71,-50.44 224.29,-45.92 213.98,-43.48 214.71,-50.44"/>
</a>
</g>
</g>
<!-- Node4 -->
<g id="Node000004" class="node">
<title>Node4</title>
<g id="a_Node000004"><a xlink:href="../../d6/de2/namespaceaopp__deconv__tool_1_1deconvolve.html#a77bf9473e3a685d91d062977d9596d12" target="_top" xlink:title=" ">
<polygon fill="white" stroke="#666666" points="681,-65.5 460,-65.5 460,-46.5 681,-46.5 681,-65.5"/>
<text text-anchor="middle" x="570.5" y="-53.5" font-family="Helvetica,sans-Serif" font-size="10.00">aopp_deconv_tool.deconvolve.parse_args</text>
</a>
</g>
</g>
<!-- Node3&#45;&gt;Node4 -->
<g id="edge3_Node000003_Node000004" class="edge">
<title>Node3&#45;&gt;Node4</title>
<g id="a_edge3_Node000003_Node000004"><a xlink:title=" ">
<path fill="none" stroke="#63b8ff" d="M414.64,-43.56C426.03,-44.48 437.79,-45.42 449.5,-46.36"/>
<polygon fill="#63b8ff" stroke="#63b8ff" points="449.51,-49.87 459.76,-47.19 450.07,-42.9 449.51,-49.87"/>
</a>
</g>
</g>
<!-- Node7 -->
<g id="Node000007" class="node">
<title>Node7</title>
<g id="a_Node000007"><a xlink:href="../../d6/de2/namespaceaopp__deconv__tool_1_1deconvolve.html#a2e4be74b0e5968df978de02c7f78c079" target="_top" xlink:title=" ">
<polygon fill="white" stroke="#666666" points="662,-27.5 479,-27.5 479,-8.5 662,-8.5 662,-27.5"/>
<text text-anchor="middle" x="570.5" y="-15.5" font-family="Helvetica,sans-Serif" font-size="10.00">aopp_deconv_tool.deconvolve.run</text>
</a>
</g>
</g>
<!-- Node3&#45;&gt;Node7 -->
<g id="edge6_Node000003_Node000007" class="edge">
<title>Node3&#45;&gt;Node7</title>
<g id="a_edge6_Node000003_Node000007"><a xlink:title=" ">
<path fill="none" stroke="#63b8ff" d="M414.64,-29.19C432.25,-27.92 450.73,-26.59 468.54,-25.3"/>
<polygon fill="#63b8ff" stroke="#63b8ff" points="469.22,-28.76 478.94,-24.55 468.71,-21.78 469.22,-28.76"/>
</a>
</g>
</g>
<!-- Node5 -->
<g id="Node000005" class="node">
<title>Node5</title>
<g id="a_Node000005"><a xlink:href="../../d8/d5b/namespaceaopp__deconv__tool_1_1text.html#a75d81e58c71da89b56473e2616edd1c6" target="_top" xlink:title=" ">
<polygon fill="white" stroke="#666666" points="893.5,-67.5 738.5,-67.5 738.5,-48.5 893.5,-48.5 893.5,-67.5"/>
<text text-anchor="middle" x="816" y="-55.5" font-family="Helvetica,sans-Serif" font-size="10.00">aopp_deconv_tool.text.wrap</text>
</a>
</g>
</g>
<!-- Node4&#45;&gt;Node5 -->
<g id="edge4_Node000004_Node000005" class="edge">
<title>Node4&#45;&gt;Node5</title>
<g id="a_edge4_Node000004_Node000005"><a xlink:title=" ">
<path fill="none" stroke="#63b8ff" d="M681.14,-56.9C696.83,-57.03 712.8,-57.16 727.97,-57.29"/>
<polygon fill="#63b8ff" stroke="#63b8ff" points="728.31,-60.79 738.34,-57.37 728.37,-53.79 728.31,-60.79"/>
</a>
</g>
</g>
<!-- Node6 -->
<g id="Node000006" class="node">
<title>Node6</title>
<g id="a_Node000006"><a xlink:href="../../d8/d5b/namespaceaopp__deconv__tool_1_1text.html#a1496cf89a275b1b851ff81f401628c27" target="_top" xlink:title=" ">
<polygon fill="white" stroke="#666666" points="1124,-73 951,-73 951,-43 1124,-43 1124,-73"/>
<text text-anchor="start" x="959" y="-61" font-family="Helvetica,sans-Serif" font-size="10.00">aopp_deconv_tool.text.combine</text>
<text text-anchor="middle" x="1037.5" y="-50" font-family="Helvetica,sans-Serif" font-size="10.00">_lines_with_same_indent</text>
</a>
</g>
</g>
<!-- Node5&#45;&gt;Node6 -->
<g id="edge5_Node000005_Node000006" class="edge">
<title>Node5&#45;&gt;Node6</title>
<g id="a_edge5_Node000005_Node000006"><a xlink:title=" ">
<path fill="none" stroke="#63b8ff" d="M893.77,-58C908.88,-58 924.91,-58 940.56,-58"/>
<polygon fill="#63b8ff" stroke="#63b8ff" points="940.78,-61.5 950.78,-58 940.78,-54.5 940.78,-61.5"/>
</a>
</g>
</g>
<!-- Node8 -->
<g id="Node000008" class="node">
<title>Node8</title>
<g id="a_Node000008"><a xlink:href="../../d6/de2/namespaceaopp__deconv__tool_1_1deconvolve.html#abff289351a68843953a0db572c819ea1" target="_top" xlink:title=" ">
<polygon fill="white" stroke="#666666" points="915,-30 717,-30 717,0 915,0 915,-30"/>
<text text-anchor="start" x="725" y="-18" font-family="Helvetica,sans-Serif" font-size="10.00">aopp_deconv_tool.deconvolve.create</text>
<text text-anchor="middle" x="816" y="-7" font-family="Helvetica,sans-Serif" font-size="10.00">_plot_set</text>
</a>
</g>
</g>
<!-- Node7&#45;&gt;Node8 -->
<g id="edge7_Node000007_Node000008" class="edge">
<title>Node7&#45;&gt;Node8</title>
<g id="a_edge7_Node000007_Node000008"><a xlink:title=" ">
<path fill="none" stroke="#63b8ff" d="M662.17,-16.88C676.67,-16.7 691.8,-16.52 706.67,-16.33"/>
<polygon fill="#63b8ff" stroke="#63b8ff" points="706.95,-19.83 716.9,-16.21 706.86,-12.83 706.95,-19.83"/>
</a>
</g>
</g>
</g>
</svg>
