<?xml version="1.0" encoding="UTF-8" standalone="no"?>
<!DOCTYPE svg PUBLIC "-//W3C//DTD SVG 1.1//EN"
 "http://www.w3.org/Graphics/SVG/1.1/DTD/svg11.dtd">
<!-- Generated by graphviz version 2.43.0 (0)
 -->
<!-- Title: aopp_deconv_tool.deconvolve.parse_args Pages: 1 -->
<svg width="629pt" height="38pt"
 viewBox="0.00 0.00 629.00 38.00" xmlns="http://www.w3.org/2000/svg" xmlns:xlink="http://www.w3.org/1999/xlink">
<g id="graph0" class="graph" transform="scale(1 1) rotate(0) translate(4 34)">
<title>aopp_deconv_tool.deconvolve.parse_args</title>
<!-- Node1 -->
<g id="Node000001" class="node">
<title>Node1</title>
<g id="a_Node000001"><a xlink:title=" ">
<polygon fill="#999999" stroke="#666666" points="221,-24.5 0,-24.5 0,-5.5 221,-5.5 221,-24.5"/>
<text text-anchor="middle" x="110.5" y="-12.5" font-family="Helvetica,sans-Serif" font-size="10.00">aopp_deconv_tool.deconvolve.parse_args</text>
</a>
</g>
</g>
<!-- Node2 -->
<g id="Node000002" class="node">
<title>Node2</title>
<g id="a_Node000002"><a xlink:href="../../d8/d5b/namespaceaopp__deconv__tool_1_1text.html#a75d81e58c71da89b56473e2616edd1c6" target="_top" xlink:title=" ">
<polygon fill="white" stroke="#666666" points="412,-24.5 257,-24.5 257,-5.5 412,-5.5 412,-24.5"/>
<text text-anchor="middle" x="334.5" y="-12.5" font-family="Helvetica,sans-Serif" font-size="10.00">aopp_deconv_tool.text.wrap</text>
</a>
</g>
</g>
<!-- Node1&#45;&gt;Node2 -->
<g id="edge1_Node000001_Node000002" class="edge">
<title>Node1&#45;&gt;Node2</title>
<g id="a_edge1_Node000001_Node000002"><a xlink:title=" ">
<path fill="none" stroke="#63b8ff" d="M221.2,-15C229.74,-15 238.3,-15 246.66,-15"/>
<polygon fill="#63b8ff" stroke="#63b8ff" points="246.75,-18.5 256.75,-15 246.75,-11.5 246.75,-18.5"/>
</a>
</g>
</g>
<!-- Node3 -->
<g id="Node000003" class="node">
<title>Node3</title>
<g id="a_Node000003"><a xlink:href="../../d8/d5b/namespaceaopp__deconv__tool_1_1text.html#a1496cf89a275b1b851ff81f401628c27" target="_top" xlink:title=" ">
<polygon fill="white" stroke="#666666" points="621,-30 448,-30 448,0 621,0 621,-30"/>
<text text-anchor="start" x="456" y="-18" font-family="Helvetica,sans-Serif" font-size="10.00">aopp_deconv_tool.text.combine</text>
<text text-anchor="middle" x="534.5" y="-7" font-family="Helvetica,sans-Serif" font-size="10.00">_lines_with_same_indent</text>
</a>
</g>
</g>
<!-- Node2&#45;&gt;Node3 -->
<g id="edge2_Node000002_Node000003" class="edge">
<title>Node2&#45;&gt;Node3</title>
<g id="a_edge2_Node000002_Node000003"><a xlink:title=" ">
<path fill="none" stroke="#63b8ff" d="M412.05,-15C420.5,-15 429.18,-15 437.82,-15"/>
<polygon fill="#63b8ff" stroke="#63b8ff" points="437.94,-18.5 447.94,-15 437.94,-11.5 437.94,-18.5"/>
</a>
</g>
</g>
</g>
</svg>
