<?xml version="1.0" encoding="UTF-8" standalone="no"?>
<!DOCTYPE svg PUBLIC "-//W3C//DTD SVG 1.1//EN"
 "http://www.w3.org/Graphics/SVG/1.1/DTD/svg11.dtd">
<!-- Generated by graphviz version 2.43.0 (0)
 -->
<!-- Title: optical_component.Obstruction Pages: 1 -->
<svg width="374pt" height="170pt"
 viewBox="0.00 0.00 373.50 170.00" xmlns="http://www.w3.org/2000/svg" xmlns:xlink="http://www.w3.org/1999/xlink">

<svg id="main" version="1.1" xmlns="http://www.w3.org/2000/svg" xmlns:xlink="http://www.w3.org/1999/xlink" xml:space="preserve" onload="init(evt)">
<style type="text/css"><![CDATA[
.node, .edge {opacity: 0.7;}
.node.selected, .edge.selected {opacity: 1;}
.edge:hover path { stroke: red; }
.edge:hover polygon { stroke: red; fill: red; }
]]></style>
<script type="application/ecmascript" xlink:href="../../svg.min.js"/>
<svg id="graph" class="graph">
<g id="graph0" class="graph" transform="scale(1 1) rotate(0) translate(4 166)">
<title>optical_component.Obstruction</title>
<!-- Node1 -->
<g id="Node000001" class="node">
<title>Node1</title>
<g id="a_Node000001"><a xlink:title=" ">
<polygon fill="#999999" stroke="#666666" points="261.5,-19 92.5,-19 92.5,0 261.5,0 261.5,-19"/>
<text text-anchor="middle" x="177" y="-7" font-family="Helvetica,sans-Serif" font-size="10.00">optical_component.Obstruction</text>
</a>
</g>
</g>
<!-- Node2 -->
<g id="Node000002" class="node">
<title>Node2</title>
<g id="a_Node000002"><a xlink:href="../../d5/dc2/classoptical__component_1_1OpticalComponent.html" target="_top" xlink:title=" ">
<polygon fill="white" stroke="#666666" points="158.5,-96 11.5,-96 11.5,-66 158.5,-66 158.5,-96"/>
<text text-anchor="start" x="19.5" y="-84" font-family="Helvetica,sans-Serif" font-size="10.00">optical_component.Optical</text>
<text text-anchor="middle" x="85" y="-73" font-family="Helvetica,sans-Serif" font-size="10.00">Component</text>
</a>
</g>
</g>
<!-- Node2&#45;&gt;Node1 -->
<g id="edge1_Node000001_Node000002" class="edge">
<title>Node2&#45;&gt;Node1</title>
<g id="a_edge1_Node000001_Node000002"><a xlink:title=" ">
<path fill="none" stroke="#63b8ff" d="M111.95,-59.64C129.82,-46.14 152.35,-29.12 165.66,-19.07"/>
<polygon fill="#63b8ff" stroke="#63b8ff" points="109.49,-57.12 103.62,-65.94 113.71,-62.7 109.49,-57.12"/>
</a>
</g>
</g>
<!-- Node3 -->
<g id="Node000003" class="node">
<title>Node3</title>
<g id="a_Node000003"><a xlink:title=" ">
<polygon fill="white" stroke="#666666" points="38,-162 0,-162 0,-143 38,-143 38,-162"/>
<text text-anchor="middle" x="19" y="-150" font-family="Helvetica,sans-Serif" font-size="10.00">float</text>
</a>
</g>
</g>
<!-- Node3&#45;&gt;Node2 -->
<g id="edge2_Node000002_Node000003" class="edge">
<title>Node3&#45;&gt;Node2</title>
<g id="a_edge2_Node000002_Node000003"><a xlink:title=" ">
<path fill="none" stroke="#9a32cd" stroke-dasharray="5,2" d="M25.99,-133.26C29.04,-126.73 33.07,-119.61 38,-114 44,-107.18 51.75,-101.13 59.23,-96.17"/>
<polygon fill="#9a32cd" stroke="#9a32cd" points="22.66,-132.15 21.99,-142.72 29.11,-134.87 22.66,-132.15"/>
</a>
</g>
<text text-anchor="middle" x="59.5" y="-117" font-family="Helvetica,sans-Serif" font-size="10.00" fill="grey"> position</text>
</g>
<!-- Node4 -->
<g id="Node000004" class="node">
<title>Node4</title>
<g id="a_Node000004"><a xlink:title=" ">
<polygon fill="white" stroke="#666666" points="99.5,-162 70.5,-162 70.5,-143 99.5,-143 99.5,-162"/>
<text text-anchor="middle" x="85" y="-150" font-family="Helvetica,sans-Serif" font-size="10.00">str</text>
</a>
</g>
</g>
<!-- Node4&#45;&gt;Node2 -->
<g id="edge3_Node000002_Node000004" class="edge">
<title>Node4&#45;&gt;Node2</title>
<g id="a_edge3_Node000002_Node000004"><a xlink:title=" ">
<path fill="none" stroke="#9a32cd" stroke-dasharray="5,2" d="M85,-132.71C85,-121.19 85,-106.68 85,-96.14"/>
<polygon fill="#9a32cd" stroke="#9a32cd" points="81.5,-132.98 85,-142.98 88.5,-132.98 81.5,-132.98"/>
</a>
</g>
<text text-anchor="middle" x="100.5" y="-117" font-family="Helvetica,sans-Serif" font-size="10.00" fill="grey"> name</text>
</g>
<!-- Node5 -->
<g id="Node000005" class="node">
<title>Node5</title>
<g id="a_Node000005"><a xlink:title=" ">
<polygon fill="white" stroke="#666666" points="158,-162 120,-162 120,-143 158,-143 158,-162"/>
<text text-anchor="middle" x="139" y="-150" font-family="Helvetica,sans-Serif" font-size="10.00">bool</text>
</a>
</g>
</g>
<!-- Node5&#45;&gt;Node2 -->
<g id="edge4_Node000002_Node000005" class="edge">
<title>Node5&#45;&gt;Node2</title>
<g id="a_edge4_Node000002_Node000005"><a xlink:title=" ">
<path fill="none" stroke="#9a32cd" stroke-dasharray="5,2" d="M129.7,-133.55C126.08,-127.15 121.66,-120.04 117,-114 112.2,-107.78 106.26,-101.54 100.81,-96.24"/>
<polygon fill="#9a32cd" stroke="#9a32cd" points="126.85,-135.64 134.69,-142.76 133.01,-132.3 126.85,-135.64"/>
</a>
</g>
<text text-anchor="middle" x="170" y="-117" font-family="Helvetica,sans-Serif" font-size="10.00" fill="grey"> _is_aperture_stop</text>
</g>
<!-- Node6 -->
<g id="Node000006" class="node">
<title>Node6</title>
<g id="a_Node000006"><a xlink:href="../../d2/dbe/classaopp__deconv__tool_1_1geometry_1_1shape_1_1GeoShape.html" target="_top" xlink:title=" ">
<polygon fill="white" stroke="#666666" points="365.5,-96 176.5,-96 176.5,-66 365.5,-66 365.5,-96"/>
<text text-anchor="start" x="184.5" y="-84" font-family="Helvetica,sans-Serif" font-size="10.00">aopp_deconv_tool.geometry.shape.</text>
<text text-anchor="middle" x="271" y="-73" font-family="Helvetica,sans-Serif" font-size="10.00">GeoShape</text>
</a>
</g>
</g>
<!-- Node6&#45;&gt;Node1 -->
<g id="edge5_Node000001_Node000006" class="edge">
<title>Node6&#45;&gt;Node1</title>
<g id="a_edge5_Node000001_Node000006"><a xlink:title=" ">
<path fill="none" stroke="#9a32cd" stroke-dasharray="5,2" d="M243.46,-59.64C225.2,-46.14 202.19,-29.12 188.59,-19.07"/>
<polygon fill="#9a32cd" stroke="#9a32cd" points="241.86,-62.8 251.98,-65.94 246.02,-57.18 241.86,-62.8"/>
</a>
</g>
<text text-anchor="middle" x="243.5" y="-40" font-family="Helvetica,sans-Serif" font-size="10.00" fill="grey"> shape</text>
</g>
<!-- Node7 -->
<g id="Node000007" class="node">
<title>Node7</title>
<g id="a_Node000007"><a xlink:title=" ">
<polygon fill="white" stroke="#666666" points="299,-162 243,-162 243,-143 299,-143 299,-162"/>
<text text-anchor="middle" x="271" y="-150" font-family="Helvetica,sans-Serif" font-size="10.00">Callable</text>
</a>
</g>
</g>
<!-- Node7&#45;&gt;Node6 -->
<g id="edge6_Node000006_Node000007" class="edge">
<title>Node7&#45;&gt;Node6</title>
<g id="a_edge6_Node000006_Node000007"><a xlink:title=" ">
<path fill="none" stroke="#9a32cd" stroke-dasharray="5,2" d="M271,-132.71C271,-121.19 271,-106.68 271,-96.14"/>
<polygon fill="#9a32cd" stroke="#9a32cd" points="267.5,-132.98 271,-142.98 274.5,-132.98 267.5,-132.98"/>
</a>
</g>
<text text-anchor="middle" x="288.5" y="-117" font-family="Helvetica,sans-Serif" font-size="10.00" fill="grey"> metric</text>
</g>
</g>
</svg>
</svg>

<style type='text/css'>
<![CDATA[
[data-mouse-over-selected='false'] { opacity: 0.7; }
[data-mouse-over-selected='true']  { opacity: 1.0; }
]]>
</style>
<script type="application/ecmascript"><![CDATA[
document.addEventListener('DOMContentLoaded', (event) => {
  highlightEdges();
  highlightAdjacentNodes();
});
]]></script>
</svg>
