<?xml version="1.0" encoding="UTF-8" standalone="no"?>
<!DOCTYPE svg PUBLIC "-//W3C//DTD SVG 1.1//EN"
 "http://www.w3.org/Graphics/SVG/1.1/DTD/svg11.dtd">
<!-- Generated by graphviz version 2.43.0 (0)
 -->
<!-- Title: aopp_deconv_tool.graphical_frontends.ssa_filtering.SSAViewer.show Pages: 1 -->
<!--zoomable 537 -->
<svg id="main" version="1.1" xmlns="http://www.w3.org/2000/svg" xmlns:xlink="http://www.w3.org/1999/xlink" xml:space="preserve" onload="init(evt)">
<style type="text/css"><![CDATA[
.edge:hover path { stroke: red; }
.edge:hover polygon { stroke: red; fill: red; }
]]></style>
<script type="text/javascript"><![CDATA[
var edges = document.getElementsByTagName('g');
if (edges && edges.length) {
  for (var i=0;i<edges.length;i++) {
    if (edges[i].id.substr(0,4)=='edge') {
      edges[i].setAttribute('class','edge');
    }
  }
}
]]></script>
        <defs>
                <circle id="rim" cx="0" cy="0" r="7"/>
                <circle id="rim2" cx="0" cy="0" r="3.5"/>
                <g id="zoomPlus">
                        <use xlink:href="#rim" fill="#404040">
                                <set attributeName="fill" to="#808080" begin="zoomplus.mouseover" end="zoomplus.mouseout"/>
                        </use>
                        <path d="M-4,0h8M0,-4v8" fill="none" stroke="white" stroke-width="1.5" pointer-events="none"/>
                </g>
                <g id="zoomMin">
                        <use xlink:href="#rim" fill="#404040">
                                <set attributeName="fill" to="#808080" begin="zoomminus.mouseover" end="zoomminus.mouseout"/>
                        </use>
                        <path d="M-4,0h8" fill="none" stroke="white" stroke-width="1.5" pointer-events="none"/>
                </g>
                <g id="dirArrow">
                        <path fill="none" stroke="white" stroke-width="1.5" d="M0,-3.0v7 M-2.5,-0.5L0,-3.0L2.5,-0.5"/>
                </g>
               <g id="resetDef">
                       <use xlink:href="#rim2" fill="#404040">
                               <set attributeName="fill" to="#808080" begin="reset.mouseover" end="reset.mouseout"/>
                       </use>
               </g>
        </defs>

<script type="text/javascript">
var viewWidth = 977;
var viewHeight = 537;
var sectionId = 'dynsection-5';
</script>
<script xlink:href="../../svgpan.js"/>
<svg id="graph" class="graph">
<g id="viewport">
<title>aopp_deconv_tool.graphical_frontends.ssa_filtering.SSAViewer.show</title>
<!-- Node1 -->
<g id="node1" class="node">
<title>Node1</title>
<g id="a_node1"><a xlink:title=" ">
<polygon fill="#bfbfbf" stroke="black" points="0,-176 0,-206 216,-206 216,-176 0,-176"/>
<text text-anchor="start" x="8" y="-194" font-family="Helvetica,sans-Serif" font-size="10.00">aopp_deconv_tool.graphical</text>
<text text-anchor="middle" x="108" y="-183" font-family="Helvetica,sans-Serif" font-size="10.00">_frontends.ssa_filtering.SSAViewer.show</text>
</a>
</g>
</g>
<!-- Node2 -->
<g id="node2" class="node">
<title>Node2</title>
<g id="a_node2"><a xlink:href="../../db/dd6/classaopp__deconv__tool_1_1graphical__frontends_1_1ssa__filtering_1_1ImagePlot.html#aaad6d78efd48d8e620295a5106faaf8a" target="_top" xlink:title=" ">
<polygon fill="none" stroke="black" points="269.5,-283 269.5,-313 498.5,-313 498.5,-283 269.5,-283"/>
<text text-anchor="start" x="277.5" y="-301" font-family="Helvetica,sans-Serif" font-size="10.00">aopp_deconv_tool.graphical</text>
<text text-anchor="middle" x="384" y="-290" font-family="Helvetica,sans-Serif" font-size="10.00">_frontends.ssa_filtering.ImagePlot.set_data</text>
</a>
</g>
</g>
<!-- Node1&#45;&gt;Node2 -->
<g id="edge1" class="edge">
<title>Node1&#45;&gt;Node2</title>
<path fill="none" stroke="midnightblue" d="M131.23,-206.3C158.49,-224.38 206.68,-254.12 252,-271 261.56,-274.56 271.71,-277.7 281.94,-280.45"/>
<polygon fill="midnightblue" stroke="midnightblue" points="281.22,-283.88 291.78,-282.97 282.96,-277.1 281.22,-283.88"/>
</g>
<!-- Node12 -->
<g id="node12" class="node">
<title>Node12</title>
<g id="a_node12"><a xlink:href="../../d1/d4b/classaopp__deconv__tool_1_1graphical__frontends_1_1ssa__filtering_1_1LinePlot.html#afa75f9b57597a0ca2eca6c912239b41a" target="_top" xlink:title=" ">
<polygon fill="none" stroke="black" points="275,-332 275,-362 493,-362 493,-332 275,-332"/>
<text text-anchor="start" x="283" y="-350" font-family="Helvetica,sans-Serif" font-size="10.00">aopp_deconv_tool.graphical</text>
<text text-anchor="middle" x="384" y="-339" font-family="Helvetica,sans-Serif" font-size="10.00">_frontends.ssa_filtering.LinePlot.set_data</text>
</a>
</g>
</g>
<!-- Node1&#45;&gt;Node12 -->
<g id="edge11" class="edge">
<title>Node1&#45;&gt;Node12</title>
<path fill="none" stroke="midnightblue" d="M120.46,-206.19C142.55,-234.25 193.97,-294.01 252,-323 256.3,-325.15 260.76,-327.1 265.34,-328.89"/>
<polygon fill="midnightblue" stroke="midnightblue" points="264.27,-332.22 274.86,-332.31 266.63,-325.63 264.27,-332.22"/>
</g>
<!-- Node13 -->
<g id="node13" class="node">
<title>Node13</title>
<g id="a_node13"><a xlink:href="../../da/d4f/classaopp__deconv__tool_1_1graphical__frontends_1_1ssa__filtering_1_1BasePanel.html#ab89deedba906ac3dfb5680c7e2bb48f7" target="_top" xlink:title=" ">
<polygon fill="none" stroke="black" points="269,-231 269,-261 499,-261 499,-231 269,-231"/>
<text text-anchor="start" x="277" y="-249" font-family="Helvetica,sans-Serif" font-size="10.00">aopp_deconv_tool.graphical</text>
<text text-anchor="middle" x="384" y="-238" font-family="Helvetica,sans-Serif" font-size="10.00">_frontends.ssa_filtering.BasePanel.set_data</text>
</a>
</g>
</g>
<!-- Node1&#45;&gt;Node13 -->
<g id="edge20" class="edge">
<title>Node1&#45;&gt;Node13</title>
<path fill="none" stroke="midnightblue" d="M179.5,-206.06C202.59,-210.92 228.37,-216.27 252,-221 265.24,-223.65 279.26,-226.39 293,-229.05"/>
<polygon fill="midnightblue" stroke="midnightblue" points="292.46,-232.51 302.94,-230.96 293.78,-225.63 292.46,-232.51"/>
</g>
<!-- Node14 -->
<g id="node14" class="node">
<title>Node14</title>
<g id="a_node14"><a xlink:href="../../df/dfb/classaopp__deconv__tool_1_1graphical__frontends_1_1ssa__filtering_1_1LineRegionPanel.html#a7698339aa9ff1e62ce395509bbd6e0fe" target="_top" xlink:title=" ">
<polygon fill="none" stroke="black" points="290,-170.5 290,-211.5 478,-211.5 478,-170.5 290,-170.5"/>
<text text-anchor="start" x="298" y="-199.5" font-family="Helvetica,sans-Serif" font-size="10.00">aopp_deconv_tool.graphical</text>
<text text-anchor="start" x="298" y="-188.5" font-family="Helvetica,sans-Serif" font-size="10.00">_frontends.ssa_filtering.LineRegion</text>
<text text-anchor="middle" x="384" y="-177.5" font-family="Helvetica,sans-Serif" font-size="10.00">Panel.set_data</text>
</a>
</g>
</g>
<!-- Node1&#45;&gt;Node14 -->
<g id="edge21" class="edge">
<title>Node1&#45;&gt;Node14</title>
<path fill="none" stroke="midnightblue" d="M216.11,-191C237.01,-191 258.88,-191 279.65,-191"/>
<polygon fill="midnightblue" stroke="midnightblue" points="279.75,-194.5 289.75,-191 279.75,-187.5 279.75,-194.5"/>
</g>
<!-- Node15 -->
<g id="node15" class="node">
<title>Node15</title>
<g id="a_node15"><a xlink:href="../../dd/d48/classaopp__deconv__tool_1_1graphical__frontends_1_1ssa__filtering_1_1SSAViewer.html#aa90260847843bd95e424306bf26bc620" target="_top" xlink:title=" ">
<polygon fill="none" stroke="black" points="267.5,-121 267.5,-151 500.5,-151 500.5,-121 267.5,-121"/>
<text text-anchor="start" x="275.5" y="-139" font-family="Helvetica,sans-Serif" font-size="10.00">aopp_deconv_tool.graphical</text>
<text text-anchor="middle" x="384" y="-128" font-family="Helvetica,sans-Serif" font-size="10.00">_frontends.ssa_filtering.SSAViewer.set_data</text>
</a>
</g>
</g>
<!-- Node1&#45;&gt;Node15 -->
<g id="edge22" class="edge">
<title>Node1&#45;&gt;Node15</title>
<path fill="none" stroke="midnightblue" d="M179.5,-175.94C202.59,-171.08 228.37,-165.73 252,-161 265.24,-158.35 279.26,-155.61 293,-152.95"/>
<polygon fill="midnightblue" stroke="midnightblue" points="293.78,-156.37 302.94,-151.04 292.46,-149.49 293.78,-156.37"/>
</g>
<!-- Node16 -->
<g id="node16" class="node">
<title>Node16</title>
<g id="a_node16"><a xlink:href="../../d6/d1d/classaopp__deconv__tool_1_1graphical__frontends_1_1ssa__filtering_1_1ImageViewer.html#a4545ef481864cebad713e1f0714bf892" target="_top" xlink:title=" ">
<polygon fill="none" stroke="black" points="262,-67 262,-97 506,-97 506,-67 262,-67"/>
<text text-anchor="start" x="270" y="-85" font-family="Helvetica,sans-Serif" font-size="10.00">aopp_deconv_tool.graphical</text>
<text text-anchor="middle" x="384" y="-74" font-family="Helvetica,sans-Serif" font-size="10.00">_frontends.ssa_filtering.ImageViewer.set_data</text>
</a>
</g>
</g>
<!-- Node1&#45;&gt;Node16 -->
<g id="edge23" class="edge">
<title>Node1&#45;&gt;Node16</title>
<path fill="none" stroke="midnightblue" d="M131.81,-175.76C159.25,-158.06 207.22,-129.11 252,-112 264.54,-107.21 278.06,-103.06 291.49,-99.5"/>
<polygon fill="midnightblue" stroke="midnightblue" points="292.41,-102.87 301.23,-97.01 290.68,-96.09 292.41,-102.87"/>
</g>
<!-- Node19 -->
<g id="node19" class="node">
<title>Node19</title>
<g id="a_node19"><a xlink:href="../../d8/dd5/classaopp__deconv__tool_1_1graphical__frontends_1_1ssa__filtering_1_1ImageAggregator.html#adfb490880a8870d1303730ab03290ea8" target="_top" xlink:title=" ">
<polygon fill="none" stroke="black" points="252,-18 252,-48 516,-48 516,-18 252,-18"/>
<text text-anchor="start" x="260" y="-36" font-family="Helvetica,sans-Serif" font-size="10.00">aopp_deconv_tool.graphical</text>
<text text-anchor="middle" x="384" y="-25" font-family="Helvetica,sans-Serif" font-size="10.00">_frontends.ssa_filtering.ImageAggregator.set_data</text>
</a>
</g>
</g>
<!-- Node1&#45;&gt;Node19 -->
<g id="edge26" class="edge">
<title>Node1&#45;&gt;Node19</title>
<path fill="none" stroke="midnightblue" d="M120.46,-175.73C142.53,-147.52 193.93,-87.42 252,-58 256.66,-55.64 261.51,-53.5 266.49,-51.57"/>
<polygon fill="midnightblue" stroke="midnightblue" points="267.97,-54.76 276.2,-48.09 265.6,-48.17 267.97,-54.76"/>
</g>
<!-- Node3 -->
<g id="node3" class="node">
<title>Node3</title>
<g id="a_node3"><a xlink:href="../../db/dd6/classaopp__deconv__tool_1_1graphical__frontends_1_1ssa__filtering_1_1ImagePlot.html#a224bbaf901632786c84c7cff4372cdf0" target="_top" xlink:title=" ">
<polygon fill="none" stroke="black" points="580.5,-279.5 580.5,-320.5 775.5,-320.5 775.5,-279.5 580.5,-279.5"/>
<text text-anchor="start" x="588.5" y="-308.5" font-family="Helvetica,sans-Serif" font-size="10.00">aopp_deconv_tool.graphical</text>
<text text-anchor="start" x="588.5" y="-297.5" font-family="Helvetica,sans-Serif" font-size="10.00">_frontends.ssa_filtering.ImagePlot.is</text>
<text text-anchor="middle" x="678" y="-286.5" font-family="Helvetica,sans-Serif" font-size="10.00">_new_data_compatible</text>
</a>
</g>
</g>
<!-- Node2&#45;&gt;Node3 -->
<g id="edge2" class="edge">
<title>Node2&#45;&gt;Node3</title>
<path fill="none" stroke="midnightblue" d="M498.73,-298.78C522.17,-298.94 546.77,-299.11 569.96,-299.27"/>
<polygon fill="midnightblue" stroke="midnightblue" points="570.12,-302.77 580.15,-299.34 570.17,-295.77 570.12,-302.77"/>
</g>
<!-- Node4 -->
<g id="node4" class="node">
<title>Node4</title>
<g id="a_node4"><a xlink:href="../../d1/d4b/classaopp__deconv__tool_1_1graphical__frontends_1_1ssa__filtering_1_1LinePlot.html#a3aff404bd0c47aa0e5eb4189987a0094" target="_top" xlink:title=" ">
<polygon fill="none" stroke="black" points="585.5,-219.5 585.5,-260.5 770.5,-260.5 770.5,-219.5 585.5,-219.5"/>
<text text-anchor="start" x="593.5" y="-248.5" font-family="Helvetica,sans-Serif" font-size="10.00">aopp_deconv_tool.graphical</text>
<text text-anchor="start" x="593.5" y="-237.5" font-family="Helvetica,sans-Serif" font-size="10.00">_frontends.ssa_filtering.LinePlot.is</text>
<text text-anchor="middle" x="678" y="-226.5" font-family="Helvetica,sans-Serif" font-size="10.00">_new_data_compatible</text>
</a>
</g>
</g>
<!-- Node2&#45;&gt;Node4 -->
<g id="edge3" class="edge">
<title>Node2&#45;&gt;Node4</title>
<path fill="none" stroke="midnightblue" d="M460.58,-282.99C495.56,-276.04 537.63,-267.68 575.34,-260.19"/>
<polygon fill="midnightblue" stroke="midnightblue" points="576.21,-263.59 585.34,-258.21 574.85,-256.72 576.21,-263.59"/>
</g>
<!-- Node5 -->
<g id="node5" class="node">
<title>Node5</title>
<g id="a_node5"><a xlink:href="../../d7/d1a/classaopp__deconv__tool_1_1graphical__frontends_1_1ssa__filtering_1_1BasePlot.html#ab90f403d403358f326201c91c4b4ba5d" target="_top" xlink:title=" ">
<polygon fill="none" stroke="black" points="569,-170 569,-200 787,-200 787,-170 569,-170"/>
<text text-anchor="start" x="577" y="-188" font-family="Helvetica,sans-Serif" font-size="10.00">aopp_deconv_tool.graphical</text>
<text text-anchor="middle" x="678" y="-177" font-family="Helvetica,sans-Serif" font-size="10.00">_frontends.ssa_filtering.BasePlot.remove</text>
</a>
</g>
</g>
<!-- Node2&#45;&gt;Node5 -->
<g id="edge4" class="edge">
<title>Node2&#45;&gt;Node5</title>
<path fill="none" stroke="midnightblue" d="M494.54,-282.94C502.13,-279.66 509.39,-275.73 516,-271 541.61,-252.7 526.33,-228.23 552,-210 554.71,-208.08 557.53,-206.3 560.43,-204.64"/>
<polygon fill="midnightblue" stroke="midnightblue" points="562.09,-207.73 569.4,-200.06 558.91,-201.49 562.09,-207.73"/>
</g>
<!-- Node6 -->
<g id="node6" class="node">
<title>Node6</title>
<g id="a_node6"><a xlink:href="../../db/dd6/classaopp__deconv__tool_1_1graphical__frontends_1_1ssa__filtering_1_1ImagePlot.html#a311d5b0b53753851d7df74f8b229a3a1" target="_top" xlink:title=" ">
<polygon fill="none" stroke="black" points="566,-121 566,-151 790,-151 790,-121 566,-121"/>
<text text-anchor="start" x="574" y="-139" font-family="Helvetica,sans-Serif" font-size="10.00">aopp_deconv_tool.graphical</text>
<text text-anchor="middle" x="678" y="-128" font-family="Helvetica,sans-Serif" font-size="10.00">_frontends.ssa_filtering.ImagePlot.remove</text>
</a>
</g>
</g>
<!-- Node2&#45;&gt;Node6 -->
<g id="edge5" class="edge">
<title>Node2&#45;&gt;Node6</title>
<path fill="none" stroke="midnightblue" d="M498.57,-283.04C504.83,-279.69 510.72,-275.72 516,-271 554.37,-236.74 513.53,-195.15 552,-161 553.75,-159.45 555.56,-157.98 557.44,-156.6"/>
<polygon fill="midnightblue" stroke="midnightblue" points="559.54,-159.41 566.03,-151.03 555.73,-153.53 559.54,-159.41"/>
</g>
<!-- Node7 -->
<g id="node7" class="node">
<title>Node7</title>
<g id="a_node7"><a xlink:href="../../da/d39/classaopp__deconv__tool_1_1graphical__frontends_1_1ssa__filtering_1_1WidgetBase.html#add9d9e8935a19806390602a571c746b6" target="_top" xlink:title=" ">
<polygon fill="none" stroke="black" points="593.5,-487.5 593.5,-528.5 762.5,-528.5 762.5,-487.5 593.5,-487.5"/>
<text text-anchor="start" x="601.5" y="-516.5" font-family="Helvetica,sans-Serif" font-size="10.00">aopp_deconv_tool.graphical</text>
<text text-anchor="start" x="601.5" y="-505.5" font-family="Helvetica,sans-Serif" font-size="10.00">_frontends.ssa_filtering.Widget</text>
<text text-anchor="middle" x="678" y="-494.5" font-family="Helvetica,sans-Serif" font-size="10.00">Base.remove</text>
</a>
</g>
</g>
<!-- Node2&#45;&gt;Node7 -->
<g id="edge6" class="edge">
<title>Node2&#45;&gt;Node7</title>
<path fill="none" stroke="midnightblue" d="M498.71,-310.46C504.98,-313.89 510.83,-318.03 516,-323 566.99,-372.01 502.18,-427.81 552,-478 560.87,-486.94 571.9,-493.39 583.71,-498.02"/>
<polygon fill="midnightblue" stroke="midnightblue" points="582.73,-501.39 593.32,-501.36 585.02,-494.77 582.73,-501.39"/>
</g>
<!-- Node8 -->
<g id="node8" class="node">
<title>Node8</title>
<g id="a_node8"><a xlink:href="../../d6/da1/classaopp__deconv__tool_1_1task__strat_1_1TaskStratSet.html#a089f805d274ef3be0b64217e99ffed9d" target="_top" xlink:title=" ">
<polygon fill="none" stroke="black" points="603.5,-438 603.5,-468 752.5,-468 752.5,-438 603.5,-438"/>
<text text-anchor="start" x="611.5" y="-456" font-family="Helvetica,sans-Serif" font-size="10.00">aopp_deconv_tool.task</text>
<text text-anchor="middle" x="678" y="-445" font-family="Helvetica,sans-Serif" font-size="10.00">_strat.TaskStratSet.remove</text>
</a>
</g>
</g>
<!-- Node2&#45;&gt;Node8 -->
<g id="edge7" class="edge">
<title>Node2&#45;&gt;Node8</title>
<path fill="none" stroke="midnightblue" d="M498.77,-311.39C504.95,-314.61 510.76,-318.44 516,-323 553.54,-355.66 514.48,-396.32 552,-429 563.69,-439.18 578.35,-445.58 593.49,-449.51"/>
<polygon fill="midnightblue" stroke="midnightblue" points="592.95,-452.98 603.48,-451.76 594.48,-446.15 592.95,-452.98"/>
</g>
<!-- Node10 -->
<g id="node10" class="node">
<title>Node10</title>
<g id="a_node10"><a xlink:href="../../db/dd6/classaopp__deconv__tool_1_1graphical__frontends_1_1ssa__filtering_1_1ImagePlot.html#a24d4cfa969821f6eef9e608178a0b12f" target="_top" xlink:title=" ">
<polygon fill="none" stroke="black" points="552,-389 552,-419 804,-419 804,-389 552,-389"/>
<text text-anchor="start" x="560" y="-407" font-family="Helvetica,sans-Serif" font-size="10.00">aopp_deconv_tool.graphical</text>
<text text-anchor="middle" x="678" y="-396" font-family="Helvetica,sans-Serif" font-size="10.00">_frontends.ssa_filtering.ImagePlot.sanitise_data</text>
</a>
</g>
</g>
<!-- Node2&#45;&gt;Node10 -->
<g id="edge9" class="edge">
<title>Node2&#45;&gt;Node10</title>
<path fill="none" stroke="midnightblue" d="M497.93,-313.05C504.27,-315.86 510.36,-319.15 516,-323 540.76,-339.87 527.25,-363.12 552,-380 554.2,-381.5 556.46,-382.91 558.79,-384.24"/>
<polygon fill="midnightblue" stroke="midnightblue" points="557.52,-387.52 568.02,-388.96 560.71,-381.29 557.52,-387.52"/>
</g>
<!-- Node11 -->
<g id="node11" class="node">
<title>Node11</title>
<g id="a_node11"><a xlink:href="../../d1/d4b/classaopp__deconv__tool_1_1graphical__frontends_1_1ssa__filtering_1_1LinePlot.html#ab47bbe68324258fda7c8375944f12531" target="_top" xlink:title=" ">
<polygon fill="none" stroke="black" points="557,-340 557,-370 799,-370 799,-340 557,-340"/>
<text text-anchor="start" x="565" y="-358" font-family="Helvetica,sans-Serif" font-size="10.00">aopp_deconv_tool.graphical</text>
<text text-anchor="middle" x="678" y="-347" font-family="Helvetica,sans-Serif" font-size="10.00">_frontends.ssa_filtering.LinePlot.sanitise_data</text>
</a>
</g>
</g>
<!-- Node2&#45;&gt;Node11 -->
<g id="edge10" class="edge">
<title>Node2&#45;&gt;Node11</title>
<path fill="none" stroke="midnightblue" d="M464.34,-313.04C481.39,-316.3 499.3,-319.75 516,-323 540.71,-327.81 567.53,-333.11 592.07,-337.99"/>
<polygon fill="midnightblue" stroke="midnightblue" points="591.58,-341.47 602.07,-339.98 592.95,-334.6 591.58,-341.47"/>
</g>
<!-- Node9 -->
<g id="node9" class="node">
<title>Node9</title>
<g id="a_node9"><a xlink:href="../../d6/da1/classaopp__deconv__tool_1_1task__strat_1_1TaskStratSet.html#a9c869a7fb815955cc1bb5666e5ebe08f" target="_top" xlink:title=" ">
<polygon fill="none" stroke="black" points="840,-432.5 840,-473.5 969,-473.5 969,-432.5 840,-432.5"/>
<text text-anchor="start" x="848" y="-461.5" font-family="Helvetica,sans-Serif" font-size="10.00">aopp_deconv_tool.task</text>
<text text-anchor="start" x="848" y="-450.5" font-family="Helvetica,sans-Serif" font-size="10.00">_strat.TaskStratSet.</text>
<text text-anchor="middle" x="904.5" y="-439.5" font-family="Helvetica,sans-Serif" font-size="10.00">_del_item</text>
</a>
</g>
</g>
<!-- Node8&#45;&gt;Node9 -->
<g id="edge8" class="edge">
<title>Node8&#45;&gt;Node9</title>
<path fill="none" stroke="midnightblue" d="M752.51,-453C777.24,-453 804.82,-453 829.58,-453"/>
<polygon fill="midnightblue" stroke="midnightblue" points="829.64,-456.5 839.64,-453 829.64,-449.5 829.64,-456.5"/>
</g>
<!-- Node12&#45;&gt;Node3 -->
<g id="edge12" class="edge">
<title>Node12&#45;&gt;Node3</title>
<path fill="none" stroke="midnightblue" d="M478.19,-332C507.51,-327.28 540.11,-322.03 570.29,-317.18"/>
<polygon fill="midnightblue" stroke="midnightblue" points="571.1,-320.59 580.42,-315.55 569.99,-313.68 571.1,-320.59"/>
</g>
<!-- Node12&#45;&gt;Node4 -->
<g id="edge13" class="edge">
<title>Node12&#45;&gt;Node4</title>
<path fill="none" stroke="midnightblue" d="M493.18,-334.49C501.21,-331.39 508.93,-327.61 516,-323 539.86,-307.45 528.58,-286.19 552,-270 559.27,-264.97 567.28,-260.79 575.63,-257.3"/>
<polygon fill="midnightblue" stroke="midnightblue" points="577.09,-260.49 585.18,-253.65 574.59,-253.95 577.09,-260.49"/>
</g>
<!-- Node12&#45;&gt;Node5 -->
<g id="edge14" class="edge">
<title>Node12&#45;&gt;Node5</title>
<path fill="none" stroke="midnightblue" d="M493.21,-337.34C501.48,-333.66 509.23,-328.96 516,-323 555.56,-288.17 512.72,-245.15 552,-210 554.56,-207.71 557.26,-205.61 560.09,-203.68"/>
<polygon fill="midnightblue" stroke="midnightblue" points="562.13,-206.54 568.9,-198.39 558.53,-200.53 562.13,-206.54"/>
</g>
<!-- Node12&#45;&gt;Node6 -->
<g id="edge15" class="edge">
<title>Node12&#45;&gt;Node6</title>
<path fill="none" stroke="midnightblue" d="M493.18,-338.28C501.56,-334.41 509.34,-329.42 516,-323 569.12,-271.83 499.29,-212.6 552,-161 553.7,-159.33 555.48,-157.76 557.33,-156.28"/>
<polygon fill="midnightblue" stroke="midnightblue" points="559.64,-158.94 565.85,-150.36 555.64,-153.2 559.64,-158.94"/>
</g>
<!-- Node12&#45;&gt;Node7 -->
<g id="edge16" class="edge">
<title>Node12&#45;&gt;Node7</title>
<path fill="none" stroke="midnightblue" d="M399.58,-362.12C426.86,-389.52 488.64,-447.36 552,-478 561.95,-482.81 572.72,-486.88 583.63,-490.32"/>
<polygon fill="midnightblue" stroke="midnightblue" points="582.65,-493.68 593.23,-493.18 584.65,-486.97 582.65,-493.68"/>
</g>
<!-- Node12&#45;&gt;Node8 -->
<g id="edge17" class="edge">
<title>Node12&#45;&gt;Node8</title>
<path fill="none" stroke="midnightblue" d="M410.4,-362.16C442.37,-380.59 499.47,-411.41 552,-429 565.15,-433.4 579.37,-437.09 593.34,-440.15"/>
<polygon fill="midnightblue" stroke="midnightblue" points="592.94,-443.64 603.45,-442.26 594.38,-436.79 592.94,-443.64"/>
</g>
<!-- Node12&#45;&gt;Node10 -->
<g id="edge18" class="edge">
<title>Node12&#45;&gt;Node10</title>
<path fill="none" stroke="midnightblue" d="M460.63,-362.04C489.25,-367.7 522.12,-374.18 552,-380 563.69,-382.28 576,-384.66 588.15,-387"/>
<polygon fill="midnightblue" stroke="midnightblue" points="587.82,-390.5 598.3,-388.96 589.15,-383.63 587.82,-390.5"/>
</g>
<!-- Node12&#45;&gt;Node11 -->
<g id="edge19" class="edge">
<title>Node12&#45;&gt;Node11</title>
<path fill="none" stroke="midnightblue" d="M493.32,-349.97C510.55,-350.44 528.53,-350.93 546.21,-351.42"/>
<polygon fill="midnightblue" stroke="midnightblue" points="546.49,-354.93 556.58,-351.7 546.68,-347.93 546.49,-354.93"/>
</g>
<!-- Node17 -->
<g id="node17" class="node">
<title>Node17</title>
<g id="a_node17"><a xlink:href="../../d6/d1d/classaopp__deconv__tool_1_1graphical__frontends_1_1ssa__filtering_1_1ImageViewer.html#ae101d1c686b3106923f4aba206e1bb5a" target="_top" xlink:title=" ">
<polygon fill="none" stroke="black" points="569,-60.5 569,-101.5 787,-101.5 787,-60.5 569,-60.5"/>
<text text-anchor="start" x="577" y="-89.5" font-family="Helvetica,sans-Serif" font-size="10.00">aopp_deconv_tool.graphical</text>
<text text-anchor="start" x="577" y="-78.5" font-family="Helvetica,sans-Serif" font-size="10.00">_frontends.ssa_filtering.ImageViewer.get</text>
<text text-anchor="middle" x="678" y="-67.5" font-family="Helvetica,sans-Serif" font-size="10.00">_displayed_data</text>
</a>
</g>
</g>
<!-- Node16&#45;&gt;Node17 -->
<g id="edge24" class="edge">
<title>Node16&#45;&gt;Node17</title>
<path fill="none" stroke="midnightblue" d="M506.3,-81.58C523.59,-81.53 541.35,-81.46 558.59,-81.41"/>
<polygon fill="midnightblue" stroke="midnightblue" points="558.68,-84.91 568.67,-81.37 558.65,-77.91 558.68,-84.91"/>
</g>
<!-- Node18 -->
<g id="node18" class="node">
<title>Node18</title>
<g id="a_node18"><a xlink:href="../../d8/dd5/classaopp__deconv__tool_1_1graphical__frontends_1_1ssa__filtering_1_1ImageAggregator.html#a982eb00733474f4a1702af854eb2ac50" target="_top" xlink:title=" ">
<polygon fill="none" stroke="black" points="559,-0.5 559,-41.5 797,-41.5 797,-0.5 559,-0.5"/>
<text text-anchor="start" x="567" y="-29.5" font-family="Helvetica,sans-Serif" font-size="10.00">aopp_deconv_tool.graphical</text>
<text text-anchor="start" x="567" y="-18.5" font-family="Helvetica,sans-Serif" font-size="10.00">_frontends.ssa_filtering.ImageAggregator.get</text>
<text text-anchor="middle" x="678" y="-7.5" font-family="Helvetica,sans-Serif" font-size="10.00">_displayed_data</text>
</a>
</g>
</g>
<!-- Node16&#45;&gt;Node18 -->
<g id="edge25" class="edge">
<title>Node16&#45;&gt;Node18</title>
<path fill="none" stroke="midnightblue" d="M470.02,-67C485.35,-64.13 501.17,-61.06 516,-58 536.97,-53.67 559.41,-48.72 580.67,-43.88"/>
<polygon fill="midnightblue" stroke="midnightblue" points="581.71,-47.23 590.68,-41.59 580.15,-40.41 581.71,-47.23"/>
</g>
</g>
</svg>
        <g id="navigator" transform="translate(0 0)" fill="#404254">
                <rect fill="#f2f5e9" fill-opacity="0.5" stroke="#606060" stroke-width=".5" x="0" y="0" width="60" height="60"/>
                <use id="zoomplus" xlink:href="#zoomPlus" x="17" y="9" onmousedown="handleZoom(evt,'in')"/>
                <use id="zoomminus" xlink:href="#zoomMin" x="42" y="9" onmousedown="handleZoom(evt,'out')"/>
                <use id="reset" xlink:href="#resetDef" x="30" y="36" onmousedown="handleReset()"/>
                <g id="arrowUp" xlink:href="#dirArrow" transform="translate(30 24)" onmousedown="handlePan(0,-1)">
                  <use xlink:href="#rim" fill="#404040">
                        <set attributeName="fill" to="#808080" begin="arrowUp.mouseover" end="arrowUp.mouseout"/>
                  </use>
                  <path fill="none" stroke="white" stroke-width="1.5" d="M0,-3.0v7 M-2.5,-0.5L0,-3.0L2.5,-0.5"/>
                </g>
                <g id="arrowRight" xlink:href="#dirArrow" transform="rotate(90) translate(36 -43)" onmousedown="handlePan(1,0)">
                  <use xlink:href="#rim" fill="#404040">
                        <set attributeName="fill" to="#808080" begin="arrowRight.mouseover" end="arrowRight.mouseout"/>
                  </use>
                  <path fill="none" stroke="white" stroke-width="1.5" d="M0,-3.0v7 M-2.5,-0.5L0,-3.0L2.5,-0.5"/>
                </g>
                <g id="arrowDown" xlink:href="#dirArrow" transform="rotate(180) translate(-30 -48)" onmousedown="handlePan(0,1)">
                  <use xlink:href="#rim" fill="#404040">
                        <set attributeName="fill" to="#808080" begin="arrowDown.mouseover" end="arrowDown.mouseout"/>
                  </use>
                  <path fill="none" stroke="white" stroke-width="1.5" d="M0,-3.0v7 M-2.5,-0.5L0,-3.0L2.5,-0.5"/>
                </g>
                <g id="arrowLeft" xlink:href="#dirArrow" transform="rotate(270) translate(-36 17)" onmousedown="handlePan(-1,0)">
                  <use xlink:href="#rim" fill="#404040">
                        <set attributeName="fill" to="#808080" begin="arrowLeft.mouseover" end="arrowLeft.mouseout"/>
                  </use>
                  <path fill="none" stroke="white" stroke-width="1.5" d="M0,-3.0v7 M-2.5,-0.5L0,-3.0L2.5,-0.5"/>
                </g>
        </g>
        <svg viewBox="0 0 15 15" width="100%" height="30px" preserveAspectRatio="xMaxYMin meet">
         <g id="arrow_out" transform="scale(0.3 0.3)">
          <a xlink:href="classaopp__deconv__tool_1_1graphical__frontends_1_1ssa__filtering_1_1SSAViewer_a7507dee8ce74c985371256e8a870dfab_cgraph_org.svg" target="_base">
           <rect id="button" ry="5" rx="5" y="6" x="6" height="38" width="38"
                fill="#f2f5e9" fill-opacity="0.5" stroke="#606060" stroke-width="1.0"/>
           <path id="arrow"
             d="M 11.500037,31.436501 C 11.940474,20.09759 22.043105,11.32322 32.158766,21.979434 L 37.068811,17.246167 C 37.068811,17.246167 37.088388,32 37.088388,32 L 22.160133,31.978069 C 22.160133,31.978069 26.997745,27.140456 26.997745,27.140456 C 18.528582,18.264221 13.291696,25.230495 11.500037,31.436501 z"
             style="fill:#404040;"/>
          </a>
         </g>
        </svg>
</svg>
