<?xml version="1.0" encoding="UTF-8" standalone="no"?>
<!DOCTYPE svg PUBLIC "-//W3C//DTD SVG 1.1//EN"
 "http://www.w3.org/Graphics/SVG/1.1/DTD/svg11.dtd">
<!-- Generated by graphviz version 2.43.0 (0)
 -->
<!-- Title: aopp_deconv_tool.graphical_frontends.ssa_filtering.SSAViewer.set_image_plane_range_from_evalue_panel_region Pages: 1 -->
<svg width="766pt" height="62pt"
 viewBox="0.00 0.00 766.00 61.50" xmlns="http://www.w3.org/2000/svg" xmlns:xlink="http://www.w3.org/1999/xlink">
<g id="graph0" class="graph" transform="scale(1 1) rotate(0) translate(4 57.5)">
<title>aopp_deconv_tool.graphical_frontends.ssa_filtering.SSAViewer.set_image_plane_range_from_evalue_panel_region</title>
<!-- Node1 -->
<g id="Node000001" class="node">
<title>Node1</title>
<g id="a_Node000001"><a xlink:title=" ">
<polygon fill="#999999" stroke="#666666" points="253,-41 0,-41 0,0 253,0 253,-41"/>
<text text-anchor="start" x="8" y="-29" font-family="Helvetica,sans-Serif" font-size="10.00">aopp_deconv_tool.graphical</text>
<text text-anchor="start" x="8" y="-18" font-family="Helvetica,sans-Serif" font-size="10.00">_frontends.ssa_filtering.SSAViewer.set</text>
<text text-anchor="middle" x="126.5" y="-7" font-family="Helvetica,sans-Serif" font-size="10.00">_image_plane_range_from_evalue_panel_region</text>
</a>
</g>
</g>
<!-- Node2 -->
<g id="Node000002" class="node">
<title>Node2</title>
<g id="a_Node000002"><a xlink:href="../../dd/d48/classaopp__deconv__tool_1_1graphical__frontends_1_1ssa__filtering_1_1SSAViewer.html#a4f1db2c1933153633875d158080fd879" target="_top" xlink:title=" ">
<polygon fill="white" stroke="#666666" points="492,-41 289,-41 289,0 492,0 492,-41"/>
<text text-anchor="start" x="297" y="-29" font-family="Helvetica,sans-Serif" font-size="10.00">aopp_deconv_tool.graphical</text>
<text text-anchor="start" x="297" y="-18" font-family="Helvetica,sans-Serif" font-size="10.00">_frontends.ssa_filtering.SSAViewer.set</text>
<text text-anchor="middle" x="390.5" y="-7" font-family="Helvetica,sans-Serif" font-size="10.00">_residual_data</text>
</a>
</g>
</g>
<!-- Node1&#45;&gt;Node2 -->
<g id="edge1_Node000001_Node000002" class="edge">
<title>Node1&#45;&gt;Node2</title>
<g id="a_edge1_Node000001_Node000002"><a xlink:title=" ">
<path fill="none" stroke="#63b8ff" d="M253.13,-20.5C261.62,-20.5 270.15,-20.5 278.56,-20.5"/>
<polygon fill="#63b8ff" stroke="#63b8ff" points="278.76,-24 288.76,-20.5 278.76,-17 278.76,-24"/>
</a>
</g>
</g>
<!-- Node3 -->
<g id="Node000003" class="node">
<title>Node3</title>
<g id="a_Node000003"><a xlink:href="../../dd/d48/classaopp__deconv__tool_1_1graphical__frontends_1_1ssa__filtering_1_1SSAViewer.html#a601c497b93258af65a9b85bc6c9b89f8" target="_top" xlink:title=" ">
<polygon fill="white" stroke="#666666" points="758,-35.5 528,-35.5 528,-5.5 758,-5.5 758,-35.5"/>
<text text-anchor="start" x="536" y="-23.5" font-family="Helvetica,sans-Serif" font-size="10.00">aopp_deconv_tool.graphical</text>
<text text-anchor="middle" x="643" y="-12.5" font-family="Helvetica,sans-Serif" font-size="10.00">_frontends.ssa_filtering.SSAViewer.set_data</text>
</a>
</g>
</g>
<!-- Node2&#45;&gt;Node3 -->
<g id="edge2_Node000002_Node000003" class="edge">
<title>Node2&#45;&gt;Node3</title>
<g id="a_edge2_Node000002_Node000003"><a xlink:title=" ">
<path fill="none" stroke="#63b8ff" d="M492.31,-20.5C500.71,-20.5 509.26,-20.5 517.81,-20.5"/>
<polygon fill="#63b8ff" stroke="#63b8ff" points="517.84,-24 527.84,-20.5 517.84,-17 517.84,-24"/>
</a>
</g>
</g>
<!-- Node3&#45;&gt;Node3 -->
<g id="edge3_Node000003_Node000003" class="edge">
<title>Node3&#45;&gt;Node3</title>
<g id="a_edge3_Node000003_Node000003"><a xlink:title=" ">
<path fill="none" stroke="#63b8ff" d="M598.7,-35.78C588.86,-44.91 603.62,-53.5 643,-53.5 666.38,-53.5 681.08,-50.47 687.11,-46.1"/>
<polygon fill="#63b8ff" stroke="#63b8ff" points="690.61,-45.84 687.3,-35.78 683.62,-45.71 690.61,-45.84"/>
</a>
</g>
</g>
</g>
</svg>
