<?xml version="1.0" encoding="UTF-8" standalone="no"?>
<!DOCTYPE svg PUBLIC "-//W3C//DTD SVG 1.1//EN"
 "http://www.w3.org/Graphics/SVG/1.1/DTD/svg11.dtd">
<!-- Generated by graphviz version 2.43.0 (0)
 -->
<!-- Title: aopp_deconv_tool.graphical_frontends.ssa_filtering.SSAViewer.set_residual_data Pages: 1 -->
<svg width="503pt" height="110pt"
 viewBox="0.00 0.00 503.00 110.00" xmlns="http://www.w3.org/2000/svg" xmlns:xlink="http://www.w3.org/1999/xlink">
<g id="graph0" class="graph" transform="scale(1 1) rotate(0) translate(4 106)">
<title>aopp_deconv_tool.graphical_frontends.ssa_filtering.SSAViewer.set_residual_data</title>
<!-- Node1 -->
<g id="node1" class="node">
<title>Node1</title>
<g id="a_node1"><a xlink:title=" ">
<polygon fill="#bfbfbf" stroke="black" points="289,-30.5 289,-71.5 495,-71.5 495,-30.5 289,-30.5"/>
<text text-anchor="start" x="297" y="-59.5" font-family="Helvetica,sans-Serif" font-size="10.00">aopp_deconv_tool.graphical</text>
<text text-anchor="start" x="297" y="-48.5" font-family="Helvetica,sans-Serif" font-size="10.00">_frontends.ssa_filtering.SSAViewer.set</text>
<text text-anchor="middle" x="392" y="-37.5" font-family="Helvetica,sans-Serif" font-size="10.00">_residual_data</text>
</a>
</g>
</g>
<!-- Node2 -->
<g id="node2" class="node">
<title>Node2</title>
<g id="a_node2"><a xlink:href="../../dd/d48/classaopp__deconv__tool_1_1graphical__frontends_1_1ssa__filtering_1_1SSAViewer.html#ab811d5ac9685634589aaa0f91cb17f9d" target="_top" xlink:title=" ">
<polygon fill="none" stroke="black" points="23.5,-60.5 23.5,-101.5 229.5,-101.5 229.5,-60.5 23.5,-60.5"/>
<text text-anchor="start" x="31.5" y="-89.5" font-family="Helvetica,sans-Serif" font-size="10.00">aopp_deconv_tool.graphical</text>
<text text-anchor="start" x="31.5" y="-78.5" font-family="Helvetica,sans-Serif" font-size="10.00">_frontends.ssa_filtering.SSAViewer.set</text>
<text text-anchor="middle" x="126.5" y="-67.5" font-family="Helvetica,sans-Serif" font-size="10.00">_image_plane_range_from_aggregator</text>
</a>
</g>
</g>
<!-- Node1&#45;&gt;Node2 -->
<g id="edge1" class="edge">
<title>Node1&#45;&gt;Node2</title>
<path fill="none" stroke="midnightblue" d="M278.68,-63.79C262.42,-65.64 245.75,-67.54 229.7,-69.36"/>
<polygon fill="midnightblue" stroke="midnightblue" points="279.21,-67.25 288.75,-62.64 278.42,-60.3 279.21,-67.25"/>
</g>
<!-- Node3 -->
<g id="node3" class="node">
<title>Node3</title>
<g id="a_node3"><a xlink:href="../../dd/d48/classaopp__deconv__tool_1_1graphical__frontends_1_1ssa__filtering_1_1SSAViewer.html#a36c8afce98bc966aa88d1c9c680efff2" target="_top" xlink:title=" ">
<polygon fill="none" stroke="black" points="0,-0.5 0,-41.5 253,-41.5 253,-0.5 0,-0.5"/>
<text text-anchor="start" x="8" y="-29.5" font-family="Helvetica,sans-Serif" font-size="10.00">aopp_deconv_tool.graphical</text>
<text text-anchor="start" x="8" y="-18.5" font-family="Helvetica,sans-Serif" font-size="10.00">_frontends.ssa_filtering.SSAViewer.set</text>
<text text-anchor="middle" x="126.5" y="-7.5" font-family="Helvetica,sans-Serif" font-size="10.00">_image_plane_range_from_evalue_panel_region</text>
</a>
</g>
</g>
<!-- Node1&#45;&gt;Node3 -->
<g id="edge2" class="edge">
<title>Node1&#45;&gt;Node3</title>
<path fill="none" stroke="midnightblue" d="M278.79,-38.22C270.26,-37.25 261.61,-36.27 253.01,-35.29"/>
<polygon fill="midnightblue" stroke="midnightblue" points="278.42,-41.7 288.75,-39.36 279.21,-34.75 278.42,-41.7"/>
</g>
</g>
</svg>
