<?xml version="1.0" encoding="UTF-8" standalone="no"?>
<!DOCTYPE svg PUBLIC "-//W3C//DTD SVG 1.1//EN"
 "http://www.w3.org/Graphics/SVG/1.1/DTD/svg11.dtd">
<!-- Generated by graphviz version 2.43.0 (0)
 -->
<!-- Title: aopp_deconv_tool.graphical_frontends.ssa_filtering.SSAViewer.set_data Pages: 1 -->
<svg width="793pt" height="179pt"
 viewBox="0.00 0.00 793.00 178.50" xmlns="http://www.w3.org/2000/svg" xmlns:xlink="http://www.w3.org/1999/xlink">
<g id="graph0" class="graph" transform="scale(1 1) rotate(0) translate(4 174.5)">
<title>aopp_deconv_tool.graphical_frontends.ssa_filtering.SSAViewer.set_data</title>
<!-- Node1 -->
<g id="node1" class="node">
<title>Node1</title>
<g id="a_node1"><a xlink:title=" ">
<polygon fill="#bfbfbf" stroke="black" points="552,-49.5 552,-79.5 785,-79.5 785,-49.5 552,-49.5"/>
<text text-anchor="start" x="560" y="-67.5" font-family="Helvetica,sans-Serif" font-size="10.00">aopp_deconv_tool.graphical</text>
<text text-anchor="middle" x="668.5" y="-56.5" font-family="Helvetica,sans-Serif" font-size="10.00">_frontends.ssa_filtering.SSAViewer.set_data</text>
</a>
</g>
</g>
<!-- Node2 -->
<g id="node2" class="node">
<title>Node2</title>
<g id="a_node2"><a xlink:href="../../dd/d48/classaopp__deconv__tool_1_1graphical__frontends_1_1ssa__filtering_1_1SSAViewer.html#aec62019447fbc16f782b08d35cbba980" target="_top" xlink:title=" ">
<polygon fill="none" stroke="black" points="299.5,-99 299.5,-140 505.5,-140 505.5,-99 299.5,-99"/>
<text text-anchor="start" x="307.5" y="-128" font-family="Helvetica,sans-Serif" font-size="10.00">aopp_deconv_tool.graphical</text>
<text text-anchor="start" x="307.5" y="-117" font-family="Helvetica,sans-Serif" font-size="10.00">_frontends.ssa_filtering.SSAViewer.set</text>
<text text-anchor="middle" x="402.5" y="-106" font-family="Helvetica,sans-Serif" font-size="10.00">_residual_data</text>
</a>
</g>
</g>
<!-- Node1&#45;&gt;Node2 -->
<g id="edge1" class="edge">
<title>Node1&#45;&gt;Node2</title>
<path fill="none" stroke="midnightblue" d="M585.43,-81.6C559.1,-87.08 529.67,-93.22 502.27,-98.92"/>
<polygon fill="midnightblue" stroke="midnightblue" points="586.28,-85 595.36,-79.53 584.86,-78.14 586.28,-85"/>
</g>
<!-- Node5 -->
<g id="node5" class="node">
<title>Node5</title>
<g id="a_node5"><a xlink:href="../../d6/d1d/classaopp__deconv__tool_1_1graphical__frontends_1_1ssa__filtering_1_1ImageViewer.html#adb6b1efe24b9e6e6558ef0ba9416079d" target="_top" xlink:title=" ">
<polygon fill="none" stroke="black" points="289,-49.5 289,-79.5 516,-79.5 516,-49.5 289,-49.5"/>
<text text-anchor="start" x="297" y="-67.5" font-family="Helvetica,sans-Serif" font-size="10.00">aopp_deconv_tool.graphical</text>
<text text-anchor="middle" x="402.5" y="-56.5" font-family="Helvetica,sans-Serif" font-size="10.00">_frontends.ssa_filtering.ImageViewer.show</text>
</a>
</g>
</g>
<!-- Node1&#45;&gt;Node5 -->
<g id="edge4" class="edge">
<title>Node1&#45;&gt;Node5</title>
<path fill="none" stroke="midnightblue" d="M541.46,-64.5C533.04,-64.5 524.58,-64.5 516.24,-64.5"/>
<polygon fill="midnightblue" stroke="midnightblue" points="541.71,-68 551.71,-64.5 541.71,-61 541.71,-68"/>
</g>
<!-- Node6 -->
<g id="node6" class="node">
<title>Node6</title>
<g id="a_node6"><a xlink:href="../../dd/d48/classaopp__deconv__tool_1_1graphical__frontends_1_1ssa__filtering_1_1SSAViewer.html#a7507dee8ce74c985371256e8a870dfab" target="_top" xlink:title=" ">
<polygon fill="none" stroke="black" points="294.5,-0.5 294.5,-30.5 510.5,-30.5 510.5,-0.5 294.5,-0.5"/>
<text text-anchor="start" x="302.5" y="-18.5" font-family="Helvetica,sans-Serif" font-size="10.00">aopp_deconv_tool.graphical</text>
<text text-anchor="middle" x="402.5" y="-7.5" font-family="Helvetica,sans-Serif" font-size="10.00">_frontends.ssa_filtering.SSAViewer.show</text>
</a>
</g>
</g>
<!-- Node1&#45;&gt;Node6 -->
<g id="edge5" class="edge">
<title>Node1&#45;&gt;Node6</title>
<path fill="none" stroke="midnightblue" d="M576.47,-47.61C546.54,-42.05 513.48,-35.91 484.35,-30.51"/>
<polygon fill="midnightblue" stroke="midnightblue" points="576.03,-51.08 586.5,-49.47 577.3,-44.2 576.03,-51.08"/>
</g>
<!-- Node3 -->
<g id="node3" class="node">
<title>Node3</title>
<g id="a_node3"><a xlink:href="../../dd/d48/classaopp__deconv__tool_1_1graphical__frontends_1_1ssa__filtering_1_1SSAViewer.html#ab811d5ac9685634589aaa0f91cb17f9d" target="_top" xlink:title=" ">
<polygon fill="none" stroke="black" points="23.5,-129 23.5,-170 229.5,-170 229.5,-129 23.5,-129"/>
<text text-anchor="start" x="31.5" y="-158" font-family="Helvetica,sans-Serif" font-size="10.00">aopp_deconv_tool.graphical</text>
<text text-anchor="start" x="31.5" y="-147" font-family="Helvetica,sans-Serif" font-size="10.00">_frontends.ssa_filtering.SSAViewer.set</text>
<text text-anchor="middle" x="126.5" y="-136" font-family="Helvetica,sans-Serif" font-size="10.00">_image_plane_range_from_aggregator</text>
</a>
</g>
</g>
<!-- Node2&#45;&gt;Node3 -->
<g id="edge2" class="edge">
<title>Node2&#45;&gt;Node3</title>
<path fill="none" stroke="midnightblue" d="M289.5,-131.76C269.68,-133.93 249.14,-136.18 229.61,-138.32"/>
<polygon fill="midnightblue" stroke="midnightblue" points="289.91,-135.24 299.47,-130.67 289.15,-128.28 289.91,-135.24"/>
</g>
<!-- Node4 -->
<g id="node4" class="node">
<title>Node4</title>
<g id="a_node4"><a xlink:href="../../dd/d48/classaopp__deconv__tool_1_1graphical__frontends_1_1ssa__filtering_1_1SSAViewer.html#a36c8afce98bc966aa88d1c9c680efff2" target="_top" xlink:title=" ">
<polygon fill="none" stroke="black" points="0,-69 0,-110 253,-110 253,-69 0,-69"/>
<text text-anchor="start" x="8" y="-98" font-family="Helvetica,sans-Serif" font-size="10.00">aopp_deconv_tool.graphical</text>
<text text-anchor="start" x="8" y="-87" font-family="Helvetica,sans-Serif" font-size="10.00">_frontends.ssa_filtering.SSAViewer.set</text>
<text text-anchor="middle" x="126.5" y="-76" font-family="Helvetica,sans-Serif" font-size="10.00">_image_plane_range_from_evalue_panel_region</text>
</a>
</g>
</g>
<!-- Node2&#45;&gt;Node4 -->
<g id="edge3" class="edge">
<title>Node2&#45;&gt;Node4</title>
<path fill="none" stroke="midnightblue" d="M289.51,-107.24C277.56,-105.93 265.36,-104.59 253.27,-103.27"/>
<polygon fill="midnightblue" stroke="midnightblue" points="289.15,-110.72 299.47,-108.33 289.91,-103.76 289.15,-110.72"/>
</g>
</g>
</svg>
