<?xml version="1.0" encoding="UTF-8" standalone="no"?>
<!DOCTYPE svg PUBLIC "-//W3C//DTD SVG 1.1//EN"
 "http://www.w3.org/Graphics/SVG/1.1/DTD/svg11.dtd">
<!-- Generated by graphviz version 2.43.0 (0)
 -->
<!-- Title: aopp_deconv_tool.graphical_frontends.ssa_filtering.SSAViewer.set_data Pages: 1 -->
<svg width="789pt" height="175pt"
 viewBox="0.00 0.00 789.00 174.50" xmlns="http://www.w3.org/2000/svg" xmlns:xlink="http://www.w3.org/1999/xlink">
<g id="graph0" class="graph" transform="scale(1 1) rotate(0) translate(4 170.5)">
<title>aopp_deconv_tool.graphical_frontends.ssa_filtering.SSAViewer.set_data</title>
<!-- Node1 -->
<g id="Node000001" class="node">
<title>Node1</title>
<g id="a_Node000001"><a xlink:title=" ">
<polygon fill="#999999" stroke="#666666" points="781,-78 551,-78 551,-48 781,-48 781,-78"/>
<text text-anchor="start" x="559" y="-66" font-family="Helvetica,sans-Serif" font-size="10.00">aopp_deconv_tool.graphical</text>
<text text-anchor="middle" x="666" y="-55" font-family="Helvetica,sans-Serif" font-size="10.00">_frontends.ssa_filtering.SSAViewer.set_data</text>
</a>
</g>
</g>
<!-- Node1&#45;&gt;Node1 -->
<g id="edge1_Node000001_Node000001" class="edge">
<title>Node1&#45;&gt;Node1</title>
<g id="a_edge1_Node000001_Node000001"><a xlink:title=" ">
<path fill="none" stroke="#63b8ff" d="M712.21,-88.6C705.9,-92.97 690.49,-96 666,-96 624.75,-96 609.28,-87.41 619.59,-78.28"/>
<polygon fill="#63b8ff" stroke="#63b8ff" points="715.72,-88.34 712.41,-78.28 708.72,-88.21 715.72,-88.34"/>
</a>
</g>
</g>
<!-- Node2 -->
<g id="Node000002" class="node">
<title>Node2</title>
<g id="a_Node000002"><a xlink:href="../../dd/d48/classaopp__deconv__tool_1_1graphical__frontends_1_1ssa__filtering_1_1SSAViewer.html#a4f1db2c1933153633875d158080fd879" target="_top" xlink:title=" ">
<polygon fill="white" stroke="#666666" points="503.5,-137.5 300.5,-137.5 300.5,-96.5 503.5,-96.5 503.5,-137.5"/>
<text text-anchor="start" x="308.5" y="-125.5" font-family="Helvetica,sans-Serif" font-size="10.00">aopp_deconv_tool.graphical</text>
<text text-anchor="start" x="308.5" y="-114.5" font-family="Helvetica,sans-Serif" font-size="10.00">_frontends.ssa_filtering.SSAViewer.set</text>
<text text-anchor="middle" x="402" y="-103.5" font-family="Helvetica,sans-Serif" font-size="10.00">_residual_data</text>
</a>
</g>
</g>
<!-- Node1&#45;&gt;Node2 -->
<g id="edge2_Node000001_Node000002" class="edge">
<title>Node1&#45;&gt;Node2</title>
<g id="a_edge2_Node000001_Node000002"><a xlink:title=" ">
<path fill="none" stroke="#63b8ff" d="M582.11,-80.08C556.83,-85.29 528.78,-91.08 502.52,-96.49"/>
<polygon fill="#63b8ff" stroke="#63b8ff" points="582.93,-83.49 592.02,-78.04 581.52,-76.63 582.93,-83.49"/>
</a>
</g>
</g>
<!-- Node5 -->
<g id="Node000005" class="node">
<title>Node5</title>
<g id="a_Node000005"><a xlink:href="../../d6/d1d/classaopp__deconv__tool_1_1graphical__frontends_1_1ssa__filtering_1_1ImageViewer.html#a3a362bcec191790684ab2d054db8042f" target="_top" xlink:title=" ">
<polygon fill="white" stroke="#666666" points="515,-78 289,-78 289,-48 515,-48 515,-78"/>
<text text-anchor="start" x="297" y="-66" font-family="Helvetica,sans-Serif" font-size="10.00">aopp_deconv_tool.graphical</text>
<text text-anchor="middle" x="402" y="-55" font-family="Helvetica,sans-Serif" font-size="10.00">_frontends.ssa_filtering.ImageViewer.show</text>
</a>
</g>
</g>
<!-- Node1&#45;&gt;Node5 -->
<g id="edge5_Node000001_Node000005" class="edge">
<title>Node1&#45;&gt;Node5</title>
<g id="a_edge5_Node000001_Node000005"><a xlink:title=" ">
<path fill="none" stroke="#63b8ff" d="M540.8,-63C532.23,-63 523.61,-63 515.1,-63"/>
<polygon fill="#63b8ff" stroke="#63b8ff" points="540.85,-66.5 550.85,-63 540.85,-59.5 540.85,-66.5"/>
</a>
</g>
</g>
<!-- Node6 -->
<g id="Node000006" class="node">
<title>Node6</title>
<g id="a_Node000006"><a xlink:href="../../dd/d48/classaopp__deconv__tool_1_1graphical__frontends_1_1ssa__filtering_1_1SSAViewer.html#aa5805401ffe03e9fed4dc9e4ee3c745e" target="_top" xlink:title=" ">
<polygon fill="white" stroke="#666666" points="509,-30 295,-30 295,0 509,0 509,-30"/>
<text text-anchor="start" x="303" y="-18" font-family="Helvetica,sans-Serif" font-size="10.00">aopp_deconv_tool.graphical</text>
<text text-anchor="middle" x="402" y="-7" font-family="Helvetica,sans-Serif" font-size="10.00">_frontends.ssa_filtering.SSAViewer.show</text>
</a>
</g>
</g>
<!-- Node1&#45;&gt;Node6 -->
<g id="edge6_Node000001_Node000006" class="edge">
<title>Node1&#45;&gt;Node6</title>
<g id="a_edge6_Node000001_Node000006"><a xlink:title=" ">
<path fill="none" stroke="#63b8ff" d="M572.81,-46.11C544.16,-40.86 512.79,-35.11 484.89,-30"/>
<polygon fill="#63b8ff" stroke="#63b8ff" points="572.35,-49.58 582.82,-47.94 573.61,-42.7 572.35,-49.58"/>
</a>
</g>
</g>
<!-- Node3 -->
<g id="Node000003" class="node">
<title>Node3</title>
<g id="a_Node000003"><a xlink:href="../../dd/d48/classaopp__deconv__tool_1_1graphical__frontends_1_1ssa__filtering_1_1SSAViewer.html#add57887bb2a4187c49fe64b654c2ce52" target="_top" xlink:title=" ">
<polygon fill="white" stroke="#666666" points="229,-166.5 24,-166.5 24,-125.5 229,-125.5 229,-166.5"/>
<text text-anchor="start" x="32" y="-154.5" font-family="Helvetica,sans-Serif" font-size="10.00">aopp_deconv_tool.graphical</text>
<text text-anchor="start" x="32" y="-143.5" font-family="Helvetica,sans-Serif" font-size="10.00">_frontends.ssa_filtering.SSAViewer.set</text>
<text text-anchor="middle" x="126.5" y="-132.5" font-family="Helvetica,sans-Serif" font-size="10.00">_image_plane_range_from_aggregator</text>
</a>
</g>
</g>
<!-- Node2&#45;&gt;Node3 -->
<g id="edge3_Node000002_Node000003" class="edge">
<title>Node2&#45;&gt;Node3</title>
<g id="a_edge3_Node000002_Node000003"><a xlink:title=" ">
<path fill="none" stroke="#63b8ff" d="M290.2,-128.75C270.08,-130.88 249.18,-133.1 229.34,-135.2"/>
<polygon fill="#63b8ff" stroke="#63b8ff" points="290.75,-132.21 300.32,-127.67 290.01,-125.25 290.75,-132.21"/>
</a>
</g>
</g>
<!-- Node4 -->
<g id="Node000004" class="node">
<title>Node4</title>
<g id="a_Node000004"><a xlink:href="../../dd/d48/classaopp__deconv__tool_1_1graphical__frontends_1_1ssa__filtering_1_1SSAViewer.html#af20faf3c5bc20d839e6c504f12a76abf" target="_top" xlink:title=" ">
<polygon fill="white" stroke="#666666" points="253,-107.5 0,-107.5 0,-66.5 253,-66.5 253,-107.5"/>
<text text-anchor="start" x="8" y="-95.5" font-family="Helvetica,sans-Serif" font-size="10.00">aopp_deconv_tool.graphical</text>
<text text-anchor="start" x="8" y="-84.5" font-family="Helvetica,sans-Serif" font-size="10.00">_frontends.ssa_filtering.SSAViewer.set</text>
<text text-anchor="middle" x="126.5" y="-73.5" font-family="Helvetica,sans-Serif" font-size="10.00">_image_plane_range_from_evalue_panel_region</text>
</a>
</g>
</g>
<!-- Node2&#45;&gt;Node4 -->
<g id="edge4_Node000002_Node000004" class="edge">
<title>Node2&#45;&gt;Node4</title>
<g id="a_edge4_Node000002_Node000004"><a xlink:title=" ">
<path fill="none" stroke="#63b8ff" d="M290.14,-104.84C277.93,-103.5 265.44,-102.13 253.06,-100.77"/>
<polygon fill="#63b8ff" stroke="#63b8ff" points="290,-108.35 300.32,-105.96 290.77,-101.39 290,-108.35"/>
</a>
</g>
</g>
</g>
</svg>
