<?xml version="1.0" encoding="UTF-8" standalone="no"?>
<!DOCTYPE svg PUBLIC "-//W3C//DTD SVG 1.1//EN"
 "http://www.w3.org/Graphics/SVG/1.1/DTD/svg11.dtd">
<!-- Generated by graphviz version 2.43.0 (0)
 -->
<!-- Title: aopp_deconv_tool.graphical_frontends.ssa_filtering.SSAViewer.show Pages: 1 -->
<svg width="973pt" height="678pt"
 viewBox="0.00 0.00 973.00 677.50" xmlns="http://www.w3.org/2000/svg" xmlns:xlink="http://www.w3.org/1999/xlink">
<g id="graph0" class="graph" transform="scale(1 1) rotate(0) translate(4 673.5)">
<title>aopp_deconv_tool.graphical_frontends.ssa_filtering.SSAViewer.show</title>
<!-- Node1 -->
<g id="Node000001" class="node">
<title>Node1</title>
<g id="a_Node000001"><a xlink:title=" ">
<polygon fill="#999999" stroke="#666666" points="214,-241.5 0,-241.5 0,-211.5 214,-211.5 214,-241.5"/>
<text text-anchor="start" x="8" y="-229.5" font-family="Helvetica,sans-Serif" font-size="10.00">aopp_deconv_tool.graphical</text>
<text text-anchor="middle" x="107" y="-218.5" font-family="Helvetica,sans-Serif" font-size="10.00">_frontends.ssa_filtering.SSAViewer.show</text>
</a>
</g>
</g>
<!-- Node2 -->
<g id="Node000002" class="node">
<title>Node2</title>
<g id="a_Node000002"><a xlink:href="../../db/dd6/classaopp__deconv__tool_1_1graphical__frontends_1_1ssa__filtering_1_1ImagePlot.html#aa2bda605c014c2b3193e8c4db3e4ecfb" target="_top" xlink:title=" ">
<polygon fill="white" stroke="#666666" points="495.5,-436.5 267.5,-436.5 267.5,-406.5 495.5,-406.5 495.5,-436.5"/>
<text text-anchor="start" x="275.5" y="-424.5" font-family="Helvetica,sans-Serif" font-size="10.00">aopp_deconv_tool.graphical</text>
<text text-anchor="middle" x="381.5" y="-413.5" font-family="Helvetica,sans-Serif" font-size="10.00">_frontends.ssa_filtering.ImagePlot.set_data</text>
</a>
</g>
</g>
<!-- Node1&#45;&gt;Node2 -->
<g id="edge1_Node000001_Node000002" class="edge">
<title>Node1&#45;&gt;Node2</title>
<g id="a_edge1_Node000001_Node000002"><a xlink:title=" ">
<path fill="none" stroke="#63b8ff" d="M118.19,-241.96C139.2,-272.64 190.39,-341.54 250,-379.5 265.67,-389.48 283.91,-397.27 301.71,-403.29"/>
<polygon fill="#63b8ff" stroke="#63b8ff" points="300.93,-406.72 311.53,-406.46 303.08,-400.06 300.93,-406.72"/>
</a>
</g>
</g>
<!-- Node12 -->
<g id="Node000012" class="node">
<title>Node12</title>
<g id="a_Node000012"><a xlink:href="../../d1/d4b/classaopp__deconv__tool_1_1graphical__frontends_1_1ssa__filtering_1_1LinePlot.html#abbc55db75bf504c9785025cd364e77bf" target="_top" xlink:title=" ">
<polygon fill="white" stroke="#666666" points="490.5,-370.5 272.5,-370.5 272.5,-340.5 490.5,-340.5 490.5,-370.5"/>
<text text-anchor="start" x="280.5" y="-358.5" font-family="Helvetica,sans-Serif" font-size="10.00">aopp_deconv_tool.graphical</text>
<text text-anchor="middle" x="381.5" y="-347.5" font-family="Helvetica,sans-Serif" font-size="10.00">_frontends.ssa_filtering.LinePlot.set_data</text>
</a>
</g>
</g>
<!-- Node1&#45;&gt;Node12 -->
<g id="edge14_Node000001_Node000012" class="edge">
<title>Node1&#45;&gt;Node12</title>
<g id="a_edge14_Node000001_Node000012"><a xlink:title=" ">
<path fill="none" stroke="#63b8ff" d="M126.05,-241.78C151.89,-262.89 201.66,-300.85 250,-322.5 263.34,-328.48 277.96,-333.5 292.43,-337.69"/>
<polygon fill="#63b8ff" stroke="#63b8ff" points="291.83,-341.15 302.4,-340.45 293.7,-334.41 291.83,-341.15"/>
</a>
</g>
</g>
<!-- Node15 -->
<g id="Node000015" class="node">
<title>Node15</title>
<g id="a_Node000015"><a xlink:href="../../da/d4f/classaopp__deconv__tool_1_1graphical__frontends_1_1ssa__filtering_1_1BasePanel.html#a78f7dd10deeb03c20bb18bf3c9e44fef" target="_top" xlink:title=" ">
<polygon fill="white" stroke="#666666" points="496,-313.5 267,-313.5 267,-283.5 496,-283.5 496,-313.5"/>
<text text-anchor="start" x="275" y="-301.5" font-family="Helvetica,sans-Serif" font-size="10.00">aopp_deconv_tool.graphical</text>
<text text-anchor="middle" x="381.5" y="-290.5" font-family="Helvetica,sans-Serif" font-size="10.00">_frontends.ssa_filtering.BasePanel.set_data</text>
</a>
</g>
</g>
<!-- Node1&#45;&gt;Node15 -->
<g id="edge25_Node000001_Node000015" class="edge">
<title>Node1&#45;&gt;Node15</title>
<g id="a_edge25_Node000001_Node000015"><a xlink:title=" ">
<path fill="none" stroke="#63b8ff" d="M147.63,-241.61C175.85,-251.95 214.86,-265.38 250,-274.5 259.45,-276.95 269.34,-279.25 279.28,-281.38"/>
<polygon fill="#63b8ff" stroke="#63b8ff" points="278.71,-284.83 289.22,-283.45 280.14,-277.98 278.71,-284.83"/>
</a>
</g>
</g>
<!-- Node16 -->
<g id="Node000016" class="node">
<title>Node16</title>
<g id="a_Node000016"><a xlink:href="../../df/dfb/classaopp__deconv__tool_1_1graphical__frontends_1_1ssa__filtering_1_1LineRegionPanel.html#a9fafeaf58f51f9abf5d0604304e30788" target="_top" xlink:title=" ">
<polygon fill="white" stroke="#666666" points="475.5,-247 287.5,-247 287.5,-206 475.5,-206 475.5,-247"/>
<text text-anchor="start" x="295.5" y="-235" font-family="Helvetica,sans-Serif" font-size="10.00">aopp_deconv_tool.graphical</text>
<text text-anchor="start" x="295.5" y="-224" font-family="Helvetica,sans-Serif" font-size="10.00">_frontends.ssa_filtering.LineRegion</text>
<text text-anchor="middle" x="381.5" y="-213" font-family="Helvetica,sans-Serif" font-size="10.00">Panel.set_data</text>
</a>
</g>
</g>
<!-- Node1&#45;&gt;Node16 -->
<g id="edge26_Node000001_Node000016" class="edge">
<title>Node1&#45;&gt;Node16</title>
<g id="a_edge26_Node000001_Node000016"><a xlink:title=" ">
<path fill="none" stroke="#63b8ff" d="M214.14,-226.5C234.81,-226.5 256.46,-226.5 277.05,-226.5"/>
<polygon fill="#63b8ff" stroke="#63b8ff" points="277.06,-230 287.06,-226.5 277.06,-223 277.06,-230"/>
</a>
</g>
</g>
<!-- Node17 -->
<g id="Node000017" class="node">
<title>Node17</title>
<g id="a_Node000017"><a xlink:href="../../dd/d48/classaopp__deconv__tool_1_1graphical__frontends_1_1ssa__filtering_1_1SSAViewer.html#a601c497b93258af65a9b85bc6c9b89f8" target="_top" xlink:title=" ">
<polygon fill="white" stroke="#666666" points="496.5,-169.5 266.5,-169.5 266.5,-139.5 496.5,-139.5 496.5,-169.5"/>
<text text-anchor="start" x="274.5" y="-157.5" font-family="Helvetica,sans-Serif" font-size="10.00">aopp_deconv_tool.graphical</text>
<text text-anchor="middle" x="381.5" y="-146.5" font-family="Helvetica,sans-Serif" font-size="10.00">_frontends.ssa_filtering.SSAViewer.set_data</text>
</a>
</g>
</g>
<!-- Node1&#45;&gt;Node17 -->
<g id="edge28_Node000001_Node000017" class="edge">
<title>Node1&#45;&gt;Node17</title>
<g id="a_edge28_Node000001_Node000017"><a xlink:title=" ">
<path fill="none" stroke="#63b8ff" d="M164.79,-211.49C208.1,-200.05 267.86,-184.26 313.5,-172.2"/>
<polygon fill="#63b8ff" stroke="#63b8ff" points="314.54,-175.55 323.31,-169.61 312.75,-168.78 314.54,-175.55"/>
</a>
</g>
</g>
<!-- Node18 -->
<g id="Node000018" class="node">
<title>Node18</title>
<g id="a_Node000018"><a xlink:href="../../d6/d1d/classaopp__deconv__tool_1_1graphical__frontends_1_1ssa__filtering_1_1ImageViewer.html#a928f59c859e6fa028dc5fbf1fa706baf" target="_top" xlink:title=" ">
<polygon fill="white" stroke="#666666" points="502.5,-98.5 260.5,-98.5 260.5,-68.5 502.5,-68.5 502.5,-98.5"/>
<text text-anchor="start" x="268.5" y="-86.5" font-family="Helvetica,sans-Serif" font-size="10.00">aopp_deconv_tool.graphical</text>
<text text-anchor="middle" x="381.5" y="-75.5" font-family="Helvetica,sans-Serif" font-size="10.00">_frontends.ssa_filtering.ImageViewer.set_data</text>
</a>
</g>
</g>
<!-- Node1&#45;&gt;Node18 -->
<g id="edge30_Node000001_Node000018" class="edge">
<title>Node1&#45;&gt;Node18</title>
<g id="a_edge30_Node000001_Node000018"><a xlink:title=" ">
<path fill="none" stroke="#63b8ff" d="M127.25,-211.18C153.7,-190.7 203.31,-154.22 250,-130.5 272.07,-119.29 297.45,-109.5 319.93,-101.81"/>
<polygon fill="#63b8ff" stroke="#63b8ff" points="321.34,-105.03 329.7,-98.53 319.11,-98.39 321.34,-105.03"/>
</a>
</g>
</g>
<!-- Node21 -->
<g id="Node000021" class="node">
<title>Node21</title>
<g id="a_Node000021"><a xlink:href="../../d8/dd5/classaopp__deconv__tool_1_1graphical__frontends_1_1ssa__filtering_1_1ImageAggregator.html#afd37fadb2ce7e1ee7ad84ec2d8ba85cd" target="_top" xlink:title=" ">
<polygon fill="white" stroke="#666666" points="513,-32.5 250,-32.5 250,-2.5 513,-2.5 513,-32.5"/>
<text text-anchor="start" x="258" y="-20.5" font-family="Helvetica,sans-Serif" font-size="10.00">aopp_deconv_tool.graphical</text>
<text text-anchor="middle" x="381.5" y="-9.5" font-family="Helvetica,sans-Serif" font-size="10.00">_frontends.ssa_filtering.ImageAggregator.set_data</text>
</a>
</g>
</g>
<!-- Node1&#45;&gt;Node21 -->
<g id="edge34_Node000001_Node000021" class="edge">
<title>Node1&#45;&gt;Node21</title>
<g id="a_edge34_Node000001_Node000021"><a xlink:title=" ">
<path fill="none" stroke="#63b8ff" d="M116.91,-211.11C136.66,-178.36 187.33,-101.35 250,-59.5 265.03,-49.46 282.63,-41.69 299.94,-35.71"/>
<polygon fill="#63b8ff" stroke="#63b8ff" points="301.11,-39.01 309.52,-32.57 298.93,-32.36 301.11,-39.01"/>
</a>
</g>
</g>
<!-- Node3 -->
<g id="Node000003" class="node">
<title>Node3</title>
<g id="a_Node000003"><a xlink:href="../../db/dd6/classaopp__deconv__tool_1_1graphical__frontends_1_1ssa__filtering_1_1ImagePlot.html#acda8236fbaf8ab2a3d65ad9042849a25" target="_top" xlink:title=" ">
<polygon fill="white" stroke="#666666" points="771.5,-573 577.5,-573 577.5,-532 771.5,-532 771.5,-573"/>
<text text-anchor="start" x="585.5" y="-561" font-family="Helvetica,sans-Serif" font-size="10.00">aopp_deconv_tool.graphical</text>
<text text-anchor="start" x="585.5" y="-550" font-family="Helvetica,sans-Serif" font-size="10.00">_frontends.ssa_filtering.ImagePlot.is</text>
<text text-anchor="middle" x="674.5" y="-539" font-family="Helvetica,sans-Serif" font-size="10.00">_new_data_compatible</text>
</a>
</g>
</g>
<!-- Node2&#45;&gt;Node3 -->
<g id="edge2_Node000002_Node000003" class="edge">
<title>Node2&#45;&gt;Node3</title>
<g id="a_edge2_Node000002_Node000003"><a xlink:title=" ">
<path fill="none" stroke="#63b8ff" d="M402.38,-436.64C432.51,-458.87 492.23,-500.22 549,-523.5 554.93,-525.93 561.1,-528.18 567.4,-530.27"/>
<polygon fill="#63b8ff" stroke="#63b8ff" points="566.77,-533.74 577.36,-533.4 568.87,-527.06 566.77,-533.74"/>
</a>
</g>
</g>
<!-- Node4 -->
<g id="Node000004" class="node">
<title>Node4</title>
<g id="a_Node000004"><a xlink:href="../../d1/d4b/classaopp__deconv__tool_1_1graphical__frontends_1_1ssa__filtering_1_1LinePlot.html#a012d15fe4bdccdd70a661ffddfadb5a5" target="_top" xlink:title=" ">
<polygon fill="white" stroke="#666666" points="766.5,-514 582.5,-514 582.5,-473 766.5,-473 766.5,-514"/>
<text text-anchor="start" x="590.5" y="-502" font-family="Helvetica,sans-Serif" font-size="10.00">aopp_deconv_tool.graphical</text>
<text text-anchor="start" x="590.5" y="-491" font-family="Helvetica,sans-Serif" font-size="10.00">_frontends.ssa_filtering.LinePlot.is</text>
<text text-anchor="middle" x="674.5" y="-480" font-family="Helvetica,sans-Serif" font-size="10.00">_new_data_compatible</text>
</a>
</g>
</g>
<!-- Node2&#45;&gt;Node4 -->
<g id="edge3_Node000002_Node000004" class="edge">
<title>Node2&#45;&gt;Node4</title>
<g id="a_edge3_Node000002_Node000004"><a xlink:title=" ">
<path fill="none" stroke="#63b8ff" d="M441.41,-436.52C473.25,-444.6 513.25,-454.68 549,-463.5 558.39,-465.82 568.18,-468.21 577.97,-470.59"/>
<polygon fill="#63b8ff" stroke="#63b8ff" points="577.2,-474.01 587.75,-472.96 578.85,-467.2 577.2,-474.01"/>
</a>
</g>
</g>
<!-- Node5 -->
<g id="Node000005" class="node">
<title>Node5</title>
<g id="a_Node000005"><a xlink:href="../../d7/d1a/classaopp__deconv__tool_1_1graphical__frontends_1_1ssa__filtering_1_1BasePlot.html#ac5b6b4a92ca9aa6a96cea9d16217b831" target="_top" xlink:title=" ">
<polygon fill="white" stroke="#666666" points="783,-436.5 566,-436.5 566,-406.5 783,-406.5 783,-436.5"/>
<text text-anchor="start" x="574" y="-424.5" font-family="Helvetica,sans-Serif" font-size="10.00">aopp_deconv_tool.graphical</text>
<text text-anchor="middle" x="674.5" y="-413.5" font-family="Helvetica,sans-Serif" font-size="10.00">_frontends.ssa_filtering.BasePlot.remove</text>
</a>
</g>
</g>
<!-- Node2&#45;&gt;Node5 -->
<g id="edge4_Node000002_Node000005" class="edge">
<title>Node2&#45;&gt;Node5</title>
<g id="a_edge4_Node000002_Node000005"><a xlink:title=" ">
<path fill="none" stroke="#63b8ff" d="M495.84,-421.5C515.41,-421.5 535.8,-421.5 555.49,-421.5"/>
<polygon fill="#63b8ff" stroke="#63b8ff" points="555.71,-425 565.71,-421.5 555.71,-418 555.71,-425"/>
</a>
</g>
</g>
<!-- Node6 -->
<g id="Node000006" class="node">
<title>Node6</title>
<g id="a_Node000006"><a xlink:href="../../db/dd6/classaopp__deconv__tool_1_1graphical__frontends_1_1ssa__filtering_1_1ImagePlot.html#ac6cf2549f230815f44eabb01fefe2a69" target="_top" xlink:title=" ">
<polygon fill="white" stroke="#666666" points="786.5,-370.5 562.5,-370.5 562.5,-340.5 786.5,-340.5 786.5,-370.5"/>
<text text-anchor="start" x="570.5" y="-358.5" font-family="Helvetica,sans-Serif" font-size="10.00">aopp_deconv_tool.graphical</text>
<text text-anchor="middle" x="674.5" y="-347.5" font-family="Helvetica,sans-Serif" font-size="10.00">_frontends.ssa_filtering.ImagePlot.remove</text>
</a>
</g>
</g>
<!-- Node2&#45;&gt;Node6 -->
<g id="edge6_Node000002_Node000006" class="edge">
<title>Node2&#45;&gt;Node6</title>
<g id="a_edge6_Node000002_Node000006"><a xlink:title=" ">
<path fill="none" stroke="#63b8ff" d="M448.9,-406.44C493.05,-396.43 551.15,-383.25 597.21,-372.8"/>
<polygon fill="#63b8ff" stroke="#63b8ff" points="598.16,-376.18 607.14,-370.55 596.61,-369.35 598.16,-376.18"/>
</a>
</g>
</g>
<!-- Node7 -->
<g id="Node000007" class="node">
<title>Node7</title>
<g id="a_Node000007"><a xlink:href="../../da/d39/classaopp__deconv__tool_1_1graphical__frontends_1_1ssa__filtering_1_1WidgetBase.html#af6aef2730715bf5f18f8ecd23dc615dc" target="_top" xlink:title=" ">
<polygon fill="white" stroke="#666666" points="758.5,-304 590.5,-304 590.5,-263 758.5,-263 758.5,-304"/>
<text text-anchor="start" x="598.5" y="-292" font-family="Helvetica,sans-Serif" font-size="10.00">aopp_deconv_tool.graphical</text>
<text text-anchor="start" x="598.5" y="-281" font-family="Helvetica,sans-Serif" font-size="10.00">_frontends.ssa_filtering.Widget</text>
<text text-anchor="middle" x="674.5" y="-270" font-family="Helvetica,sans-Serif" font-size="10.00">Base.remove</text>
</a>
</g>
</g>
<!-- Node2&#45;&gt;Node7 -->
<g id="edge8_Node000002_Node000007" class="edge">
<title>Node2&#45;&gt;Node7</title>
<g id="a_edge8_Node000002_Node000007"><a xlink:title=" ">
<path fill="none" stroke="#63b8ff" d="M455.98,-406.47C475.67,-400.22 496.14,-391.52 513,-379.5 534.71,-364.02 527.73,-347.59 549,-331.5 561.35,-322.16 575.74,-314.42 590.27,-308.09"/>
<polygon fill="#63b8ff" stroke="#63b8ff" points="591.91,-311.19 599.81,-304.13 589.23,-304.73 591.91,-311.19"/>
</a>
</g>
</g>
<!-- Node8 -->
<g id="Node000008" class="node">
<title>Node8</title>
<g id="a_Node000008"><a xlink:href="../../d6/da1/classaopp__deconv__tool_1_1task__strat_1_1TaskStratSet.html#a089f805d274ef3be0b64217e99ffed9d" target="_top" xlink:title=" ">
<polygon fill="white" stroke="#666666" points="749,-244.5 600,-244.5 600,-214.5 749,-214.5 749,-244.5"/>
<text text-anchor="start" x="608" y="-232.5" font-family="Helvetica,sans-Serif" font-size="10.00">aopp_deconv_tool.task</text>
<text text-anchor="middle" x="674.5" y="-221.5" font-family="Helvetica,sans-Serif" font-size="10.00">_strat.TaskStratSet.remove</text>
</a>
</g>
</g>
<!-- Node2&#45;&gt;Node8 -->
<g id="edge10_Node000002_Node000008" class="edge">
<title>Node2&#45;&gt;Node8</title>
<g id="a_edge10_Node000002_Node000008"><a xlink:title=" ">
<path fill="none" stroke="#63b8ff" d="M470.03,-406.41C485.96,-400.27 501.24,-391.63 513,-379.5 553.24,-337.99 506.47,-293.67 549,-254.5 560.37,-244.03 574.86,-237.41 589.9,-233.33"/>
<polygon fill="#63b8ff" stroke="#63b8ff" points="590.9,-236.69 599.84,-231 589.3,-229.88 590.9,-236.69"/>
</a>
</g>
</g>
<!-- Node10 -->
<g id="Node000010" class="node">
<title>Node10</title>
<g id="a_Node000010"><a xlink:href="../../db/dd6/classaopp__deconv__tool_1_1graphical__frontends_1_1ssa__filtering_1_1ImagePlot.html#aae07fedf2cff11e37b6496dfad51bb92" target="_top" xlink:title=" ">
<polygon fill="white" stroke="#666666" points="800,-669.5 549,-669.5 549,-639.5 800,-639.5 800,-669.5"/>
<text text-anchor="start" x="557" y="-657.5" font-family="Helvetica,sans-Serif" font-size="10.00">aopp_deconv_tool.graphical</text>
<text text-anchor="middle" x="674.5" y="-646.5" font-family="Helvetica,sans-Serif" font-size="10.00">_frontends.ssa_filtering.ImagePlot.sanitise_data</text>
</a>
</g>
</g>
<!-- Node2&#45;&gt;Node10 -->
<g id="edge12_Node000002_Node000010" class="edge">
<title>Node2&#45;&gt;Node10</title>
<g id="a_edge12_Node000002_Node000010"><a xlink:title=" ">
<path fill="none" stroke="#63b8ff" d="M389.72,-436.64C409.25,-475.84 467.24,-581.02 549,-630.5 551.82,-632.21 554.75,-633.8 557.74,-635.28"/>
<polygon fill="#63b8ff" stroke="#63b8ff" points="556.38,-638.51 566.94,-639.41 559.25,-632.12 556.38,-638.51"/>
</a>
</g>
</g>
<!-- Node11 -->
<g id="Node000011" class="node">
<title>Node11</title>
<g id="a_Node000011"><a xlink:href="../../d1/d4b/classaopp__deconv__tool_1_1graphical__frontends_1_1ssa__filtering_1_1LinePlot.html#ac35e5fa64883848195e0bf919d84b177" target="_top" xlink:title=" ">
<polygon fill="white" stroke="#666666" points="795,-621.5 554,-621.5 554,-591.5 795,-591.5 795,-621.5"/>
<text text-anchor="start" x="562" y="-609.5" font-family="Helvetica,sans-Serif" font-size="10.00">aopp_deconv_tool.graphical</text>
<text text-anchor="middle" x="674.5" y="-598.5" font-family="Helvetica,sans-Serif" font-size="10.00">_frontends.ssa_filtering.LinePlot.sanitise_data</text>
</a>
</g>
</g>
<!-- Node2&#45;&gt;Node11 -->
<g id="edge13_Node000002_Node000011" class="edge">
<title>Node2&#45;&gt;Node11</title>
<g id="a_edge13_Node000002_Node000011"><a xlink:title=" ">
<path fill="none" stroke="#63b8ff" d="M393.39,-436.89C417.39,-469.55 478.36,-545.77 549,-582.5 552.74,-584.44 556.61,-586.23 560.57,-587.87"/>
<polygon fill="#63b8ff" stroke="#63b8ff" points="559.39,-591.17 569.99,-591.45 561.88,-584.62 559.39,-591.17"/>
</a>
</g>
</g>
<!-- Node5&#45;&gt;Node5 -->
<g id="edge5_Node000005_Node000005" class="edge">
<title>Node5&#45;&gt;Node5</title>
<g id="a_edge5_Node000005_Node000005"><a xlink:title=" ">
<path fill="none" stroke="#63b8ff" d="M634.77,-436.78C625.95,-445.91 639.19,-454.5 674.5,-454.5 695.47,-454.5 708.65,-451.47 714.06,-447.1"/>
<polygon fill="#63b8ff" stroke="#63b8ff" points="717.56,-446.83 714.23,-436.78 710.56,-446.72 717.56,-446.83"/>
</a>
</g>
</g>
<!-- Node6&#45;&gt;Node6 -->
<g id="edge7_Node000006_Node000006" class="edge">
<title>Node6&#45;&gt;Node6</title>
<g id="a_edge7_Node000006_Node000006"><a xlink:title=" ">
<path fill="none" stroke="#63b8ff" d="M634.77,-370.78C625.95,-379.91 639.19,-388.5 674.5,-388.5 695.47,-388.5 708.65,-385.47 714.06,-381.1"/>
<polygon fill="#63b8ff" stroke="#63b8ff" points="717.56,-380.83 714.23,-370.78 710.56,-380.72 717.56,-380.83"/>
</a>
</g>
</g>
<!-- Node7&#45;&gt;Node7 -->
<g id="edge9_Node000007_Node000007" class="edge">
<title>Node7&#45;&gt;Node7</title>
<g id="a_edge9_Node000007_Node000007"><a xlink:title=" ">
<path fill="none" stroke="#63b8ff" d="M632.96,-304.1C628.43,-313.65 642.28,-322 674.5,-322 694.64,-322 707.6,-318.74 713.38,-313.96"/>
<polygon fill="#63b8ff" stroke="#63b8ff" points="716.82,-314.66 716.04,-304.1 710.06,-312.84 716.82,-314.66"/>
</a>
</g>
</g>
<!-- Node9 -->
<g id="Node000009" class="node">
<title>Node9</title>
<g id="a_Node000009"><a xlink:href="../../d6/da1/classaopp__deconv__tool_1_1task__strat_1_1TaskStratSet.html#a9c869a7fb815955cc1bb5666e5ebe08f" target="_top" xlink:title=" ">
<polygon fill="white" stroke="#666666" points="965,-250 836,-250 836,-209 965,-209 965,-250"/>
<text text-anchor="start" x="844" y="-238" font-family="Helvetica,sans-Serif" font-size="10.00">aopp_deconv_tool.task</text>
<text text-anchor="start" x="844" y="-227" font-family="Helvetica,sans-Serif" font-size="10.00">_strat.TaskStratSet.</text>
<text text-anchor="middle" x="900.5" y="-216" font-family="Helvetica,sans-Serif" font-size="10.00">_del_item</text>
</a>
</g>
</g>
<!-- Node8&#45;&gt;Node9 -->
<g id="edge11_Node000008_Node000009" class="edge">
<title>Node8&#45;&gt;Node9</title>
<g id="a_edge11_Node000008_Node000009"><a xlink:title=" ">
<path fill="none" stroke="#63b8ff" d="M749.16,-229.5C773.81,-229.5 801.29,-229.5 825.94,-229.5"/>
<polygon fill="#63b8ff" stroke="#63b8ff" points="825.95,-233 835.95,-229.5 825.95,-226 825.95,-233"/>
</a>
</g>
</g>
<!-- Node12&#45;&gt;Node3 -->
<g id="edge17_Node000012_Node000003" class="edge">
<title>Node12&#45;&gt;Node3</title>
<g id="a_edge17_Node000012_Node000003"><a xlink:title=" ">
<path fill="none" stroke="#63b8ff" d="M470.05,-370.57C485.98,-376.72 501.25,-385.36 513,-397.5 553.5,-439.36 506.81,-483.35 549,-523.5 554.71,-528.93 561.23,-533.42 568.22,-537.11"/>
<polygon fill="#63b8ff" stroke="#63b8ff" points="566.78,-540.3 577.32,-541.38 569.75,-533.96 566.78,-540.3"/>
</a>
</g>
</g>
<!-- Node12&#45;&gt;Node4 -->
<g id="edge18_Node000012_Node000004" class="edge">
<title>Node12&#45;&gt;Node4</title>
<g id="a_edge18_Node000012_Node000004"><a xlink:title=" ">
<path fill="none" stroke="#63b8ff" d="M461.93,-370.54C480.09,-376.7 498.33,-385.36 513,-397.5 538.74,-418.81 522.48,-443.17 549,-463.5 556.26,-469.06 564.4,-473.61 572.94,-477.33"/>
<polygon fill="#63b8ff" stroke="#63b8ff" points="571.77,-480.63 582.36,-481.05 574.34,-474.12 571.77,-480.63"/>
</a>
</g>
</g>
<!-- Node12&#45;&gt;Node5 -->
<g id="edge19_Node000012_Node000005" class="edge">
<title>Node12&#45;&gt;Node5</title>
<g id="a_edge19_Node000012_Node000005"><a xlink:title=" ">
<path fill="none" stroke="#63b8ff" d="M438.95,-370.59C471.1,-378.96 512.19,-389.32 549,-397.5 559.72,-399.88 570.99,-402.25 582.19,-404.51"/>
<polygon fill="#63b8ff" stroke="#63b8ff" points="581.5,-407.95 591.99,-406.48 582.87,-401.08 581.5,-407.95"/>
</a>
</g>
</g>
<!-- Node12&#45;&gt;Node6 -->
<g id="edge20_Node000012_Node000006" class="edge">
<title>Node12&#45;&gt;Node6</title>
<g id="a_edge20_Node000012_Node000006"><a xlink:title=" ">
<path fill="none" stroke="#63b8ff" d="M490.86,-355.5C510.76,-355.5 531.66,-355.5 551.93,-355.5"/>
<polygon fill="#63b8ff" stroke="#63b8ff" points="552.14,-359 562.14,-355.5 552.14,-352 552.14,-359"/>
</a>
</g>
</g>
<!-- Node12&#45;&gt;Node7 -->
<g id="edge21_Node000012_Node000007" class="edge">
<title>Node12&#45;&gt;Node7</title>
<g id="a_edge21_Node000012_Node000007"><a xlink:title=" ">
<path fill="none" stroke="#63b8ff" d="M443.15,-340.49C482.95,-330.65 535.78,-317.57 580.8,-306.44"/>
<polygon fill="#63b8ff" stroke="#63b8ff" points="581.71,-309.82 590.58,-304.02 580.03,-303.02 581.71,-309.82"/>
</a>
</g>
</g>
<!-- Node12&#45;&gt;Node8 -->
<g id="edge22_Node000012_Node000008" class="edge">
<title>Node12&#45;&gt;Node8</title>
<g id="a_edge22_Node000012_Node000008"><a xlink:title=" ">
<path fill="none" stroke="#63b8ff" d="M480.49,-340.46C492.17,-335.94 503.35,-330.08 513,-322.5 539.89,-301.38 521.59,-274.95 549,-254.5 560.92,-245.61 575.19,-239.67 589.76,-235.74"/>
<polygon fill="#63b8ff" stroke="#63b8ff" points="590.95,-239.05 599.87,-233.33 589.33,-232.24 590.95,-239.05"/>
</a>
</g>
</g>
<!-- Node12&#45;&gt;Node10 -->
<g id="edge23_Node000012_Node000010" class="edge">
<title>Node12&#45;&gt;Node10</title>
<g id="a_edge23_Node000012_Node000010"><a xlink:title=" ">
<path fill="none" stroke="#63b8ff" d="M473.94,-370.54C488.78,-376.71 502.65,-385.37 513,-397.5 581.01,-477.21 476.29,-555.04 549,-630.5 549.8,-631.33 550.62,-632.14 551.46,-632.93"/>
<polygon fill="#63b8ff" stroke="#63b8ff" points="549.5,-635.84 559.48,-639.37 553.88,-630.38 549.5,-635.84"/>
</a>
</g>
</g>
<!-- Node12&#45;&gt;Node11 -->
<g id="edge24_Node000012_Node000011" class="edge">
<title>Node12&#45;&gt;Node11</title>
<g id="a_edge24_Node000012_Node000011"><a xlink:title=" ">
<path fill="none" stroke="#63b8ff" d="M472.89,-370.6C488.01,-376.76 502.26,-385.39 513,-397.5 568.6,-460.15 489.72,-523.32 549,-582.5 549.94,-583.44 550.91,-584.35 551.9,-585.23"/>
<polygon fill="#63b8ff" stroke="#63b8ff" points="549.86,-588.07 559.92,-591.4 554.13,-582.53 549.86,-588.07"/>
</a>
</g>
</g>
<!-- Node13 -->
<g id="Node000013" class="node">
<title>Node13</title>
<g id="a_Node000013"><a xlink:href="../../db/dd6/classaopp__deconv__tool_1_1graphical__frontends_1_1ssa__filtering_1_1ImagePlot.html#ab02e0d96d535d8e3efe5892c326f6de9" target="_top" xlink:title=" ">
<polygon fill="white" stroke="#666666" points="783,-196.5 566,-196.5 566,-166.5 783,-166.5 783,-196.5"/>
<text text-anchor="start" x="574" y="-184.5" font-family="Helvetica,sans-Serif" font-size="10.00">aopp_deconv_tool.graphical</text>
<text text-anchor="middle" x="674.5" y="-173.5" font-family="Helvetica,sans-Serif" font-size="10.00">_frontends.ssa_filtering.ImagePlot.create</text>
</a>
</g>
</g>
<!-- Node12&#45;&gt;Node13 -->
<g id="edge15_Node000012_Node000013" class="edge">
<title>Node12&#45;&gt;Node13</title>
<g id="a_edge15_Node000012_Node000013"><a xlink:title=" ">
<path fill="none" stroke="#63b8ff" d="M485.82,-340.41C495.8,-335.84 505.12,-329.99 513,-322.5 552.44,-285.02 508.51,-241.84 549,-205.5 551.54,-203.22 554.23,-201.13 557.04,-199.21"/>
<polygon fill="#63b8ff" stroke="#63b8ff" points="559.02,-202.11 565.8,-193.97 555.43,-196.1 559.02,-202.11"/>
</a>
</g>
</g>
<!-- Node14 -->
<g id="Node000014" class="node">
<title>Node14</title>
<g id="a_Node000014"><a xlink:href="../../d1/d4b/classaopp__deconv__tool_1_1graphical__frontends_1_1ssa__filtering_1_1LinePlot.html#a86c5b305fb1693d23c4099d4a7dd2688" target="_top" xlink:title=" ">
<polygon fill="white" stroke="#666666" points="777.5,-148.5 571.5,-148.5 571.5,-118.5 777.5,-118.5 777.5,-148.5"/>
<text text-anchor="start" x="579.5" y="-136.5" font-family="Helvetica,sans-Serif" font-size="10.00">aopp_deconv_tool.graphical</text>
<text text-anchor="middle" x="674.5" y="-125.5" font-family="Helvetica,sans-Serif" font-size="10.00">_frontends.ssa_filtering.LinePlot.create</text>
</a>
</g>
</g>
<!-- Node12&#45;&gt;Node14 -->
<g id="edge16_Node000012_Node000014" class="edge">
<title>Node12&#45;&gt;Node14</title>
<g id="a_edge16_Node000012_Node000014"><a xlink:title=" ">
<path fill="none" stroke="#63b8ff" d="M487.73,-340.45C497.11,-335.85 505.77,-329.97 513,-322.5 565.2,-268.56 495.28,-209.92 549,-157.5 553.04,-153.56 557.51,-150.17 562.3,-147.26"/>
<polygon fill="#63b8ff" stroke="#63b8ff" points="564.04,-150.3 571.22,-142.51 560.75,-144.11 564.04,-150.3"/>
</a>
</g>
</g>
<!-- Node16&#45;&gt;Node16 -->
<g id="edge27_Node000016_Node000016" class="edge">
<title>Node16&#45;&gt;Node16</title>
<g id="a_edge27_Node000016_Node000016"><a xlink:title=" ">
<path fill="none" stroke="#63b8ff" d="M331.14,-247.1C325.65,-256.65 342.43,-265 381.5,-265 405.92,-265 421.63,-261.74 428.64,-256.96"/>
<polygon fill="#63b8ff" stroke="#63b8ff" points="432.08,-257.69 431.86,-247.1 425.43,-255.52 432.08,-257.69"/>
</a>
</g>
</g>
<!-- Node17&#45;&gt;Node17 -->
<g id="edge29_Node000017_Node000017" class="edge">
<title>Node17&#45;&gt;Node17</title>
<g id="a_edge29_Node000017_Node000017"><a xlink:title=" ">
<path fill="none" stroke="#63b8ff" d="M333.34,-169.78C322.63,-178.91 338.69,-187.5 381.5,-187.5 406.92,-187.5 422.91,-184.47 429.46,-180.1"/>
<polygon fill="#63b8ff" stroke="#63b8ff" points="432.97,-179.84 429.66,-169.78 425.97,-179.7 432.97,-179.84"/>
</a>
</g>
</g>
<!-- Node18&#45;&gt;Node18 -->
<g id="edge33_Node000018_Node000018" class="edge">
<title>Node18&#45;&gt;Node18</title>
<g id="a_edge33_Node000018_Node000018"><a xlink:title=" ">
<path fill="none" stroke="#63b8ff" d="M333.34,-98.78C322.63,-107.91 338.69,-116.5 381.5,-116.5 406.92,-116.5 422.91,-113.47 429.46,-109.1"/>
<polygon fill="#63b8ff" stroke="#63b8ff" points="432.97,-108.84 429.66,-98.78 425.97,-108.7 432.97,-108.84"/>
</a>
</g>
</g>
<!-- Node19 -->
<g id="Node000019" class="node">
<title>Node19</title>
<g id="a_Node000019"><a xlink:href="../../d6/d1d/classaopp__deconv__tool_1_1graphical__frontends_1_1ssa__filtering_1_1ImageViewer.html#ae014d11654c3dd2679ddad312da750f4" target="_top" xlink:title=" ">
<polygon fill="white" stroke="#666666" points="782.5,-100 566.5,-100 566.5,-59 782.5,-59 782.5,-100"/>
<text text-anchor="start" x="574.5" y="-88" font-family="Helvetica,sans-Serif" font-size="10.00">aopp_deconv_tool.graphical</text>
<text text-anchor="start" x="574.5" y="-77" font-family="Helvetica,sans-Serif" font-size="10.00">_frontends.ssa_filtering.ImageViewer.get</text>
<text text-anchor="middle" x="674.5" y="-66" font-family="Helvetica,sans-Serif" font-size="10.00">_displayed_data</text>
</a>
</g>
</g>
<!-- Node18&#45;&gt;Node19 -->
<g id="edge31_Node000018_Node000019" class="edge">
<title>Node18&#45;&gt;Node19</title>
<g id="a_edge31_Node000018_Node000019"><a xlink:title=" ">
<path fill="none" stroke="#63b8ff" d="M502.54,-81.85C520.21,-81.61 538.39,-81.36 556.01,-81.11"/>
<polygon fill="#63b8ff" stroke="#63b8ff" points="556.36,-84.61 566.31,-80.97 556.26,-77.61 556.36,-84.61"/>
</a>
</g>
</g>
<!-- Node20 -->
<g id="Node000020" class="node">
<title>Node20</title>
<g id="a_Node000020"><a xlink:href="../../d8/dd5/classaopp__deconv__tool_1_1graphical__frontends_1_1ssa__filtering_1_1ImageAggregator.html#a9e02916c8226e973ad4c7807fe59306c" target="_top" xlink:title=" ">
<polygon fill="white" stroke="#666666" points="792.5,-41 556.5,-41 556.5,0 792.5,0 792.5,-41"/>
<text text-anchor="start" x="564.5" y="-29" font-family="Helvetica,sans-Serif" font-size="10.00">aopp_deconv_tool.graphical</text>
<text text-anchor="start" x="564.5" y="-18" font-family="Helvetica,sans-Serif" font-size="10.00">_frontends.ssa_filtering.ImageAggregator.get</text>
<text text-anchor="middle" x="674.5" y="-7" font-family="Helvetica,sans-Serif" font-size="10.00">_displayed_data</text>
</a>
</g>
</g>
<!-- Node18&#45;&gt;Node20 -->
<g id="edge32_Node000018_Node000020" class="edge">
<title>Node18&#45;&gt;Node20</title>
<g id="a_edge32_Node000018_Node000020"><a xlink:title=" ">
<path fill="none" stroke="#63b8ff" d="M470.12,-68.5C484.49,-65.72 499.19,-62.68 513,-59.5 529.18,-55.77 532.91,-53.61 549,-49.5 556.96,-47.47 565.22,-45.42 573.53,-43.4"/>
<polygon fill="#63b8ff" stroke="#63b8ff" points="574.39,-46.79 583.29,-41.04 572.75,-39.99 574.39,-46.79"/>
</a>
</g>
</g>
<!-- Node21&#45;&gt;Node21 -->
<g id="edge35_Node000021_Node000021" class="edge">
<title>Node21&#45;&gt;Node21</title>
<g id="a_edge35_Node000021_Node000021"><a xlink:title=" ">
<path fill="none" stroke="#63b8ff" d="M333.34,-32.78C322.63,-41.91 338.69,-50.5 381.5,-50.5 406.92,-50.5 422.91,-47.47 429.46,-43.1"/>
<polygon fill="#63b8ff" stroke="#63b8ff" points="432.97,-42.84 429.66,-32.78 425.97,-42.7 432.97,-42.84"/>
</a>
</g>
</g>
</g>
</svg>
