<?xml version="1.0" encoding="UTF-8" standalone="no"?>
<!DOCTYPE svg PUBLIC "-//W3C//DTD SVG 1.1//EN"
 "http://www.w3.org/Graphics/SVG/1.1/DTD/svg11.dtd">
<!-- Generated by graphviz version 2.43.0 (0)
 -->
<!-- Title: aopp_deconv_tool.algorithm.deconv.base.Base Pages: 1 -->
<svg width="394pt" height="115pt"
 viewBox="0.00 0.00 393.50 115.00" xmlns="http://www.w3.org/2000/svg" xmlns:xlink="http://www.w3.org/1999/xlink">
<g id="graph0" class="graph" transform="scale(1 1) rotate(0) translate(4 111)">
<title>aopp_deconv_tool.algorithm.deconv.base.Base</title>
<!-- Node1 -->
<g id="Node000001" class="node">
<title>Node1</title>
<g id="a_Node000001"><a xlink:title=" ">
<polygon fill="#999999" stroke="#666666" points="284.5,-19 38.5,-19 38.5,0 284.5,0 284.5,-19"/>
<text text-anchor="middle" x="161.5" y="-7" font-family="Helvetica,sans-Serif" font-size="10.00">aopp_deconv_tool.algorithm.deconv.base.Base</text>
</a>
</g>
</g>
<!-- Node2 -->
<g id="Node000002" class="node">
<title>Node2</title>
<g id="a_Node000002"><a xlink:title=" ">
<polygon fill="white" stroke="#666666" points="29,-107 0,-107 0,-88 29,-88 29,-107"/>
<text text-anchor="middle" x="14.5" y="-95" font-family="Helvetica,sans-Serif" font-size="10.00">int</text>
</a>
</g>
</g>
<!-- Node2&#45;&gt;Node1 -->
<g id="edge1_Node000001_Node000002" class="edge">
<title>Node2&#45;&gt;Node1</title>
<g id="a_edge1_Node000001_Node000002"><a xlink:title=" ">
<path fill="none" stroke="#9a32cd" stroke-dasharray="5,2" d="M13.93,-77.5C14.6,-64.33 17.76,-47.38 28.5,-37 36.88,-28.9 58.67,-23.1 82.24,-19.04"/>
<polygon fill="#9a32cd" stroke="#9a32cd" points="10.42,-77.8 13.85,-87.82 17.42,-77.85 10.42,-77.8"/>
</a>
</g>
<text text-anchor="middle" x="65" y="-62" font-family="Helvetica,sans-Serif" font-size="10.00" fill="grey"> _i</text>
<text text-anchor="middle" x="65" y="-51" font-family="Helvetica,sans-Serif" font-size="10.00" fill="grey">n_iter</text>
<text text-anchor="middle" x="65" y="-40" font-family="Helvetica,sans-Serif" font-size="10.00" fill="grey">n_iter_stopped</text>
</g>
<!-- Node3 -->
<g id="Node000003" class="node">
<title>Node3</title>
<g id="a_Node000003"><a xlink:title=" ">
<polygon fill="white" stroke="#666666" points="125,-107 96,-107 96,-88 125,-88 125,-107"/>
<text text-anchor="middle" x="110.5" y="-95" font-family="Helvetica,sans-Serif" font-size="10.00">str</text>
</a>
</g>
</g>
<!-- Node3&#45;&gt;Node1 -->
<g id="edge2_Node000001_Node000003" class="edge">
<title>Node3&#45;&gt;Node1</title>
<g id="a_edge2_Node000001_Node000003"><a xlink:title=" ">
<path fill="none" stroke="#9a32cd" stroke-dasharray="5,2" d="M106.12,-77.51C104.33,-65.09 104.14,-49 111.5,-37 116.48,-28.88 124.87,-23.1 133.36,-19.07"/>
<polygon fill="#9a32cd" stroke="#9a32cd" points="102.75,-78.49 108.04,-87.66 109.62,-77.18 102.75,-78.49"/>
</a>
</g>
<text text-anchor="middle" x="151" y="-51" font-family="Helvetica,sans-Serif" font-size="10.00" fill="grey"> progress_string</text>
</g>
<!-- Node4 -->
<g id="Node000004" class="node">
<title>Node4</title>
<g id="a_Node000004"><a xlink:title=" ">
<polygon fill="white" stroke="#666666" points="227,-107 198,-107 198,-88 227,-88 227,-107"/>
<text text-anchor="middle" x="212.5" y="-95" font-family="Helvetica,sans-Serif" font-size="10.00">np</text>
</a>
</g>
</g>
<!-- Node4&#45;&gt;Node1 -->
<g id="edge3_Node000001_Node000004" class="edge">
<title>Node4&#45;&gt;Node1</title>
<g id="a_edge3_Node000001_Node000004"><a xlink:title=" ">
<path fill="none" stroke="#9a32cd" stroke-dasharray="5,2" d="M208.06,-77.8C204.57,-65.51 198.88,-49.45 190.5,-37 185.85,-30.1 179.05,-23.75 173.2,-19.01"/>
<polygon fill="#9a32cd" stroke="#9a32cd" points="204.76,-79.03 210.67,-87.82 211.54,-77.27 204.76,-79.03"/>
</a>
</g>
<text text-anchor="middle" x="240" y="-56.5" font-family="Helvetica,sans-Serif" font-size="10.00" fill="grey"> _components</text>
<text text-anchor="middle" x="240" y="-45.5" font-family="Helvetica,sans-Serif" font-size="10.00" fill="grey">_residual</text>
</g>
<!-- Node5 -->
<g id="Node000005" class="node">
<title>Node5</title>
<g id="a_Node000005"><a xlink:title=" ">
<polygon fill="white" stroke="#666666" points="322,-107 287,-107 287,-88 322,-88 322,-107"/>
<text text-anchor="middle" x="304.5" y="-95" font-family="Helvetica,sans-Serif" font-size="10.00">dict</text>
</a>
</g>
</g>
<!-- Node5&#45;&gt;Node1 -->
<g id="edge4_Node000001_Node000005" class="edge">
<title>Node5&#45;&gt;Node1</title>
<g id="a_edge4_Node000001_Node000005"><a xlink:title=" ">
<path fill="none" stroke="#9a32cd" stroke-dasharray="5,2" d="M300.98,-77.73C297.51,-64.44 290.85,-47.21 278.5,-37 268.63,-28.84 256.75,-23.07 244.39,-19.01"/>
<polygon fill="#9a32cd" stroke="#9a32cd" points="297.62,-78.73 303.2,-87.74 304.45,-77.21 297.62,-78.73"/>
</a>
</g>
<text text-anchor="middle" x="341.5" y="-51" font-family="Helvetica,sans-Serif" font-size="10.00" fill="grey"> _last_parameters</text>
</g>
</g>
</svg>
