<?xml version="1.0" encoding="UTF-8" standalone="no"?>
<!DOCTYPE svg PUBLIC "-//W3C//DTD SVG 1.1//EN"
 "http://www.w3.org/Graphics/SVG/1.1/DTD/svg11.dtd">
<!-- Generated by graphviz version 2.43.0 (0)
 -->
<!-- Title: aopp_deconv_tool.astropy_helper.fits.header.DictReader._add_kv_to_fits_dict Pages: 1 -->
<svg width="374pt" height="67pt"
 viewBox="0.00 0.00 374.00 67.00" xmlns="http://www.w3.org/2000/svg" xmlns:xlink="http://www.w3.org/1999/xlink">
<g id="graph0" class="graph" transform="scale(1 1) rotate(0) translate(4 63)">
<title>aopp_deconv_tool.astropy_helper.fits.header.DictReader._add_kv_to_fits_dict</title>
<!-- Node1 -->
<g id="Node000001" class="node">
<title>Node1</title>
<g id="a_Node000001"><a xlink:title=" ">
<polygon fill="#999999" stroke="#666666" points="366,-41 201,-41 201,0 366,0 366,-41"/>
<text text-anchor="start" x="209" y="-29" font-family="Helvetica,sans-Serif" font-size="10.00">aopp_deconv_tool.astropy</text>
<text text-anchor="start" x="209" y="-18" font-family="Helvetica,sans-Serif" font-size="10.00">_helper.fits.header.DictReader.</text>
<text text-anchor="middle" x="283.5" y="-7" font-family="Helvetica,sans-Serif" font-size="10.00">_add_kv_to_fits_dict</text>
</a>
</g>
</g>
<!-- Node2 -->
<g id="Node000002" class="node">
<title>Node2</title>
<g id="a_Node000002"><a xlink:href="../../dd/dbd/classaopp__deconv__tool_1_1astropy__helper_1_1fits_1_1header_1_1DictReader.html#add6618692aea87f0bf43fc7ce6bc84db" target="_top" xlink:title=" ">
<polygon fill="white" stroke="#666666" points="165,-41 0,-41 0,0 165,0 165,-41"/>
<text text-anchor="start" x="8" y="-29" font-family="Helvetica,sans-Serif" font-size="10.00">aopp_deconv_tool.astropy</text>
<text text-anchor="start" x="8" y="-18" font-family="Helvetica,sans-Serif" font-size="10.00">_helper.fits.header.DictReader.</text>
<text text-anchor="middle" x="82.5" y="-7" font-family="Helvetica,sans-Serif" font-size="10.00">_to_fits_format</text>
</a>
</g>
</g>
<!-- Node1&#45;&gt;Node2 -->
<g id="edge1_Node000001_Node000002" class="edge">
<title>Node1&#45;&gt;Node2</title>
<g id="a_edge1_Node000001_Node000002"><a xlink:title=" ">
<path fill="none" stroke="#63b8ff" d="M190.96,-20.5C182.37,-20.5 173.7,-20.5 165.21,-20.5"/>
<polygon fill="#63b8ff" stroke="#63b8ff" points="190.98,-24 200.98,-20.5 190.98,-17 190.98,-24"/>
</a>
</g>
</g>
<!-- Node2&#45;&gt;Node2 -->
<g id="edge2_Node000002_Node000002" class="edge">
<title>Node2&#45;&gt;Node2</title>
<g id="a_edge2_Node000002_Node000002"><a xlink:title=" ">
<path fill="none" stroke="#63b8ff" d="M116.91,-50.96C111.79,-55.74 100.32,-59 82.5,-59 53.98,-59 41.73,-50.65 45.74,-41.1"/>
<polygon fill="#63b8ff" stroke="#63b8ff" points="120.35,-51.64 119.26,-41.1 113.54,-50.01 120.35,-51.64"/>
</a>
</g>
</g>
</g>
</svg>
