<?xml version="1.0" encoding="UTF-8" standalone="no"?>
<!DOCTYPE svg PUBLIC "-//W3C//DTD SVG 1.1//EN"
 "http://www.w3.org/Graphics/SVG/1.1/DTD/svg11.dtd">
<!-- Generated by graphviz version 2.43.0 (0)
 -->
<!-- Title: aopp_deconv_tool.extract_sources.go Pages: 1 -->
<svg width="980pt" height="308pt"
 viewBox="0.00 0.00 980.00 308.00" xmlns="http://www.w3.org/2000/svg" xmlns:xlink="http://www.w3.org/1999/xlink">
<g id="graph0" class="graph" transform="scale(1 1) rotate(0) translate(4 304)">
<title>aopp_deconv_tool.extract_sources.go</title>
<!-- Node1 -->
<g id="node1" class="node">
<title>Node1</title>
<g id="a_node1"><a xlink:title=" ">
<polygon fill="#bfbfbf" stroke="black" points="0,-172.5 0,-202.5 143,-202.5 143,-172.5 0,-172.5"/>
<text text-anchor="start" x="8" y="-190.5" font-family="Helvetica,sans-Serif" font-size="10.00">aopp_deconv_tool.extract</text>
<text text-anchor="middle" x="71.5" y="-179.5" font-family="Helvetica,sans-Serif" font-size="10.00">_sources.go</text>
</a>
</g>
</g>
<!-- Node2 -->
<g id="node2" class="node">
<title>Node2</title>
<g id="a_node2"><a xlink:href="../../da/d5f/namespaceaopp__deconv__tool_1_1arguments.html#a206efe8090df20dc2ee1729424f5bb9f" target="_top" xlink:title=" ">
<polygon fill="none" stroke="black" points="179,-197.5 179,-227.5 388,-227.5 388,-197.5 179,-197.5"/>
<text text-anchor="start" x="187" y="-215.5" font-family="Helvetica,sans-Serif" font-size="10.00">aopp_deconv_tool.arguments.construct</text>
<text text-anchor="middle" x="283.5" y="-204.5" font-family="Helvetica,sans-Serif" font-size="10.00">_arglist_from_locals</text>
</a>
</g>
</g>
<!-- Node1&#45;&gt;Node2 -->
<g id="edge1" class="edge">
<title>Node1&#45;&gt;Node2</title>
<path fill="none" stroke="midnightblue" d="M143.01,-195.89C151.41,-196.89 160.14,-197.93 168.95,-198.98"/>
<polygon fill="midnightblue" stroke="midnightblue" points="168.57,-202.46 178.91,-200.17 169.4,-195.51 168.57,-202.46"/>
</g>
<!-- Node3 -->
<g id="node3" class="node">
<title>Node3</title>
<g id="a_node3"><a xlink:href="../../dc/dd6/namespaceaopp__deconv__tool_1_1extract__sources.html#adba97220152c924bb19f483434059202" target="_top" xlink:title=" ">
<polygon fill="none" stroke="black" points="212,-148.5 212,-178.5 355,-178.5 355,-148.5 212,-148.5"/>
<text text-anchor="start" x="220" y="-166.5" font-family="Helvetica,sans-Serif" font-size="10.00">aopp_deconv_tool.extract</text>
<text text-anchor="middle" x="283.5" y="-155.5" font-family="Helvetica,sans-Serif" font-size="10.00">_sources.exec_with_args</text>
</a>
</g>
</g>
<!-- Node1&#45;&gt;Node3 -->
<g id="edge2" class="edge">
<title>Node1&#45;&gt;Node3</title>
<path fill="none" stroke="midnightblue" d="M143.01,-179.44C161.88,-177.28 182.43,-174.94 201.81,-172.72"/>
<polygon fill="midnightblue" stroke="midnightblue" points="202.28,-176.19 211.82,-171.58 201.48,-169.24 202.28,-176.19"/>
</g>
<!-- Node4 -->
<g id="node4" class="node">
<title>Node4</title>
<g id="a_node4"><a xlink:href="../../dc/dd6/namespaceaopp__deconv__tool_1_1extract__sources.html#adcdbd2b44f75a70235d4f76b6b4d55d9" target="_top" xlink:title=" ">
<polygon fill="none" stroke="black" points="424,-200.5 424,-230.5 567,-230.5 567,-200.5 424,-200.5"/>
<text text-anchor="start" x="432" y="-218.5" font-family="Helvetica,sans-Serif" font-size="10.00">aopp_deconv_tool.extract</text>
<text text-anchor="middle" x="495.5" y="-207.5" font-family="Helvetica,sans-Serif" font-size="10.00">_sources.parse_args</text>
</a>
</g>
</g>
<!-- Node3&#45;&gt;Node4 -->
<g id="edge3" class="edge">
<title>Node3&#45;&gt;Node4</title>
<path fill="none" stroke="midnightblue" d="M347.2,-178.52C360.66,-181.78 374.81,-185.24 388,-188.5 400.2,-191.52 413.17,-194.77 425.72,-197.94"/>
<polygon fill="midnightblue" stroke="midnightblue" points="425.11,-201.4 435.66,-200.46 426.82,-194.61 425.11,-201.4"/>
</g>
<!-- Node7 -->
<g id="node7" class="node">
<title>Node7</title>
<g id="a_node7"><a xlink:href="../../dc/dd6/namespaceaopp__deconv__tool_1_1extract__sources.html#a71ba7a7576bb90388f58eec18881a8b7" target="_top" xlink:title=" ">
<polygon fill="none" stroke="black" points="424,-124.5 424,-154.5 567,-154.5 567,-124.5 424,-124.5"/>
<text text-anchor="start" x="432" y="-142.5" font-family="Helvetica,sans-Serif" font-size="10.00">aopp_deconv_tool.extract</text>
<text text-anchor="middle" x="495.5" y="-131.5" font-family="Helvetica,sans-Serif" font-size="10.00">_sources.run</text>
</a>
</g>
</g>
<!-- Node3&#45;&gt;Node7 -->
<g id="edge6" class="edge">
<title>Node3&#45;&gt;Node7</title>
<path fill="none" stroke="midnightblue" d="M355.01,-155.44C373.88,-153.28 394.43,-150.94 413.81,-148.72"/>
<polygon fill="midnightblue" stroke="midnightblue" points="414.28,-152.19 423.82,-147.58 413.48,-145.24 414.28,-152.19"/>
</g>
<!-- Node5 -->
<g id="node5" class="node">
<title>Node5</title>
<g id="a_node5"><a xlink:href="../../d8/d5b/namespaceaopp__deconv__tool_1_1text.html#ae13da0dd246571ccd435ba5f64904bfe" target="_top" xlink:title=" ">
<polygon fill="none" stroke="black" points="605.5,-261 605.5,-280 760.5,-280 760.5,-261 605.5,-261"/>
<text text-anchor="middle" x="683" y="-268" font-family="Helvetica,sans-Serif" font-size="10.00">aopp_deconv_tool.text.wrap</text>
</a>
</g>
</g>
<!-- Node4&#45;&gt;Node5 -->
<g id="edge4" class="edge">
<title>Node4&#45;&gt;Node5</title>
<path fill="none" stroke="midnightblue" d="M547.19,-230.53C576.33,-239.17 612.49,-249.89 640.03,-258.06"/>
<polygon fill="midnightblue" stroke="midnightblue" points="639.17,-261.45 649.75,-260.94 641.16,-254.74 639.17,-261.45"/>
</g>
<!-- Node6 -->
<g id="node6" class="node">
<title>Node6</title>
<g id="a_node6"><a xlink:href="../../d8/d5b/namespaceaopp__deconv__tool_1_1text.html#a5b208e43cdecac49460b4ced231aa4a6" target="_top" xlink:title=" ">
<polygon fill="none" stroke="black" points="799,-269.5 799,-299.5 972,-299.5 972,-269.5 799,-269.5"/>
<text text-anchor="start" x="807" y="-287.5" font-family="Helvetica,sans-Serif" font-size="10.00">aopp_deconv_tool.text.combine</text>
<text text-anchor="middle" x="885.5" y="-276.5" font-family="Helvetica,sans-Serif" font-size="10.00">_lines_with_same_indent</text>
</a>
</g>
</g>
<!-- Node5&#45;&gt;Node6 -->
<g id="edge5" class="edge">
<title>Node5&#45;&gt;Node6</title>
<path fill="none" stroke="midnightblue" d="M760.66,-275.85C769.83,-276.49 779.29,-277.15 788.69,-277.81"/>
<polygon fill="midnightblue" stroke="midnightblue" points="788.63,-281.31 798.85,-278.52 789.12,-274.33 788.63,-281.31"/>
</g>
<!-- Node8 -->
<g id="node8" class="node">
<title>Node8</title>
<g id="a_node8"><a xlink:href="../../dc/dd6/namespaceaopp__deconv__tool_1_1extract__sources.html#a092be941af9125255dc45e32e06f9a57" target="_top" xlink:title=" ">
<polygon fill="none" stroke="black" points="604.5,-124.5 604.5,-154.5 761.5,-154.5 761.5,-124.5 604.5,-124.5"/>
<text text-anchor="start" x="612.5" y="-142.5" font-family="Helvetica,sans-Serif" font-size="10.00">aopp_deconv_tool.extract</text>
<text text-anchor="middle" x="683" y="-131.5" font-family="Helvetica,sans-Serif" font-size="10.00">_sources.get_source_regions</text>
</a>
</g>
</g>
<!-- Node7&#45;&gt;Node8 -->
<g id="edge7" class="edge">
<title>Node7&#45;&gt;Node8</title>
<path fill="none" stroke="midnightblue" d="M567.16,-139.5C576.01,-139.5 585.15,-139.5 594.22,-139.5"/>
<polygon fill="midnightblue" stroke="midnightblue" points="594.42,-143 604.42,-139.5 594.42,-136 594.42,-143"/>
</g>
<!-- Node13 -->
<g id="node13" class="node">
<title>Node13</title>
<g id="a_node13"><a xlink:href="../../dc/dd6/namespaceaopp__deconv__tool_1_1extract__sources.html#a49d1861ad880b0306c6d26aa2c19e238" target="_top" xlink:title=" ">
<polygon fill="none" stroke="black" points="603,-45.5 603,-75.5 763,-75.5 763,-45.5 603,-45.5"/>
<text text-anchor="start" x="611" y="-63.5" font-family="Helvetica,sans-Serif" font-size="10.00">aopp_deconv_tool.extract</text>
<text text-anchor="middle" x="683" y="-52.5" font-family="Helvetica,sans-Serif" font-size="10.00">_sources.plot_source_regions</text>
</a>
</g>
</g>
<!-- Node7&#45;&gt;Node13 -->
<g id="edge12" class="edge">
<title>Node7&#45;&gt;Node13</title>
<path fill="none" stroke="midnightblue" d="M531.83,-124.45C561.77,-111.7 604.89,-93.34 637.24,-79.56"/>
<polygon fill="midnightblue" stroke="midnightblue" points="638.66,-82.76 646.49,-75.62 635.92,-76.32 638.66,-82.76"/>
</g>
<!-- Node9 -->
<g id="node9" class="node">
<title>Node9</title>
<g id="a_node9"><a xlink:href="../../dc/dd6/namespaceaopp__deconv__tool_1_1extract__sources.html#a3f85c920bc8ce61cc0f59fcfbb17da9b" target="_top" xlink:title=" ">
<polygon fill="none" stroke="black" points="812,-209 812,-250 959,-250 959,-209 812,-209"/>
<text text-anchor="start" x="820" y="-238" font-family="Helvetica,sans-Serif" font-size="10.00">aopp_deconv_tool.extract</text>
<text text-anchor="start" x="820" y="-227" font-family="Helvetica,sans-Serif" font-size="10.00">_sources.labels_and_props</text>
<text text-anchor="middle" x="885.5" y="-216" font-family="Helvetica,sans-Serif" font-size="10.00">_relabel</text>
</a>
</g>
</g>
<!-- Node8&#45;&gt;Node9 -->
<g id="edge8" class="edge">
<title>Node8&#45;&gt;Node9</title>
<path fill="none" stroke="midnightblue" d="M710.42,-154.67C733.4,-167.53 767.8,-185.97 799,-199.5 803.46,-201.43 808.08,-203.33 812.77,-205.19"/>
<polygon fill="midnightblue" stroke="midnightblue" points="811.86,-208.59 822.45,-208.91 814.37,-202.05 811.86,-208.59"/>
</g>
<!-- Node10 -->
<g id="node10" class="node">
<title>Node10</title>
<g id="a_node10"><a xlink:href="../../dc/dd6/namespaceaopp__deconv__tool_1_1extract__sources.html#aabf07f824e9ce430b1c369a2a7e3bd68" target="_top" xlink:title=" ">
<polygon fill="none" stroke="black" points="814,-159.5 814,-189.5 957,-189.5 957,-159.5 814,-159.5"/>
<text text-anchor="start" x="822" y="-177.5" font-family="Helvetica,sans-Serif" font-size="10.00">aopp_deconv_tool.extract</text>
<text text-anchor="middle" x="885.5" y="-166.5" font-family="Helvetica,sans-Serif" font-size="10.00">_sources.labels_keep</text>
</a>
</g>
</g>
<!-- Node8&#45;&gt;Node10 -->
<g id="edge9" class="edge">
<title>Node8&#45;&gt;Node10</title>
<path fill="none" stroke="midnightblue" d="M761.52,-153.03C775.35,-155.45 789.79,-157.97 803.72,-160.4"/>
<polygon fill="midnightblue" stroke="midnightblue" points="803.29,-163.88 813.75,-162.15 804.5,-156.98 803.29,-163.88"/>
</g>
<!-- Node11 -->
<g id="node11" class="node">
<title>Node11</title>
<g id="a_node11"><a xlink:href="../../dc/dd6/namespaceaopp__deconv__tool_1_1extract__sources.html#a7ee33efcfbec20767ae1c1abff3543c2" target="_top" xlink:title=" ">
<polygon fill="none" stroke="black" points="814,-110.5 814,-140.5 957,-140.5 957,-110.5 814,-110.5"/>
<text text-anchor="start" x="822" y="-128.5" font-family="Helvetica,sans-Serif" font-size="10.00">aopp_deconv_tool.extract</text>
<text text-anchor="middle" x="885.5" y="-117.5" font-family="Helvetica,sans-Serif" font-size="10.00">_sources.props_keep</text>
</a>
</g>
</g>
<!-- Node8&#45;&gt;Node11 -->
<g id="edge10" class="edge">
<title>Node8&#45;&gt;Node11</title>
<path fill="none" stroke="midnightblue" d="M761.52,-134.09C775.35,-133.12 789.79,-132.11 803.72,-131.14"/>
<polygon fill="midnightblue" stroke="midnightblue" points="804.01,-134.63 813.75,-130.44 803.53,-127.65 804.01,-134.63"/>
</g>
<!-- Node12 -->
<g id="node12" class="node">
<title>Node12</title>
<g id="a_node12"><a xlink:href="../../dc/dd6/namespaceaopp__deconv__tool_1_1extract__sources.html#a7cc2946bb5e69aa45f508001b841994a" target="_top" xlink:title=" ">
<polygon fill="none" stroke="black" points="814,-50 814,-91 957,-91 957,-50 814,-50"/>
<text text-anchor="start" x="822" y="-79" font-family="Helvetica,sans-Serif" font-size="10.00">aopp_deconv_tool.extract</text>
<text text-anchor="start" x="822" y="-68" font-family="Helvetica,sans-Serif" font-size="10.00">_sources.select_labels</text>
<text text-anchor="middle" x="885.5" y="-57" font-family="Helvetica,sans-Serif" font-size="10.00">_from_props</text>
</a>
</g>
</g>
<!-- Node8&#45;&gt;Node12 -->
<g id="edge11" class="edge">
<title>Node8&#45;&gt;Node12</title>
<path fill="none" stroke="midnightblue" d="M728,-124.36C753.48,-115.59 786.12,-104.36 815,-94.42"/>
<polygon fill="midnightblue" stroke="midnightblue" points="816.31,-97.67 824.63,-91.1 814.04,-91.05 816.31,-97.67"/>
</g>
<!-- Node14 -->
<g id="node14" class="node">
<title>Node14</title>
<g id="a_node14"><a xlink:href="../../de/db0/namespaceaopp__deconv__tool_1_1scipy__helper_1_1label__ops.html#ac2bf445a729acdf9c248252ac139ebbe" target="_top" xlink:title=" ">
<polygon fill="none" stroke="black" points="814,-0.5 814,-30.5 957,-30.5 957,-0.5 814,-0.5"/>
<text text-anchor="start" x="822" y="-18.5" font-family="Helvetica,sans-Serif" font-size="10.00">aopp_deconv_tool.scipy</text>
<text text-anchor="middle" x="885.5" y="-7.5" font-family="Helvetica,sans-Serif" font-size="10.00">_helper.label_ops.remove</text>
</a>
</g>
</g>
<!-- Node13&#45;&gt;Node14 -->
<g id="edge13" class="edge">
<title>Node13&#45;&gt;Node14</title>
<path fill="none" stroke="midnightblue" d="M751.04,-45.45C769.18,-41.38 788.96,-36.94 807.6,-32.76"/>
<polygon fill="midnightblue" stroke="midnightblue" points="808.53,-36.14 817.52,-30.53 807,-29.31 808.53,-36.14"/>
</g>
</g>
</svg>
