<?xml version="1.0" encoding="UTF-8" standalone="no"?>
<!DOCTYPE svg PUBLIC "-//W3C//DTD SVG 1.1//EN"
 "http://www.w3.org/Graphics/SVG/1.1/DTD/svg11.dtd">
<!-- Generated by graphviz version 2.43.0 (0)
 -->
<!-- Title: aopp_deconv_tool.extract_sources.get_source_regions Pages: 1 -->
<svg width="348pt" height="209pt"
 viewBox="0.00 0.00 348.00 209.00" xmlns="http://www.w3.org/2000/svg" xmlns:xlink="http://www.w3.org/1999/xlink">
<g id="graph0" class="graph" transform="scale(1 1) rotate(0) translate(4 205)">
<title>aopp_deconv_tool.extract_sources.get_source_regions</title>
<!-- Node1 -->
<g id="node1" class="node">
<title>Node1</title>
<g id="a_node1"><a xlink:title=" ">
<polygon fill="#bfbfbf" stroke="black" points="0,-85 0,-115 157,-115 157,-85 0,-85"/>
<text text-anchor="start" x="8" y="-103" font-family="Helvetica,sans-Serif" font-size="10.00">aopp_deconv_tool.extract</text>
<text text-anchor="middle" x="78.5" y="-92" font-family="Helvetica,sans-Serif" font-size="10.00">_sources.get_source_regions</text>
</a>
</g>
</g>
<!-- Node2 -->
<g id="node2" class="node">
<title>Node2</title>
<g id="a_node2"><a xlink:href="../../dc/dd6/namespaceaopp__deconv__tool_1_1extract__sources.html#a3f85c920bc8ce61cc0f59fcfbb17da9b" target="_top" xlink:title=" ">
<polygon fill="none" stroke="black" points="193,-159.5 193,-200.5 340,-200.5 340,-159.5 193,-159.5"/>
<text text-anchor="start" x="201" y="-188.5" font-family="Helvetica,sans-Serif" font-size="10.00">aopp_deconv_tool.extract</text>
<text text-anchor="start" x="201" y="-177.5" font-family="Helvetica,sans-Serif" font-size="10.00">_sources.labels_and_props</text>
<text text-anchor="middle" x="266.5" y="-166.5" font-family="Helvetica,sans-Serif" font-size="10.00">_relabel</text>
</a>
</g>
</g>
<!-- Node1&#45;&gt;Node2 -->
<g id="edge1" class="edge">
<title>Node1&#45;&gt;Node2</title>
<path fill="none" stroke="midnightblue" d="M113.18,-115.08C135.72,-125.11 166.07,-138.5 193,-150 197.31,-151.84 201.78,-153.73 206.28,-155.62"/>
<polygon fill="midnightblue" stroke="midnightblue" points="204.94,-158.86 215.52,-159.49 207.64,-152.4 204.94,-158.86"/>
</g>
<!-- Node3 -->
<g id="node3" class="node">
<title>Node3</title>
<g id="a_node3"><a xlink:href="../../dc/dd6/namespaceaopp__deconv__tool_1_1extract__sources.html#aabf07f824e9ce430b1c369a2a7e3bd68" target="_top" xlink:title=" ">
<polygon fill="none" stroke="black" points="195,-110 195,-140 338,-140 338,-110 195,-110"/>
<text text-anchor="start" x="203" y="-128" font-family="Helvetica,sans-Serif" font-size="10.00">aopp_deconv_tool.extract</text>
<text text-anchor="middle" x="266.5" y="-117" font-family="Helvetica,sans-Serif" font-size="10.00">_sources.labels_keep</text>
</a>
</g>
</g>
<!-- Node1&#45;&gt;Node3 -->
<g id="edge2" class="edge">
<title>Node1&#45;&gt;Node3</title>
<path fill="none" stroke="midnightblue" d="M157.03,-110.42C166.26,-111.66 175.69,-112.93 184.95,-114.17"/>
<polygon fill="midnightblue" stroke="midnightblue" points="184.55,-117.65 194.92,-115.51 185.48,-110.71 184.55,-117.65"/>
</g>
<!-- Node4 -->
<g id="node4" class="node">
<title>Node4</title>
<g id="a_node4"><a xlink:href="../../dc/dd6/namespaceaopp__deconv__tool_1_1extract__sources.html#a7ee33efcfbec20767ae1c1abff3543c2" target="_top" xlink:title=" ">
<polygon fill="none" stroke="black" points="195,-61 195,-91 338,-91 338,-61 195,-61"/>
<text text-anchor="start" x="203" y="-79" font-family="Helvetica,sans-Serif" font-size="10.00">aopp_deconv_tool.extract</text>
<text text-anchor="middle" x="266.5" y="-68" font-family="Helvetica,sans-Serif" font-size="10.00">_sources.props_keep</text>
</a>
</g>
</g>
<!-- Node1&#45;&gt;Node4 -->
<g id="edge3" class="edge">
<title>Node1&#45;&gt;Node4</title>
<path fill="none" stroke="midnightblue" d="M157.03,-90C166.26,-88.81 175.69,-87.59 184.95,-86.39"/>
<polygon fill="midnightblue" stroke="midnightblue" points="185.45,-89.86 194.92,-85.11 184.56,-82.92 185.45,-89.86"/>
</g>
<!-- Node5 -->
<g id="node5" class="node">
<title>Node5</title>
<g id="a_node5"><a xlink:href="../../dc/dd6/namespaceaopp__deconv__tool_1_1extract__sources.html#a7cc2946bb5e69aa45f508001b841994a" target="_top" xlink:title=" ">
<polygon fill="none" stroke="black" points="195,-0.5 195,-41.5 338,-41.5 338,-0.5 195,-0.5"/>
<text text-anchor="start" x="203" y="-29.5" font-family="Helvetica,sans-Serif" font-size="10.00">aopp_deconv_tool.extract</text>
<text text-anchor="start" x="203" y="-18.5" font-family="Helvetica,sans-Serif" font-size="10.00">_sources.select_labels</text>
<text text-anchor="middle" x="266.5" y="-7.5" font-family="Helvetica,sans-Serif" font-size="10.00">_from_props</text>
</a>
</g>
</g>
<!-- Node1&#45;&gt;Node5 -->
<g id="edge4" class="edge">
<title>Node1&#45;&gt;Node5</title>
<path fill="none" stroke="midnightblue" d="M114.92,-84.95C141.19,-73.8 177.56,-58.35 207.98,-45.43"/>
<polygon fill="midnightblue" stroke="midnightblue" points="209.37,-48.64 217.21,-41.51 206.64,-42.2 209.37,-48.64"/>
</g>
</g>
</svg>
