<?xml version="1.0" encoding="UTF-8" standalone="no"?>
<!DOCTYPE svg PUBLIC "-//W3C//DTD SVG 1.1//EN"
 "http://www.w3.org/Graphics/SVG/1.1/DTD/svg11.dtd">
<!-- Generated by graphviz version 2.43.0 (0)
 -->
<!-- Title: aopp_deconv_tool.extract_sources.labels_and_props_relabel Pages: 1 -->
<svg width="885pt" height="50pt"
 viewBox="0.00 0.00 885.00 50.00" xmlns="http://www.w3.org/2000/svg" xmlns:xlink="http://www.w3.org/1999/xlink">
<g id="graph0" class="graph" transform="scale(1 1) rotate(0) translate(4 46)">
<title>aopp_deconv_tool.extract_sources.labels_and_props_relabel</title>
<!-- Node1 -->
<g id="node1" class="node">
<title>Node1</title>
<g id="a_node1"><a xlink:title=" ">
<polygon fill="#bfbfbf" stroke="black" points="730,-0.5 730,-41.5 877,-41.5 877,-0.5 730,-0.5"/>
<text text-anchor="start" x="738" y="-29.5" font-family="Helvetica,sans-Serif" font-size="10.00">aopp_deconv_tool.extract</text>
<text text-anchor="start" x="738" y="-18.5" font-family="Helvetica,sans-Serif" font-size="10.00">_sources.labels_and_props</text>
<text text-anchor="middle" x="803.5" y="-7.5" font-family="Helvetica,sans-Serif" font-size="10.00">_relabel</text>
</a>
</g>
</g>
<!-- Node2 -->
<g id="node2" class="node">
<title>Node2</title>
<g id="a_node2"><a xlink:href="../../dc/dd6/namespaceaopp__deconv__tool_1_1extract__sources.html#a092be941af9125255dc45e32e06f9a57" target="_top" xlink:title=" ">
<polygon fill="none" stroke="black" points="537,-6 537,-36 694,-36 694,-6 537,-6"/>
<text text-anchor="start" x="545" y="-24" font-family="Helvetica,sans-Serif" font-size="10.00">aopp_deconv_tool.extract</text>
<text text-anchor="middle" x="615.5" y="-13" font-family="Helvetica,sans-Serif" font-size="10.00">_sources.get_source_regions</text>
</a>
</g>
</g>
<!-- Node1&#45;&gt;Node2 -->
<g id="edge1" class="edge">
<title>Node1&#45;&gt;Node2</title>
<path fill="none" stroke="midnightblue" d="M719.53,-21C711.06,-21 702.48,-21 694.08,-21"/>
<polygon fill="midnightblue" stroke="midnightblue" points="719.79,-24.5 729.79,-21 719.79,-17.5 719.79,-24.5"/>
</g>
<!-- Node3 -->
<g id="node3" class="node">
<title>Node3</title>
<g id="a_node3"><a xlink:href="../../dc/dd6/namespaceaopp__deconv__tool_1_1extract__sources.html#a71ba7a7576bb90388f58eec18881a8b7" target="_top" xlink:title=" ">
<polygon fill="none" stroke="black" points="358,-6 358,-36 501,-36 501,-6 358,-6"/>
<text text-anchor="start" x="366" y="-24" font-family="Helvetica,sans-Serif" font-size="10.00">aopp_deconv_tool.extract</text>
<text text-anchor="middle" x="429.5" y="-13" font-family="Helvetica,sans-Serif" font-size="10.00">_sources.run</text>
</a>
</g>
</g>
<!-- Node2&#45;&gt;Node3 -->
<g id="edge2" class="edge">
<title>Node2&#45;&gt;Node3</title>
<path fill="none" stroke="midnightblue" d="M526.47,-21C518.02,-21 509.52,-21 501.27,-21"/>
<polygon fill="midnightblue" stroke="midnightblue" points="526.73,-24.5 536.73,-21 526.73,-17.5 526.73,-24.5"/>
</g>
<!-- Node4 -->
<g id="node4" class="node">
<title>Node4</title>
<g id="a_node4"><a xlink:href="../../dc/dd6/namespaceaopp__deconv__tool_1_1extract__sources.html#adba97220152c924bb19f483434059202" target="_top" xlink:title=" ">
<polygon fill="none" stroke="black" points="179,-6 179,-36 322,-36 322,-6 179,-6"/>
<text text-anchor="start" x="187" y="-24" font-family="Helvetica,sans-Serif" font-size="10.00">aopp_deconv_tool.extract</text>
<text text-anchor="middle" x="250.5" y="-13" font-family="Helvetica,sans-Serif" font-size="10.00">_sources.exec_with_args</text>
</a>
</g>
</g>
<!-- Node3&#45;&gt;Node4 -->
<g id="edge3" class="edge">
<title>Node3&#45;&gt;Node4</title>
<path fill="none" stroke="midnightblue" d="M347.51,-21C339.03,-21 330.46,-21 322.11,-21"/>
<polygon fill="midnightblue" stroke="midnightblue" points="347.78,-24.5 357.78,-21 347.78,-17.5 347.78,-24.5"/>
</g>
<!-- Node5 -->
<g id="node5" class="node">
<title>Node5</title>
<g id="a_node5"><a xlink:href="../../dc/dd6/namespaceaopp__deconv__tool_1_1extract__sources.html#aa4d56ab52c10b8dc7197d1acd18898bb" target="_top" xlink:title=" ">
<polygon fill="none" stroke="black" points="0,-6 0,-36 143,-36 143,-6 0,-6"/>
<text text-anchor="start" x="8" y="-24" font-family="Helvetica,sans-Serif" font-size="10.00">aopp_deconv_tool.extract</text>
<text text-anchor="middle" x="71.5" y="-13" font-family="Helvetica,sans-Serif" font-size="10.00">_sources.go</text>
</a>
</g>
</g>
<!-- Node4&#45;&gt;Node5 -->
<g id="edge4" class="edge">
<title>Node4&#45;&gt;Node5</title>
<path fill="none" stroke="midnightblue" d="M168.51,-21C160.03,-21 151.46,-21 143.11,-21"/>
<polygon fill="midnightblue" stroke="midnightblue" points="168.78,-24.5 178.78,-21 168.78,-17.5 168.78,-24.5"/>
</g>
</g>
</svg>
