<?xml version="1.0" encoding="UTF-8" standalone="no"?>
<!DOCTYPE svg PUBLIC "-//W3C//DTD SVG 1.1//EN"
 "http://www.w3.org/Graphics/SVG/1.1/DTD/svg11.dtd">
<!-- Generated by graphviz version 2.43.0 (0)
 -->
<!-- Title: aopp_deconv_tool.extract_sources.go Pages: 1 -->
<svg width="980pt" height="254pt"
 viewBox="0.00 0.00 980.00 253.50" xmlns="http://www.w3.org/2000/svg" xmlns:xlink="http://www.w3.org/1999/xlink">
<g id="graph0" class="graph" transform="scale(1 1) rotate(0) translate(4 249.5)">
<title>aopp_deconv_tool.extract_sources.go</title>
<!-- Node1 -->
<g id="Node000001" class="node">
<title>Node1</title>
<g id="a_Node000001"><a xlink:title=" ">
<polygon fill="#999999" stroke="#666666" points="143,-194.5 0,-194.5 0,-164.5 143,-164.5 143,-194.5"/>
<text text-anchor="start" x="8" y="-182.5" font-family="Helvetica,sans-Serif" font-size="10.00">aopp_deconv_tool.extract</text>
<text text-anchor="middle" x="71.5" y="-171.5" font-family="Helvetica,sans-Serif" font-size="10.00">_sources.go</text>
</a>
</g>
</g>
<!-- Node2 -->
<g id="Node000002" class="node">
<title>Node2</title>
<g id="a_Node000002"><a xlink:href="../../da/d5f/namespaceaopp__deconv__tool_1_1arguments.html#aec2c9d770d31aa257cf89a398d910714" target="_top" xlink:title=" ">
<polygon fill="white" stroke="#666666" points="388,-227.5 179,-227.5 179,-197.5 388,-197.5 388,-227.5"/>
<text text-anchor="start" x="187" y="-215.5" font-family="Helvetica,sans-Serif" font-size="10.00">aopp_deconv_tool.arguments.construct</text>
<text text-anchor="middle" x="283.5" y="-204.5" font-family="Helvetica,sans-Serif" font-size="10.00">_arglist_from_locals</text>
</a>
</g>
</g>
<!-- Node1&#45;&gt;Node2 -->
<g id="edge1_Node000001_Node000002" class="edge">
<title>Node1&#45;&gt;Node2</title>
<g id="a_edge1_Node000001_Node000002"><a xlink:title=" ">
<path fill="none" stroke="#63b8ff" d="M143.01,-190.58C153.89,-192.29 165.32,-194.09 176.76,-195.88"/>
<polygon fill="#63b8ff" stroke="#63b8ff" points="176.38,-199.37 186.8,-197.46 177.47,-192.45 176.38,-199.37"/>
</a>
</g>
</g>
<!-- Node3 -->
<g id="Node000003" class="node">
<title>Node3</title>
<g id="a_Node000003"><a xlink:href="../../dc/dd6/namespaceaopp__deconv__tool_1_1extract__sources.html#ac11710297252459a547bc73b3a48d390" target="_top" xlink:title=" ">
<polygon fill="white" stroke="#666666" points="355,-161.5 212,-161.5 212,-131.5 355,-131.5 355,-161.5"/>
<text text-anchor="start" x="220" y="-149.5" font-family="Helvetica,sans-Serif" font-size="10.00">aopp_deconv_tool.extract</text>
<text text-anchor="middle" x="283.5" y="-138.5" font-family="Helvetica,sans-Serif" font-size="10.00">_sources.exec_with_args</text>
</a>
</g>
</g>
<!-- Node1&#45;&gt;Node3 -->
<g id="edge2_Node000001_Node000003" class="edge">
<title>Node1&#45;&gt;Node3</title>
<g id="a_edge2_Node000001_Node000003"><a xlink:title=" ">
<path fill="none" stroke="#63b8ff" d="M143.01,-168.42C161.88,-165.45 182.43,-162.23 201.81,-159.18"/>
<polygon fill="#63b8ff" stroke="#63b8ff" points="202.48,-162.62 211.82,-157.61 201.4,-155.7 202.48,-162.62"/>
</a>
</g>
</g>
<!-- Node3&#45;&gt;Node3 -->
<g id="edge3_Node000003_Node000003" class="edge">
<title>Node3&#45;&gt;Node3</title>
<g id="a_edge3_Node000003_Node000003"><a xlink:title=" ">
<path fill="none" stroke="#63b8ff" d="M246.23,-161.78C237.95,-170.91 250.38,-179.5 283.5,-179.5 303.17,-179.5 315.54,-176.47 320.61,-172.1"/>
<polygon fill="#63b8ff" stroke="#63b8ff" points="324.11,-171.83 320.77,-161.78 317.11,-171.72 324.11,-171.83"/>
</a>
</g>
</g>
<!-- Node4 -->
<g id="Node000004" class="node">
<title>Node4</title>
<g id="a_Node000004"><a xlink:href="../../dc/dd6/namespaceaopp__deconv__tool_1_1extract__sources.html#ab4d0e2b875998b043db4d32962dd3b07" target="_top" xlink:title=" ">
<polygon fill="white" stroke="#666666" points="567,-200.5 424,-200.5 424,-170.5 567,-170.5 567,-200.5"/>
<text text-anchor="start" x="432" y="-188.5" font-family="Helvetica,sans-Serif" font-size="10.00">aopp_deconv_tool.extract</text>
<text text-anchor="middle" x="495.5" y="-177.5" font-family="Helvetica,sans-Serif" font-size="10.00">_sources.parse_args</text>
</a>
</g>
</g>
<!-- Node3&#45;&gt;Node4 -->
<g id="edge4_Node000003_Node000004" class="edge">
<title>Node3&#45;&gt;Node4</title>
<g id="a_edge4_Node000003_Node000004"><a xlink:title=" ">
<path fill="none" stroke="#63b8ff" d="M355.01,-159.59C373.88,-163.1 394.43,-166.92 413.81,-170.51"/>
<polygon fill="#63b8ff" stroke="#63b8ff" points="413.35,-173.99 423.82,-172.37 414.62,-167.11 413.35,-173.99"/>
</a>
</g>
</g>
<!-- Node7 -->
<g id="Node000007" class="node">
<title>Node7</title>
<g id="a_Node000007"><a xlink:href="../../dc/dd6/namespaceaopp__deconv__tool_1_1extract__sources.html#a4d76cf5a47bfbc53002b866d627ada93" target="_top" xlink:title=" ">
<polygon fill="white" stroke="#666666" points="567,-137.5 424,-137.5 424,-107.5 567,-107.5 567,-137.5"/>
<text text-anchor="start" x="432" y="-125.5" font-family="Helvetica,sans-Serif" font-size="10.00">aopp_deconv_tool.extract</text>
<text text-anchor="middle" x="495.5" y="-114.5" font-family="Helvetica,sans-Serif" font-size="10.00">_sources.run</text>
</a>
</g>
</g>
<!-- Node3&#45;&gt;Node7 -->
<g id="edge7_Node000003_Node000007" class="edge">
<title>Node3&#45;&gt;Node7</title>
<g id="a_edge7_Node000003_Node000007"><a xlink:title=" ">
<path fill="none" stroke="#63b8ff" d="M355.01,-138.44C373.88,-136.28 394.43,-133.94 413.81,-131.72"/>
<polygon fill="#63b8ff" stroke="#63b8ff" points="414.28,-135.19 423.82,-130.58 413.48,-128.24 414.28,-135.19"/>
</a>
</g>
</g>
<!-- Node5 -->
<g id="Node000005" class="node">
<title>Node5</title>
<g id="a_Node000005"><a xlink:href="../../d8/d5b/namespaceaopp__deconv__tool_1_1text.html#a75d81e58c71da89b56473e2616edd1c6" target="_top" xlink:title=" ">
<polygon fill="white" stroke="#666666" points="760.5,-225 605.5,-225 605.5,-206 760.5,-206 760.5,-225"/>
<text text-anchor="middle" x="683" y="-213" font-family="Helvetica,sans-Serif" font-size="10.00">aopp_deconv_tool.text.wrap</text>
</a>
</g>
</g>
<!-- Node4&#45;&gt;Node5 -->
<g id="edge5_Node000004_Node000005" class="edge">
<title>Node4&#45;&gt;Node5</title>
<g id="a_edge5_Node000004_Node000005"><a xlink:title=" ">
<path fill="none" stroke="#63b8ff" d="M567.16,-196.93C582.13,-199.35 597.92,-201.9 612.84,-204.32"/>
<polygon fill="#63b8ff" stroke="#63b8ff" points="612.58,-207.82 623.01,-205.96 613.69,-200.91 612.58,-207.82"/>
</a>
</g>
</g>
<!-- Node6 -->
<g id="Node000006" class="node">
<title>Node6</title>
<g id="a_Node000006"><a xlink:href="../../d8/d5b/namespaceaopp__deconv__tool_1_1text.html#a1496cf89a275b1b851ff81f401628c27" target="_top" xlink:title=" ">
<polygon fill="white" stroke="#666666" points="972,-245.5 799,-245.5 799,-215.5 972,-215.5 972,-245.5"/>
<text text-anchor="start" x="807" y="-233.5" font-family="Helvetica,sans-Serif" font-size="10.00">aopp_deconv_tool.text.combine</text>
<text text-anchor="middle" x="885.5" y="-222.5" font-family="Helvetica,sans-Serif" font-size="10.00">_lines_with_same_indent</text>
</a>
</g>
</g>
<!-- Node5&#45;&gt;Node6 -->
<g id="edge6_Node000005_Node000006" class="edge">
<title>Node5&#45;&gt;Node6</title>
<g id="a_edge6_Node000005_Node000006"><a xlink:title=" ">
<path fill="none" stroke="#63b8ff" d="M760.66,-221.24C769.83,-221.92 779.29,-222.63 788.69,-223.33"/>
<polygon fill="#63b8ff" stroke="#63b8ff" points="788.62,-226.84 798.85,-224.09 789.14,-219.86 788.62,-226.84"/>
</a>
</g>
</g>
<!-- Node8 -->
<g id="Node000008" class="node">
<title>Node8</title>
<g id="a_Node000008"><a xlink:href="../../dc/dd6/namespaceaopp__deconv__tool_1_1extract__sources.html#a581f53e8d68270d8c2adfc73ae191c9e" target="_top" xlink:title=" ">
<polygon fill="white" stroke="#666666" points="761.5,-137.5 604.5,-137.5 604.5,-107.5 761.5,-107.5 761.5,-137.5"/>
<text text-anchor="start" x="612.5" y="-125.5" font-family="Helvetica,sans-Serif" font-size="10.00">aopp_deconv_tool.extract</text>
<text text-anchor="middle" x="683" y="-114.5" font-family="Helvetica,sans-Serif" font-size="10.00">_sources.get_source_regions</text>
</a>
</g>
</g>
<!-- Node7&#45;&gt;Node8 -->
<g id="edge8_Node000007_Node000008" class="edge">
<title>Node7&#45;&gt;Node8</title>
<g id="a_edge8_Node000007_Node000008"><a xlink:title=" ">
<path fill="none" stroke="#63b8ff" d="M567.16,-122.5C576.01,-122.5 585.15,-122.5 594.22,-122.5"/>
<polygon fill="#63b8ff" stroke="#63b8ff" points="594.42,-126 604.42,-122.5 594.42,-119 594.42,-126"/>
</a>
</g>
</g>
<!-- Node13 -->
<g id="Node000013" class="node">
<title>Node13</title>
<g id="a_Node000013"><a xlink:href="../../dc/dd6/namespaceaopp__deconv__tool_1_1extract__sources.html#a9af1e9b1b9224b168ef97c8d1274dbb5" target="_top" xlink:title=" ">
<polygon fill="white" stroke="#666666" points="763,-89.5 603,-89.5 603,-59.5 763,-59.5 763,-89.5"/>
<text text-anchor="start" x="611" y="-77.5" font-family="Helvetica,sans-Serif" font-size="10.00">aopp_deconv_tool.extract</text>
<text text-anchor="middle" x="683" y="-66.5" font-family="Helvetica,sans-Serif" font-size="10.00">_sources.plot_source_regions</text>
</a>
</g>
</g>
<!-- Node7&#45;&gt;Node13 -->
<g id="edge13_Node000007_Node000013" class="edge">
<title>Node7&#45;&gt;Node13</title>
<g id="a_edge13_Node000007_Node000013"><a xlink:title=" ">
<path fill="none" stroke="#63b8ff" d="M554.68,-107.44C573.59,-102.55 594.73,-97.08 614.27,-92.02"/>
<polygon fill="#63b8ff" stroke="#63b8ff" points="615.22,-95.4 624.02,-89.5 613.46,-88.62 615.22,-95.4"/>
</a>
</g>
</g>
<!-- Node9 -->
<g id="Node000009" class="node">
<title>Node9</title>
<g id="a_Node000009"><a xlink:href="../../dc/dd6/namespaceaopp__deconv__tool_1_1extract__sources.html#adbcb25da7f22db00b21542702aaf2468" target="_top" xlink:title=" ">
<polygon fill="white" stroke="#666666" points="959,-197 812,-197 812,-156 959,-156 959,-197"/>
<text text-anchor="start" x="820" y="-185" font-family="Helvetica,sans-Serif" font-size="10.00">aopp_deconv_tool.extract</text>
<text text-anchor="start" x="820" y="-174" font-family="Helvetica,sans-Serif" font-size="10.00">_sources.labels_and_props</text>
<text text-anchor="middle" x="885.5" y="-163" font-family="Helvetica,sans-Serif" font-size="10.00">_relabel</text>
</a>
</g>
</g>
<!-- Node8&#45;&gt;Node9 -->
<g id="edge9_Node000008_Node000009" class="edge">
<title>Node8&#45;&gt;Node9</title>
<g id="a_edge9_Node000008_Node000009"><a xlink:title=" ">
<path fill="none" stroke="#63b8ff" d="M739.85,-137.54C759.06,-142.71 780.99,-148.62 801.86,-154.24"/>
<polygon fill="#63b8ff" stroke="#63b8ff" points="801.12,-157.67 811.69,-156.89 802.94,-150.91 801.12,-157.67"/>
</a>
</g>
</g>
<!-- Node10 -->
<g id="Node000010" class="node">
<title>Node10</title>
<g id="a_Node000010"><a xlink:href="../../dc/dd6/namespaceaopp__deconv__tool_1_1extract__sources.html#aca2e0095650e47e718cedbfa014d6eea" target="_top" xlink:title=" ">
<polygon fill="white" stroke="#666666" points="957,-137.5 814,-137.5 814,-107.5 957,-107.5 957,-137.5"/>
<text text-anchor="start" x="822" y="-125.5" font-family="Helvetica,sans-Serif" font-size="10.00">aopp_deconv_tool.extract</text>
<text text-anchor="middle" x="885.5" y="-114.5" font-family="Helvetica,sans-Serif" font-size="10.00">_sources.labels_keep</text>
</a>
</g>
</g>
<!-- Node8&#45;&gt;Node10 -->
<g id="edge10_Node000008_Node000010" class="edge">
<title>Node8&#45;&gt;Node10</title>
<g id="a_edge10_Node000008_Node000010"><a xlink:title=" ">
<path fill="none" stroke="#63b8ff" d="M761.52,-122.5C775.35,-122.5 789.79,-122.5 803.72,-122.5"/>
<polygon fill="#63b8ff" stroke="#63b8ff" points="803.75,-126 813.75,-122.5 803.75,-119 803.75,-126"/>
</a>
</g>
</g>
<!-- Node11 -->
<g id="Node000011" class="node">
<title>Node11</title>
<g id="a_Node000011"><a xlink:href="../../dc/dd6/namespaceaopp__deconv__tool_1_1extract__sources.html#a7278356faaf8317968c14794728ddff6" target="_top" xlink:title=" ">
<polygon fill="white" stroke="#666666" points="957,-89.5 814,-89.5 814,-59.5 957,-59.5 957,-89.5"/>
<text text-anchor="start" x="822" y="-77.5" font-family="Helvetica,sans-Serif" font-size="10.00">aopp_deconv_tool.extract</text>
<text text-anchor="middle" x="885.5" y="-66.5" font-family="Helvetica,sans-Serif" font-size="10.00">_sources.props_keep</text>
</a>
</g>
</g>
<!-- Node8&#45;&gt;Node11 -->
<g id="edge11_Node000008_Node000011" class="edge">
<title>Node8&#45;&gt;Node11</title>
<g id="a_edge11_Node000008_Node000011"><a xlink:title=" ">
<path fill="none" stroke="#63b8ff" d="M746.89,-107.44C767.51,-102.51 790.59,-96.98 811.88,-91.89"/>
<polygon fill="#63b8ff" stroke="#63b8ff" points="812.92,-95.23 821.83,-89.5 811.29,-88.43 812.92,-95.23"/>
</a>
</g>
</g>
<!-- Node12 -->
<g id="Node000012" class="node">
<title>Node12</title>
<g id="a_Node000012"><a xlink:href="../../dc/dd6/namespaceaopp__deconv__tool_1_1extract__sources.html#a11af9dc71f91bc529472ad9dbff2c3db" target="_top" xlink:title=" ">
<polygon fill="white" stroke="#666666" points="957,-41 814,-41 814,0 957,0 957,-41"/>
<text text-anchor="start" x="822" y="-29" font-family="Helvetica,sans-Serif" font-size="10.00">aopp_deconv_tool.extract</text>
<text text-anchor="start" x="822" y="-18" font-family="Helvetica,sans-Serif" font-size="10.00">_sources.select_labels</text>
<text text-anchor="middle" x="885.5" y="-7" font-family="Helvetica,sans-Serif" font-size="10.00">_from_props</text>
</a>
</g>
</g>
<!-- Node8&#45;&gt;Node12 -->
<g id="edge12_Node000008_Node000012" class="edge">
<title>Node8&#45;&gt;Node12</title>
<g id="a_edge12_Node000008_Node000012"><a xlink:title=" ">
<path fill="none" stroke="#63b8ff" d="M746.98,-107.47C752.63,-104.92 758.07,-101.95 763,-98.5 784.84,-83.2 777.49,-66.26 799,-50.5 801.11,-48.95 803.31,-47.48 805.57,-46.08"/>
<polygon fill="#63b8ff" stroke="#63b8ff" points="807.57,-48.97 814.58,-41.03 804.15,-42.87 807.57,-48.97"/>
</a>
</g>
</g>
</g>
</svg>
