<?xml version="1.0" encoding="UTF-8" standalone="no"?>
<!DOCTYPE svg PUBLIC "-//W3C//DTD SVG 1.1//EN"
 "http://www.w3.org/Graphics/SVG/1.1/DTD/svg11.dtd">
<!-- Generated by graphviz version 2.43.0 (0)
 -->
<!-- Title: aopp_deconv_tool.extract_sources.exec_with_args Pages: 1 -->
<svg width="735pt" height="308pt"
 viewBox="0.00 0.00 735.00 308.00" xmlns="http://www.w3.org/2000/svg" xmlns:xlink="http://www.w3.org/1999/xlink">
<g id="graph0" class="graph" transform="scale(1 1) rotate(0) translate(4 304)">
<title>aopp_deconv_tool.extract_sources.exec_with_args</title>
<!-- Node1 -->
<g id="node1" class="node">
<title>Node1</title>
<g id="a_node1"><a xlink:title=" ">
<polygon fill="#bfbfbf" stroke="black" points="0,-148.5 0,-178.5 143,-178.5 143,-148.5 0,-148.5"/>
<text text-anchor="start" x="8" y="-166.5" font-family="Helvetica,sans-Serif" font-size="10.00">aopp_deconv_tool.extract</text>
<text text-anchor="middle" x="71.5" y="-155.5" font-family="Helvetica,sans-Serif" font-size="10.00">_sources.exec_with_args</text>
</a>
</g>
</g>
<!-- Node2 -->
<g id="node2" class="node">
<title>Node2</title>
<g id="a_node2"><a xlink:href="../../dc/dd6/namespaceaopp__deconv__tool_1_1extract__sources.html#adcdbd2b44f75a70235d4f76b6b4d55d9" target="_top" xlink:title=" ">
<polygon fill="none" stroke="black" points="179,-200.5 179,-230.5 322,-230.5 322,-200.5 179,-200.5"/>
<text text-anchor="start" x="187" y="-218.5" font-family="Helvetica,sans-Serif" font-size="10.00">aopp_deconv_tool.extract</text>
<text text-anchor="middle" x="250.5" y="-207.5" font-family="Helvetica,sans-Serif" font-size="10.00">_sources.parse_args</text>
</a>
</g>
</g>
<!-- Node1&#45;&gt;Node2 -->
<g id="edge1" class="edge">
<title>Node1&#45;&gt;Node2</title>
<path fill="none" stroke="midnightblue" d="M123.7,-178.54C143.97,-184.5 167.44,-191.39 188.57,-197.6"/>
<polygon fill="midnightblue" stroke="midnightblue" points="187.84,-201.03 198.42,-200.49 189.81,-194.32 187.84,-201.03"/>
</g>
<!-- Node5 -->
<g id="node5" class="node">
<title>Node5</title>
<g id="a_node5"><a xlink:href="../../dc/dd6/namespaceaopp__deconv__tool_1_1extract__sources.html#a71ba7a7576bb90388f58eec18881a8b7" target="_top" xlink:title=" ">
<polygon fill="none" stroke="black" points="179,-124.5 179,-154.5 322,-154.5 322,-124.5 179,-124.5"/>
<text text-anchor="start" x="187" y="-142.5" font-family="Helvetica,sans-Serif" font-size="10.00">aopp_deconv_tool.extract</text>
<text text-anchor="middle" x="250.5" y="-131.5" font-family="Helvetica,sans-Serif" font-size="10.00">_sources.run</text>
</a>
</g>
</g>
<!-- Node1&#45;&gt;Node5 -->
<g id="edge4" class="edge">
<title>Node1&#45;&gt;Node5</title>
<path fill="none" stroke="midnightblue" d="M143.22,-153.91C151.66,-152.77 160.33,-151.59 168.9,-150.43"/>
<polygon fill="midnightblue" stroke="midnightblue" points="169.46,-153.89 178.89,-149.07 168.51,-146.95 169.46,-153.89"/>
</g>
<!-- Node3 -->
<g id="node3" class="node">
<title>Node3</title>
<g id="a_node3"><a xlink:href="../../d8/d5b/namespaceaopp__deconv__tool_1_1text.html#ae13da0dd246571ccd435ba5f64904bfe" target="_top" xlink:title=" ">
<polygon fill="none" stroke="black" points="360.5,-261 360.5,-280 515.5,-280 515.5,-261 360.5,-261"/>
<text text-anchor="middle" x="438" y="-268" font-family="Helvetica,sans-Serif" font-size="10.00">aopp_deconv_tool.text.wrap</text>
</a>
</g>
</g>
<!-- Node2&#45;&gt;Node3 -->
<g id="edge2" class="edge">
<title>Node2&#45;&gt;Node3</title>
<path fill="none" stroke="midnightblue" d="M302.19,-230.53C331.33,-239.17 367.49,-249.89 395.03,-258.06"/>
<polygon fill="midnightblue" stroke="midnightblue" points="394.17,-261.45 404.75,-260.94 396.16,-254.74 394.17,-261.45"/>
</g>
<!-- Node4 -->
<g id="node4" class="node">
<title>Node4</title>
<g id="a_node4"><a xlink:href="../../d8/d5b/namespaceaopp__deconv__tool_1_1text.html#a5b208e43cdecac49460b4ced231aa4a6" target="_top" xlink:title=" ">
<polygon fill="none" stroke="black" points="554,-269.5 554,-299.5 727,-299.5 727,-269.5 554,-269.5"/>
<text text-anchor="start" x="562" y="-287.5" font-family="Helvetica,sans-Serif" font-size="10.00">aopp_deconv_tool.text.combine</text>
<text text-anchor="middle" x="640.5" y="-276.5" font-family="Helvetica,sans-Serif" font-size="10.00">_lines_with_same_indent</text>
</a>
</g>
</g>
<!-- Node3&#45;&gt;Node4 -->
<g id="edge3" class="edge">
<title>Node3&#45;&gt;Node4</title>
<path fill="none" stroke="midnightblue" d="M515.66,-275.85C524.83,-276.49 534.29,-277.15 543.69,-277.81"/>
<polygon fill="midnightblue" stroke="midnightblue" points="543.63,-281.31 553.85,-278.52 544.12,-274.33 543.63,-281.31"/>
</g>
<!-- Node6 -->
<g id="node6" class="node">
<title>Node6</title>
<g id="a_node6"><a xlink:href="../../dc/dd6/namespaceaopp__deconv__tool_1_1extract__sources.html#a092be941af9125255dc45e32e06f9a57" target="_top" xlink:title=" ">
<polygon fill="none" stroke="black" points="359.5,-124.5 359.5,-154.5 516.5,-154.5 516.5,-124.5 359.5,-124.5"/>
<text text-anchor="start" x="367.5" y="-142.5" font-family="Helvetica,sans-Serif" font-size="10.00">aopp_deconv_tool.extract</text>
<text text-anchor="middle" x="438" y="-131.5" font-family="Helvetica,sans-Serif" font-size="10.00">_sources.get_source_regions</text>
</a>
</g>
</g>
<!-- Node5&#45;&gt;Node6 -->
<g id="edge5" class="edge">
<title>Node5&#45;&gt;Node6</title>
<path fill="none" stroke="midnightblue" d="M322.16,-139.5C331.01,-139.5 340.15,-139.5 349.22,-139.5"/>
<polygon fill="midnightblue" stroke="midnightblue" points="349.42,-143 359.42,-139.5 349.42,-136 349.42,-143"/>
</g>
<!-- Node11 -->
<g id="node11" class="node">
<title>Node11</title>
<g id="a_node11"><a xlink:href="../../dc/dd6/namespaceaopp__deconv__tool_1_1extract__sources.html#a49d1861ad880b0306c6d26aa2c19e238" target="_top" xlink:title=" ">
<polygon fill="none" stroke="black" points="358,-45.5 358,-75.5 518,-75.5 518,-45.5 358,-45.5"/>
<text text-anchor="start" x="366" y="-63.5" font-family="Helvetica,sans-Serif" font-size="10.00">aopp_deconv_tool.extract</text>
<text text-anchor="middle" x="438" y="-52.5" font-family="Helvetica,sans-Serif" font-size="10.00">_sources.plot_source_regions</text>
</a>
</g>
</g>
<!-- Node5&#45;&gt;Node11 -->
<g id="edge10" class="edge">
<title>Node5&#45;&gt;Node11</title>
<path fill="none" stroke="midnightblue" d="M286.83,-124.45C316.77,-111.7 359.89,-93.34 392.24,-79.56"/>
<polygon fill="midnightblue" stroke="midnightblue" points="393.66,-82.76 401.49,-75.62 390.92,-76.32 393.66,-82.76"/>
</g>
<!-- Node7 -->
<g id="node7" class="node">
<title>Node7</title>
<g id="a_node7"><a xlink:href="../../dc/dd6/namespaceaopp__deconv__tool_1_1extract__sources.html#a3f85c920bc8ce61cc0f59fcfbb17da9b" target="_top" xlink:title=" ">
<polygon fill="none" stroke="black" points="567,-209 567,-250 714,-250 714,-209 567,-209"/>
<text text-anchor="start" x="575" y="-238" font-family="Helvetica,sans-Serif" font-size="10.00">aopp_deconv_tool.extract</text>
<text text-anchor="start" x="575" y="-227" font-family="Helvetica,sans-Serif" font-size="10.00">_sources.labels_and_props</text>
<text text-anchor="middle" x="640.5" y="-216" font-family="Helvetica,sans-Serif" font-size="10.00">_relabel</text>
</a>
</g>
</g>
<!-- Node6&#45;&gt;Node7 -->
<g id="edge6" class="edge">
<title>Node6&#45;&gt;Node7</title>
<path fill="none" stroke="midnightblue" d="M465.42,-154.67C488.4,-167.53 522.8,-185.97 554,-199.5 558.46,-201.43 563.08,-203.33 567.77,-205.19"/>
<polygon fill="midnightblue" stroke="midnightblue" points="566.86,-208.59 577.45,-208.91 569.37,-202.05 566.86,-208.59"/>
</g>
<!-- Node8 -->
<g id="node8" class="node">
<title>Node8</title>
<g id="a_node8"><a xlink:href="../../dc/dd6/namespaceaopp__deconv__tool_1_1extract__sources.html#aabf07f824e9ce430b1c369a2a7e3bd68" target="_top" xlink:title=" ">
<polygon fill="none" stroke="black" points="569,-159.5 569,-189.5 712,-189.5 712,-159.5 569,-159.5"/>
<text text-anchor="start" x="577" y="-177.5" font-family="Helvetica,sans-Serif" font-size="10.00">aopp_deconv_tool.extract</text>
<text text-anchor="middle" x="640.5" y="-166.5" font-family="Helvetica,sans-Serif" font-size="10.00">_sources.labels_keep</text>
</a>
</g>
</g>
<!-- Node6&#45;&gt;Node8 -->
<g id="edge7" class="edge">
<title>Node6&#45;&gt;Node8</title>
<path fill="none" stroke="midnightblue" d="M516.52,-153.03C530.35,-155.45 544.79,-157.97 558.72,-160.4"/>
<polygon fill="midnightblue" stroke="midnightblue" points="558.29,-163.88 568.75,-162.15 559.5,-156.98 558.29,-163.88"/>
</g>
<!-- Node9 -->
<g id="node9" class="node">
<title>Node9</title>
<g id="a_node9"><a xlink:href="../../dc/dd6/namespaceaopp__deconv__tool_1_1extract__sources.html#a7ee33efcfbec20767ae1c1abff3543c2" target="_top" xlink:title=" ">
<polygon fill="none" stroke="black" points="569,-110.5 569,-140.5 712,-140.5 712,-110.5 569,-110.5"/>
<text text-anchor="start" x="577" y="-128.5" font-family="Helvetica,sans-Serif" font-size="10.00">aopp_deconv_tool.extract</text>
<text text-anchor="middle" x="640.5" y="-117.5" font-family="Helvetica,sans-Serif" font-size="10.00">_sources.props_keep</text>
</a>
</g>
</g>
<!-- Node6&#45;&gt;Node9 -->
<g id="edge8" class="edge">
<title>Node6&#45;&gt;Node9</title>
<path fill="none" stroke="midnightblue" d="M516.52,-134.09C530.35,-133.12 544.79,-132.11 558.72,-131.14"/>
<polygon fill="midnightblue" stroke="midnightblue" points="559.01,-134.63 568.75,-130.44 558.53,-127.65 559.01,-134.63"/>
</g>
<!-- Node10 -->
<g id="node10" class="node">
<title>Node10</title>
<g id="a_node10"><a xlink:href="../../dc/dd6/namespaceaopp__deconv__tool_1_1extract__sources.html#a7cc2946bb5e69aa45f508001b841994a" target="_top" xlink:title=" ">
<polygon fill="none" stroke="black" points="569,-50 569,-91 712,-91 712,-50 569,-50"/>
<text text-anchor="start" x="577" y="-79" font-family="Helvetica,sans-Serif" font-size="10.00">aopp_deconv_tool.extract</text>
<text text-anchor="start" x="577" y="-68" font-family="Helvetica,sans-Serif" font-size="10.00">_sources.select_labels</text>
<text text-anchor="middle" x="640.5" y="-57" font-family="Helvetica,sans-Serif" font-size="10.00">_from_props</text>
</a>
</g>
</g>
<!-- Node6&#45;&gt;Node10 -->
<g id="edge9" class="edge">
<title>Node6&#45;&gt;Node10</title>
<path fill="none" stroke="midnightblue" d="M483,-124.36C508.48,-115.59 541.12,-104.36 570,-94.42"/>
<polygon fill="midnightblue" stroke="midnightblue" points="571.31,-97.67 579.63,-91.1 569.04,-91.05 571.31,-97.67"/>
</g>
<!-- Node12 -->
<g id="node12" class="node">
<title>Node12</title>
<g id="a_node12"><a xlink:href="../../de/db0/namespaceaopp__deconv__tool_1_1scipy__helper_1_1label__ops.html#ac2bf445a729acdf9c248252ac139ebbe" target="_top" xlink:title=" ">
<polygon fill="none" stroke="black" points="569,-0.5 569,-30.5 712,-30.5 712,-0.5 569,-0.5"/>
<text text-anchor="start" x="577" y="-18.5" font-family="Helvetica,sans-Serif" font-size="10.00">aopp_deconv_tool.scipy</text>
<text text-anchor="middle" x="640.5" y="-7.5" font-family="Helvetica,sans-Serif" font-size="10.00">_helper.label_ops.remove</text>
</a>
</g>
</g>
<!-- Node11&#45;&gt;Node12 -->
<g id="edge11" class="edge">
<title>Node11&#45;&gt;Node12</title>
<path fill="none" stroke="midnightblue" d="M506.04,-45.45C524.18,-41.38 543.96,-36.94 562.6,-32.76"/>
<polygon fill="midnightblue" stroke="midnightblue" points="563.53,-36.14 572.52,-30.53 562,-29.31 563.53,-36.14"/>
</g>
</g>
</svg>
