<?xml version="1.0" encoding="UTF-8" standalone="no"?>
<!DOCTYPE svg PUBLIC "-//W3C//DTD SVG 1.1//EN"
 "http://www.w3.org/Graphics/SVG/1.1/DTD/svg11.dtd">
<!-- Generated by graphviz version 2.43.0 (0)
 -->
<!-- Title: aopp_deconv_tool.extract_sources.exec_with_args Pages: 1 -->
<!--zoomable 254 -->

<svg id="main" version="1.1" xmlns="http://www.w3.org/2000/svg" xmlns:xlink="http://www.w3.org/1999/xlink" xml:space="preserve" onload="init(evt)">
<style type="text/css"><![CDATA[
.node, .edge {opacity: 0.7;}
.node.selected, .edge.selected {opacity: 1;}
.edge:hover path { stroke: red; }
.edge:hover polygon { stroke: red; fill: red; }
]]></style>

<defs>
  <circle id="rim" cx="0" cy="0" r="7"/>
  <circle id="rim2" cx="0" cy="0" r="3.5"/>
  <g id="zoomPlus">
    <use xlink:href="#rim" fill="#404040"><set attributeName="fill" to="#808080" begin="zoomplus.mouseover" end="zoomplus.mouseout"/></use>
    <path d="M-4,0h8M0,-4v8" fill="none" stroke="white" stroke-width="1.5" pointer-events="none"/>
  </g>
  <g id="zoomMin">
    <use xlink:href="#rim" fill="#404040"><set attributeName="fill" to="#808080" begin="zoomminus.mouseover" end="zoomminus.mouseout"/></use>
    <path d="M-4,0h8" fill="none" stroke="white" stroke-width="1.5" pointer-events="none"/>
  </g>
  <g id="arrowUp" transform="translate(30 24)">
    <use xlink:href="#rim"/>
    <path pointer-events="none" fill="none" stroke="white" stroke-width="1.5" d="M0,-3.0v7 M-2.5,-0.5L0,-3.0L2.5,-0.5"/>
  </g>
  <g id="arrowRight" transform="rotate(90) translate(36 -43)">
    <use xlink:href="#rim"/>
    <path pointer-events="none" fill="none" stroke="white" stroke-width="1.5" d="M0,-3.0v7 M-2.5,-0.5L0,-3.0L2.5,-0.5"/>
  </g>
  <g id="arrowDown" transform="rotate(180) translate(-30 -48)">
    <use xlink:href="#rim"/>
    <path pointer-events="none" fill="none" stroke="white" stroke-width="1.5" d="M0,-3.0v7 M-2.5,-0.5L0,-3.0L2.5,-0.5"/>
  </g>
  <g id="arrowLeft" transform="rotate(270) translate(-36 17)">
    <use xlink:href="#rim"/>
    <path pointer-events="none" fill="none" stroke="white" stroke-width="1.5" d="M0,-3.0v7 M-2.5,-0.5L0,-3.0L2.5,-0.5"/>
  </g>
  <g id="resetDef">
    <use xlink:href="#rim2" fill="#404040"><set attributeName="fill" to="#808080" begin="reset.mouseover" end="reset.mouseout"/></use>
  </g>
</defs>
<script type="application/ecmascript">
var viewWidth = 735;
var viewHeight = 254;
var sectionId = 'dynsection-0';
</script>
<script type="application/ecmascript" xlink:href="../../svg.min.js"/>
<svg id="graph" class="graph">
<g id="viewport">
<title>aopp_deconv_tool.extract_sources.exec_with_args</title>
<!-- Node1 -->
<g id="Node000001" class="node">
<title>Node1</title>
<g id="a_Node000001"><a xlink:title=" ">
<polygon fill="#999999" stroke="#666666" points="143,-161.5 0,-161.5 0,-131.5 143,-131.5 143,-161.5"/>
<text text-anchor="start" x="8" y="-149.5" font-family="Helvetica,sans-Serif" font-size="10.00">aopp_deconv_tool.extract</text>
<text text-anchor="middle" x="71.5" y="-138.5" font-family="Helvetica,sans-Serif" font-size="10.00">_sources.exec_with_args</text>
</a>
</g>
</g>
<!-- Node1&#45;&gt;Node1 -->
<g id="edge1_Node000001_Node000001" class="edge">
<title>Node1&#45;&gt;Node1</title>
<g id="a_edge1_Node000001_Node000001"><a xlink:title=" ">
<path fill="none" stroke="#63b8ff" d="M40.21,-161.78C33.26,-170.91 43.69,-179.5 71.5,-179.5 88.01,-179.5 98.4,-176.47 102.66,-172.1"/>
<polygon fill="#63b8ff" stroke="#63b8ff" points="106.16,-171.82 102.79,-161.78 99.16,-171.73 106.16,-171.82"/>
</a>
</g>
</g>
<!-- Node2 -->
<g id="Node000002" class="node">
<title>Node2</title>
<g id="a_Node000002"><a xlink:href="../../dc/dd6/namespaceaopp__deconv__tool_1_1extract__sources.html#ab4d0e2b875998b043db4d32962dd3b07" target="_top" xlink:title=" ">
<polygon fill="white" stroke="#666666" points="322,-200.5 179,-200.5 179,-170.5 322,-170.5 322,-200.5"/>
<text text-anchor="start" x="187" y="-188.5" font-family="Helvetica,sans-Serif" font-size="10.00">aopp_deconv_tool.extract</text>
<text text-anchor="middle" x="250.5" y="-177.5" font-family="Helvetica,sans-Serif" font-size="10.00">_sources.parse_args</text>
</a>
</g>
</g>
<!-- Node1&#45;&gt;Node2 -->
<g id="edge2_Node000001_Node000002" class="edge">
<title>Node1&#45;&gt;Node2</title>
<g id="a_edge2_Node000001_Node000002"><a xlink:title=" ">
<path fill="none" stroke="#63b8ff" d="M140.68,-161.52C150.79,-163.75 161.27,-166.06 171.57,-168.33"/>
<polygon fill="#63b8ff" stroke="#63b8ff" points="170.84,-171.75 181.36,-170.49 172.34,-164.92 170.84,-171.75"/>
</a>
</g>
</g>
<!-- Node5 -->
<g id="Node000005" class="node">
<title>Node5</title>
<g id="a_Node000005"><a xlink:href="../../dc/dd6/namespaceaopp__deconv__tool_1_1extract__sources.html#a4d76cf5a47bfbc53002b866d627ada93" target="_top" xlink:title=" ">
<polygon fill="white" stroke="#666666" points="322,-137.5 179,-137.5 179,-107.5 322,-107.5 322,-137.5"/>
<text text-anchor="start" x="187" y="-125.5" font-family="Helvetica,sans-Serif" font-size="10.00">aopp_deconv_tool.extract</text>
<text text-anchor="middle" x="250.5" y="-114.5" font-family="Helvetica,sans-Serif" font-size="10.00">_sources.run</text>
</a>
</g>
</g>
<!-- Node1&#45;&gt;Node5 -->
<g id="edge5_Node000001_Node000005" class="edge">
<title>Node1&#45;&gt;Node5</title>
<g id="a_edge5_Node000001_Node000005"><a xlink:title=" ">
<path fill="none" stroke="#63b8ff" d="M143.22,-136.91C151.66,-135.77 160.33,-134.59 168.9,-133.43"/>
<polygon fill="#63b8ff" stroke="#63b8ff" points="169.46,-136.89 178.89,-132.07 168.51,-129.95 169.46,-136.89"/>
</a>
</g>
</g>
<!-- Node3 -->
<g id="Node000003" class="node">
<title>Node3</title>
<g id="a_Node000003"><a xlink:href="../../d8/d5b/namespaceaopp__deconv__tool_1_1text.html#a75d81e58c71da89b56473e2616edd1c6" target="_top" xlink:title=" ">
<polygon fill="white" stroke="#666666" points="515.5,-225 360.5,-225 360.5,-206 515.5,-206 515.5,-225"/>
<text text-anchor="middle" x="438" y="-213" font-family="Helvetica,sans-Serif" font-size="10.00">aopp_deconv_tool.text.wrap</text>
</a>
</g>
</g>
<!-- Node2&#45;&gt;Node3 -->
<g id="edge3_Node000002_Node000003" class="edge">
<title>Node2&#45;&gt;Node3</title>
<g id="a_edge3_Node000002_Node000003"><a xlink:title=" ">
<path fill="none" stroke="#63b8ff" d="M322.16,-196.93C337.13,-199.35 352.92,-201.9 367.84,-204.32"/>
<polygon fill="#63b8ff" stroke="#63b8ff" points="367.58,-207.82 378.01,-205.96 368.69,-200.91 367.58,-207.82"/>
</a>
</g>
</g>
<!-- Node4 -->
<g id="Node000004" class="node">
<title>Node4</title>
<g id="a_Node000004"><a xlink:href="../../d8/d5b/namespaceaopp__deconv__tool_1_1text.html#a1496cf89a275b1b851ff81f401628c27" target="_top" xlink:title=" ">
<polygon fill="white" stroke="#666666" points="727,-245.5 554,-245.5 554,-215.5 727,-215.5 727,-245.5"/>
<text text-anchor="start" x="562" y="-233.5" font-family="Helvetica,sans-Serif" font-size="10.00">aopp_deconv_tool.text.combine</text>
<text text-anchor="middle" x="640.5" y="-222.5" font-family="Helvetica,sans-Serif" font-size="10.00">_lines_with_same_indent</text>
</a>
</g>
</g>
<!-- Node3&#45;&gt;Node4 -->
<g id="edge4_Node000003_Node000004" class="edge">
<title>Node3&#45;&gt;Node4</title>
<g id="a_edge4_Node000003_Node000004"><a xlink:title=" ">
<path fill="none" stroke="#63b8ff" d="M515.66,-221.24C524.83,-221.92 534.29,-222.63 543.69,-223.33"/>
<polygon fill="#63b8ff" stroke="#63b8ff" points="543.62,-226.84 553.85,-224.09 544.14,-219.86 543.62,-226.84"/>
</a>
</g>
</g>
<!-- Node6 -->
<g id="Node000006" class="node">
<title>Node6</title>
<g id="a_Node000006"><a xlink:href="../../dc/dd6/namespaceaopp__deconv__tool_1_1extract__sources.html#a581f53e8d68270d8c2adfc73ae191c9e" target="_top" xlink:title=" ">
<polygon fill="white" stroke="#666666" points="516.5,-137.5 359.5,-137.5 359.5,-107.5 516.5,-107.5 516.5,-137.5"/>
<text text-anchor="start" x="367.5" y="-125.5" font-family="Helvetica,sans-Serif" font-size="10.00">aopp_deconv_tool.extract</text>
<text text-anchor="middle" x="438" y="-114.5" font-family="Helvetica,sans-Serif" font-size="10.00">_sources.get_source_regions</text>
</a>
</g>
</g>
<!-- Node5&#45;&gt;Node6 -->
<g id="edge6_Node000005_Node000006" class="edge">
<title>Node5&#45;&gt;Node6</title>
<g id="a_edge6_Node000005_Node000006"><a xlink:title=" ">
<path fill="none" stroke="#63b8ff" d="M322.16,-122.5C331.01,-122.5 340.15,-122.5 349.22,-122.5"/>
<polygon fill="#63b8ff" stroke="#63b8ff" points="349.42,-126 359.42,-122.5 349.42,-119 349.42,-126"/>
</a>
</g>
</g>
<!-- Node11 -->
<g id="Node000011" class="node">
<title>Node11</title>
<g id="a_Node000011"><a xlink:href="../../dc/dd6/namespaceaopp__deconv__tool_1_1extract__sources.html#a9af1e9b1b9224b168ef97c8d1274dbb5" target="_top" xlink:title=" ">
<polygon fill="white" stroke="#666666" points="518,-89.5 358,-89.5 358,-59.5 518,-59.5 518,-89.5"/>
<text text-anchor="start" x="366" y="-77.5" font-family="Helvetica,sans-Serif" font-size="10.00">aopp_deconv_tool.extract</text>
<text text-anchor="middle" x="438" y="-66.5" font-family="Helvetica,sans-Serif" font-size="10.00">_sources.plot_source_regions</text>
</a>
</g>
</g>
<!-- Node5&#45;&gt;Node11 -->
<g id="edge11_Node000005_Node000011" class="edge">
<title>Node5&#45;&gt;Node11</title>
<g id="a_edge11_Node000005_Node000011"><a xlink:title=" ">
<path fill="none" stroke="#63b8ff" d="M309.68,-107.44C328.59,-102.55 349.73,-97.08 369.27,-92.02"/>
<polygon fill="#63b8ff" stroke="#63b8ff" points="370.22,-95.4 379.02,-89.5 368.46,-88.62 370.22,-95.4"/>
</a>
</g>
</g>
<!-- Node7 -->
<g id="Node000007" class="node">
<title>Node7</title>
<g id="a_Node000007"><a xlink:href="../../dc/dd6/namespaceaopp__deconv__tool_1_1extract__sources.html#adbcb25da7f22db00b21542702aaf2468" target="_top" xlink:title=" ">
<polygon fill="white" stroke="#666666" points="714,-197 567,-197 567,-156 714,-156 714,-197"/>
<text text-anchor="start" x="575" y="-185" font-family="Helvetica,sans-Serif" font-size="10.00">aopp_deconv_tool.extract</text>
<text text-anchor="start" x="575" y="-174" font-family="Helvetica,sans-Serif" font-size="10.00">_sources.labels_and_props</text>
<text text-anchor="middle" x="640.5" y="-163" font-family="Helvetica,sans-Serif" font-size="10.00">_relabel</text>
</a>
</g>
</g>
<!-- Node6&#45;&gt;Node7 -->
<g id="edge7_Node000006_Node000007" class="edge">
<title>Node6&#45;&gt;Node7</title>
<g id="a_edge7_Node000006_Node000007"><a xlink:title=" ">
<path fill="none" stroke="#63b8ff" d="M494.85,-137.54C514.06,-142.71 535.99,-148.62 556.86,-154.24"/>
<polygon fill="#63b8ff" stroke="#63b8ff" points="556.12,-157.67 566.69,-156.89 557.94,-150.91 556.12,-157.67"/>
</a>
</g>
</g>
<!-- Node8 -->
<g id="Node000008" class="node">
<title>Node8</title>
<g id="a_Node000008"><a xlink:href="../../dc/dd6/namespaceaopp__deconv__tool_1_1extract__sources.html#aca2e0095650e47e718cedbfa014d6eea" target="_top" xlink:title=" ">
<polygon fill="white" stroke="#666666" points="712,-137.5 569,-137.5 569,-107.5 712,-107.5 712,-137.5"/>
<text text-anchor="start" x="577" y="-125.5" font-family="Helvetica,sans-Serif" font-size="10.00">aopp_deconv_tool.extract</text>
<text text-anchor="middle" x="640.5" y="-114.5" font-family="Helvetica,sans-Serif" font-size="10.00">_sources.labels_keep</text>
</a>
</g>
</g>
<!-- Node6&#45;&gt;Node8 -->
<g id="edge8_Node000006_Node000008" class="edge">
<title>Node6&#45;&gt;Node8</title>
<g id="a_edge8_Node000006_Node000008"><a xlink:title=" ">
<path fill="none" stroke="#63b8ff" d="M516.52,-122.5C530.35,-122.5 544.79,-122.5 558.72,-122.5"/>
<polygon fill="#63b8ff" stroke="#63b8ff" points="558.75,-126 568.75,-122.5 558.75,-119 558.75,-126"/>
</a>
</g>
</g>
<!-- Node9 -->
<g id="Node000009" class="node">
<title>Node9</title>
<g id="a_Node000009"><a xlink:href="../../dc/dd6/namespaceaopp__deconv__tool_1_1extract__sources.html#a7278356faaf8317968c14794728ddff6" target="_top" xlink:title=" ">
<polygon fill="white" stroke="#666666" points="712,-89.5 569,-89.5 569,-59.5 712,-59.5 712,-89.5"/>
<text text-anchor="start" x="577" y="-77.5" font-family="Helvetica,sans-Serif" font-size="10.00">aopp_deconv_tool.extract</text>
<text text-anchor="middle" x="640.5" y="-66.5" font-family="Helvetica,sans-Serif" font-size="10.00">_sources.props_keep</text>
</a>
</g>
</g>
<!-- Node6&#45;&gt;Node9 -->
<g id="edge9_Node000006_Node000009" class="edge">
<title>Node6&#45;&gt;Node9</title>
<g id="a_edge9_Node000006_Node000009"><a xlink:title=" ">
<path fill="none" stroke="#63b8ff" d="M501.89,-107.44C522.51,-102.51 545.59,-96.98 566.88,-91.89"/>
<polygon fill="#63b8ff" stroke="#63b8ff" points="567.92,-95.23 576.83,-89.5 566.29,-88.43 567.92,-95.23"/>
</a>
</g>
</g>
<!-- Node10 -->
<g id="Node000010" class="node">
<title>Node10</title>
<g id="a_Node000010"><a xlink:href="../../dc/dd6/namespaceaopp__deconv__tool_1_1extract__sources.html#a11af9dc71f91bc529472ad9dbff2c3db" target="_top" xlink:title=" ">
<polygon fill="white" stroke="#666666" points="712,-41 569,-41 569,0 712,0 712,-41"/>
<text text-anchor="start" x="577" y="-29" font-family="Helvetica,sans-Serif" font-size="10.00">aopp_deconv_tool.extract</text>
<text text-anchor="start" x="577" y="-18" font-family="Helvetica,sans-Serif" font-size="10.00">_sources.select_labels</text>
<text text-anchor="middle" x="640.5" y="-7" font-family="Helvetica,sans-Serif" font-size="10.00">_from_props</text>
</a>
</g>
</g>
<!-- Node6&#45;&gt;Node10 -->
<g id="edge10_Node000006_Node000010" class="edge">
<title>Node6&#45;&gt;Node10</title>
<g id="a_edge10_Node000006_Node000010"><a xlink:title=" ">
<path fill="none" stroke="#63b8ff" d="M501.98,-107.47C507.63,-104.92 513.07,-101.95 518,-98.5 539.84,-83.2 532.49,-66.26 554,-50.5 556.11,-48.95 558.31,-47.48 560.57,-46.08"/>
<polygon fill="#63b8ff" stroke="#63b8ff" points="562.57,-48.97 569.58,-41.03 559.15,-42.87 562.57,-48.97"/>
</a>
</g>
</g>
</g>
</svg>

<g id="navigator" transform="translate(0 0)" fill="#404254">
  <rect fill="#f2f5e9" fill-opacity="0.5" stroke="#606060" stroke-width=".5" x="0" y="0" width="60" height="60"/>
  <use id="zoomplus" xlink:href="#zoomPlus" x="17" y="9" onmousedown="handleZoom(evt,'in')"/>
  <use id="zoomminus" xlink:href="#zoomMin" x="42" y="9" onmousedown="handleZoom(evt,'out')"/>
  <use id="reset" xlink:href="#resetDef" x="30" y="36" onmousedown="handleReset()"/>
   <use id="arrowup" xlink:href="#arrowUp" x="0" y="0" onmousedown="handlePan(0,-1)"/>
  <use id="arrowright" xlink:href="#arrowRight" x="0" y="0" onmousedown="handlePan(1,0)"/>
  <use id="arrowdown" xlink:href="#arrowDown" x="0" y="0" onmousedown="handlePan(0,1)"/>
  <use id="arrowleft" xlink:href="#arrowLeft" x="0" y="0" onmousedown="handlePan(-1,0)"/>
</g>
<svg viewBox="0 0 15 15" width="100%" height="30px" preserveAspectRatio="xMaxYMin meet">
 <g id="arrow_out" transform="scale(0.3 0.3)">
  <a xlink:href="namespaceaopp__deconv__tool_1_1extract__sources_ac11710297252459a547bc73b3a48d390_cgraph_org.svg" target="_base">
   <rect id="button" ry="5" rx="5" y="6" x="6" height="38" width="38"
        fill="#f2f5e9" fill-opacity="0.5" stroke="#606060" stroke-width="1.0"/>
   <path id="arrow"
     d="M 11.500037,31.436501 C 11.940474,20.09759 22.043105,11.32322 32.158766,21.979434 L 37.068811,17.246167 C 37.068811,17.246167 37.088388,32 37.088388,32 L 22.160133,31.978069 C 22.160133,31.978069 26.997745,27.140456 26.997745,27.140456 C 18.528582,18.264221 13.291696,25.230495 11.500037,31.436501 z"
     style="fill:#404040;"/>
  </a>
 </g>
</svg>

<style type='text/css'>
<![CDATA[
[data-mouse-over-selected='false'] { opacity: 0.7; }
[data-mouse-over-selected='true']  { opacity: 1.0; }
]]>
</style>
<script type="application/ecmascript"><![CDATA[
document.addEventListener('DOMContentLoaded', (event) => {
  highlightEdges();
  highlightAdjacentNodes();
});
]]></script>
</svg>
