<?xml version="1.0" encoding="UTF-8" standalone="no"?>
<!DOCTYPE svg PUBLIC "-//W3C//DTD SVG 1.1//EN"
 "http://www.w3.org/Graphics/SVG/1.1/DTD/svg11.dtd">
<!-- Generated by graphviz version 2.43.0 (0)
 -->
<!-- Title: aopp_deconv_tool.extract_sources.run Pages: 1 -->
<svg width="530pt" height="259pt"
 viewBox="0.00 0.00 530.00 258.50" xmlns="http://www.w3.org/2000/svg" xmlns:xlink="http://www.w3.org/1999/xlink">
<g id="graph0" class="graph" transform="scale(1 1) rotate(0) translate(4 254.5)">
<title>aopp_deconv_tool.extract_sources.run</title>
<!-- Node1 -->
<g id="node1" class="node">
<title>Node1</title>
<g id="a_node1"><a xlink:title=" ">
<polygon fill="#bfbfbf" stroke="black" points="0,-55.5 0,-85.5 143,-85.5 143,-55.5 0,-55.5"/>
<text text-anchor="start" x="8" y="-73.5" font-family="Helvetica,sans-Serif" font-size="10.00">aopp_deconv_tool.extract</text>
<text text-anchor="middle" x="71.5" y="-62.5" font-family="Helvetica,sans-Serif" font-size="10.00">_sources.run</text>
</a>
</g>
</g>
<!-- Node2 -->
<g id="node2" class="node">
<title>Node2</title>
<g id="a_node2"><a xlink:href="../../dc/dd6/namespaceaopp__deconv__tool_1_1extract__sources.html#a092be941af9125255dc45e32e06f9a57" target="_top" xlink:title=" ">
<polygon fill="none" stroke="black" points="180.5,-110.5 180.5,-140.5 337.5,-140.5 337.5,-110.5 180.5,-110.5"/>
<text text-anchor="start" x="188.5" y="-128.5" font-family="Helvetica,sans-Serif" font-size="10.00">aopp_deconv_tool.extract</text>
<text text-anchor="middle" x="259" y="-117.5" font-family="Helvetica,sans-Serif" font-size="10.00">_sources.get_source_regions</text>
</a>
</g>
</g>
<!-- Node1&#45;&gt;Node2 -->
<g id="edge1" class="edge">
<title>Node1&#45;&gt;Node2</title>
<path fill="none" stroke="midnightblue" d="M123.19,-85.53C146.19,-92.35 173.58,-100.47 197.64,-107.6"/>
<polygon fill="midnightblue" stroke="midnightblue" points="196.79,-111 207.37,-110.49 198.78,-104.29 196.79,-111"/>
</g>
<!-- Node7 -->
<g id="node7" class="node">
<title>Node7</title>
<g id="a_node7"><a xlink:href="../../dc/dd6/namespaceaopp__deconv__tool_1_1extract__sources.html#a49d1861ad880b0306c6d26aa2c19e238" target="_top" xlink:title=" ">
<polygon fill="none" stroke="black" points="179,-31.5 179,-61.5 339,-61.5 339,-31.5 179,-31.5"/>
<text text-anchor="start" x="187" y="-49.5" font-family="Helvetica,sans-Serif" font-size="10.00">aopp_deconv_tool.extract</text>
<text text-anchor="middle" x="259" y="-38.5" font-family="Helvetica,sans-Serif" font-size="10.00">_sources.plot_source_regions</text>
</a>
</g>
</g>
<!-- Node1&#45;&gt;Node7 -->
<g id="edge6" class="edge">
<title>Node1&#45;&gt;Node7</title>
<path fill="none" stroke="midnightblue" d="M143.16,-61.36C151.55,-60.27 160.19,-59.15 168.8,-58.04"/>
<polygon fill="midnightblue" stroke="midnightblue" points="169.39,-61.49 178.86,-56.74 168.5,-54.55 169.39,-61.49"/>
</g>
<!-- Node3 -->
<g id="node3" class="node">
<title>Node3</title>
<g id="a_node3"><a xlink:href="../../dc/dd6/namespaceaopp__deconv__tool_1_1extract__sources.html#a3f85c920bc8ce61cc0f59fcfbb17da9b" target="_top" xlink:title=" ">
<polygon fill="none" stroke="black" points="375,-209 375,-250 522,-250 522,-209 375,-209"/>
<text text-anchor="start" x="383" y="-238" font-family="Helvetica,sans-Serif" font-size="10.00">aopp_deconv_tool.extract</text>
<text text-anchor="start" x="383" y="-227" font-family="Helvetica,sans-Serif" font-size="10.00">_sources.labels_and_props</text>
<text text-anchor="middle" x="448.5" y="-216" font-family="Helvetica,sans-Serif" font-size="10.00">_relabel</text>
</a>
</g>
</g>
<!-- Node2&#45;&gt;Node3 -->
<g id="edge2" class="edge">
<title>Node2&#45;&gt;Node3</title>
<path fill="none" stroke="midnightblue" d="M280.93,-140.6C303.46,-156.46 340.71,-181.56 375,-199.5 378.43,-201.3 382,-203.06 385.62,-204.79"/>
<polygon fill="midnightblue" stroke="midnightblue" points="384.17,-207.97 394.72,-208.97 387.09,-201.61 384.17,-207.97"/>
</g>
<!-- Node4 -->
<g id="node4" class="node">
<title>Node4</title>
<g id="a_node4"><a xlink:href="../../dc/dd6/namespaceaopp__deconv__tool_1_1extract__sources.html#aabf07f824e9ce430b1c369a2a7e3bd68" target="_top" xlink:title=" ">
<polygon fill="none" stroke="black" points="377,-159.5 377,-189.5 520,-189.5 520,-159.5 377,-159.5"/>
<text text-anchor="start" x="385" y="-177.5" font-family="Helvetica,sans-Serif" font-size="10.00">aopp_deconv_tool.extract</text>
<text text-anchor="middle" x="448.5" y="-166.5" font-family="Helvetica,sans-Serif" font-size="10.00">_sources.labels_keep</text>
</a>
</g>
</g>
<!-- Node2&#45;&gt;Node4 -->
<g id="edge3" class="edge">
<title>Node2&#45;&gt;Node4</title>
<path fill="none" stroke="midnightblue" d="M317.53,-140.53C337.33,-145.71 359.67,-151.55 380.18,-156.91"/>
<polygon fill="midnightblue" stroke="midnightblue" points="379.52,-160.35 390.08,-159.49 381.29,-153.58 379.52,-160.35"/>
</g>
<!-- Node5 -->
<g id="node5" class="node">
<title>Node5</title>
<g id="a_node5"><a xlink:href="../../dc/dd6/namespaceaopp__deconv__tool_1_1extract__sources.html#a7ee33efcfbec20767ae1c1abff3543c2" target="_top" xlink:title=" ">
<polygon fill="none" stroke="black" points="377,-110.5 377,-140.5 520,-140.5 520,-110.5 377,-110.5"/>
<text text-anchor="start" x="385" y="-128.5" font-family="Helvetica,sans-Serif" font-size="10.00">aopp_deconv_tool.extract</text>
<text text-anchor="middle" x="448.5" y="-117.5" font-family="Helvetica,sans-Serif" font-size="10.00">_sources.props_keep</text>
</a>
</g>
</g>
<!-- Node2&#45;&gt;Node5 -->
<g id="edge4" class="edge">
<title>Node2&#45;&gt;Node5</title>
<path fill="none" stroke="midnightblue" d="M337.62,-125.5C347.26,-125.5 357.14,-125.5 366.83,-125.5"/>
<polygon fill="midnightblue" stroke="midnightblue" points="366.85,-129 376.85,-125.5 366.85,-122 366.85,-129"/>
</g>
<!-- Node6 -->
<g id="node6" class="node">
<title>Node6</title>
<g id="a_node6"><a xlink:href="../../dc/dd6/namespaceaopp__deconv__tool_1_1extract__sources.html#a7cc2946bb5e69aa45f508001b841994a" target="_top" xlink:title=" ">
<polygon fill="none" stroke="black" points="377,-50 377,-91 520,-91 520,-50 377,-50"/>
<text text-anchor="start" x="385" y="-79" font-family="Helvetica,sans-Serif" font-size="10.00">aopp_deconv_tool.extract</text>
<text text-anchor="start" x="385" y="-68" font-family="Helvetica,sans-Serif" font-size="10.00">_sources.select_labels</text>
<text text-anchor="middle" x="448.5" y="-57" font-family="Helvetica,sans-Serif" font-size="10.00">_from_props</text>
</a>
</g>
</g>
<!-- Node2&#45;&gt;Node6 -->
<g id="edge5" class="edge">
<title>Node2&#45;&gt;Node6</title>
<path fill="none" stroke="midnightblue" d="M311.24,-110.47C328.67,-105.36 348.6,-99.51 367.73,-93.9"/>
<polygon fill="midnightblue" stroke="midnightblue" points="368.74,-97.25 377.35,-91.08 366.77,-90.53 368.74,-97.25"/>
</g>
<!-- Node8 -->
<g id="node8" class="node">
<title>Node8</title>
<g id="a_node8"><a xlink:href="../../de/db0/namespaceaopp__deconv__tool_1_1scipy__helper_1_1label__ops.html#ac2bf445a729acdf9c248252ac139ebbe" target="_top" xlink:title=" ">
<polygon fill="none" stroke="black" points="377,-0.5 377,-30.5 520,-30.5 520,-0.5 377,-0.5"/>
<text text-anchor="start" x="385" y="-18.5" font-family="Helvetica,sans-Serif" font-size="10.00">aopp_deconv_tool.scipy</text>
<text text-anchor="middle" x="448.5" y="-7.5" font-family="Helvetica,sans-Serif" font-size="10.00">_helper.label_ops.remove</text>
</a>
</g>
</g>
<!-- Node7&#45;&gt;Node8 -->
<g id="edge7" class="edge">
<title>Node7&#45;&gt;Node8</title>
<path fill="none" stroke="midnightblue" d="M339.25,-33.4C348.42,-31.88 357.78,-30.33 366.98,-28.81"/>
<polygon fill="midnightblue" stroke="midnightblue" points="367.57,-32.26 376.87,-27.18 366.43,-25.36 367.57,-32.26"/>
</g>
</g>
</svg>
