<?xml version="1.0" encoding="UTF-8" standalone="no"?>
<!DOCTYPE svg PUBLIC "-//W3C//DTD SVG 1.1//EN"
 "http://www.w3.org/Graphics/SVG/1.1/DTD/svg11.dtd">
<!-- Generated by graphviz version 2.43.0 (0)
 -->
<!-- Title: aopp_deconv_tool.extract_sources.select_labels_from_props Pages: 1 -->
<svg width="881pt" height="62pt"
 viewBox="0.00 0.00 881.00 61.50" xmlns="http://www.w3.org/2000/svg" xmlns:xlink="http://www.w3.org/1999/xlink">
<g id="graph0" class="graph" transform="scale(1 1) rotate(0) translate(4 57.5)">
<title>aopp_deconv_tool.extract_sources.select_labels_from_props</title>
<!-- Node1 -->
<g id="Node000001" class="node">
<title>Node1</title>
<g id="a_Node000001"><a xlink:title=" ">
<polygon fill="#999999" stroke="#666666" points="873,-41 730,-41 730,0 873,0 873,-41"/>
<text text-anchor="start" x="738" y="-29" font-family="Helvetica,sans-Serif" font-size="10.00">aopp_deconv_tool.extract</text>
<text text-anchor="start" x="738" y="-18" font-family="Helvetica,sans-Serif" font-size="10.00">_sources.select_labels</text>
<text text-anchor="middle" x="801.5" y="-7" font-family="Helvetica,sans-Serif" font-size="10.00">_from_props</text>
</a>
</g>
</g>
<!-- Node2 -->
<g id="Node000002" class="node">
<title>Node2</title>
<g id="a_Node000002"><a xlink:href="../../dc/dd6/namespaceaopp__deconv__tool_1_1extract__sources.html#a581f53e8d68270d8c2adfc73ae191c9e" target="_top" xlink:title=" ">
<polygon fill="white" stroke="#666666" points="694,-35.5 537,-35.5 537,-5.5 694,-5.5 694,-35.5"/>
<text text-anchor="start" x="545" y="-23.5" font-family="Helvetica,sans-Serif" font-size="10.00">aopp_deconv_tool.extract</text>
<text text-anchor="middle" x="615.5" y="-12.5" font-family="Helvetica,sans-Serif" font-size="10.00">_sources.get_source_regions</text>
</a>
</g>
</g>
<!-- Node1&#45;&gt;Node2 -->
<g id="edge1_Node000001_Node000002" class="edge">
<title>Node1&#45;&gt;Node2</title>
<g id="a_edge1_Node000001_Node000002"><a xlink:title=" ">
<path fill="none" stroke="#63b8ff" d="M719.68,-20.5C711.24,-20.5 702.68,-20.5 694.27,-20.5"/>
<polygon fill="#63b8ff" stroke="#63b8ff" points="719.89,-24 729.89,-20.5 719.89,-17 719.89,-24"/>
</a>
</g>
</g>
<!-- Node3 -->
<g id="Node000003" class="node">
<title>Node3</title>
<g id="a_Node000003"><a xlink:href="../../dc/dd6/namespaceaopp__deconv__tool_1_1extract__sources.html#a4d76cf5a47bfbc53002b866d627ada93" target="_top" xlink:title=" ">
<polygon fill="white" stroke="#666666" points="501,-35.5 358,-35.5 358,-5.5 501,-5.5 501,-35.5"/>
<text text-anchor="start" x="366" y="-23.5" font-family="Helvetica,sans-Serif" font-size="10.00">aopp_deconv_tool.extract</text>
<text text-anchor="middle" x="429.5" y="-12.5" font-family="Helvetica,sans-Serif" font-size="10.00">_sources.run</text>
</a>
</g>
</g>
<!-- Node2&#45;&gt;Node3 -->
<g id="edge2_Node000002_Node000003" class="edge">
<title>Node2&#45;&gt;Node3</title>
<g id="a_edge2_Node000002_Node000003"><a xlink:title=" ">
<path fill="none" stroke="#63b8ff" d="M526.47,-20.5C518.02,-20.5 509.52,-20.5 501.27,-20.5"/>
<polygon fill="#63b8ff" stroke="#63b8ff" points="526.73,-24 536.73,-20.5 526.73,-17 526.73,-24"/>
</a>
</g>
</g>
<!-- Node4 -->
<g id="Node000004" class="node">
<title>Node4</title>
<g id="a_Node000004"><a xlink:href="../../dc/dd6/namespaceaopp__deconv__tool_1_1extract__sources.html#ac11710297252459a547bc73b3a48d390" target="_top" xlink:title=" ">
<polygon fill="white" stroke="#666666" points="322,-35.5 179,-35.5 179,-5.5 322,-5.5 322,-35.5"/>
<text text-anchor="start" x="187" y="-23.5" font-family="Helvetica,sans-Serif" font-size="10.00">aopp_deconv_tool.extract</text>
<text text-anchor="middle" x="250.5" y="-12.5" font-family="Helvetica,sans-Serif" font-size="10.00">_sources.exec_with_args</text>
</a>
</g>
</g>
<!-- Node3&#45;&gt;Node4 -->
<g id="edge3_Node000003_Node000004" class="edge">
<title>Node3&#45;&gt;Node4</title>
<g id="a_edge3_Node000003_Node000004"><a xlink:title=" ">
<path fill="none" stroke="#63b8ff" d="M347.51,-20.5C339.03,-20.5 330.46,-20.5 322.11,-20.5"/>
<polygon fill="#63b8ff" stroke="#63b8ff" points="347.78,-24 357.78,-20.5 347.78,-17 347.78,-24"/>
</a>
</g>
</g>
<!-- Node4&#45;&gt;Node4 -->
<g id="edge4_Node000004_Node000004" class="edge">
<title>Node4&#45;&gt;Node4</title>
<g id="a_edge4_Node000004_Node000004"><a xlink:title=" ">
<path fill="none" stroke="#63b8ff" d="M281.66,-46.1C277.4,-50.47 267.01,-53.5 250.5,-53.5 222.69,-53.5 212.26,-44.91 219.21,-35.78"/>
<polygon fill="#63b8ff" stroke="#63b8ff" points="285.16,-45.82 281.79,-35.78 278.16,-45.73 285.16,-45.82"/>
</a>
</g>
</g>
<!-- Node5 -->
<g id="Node000005" class="node">
<title>Node5</title>
<g id="a_Node000005"><a xlink:href="../../dc/dd6/namespaceaopp__deconv__tool_1_1extract__sources.html#a8fb4f3b3f5c3db5a9ec1ab735c86715e" target="_top" xlink:title=" ">
<polygon fill="white" stroke="#666666" points="143,-35.5 0,-35.5 0,-5.5 143,-5.5 143,-35.5"/>
<text text-anchor="start" x="8" y="-23.5" font-family="Helvetica,sans-Serif" font-size="10.00">aopp_deconv_tool.extract</text>
<text text-anchor="middle" x="71.5" y="-12.5" font-family="Helvetica,sans-Serif" font-size="10.00">_sources.go</text>
</a>
</g>
</g>
<!-- Node4&#45;&gt;Node5 -->
<g id="edge5_Node000004_Node000005" class="edge">
<title>Node4&#45;&gt;Node5</title>
<g id="a_edge5_Node000004_Node000005"><a xlink:title=" ">
<path fill="none" stroke="#63b8ff" d="M168.51,-20.5C160.03,-20.5 151.46,-20.5 143.11,-20.5"/>
<polygon fill="#63b8ff" stroke="#63b8ff" points="168.78,-24 178.78,-20.5 168.78,-17 168.78,-24"/>
</a>
</g>
</g>
</g>
</svg>
