<?xml version="1.0" encoding="UTF-8" standalone="no"?>
<!DOCTYPE svg PUBLIC "-//W3C//DTD SVG 1.1//EN"
 "http://www.w3.org/Graphics/SVG/1.1/DTD/svg11.dtd">
<!-- Generated by graphviz version 2.43.0 (0)
 -->
<!-- Title: aopp_deconv_tool.extract_sources.run Pages: 1 -->
<svg width="530pt" height="205pt"
 viewBox="0.00 0.00 530.00 205.00" xmlns="http://www.w3.org/2000/svg" xmlns:xlink="http://www.w3.org/1999/xlink">
<g id="graph0" class="graph" transform="scale(1 1) rotate(0) translate(4 201)">
<title>aopp_deconv_tool.extract_sources.run</title>
<!-- Node1 -->
<g id="Node000001" class="node">
<title>Node1</title>
<g id="a_Node000001"><a xlink:title=" ">
<polygon fill="#999999" stroke="#666666" points="143,-89.5 0,-89.5 0,-59.5 143,-59.5 143,-89.5"/>
<text text-anchor="start" x="8" y="-77.5" font-family="Helvetica,sans-Serif" font-size="10.00">aopp_deconv_tool.extract</text>
<text text-anchor="middle" x="71.5" y="-66.5" font-family="Helvetica,sans-Serif" font-size="10.00">_sources.run</text>
</a>
</g>
</g>
<!-- Node2 -->
<g id="Node000002" class="node">
<title>Node2</title>
<g id="a_Node000002"><a xlink:href="../../dc/dd6/namespaceaopp__deconv__tool_1_1extract__sources.html#a581f53e8d68270d8c2adfc73ae191c9e" target="_top" xlink:title=" ">
<polygon fill="white" stroke="#666666" points="337.5,-113.5 180.5,-113.5 180.5,-83.5 337.5,-83.5 337.5,-113.5"/>
<text text-anchor="start" x="188.5" y="-101.5" font-family="Helvetica,sans-Serif" font-size="10.00">aopp_deconv_tool.extract</text>
<text text-anchor="middle" x="259" y="-90.5" font-family="Helvetica,sans-Serif" font-size="10.00">_sources.get_source_regions</text>
</a>
</g>
</g>
<!-- Node1&#45;&gt;Node2 -->
<g id="edge1_Node000001_Node000002" class="edge">
<title>Node1&#45;&gt;Node2</title>
<g id="a_edge1_Node000001_Node000002"><a xlink:title=" ">
<path fill="none" stroke="#63b8ff" d="M143.16,-83.64C152.01,-84.79 161.15,-85.97 170.22,-87.14"/>
<polygon fill="#63b8ff" stroke="#63b8ff" points="170.06,-90.65 180.42,-88.46 170.95,-83.71 170.06,-90.65"/>
</a>
</g>
</g>
<!-- Node7 -->
<g id="Node000007" class="node">
<title>Node7</title>
<g id="a_Node000007"><a xlink:href="../../dc/dd6/namespaceaopp__deconv__tool_1_1extract__sources.html#a9af1e9b1b9224b168ef97c8d1274dbb5" target="_top" xlink:title=" ">
<polygon fill="white" stroke="#666666" points="339,-65.5 179,-65.5 179,-35.5 339,-35.5 339,-65.5"/>
<text text-anchor="start" x="187" y="-53.5" font-family="Helvetica,sans-Serif" font-size="10.00">aopp_deconv_tool.extract</text>
<text text-anchor="middle" x="259" y="-42.5" font-family="Helvetica,sans-Serif" font-size="10.00">_sources.plot_source_regions</text>
</a>
</g>
</g>
<!-- Node1&#45;&gt;Node7 -->
<g id="edge6_Node000001_Node000007" class="edge">
<title>Node1&#45;&gt;Node7</title>
<g id="a_edge6_Node000001_Node000007"><a xlink:title=" ">
<path fill="none" stroke="#63b8ff" d="M143.16,-65.36C151.55,-64.27 160.19,-63.15 168.8,-62.04"/>
<polygon fill="#63b8ff" stroke="#63b8ff" points="169.39,-65.49 178.86,-60.74 168.5,-58.55 169.39,-65.49"/>
</a>
</g>
</g>
<!-- Node3 -->
<g id="Node000003" class="node">
<title>Node3</title>
<g id="a_Node000003"><a xlink:href="../../dc/dd6/namespaceaopp__deconv__tool_1_1extract__sources.html#adbcb25da7f22db00b21542702aaf2468" target="_top" xlink:title=" ">
<polygon fill="white" stroke="#666666" points="522,-197 375,-197 375,-156 522,-156 522,-197"/>
<text text-anchor="start" x="383" y="-185" font-family="Helvetica,sans-Serif" font-size="10.00">aopp_deconv_tool.extract</text>
<text text-anchor="start" x="383" y="-174" font-family="Helvetica,sans-Serif" font-size="10.00">_sources.labels_and_props</text>
<text text-anchor="middle" x="448.5" y="-163" font-family="Helvetica,sans-Serif" font-size="10.00">_relabel</text>
</a>
</g>
</g>
<!-- Node2&#45;&gt;Node3 -->
<g id="edge2_Node000002_Node000003" class="edge">
<title>Node2&#45;&gt;Node3</title>
<g id="a_edge2_Node000002_Node000003"><a xlink:title=" ">
<path fill="none" stroke="#63b8ff" d="M295.99,-113.55C318.65,-123.03 348.53,-135.5 375,-146.5 379.33,-148.3 383.81,-150.16 388.32,-152.03"/>
<polygon fill="#63b8ff" stroke="#63b8ff" points="386.99,-155.27 397.57,-155.86 389.67,-148.8 386.99,-155.27"/>
</a>
</g>
</g>
<!-- Node4 -->
<g id="Node000004" class="node">
<title>Node4</title>
<g id="a_Node000004"><a xlink:href="../../dc/dd6/namespaceaopp__deconv__tool_1_1extract__sources.html#aca2e0095650e47e718cedbfa014d6eea" target="_top" xlink:title=" ">
<polygon fill="white" stroke="#666666" points="520,-137.5 377,-137.5 377,-107.5 520,-107.5 520,-137.5"/>
<text text-anchor="start" x="385" y="-125.5" font-family="Helvetica,sans-Serif" font-size="10.00">aopp_deconv_tool.extract</text>
<text text-anchor="middle" x="448.5" y="-114.5" font-family="Helvetica,sans-Serif" font-size="10.00">_sources.labels_keep</text>
</a>
</g>
</g>
<!-- Node2&#45;&gt;Node4 -->
<g id="edge3_Node000002_Node000004" class="edge">
<title>Node2&#45;&gt;Node4</title>
<g id="a_edge3_Node000002_Node000004"><a xlink:title=" ">
<path fill="none" stroke="#63b8ff" d="M337.62,-108.43C347.26,-109.67 357.14,-110.93 366.83,-112.17"/>
<polygon fill="#63b8ff" stroke="#63b8ff" points="366.48,-115.66 376.85,-113.46 367.37,-108.71 366.48,-115.66"/>
</a>
</g>
</g>
<!-- Node5 -->
<g id="Node000005" class="node">
<title>Node5</title>
<g id="a_Node000005"><a xlink:href="../../dc/dd6/namespaceaopp__deconv__tool_1_1extract__sources.html#a7278356faaf8317968c14794728ddff6" target="_top" xlink:title=" ">
<polygon fill="white" stroke="#666666" points="520,-89.5 377,-89.5 377,-59.5 520,-59.5 520,-89.5"/>
<text text-anchor="start" x="385" y="-77.5" font-family="Helvetica,sans-Serif" font-size="10.00">aopp_deconv_tool.extract</text>
<text text-anchor="middle" x="448.5" y="-66.5" font-family="Helvetica,sans-Serif" font-size="10.00">_sources.props_keep</text>
</a>
</g>
</g>
<!-- Node2&#45;&gt;Node5 -->
<g id="edge4_Node000002_Node000005" class="edge">
<title>Node2&#45;&gt;Node5</title>
<g id="a_edge4_Node000002_Node000005"><a xlink:title=" ">
<path fill="none" stroke="#63b8ff" d="M337.62,-88.57C347.26,-87.33 357.14,-86.07 366.83,-84.83"/>
<polygon fill="#63b8ff" stroke="#63b8ff" points="367.37,-88.29 376.85,-83.54 366.48,-81.34 367.37,-88.29"/>
</a>
</g>
</g>
<!-- Node6 -->
<g id="Node000006" class="node">
<title>Node6</title>
<g id="a_Node000006"><a xlink:href="../../dc/dd6/namespaceaopp__deconv__tool_1_1extract__sources.html#a11af9dc71f91bc529472ad9dbff2c3db" target="_top" xlink:title=" ">
<polygon fill="white" stroke="#666666" points="520,-41 377,-41 377,0 520,0 520,-41"/>
<text text-anchor="start" x="385" y="-29" font-family="Helvetica,sans-Serif" font-size="10.00">aopp_deconv_tool.extract</text>
<text text-anchor="start" x="385" y="-18" font-family="Helvetica,sans-Serif" font-size="10.00">_sources.select_labels</text>
<text text-anchor="middle" x="448.5" y="-7" font-family="Helvetica,sans-Serif" font-size="10.00">_from_props</text>
</a>
</g>
</g>
<!-- Node2&#45;&gt;Node6 -->
<g id="edge5_Node000002_Node000006" class="edge">
<title>Node2&#45;&gt;Node6</title>
<g id="a_edge5_Node000002_Node000006"><a xlink:title=" ">
<path fill="none" stroke="#63b8ff" d="M316.87,-83.43C324.44,-80.79 332,-77.81 339,-74.5 356.39,-66.28 358.03,-59.55 375,-50.5 378.26,-48.76 381.64,-47.06 385.07,-45.4"/>
<polygon fill="#63b8ff" stroke="#63b8ff" points="386.69,-48.5 394.28,-41.11 383.73,-42.16 386.69,-48.5"/>
</a>
</g>
</g>
</g>
</svg>
