<?xml version="1.0" encoding="UTF-8" standalone="no"?>
<!DOCTYPE svg PUBLIC "-//W3C//DTD SVG 1.1//EN"
 "http://www.w3.org/Graphics/SVG/1.1/DTD/svg11.dtd">
<!-- Generated by graphviz version 2.43.0 (0)
 -->
<!-- Title: aopp_deconv_tool.geometry.bounding_box.BoundingBox.inflate Pages: 1 -->
<svg width="448pt" height="86pt"
 viewBox="0.00 0.00 448.00 86.00" xmlns="http://www.w3.org/2000/svg" xmlns:xlink="http://www.w3.org/1999/xlink">
<g id="graph0" class="graph" transform="scale(1 1) rotate(0) translate(4 82)">
<title>aopp_deconv_tool.geometry.bounding_box.BoundingBox.inflate</title>
<!-- Node1 -->
<g id="Node000001" class="node">
<title>Node1</title>
<g id="a_Node000001"><a xlink:title=" ">
<polygon fill="#999999" stroke="#666666" points="202,-54 0,-54 0,-24 202,-24 202,-54"/>
<text text-anchor="start" x="8" y="-42" font-family="Helvetica,sans-Serif" font-size="10.00">aopp_deconv_tool.geometry.bounding</text>
<text text-anchor="middle" x="101" y="-31" font-family="Helvetica,sans-Serif" font-size="10.00">_box.BoundingBox.inflate</text>
</a>
</g>
</g>
<!-- Node2 -->
<g id="Node000002" class="node">
<title>Node2</title>
<g id="a_Node000002"><a xlink:href="../../dd/dde/classaopp__deconv__tool_1_1geo__array_1_1GeoArray.html#a984a762fd8c683cf9db6d4fb4f68787e" target="_top" xlink:title=" ">
<polygon fill="white" stroke="#666666" points="403,-78 275,-78 275,-48 403,-48 403,-78"/>
<text text-anchor="start" x="283" y="-66" font-family="Helvetica,sans-Serif" font-size="10.00">aopp_deconv_tool.geo</text>
<text text-anchor="middle" x="339" y="-55" font-family="Helvetica,sans-Serif" font-size="10.00">_array.GeoArray.extent</text>
</a>
</g>
</g>
<!-- Node1&#45;&gt;Node2 -->
<g id="edge1_Node000001_Node000002" class="edge">
<title>Node1&#45;&gt;Node2</title>
<g id="a_edge1_Node000001_Node000002"><a xlink:title=" ">
<path fill="none" stroke="#63b8ff" d="M202.09,-49.18C223.05,-51.31 244.79,-53.52 264.58,-55.53"/>
<polygon fill="#63b8ff" stroke="#63b8ff" points="264.42,-59.04 274.73,-56.57 265.13,-52.07 264.42,-59.04"/>
</a>
</g>
</g>
<!-- Node3 -->
<g id="Node000003" class="node">
<title>Node3</title>
<g id="a_Node000003"><a xlink:href="../../d4/d16/classaopp__deconv__tool_1_1geometry_1_1bounding__box_1_1BoundingBox.html#ae434d489f41b1c2206592d48b6afd3f0" target="_top" xlink:title=" ">
<polygon fill="white" stroke="#666666" points="440,-30 238,-30 238,0 440,0 440,-30"/>
<text text-anchor="start" x="246" y="-18" font-family="Helvetica,sans-Serif" font-size="10.00">aopp_deconv_tool.geometry.bounding</text>
<text text-anchor="middle" x="339" y="-7" font-family="Helvetica,sans-Serif" font-size="10.00">_box.BoundingBox.extent</text>
</a>
</g>
</g>
<!-- Node1&#45;&gt;Node3 -->
<g id="edge2_Node000001_Node000003" class="edge">
<title>Node1&#45;&gt;Node3</title>
<g id="a_edge2_Node000001_Node000003"><a xlink:title=" ">
<path fill="none" stroke="#63b8ff" d="M202.09,-28.82C210.57,-27.96 219.19,-27.08 227.75,-26.21"/>
<polygon fill="#63b8ff" stroke="#63b8ff" points="228.17,-29.69 237.76,-25.19 227.46,-22.72 228.17,-29.69"/>
</a>
</g>
</g>
</g>
</svg>
