<?xml version="1.0" encoding="UTF-8" standalone="no"?>
<!DOCTYPE svg PUBLIC "-//W3C//DTD SVG 1.1//EN"
 "http://www.w3.org/Graphics/SVG/1.1/DTD/svg11.dtd">
<!-- Generated by graphviz version 2.43.0 (0)
 -->
<!-- Title: aopp_deconv_tool.geometry.bounding_box.BoundingBox.inflate Pages: 1 -->
<svg width="448pt" height="88pt"
 viewBox="0.00 0.00 448.00 88.00" xmlns="http://www.w3.org/2000/svg" xmlns:xlink="http://www.w3.org/1999/xlink">
<g id="graph0" class="graph" transform="scale(1 1) rotate(0) translate(4 84)">
<title>aopp_deconv_tool.geometry.bounding_box.BoundingBox.inflate</title>
<!-- Node1 -->
<g id="node1" class="node">
<title>Node1</title>
<g id="a_node1"><a xlink:title=" ">
<polygon fill="#bfbfbf" stroke="black" points="0,-24.5 0,-54.5 202,-54.5 202,-24.5 0,-24.5"/>
<text text-anchor="start" x="8" y="-42.5" font-family="Helvetica,sans-Serif" font-size="10.00">aopp_deconv_tool.geometry.bounding</text>
<text text-anchor="middle" x="101" y="-31.5" font-family="Helvetica,sans-Serif" font-size="10.00">_box.BoundingBox.inflate</text>
</a>
</g>
</g>
<!-- Node2 -->
<g id="node2" class="node">
<title>Node2</title>
<g id="a_node2"><a xlink:href="../../dd/dde/classaopp__deconv__tool_1_1geo__array_1_1GeoArray.html#aecd422226a40aae43985616d0bce39e3" target="_top" xlink:title=" ">
<polygon fill="none" stroke="black" points="275,-49.5 275,-79.5 403,-79.5 403,-49.5 275,-49.5"/>
<text text-anchor="start" x="283" y="-67.5" font-family="Helvetica,sans-Serif" font-size="10.00">aopp_deconv_tool.geo</text>
<text text-anchor="middle" x="339" y="-56.5" font-family="Helvetica,sans-Serif" font-size="10.00">_array.GeoArray.extent</text>
</a>
</g>
</g>
<!-- Node1&#45;&gt;Node2 -->
<g id="edge1" class="edge">
<title>Node1&#45;&gt;Node2</title>
<path fill="none" stroke="midnightblue" d="M202.09,-50.1C223.05,-52.32 244.79,-54.63 264.58,-56.72"/>
<polygon fill="midnightblue" stroke="midnightblue" points="264.41,-60.22 274.73,-57.8 265.15,-53.26 264.41,-60.22"/>
</g>
<!-- Node3 -->
<g id="node3" class="node">
<title>Node3</title>
<g id="a_node3"><a xlink:href="../../d4/d16/classaopp__deconv__tool_1_1geometry_1_1bounding__box_1_1BoundingBox.html#ae434d489f41b1c2206592d48b6afd3f0" target="_top" xlink:title=" ">
<polygon fill="none" stroke="black" points="238,-0.5 238,-30.5 440,-30.5 440,-0.5 238,-0.5"/>
<text text-anchor="start" x="246" y="-18.5" font-family="Helvetica,sans-Serif" font-size="10.00">aopp_deconv_tool.geometry.bounding</text>
<text text-anchor="middle" x="339" y="-7.5" font-family="Helvetica,sans-Serif" font-size="10.00">_box.BoundingBox.extent</text>
</a>
</g>
</g>
<!-- Node1&#45;&gt;Node3 -->
<g id="edge2" class="edge">
<title>Node1&#45;&gt;Node3</title>
<path fill="none" stroke="midnightblue" d="M202.09,-29.32C210.57,-28.46 219.19,-27.58 227.75,-26.71"/>
<polygon fill="midnightblue" stroke="midnightblue" points="228.17,-30.19 237.76,-25.69 227.46,-23.22 228.17,-30.19"/>
</g>
</g>
</svg>
