<?xml version="1.0" encoding="UTF-8" standalone="no"?>
<!DOCTYPE svg PUBLIC "-//W3C//DTD SVG 1.1//EN"
 "http://www.w3.org/Graphics/SVG/1.1/DTD/svg11.dtd">
<!-- Generated by graphviz version 2.43.0 (0)
 -->
<!-- Title: optical_component.sign Pages: 1 -->
<svg width="365pt" height="137pt"
 viewBox="0.00 0.00 365.00 137.00" xmlns="http://www.w3.org/2000/svg" xmlns:xlink="http://www.w3.org/1999/xlink">
<g id="graph0" class="graph" transform="scale(1 1) rotate(0) translate(4 133)">
<title>optical_component.sign</title>
<!-- Node1 -->
<g id="node1" class="node">
<title>Node1</title>
<g id="a_node1"><a xlink:title=" ">
<polygon fill="#bfbfbf" stroke="black" points="224,-55 224,-74 357,-74 357,-55 224,-55"/>
<text text-anchor="middle" x="290.5" y="-62" font-family="Helvetica,sans-Serif" font-size="10.00">optical_component.sign</text>
</a>
</g>
</g>
<!-- Node2 -->
<g id="node2" class="node">
<title>Node2</title>
<g id="a_node2"><a xlink:href="../../db/db5/classoptical__component_1_1Refractor.html#a293fba1fb4f24bd778083583bc6d9db7" target="_top" xlink:title=" ">
<polygon fill="none" stroke="black" points="6,-98.5 6,-128.5 182,-128.5 182,-98.5 6,-98.5"/>
<text text-anchor="start" x="14" y="-116.5" font-family="Helvetica,sans-Serif" font-size="10.00">optical_component.Refractor.out</text>
<text text-anchor="middle" x="94" y="-105.5" font-family="Helvetica,sans-Serif" font-size="10.00">_light_beam</text>
</a>
</g>
</g>
<!-- Node1&#45;&gt;Node2 -->
<g id="edge1" class="edge">
<title>Node1&#45;&gt;Node2</title>
<path fill="none" stroke="midnightblue" d="M241.81,-76.51C215.53,-83.14 182.66,-91.42 154.69,-98.46"/>
<polygon fill="midnightblue" stroke="midnightblue" points="242.69,-79.9 251.54,-74.06 240.98,-73.11 242.69,-79.9"/>
</g>
<!-- Node3 -->
<g id="node3" class="node">
<title>Node3</title>
<g id="a_node3"><a xlink:href="../../df/d27/classoptical__component_1_1Aperture.html#acee3228d118688f0b282fa0dd2174407" target="_top" xlink:title=" ">
<polygon fill="none" stroke="black" points="7.5,-49.5 7.5,-79.5 180.5,-79.5 180.5,-49.5 7.5,-49.5"/>
<text text-anchor="start" x="15.5" y="-67.5" font-family="Helvetica,sans-Serif" font-size="10.00">optical_component.Aperture.out</text>
<text text-anchor="middle" x="94" y="-56.5" font-family="Helvetica,sans-Serif" font-size="10.00">_light_beam</text>
</a>
</g>
</g>
<!-- Node1&#45;&gt;Node3 -->
<g id="edge2" class="edge">
<title>Node1&#45;&gt;Node3</title>
<path fill="none" stroke="midnightblue" d="M213.67,-64.5C202.85,-64.5 191.65,-64.5 180.65,-64.5"/>
<polygon fill="midnightblue" stroke="midnightblue" points="213.92,-68 223.92,-64.5 213.92,-61 213.92,-68"/>
</g>
<!-- Node4 -->
<g id="node4" class="node">
<title>Node4</title>
<g id="a_node4"><a xlink:href="../../d6/d5b/classoptical__component_1_1Obstruction.html#a047f3df6799989eced45a2b384a598a9" target="_top" xlink:title=" ">
<polygon fill="none" stroke="black" points="0,-0.5 0,-30.5 188,-30.5 188,-0.5 0,-0.5"/>
<text text-anchor="start" x="8" y="-18.5" font-family="Helvetica,sans-Serif" font-size="10.00">optical_component.Obstruction.out</text>
<text text-anchor="middle" x="94" y="-7.5" font-family="Helvetica,sans-Serif" font-size="10.00">_light_beam</text>
</a>
</g>
</g>
<!-- Node1&#45;&gt;Node4 -->
<g id="edge3" class="edge">
<title>Node1&#45;&gt;Node4</title>
<path fill="none" stroke="midnightblue" d="M241.81,-52.49C215.53,-45.86 182.66,-37.58 154.69,-30.54"/>
<polygon fill="midnightblue" stroke="midnightblue" points="240.98,-55.89 251.54,-54.94 242.69,-49.1 240.98,-55.89"/>
</g>
</g>
</svg>
