<?xml version="1.0" encoding="UTF-8" standalone="no"?>
<!DOCTYPE svg PUBLIC "-//W3C//DTD SVG 1.1//EN"
 "http://www.w3.org/Graphics/SVG/1.1/DTD/svg11.dtd">
<!-- Generated by graphviz version 2.43.0 (0)
 -->
<!-- Title: optical_component.sign Pages: 1 -->
<svg width="365pt" height="134pt"
 viewBox="0.00 0.00 365.00 134.00" xmlns="http://www.w3.org/2000/svg" xmlns:xlink="http://www.w3.org/1999/xlink">
<g id="graph0" class="graph" transform="scale(1 1) rotate(0) translate(4 130)">
<title>optical_component.sign</title>
<!-- Node1 -->
<g id="Node000001" class="node">
<title>Node1</title>
<g id="a_Node000001"><a xlink:title=" ">
<polygon fill="#999999" stroke="#666666" points="357,-72.5 224,-72.5 224,-53.5 357,-53.5 357,-72.5"/>
<text text-anchor="middle" x="290.5" y="-60.5" font-family="Helvetica,sans-Serif" font-size="10.00">optical_component.sign</text>
</a>
</g>
</g>
<!-- Node2 -->
<g id="Node000002" class="node">
<title>Node2</title>
<g id="a_Node000002"><a xlink:href="../../db/db5/classoptical__component_1_1Refractor.html#a293fba1fb4f24bd778083583bc6d9db7" target="_top" xlink:title=" ">
<polygon fill="white" stroke="#666666" points="182,-126 6,-126 6,-96 182,-96 182,-126"/>
<text text-anchor="start" x="14" y="-114" font-family="Helvetica,sans-Serif" font-size="10.00">optical_component.Refractor.out</text>
<text text-anchor="middle" x="94" y="-103" font-family="Helvetica,sans-Serif" font-size="10.00">_light_beam</text>
</a>
</g>
</g>
<!-- Node1&#45;&gt;Node2 -->
<g id="edge1_Node000001_Node000002" class="edge">
<title>Node1&#45;&gt;Node2</title>
<g id="a_edge1_Node000001_Node000002"><a xlink:title=" ">
<path fill="none" stroke="#63b8ff" d="M240.73,-75.04C215.06,-81.37 183.33,-89.2 156.04,-95.94"/>
<polygon fill="#63b8ff" stroke="#63b8ff" points="241.74,-78.39 250.61,-72.6 240.06,-71.6 241.74,-78.39"/>
</a>
</g>
</g>
<!-- Node3 -->
<g id="Node000003" class="node">
<title>Node3</title>
<g id="a_Node000003"><a xlink:href="../../df/d27/classoptical__component_1_1Aperture.html#acee3228d118688f0b282fa0dd2174407" target="_top" xlink:title=" ">
<polygon fill="white" stroke="#666666" points="180.5,-78 7.5,-78 7.5,-48 180.5,-48 180.5,-78"/>
<text text-anchor="start" x="15.5" y="-66" font-family="Helvetica,sans-Serif" font-size="10.00">optical_component.Aperture.out</text>
<text text-anchor="middle" x="94" y="-55" font-family="Helvetica,sans-Serif" font-size="10.00">_light_beam</text>
</a>
</g>
</g>
<!-- Node1&#45;&gt;Node3 -->
<g id="edge2_Node000001_Node000003" class="edge">
<title>Node1&#45;&gt;Node3</title>
<g id="a_edge2_Node000001_Node000003"><a xlink:title=" ">
<path fill="none" stroke="#63b8ff" d="M213.67,-63C202.85,-63 191.65,-63 180.65,-63"/>
<polygon fill="#63b8ff" stroke="#63b8ff" points="213.92,-66.5 223.92,-63 213.92,-59.5 213.92,-66.5"/>
</a>
</g>
</g>
<!-- Node4 -->
<g id="Node000004" class="node">
<title>Node4</title>
<g id="a_Node000004"><a xlink:href="../../d6/d5b/classoptical__component_1_1Obstruction.html#a047f3df6799989eced45a2b384a598a9" target="_top" xlink:title=" ">
<polygon fill="white" stroke="#666666" points="188,-30 0,-30 0,0 188,0 188,-30"/>
<text text-anchor="start" x="8" y="-18" font-family="Helvetica,sans-Serif" font-size="10.00">optical_component.Obstruction.out</text>
<text text-anchor="middle" x="94" y="-7" font-family="Helvetica,sans-Serif" font-size="10.00">_light_beam</text>
</a>
</g>
</g>
<!-- Node1&#45;&gt;Node4 -->
<g id="edge3_Node000001_Node000004" class="edge">
<title>Node1&#45;&gt;Node4</title>
<g id="a_edge3_Node000001_Node000004"><a xlink:title=" ">
<path fill="none" stroke="#63b8ff" d="M240.73,-50.96C215.06,-44.63 183.33,-36.8 156.04,-30.06"/>
<polygon fill="#63b8ff" stroke="#63b8ff" points="240.06,-54.4 250.61,-53.4 241.74,-47.61 240.06,-54.4"/>
</a>
</g>
</g>
</g>
</svg>
