<?xml version="1.0" encoding="UTF-8" standalone="no"?>
<!DOCTYPE svg PUBLIC "-//W3C//DTD SVG 1.1//EN"
 "http://www.w3.org/Graphics/SVG/1.1/DTD/svg11.dtd">
<!-- Generated by graphviz version 2.43.0 (0)
 -->
<!-- Title: aopp_deconv_tool.plot_helper.figure_n_subplots Pages: 1 -->
<svg width="313pt" height="122pt"
 viewBox="0.00 0.00 313.00 121.50" xmlns="http://www.w3.org/2000/svg" xmlns:xlink="http://www.w3.org/1999/xlink">
<g id="graph0" class="graph" transform="scale(1 1) rotate(0) translate(4 117.5)">
<title>aopp_deconv_tool.plot_helper.figure_n_subplots</title>
<!-- Node1 -->
<g id="node1" class="node">
<title>Node1</title>
<g id="a_node1"><a xlink:title=" ">
<polygon fill="#bfbfbf" stroke="black" points="0,-44.5 0,-74.5 142,-74.5 142,-44.5 0,-44.5"/>
<text text-anchor="start" x="8" y="-62.5" font-family="Helvetica,sans-Serif" font-size="10.00">aopp_deconv_tool.plot</text>
<text text-anchor="middle" x="71" y="-51.5" font-family="Helvetica,sans-Serif" font-size="10.00">_helper.figure_n_subplots</text>
</a>
</g>
</g>
<!-- Node2 -->
<g id="node2" class="node">
<title>Node2</title>
<g id="a_node2"><a xlink:href="../../d5/d6b/namespaceaopp__deconv__tool_1_1plot__helper.html#a6ada9daf78ed770c4c609a5c14c40ab1" target="_top" xlink:title=" ">
<polygon fill="none" stroke="black" points="178,-72 178,-113 305,-113 305,-72 178,-72"/>
<text text-anchor="start" x="186" y="-101" font-family="Helvetica,sans-Serif" font-size="10.00">aopp_deconv_tool.plot</text>
<text text-anchor="start" x="186" y="-90" font-family="Helvetica,sans-Serif" font-size="10.00">_helper.create_figure</text>
<text text-anchor="middle" x="241.5" y="-79" font-family="Helvetica,sans-Serif" font-size="10.00">_with_subplots</text>
</a>
</g>
</g>
<!-- Node1&#45;&gt;Node2 -->
<g id="edge1" class="edge">
<title>Node1&#45;&gt;Node2</title>
<path fill="none" stroke="midnightblue" d="M142.48,-73.3C150.91,-74.95 159.52,-76.64 167.98,-78.3"/>
<polygon fill="midnightblue" stroke="midnightblue" points="167.32,-81.74 177.81,-80.22 168.67,-74.87 167.32,-81.74"/>
</g>
<!-- Node3 -->
<g id="node3" class="node">
<title>Node3</title>
<g id="a_node3"><a xlink:href="../../d5/d6b/namespaceaopp__deconv__tool_1_1plot__helper.html#a0e5617af3727a79b924970a2aa3e652b" target="_top" xlink:title=" ">
<polygon fill="none" stroke="black" points="178,-0.5 178,-52.5 305,-52.5 305,-0.5 178,-0.5"/>
<text text-anchor="start" x="186" y="-40.5" font-family="Helvetica,sans-Serif" font-size="10.00">aopp_deconv_tool.plot</text>
<text text-anchor="start" x="186" y="-29.5" font-family="Helvetica,sans-Serif" font-size="10.00">_helper.lowest_aspect</text>
<text text-anchor="start" x="186" y="-18.5" font-family="Helvetica,sans-Serif" font-size="10.00">_ratio_rectangle_of_at</text>
<text text-anchor="middle" x="241.5" y="-7.5" font-family="Helvetica,sans-Serif" font-size="10.00">_least_area</text>
</a>
</g>
</g>
<!-- Node1&#45;&gt;Node3 -->
<g id="edge2" class="edge">
<title>Node1&#45;&gt;Node3</title>
<path fill="none" stroke="midnightblue" d="M142.48,-45.7C150.91,-44.05 159.52,-42.36 167.98,-40.7"/>
<polygon fill="midnightblue" stroke="midnightblue" points="168.67,-44.13 177.81,-38.78 167.32,-37.26 168.67,-44.13"/>
</g>
</g>
</svg>
