<?xml version="1.0" encoding="UTF-8" standalone="no"?>
<!DOCTYPE svg PUBLIC "-//W3C//DTD SVG 1.1//EN"
 "http://www.w3.org/Graphics/SVG/1.1/DTD/svg11.dtd">
<!-- Generated by graphviz version 2.43.0 (0)
 -->
<!-- Title: aopp_deconv_tool.plot_helper.figure_n_subplots Pages: 1 -->
<svg width="311pt" height="120pt"
 viewBox="0.00 0.00 311.00 119.50" xmlns="http://www.w3.org/2000/svg" xmlns:xlink="http://www.w3.org/1999/xlink">
<g id="graph0" class="graph" transform="scale(1 1) rotate(0) translate(4 115.5)">
<title>aopp_deconv_tool.plot_helper.figure_n_subplots</title>
<!-- Node1 -->
<g id="Node000001" class="node">
<title>Node1</title>
<g id="a_Node000001"><a xlink:title=" ">
<polygon fill="#999999" stroke="#666666" points="140,-73 0,-73 0,-43 140,-43 140,-73"/>
<text text-anchor="start" x="8" y="-61" font-family="Helvetica,sans-Serif" font-size="10.00">aopp_deconv_tool.plot</text>
<text text-anchor="middle" x="70" y="-50" font-family="Helvetica,sans-Serif" font-size="10.00">_helper.figure_n_subplots</text>
</a>
</g>
</g>
<!-- Node2 -->
<g id="Node000002" class="node">
<title>Node2</title>
<g id="a_Node000002"><a xlink:href="../../d5/d6b/namespaceaopp__deconv__tool_1_1plot__helper.html#a0346e481463010b1565ba3a3a433177e" target="_top" xlink:title=" ">
<polygon fill="white" stroke="#666666" points="303,-111.5 176,-111.5 176,-70.5 303,-70.5 303,-111.5"/>
<text text-anchor="start" x="184" y="-99.5" font-family="Helvetica,sans-Serif" font-size="10.00">aopp_deconv_tool.plot</text>
<text text-anchor="start" x="184" y="-88.5" font-family="Helvetica,sans-Serif" font-size="10.00">_helper.create_figure</text>
<text text-anchor="middle" x="239.5" y="-77.5" font-family="Helvetica,sans-Serif" font-size="10.00">_with_subplots</text>
</a>
</g>
</g>
<!-- Node1&#45;&gt;Node2 -->
<g id="edge1_Node000001_Node000002" class="edge">
<title>Node1&#45;&gt;Node2</title>
<g id="a_edge1_Node000001_Node000002"><a xlink:title=" ">
<path fill="none" stroke="#63b8ff" d="M140.1,-71.61C148.58,-73.28 157.27,-75 165.81,-76.68"/>
<polygon fill="#63b8ff" stroke="#63b8ff" points="165.25,-80.14 175.74,-78.63 166.6,-73.27 165.25,-80.14"/>
</a>
</g>
</g>
<!-- Node3 -->
<g id="Node000003" class="node">
<title>Node3</title>
<g id="a_Node000003"><a xlink:href="../../d5/d6b/namespaceaopp__deconv__tool_1_1plot__helper.html#afad805b82da00c1b17500849b56d5151" target="_top" xlink:title=" ">
<polygon fill="white" stroke="#666666" points="303,-52 176,-52 176,0 303,0 303,-52"/>
<text text-anchor="start" x="184" y="-40" font-family="Helvetica,sans-Serif" font-size="10.00">aopp_deconv_tool.plot</text>
<text text-anchor="start" x="184" y="-29" font-family="Helvetica,sans-Serif" font-size="10.00">_helper.lowest_aspect</text>
<text text-anchor="start" x="184" y="-18" font-family="Helvetica,sans-Serif" font-size="10.00">_ratio_rectangle_of_at</text>
<text text-anchor="middle" x="239.5" y="-7" font-family="Helvetica,sans-Serif" font-size="10.00">_least_area</text>
</a>
</g>
</g>
<!-- Node1&#45;&gt;Node3 -->
<g id="edge2_Node000001_Node000003" class="edge">
<title>Node1&#45;&gt;Node3</title>
<g id="a_edge2_Node000001_Node000003"><a xlink:title=" ">
<path fill="none" stroke="#63b8ff" d="M140.1,-44.8C148.58,-43.18 157.27,-41.52 165.81,-39.89"/>
<polygon fill="#63b8ff" stroke="#63b8ff" points="166.57,-43.31 175.74,-37.99 165.26,-36.43 166.57,-43.31"/>
</a>
</g>
</g>
</g>
</svg>
