<?xml version="1.0" encoding="UTF-8" standalone="no"?>
<!DOCTYPE svg PUBLIC "-//W3C//DTD SVG 1.1//EN"
 "http://www.w3.org/Graphics/SVG/1.1/DTD/svg11.dtd">
<!-- Generated by graphviz version 2.43.0 (0)
 -->
<!-- Title: aopp_deconv_tool.plot_helper.base.Base Pages: 1 -->
<svg width="847pt" height="115pt"
 viewBox="0.00 0.00 846.50 115.00" xmlns="http://www.w3.org/2000/svg" xmlns:xlink="http://www.w3.org/1999/xlink">
<g id="graph0" class="graph" transform="scale(1 1) rotate(0) translate(4 111)">
<title>aopp_deconv_tool.plot_helper.base.Base</title>
<!-- Node1 -->
<g id="Node000001" class="node">
<title>Node1</title>
<g id="a_Node000001"><a xlink:title=" ">
<polygon fill="#999999" stroke="#666666" points="528,-30 401,-30 401,0 528,0 528,-30"/>
<text text-anchor="start" x="409" y="-18" font-family="Helvetica,sans-Serif" font-size="10.00">aopp_deconv_tool.plot</text>
<text text-anchor="middle" x="464.5" y="-7" font-family="Helvetica,sans-Serif" font-size="10.00">_helper.base.Base</text>
</a>
</g>
</g>
<!-- Node2 -->
<g id="Node000002" class="node">
<title>Node2</title>
<g id="a_Node000002"><a xlink:title=" ">
<polygon fill="white" stroke="#666666" points="29,-107 0,-107 0,-88 29,-88 29,-107"/>
<text text-anchor="middle" x="14.5" y="-95" font-family="Helvetica,sans-Serif" font-size="10.00">str</text>
</a>
</g>
</g>
<!-- Node2&#45;&gt;Node1 -->
<g id="edge1_Node000001_Node000002" class="edge">
<title>Node2&#45;&gt;Node1</title>
<g id="a_edge1_Node000001_Node000002"><a xlink:title=" ">
<path fill="none" stroke="#9a32cd" stroke-dasharray="5,2" d="M20.43,-78.51C24.97,-67.76 32.37,-54.88 43.5,-48 73.11,-29.69 290.67,-20.93 400.89,-17.63"/>
<polygon fill="#9a32cd" stroke="#9a32cd" points="17.14,-77.32 16.92,-87.91 23.7,-79.76 17.14,-77.32"/>
</a>
</g>
<text text-anchor="middle" x="89" y="-62" font-family="Helvetica,sans-Serif" font-size="10.00" fill="grey"> datasource_name</text>
<text text-anchor="middle" x="89" y="-51" font-family="Helvetica,sans-Serif" font-size="10.00" fill="grey">title</text>
</g>
<!-- Node3 -->
<g id="Node000003" class="node">
<title>Node3</title>
<g id="a_Node000003"><a xlink:title=" ">
<polygon fill="white" stroke="#666666" points="149,-107 108,-107 108,-88 149,-88 149,-107"/>
<text text-anchor="middle" x="128.5" y="-95" font-family="Helvetica,sans-Serif" font-size="10.00">tuple</text>
</a>
</g>
</g>
<!-- Node3&#45;&gt;Node1 -->
<g id="edge2_Node000001_Node000003" class="edge">
<title>Node3&#45;&gt;Node1</title>
<g id="a_edge2_Node000001_Node000003"><a xlink:title=" ">
<path fill="none" stroke="#9a32cd" stroke-dasharray="5,2" d="M133.89,-78.32C138.03,-67.68 144.88,-55 155.5,-48 194.5,-22.28 322.24,-16.72 400.74,-15.81"/>
<polygon fill="#9a32cd" stroke="#9a32cd" points="130.51,-77.39 130.61,-87.99 137.14,-79.64 130.51,-77.39"/>
</a>
</g>
<text text-anchor="middle" x="207.5" y="-62" font-family="Helvetica,sans-Serif" font-size="10.00" fill="grey"> axis_data_mappings</text>
<text text-anchor="middle" x="207.5" y="-51" font-family="Helvetica,sans-Serif" font-size="10.00" fill="grey">axis_labels</text>
</g>
<!-- Node4 -->
<g id="Node000004" class="node">
<title>Node4</title>
<g id="a_Node000004"><a xlink:title=" ">
<polygon fill="white" stroke="#666666" points="274.5,-107 236.5,-107 236.5,-88 274.5,-88 274.5,-107"/>
<text text-anchor="middle" x="255.5" y="-95" font-family="Helvetica,sans-Serif" font-size="10.00">bool</text>
</a>
</g>
</g>
<!-- Node4&#45;&gt;Node1 -->
<g id="edge3_Node000001_Node000004" class="edge">
<title>Node4&#45;&gt;Node1</title>
<g id="a_edge3_Node000001_Node000004"><a xlink:title=" ">
<path fill="none" stroke="#9a32cd" stroke-dasharray="5,2" d="M260.18,-77.92C263.76,-67.54 269.78,-55.26 279.5,-48 298.44,-33.86 355.27,-25.47 401,-20.86"/>
<polygon fill="#9a32cd" stroke="#9a32cd" points="256.74,-77.19 257.28,-87.77 263.46,-79.17 256.74,-77.19"/>
</a>
</g>
<text text-anchor="middle" x="312" y="-56.5" font-family="Helvetica,sans-Serif" font-size="10.00" fill="grey"> static_frame</text>
</g>
<!-- Node5 -->
<g id="Node000005" class="node">
<title>Node5</title>
<g id="a_Node000005"><a xlink:title=" ">
<polygon fill="white" stroke="#666666" points="361,-107 326,-107 326,-88 361,-88 361,-107"/>
<text text-anchor="middle" x="343.5" y="-95" font-family="Helvetica,sans-Serif" font-size="10.00">dict</text>
</a>
</g>
</g>
<!-- Node5&#45;&gt;Node1 -->
<g id="edge4_Node000001_Node000005" class="edge">
<title>Node5&#45;&gt;Node1</title>
<g id="a_edge4_Node000001_Node000005"><a xlink:title=" ">
<path fill="none" stroke="#9a32cd" stroke-dasharray="5,2" d="M346.76,-77.77C349.41,-67.7 354.15,-55.79 362.5,-48 373.15,-38.06 386.86,-31.21 400.75,-26.48"/>
<polygon fill="#9a32cd" stroke="#9a32cd" points="343.31,-77.18 344.62,-87.69 350.15,-78.65 343.31,-77.18"/>
</a>
</g>
<text text-anchor="middle" x="411.5" y="-62" font-family="Helvetica,sans-Serif" font-size="10.00" fill="grey"> plt_kwargs</text>
<text text-anchor="middle" x="411.5" y="-51" font-family="Helvetica,sans-Serif" font-size="10.00" fill="grey">show_limits_in_title</text>
</g>
<!-- Node6 -->
<g id="Node000006" class="node">
<title>Node6</title>
<g id="a_Node000006"><a xlink:title=" ">
<polygon fill="white" stroke="#666666" points="480.5,-107 448.5,-107 448.5,-88 480.5,-88 480.5,-107"/>
<text text-anchor="middle" x="464.5" y="-95" font-family="Helvetica,sans-Serif" font-size="10.00">list</text>
</a>
</g>
</g>
<!-- Node6&#45;&gt;Node1 -->
<g id="edge5_Node000001_Node000006" class="edge">
<title>Node6&#45;&gt;Node1</title>
<g id="a_edge5_Node000001_Node000006"><a xlink:title=" ">
<path fill="none" stroke="#9a32cd" stroke-dasharray="5,2" d="M464.5,-77.6C464.5,-63.1 464.5,-43.4 464.5,-30.22"/>
<polygon fill="#9a32cd" stroke="#9a32cd" points="461,-77.89 464.5,-87.89 468,-77.89 461,-77.89"/>
</a>
</g>
<text text-anchor="middle" x="488" y="-56.5" font-family="Helvetica,sans-Serif" font-size="10.00" fill="grey"> ax_funcs</text>
</g>
<!-- Node7 -->
<g id="Node000007" class="node">
<title>Node7</title>
<g id="a_Node000007"><a xlink:title=" ">
<polygon fill="white" stroke="#666666" points="545,-107 510,-107 510,-88 545,-88 545,-107"/>
<text text-anchor="middle" x="527.5" y="-95" font-family="Helvetica,sans-Serif" font-size="10.00">mpl</text>
</a>
</g>
</g>
<!-- Node7&#45;&gt;Node1 -->
<g id="edge6_Node000001_Node000007" class="edge">
<title>Node7&#45;&gt;Node1</title>
<g id="a_edge6_Node000001_Node000007"><a xlink:title=" ">
<path fill="none" stroke="#9a32cd" stroke-dasharray="5,2" d="M524.77,-77.67C522.65,-68.07 518.94,-56.63 512.5,-48 507.23,-40.94 499.91,-34.95 492.57,-30.13"/>
<polygon fill="#9a32cd" stroke="#9a32cd" points="521.38,-78.6 526.59,-87.82 528.27,-77.36 521.38,-78.6"/>
</a>
</g>
<text text-anchor="middle" x="530.5" y="-56.5" font-family="Helvetica,sans-Serif" font-size="10.00" fill="grey"> ax</text>
</g>
<!-- Node8 -->
<g id="Node000008" class="node">
<title>Node8</title>
<g id="a_Node000008"><a xlink:title=" ">
<polygon fill="white" stroke="#666666" points="598,-107 563,-107 563,-88 598,-88 598,-107"/>
<text text-anchor="middle" x="580.5" y="-95" font-family="Helvetica,sans-Serif" font-size="10.00">Any</text>
</a>
</g>
</g>
<!-- Node8&#45;&gt;Node1 -->
<g id="edge7_Node000001_Node000008" class="edge">
<title>Node8&#45;&gt;Node1</title>
<g id="a_edge7_Node000001_Node000008"><a xlink:title=" ">
<path fill="none" stroke="#9a32cd" stroke-dasharray="5,2" d="M570.27,-79.31C563.46,-69.09 553.73,-56.5 542.5,-48 532.81,-40.67 521.21,-34.73 509.95,-30.05"/>
<polygon fill="#9a32cd" stroke="#9a32cd" points="567.36,-81.26 575.65,-87.85 573.28,-77.52 567.36,-81.26"/>
</a>
</g>
<text text-anchor="middle" x="591.5" y="-62" font-family="Helvetica,sans-Serif" font-size="10.00" fill="grey"> datasource</text>
<text text-anchor="middle" x="591.5" y="-51" font-family="Helvetica,sans-Serif" font-size="10.00" fill="grey">hdl</text>
</g>
<!-- Node9 -->
<g id="Node000009" class="node">
<title>Node9</title>
<g id="a_Node000009"><a xlink:title=" ">
<polygon fill="white" stroke="#666666" points="682.5,-107 626.5,-107 626.5,-88 682.5,-88 682.5,-107"/>
<text text-anchor="middle" x="654.5" y="-95" font-family="Helvetica,sans-Serif" font-size="10.00">Callable</text>
</a>
</g>
</g>
<!-- Node9&#45;&gt;Node1 -->
<g id="edge8_Node000001_Node000009" class="edge">
<title>Node9&#45;&gt;Node1</title>
<g id="a_edge8_Node000001_Node000009"><a xlink:title=" ">
<path fill="none" stroke="#9a32cd" stroke-dasharray="5,2" d="M647.59,-78.27C642.7,-67.83 635.11,-55.37 624.5,-48 596.58,-28.61 559.68,-20.36 528.35,-17.08"/>
<polygon fill="#9a32cd" stroke="#9a32cd" points="644.49,-79.93 651.59,-87.78 650.94,-77.21 644.49,-79.93"/>
</a>
</g>
<text text-anchor="middle" x="702" y="-56.5" font-family="Helvetica,sans-Serif" font-size="10.00" fill="grey"> datasource_data_getter</text>
</g>
<!-- Node10 -->
<g id="Node000010" class="node">
<title>Node10</title>
<g id="a_Node000010"><a xlink:title=" ">
<polygon fill="white" stroke="#666666" points="811,-107 782,-107 782,-88 811,-88 811,-107"/>
<text text-anchor="middle" x="796.5" y="-95" font-family="Helvetica,sans-Serif" font-size="10.00">int</text>
</a>
</g>
</g>
<!-- Node10&#45;&gt;Node1 -->
<g id="edge9_Node000001_Node000010" class="edge">
<title>Node10&#45;&gt;Node1</title>
<g id="a_edge9_Node000001_Node000010"><a xlink:title=" ">
<path fill="none" stroke="#9a32cd" stroke-dasharray="5,2" d="M789.78,-78.6C784.77,-67.88 776.83,-55.01 765.5,-48 727.07,-24.22 604.4,-17.95 528.04,-16.4"/>
<polygon fill="#9a32cd" stroke="#9a32cd" points="786.6,-80.09 793.69,-87.96 793.06,-77.39 786.6,-80.09"/>
</a>
</g>
<text text-anchor="middle" x="811.5" y="-56.5" font-family="Helvetica,sans-Serif" font-size="10.00" fill="grey"> n_updates</text>
</g>
</g>
</svg>
