<?xml version="1.0" encoding="UTF-8" standalone="no"?>
<!DOCTYPE svg PUBLIC "-//W3C//DTD SVG 1.1//EN"
 "http://www.w3.org/Graphics/SVG/1.1/DTD/svg11.dtd">
<!-- Generated by graphviz version 2.43.0 (0)
 -->
<!-- Title: aopp_deconv_tool.scipy_helper.label_ops.relabel Pages: 1 -->
<svg width="317pt" height="110pt"
 viewBox="0.00 0.00 317.00 110.00" xmlns="http://www.w3.org/2000/svg" xmlns:xlink="http://www.w3.org/1999/xlink">
<g id="graph0" class="graph" transform="scale(1 1) rotate(0) translate(4 106)">
<title>aopp_deconv_tool.scipy_helper.label_ops.relabel</title>
<!-- Node1 -->
<g id="node1" class="node">
<title>Node1</title>
<g id="a_node1"><a xlink:title=" ">
<polygon fill="#bfbfbf" stroke="black" points="170,-36 170,-66 309,-66 309,-36 170,-36"/>
<text text-anchor="start" x="178" y="-54" font-family="Helvetica,sans-Serif" font-size="10.00">aopp_deconv_tool.scipy</text>
<text text-anchor="middle" x="239.5" y="-43" font-family="Helvetica,sans-Serif" font-size="10.00">_helper.label_ops.relabel</text>
</a>
</g>
</g>
<!-- Node2 -->
<g id="node2" class="node">
<title>Node2</title>
<g id="a_node2"><a xlink:href="../../de/db0/namespaceaopp__deconv__tool_1_1scipy__helper_1_1label__ops.html#af0e2615d816b35d8babf018aa973e367" target="_top" xlink:title=" ">
<polygon fill="none" stroke="black" points="0,-60.5 0,-101.5 134,-101.5 134,-60.5 0,-60.5"/>
<text text-anchor="start" x="8" y="-89.5" font-family="Helvetica,sans-Serif" font-size="10.00">aopp_deconv_tool.scipy</text>
<text text-anchor="start" x="8" y="-78.5" font-family="Helvetica,sans-Serif" font-size="10.00">_helper.label_ops.keep</text>
<text text-anchor="middle" x="67" y="-67.5" font-family="Helvetica,sans-Serif" font-size="10.00">_larger_than</text>
</a>
</g>
</g>
<!-- Node1&#45;&gt;Node2 -->
<g id="edge1" class="edge">
<title>Node1&#45;&gt;Node2</title>
<path fill="none" stroke="midnightblue" d="M159.66,-64.87C151.1,-66.38 142.46,-67.9 134.07,-69.37"/>
<polygon fill="midnightblue" stroke="midnightblue" points="160.4,-68.3 169.64,-63.12 159.19,-61.4 160.4,-68.3"/>
</g>
<!-- Node3 -->
<g id="node3" class="node">
<title>Node3</title>
<g id="a_node3"><a xlink:href="../../de/db0/namespaceaopp__deconv__tool_1_1scipy__helper_1_1label__ops.html#a7a3d37a5cc091ee845445c2f96393b98" target="_top" xlink:title=" ">
<polygon fill="none" stroke="black" points="0,-0.5 0,-41.5 134,-41.5 134,-0.5 0,-0.5"/>
<text text-anchor="start" x="8" y="-29.5" font-family="Helvetica,sans-Serif" font-size="10.00">aopp_deconv_tool.scipy</text>
<text text-anchor="start" x="8" y="-18.5" font-family="Helvetica,sans-Serif" font-size="10.00">_helper.label_ops.keep</text>
<text text-anchor="middle" x="67" y="-7.5" font-family="Helvetica,sans-Serif" font-size="10.00">_n_largest</text>
</a>
</g>
</g>
<!-- Node1&#45;&gt;Node3 -->
<g id="edge2" class="edge">
<title>Node1&#45;&gt;Node3</title>
<path fill="none" stroke="midnightblue" d="M159.66,-37.13C151.1,-35.62 142.46,-34.1 134.07,-32.63"/>
<polygon fill="midnightblue" stroke="midnightblue" points="159.19,-40.6 169.64,-38.88 160.4,-33.7 159.19,-40.6"/>
</g>
</g>
</svg>
