<?xml version="1.0" encoding="UTF-8" standalone="no"?>
<!DOCTYPE svg PUBLIC "-//W3C//DTD SVG 1.1//EN"
 "http://www.w3.org/Graphics/SVG/1.1/DTD/svg11.dtd">
<!-- Generated by graphviz version 2.43.0 (0)
 -->
<!-- Title: aopp_deconv_tool.scipy_helper.label_ops.keep_n_largest Pages: 1 -->
<svg width="316pt" height="86pt"
 viewBox="0.00 0.00 316.00 86.00" xmlns="http://www.w3.org/2000/svg" xmlns:xlink="http://www.w3.org/1999/xlink">
<g id="graph0" class="graph" transform="scale(1 1) rotate(0) translate(4 82)">
<title>aopp_deconv_tool.scipy_helper.label_ops.keep_n_largest</title>
<!-- Node1 -->
<g id="Node000001" class="node">
<title>Node1</title>
<g id="a_Node000001"><a xlink:title=" ">
<polygon fill="#999999" stroke="#666666" points="134,-59.5 0,-59.5 0,-18.5 134,-18.5 134,-59.5"/>
<text text-anchor="start" x="8" y="-47.5" font-family="Helvetica,sans-Serif" font-size="10.00">aopp_deconv_tool.scipy</text>
<text text-anchor="start" x="8" y="-36.5" font-family="Helvetica,sans-Serif" font-size="10.00">_helper.label_ops.keep</text>
<text text-anchor="middle" x="67" y="-25.5" font-family="Helvetica,sans-Serif" font-size="10.00">_n_largest</text>
</a>
</g>
</g>
<!-- Node2 -->
<g id="Node000002" class="node">
<title>Node2</title>
<g id="a_Node000002"><a xlink:href="../../de/db0/namespaceaopp__deconv__tool_1_1scipy__helper_1_1label__ops.html#a015698f813bed8fd4b03e8766066f0ee" target="_top" xlink:title=" ">
<polygon fill="white" stroke="#666666" points="306,-78 172,-78 172,-48 306,-48 306,-78"/>
<text text-anchor="start" x="180" y="-66" font-family="Helvetica,sans-Serif" font-size="10.00">aopp_deconv_tool.scipy</text>
<text text-anchor="middle" x="239" y="-55" font-family="Helvetica,sans-Serif" font-size="10.00">_helper.label_ops.keep</text>
</a>
</g>
</g>
<!-- Node1&#45;&gt;Node2 -->
<g id="edge1_Node000001_Node000002" class="edge">
<title>Node1&#45;&gt;Node2</title>
<g id="a_edge1_Node000001_Node000002"><a xlink:title=" ">
<path fill="none" stroke="#63b8ff" d="M134.21,-48.35C143.32,-49.63 152.73,-50.96 161.99,-52.27"/>
<polygon fill="#63b8ff" stroke="#63b8ff" points="161.58,-55.75 171.97,-53.68 162.55,-48.81 161.58,-55.75"/>
</a>
</g>
</g>
<!-- Node3 -->
<g id="Node000003" class="node">
<title>Node3</title>
<g id="a_Node000003"><a xlink:href="../../de/db0/namespaceaopp__deconv__tool_1_1scipy__helper_1_1label__ops.html#afa4852c1ad55dfab38e2a6a8dce756db" target="_top" xlink:title=" ">
<polygon fill="white" stroke="#666666" points="308,-30 170,-30 170,0 308,0 308,-30"/>
<text text-anchor="start" x="178" y="-18" font-family="Helvetica,sans-Serif" font-size="10.00">aopp_deconv_tool.scipy</text>
<text text-anchor="middle" x="239" y="-7" font-family="Helvetica,sans-Serif" font-size="10.00">_helper.label_ops.relabel</text>
</a>
</g>
</g>
<!-- Node1&#45;&gt;Node3 -->
<g id="edge2_Node000001_Node000003" class="edge">
<title>Node1&#45;&gt;Node3</title>
<g id="a_edge2_Node000001_Node000003"><a xlink:title=" ">
<path fill="none" stroke="#63b8ff" d="M134.21,-29.65C142.59,-28.47 151.22,-27.25 159.76,-26.05"/>
<polygon fill="#63b8ff" stroke="#63b8ff" points="160.31,-29.5 169.73,-24.64 159.33,-22.57 160.31,-29.5"/>
</a>
</g>
</g>
</g>
</svg>
