<?xml version="1.0" encoding="UTF-8" standalone="no"?>
<!DOCTYPE svg PUBLIC "-//W3C//DTD SVG 1.1//EN"
 "http://www.w3.org/Graphics/SVG/1.1/DTD/svg11.dtd">
<!-- Generated by graphviz version 2.43.0 (0)
 -->
<!-- Title: aopp_deconv_tool.scipy_helper.label_ops.remove Pages: 1 -->
<svg width="409pt" height="100pt"
 viewBox="0.00 0.00 409.00 99.50" xmlns="http://www.w3.org/2000/svg" xmlns:xlink="http://www.w3.org/1999/xlink">
<g id="graph0" class="graph" transform="scale(1 1) rotate(0) translate(4 95.5)">
<title>aopp_deconv_tool.scipy_helper.label_ops.remove</title>
<!-- Node1 -->
<g id="node1" class="node">
<title>Node1</title>
<g id="a_node1"><a xlink:title=" ">
<polygon fill="#bfbfbf" stroke="black" points="258,-27.5 258,-57.5 401,-57.5 401,-27.5 258,-27.5"/>
<text text-anchor="start" x="266" y="-45.5" font-family="Helvetica,sans-Serif" font-size="10.00">aopp_deconv_tool.scipy</text>
<text text-anchor="middle" x="329.5" y="-34.5" font-family="Helvetica,sans-Serif" font-size="10.00">_helper.label_ops.remove</text>
</a>
</g>
</g>
<!-- Node2 -->
<g id="node2" class="node">
<title>Node2</title>
<g id="a_node2"><a xlink:href="../../d8/dd5/classaopp__deconv__tool_1_1graphical__frontends_1_1ssa__filtering_1_1ImageAggregator.html#a51d4ad35dab59a899aa6dd88e3b2c925" target="_top" xlink:title=" ">
<polygon fill="none" stroke="black" points="0,-50 0,-91 222,-91 222,-50 0,-50"/>
<text text-anchor="start" x="8" y="-79" font-family="Helvetica,sans-Serif" font-size="10.00">aopp_deconv_tool.graphical</text>
<text text-anchor="start" x="8" y="-68" font-family="Helvetica,sans-Serif" font-size="10.00">_frontends.ssa_filtering.ImageAggregator.</text>
<text text-anchor="middle" x="111" y="-57" font-family="Helvetica,sans-Serif" font-size="10.00">__init__</text>
</a>
</g>
</g>
<!-- Node1&#45;&gt;Node2 -->
<g id="edge1" class="edge">
<title>Node1&#45;&gt;Node2</title>
<path fill="none" stroke="midnightblue" d="M247.81,-52.94C239.42,-54.02 230.8,-55.14 222.16,-56.25"/>
<polygon fill="midnightblue" stroke="midnightblue" points="248.44,-56.38 257.91,-51.63 247.54,-49.44 248.44,-56.38"/>
</g>
<!-- Node3 -->
<g id="node3" class="node">
<title>Node3</title>
<g id="a_node3"><a xlink:href="../../de/daa/namespaceaopp__deconv__tool_1_1psf__data__ops.html#a1748b457fcbf82cab1d62a64a5a10c77" target="_top" xlink:title=" ">
<polygon fill="none" stroke="black" points="49.5,-0.5 49.5,-30.5 172.5,-30.5 172.5,-0.5 49.5,-0.5"/>
<text text-anchor="start" x="57.5" y="-18.5" font-family="Helvetica,sans-Serif" font-size="10.00">aopp_deconv_tool.psf</text>
<text text-anchor="middle" x="111" y="-7.5" font-family="Helvetica,sans-Serif" font-size="10.00">_data_ops.fit_to_data</text>
</a>
</g>
</g>
<!-- Node1&#45;&gt;Node3 -->
<g id="edge2" class="edge">
<title>Node1&#45;&gt;Node3</title>
<path fill="none" stroke="midnightblue" d="M247.76,-32.43C222.9,-29.33 195.96,-25.97 172.68,-23.07"/>
<polygon fill="midnightblue" stroke="midnightblue" points="247.55,-35.93 257.91,-33.7 248.42,-28.99 247.55,-35.93"/>
</g>
</g>
</svg>
