<?xml version="1.0" encoding="UTF-8" standalone="no"?>
<!DOCTYPE svg PUBLIC "-//W3C//DTD SVG 1.1//EN"
 "http://www.w3.org/Graphics/SVG/1.1/DTD/svg11.dtd">
<!-- Generated by graphviz version 2.43.0 (0)
 -->
<!-- Title: aopp_deconv_tool.scipy_helper.label_ops.remove Pages: 1 -->
<svg width="946pt" height="149pt"
 viewBox="0.00 0.00 946.00 148.50" xmlns="http://www.w3.org/2000/svg" xmlns:xlink="http://www.w3.org/1999/xlink">
<g id="graph0" class="graph" transform="scale(1 1) rotate(0) translate(4 144.5)">
<title>aopp_deconv_tool.scipy_helper.label_ops.remove</title>
<!-- Node1 -->
<g id="node1" class="node">
<title>Node1</title>
<g id="a_node1"><a xlink:title=" ">
<polygon fill="#bfbfbf" stroke="black" points="795,-49.5 795,-79.5 938,-79.5 938,-49.5 795,-49.5"/>
<text text-anchor="start" x="803" y="-67.5" font-family="Helvetica,sans-Serif" font-size="10.00">aopp_deconv_tool.scipy</text>
<text text-anchor="middle" x="866.5" y="-56.5" font-family="Helvetica,sans-Serif" font-size="10.00">_helper.label_ops.remove</text>
</a>
</g>
</g>
<!-- Node2 -->
<g id="node2" class="node">
<title>Node2</title>
<g id="a_node2"><a xlink:href="../../d8/dd5/classaopp__deconv__tool_1_1graphical__frontends_1_1ssa__filtering_1_1ImageAggregator.html#a51d4ad35dab59a899aa6dd88e3b2c925" target="_top" xlink:title=" ">
<polygon fill="none" stroke="black" points="537,-99 537,-140 759,-140 759,-99 537,-99"/>
<text text-anchor="start" x="545" y="-128" font-family="Helvetica,sans-Serif" font-size="10.00">aopp_deconv_tool.graphical</text>
<text text-anchor="start" x="545" y="-117" font-family="Helvetica,sans-Serif" font-size="10.00">_frontends.ssa_filtering.ImageAggregator.</text>
<text text-anchor="middle" x="648" y="-106" font-family="Helvetica,sans-Serif" font-size="10.00">__init__</text>
</a>
</g>
</g>
<!-- Node1&#45;&gt;Node2 -->
<g id="edge1" class="edge">
<title>Node1&#45;&gt;Node2</title>
<path fill="none" stroke="midnightblue" d="M796.48,-82.03C775.33,-87.41 751.87,-93.37 730,-98.92"/>
<polygon fill="midnightblue" stroke="midnightblue" points="797.51,-85.38 806.34,-79.53 795.79,-78.6 797.51,-85.38"/>
</g>
<!-- Node3 -->
<g id="node3" class="node">
<title>Node3</title>
<g id="a_node3"><a xlink:href="../../de/daa/namespaceaopp__deconv__tool_1_1psf__data__ops.html#a1748b457fcbf82cab1d62a64a5a10c77" target="_top" xlink:title=" ">
<polygon fill="none" stroke="black" points="586.5,-49.5 586.5,-79.5 709.5,-79.5 709.5,-49.5 586.5,-49.5"/>
<text text-anchor="start" x="594.5" y="-67.5" font-family="Helvetica,sans-Serif" font-size="10.00">aopp_deconv_tool.psf</text>
<text text-anchor="middle" x="648" y="-56.5" font-family="Helvetica,sans-Serif" font-size="10.00">_data_ops.fit_to_data</text>
</a>
</g>
</g>
<!-- Node1&#45;&gt;Node3 -->
<g id="edge2" class="edge">
<title>Node1&#45;&gt;Node3</title>
<path fill="none" stroke="midnightblue" d="M784.76,-64.5C759.9,-64.5 732.96,-64.5 709.68,-64.5"/>
<polygon fill="midnightblue" stroke="midnightblue" points="784.91,-68 794.91,-64.5 784.91,-61 784.91,-68"/>
</g>
<!-- Node4 -->
<g id="node4" class="node">
<title>Node4</title>
<g id="a_node4"><a xlink:href="../../dc/dd6/namespaceaopp__deconv__tool_1_1extract__sources.html#a49d1861ad880b0306c6d26aa2c19e238" target="_top" xlink:title=" ">
<polygon fill="none" stroke="black" points="568,-0.5 568,-30.5 728,-30.5 728,-0.5 568,-0.5"/>
<text text-anchor="start" x="576" y="-18.5" font-family="Helvetica,sans-Serif" font-size="10.00">aopp_deconv_tool.extract</text>
<text text-anchor="middle" x="648" y="-7.5" font-family="Helvetica,sans-Serif" font-size="10.00">_sources.plot_source_regions</text>
</a>
</g>
</g>
<!-- Node1&#45;&gt;Node4 -->
<g id="edge3" class="edge">
<title>Node1&#45;&gt;Node4</title>
<path fill="none" stroke="midnightblue" d="M789.25,-47.24C765.12,-41.78 738.67,-35.79 715.3,-30.51"/>
<polygon fill="midnightblue" stroke="midnightblue" points="788.55,-50.67 799.07,-49.47 790.09,-43.84 788.55,-50.67"/>
</g>
<!-- Node5 -->
<g id="node5" class="node">
<title>Node5</title>
<g id="a_node5"><a xlink:href="../../dc/dd6/namespaceaopp__deconv__tool_1_1extract__sources.html#a71ba7a7576bb90388f58eec18881a8b7" target="_top" xlink:title=" ">
<polygon fill="none" stroke="black" points="358,-0.5 358,-30.5 501,-30.5 501,-0.5 358,-0.5"/>
<text text-anchor="start" x="366" y="-18.5" font-family="Helvetica,sans-Serif" font-size="10.00">aopp_deconv_tool.extract</text>
<text text-anchor="middle" x="429.5" y="-7.5" font-family="Helvetica,sans-Serif" font-size="10.00">_sources.run</text>
</a>
</g>
</g>
<!-- Node4&#45;&gt;Node5 -->
<g id="edge4" class="edge">
<title>Node4&#45;&gt;Node5</title>
<path fill="none" stroke="midnightblue" d="M557.82,-15.5C538.92,-15.5 519.22,-15.5 501.13,-15.5"/>
<polygon fill="midnightblue" stroke="midnightblue" points="557.92,-19 567.92,-15.5 557.92,-12 557.92,-19"/>
</g>
<!-- Node6 -->
<g id="node6" class="node">
<title>Node6</title>
<g id="a_node6"><a xlink:href="../../dc/dd6/namespaceaopp__deconv__tool_1_1extract__sources.html#adba97220152c924bb19f483434059202" target="_top" xlink:title=" ">
<polygon fill="none" stroke="black" points="179,-0.5 179,-30.5 322,-30.5 322,-0.5 179,-0.5"/>
<text text-anchor="start" x="187" y="-18.5" font-family="Helvetica,sans-Serif" font-size="10.00">aopp_deconv_tool.extract</text>
<text text-anchor="middle" x="250.5" y="-7.5" font-family="Helvetica,sans-Serif" font-size="10.00">_sources.exec_with_args</text>
</a>
</g>
</g>
<!-- Node5&#45;&gt;Node6 -->
<g id="edge5" class="edge">
<title>Node5&#45;&gt;Node6</title>
<path fill="none" stroke="midnightblue" d="M347.51,-15.5C339.03,-15.5 330.46,-15.5 322.11,-15.5"/>
<polygon fill="midnightblue" stroke="midnightblue" points="347.78,-19 357.78,-15.5 347.78,-12 347.78,-19"/>
</g>
<!-- Node7 -->
<g id="node7" class="node">
<title>Node7</title>
<g id="a_node7"><a xlink:href="../../dc/dd6/namespaceaopp__deconv__tool_1_1extract__sources.html#aa4d56ab52c10b8dc7197d1acd18898bb" target="_top" xlink:title=" ">
<polygon fill="none" stroke="black" points="0,-0.5 0,-30.5 143,-30.5 143,-0.5 0,-0.5"/>
<text text-anchor="start" x="8" y="-18.5" font-family="Helvetica,sans-Serif" font-size="10.00">aopp_deconv_tool.extract</text>
<text text-anchor="middle" x="71.5" y="-7.5" font-family="Helvetica,sans-Serif" font-size="10.00">_sources.go</text>
</a>
</g>
</g>
<!-- Node6&#45;&gt;Node7 -->
<g id="edge6" class="edge">
<title>Node6&#45;&gt;Node7</title>
<path fill="none" stroke="midnightblue" d="M168.51,-15.5C160.03,-15.5 151.46,-15.5 143.11,-15.5"/>
<polygon fill="midnightblue" stroke="midnightblue" points="168.78,-19 178.78,-15.5 168.78,-12 168.78,-19"/>
</g>
</g>
</svg>
