<?xml version="1.0" encoding="UTF-8" standalone="no"?>
<!DOCTYPE svg PUBLIC "-//W3C//DTD SVG 1.1//EN"
 "http://www.w3.org/Graphics/SVG/1.1/DTD/svg11.dtd">
<!-- Generated by graphviz version 2.43.0 (0)
 -->
<!-- Title: aopp_deconv_tool.psf_normalise.go Pages: 1 -->
<svg width="939pt" height="128pt"
 viewBox="0.00 0.00 939.00 128.00" xmlns="http://www.w3.org/2000/svg" xmlns:xlink="http://www.w3.org/1999/xlink">
<g id="graph0" class="graph" transform="scale(1 1) rotate(0) translate(4 124)">
<title>aopp_deconv_tool.psf_normalise.go</title>
<!-- Node1 -->
<g id="Node000001" class="node">
<title>Node1</title>
<g id="a_Node000001"><a xlink:title=" ">
<polygon fill="#999999" stroke="#666666" points="123,-87 0,-87 0,-57 123,-57 123,-87"/>
<text text-anchor="start" x="8" y="-75" font-family="Helvetica,sans-Serif" font-size="10.00">aopp_deconv_tool.psf</text>
<text text-anchor="middle" x="61.5" y="-64" font-family="Helvetica,sans-Serif" font-size="10.00">_normalise.go</text>
</a>
</g>
</g>
<!-- Node2 -->
<g id="Node000002" class="node">
<title>Node2</title>
<g id="a_Node000002"><a xlink:href="../../da/d5f/namespaceaopp__deconv__tool_1_1arguments.html#aec2c9d770d31aa257cf89a398d910714" target="_top" xlink:title=" ">
<polygon fill="white" stroke="#666666" points="368,-120 159,-120 159,-90 368,-90 368,-120"/>
<text text-anchor="start" x="167" y="-108" font-family="Helvetica,sans-Serif" font-size="10.00">aopp_deconv_tool.arguments.construct</text>
<text text-anchor="middle" x="263.5" y="-97" font-family="Helvetica,sans-Serif" font-size="10.00">_arglist_from_locals</text>
</a>
</g>
</g>
<!-- Node1&#45;&gt;Node2 -->
<g id="edge1_Node000001_Node000002" class="edge">
<title>Node1&#45;&gt;Node2</title>
<g id="a_edge1_Node000001_Node000002"><a xlink:title=" ">
<path fill="none" stroke="#63b8ff" d="M123.05,-81.99C135.23,-84 148.35,-86.17 161.49,-88.33"/>
<polygon fill="#63b8ff" stroke="#63b8ff" points="161.09,-91.81 171.53,-89.99 162.23,-84.91 161.09,-91.81"/>
</a>
</g>
</g>
<!-- Node3 -->
<g id="Node000003" class="node">
<title>Node3</title>
<g id="a_Node000003"><a xlink:href="../../da/de2/namespaceaopp__deconv__tool_1_1psf__normalise.html#ad72b9decade1f302c0220c3995f9b699" target="_top" xlink:title=" ">
<polygon fill="white" stroke="#666666" points="338,-54 189,-54 189,-24 338,-24 338,-54"/>
<text text-anchor="start" x="197" y="-42" font-family="Helvetica,sans-Serif" font-size="10.00">aopp_deconv_tool.psf</text>
<text text-anchor="middle" x="263.5" y="-31" font-family="Helvetica,sans-Serif" font-size="10.00">_normalise.exec_with_args</text>
</a>
</g>
</g>
<!-- Node1&#45;&gt;Node3 -->
<g id="edge2_Node000001_Node000003" class="edge">
<title>Node1&#45;&gt;Node3</title>
<g id="a_edge2_Node000001_Node000003"><a xlink:title=" ">
<path fill="none" stroke="#63b8ff" d="M123.05,-62.01C140.59,-59.11 160.06,-55.9 178.75,-52.82"/>
<polygon fill="#63b8ff" stroke="#63b8ff" points="179.45,-56.25 188.74,-51.17 178.31,-49.34 179.45,-56.25"/>
</a>
</g>
</g>
<!-- Node3&#45;&gt;Node3 -->
<g id="edge3_Node000003_Node000003" class="edge">
<title>Node3&#45;&gt;Node3</title>
<g id="a_edge3_Node000003_Node000003"><a xlink:title=" ">
<path fill="none" stroke="#63b8ff" d="M227.99,-54.28C220.1,-63.41 231.94,-72 263.5,-72 282.24,-72 294.03,-68.97 298.86,-64.6"/>
<polygon fill="#63b8ff" stroke="#63b8ff" points="302.36,-64.33 299.01,-54.28 295.36,-64.22 302.36,-64.33"/>
</a>
</g>
</g>
<!-- Node4 -->
<g id="Node000004" class="node">
<title>Node4</title>
<g id="a_Node000004"><a xlink:href="../../da/de2/namespaceaopp__deconv__tool_1_1psf__normalise.html#ab24ef44aec15bef80051e2c36d2cb363" target="_top" xlink:title=" ">
<polygon fill="white" stroke="#666666" points="531,-78 404,-78 404,-48 531,-48 531,-78"/>
<text text-anchor="start" x="412" y="-66" font-family="Helvetica,sans-Serif" font-size="10.00">aopp_deconv_tool.psf</text>
<text text-anchor="middle" x="467.5" y="-55" font-family="Helvetica,sans-Serif" font-size="10.00">_normalise.parse_args</text>
</a>
</g>
</g>
<!-- Node3&#45;&gt;Node4 -->
<g id="edge4_Node000003_Node000004" class="edge">
<title>Node3&#45;&gt;Node4</title>
<g id="a_edge4_Node000003_Node000004"><a xlink:title=" ">
<path fill="none" stroke="#63b8ff" d="M338.28,-47.77C356.36,-49.91 375.7,-52.21 393.73,-54.35"/>
<polygon fill="#63b8ff" stroke="#63b8ff" points="393.54,-57.86 403.88,-55.56 394.37,-50.91 393.54,-57.86"/>
</a>
</g>
</g>
<!-- Node7 -->
<g id="Node000007" class="node">
<title>Node7</title>
<g id="a_Node000007"><a xlink:href="../../da/de2/namespaceaopp__deconv__tool_1_1psf__normalise.html#a72db53bf173a5d54617ef57204658287" target="_top" xlink:title=" ">
<polygon fill="white" stroke="#666666" points="529,-30 406,-30 406,0 529,0 529,-30"/>
<text text-anchor="start" x="414" y="-18" font-family="Helvetica,sans-Serif" font-size="10.00">aopp_deconv_tool.psf</text>
<text text-anchor="middle" x="467.5" y="-7" font-family="Helvetica,sans-Serif" font-size="10.00">_normalise.run</text>
</a>
</g>
</g>
<!-- Node3&#45;&gt;Node7 -->
<g id="edge7_Node000003_Node000007" class="edge">
<title>Node3&#45;&gt;Node7</title>
<g id="a_edge7_Node000003_Node000007"><a xlink:title=" ">
<path fill="none" stroke="#63b8ff" d="M338.28,-30.23C357.02,-28.01 377.1,-25.62 395.68,-23.41"/>
<polygon fill="#63b8ff" stroke="#63b8ff" points="396.32,-26.86 405.83,-22.21 395.49,-19.91 396.32,-26.86"/>
</a>
</g>
</g>
<!-- Node5 -->
<g id="Node000005" class="node">
<title>Node5</title>
<g id="a_Node000005"><a xlink:href="../../d8/d5b/namespaceaopp__deconv__tool_1_1text.html#a75d81e58c71da89b56473e2616edd1c6" target="_top" xlink:title=" ">
<polygon fill="white" stroke="#666666" points="722,-72.5 567,-72.5 567,-53.5 722,-53.5 722,-72.5"/>
<text text-anchor="middle" x="644.5" y="-60.5" font-family="Helvetica,sans-Serif" font-size="10.00">aopp_deconv_tool.text.wrap</text>
</a>
</g>
</g>
<!-- Node4&#45;&gt;Node5 -->
<g id="edge5_Node000004_Node000005" class="edge">
<title>Node4&#45;&gt;Node5</title>
<g id="a_edge5_Node000004_Node000005"><a xlink:title=" ">
<path fill="none" stroke="#63b8ff" d="M531.18,-63C539.5,-63 548.15,-63 556.78,-63"/>
<polygon fill="#63b8ff" stroke="#63b8ff" points="556.89,-66.5 566.89,-63 556.89,-59.5 556.89,-66.5"/>
</a>
</g>
</g>
<!-- Node6 -->
<g id="Node000006" class="node">
<title>Node6</title>
<g id="a_Node000006"><a xlink:href="../../d8/d5b/namespaceaopp__deconv__tool_1_1text.html#a1496cf89a275b1b851ff81f401628c27" target="_top" xlink:title=" ">
<polygon fill="white" stroke="#666666" points="931,-78 758,-78 758,-48 931,-48 931,-78"/>
<text text-anchor="start" x="766" y="-66" font-family="Helvetica,sans-Serif" font-size="10.00">aopp_deconv_tool.text.combine</text>
<text text-anchor="middle" x="844.5" y="-55" font-family="Helvetica,sans-Serif" font-size="10.00">_lines_with_same_indent</text>
</a>
</g>
</g>
<!-- Node5&#45;&gt;Node6 -->
<g id="edge6_Node000005_Node000006" class="edge">
<title>Node5&#45;&gt;Node6</title>
<g id="a_edge6_Node000005_Node000006"><a xlink:title=" ">
<path fill="none" stroke="#63b8ff" d="M722.05,-63C730.5,-63 739.18,-63 747.82,-63"/>
<polygon fill="#63b8ff" stroke="#63b8ff" points="747.94,-66.5 757.94,-63 747.94,-59.5 747.94,-66.5"/>
</a>
</g>
</g>
</g>
</svg>
