<?xml version="1.0" encoding="UTF-8" standalone="no"?>
<!DOCTYPE svg PUBLIC "-//W3C//DTD SVG 1.1//EN"
 "http://www.w3.org/Graphics/SVG/1.1/DTD/svg11.dtd">
<!-- Generated by graphviz version 2.43.0 (0)
 -->
<!-- Title: aopp_deconv_tool.psf_normalise.exec_with_args Pages: 1 -->
<svg width="720pt" height="86pt"
 viewBox="0.00 0.00 720.00 86.00" xmlns="http://www.w3.org/2000/svg" xmlns:xlink="http://www.w3.org/1999/xlink">
<g id="graph0" class="graph" transform="scale(1 1) rotate(0) translate(4 82)">
<title>aopp_deconv_tool.psf_normalise.exec_with_args</title>
<!-- Node1 -->
<g id="Node000001" class="node">
<title>Node1</title>
<g id="a_Node000001"><a xlink:title=" ">
<polygon fill="#999999" stroke="#666666" points="149,-54 0,-54 0,-24 149,-24 149,-54"/>
<text text-anchor="start" x="8" y="-42" font-family="Helvetica,sans-Serif" font-size="10.00">aopp_deconv_tool.psf</text>
<text text-anchor="middle" x="74.5" y="-31" font-family="Helvetica,sans-Serif" font-size="10.00">_normalise.exec_with_args</text>
</a>
</g>
</g>
<!-- Node1&#45;&gt;Node1 -->
<g id="edge1_Node000001_Node000001" class="edge">
<title>Node1&#45;&gt;Node1</title>
<g id="a_edge1_Node000001_Node000001"><a xlink:title=" ">
<path fill="none" stroke="#63b8ff" d="M43.91,-54.28C37.12,-63.41 47.31,-72 74.5,-72 90.64,-72 100.79,-68.97 104.96,-64.6"/>
<polygon fill="#63b8ff" stroke="#63b8ff" points="108.46,-64.32 105.09,-54.28 101.46,-64.23 108.46,-64.32"/>
</a>
</g>
</g>
<!-- Node2 -->
<g id="Node000002" class="node">
<title>Node2</title>
<g id="a_Node000002"><a xlink:href="../../da/de2/namespaceaopp__deconv__tool_1_1psf__normalise.html#ab24ef44aec15bef80051e2c36d2cb363" target="_top" xlink:title=" ">
<polygon fill="white" stroke="#666666" points="312,-78 185,-78 185,-48 312,-48 312,-78"/>
<text text-anchor="start" x="193" y="-66" font-family="Helvetica,sans-Serif" font-size="10.00">aopp_deconv_tool.psf</text>
<text text-anchor="middle" x="248.5" y="-55" font-family="Helvetica,sans-Serif" font-size="10.00">_normalise.parse_args</text>
</a>
</g>
</g>
<!-- Node1&#45;&gt;Node2 -->
<g id="edge2_Node000001_Node000002" class="edge">
<title>Node1&#45;&gt;Node2</title>
<g id="a_edge2_Node000001_Node000002"><a xlink:title=" ">
<path fill="none" stroke="#63b8ff" d="M149.44,-49.32C157.86,-50.49 166.43,-51.69 174.83,-52.86"/>
<polygon fill="#63b8ff" stroke="#63b8ff" points="174.58,-56.36 184.96,-54.27 175.54,-49.43 174.58,-56.36"/>
</a>
</g>
</g>
<!-- Node5 -->
<g id="Node000005" class="node">
<title>Node5</title>
<g id="a_Node000005"><a xlink:href="../../da/de2/namespaceaopp__deconv__tool_1_1psf__normalise.html#a72db53bf173a5d54617ef57204658287" target="_top" xlink:title=" ">
<polygon fill="white" stroke="#666666" points="310,-30 187,-30 187,0 310,0 310,-30"/>
<text text-anchor="start" x="195" y="-18" font-family="Helvetica,sans-Serif" font-size="10.00">aopp_deconv_tool.psf</text>
<text text-anchor="middle" x="248.5" y="-7" font-family="Helvetica,sans-Serif" font-size="10.00">_normalise.run</text>
</a>
</g>
</g>
<!-- Node1&#45;&gt;Node5 -->
<g id="edge5_Node000001_Node000005" class="edge">
<title>Node1&#45;&gt;Node5</title>
<g id="a_edge5_Node000001_Node000005"><a xlink:title=" ">
<path fill="none" stroke="#63b8ff" d="M149.44,-28.68C158.5,-27.42 167.75,-26.13 176.76,-24.87"/>
<polygon fill="#63b8ff" stroke="#63b8ff" points="177.4,-28.32 186.82,-23.47 176.43,-21.38 177.4,-28.32"/>
</a>
</g>
</g>
<!-- Node3 -->
<g id="Node000003" class="node">
<title>Node3</title>
<g id="a_Node000003"><a xlink:href="../../d8/d5b/namespaceaopp__deconv__tool_1_1text.html#a75d81e58c71da89b56473e2616edd1c6" target="_top" xlink:title=" ">
<polygon fill="white" stroke="#666666" points="503,-72.5 348,-72.5 348,-53.5 503,-53.5 503,-72.5"/>
<text text-anchor="middle" x="425.5" y="-60.5" font-family="Helvetica,sans-Serif" font-size="10.00">aopp_deconv_tool.text.wrap</text>
</a>
</g>
</g>
<!-- Node2&#45;&gt;Node3 -->
<g id="edge3_Node000002_Node000003" class="edge">
<title>Node2&#45;&gt;Node3</title>
<g id="a_edge3_Node000002_Node000003"><a xlink:title=" ">
<path fill="none" stroke="#63b8ff" d="M312.18,-63C320.5,-63 329.15,-63 337.78,-63"/>
<polygon fill="#63b8ff" stroke="#63b8ff" points="337.89,-66.5 347.89,-63 337.89,-59.5 337.89,-66.5"/>
</a>
</g>
</g>
<!-- Node4 -->
<g id="Node000004" class="node">
<title>Node4</title>
<g id="a_Node000004"><a xlink:href="../../d8/d5b/namespaceaopp__deconv__tool_1_1text.html#a1496cf89a275b1b851ff81f401628c27" target="_top" xlink:title=" ">
<polygon fill="white" stroke="#666666" points="712,-78 539,-78 539,-48 712,-48 712,-78"/>
<text text-anchor="start" x="547" y="-66" font-family="Helvetica,sans-Serif" font-size="10.00">aopp_deconv_tool.text.combine</text>
<text text-anchor="middle" x="625.5" y="-55" font-family="Helvetica,sans-Serif" font-size="10.00">_lines_with_same_indent</text>
</a>
</g>
</g>
<!-- Node3&#45;&gt;Node4 -->
<g id="edge4_Node000003_Node000004" class="edge">
<title>Node3&#45;&gt;Node4</title>
<g id="a_edge4_Node000003_Node000004"><a xlink:title=" ">
<path fill="none" stroke="#63b8ff" d="M503.05,-63C511.5,-63 520.18,-63 528.82,-63"/>
<polygon fill="#63b8ff" stroke="#63b8ff" points="528.94,-66.5 538.94,-63 528.94,-59.5 528.94,-66.5"/>
</a>
</g>
</g>
</g>
</svg>
