<?xml version="1.0" encoding="UTF-8" standalone="no"?>
<!DOCTYPE svg PUBLIC "-//W3C//DTD SVG 1.1//EN"
 "http://www.w3.org/Graphics/SVG/1.1/DTD/svg11.dtd">
<!-- Generated by graphviz version 2.43.0 (0)
 -->
<!-- Title: aopp_deconv_tool.astropy_helper.fits.specifier.FitsInfo.refresh Pages: 1 -->
<svg width="428pt" height="100pt"
 viewBox="0.00 0.00 428.00 99.50" xmlns="http://www.w3.org/2000/svg" xmlns:xlink="http://www.w3.org/1999/xlink">
<g id="graph0" class="graph" transform="scale(1 1) rotate(0) translate(4 95.5)">
<title>aopp_deconv_tool.astropy_helper.fits.specifier.FitsInfo.refresh</title>
<!-- Node1 -->
<g id="node1" class="node">
<title>Node1</title>
<g id="a_node1"><a xlink:title=" ">
<polygon fill="#bfbfbf" stroke="black" points="228,-27.5 228,-57.5 420,-57.5 420,-27.5 228,-27.5"/>
<text text-anchor="start" x="236" y="-45.5" font-family="Helvetica,sans-Serif" font-size="10.00">aopp_deconv_tool.astropy</text>
<text text-anchor="middle" x="324" y="-34.5" font-family="Helvetica,sans-Serif" font-size="10.00">_helper.fits.specifier.FitsInfo.refresh</text>
</a>
</g>
</g>
<!-- Node2 -->
<g id="node2" class="node">
<title>Node2</title>
<g id="a_node2"><a xlink:href="../../d5/d00/classaopp__deconv__tool_1_1astropy__helper_1_1fits_1_1specifier_1_1FitsInfo.html#adc11c25144ecccf5412645822b1af8ea" target="_top" xlink:title=" ">
<polygon fill="none" stroke="black" points="8,-50 8,-91 184,-91 184,-50 8,-50"/>
<text text-anchor="start" x="16" y="-79" font-family="Helvetica,sans-Serif" font-size="10.00">aopp_deconv_tool.astropy</text>
<text text-anchor="start" x="16" y="-68" font-family="Helvetica,sans-Serif" font-size="10.00">_helper.fits.specifier.FitsInfo.hdu</text>
<text text-anchor="middle" x="96" y="-57" font-family="Helvetica,sans-Serif" font-size="10.00">_identifiers</text>
</a>
</g>
</g>
<!-- Node1&#45;&gt;Node2 -->
<g id="edge1" class="edge">
<title>Node1&#45;&gt;Node2</title>
<path fill="none" stroke="midnightblue" d="M217.58,-55.56C206.39,-56.95 195.11,-58.34 184.17,-59.7"/>
<polygon fill="midnightblue" stroke="midnightblue" points="218.32,-59 227.81,-54.29 217.46,-52.05 218.32,-59"/>
</g>
<!-- Node3 -->
<g id="node3" class="node">
<title>Node3</title>
<g id="a_node3"><a xlink:href="../../d5/d00/classaopp__deconv__tool_1_1astropy__helper_1_1fits_1_1specifier_1_1FitsInfo.html#a793696d4eb3e7435f813c6782dbd5e63" target="_top" xlink:title=" ">
<polygon fill="none" stroke="black" points="0,-0.5 0,-30.5 192,-30.5 192,-0.5 0,-0.5"/>
<text text-anchor="start" x="8" y="-18.5" font-family="Helvetica,sans-Serif" font-size="10.00">aopp_deconv_tool.astropy</text>
<text text-anchor="middle" x="96" y="-7.5" font-family="Helvetica,sans-Serif" font-size="10.00">_helper.fits.specifier.FitsInfo.n_hdus</text>
</a>
</g>
</g>
<!-- Node1&#45;&gt;Node3 -->
<g id="edge2" class="edge">
<title>Node1&#45;&gt;Node3</title>
<path fill="none" stroke="midnightblue" d="M217.78,-29.93C209.21,-28.91 200.58,-27.87 192.08,-26.86"/>
<polygon fill="midnightblue" stroke="midnightblue" points="217.47,-33.42 227.81,-31.13 218.3,-26.47 217.47,-33.42"/>
</g>
</g>
</svg>
