<?xml version="1.0" encoding="UTF-8" standalone="no"?>
<!DOCTYPE svg PUBLIC "-//W3C//DTD SVG 1.1//EN"
 "http://www.w3.org/Graphics/SVG/1.1/DTD/svg11.dtd">
<!-- Generated by graphviz version 2.43.0 (0)
 -->
<!-- Title: aopp_deconv_tool.graphical_frontends.ssa_filtering.ImageViewer.set_image_plane Pages: 1 -->
<!--zoomable 108 -->

<svg id="main" version="1.1" xmlns="http://www.w3.org/2000/svg" xmlns:xlink="http://www.w3.org/1999/xlink" xml:space="preserve" onload="init(evt)">
<style type="text/css"><![CDATA[
.node, .edge {opacity: 0.7;}
.node.selected, .edge.selected {opacity: 1;}
.edge:hover path { stroke: red; }
.edge:hover polygon { stroke: red; fill: red; }
]]></style>

<defs>
  <circle id="rim" cx="0" cy="0" r="7"/>
  <circle id="rim2" cx="0" cy="0" r="3.5"/>
  <g id="zoomPlus">
    <use xlink:href="#rim" fill="#404040"><set attributeName="fill" to="#808080" begin="zoomplus.mouseover" end="zoomplus.mouseout"/></use>
    <path d="M-4,0h8M0,-4v8" fill="none" stroke="white" stroke-width="1.5" pointer-events="none"/>
  </g>
  <g id="zoomMin">
    <use xlink:href="#rim" fill="#404040"><set attributeName="fill" to="#808080" begin="zoomminus.mouseover" end="zoomminus.mouseout"/></use>
    <path d="M-4,0h8" fill="none" stroke="white" stroke-width="1.5" pointer-events="none"/>
  </g>
  <g id="arrowUp" transform="translate(30 24)">
    <use xlink:href="#rim"/>
    <path pointer-events="none" fill="none" stroke="white" stroke-width="1.5" d="M0,-3.0v7 M-2.5,-0.5L0,-3.0L2.5,-0.5"/>
  </g>
  <g id="arrowRight" transform="rotate(90) translate(36 -43)">
    <use xlink:href="#rim"/>
    <path pointer-events="none" fill="none" stroke="white" stroke-width="1.5" d="M0,-3.0v7 M-2.5,-0.5L0,-3.0L2.5,-0.5"/>
  </g>
  <g id="arrowDown" transform="rotate(180) translate(-30 -48)">
    <use xlink:href="#rim"/>
    <path pointer-events="none" fill="none" stroke="white" stroke-width="1.5" d="M0,-3.0v7 M-2.5,-0.5L0,-3.0L2.5,-0.5"/>
  </g>
  <g id="arrowLeft" transform="rotate(270) translate(-36 17)">
    <use xlink:href="#rim"/>
    <path pointer-events="none" fill="none" stroke="white" stroke-width="1.5" d="M0,-3.0v7 M-2.5,-0.5L0,-3.0L2.5,-0.5"/>
  </g>
  <g id="resetDef">
    <use xlink:href="#rim2" fill="#404040"><set attributeName="fill" to="#808080" begin="reset.mouseover" end="reset.mouseout"/></use>
  </g>
</defs>
<script type="application/ecmascript">
var viewWidth = 773;
var viewHeight = 108;
var sectionId = 'dynsection-6';
</script>
<script type="application/ecmascript" xlink:href="../../svg.min.js"/>
<svg id="graph" class="graph">
<g id="viewport">
<title>aopp_deconv_tool.graphical_frontends.ssa_filtering.ImageViewer.set_image_plane</title>
<!-- Node1 -->
<g id="Node000001" class="node">
<title>Node1</title>
<g id="a_Node000001"><a xlink:title=" ">
<polygon fill="#999999" stroke="#666666" points="215,-70 0,-70 0,-29 215,-29 215,-70"/>
<text text-anchor="start" x="8" y="-58" font-family="Helvetica,sans-Serif" font-size="10.00">aopp_deconv_tool.graphical</text>
<text text-anchor="start" x="8" y="-47" font-family="Helvetica,sans-Serif" font-size="10.00">_frontends.ssa_filtering.ImageViewer.set</text>
<text text-anchor="middle" x="107.5" y="-36" font-family="Helvetica,sans-Serif" font-size="10.00">_image_plane</text>
</a>
</g>
</g>
<!-- Node2 -->
<g id="Node000002" class="node">
<title>Node2</title>
<g id="a_Node000002"><a xlink:href="../../d6/d1d/classaopp__deconv__tool_1_1graphical__frontends_1_1ssa__filtering_1_1ImageViewer.html#a928f59c859e6fa028dc5fbf1fa706baf" target="_top" xlink:title=" ">
<polygon fill="white" stroke="#666666" points="493,-64.5 251,-64.5 251,-34.5 493,-34.5 493,-64.5"/>
<text text-anchor="start" x="259" y="-52.5" font-family="Helvetica,sans-Serif" font-size="10.00">aopp_deconv_tool.graphical</text>
<text text-anchor="middle" x="372" y="-41.5" font-family="Helvetica,sans-Serif" font-size="10.00">_frontends.ssa_filtering.ImageViewer.set_data</text>
</a>
</g>
</g>
<!-- Node1&#45;&gt;Node2 -->
<g id="edge1_Node000001_Node000002" class="edge">
<title>Node1&#45;&gt;Node2</title>
<g id="a_edge1_Node000001_Node000002"><a xlink:title=" ">
<path fill="none" stroke="#63b8ff" d="M215.27,-49.5C223.54,-49.5 231.95,-49.5 240.36,-49.5"/>
<polygon fill="#63b8ff" stroke="#63b8ff" points="240.6,-53 250.6,-49.5 240.6,-46 240.6,-53"/>
</a>
</g>
</g>
<!-- Node2&#45;&gt;Node2 -->
<g id="edge4_Node000002_Node000002" class="edge">
<title>Node2&#45;&gt;Node2</title>
<g id="a_edge4_Node000002_Node000002"><a xlink:title=" ">
<path fill="none" stroke="#63b8ff" d="M325.59,-64.78C315.28,-73.91 330.75,-82.5 372,-82.5 396.49,-82.5 411.9,-79.47 418.21,-75.1"/>
<polygon fill="#63b8ff" stroke="#63b8ff" points="421.72,-74.84 418.41,-64.78 414.72,-74.71 421.72,-74.84"/>
</a>
</g>
</g>
<!-- Node3 -->
<g id="Node000003" class="node">
<title>Node3</title>
<g id="a_Node000003"><a xlink:href="../../d6/d1d/classaopp__deconv__tool_1_1graphical__frontends_1_1ssa__filtering_1_1ImageViewer.html#ae014d11654c3dd2679ddad312da750f4" target="_top" xlink:title=" ">
<polygon fill="white" stroke="#666666" points="755,-100 539,-100 539,-59 755,-59 755,-100"/>
<text text-anchor="start" x="547" y="-88" font-family="Helvetica,sans-Serif" font-size="10.00">aopp_deconv_tool.graphical</text>
<text text-anchor="start" x="547" y="-77" font-family="Helvetica,sans-Serif" font-size="10.00">_frontends.ssa_filtering.ImageViewer.get</text>
<text text-anchor="middle" x="647" y="-66" font-family="Helvetica,sans-Serif" font-size="10.00">_displayed_data</text>
</a>
</g>
</g>
<!-- Node2&#45;&gt;Node3 -->
<g id="edge2_Node000002_Node000003" class="edge">
<title>Node2&#45;&gt;Node3</title>
<g id="a_edge2_Node000002_Node000003"><a xlink:title=" ">
<path fill="none" stroke="#63b8ff" d="M493.14,-62.7C504.87,-63.99 516.76,-65.3 528.46,-66.58"/>
<polygon fill="#63b8ff" stroke="#63b8ff" points="528.36,-70.09 538.69,-67.71 529.13,-63.14 528.36,-70.09"/>
</a>
</g>
</g>
<!-- Node4 -->
<g id="Node000004" class="node">
<title>Node4</title>
<g id="a_Node000004"><a xlink:href="../../d8/dd5/classaopp__deconv__tool_1_1graphical__frontends_1_1ssa__filtering_1_1ImageAggregator.html#a9e02916c8226e973ad4c7807fe59306c" target="_top" xlink:title=" ">
<polygon fill="white" stroke="#666666" points="765,-41 529,-41 529,0 765,0 765,-41"/>
<text text-anchor="start" x="537" y="-29" font-family="Helvetica,sans-Serif" font-size="10.00">aopp_deconv_tool.graphical</text>
<text text-anchor="start" x="537" y="-18" font-family="Helvetica,sans-Serif" font-size="10.00">_frontends.ssa_filtering.ImageAggregator.get</text>
<text text-anchor="middle" x="647" y="-7" font-family="Helvetica,sans-Serif" font-size="10.00">_displayed_data</text>
</a>
</g>
</g>
<!-- Node2&#45;&gt;Node4 -->
<g id="edge3_Node000002_Node000004" class="edge">
<title>Node2&#45;&gt;Node4</title>
<g id="a_edge3_Node000002_Node000004"><a xlink:title=" ">
<path fill="none" stroke="#63b8ff" d="M493.14,-36.74C501.67,-35.83 510.29,-34.92 518.86,-34.01"/>
<polygon fill="#63b8ff" stroke="#63b8ff" points="519.32,-37.48 528.9,-32.94 518.58,-30.52 519.32,-37.48"/>
</a>
</g>
</g>
</g>
</svg>

<g id="navigator" transform="translate(0 0)" fill="#404254">
  <rect fill="#f2f5e9" fill-opacity="0.5" stroke="#606060" stroke-width=".5" x="0" y="0" width="60" height="60"/>
  <use id="zoomplus" xlink:href="#zoomPlus" x="17" y="9" onmousedown="handleZoom(evt,'in')"/>
  <use id="zoomminus" xlink:href="#zoomMin" x="42" y="9" onmousedown="handleZoom(evt,'out')"/>
  <use id="reset" xlink:href="#resetDef" x="30" y="36" onmousedown="handleReset()"/>
   <use id="arrowup" xlink:href="#arrowUp" x="0" y="0" onmousedown="handlePan(0,-1)"/>
  <use id="arrowright" xlink:href="#arrowRight" x="0" y="0" onmousedown="handlePan(1,0)"/>
  <use id="arrowdown" xlink:href="#arrowDown" x="0" y="0" onmousedown="handlePan(0,1)"/>
  <use id="arrowleft" xlink:href="#arrowLeft" x="0" y="0" onmousedown="handlePan(-1,0)"/>
</g>
<svg viewBox="0 0 15 15" width="100%" height="30px" preserveAspectRatio="xMaxYMin meet">
 <g id="arrow_out" transform="scale(0.3 0.3)">
  <a xlink:href="classaopp__deconv__tool_1_1graphical__frontends_1_1ssa__filtering_1_1ImageViewer_a0559152975cdc4323074aec18b35b6c4_cgraph_org.svg" target="_base">
   <rect id="button" ry="5" rx="5" y="6" x="6" height="38" width="38"
        fill="#f2f5e9" fill-opacity="0.5" stroke="#606060" stroke-width="1.0"/>
   <path id="arrow"
     d="M 11.500037,31.436501 C 11.940474,20.09759 22.043105,11.32322 32.158766,21.979434 L 37.068811,17.246167 C 37.068811,17.246167 37.088388,32 37.088388,32 L 22.160133,31.978069 C 22.160133,31.978069 26.997745,27.140456 26.997745,27.140456 C 18.528582,18.264221 13.291696,25.230495 11.500037,31.436501 z"
     style="fill:#404040;"/>
  </a>
 </g>
</svg>

<style type='text/css'>
<![CDATA[
[data-mouse-over-selected='false'] { opacity: 0.7; }
[data-mouse-over-selected='true']  { opacity: 1.0; }
]]>
</style>
<script type="application/ecmascript"><![CDATA[
document.addEventListener('DOMContentLoaded', (event) => {
  highlightEdges();
  highlightAdjacentNodes();
});
]]></script>
</svg>
