<?xml version="1.0" encoding="UTF-8" standalone="no"?>
<!DOCTYPE svg PUBLIC "-//W3C//DTD SVG 1.1//EN"
 "http://www.w3.org/Graphics/SVG/1.1/DTD/svg11.dtd">
<!-- Generated by graphviz version 2.43.0 (0)
 -->
<!-- Title: aopp_deconv_tool.graphical_frontends.ssa_filtering.ImageViewer.show Pages: 1 -->
<!--zoomable 537 -->
<svg id="main" version="1.1" xmlns="http://www.w3.org/2000/svg" xmlns:xlink="http://www.w3.org/1999/xlink" xml:space="preserve" onload="init(evt)">
<style type="text/css"><![CDATA[
.edge:hover path { stroke: red; }
.edge:hover polygon { stroke: red; fill: red; }
]]></style>
<script type="text/javascript"><![CDATA[
var edges = document.getElementsByTagName('g');
if (edges && edges.length) {
  for (var i=0;i<edges.length;i++) {
    if (edges[i].id.substr(0,4)=='edge') {
      edges[i].setAttribute('class','edge');
    }
  }
}
]]></script>
        <defs>
                <circle id="rim" cx="0" cy="0" r="7"/>
                <circle id="rim2" cx="0" cy="0" r="3.5"/>
                <g id="zoomPlus">
                        <use xlink:href="#rim" fill="#404040">
                                <set attributeName="fill" to="#808080" begin="zoomplus.mouseover" end="zoomplus.mouseout"/>
                        </use>
                        <path d="M-4,0h8M0,-4v8" fill="none" stroke="white" stroke-width="1.5" pointer-events="none"/>
                </g>
                <g id="zoomMin">
                        <use xlink:href="#rim" fill="#404040">
                                <set attributeName="fill" to="#808080" begin="zoomminus.mouseover" end="zoomminus.mouseout"/>
                        </use>
                        <path d="M-4,0h8" fill="none" stroke="white" stroke-width="1.5" pointer-events="none"/>
                </g>
                <g id="dirArrow">
                        <path fill="none" stroke="white" stroke-width="1.5" d="M0,-3.0v7 M-2.5,-0.5L0,-3.0L2.5,-0.5"/>
                </g>
               <g id="resetDef">
                       <use xlink:href="#rim2" fill="#404040">
                               <set attributeName="fill" to="#808080" begin="reset.mouseover" end="reset.mouseout"/>
                       </use>
               </g>
        </defs>

<script type="text/javascript">
var viewWidth = 988;
var viewHeight = 537;
var sectionId = 'dynsection-14';
</script>
<script xlink:href="../../svgpan.js"/>
<svg id="graph" class="graph">
<g id="viewport">
<title>aopp_deconv_tool.graphical_frontends.ssa_filtering.ImageViewer.show</title>
<!-- Node1 -->
<g id="node1" class="node">
<title>Node1</title>
<g id="a_node1"><a xlink:title=" ">
<polygon fill="#bfbfbf" stroke="black" points="0,-176 0,-206 227,-206 227,-176 0,-176"/>
<text text-anchor="start" x="8" y="-194" font-family="Helvetica,sans-Serif" font-size="10.00">aopp_deconv_tool.graphical</text>
<text text-anchor="middle" x="113.5" y="-183" font-family="Helvetica,sans-Serif" font-size="10.00">_frontends.ssa_filtering.ImageViewer.show</text>
</a>
</g>
</g>
<!-- Node2 -->
<g id="node2" class="node">
<title>Node2</title>
<g id="a_node2"><a xlink:href="../../db/dd6/classaopp__deconv__tool_1_1graphical__frontends_1_1ssa__filtering_1_1ImagePlot.html#aaad6d78efd48d8e620295a5106faaf8a" target="_top" xlink:title=" ">
<polygon fill="none" stroke="black" points="280.5,-283 280.5,-313 509.5,-313 509.5,-283 280.5,-283"/>
<text text-anchor="start" x="288.5" y="-301" font-family="Helvetica,sans-Serif" font-size="10.00">aopp_deconv_tool.graphical</text>
<text text-anchor="middle" x="395" y="-290" font-family="Helvetica,sans-Serif" font-size="10.00">_frontends.ssa_filtering.ImagePlot.set_data</text>
</a>
</g>
</g>
<!-- Node1&#45;&gt;Node2 -->
<g id="edge1" class="edge">
<title>Node1&#45;&gt;Node2</title>
<path fill="none" stroke="midnightblue" d="M137.68,-206.26C166.08,-224.29 216.21,-253.99 263,-271 272.76,-274.55 283.1,-277.68 293.53,-280.43"/>
<polygon fill="midnightblue" stroke="midnightblue" points="292.99,-283.91 303.54,-282.96 294.7,-277.12 292.99,-283.91"/>
</g>
<!-- Node12 -->
<g id="node12" class="node">
<title>Node12</title>
<g id="a_node12"><a xlink:href="../../d1/d4b/classaopp__deconv__tool_1_1graphical__frontends_1_1ssa__filtering_1_1LinePlot.html#afa75f9b57597a0ca2eca6c912239b41a" target="_top" xlink:title=" ">
<polygon fill="none" stroke="black" points="286,-332 286,-362 504,-362 504,-332 286,-332"/>
<text text-anchor="start" x="294" y="-350" font-family="Helvetica,sans-Serif" font-size="10.00">aopp_deconv_tool.graphical</text>
<text text-anchor="middle" x="395" y="-339" font-family="Helvetica,sans-Serif" font-size="10.00">_frontends.ssa_filtering.LinePlot.set_data</text>
</a>
</g>
</g>
<!-- Node1&#45;&gt;Node12 -->
<g id="edge11" class="edge">
<title>Node1&#45;&gt;Node12</title>
<path fill="none" stroke="midnightblue" d="M126.54,-206.18C149.71,-234.23 203.48,-293.96 263,-323 267.32,-325.11 271.8,-327.03 276.39,-328.79"/>
<polygon fill="midnightblue" stroke="midnightblue" points="275.34,-332.13 285.94,-332.16 277.67,-325.53 275.34,-332.13"/>
</g>
<!-- Node13 -->
<g id="node13" class="node">
<title>Node13</title>
<g id="a_node13"><a xlink:href="../../da/d4f/classaopp__deconv__tool_1_1graphical__frontends_1_1ssa__filtering_1_1BasePanel.html#ab89deedba906ac3dfb5680c7e2bb48f7" target="_top" xlink:title=" ">
<polygon fill="none" stroke="black" points="280,-231 280,-261 510,-261 510,-231 280,-231"/>
<text text-anchor="start" x="288" y="-249" font-family="Helvetica,sans-Serif" font-size="10.00">aopp_deconv_tool.graphical</text>
<text text-anchor="middle" x="395" y="-238" font-family="Helvetica,sans-Serif" font-size="10.00">_frontends.ssa_filtering.BasePanel.set_data</text>
</a>
</g>
</g>
<!-- Node1&#45;&gt;Node13 -->
<g id="edge20" class="edge">
<title>Node1&#45;&gt;Node13</title>
<path fill="none" stroke="midnightblue" d="M188.11,-206.03C211.99,-210.87 238.61,-216.21 263,-221 276.44,-223.64 290.66,-226.39 304.58,-229.07"/>
<polygon fill="midnightblue" stroke="midnightblue" points="304.17,-232.55 314.65,-231 305.49,-225.68 304.17,-232.55"/>
</g>
<!-- Node14 -->
<g id="node14" class="node">
<title>Node14</title>
<g id="a_node14"><a xlink:href="../../df/dfb/classaopp__deconv__tool_1_1graphical__frontends_1_1ssa__filtering_1_1LineRegionPanel.html#a7698339aa9ff1e62ce395509bbd6e0fe" target="_top" xlink:title=" ">
<polygon fill="none" stroke="black" points="301,-170.5 301,-211.5 489,-211.5 489,-170.5 301,-170.5"/>
<text text-anchor="start" x="309" y="-199.5" font-family="Helvetica,sans-Serif" font-size="10.00">aopp_deconv_tool.graphical</text>
<text text-anchor="start" x="309" y="-188.5" font-family="Helvetica,sans-Serif" font-size="10.00">_frontends.ssa_filtering.LineRegion</text>
<text text-anchor="middle" x="395" y="-177.5" font-family="Helvetica,sans-Serif" font-size="10.00">Panel.set_data</text>
</a>
</g>
</g>
<!-- Node1&#45;&gt;Node14 -->
<g id="edge21" class="edge">
<title>Node1&#45;&gt;Node14</title>
<path fill="none" stroke="midnightblue" d="M227.38,-191C248.34,-191 270.14,-191 290.8,-191"/>
<polygon fill="midnightblue" stroke="midnightblue" points="290.83,-194.5 300.83,-191 290.83,-187.5 290.83,-194.5"/>
</g>
<!-- Node15 -->
<g id="node15" class="node">
<title>Node15</title>
<g id="a_node15"><a xlink:href="../../dd/d48/classaopp__deconv__tool_1_1graphical__frontends_1_1ssa__filtering_1_1SSAViewer.html#aa90260847843bd95e424306bf26bc620" target="_top" xlink:title=" ">
<polygon fill="none" stroke="black" points="278.5,-121 278.5,-151 511.5,-151 511.5,-121 278.5,-121"/>
<text text-anchor="start" x="286.5" y="-139" font-family="Helvetica,sans-Serif" font-size="10.00">aopp_deconv_tool.graphical</text>
<text text-anchor="middle" x="395" y="-128" font-family="Helvetica,sans-Serif" font-size="10.00">_frontends.ssa_filtering.SSAViewer.set_data</text>
</a>
</g>
</g>
<!-- Node1&#45;&gt;Node15 -->
<g id="edge22" class="edge">
<title>Node1&#45;&gt;Node15</title>
<path fill="none" stroke="midnightblue" d="M188.11,-175.97C211.99,-171.13 238.61,-165.79 263,-161 276.44,-158.36 290.66,-155.61 304.58,-152.93"/>
<polygon fill="midnightblue" stroke="midnightblue" points="305.49,-156.32 314.65,-151 304.17,-149.45 305.49,-156.32"/>
</g>
<!-- Node16 -->
<g id="node16" class="node">
<title>Node16</title>
<g id="a_node16"><a xlink:href="../../d6/d1d/classaopp__deconv__tool_1_1graphical__frontends_1_1ssa__filtering_1_1ImageViewer.html#a4545ef481864cebad713e1f0714bf892" target="_top" xlink:title=" ">
<polygon fill="none" stroke="black" points="273,-67 273,-97 517,-97 517,-67 273,-67"/>
<text text-anchor="start" x="281" y="-85" font-family="Helvetica,sans-Serif" font-size="10.00">aopp_deconv_tool.graphical</text>
<text text-anchor="middle" x="395" y="-74" font-family="Helvetica,sans-Serif" font-size="10.00">_frontends.ssa_filtering.ImageViewer.set_data</text>
</a>
</g>
</g>
<!-- Node1&#45;&gt;Node16 -->
<g id="edge23" class="edge">
<title>Node1&#45;&gt;Node16</title>
<path fill="none" stroke="midnightblue" d="M138.02,-175.96C166.56,-158.32 216.62,-129.3 263,-112 275.75,-107.24 289.5,-103.1 303.12,-99.53"/>
<polygon fill="midnightblue" stroke="midnightblue" points="304.16,-102.88 313,-97.03 302.45,-96.09 304.16,-102.88"/>
</g>
<!-- Node19 -->
<g id="node19" class="node">
<title>Node19</title>
<g id="a_node19"><a xlink:href="../../d8/dd5/classaopp__deconv__tool_1_1graphical__frontends_1_1ssa__filtering_1_1ImageAggregator.html#adfb490880a8870d1303730ab03290ea8" target="_top" xlink:title=" ">
<polygon fill="none" stroke="black" points="263,-18 263,-48 527,-48 527,-18 263,-18"/>
<text text-anchor="start" x="271" y="-36" font-family="Helvetica,sans-Serif" font-size="10.00">aopp_deconv_tool.graphical</text>
<text text-anchor="middle" x="395" y="-25" font-family="Helvetica,sans-Serif" font-size="10.00">_frontends.ssa_filtering.ImageAggregator.set_data</text>
</a>
</g>
</g>
<!-- Node1&#45;&gt;Node19 -->
<g id="edge26" class="edge">
<title>Node1&#45;&gt;Node19</title>
<path fill="none" stroke="midnightblue" d="M126.54,-175.74C149.69,-147.55 203.44,-87.47 263,-58 267.93,-55.56 273.07,-53.36 278.34,-51.37"/>
<polygon fill="midnightblue" stroke="midnightblue" points="279.67,-54.62 287.96,-48.02 277.36,-48.01 279.67,-54.62"/>
</g>
<!-- Node3 -->
<g id="node3" class="node">
<title>Node3</title>
<g id="a_node3"><a xlink:href="../../db/dd6/classaopp__deconv__tool_1_1graphical__frontends_1_1ssa__filtering_1_1ImagePlot.html#a224bbaf901632786c84c7cff4372cdf0" target="_top" xlink:title=" ">
<polygon fill="none" stroke="black" points="591.5,-279.5 591.5,-320.5 786.5,-320.5 786.5,-279.5 591.5,-279.5"/>
<text text-anchor="start" x="599.5" y="-308.5" font-family="Helvetica,sans-Serif" font-size="10.00">aopp_deconv_tool.graphical</text>
<text text-anchor="start" x="599.5" y="-297.5" font-family="Helvetica,sans-Serif" font-size="10.00">_frontends.ssa_filtering.ImagePlot.is</text>
<text text-anchor="middle" x="689" y="-286.5" font-family="Helvetica,sans-Serif" font-size="10.00">_new_data_compatible</text>
</a>
</g>
</g>
<!-- Node2&#45;&gt;Node3 -->
<g id="edge2" class="edge">
<title>Node2&#45;&gt;Node3</title>
<path fill="none" stroke="midnightblue" d="M509.73,-298.78C533.17,-298.94 557.77,-299.11 580.96,-299.27"/>
<polygon fill="midnightblue" stroke="midnightblue" points="581.12,-302.77 591.15,-299.34 581.17,-295.77 581.12,-302.77"/>
</g>
<!-- Node4 -->
<g id="node4" class="node">
<title>Node4</title>
<g id="a_node4"><a xlink:href="../../d1/d4b/classaopp__deconv__tool_1_1graphical__frontends_1_1ssa__filtering_1_1LinePlot.html#a3aff404bd0c47aa0e5eb4189987a0094" target="_top" xlink:title=" ">
<polygon fill="none" stroke="black" points="596.5,-219.5 596.5,-260.5 781.5,-260.5 781.5,-219.5 596.5,-219.5"/>
<text text-anchor="start" x="604.5" y="-248.5" font-family="Helvetica,sans-Serif" font-size="10.00">aopp_deconv_tool.graphical</text>
<text text-anchor="start" x="604.5" y="-237.5" font-family="Helvetica,sans-Serif" font-size="10.00">_frontends.ssa_filtering.LinePlot.is</text>
<text text-anchor="middle" x="689" y="-226.5" font-family="Helvetica,sans-Serif" font-size="10.00">_new_data_compatible</text>
</a>
</g>
</g>
<!-- Node2&#45;&gt;Node4 -->
<g id="edge3" class="edge">
<title>Node2&#45;&gt;Node4</title>
<path fill="none" stroke="midnightblue" d="M471.58,-282.99C506.56,-276.04 548.63,-267.68 586.34,-260.19"/>
<polygon fill="midnightblue" stroke="midnightblue" points="587.21,-263.59 596.34,-258.21 585.85,-256.72 587.21,-263.59"/>
</g>
<!-- Node5 -->
<g id="node5" class="node">
<title>Node5</title>
<g id="a_node5"><a xlink:href="../../d7/d1a/classaopp__deconv__tool_1_1graphical__frontends_1_1ssa__filtering_1_1BasePlot.html#ab90f403d403358f326201c91c4b4ba5d" target="_top" xlink:title=" ">
<polygon fill="none" stroke="black" points="580,-170 580,-200 798,-200 798,-170 580,-170"/>
<text text-anchor="start" x="588" y="-188" font-family="Helvetica,sans-Serif" font-size="10.00">aopp_deconv_tool.graphical</text>
<text text-anchor="middle" x="689" y="-177" font-family="Helvetica,sans-Serif" font-size="10.00">_frontends.ssa_filtering.BasePlot.remove</text>
</a>
</g>
</g>
<!-- Node2&#45;&gt;Node5 -->
<g id="edge4" class="edge">
<title>Node2&#45;&gt;Node5</title>
<path fill="none" stroke="midnightblue" d="M505.54,-282.94C513.13,-279.66 520.39,-275.73 527,-271 552.61,-252.7 537.33,-228.23 563,-210 565.71,-208.08 568.53,-206.3 571.43,-204.64"/>
<polygon fill="midnightblue" stroke="midnightblue" points="573.09,-207.73 580.4,-200.06 569.91,-201.49 573.09,-207.73"/>
</g>
<!-- Node6 -->
<g id="node6" class="node">
<title>Node6</title>
<g id="a_node6"><a xlink:href="../../db/dd6/classaopp__deconv__tool_1_1graphical__frontends_1_1ssa__filtering_1_1ImagePlot.html#a311d5b0b53753851d7df74f8b229a3a1" target="_top" xlink:title=" ">
<polygon fill="none" stroke="black" points="577,-121 577,-151 801,-151 801,-121 577,-121"/>
<text text-anchor="start" x="585" y="-139" font-family="Helvetica,sans-Serif" font-size="10.00">aopp_deconv_tool.graphical</text>
<text text-anchor="middle" x="689" y="-128" font-family="Helvetica,sans-Serif" font-size="10.00">_frontends.ssa_filtering.ImagePlot.remove</text>
</a>
</g>
</g>
<!-- Node2&#45;&gt;Node6 -->
<g id="edge5" class="edge">
<title>Node2&#45;&gt;Node6</title>
<path fill="none" stroke="midnightblue" d="M509.57,-283.04C515.83,-279.69 521.72,-275.72 527,-271 565.37,-236.74 524.53,-195.15 563,-161 564.75,-159.45 566.56,-157.98 568.44,-156.6"/>
<polygon fill="midnightblue" stroke="midnightblue" points="570.54,-159.41 577.03,-151.03 566.73,-153.53 570.54,-159.41"/>
</g>
<!-- Node7 -->
<g id="node7" class="node">
<title>Node7</title>
<g id="a_node7"><a xlink:href="../../da/d39/classaopp__deconv__tool_1_1graphical__frontends_1_1ssa__filtering_1_1WidgetBase.html#add9d9e8935a19806390602a571c746b6" target="_top" xlink:title=" ">
<polygon fill="none" stroke="black" points="604.5,-487.5 604.5,-528.5 773.5,-528.5 773.5,-487.5 604.5,-487.5"/>
<text text-anchor="start" x="612.5" y="-516.5" font-family="Helvetica,sans-Serif" font-size="10.00">aopp_deconv_tool.graphical</text>
<text text-anchor="start" x="612.5" y="-505.5" font-family="Helvetica,sans-Serif" font-size="10.00">_frontends.ssa_filtering.Widget</text>
<text text-anchor="middle" x="689" y="-494.5" font-family="Helvetica,sans-Serif" font-size="10.00">Base.remove</text>
</a>
</g>
</g>
<!-- Node2&#45;&gt;Node7 -->
<g id="edge6" class="edge">
<title>Node2&#45;&gt;Node7</title>
<path fill="none" stroke="midnightblue" d="M509.71,-310.46C515.98,-313.89 521.83,-318.03 527,-323 577.99,-372.01 513.18,-427.81 563,-478 571.87,-486.94 582.9,-493.39 594.71,-498.02"/>
<polygon fill="midnightblue" stroke="midnightblue" points="593.73,-501.39 604.32,-501.36 596.02,-494.77 593.73,-501.39"/>
</g>
<!-- Node8 -->
<g id="node8" class="node">
<title>Node8</title>
<g id="a_node8"><a xlink:href="../../d6/da1/classaopp__deconv__tool_1_1task__strat_1_1TaskStratSet.html#a089f805d274ef3be0b64217e99ffed9d" target="_top" xlink:title=" ">
<polygon fill="none" stroke="black" points="614.5,-438 614.5,-468 763.5,-468 763.5,-438 614.5,-438"/>
<text text-anchor="start" x="622.5" y="-456" font-family="Helvetica,sans-Serif" font-size="10.00">aopp_deconv_tool.task</text>
<text text-anchor="middle" x="689" y="-445" font-family="Helvetica,sans-Serif" font-size="10.00">_strat.TaskStratSet.remove</text>
</a>
</g>
</g>
<!-- Node2&#45;&gt;Node8 -->
<g id="edge7" class="edge">
<title>Node2&#45;&gt;Node8</title>
<path fill="none" stroke="midnightblue" d="M509.77,-311.39C515.95,-314.61 521.76,-318.44 527,-323 564.54,-355.66 525.48,-396.32 563,-429 574.69,-439.18 589.35,-445.58 604.49,-449.51"/>
<polygon fill="midnightblue" stroke="midnightblue" points="603.95,-452.98 614.48,-451.76 605.48,-446.15 603.95,-452.98"/>
</g>
<!-- Node10 -->
<g id="node10" class="node">
<title>Node10</title>
<g id="a_node10"><a xlink:href="../../db/dd6/classaopp__deconv__tool_1_1graphical__frontends_1_1ssa__filtering_1_1ImagePlot.html#a24d4cfa969821f6eef9e608178a0b12f" target="_top" xlink:title=" ">
<polygon fill="none" stroke="black" points="563,-389 563,-419 815,-419 815,-389 563,-389"/>
<text text-anchor="start" x="571" y="-407" font-family="Helvetica,sans-Serif" font-size="10.00">aopp_deconv_tool.graphical</text>
<text text-anchor="middle" x="689" y="-396" font-family="Helvetica,sans-Serif" font-size="10.00">_frontends.ssa_filtering.ImagePlot.sanitise_data</text>
</a>
</g>
</g>
<!-- Node2&#45;&gt;Node10 -->
<g id="edge9" class="edge">
<title>Node2&#45;&gt;Node10</title>
<path fill="none" stroke="midnightblue" d="M508.93,-313.05C515.27,-315.86 521.36,-319.15 527,-323 551.76,-339.87 538.25,-363.12 563,-380 565.2,-381.5 567.46,-382.91 569.79,-384.24"/>
<polygon fill="midnightblue" stroke="midnightblue" points="568.52,-387.52 579.02,-388.96 571.71,-381.29 568.52,-387.52"/>
</g>
<!-- Node11 -->
<g id="node11" class="node">
<title>Node11</title>
<g id="a_node11"><a xlink:href="../../d1/d4b/classaopp__deconv__tool_1_1graphical__frontends_1_1ssa__filtering_1_1LinePlot.html#ab47bbe68324258fda7c8375944f12531" target="_top" xlink:title=" ">
<polygon fill="none" stroke="black" points="568,-340 568,-370 810,-370 810,-340 568,-340"/>
<text text-anchor="start" x="576" y="-358" font-family="Helvetica,sans-Serif" font-size="10.00">aopp_deconv_tool.graphical</text>
<text text-anchor="middle" x="689" y="-347" font-family="Helvetica,sans-Serif" font-size="10.00">_frontends.ssa_filtering.LinePlot.sanitise_data</text>
</a>
</g>
</g>
<!-- Node2&#45;&gt;Node11 -->
<g id="edge10" class="edge">
<title>Node2&#45;&gt;Node11</title>
<path fill="none" stroke="midnightblue" d="M475.34,-313.04C492.39,-316.3 510.3,-319.75 527,-323 551.71,-327.81 578.53,-333.11 603.07,-337.99"/>
<polygon fill="midnightblue" stroke="midnightblue" points="602.58,-341.47 613.07,-339.98 603.95,-334.6 602.58,-341.47"/>
</g>
<!-- Node9 -->
<g id="node9" class="node">
<title>Node9</title>
<g id="a_node9"><a xlink:href="../../d6/da1/classaopp__deconv__tool_1_1task__strat_1_1TaskStratSet.html#a9c869a7fb815955cc1bb5666e5ebe08f" target="_top" xlink:title=" ">
<polygon fill="none" stroke="black" points="851,-432.5 851,-473.5 980,-473.5 980,-432.5 851,-432.5"/>
<text text-anchor="start" x="859" y="-461.5" font-family="Helvetica,sans-Serif" font-size="10.00">aopp_deconv_tool.task</text>
<text text-anchor="start" x="859" y="-450.5" font-family="Helvetica,sans-Serif" font-size="10.00">_strat.TaskStratSet.</text>
<text text-anchor="middle" x="915.5" y="-439.5" font-family="Helvetica,sans-Serif" font-size="10.00">_del_item</text>
</a>
</g>
</g>
<!-- Node8&#45;&gt;Node9 -->
<g id="edge8" class="edge">
<title>Node8&#45;&gt;Node9</title>
<path fill="none" stroke="midnightblue" d="M763.51,-453C788.24,-453 815.82,-453 840.58,-453"/>
<polygon fill="midnightblue" stroke="midnightblue" points="840.64,-456.5 850.64,-453 840.64,-449.5 840.64,-456.5"/>
</g>
<!-- Node12&#45;&gt;Node3 -->
<g id="edge12" class="edge">
<title>Node12&#45;&gt;Node3</title>
<path fill="none" stroke="midnightblue" d="M489.19,-332C518.51,-327.28 551.11,-322.03 581.29,-317.18"/>
<polygon fill="midnightblue" stroke="midnightblue" points="582.1,-320.59 591.42,-315.55 580.99,-313.68 582.1,-320.59"/>
</g>
<!-- Node12&#45;&gt;Node4 -->
<g id="edge13" class="edge">
<title>Node12&#45;&gt;Node4</title>
<path fill="none" stroke="midnightblue" d="M504.18,-334.49C512.21,-331.39 519.93,-327.61 527,-323 550.86,-307.45 539.58,-286.19 563,-270 570.27,-264.97 578.28,-260.79 586.63,-257.3"/>
<polygon fill="midnightblue" stroke="midnightblue" points="588.09,-260.49 596.18,-253.65 585.59,-253.95 588.09,-260.49"/>
</g>
<!-- Node12&#45;&gt;Node5 -->
<g id="edge14" class="edge">
<title>Node12&#45;&gt;Node5</title>
<path fill="none" stroke="midnightblue" d="M504.21,-337.34C512.48,-333.66 520.23,-328.96 527,-323 566.56,-288.17 523.72,-245.15 563,-210 565.56,-207.71 568.26,-205.61 571.09,-203.68"/>
<polygon fill="midnightblue" stroke="midnightblue" points="573.13,-206.54 579.9,-198.39 569.53,-200.53 573.13,-206.54"/>
</g>
<!-- Node12&#45;&gt;Node6 -->
<g id="edge15" class="edge">
<title>Node12&#45;&gt;Node6</title>
<path fill="none" stroke="midnightblue" d="M504.18,-338.28C512.56,-334.41 520.34,-329.42 527,-323 580.12,-271.83 510.29,-212.6 563,-161 564.7,-159.33 566.48,-157.76 568.33,-156.28"/>
<polygon fill="midnightblue" stroke="midnightblue" points="570.64,-158.94 576.85,-150.36 566.64,-153.2 570.64,-158.94"/>
</g>
<!-- Node12&#45;&gt;Node7 -->
<g id="edge16" class="edge">
<title>Node12&#45;&gt;Node7</title>
<path fill="none" stroke="midnightblue" d="M410.58,-362.12C437.86,-389.52 499.64,-447.36 563,-478 572.95,-482.81 583.72,-486.88 594.63,-490.32"/>
<polygon fill="midnightblue" stroke="midnightblue" points="593.65,-493.68 604.23,-493.18 595.65,-486.97 593.65,-493.68"/>
</g>
<!-- Node12&#45;&gt;Node8 -->
<g id="edge17" class="edge">
<title>Node12&#45;&gt;Node8</title>
<path fill="none" stroke="midnightblue" d="M421.4,-362.16C453.37,-380.59 510.47,-411.41 563,-429 576.15,-433.4 590.37,-437.09 604.34,-440.15"/>
<polygon fill="midnightblue" stroke="midnightblue" points="603.94,-443.64 614.45,-442.26 605.38,-436.79 603.94,-443.64"/>
</g>
<!-- Node12&#45;&gt;Node10 -->
<g id="edge18" class="edge">
<title>Node12&#45;&gt;Node10</title>
<path fill="none" stroke="midnightblue" d="M471.63,-362.04C500.25,-367.7 533.12,-374.18 563,-380 574.69,-382.28 587,-384.66 599.15,-387"/>
<polygon fill="midnightblue" stroke="midnightblue" points="598.82,-390.5 609.3,-388.96 600.15,-383.63 598.82,-390.5"/>
</g>
<!-- Node12&#45;&gt;Node11 -->
<g id="edge19" class="edge">
<title>Node12&#45;&gt;Node11</title>
<path fill="none" stroke="midnightblue" d="M504.32,-349.97C521.55,-350.44 539.53,-350.93 557.21,-351.42"/>
<polygon fill="midnightblue" stroke="midnightblue" points="557.49,-354.93 567.58,-351.7 557.68,-347.93 557.49,-354.93"/>
</g>
<!-- Node17 -->
<g id="node17" class="node">
<title>Node17</title>
<g id="a_node17"><a xlink:href="../../d6/d1d/classaopp__deconv__tool_1_1graphical__frontends_1_1ssa__filtering_1_1ImageViewer.html#ae101d1c686b3106923f4aba206e1bb5a" target="_top" xlink:title=" ">
<polygon fill="none" stroke="black" points="580,-60.5 580,-101.5 798,-101.5 798,-60.5 580,-60.5"/>
<text text-anchor="start" x="588" y="-89.5" font-family="Helvetica,sans-Serif" font-size="10.00">aopp_deconv_tool.graphical</text>
<text text-anchor="start" x="588" y="-78.5" font-family="Helvetica,sans-Serif" font-size="10.00">_frontends.ssa_filtering.ImageViewer.get</text>
<text text-anchor="middle" x="689" y="-67.5" font-family="Helvetica,sans-Serif" font-size="10.00">_displayed_data</text>
</a>
</g>
</g>
<!-- Node16&#45;&gt;Node17 -->
<g id="edge24" class="edge">
<title>Node16&#45;&gt;Node17</title>
<path fill="none" stroke="midnightblue" d="M517.3,-81.58C534.59,-81.53 552.35,-81.46 569.59,-81.41"/>
<polygon fill="midnightblue" stroke="midnightblue" points="569.68,-84.91 579.67,-81.37 569.65,-77.91 569.68,-84.91"/>
</g>
<!-- Node18 -->
<g id="node18" class="node">
<title>Node18</title>
<g id="a_node18"><a xlink:href="../../d8/dd5/classaopp__deconv__tool_1_1graphical__frontends_1_1ssa__filtering_1_1ImageAggregator.html#a982eb00733474f4a1702af854eb2ac50" target="_top" xlink:title=" ">
<polygon fill="none" stroke="black" points="570,-0.5 570,-41.5 808,-41.5 808,-0.5 570,-0.5"/>
<text text-anchor="start" x="578" y="-29.5" font-family="Helvetica,sans-Serif" font-size="10.00">aopp_deconv_tool.graphical</text>
<text text-anchor="start" x="578" y="-18.5" font-family="Helvetica,sans-Serif" font-size="10.00">_frontends.ssa_filtering.ImageAggregator.get</text>
<text text-anchor="middle" x="689" y="-7.5" font-family="Helvetica,sans-Serif" font-size="10.00">_displayed_data</text>
</a>
</g>
</g>
<!-- Node16&#45;&gt;Node18 -->
<g id="edge25" class="edge">
<title>Node16&#45;&gt;Node18</title>
<path fill="none" stroke="midnightblue" d="M481.02,-67C496.35,-64.13 512.17,-61.06 527,-58 547.97,-53.67 570.41,-48.72 591.67,-43.88"/>
<polygon fill="midnightblue" stroke="midnightblue" points="592.71,-47.23 601.68,-41.59 591.15,-40.41 592.71,-47.23"/>
</g>
</g>
</svg>
        <g id="navigator" transform="translate(0 0)" fill="#404254">
                <rect fill="#f2f5e9" fill-opacity="0.5" stroke="#606060" stroke-width=".5" x="0" y="0" width="60" height="60"/>
                <use id="zoomplus" xlink:href="#zoomPlus" x="17" y="9" onmousedown="handleZoom(evt,'in')"/>
                <use id="zoomminus" xlink:href="#zoomMin" x="42" y="9" onmousedown="handleZoom(evt,'out')"/>
                <use id="reset" xlink:href="#resetDef" x="30" y="36" onmousedown="handleReset()"/>
                <g id="arrowUp" xlink:href="#dirArrow" transform="translate(30 24)" onmousedown="handlePan(0,-1)">
                  <use xlink:href="#rim" fill="#404040">
                        <set attributeName="fill" to="#808080" begin="arrowUp.mouseover" end="arrowUp.mouseout"/>
                  </use>
                  <path fill="none" stroke="white" stroke-width="1.5" d="M0,-3.0v7 M-2.5,-0.5L0,-3.0L2.5,-0.5"/>
                </g>
                <g id="arrowRight" xlink:href="#dirArrow" transform="rotate(90) translate(36 -43)" onmousedown="handlePan(1,0)">
                  <use xlink:href="#rim" fill="#404040">
                        <set attributeName="fill" to="#808080" begin="arrowRight.mouseover" end="arrowRight.mouseout"/>
                  </use>
                  <path fill="none" stroke="white" stroke-width="1.5" d="M0,-3.0v7 M-2.5,-0.5L0,-3.0L2.5,-0.5"/>
                </g>
                <g id="arrowDown" xlink:href="#dirArrow" transform="rotate(180) translate(-30 -48)" onmousedown="handlePan(0,1)">
                  <use xlink:href="#rim" fill="#404040">
                        <set attributeName="fill" to="#808080" begin="arrowDown.mouseover" end="arrowDown.mouseout"/>
                  </use>
                  <path fill="none" stroke="white" stroke-width="1.5" d="M0,-3.0v7 M-2.5,-0.5L0,-3.0L2.5,-0.5"/>
                </g>
                <g id="arrowLeft" xlink:href="#dirArrow" transform="rotate(270) translate(-36 17)" onmousedown="handlePan(-1,0)">
                  <use xlink:href="#rim" fill="#404040">
                        <set attributeName="fill" to="#808080" begin="arrowLeft.mouseover" end="arrowLeft.mouseout"/>
                  </use>
                  <path fill="none" stroke="white" stroke-width="1.5" d="M0,-3.0v7 M-2.5,-0.5L0,-3.0L2.5,-0.5"/>
                </g>
        </g>
        <svg viewBox="0 0 15 15" width="100%" height="30px" preserveAspectRatio="xMaxYMin meet">
         <g id="arrow_out" transform="scale(0.3 0.3)">
          <a xlink:href="classaopp__deconv__tool_1_1graphical__frontends_1_1ssa__filtering_1_1ImageViewer_adb6b1efe24b9e6e6558ef0ba9416079d_cgraph_org.svg" target="_base">
           <rect id="button" ry="5" rx="5" y="6" x="6" height="38" width="38"
                fill="#f2f5e9" fill-opacity="0.5" stroke="#606060" stroke-width="1.0"/>
           <path id="arrow"
             d="M 11.500037,31.436501 C 11.940474,20.09759 22.043105,11.32322 32.158766,21.979434 L 37.068811,17.246167 C 37.068811,17.246167 37.088388,32 37.088388,32 L 22.160133,31.978069 C 22.160133,31.978069 26.997745,27.140456 26.997745,27.140456 C 18.528582,18.264221 13.291696,25.230495 11.500037,31.436501 z"
             style="fill:#404040;"/>
          </a>
         </g>
        </svg>
</svg>
