<?xml version="1.0" encoding="UTF-8" standalone="no"?>
<!DOCTYPE svg PUBLIC "-//W3C//DTD SVG 1.1//EN"
 "http://www.w3.org/Graphics/SVG/1.1/DTD/svg11.dtd">
<!-- Generated by graphviz version 2.43.0 (0)
 -->
<!-- Title: aopp_deconv_tool.graphical_frontends.ssa_filtering.ImageViewer.set_data Pages: 1 -->
<svg width="526pt" height="110pt"
 viewBox="0.00 0.00 526.00 110.00" xmlns="http://www.w3.org/2000/svg" xmlns:xlink="http://www.w3.org/1999/xlink">
<g id="graph0" class="graph" transform="scale(1 1) rotate(0) translate(4 106)">
<title>aopp_deconv_tool.graphical_frontends.ssa_filtering.ImageViewer.set_data</title>
<!-- Node1 -->
<g id="node1" class="node">
<title>Node1</title>
<g id="a_node1"><a xlink:title=" ">
<polygon fill="#bfbfbf" stroke="black" points="0,-36 0,-66 244,-66 244,-36 0,-36"/>
<text text-anchor="start" x="8" y="-54" font-family="Helvetica,sans-Serif" font-size="10.00">aopp_deconv_tool.graphical</text>
<text text-anchor="middle" x="122" y="-43" font-family="Helvetica,sans-Serif" font-size="10.00">_frontends.ssa_filtering.ImageViewer.set_data</text>
</a>
</g>
</g>
<!-- Node2 -->
<g id="node2" class="node">
<title>Node2</title>
<g id="a_node2"><a xlink:href="../../d6/d1d/classaopp__deconv__tool_1_1graphical__frontends_1_1ssa__filtering_1_1ImageViewer.html#ae101d1c686b3106923f4aba206e1bb5a" target="_top" xlink:title=" ">
<polygon fill="none" stroke="black" points="290,-60.5 290,-101.5 508,-101.5 508,-60.5 290,-60.5"/>
<text text-anchor="start" x="298" y="-89.5" font-family="Helvetica,sans-Serif" font-size="10.00">aopp_deconv_tool.graphical</text>
<text text-anchor="start" x="298" y="-78.5" font-family="Helvetica,sans-Serif" font-size="10.00">_frontends.ssa_filtering.ImageViewer.get</text>
<text text-anchor="middle" x="399" y="-67.5" font-family="Helvetica,sans-Serif" font-size="10.00">_displayed_data</text>
</a>
</g>
</g>
<!-- Node1&#45;&gt;Node2 -->
<g id="edge1" class="edge">
<title>Node1&#45;&gt;Node2</title>
<path fill="none" stroke="midnightblue" d="M244.02,-64.2C255.95,-65.5 268.05,-66.82 279.96,-68.12"/>
<polygon fill="midnightblue" stroke="midnightblue" points="279.58,-71.6 289.9,-69.21 280.34,-64.64 279.58,-71.6"/>
</g>
<!-- Node3 -->
<g id="node3" class="node">
<title>Node3</title>
<g id="a_node3"><a xlink:href="../../d8/dd5/classaopp__deconv__tool_1_1graphical__frontends_1_1ssa__filtering_1_1ImageAggregator.html#a982eb00733474f4a1702af854eb2ac50" target="_top" xlink:title=" ">
<polygon fill="none" stroke="black" points="280,-0.5 280,-41.5 518,-41.5 518,-0.5 280,-0.5"/>
<text text-anchor="start" x="288" y="-29.5" font-family="Helvetica,sans-Serif" font-size="10.00">aopp_deconv_tool.graphical</text>
<text text-anchor="start" x="288" y="-18.5" font-family="Helvetica,sans-Serif" font-size="10.00">_frontends.ssa_filtering.ImageAggregator.get</text>
<text text-anchor="middle" x="399" y="-7.5" font-family="Helvetica,sans-Serif" font-size="10.00">_displayed_data</text>
</a>
</g>
</g>
<!-- Node1&#45;&gt;Node3 -->
<g id="edge2" class="edge">
<title>Node1&#45;&gt;Node3</title>
<path fill="none" stroke="midnightblue" d="M244.02,-37.8C252.51,-36.87 261.09,-35.94 269.62,-35"/>
<polygon fill="midnightblue" stroke="midnightblue" points="270.04,-38.48 279.61,-33.92 269.29,-31.52 270.04,-38.48"/>
</g>
</g>
</svg>
