<?xml version="1.0" encoding="UTF-8" standalone="no"?>
<!DOCTYPE svg PUBLIC "-//W3C//DTD SVG 1.1//EN"
 "http://www.w3.org/Graphics/SVG/1.1/DTD/svg11.dtd">
<!-- Generated by graphviz version 2.43.0 (0)
 -->
<!-- Title: aopp_deconv_tool.graphical_frontends.ssa_filtering.ImageViewer.show Pages: 1 -->
<!--zoomable 678 -->

<svg id="main" version="1.1" xmlns="http://www.w3.org/2000/svg" xmlns:xlink="http://www.w3.org/1999/xlink" xml:space="preserve" onload="init(evt)">
<style type="text/css"><![CDATA[
.node, .edge {opacity: 0.7;}
.node.selected, .edge.selected {opacity: 1;}
.edge:hover path { stroke: red; }
.edge:hover polygon { stroke: red; fill: red; }
]]></style>

<defs>
  <circle id="rim" cx="0" cy="0" r="7"/>
  <circle id="rim2" cx="0" cy="0" r="3.5"/>
  <g id="zoomPlus">
    <use xlink:href="#rim" fill="#404040"><set attributeName="fill" to="#808080" begin="zoomplus.mouseover" end="zoomplus.mouseout"/></use>
    <path d="M-4,0h8M0,-4v8" fill="none" stroke="white" stroke-width="1.5" pointer-events="none"/>
  </g>
  <g id="zoomMin">
    <use xlink:href="#rim" fill="#404040"><set attributeName="fill" to="#808080" begin="zoomminus.mouseover" end="zoomminus.mouseout"/></use>
    <path d="M-4,0h8" fill="none" stroke="white" stroke-width="1.5" pointer-events="none"/>
  </g>
  <g id="arrowUp" transform="translate(30 24)">
    <use xlink:href="#rim"/>
    <path pointer-events="none" fill="none" stroke="white" stroke-width="1.5" d="M0,-3.0v7 M-2.5,-0.5L0,-3.0L2.5,-0.5"/>
  </g>
  <g id="arrowRight" transform="rotate(90) translate(36 -43)">
    <use xlink:href="#rim"/>
    <path pointer-events="none" fill="none" stroke="white" stroke-width="1.5" d="M0,-3.0v7 M-2.5,-0.5L0,-3.0L2.5,-0.5"/>
  </g>
  <g id="arrowDown" transform="rotate(180) translate(-30 -48)">
    <use xlink:href="#rim"/>
    <path pointer-events="none" fill="none" stroke="white" stroke-width="1.5" d="M0,-3.0v7 M-2.5,-0.5L0,-3.0L2.5,-0.5"/>
  </g>
  <g id="arrowLeft" transform="rotate(270) translate(-36 17)">
    <use xlink:href="#rim"/>
    <path pointer-events="none" fill="none" stroke="white" stroke-width="1.5" d="M0,-3.0v7 M-2.5,-0.5L0,-3.0L2.5,-0.5"/>
  </g>
  <g id="resetDef">
    <use xlink:href="#rim2" fill="#404040"><set attributeName="fill" to="#808080" begin="reset.mouseover" end="reset.mouseout"/></use>
  </g>
</defs>
<script type="application/ecmascript">
var viewWidth = 985;
var viewHeight = 678;
var sectionId = 'dynsection-7';
</script>
<script type="application/ecmascript" xlink:href="../../svg.min.js"/>
<svg id="graph" class="graph">
<g id="viewport">
<title>aopp_deconv_tool.graphical_frontends.ssa_filtering.ImageViewer.show</title>
<!-- Node1 -->
<g id="Node000001" class="node">
<title>Node1</title>
<g id="a_Node000001"><a xlink:title=" ">
<polygon fill="#999999" stroke="#666666" points="226,-241.5 0,-241.5 0,-211.5 226,-211.5 226,-241.5"/>
<text text-anchor="start" x="8" y="-229.5" font-family="Helvetica,sans-Serif" font-size="10.00">aopp_deconv_tool.graphical</text>
<text text-anchor="middle" x="113" y="-218.5" font-family="Helvetica,sans-Serif" font-size="10.00">_frontends.ssa_filtering.ImageViewer.show</text>
</a>
</g>
</g>
<!-- Node2 -->
<g id="Node000002" class="node">
<title>Node2</title>
<g id="a_Node000002"><a xlink:href="../../db/dd6/classaopp__deconv__tool_1_1graphical__frontends_1_1ssa__filtering_1_1ImagePlot.html#aa2bda605c014c2b3193e8c4db3e4ecfb" target="_top" xlink:title=" ">
<polygon fill="white" stroke="#666666" points="507.5,-436.5 279.5,-436.5 279.5,-406.5 507.5,-406.5 507.5,-436.5"/>
<text text-anchor="start" x="287.5" y="-424.5" font-family="Helvetica,sans-Serif" font-size="10.00">aopp_deconv_tool.graphical</text>
<text text-anchor="middle" x="393.5" y="-413.5" font-family="Helvetica,sans-Serif" font-size="10.00">_frontends.ssa_filtering.ImagePlot.set_data</text>
</a>
</g>
</g>
<!-- Node1&#45;&gt;Node2 -->
<g id="edge1_Node000001_Node000002" class="edge">
<title>Node1&#45;&gt;Node2</title>
<g id="a_edge1_Node000001_Node000002"><a xlink:title=" ">
<path fill="none" stroke="#63b8ff" d="M124.78,-241.94C146.97,-272.58 200.82,-341.42 262,-379.5 277.94,-389.42 296.45,-397.22 314.43,-403.25"/>
<polygon fill="#63b8ff" stroke="#63b8ff" points="313.76,-406.71 324.35,-406.43 315.89,-400.05 313.76,-406.71"/>
</a>
</g>
</g>
<!-- Node12 -->
<g id="Node000012" class="node">
<title>Node12</title>
<g id="a_Node000012"><a xlink:href="../../d1/d4b/classaopp__deconv__tool_1_1graphical__frontends_1_1ssa__filtering_1_1LinePlot.html#abbc55db75bf504c9785025cd364e77bf" target="_top" xlink:title=" ">
<polygon fill="white" stroke="#666666" points="502.5,-370.5 284.5,-370.5 284.5,-340.5 502.5,-340.5 502.5,-370.5"/>
<text text-anchor="start" x="292.5" y="-358.5" font-family="Helvetica,sans-Serif" font-size="10.00">aopp_deconv_tool.graphical</text>
<text text-anchor="middle" x="393.5" y="-347.5" font-family="Helvetica,sans-Serif" font-size="10.00">_frontends.ssa_filtering.LinePlot.set_data</text>
</a>
</g>
</g>
<!-- Node1&#45;&gt;Node12 -->
<g id="edge14_Node000001_Node000012" class="edge">
<title>Node1&#45;&gt;Node12</title>
<g id="a_edge14_Node000001_Node000012"><a xlink:title=" ">
<path fill="none" stroke="#63b8ff" d="M132.93,-241.73C160,-262.8 212.04,-300.69 262,-322.5 275.79,-328.52 290.9,-333.6 305.8,-337.83"/>
<polygon fill="#63b8ff" stroke="#63b8ff" points="304.97,-341.23 315.54,-340.49 306.81,-334.48 304.97,-341.23"/>
</a>
</g>
</g>
<!-- Node15 -->
<g id="Node000015" class="node">
<title>Node15</title>
<g id="a_Node000015"><a xlink:href="../../da/d4f/classaopp__deconv__tool_1_1graphical__frontends_1_1ssa__filtering_1_1BasePanel.html#a78f7dd10deeb03c20bb18bf3c9e44fef" target="_top" xlink:title=" ">
<polygon fill="white" stroke="#666666" points="508,-313.5 279,-313.5 279,-283.5 508,-283.5 508,-313.5"/>
<text text-anchor="start" x="287" y="-301.5" font-family="Helvetica,sans-Serif" font-size="10.00">aopp_deconv_tool.graphical</text>
<text text-anchor="middle" x="393.5" y="-290.5" font-family="Helvetica,sans-Serif" font-size="10.00">_frontends.ssa_filtering.BasePanel.set_data</text>
</a>
</g>
</g>
<!-- Node1&#45;&gt;Node15 -->
<g id="edge25_Node000001_Node000015" class="edge">
<title>Node1&#45;&gt;Node15</title>
<g id="a_edge25_Node000001_Node000015"><a xlink:title=" ">
<path fill="none" stroke="#63b8ff" d="M155.36,-241.53C184.8,-251.84 225.47,-265.26 262,-274.5 271.73,-276.96 281.93,-279.28 292.16,-281.43"/>
<polygon fill="#63b8ff" stroke="#63b8ff" points="291.46,-284.86 301.96,-283.45 292.86,-278.01 291.46,-284.86"/>
</a>
</g>
</g>
<!-- Node16 -->
<g id="Node000016" class="node">
<title>Node16</title>
<g id="a_Node000016"><a xlink:href="../../df/dfb/classaopp__deconv__tool_1_1graphical__frontends_1_1ssa__filtering_1_1LineRegionPanel.html#a9fafeaf58f51f9abf5d0604304e30788" target="_top" xlink:title=" ">
<polygon fill="white" stroke="#666666" points="487.5,-247 299.5,-247 299.5,-206 487.5,-206 487.5,-247"/>
<text text-anchor="start" x="307.5" y="-235" font-family="Helvetica,sans-Serif" font-size="10.00">aopp_deconv_tool.graphical</text>
<text text-anchor="start" x="307.5" y="-224" font-family="Helvetica,sans-Serif" font-size="10.00">_frontends.ssa_filtering.LineRegion</text>
<text text-anchor="middle" x="393.5" y="-213" font-family="Helvetica,sans-Serif" font-size="10.00">Panel.set_data</text>
</a>
</g>
</g>
<!-- Node1&#45;&gt;Node16 -->
<g id="edge26_Node000001_Node000016" class="edge">
<title>Node1&#45;&gt;Node16</title>
<g id="a_edge26_Node000001_Node000016"><a xlink:title=" ">
<path fill="none" stroke="#63b8ff" d="M226.07,-226.5C246.99,-226.5 268.75,-226.5 289.38,-226.5"/>
<polygon fill="#63b8ff" stroke="#63b8ff" points="289.4,-230 299.4,-226.5 289.4,-223 289.4,-230"/>
</a>
</g>
</g>
<!-- Node17 -->
<g id="Node000017" class="node">
<title>Node17</title>
<g id="a_Node000017"><a xlink:href="../../dd/d48/classaopp__deconv__tool_1_1graphical__frontends_1_1ssa__filtering_1_1SSAViewer.html#a601c497b93258af65a9b85bc6c9b89f8" target="_top" xlink:title=" ">
<polygon fill="white" stroke="#666666" points="508.5,-169.5 278.5,-169.5 278.5,-139.5 508.5,-139.5 508.5,-169.5"/>
<text text-anchor="start" x="286.5" y="-157.5" font-family="Helvetica,sans-Serif" font-size="10.00">aopp_deconv_tool.graphical</text>
<text text-anchor="middle" x="393.5" y="-146.5" font-family="Helvetica,sans-Serif" font-size="10.00">_frontends.ssa_filtering.SSAViewer.set_data</text>
</a>
</g>
</g>
<!-- Node1&#45;&gt;Node17 -->
<g id="edge28_Node000001_Node000017" class="edge">
<title>Node1&#45;&gt;Node17</title>
<g id="a_edge28_Node000001_Node000017"><a xlink:title=" ">
<path fill="none" stroke="#63b8ff" d="M172.04,-211.49C216.39,-200.03 277.64,-184.19 324.32,-172.13"/>
<polygon fill="#63b8ff" stroke="#63b8ff" points="325.25,-175.5 334.05,-169.61 323.49,-168.72 325.25,-175.5"/>
</a>
</g>
</g>
<!-- Node18 -->
<g id="Node000018" class="node">
<title>Node18</title>
<g id="a_Node000018"><a xlink:href="../../d6/d1d/classaopp__deconv__tool_1_1graphical__frontends_1_1ssa__filtering_1_1ImageViewer.html#a928f59c859e6fa028dc5fbf1fa706baf" target="_top" xlink:title=" ">
<polygon fill="white" stroke="#666666" points="514.5,-98.5 272.5,-98.5 272.5,-68.5 514.5,-68.5 514.5,-98.5"/>
<text text-anchor="start" x="280.5" y="-86.5" font-family="Helvetica,sans-Serif" font-size="10.00">aopp_deconv_tool.graphical</text>
<text text-anchor="middle" x="393.5" y="-75.5" font-family="Helvetica,sans-Serif" font-size="10.00">_frontends.ssa_filtering.ImageViewer.set_data</text>
</a>
</g>
</g>
<!-- Node1&#45;&gt;Node18 -->
<g id="edge30_Node000001_Node000018" class="edge">
<title>Node1&#45;&gt;Node18</title>
<g id="a_edge30_Node000001_Node000018"><a xlink:title=" ">
<path fill="none" stroke="#63b8ff" d="M134.18,-211.25C161.87,-190.85 213.71,-154.46 262,-130.5 284.46,-119.36 310.24,-109.5 332.92,-101.73"/>
<polygon fill="#63b8ff" stroke="#63b8ff" points="334.07,-105.04 342.43,-98.53 331.84,-98.4 334.07,-105.04"/>
</a>
</g>
</g>
<!-- Node21 -->
<g id="Node000021" class="node">
<title>Node21</title>
<g id="a_Node000021"><a xlink:href="../../d8/dd5/classaopp__deconv__tool_1_1graphical__frontends_1_1ssa__filtering_1_1ImageAggregator.html#afd37fadb2ce7e1ee7ad84ec2d8ba85cd" target="_top" xlink:title=" ">
<polygon fill="white" stroke="#666666" points="525,-32.5 262,-32.5 262,-2.5 525,-2.5 525,-32.5"/>
<text text-anchor="start" x="270" y="-20.5" font-family="Helvetica,sans-Serif" font-size="10.00">aopp_deconv_tool.graphical</text>
<text text-anchor="middle" x="393.5" y="-9.5" font-family="Helvetica,sans-Serif" font-size="10.00">_frontends.ssa_filtering.ImageAggregator.set_data</text>
</a>
</g>
</g>
<!-- Node1&#45;&gt;Node21 -->
<g id="edge34_Node000001_Node000021" class="edge">
<title>Node1&#45;&gt;Node21</title>
<g id="a_edge34_Node000001_Node000021"><a xlink:title=" ">
<path fill="none" stroke="#63b8ff" d="M123.46,-211.13C144.36,-178.4 197.78,-101.44 262,-59.5 277.3,-49.51 295.16,-41.73 312.67,-35.74"/>
<polygon fill="#63b8ff" stroke="#63b8ff" points="313.92,-39.02 322.35,-32.59 311.75,-32.36 313.92,-39.02"/>
</a>
</g>
</g>
<!-- Node3 -->
<g id="Node000003" class="node">
<title>Node3</title>
<g id="a_Node000003"><a xlink:href="../../db/dd6/classaopp__deconv__tool_1_1graphical__frontends_1_1ssa__filtering_1_1ImagePlot.html#acda8236fbaf8ab2a3d65ad9042849a25" target="_top" xlink:title=" ">
<polygon fill="white" stroke="#666666" points="783.5,-573 589.5,-573 589.5,-532 783.5,-532 783.5,-573"/>
<text text-anchor="start" x="597.5" y="-561" font-family="Helvetica,sans-Serif" font-size="10.00">aopp_deconv_tool.graphical</text>
<text text-anchor="start" x="597.5" y="-550" font-family="Helvetica,sans-Serif" font-size="10.00">_frontends.ssa_filtering.ImagePlot.is</text>
<text text-anchor="middle" x="686.5" y="-539" font-family="Helvetica,sans-Serif" font-size="10.00">_new_data_compatible</text>
</a>
</g>
</g>
<!-- Node2&#45;&gt;Node3 -->
<g id="edge2_Node000002_Node000003" class="edge">
<title>Node2&#45;&gt;Node3</title>
<g id="a_edge2_Node000002_Node000003"><a xlink:title=" ">
<path fill="none" stroke="#63b8ff" d="M414.38,-436.64C444.51,-458.87 504.23,-500.22 561,-523.5 566.93,-525.93 573.1,-528.18 579.4,-530.27"/>
<polygon fill="#63b8ff" stroke="#63b8ff" points="578.77,-533.74 589.36,-533.4 580.87,-527.06 578.77,-533.74"/>
</a>
</g>
</g>
<!-- Node4 -->
<g id="Node000004" class="node">
<title>Node4</title>
<g id="a_Node000004"><a xlink:href="../../d1/d4b/classaopp__deconv__tool_1_1graphical__frontends_1_1ssa__filtering_1_1LinePlot.html#a012d15fe4bdccdd70a661ffddfadb5a5" target="_top" xlink:title=" ">
<polygon fill="white" stroke="#666666" points="778.5,-514 594.5,-514 594.5,-473 778.5,-473 778.5,-514"/>
<text text-anchor="start" x="602.5" y="-502" font-family="Helvetica,sans-Serif" font-size="10.00">aopp_deconv_tool.graphical</text>
<text text-anchor="start" x="602.5" y="-491" font-family="Helvetica,sans-Serif" font-size="10.00">_frontends.ssa_filtering.LinePlot.is</text>
<text text-anchor="middle" x="686.5" y="-480" font-family="Helvetica,sans-Serif" font-size="10.00">_new_data_compatible</text>
</a>
</g>
</g>
<!-- Node2&#45;&gt;Node4 -->
<g id="edge3_Node000002_Node000004" class="edge">
<title>Node2&#45;&gt;Node4</title>
<g id="a_edge3_Node000002_Node000004"><a xlink:title=" ">
<path fill="none" stroke="#63b8ff" d="M453.41,-436.52C485.25,-444.6 525.25,-454.68 561,-463.5 570.39,-465.82 580.18,-468.21 589.97,-470.59"/>
<polygon fill="#63b8ff" stroke="#63b8ff" points="589.2,-474.01 599.75,-472.96 590.85,-467.2 589.2,-474.01"/>
</a>
</g>
</g>
<!-- Node5 -->
<g id="Node000005" class="node">
<title>Node5</title>
<g id="a_Node000005"><a xlink:href="../../d7/d1a/classaopp__deconv__tool_1_1graphical__frontends_1_1ssa__filtering_1_1BasePlot.html#ac5b6b4a92ca9aa6a96cea9d16217b831" target="_top" xlink:title=" ">
<polygon fill="white" stroke="#666666" points="795,-436.5 578,-436.5 578,-406.5 795,-406.5 795,-436.5"/>
<text text-anchor="start" x="586" y="-424.5" font-family="Helvetica,sans-Serif" font-size="10.00">aopp_deconv_tool.graphical</text>
<text text-anchor="middle" x="686.5" y="-413.5" font-family="Helvetica,sans-Serif" font-size="10.00">_frontends.ssa_filtering.BasePlot.remove</text>
</a>
</g>
</g>
<!-- Node2&#45;&gt;Node5 -->
<g id="edge4_Node000002_Node000005" class="edge">
<title>Node2&#45;&gt;Node5</title>
<g id="a_edge4_Node000002_Node000005"><a xlink:title=" ">
<path fill="none" stroke="#63b8ff" d="M507.84,-421.5C527.41,-421.5 547.8,-421.5 567.49,-421.5"/>
<polygon fill="#63b8ff" stroke="#63b8ff" points="567.71,-425 577.71,-421.5 567.71,-418 567.71,-425"/>
</a>
</g>
</g>
<!-- Node6 -->
<g id="Node000006" class="node">
<title>Node6</title>
<g id="a_Node000006"><a xlink:href="../../db/dd6/classaopp__deconv__tool_1_1graphical__frontends_1_1ssa__filtering_1_1ImagePlot.html#ac6cf2549f230815f44eabb01fefe2a69" target="_top" xlink:title=" ">
<polygon fill="white" stroke="#666666" points="798.5,-370.5 574.5,-370.5 574.5,-340.5 798.5,-340.5 798.5,-370.5"/>
<text text-anchor="start" x="582.5" y="-358.5" font-family="Helvetica,sans-Serif" font-size="10.00">aopp_deconv_tool.graphical</text>
<text text-anchor="middle" x="686.5" y="-347.5" font-family="Helvetica,sans-Serif" font-size="10.00">_frontends.ssa_filtering.ImagePlot.remove</text>
</a>
</g>
</g>
<!-- Node2&#45;&gt;Node6 -->
<g id="edge6_Node000002_Node000006" class="edge">
<title>Node2&#45;&gt;Node6</title>
<g id="a_edge6_Node000002_Node000006"><a xlink:title=" ">
<path fill="none" stroke="#63b8ff" d="M460.9,-406.44C505.05,-396.43 563.15,-383.25 609.21,-372.8"/>
<polygon fill="#63b8ff" stroke="#63b8ff" points="610.16,-376.18 619.14,-370.55 608.61,-369.35 610.16,-376.18"/>
</a>
</g>
</g>
<!-- Node7 -->
<g id="Node000007" class="node">
<title>Node7</title>
<g id="a_Node000007"><a xlink:href="../../da/d39/classaopp__deconv__tool_1_1graphical__frontends_1_1ssa__filtering_1_1WidgetBase.html#af6aef2730715bf5f18f8ecd23dc615dc" target="_top" xlink:title=" ">
<polygon fill="white" stroke="#666666" points="770.5,-304 602.5,-304 602.5,-263 770.5,-263 770.5,-304"/>
<text text-anchor="start" x="610.5" y="-292" font-family="Helvetica,sans-Serif" font-size="10.00">aopp_deconv_tool.graphical</text>
<text text-anchor="start" x="610.5" y="-281" font-family="Helvetica,sans-Serif" font-size="10.00">_frontends.ssa_filtering.Widget</text>
<text text-anchor="middle" x="686.5" y="-270" font-family="Helvetica,sans-Serif" font-size="10.00">Base.remove</text>
</a>
</g>
</g>
<!-- Node2&#45;&gt;Node7 -->
<g id="edge8_Node000002_Node000007" class="edge">
<title>Node2&#45;&gt;Node7</title>
<g id="a_edge8_Node000002_Node000007"><a xlink:title=" ">
<path fill="none" stroke="#63b8ff" d="M467.98,-406.47C487.67,-400.22 508.14,-391.52 525,-379.5 546.71,-364.02 539.73,-347.59 561,-331.5 573.35,-322.16 587.74,-314.42 602.27,-308.09"/>
<polygon fill="#63b8ff" stroke="#63b8ff" points="603.91,-311.19 611.81,-304.13 601.23,-304.73 603.91,-311.19"/>
</a>
</g>
</g>
<!-- Node8 -->
<g id="Node000008" class="node">
<title>Node8</title>
<g id="a_Node000008"><a xlink:href="../../d6/da1/classaopp__deconv__tool_1_1task__strat_1_1TaskStratSet.html#a089f805d274ef3be0b64217e99ffed9d" target="_top" xlink:title=" ">
<polygon fill="white" stroke="#666666" points="761,-244.5 612,-244.5 612,-214.5 761,-214.5 761,-244.5"/>
<text text-anchor="start" x="620" y="-232.5" font-family="Helvetica,sans-Serif" font-size="10.00">aopp_deconv_tool.task</text>
<text text-anchor="middle" x="686.5" y="-221.5" font-family="Helvetica,sans-Serif" font-size="10.00">_strat.TaskStratSet.remove</text>
</a>
</g>
</g>
<!-- Node2&#45;&gt;Node8 -->
<g id="edge10_Node000002_Node000008" class="edge">
<title>Node2&#45;&gt;Node8</title>
<g id="a_edge10_Node000002_Node000008"><a xlink:title=" ">
<path fill="none" stroke="#63b8ff" d="M482.03,-406.41C497.96,-400.27 513.24,-391.63 525,-379.5 565.24,-337.99 518.47,-293.67 561,-254.5 572.37,-244.03 586.86,-237.41 601.9,-233.33"/>
<polygon fill="#63b8ff" stroke="#63b8ff" points="602.9,-236.69 611.84,-231 601.3,-229.88 602.9,-236.69"/>
</a>
</g>
</g>
<!-- Node10 -->
<g id="Node000010" class="node">
<title>Node10</title>
<g id="a_Node000010"><a xlink:href="../../db/dd6/classaopp__deconv__tool_1_1graphical__frontends_1_1ssa__filtering_1_1ImagePlot.html#aae07fedf2cff11e37b6496dfad51bb92" target="_top" xlink:title=" ">
<polygon fill="white" stroke="#666666" points="812,-669.5 561,-669.5 561,-639.5 812,-639.5 812,-669.5"/>
<text text-anchor="start" x="569" y="-657.5" font-family="Helvetica,sans-Serif" font-size="10.00">aopp_deconv_tool.graphical</text>
<text text-anchor="middle" x="686.5" y="-646.5" font-family="Helvetica,sans-Serif" font-size="10.00">_frontends.ssa_filtering.ImagePlot.sanitise_data</text>
</a>
</g>
</g>
<!-- Node2&#45;&gt;Node10 -->
<g id="edge12_Node000002_Node000010" class="edge">
<title>Node2&#45;&gt;Node10</title>
<g id="a_edge12_Node000002_Node000010"><a xlink:title=" ">
<path fill="none" stroke="#63b8ff" d="M401.72,-436.64C421.25,-475.84 479.24,-581.02 561,-630.5 563.82,-632.21 566.75,-633.8 569.74,-635.28"/>
<polygon fill="#63b8ff" stroke="#63b8ff" points="568.38,-638.51 578.94,-639.41 571.25,-632.12 568.38,-638.51"/>
</a>
</g>
</g>
<!-- Node11 -->
<g id="Node000011" class="node">
<title>Node11</title>
<g id="a_Node000011"><a xlink:href="../../d1/d4b/classaopp__deconv__tool_1_1graphical__frontends_1_1ssa__filtering_1_1LinePlot.html#ac35e5fa64883848195e0bf919d84b177" target="_top" xlink:title=" ">
<polygon fill="white" stroke="#666666" points="807,-621.5 566,-621.5 566,-591.5 807,-591.5 807,-621.5"/>
<text text-anchor="start" x="574" y="-609.5" font-family="Helvetica,sans-Serif" font-size="10.00">aopp_deconv_tool.graphical</text>
<text text-anchor="middle" x="686.5" y="-598.5" font-family="Helvetica,sans-Serif" font-size="10.00">_frontends.ssa_filtering.LinePlot.sanitise_data</text>
</a>
</g>
</g>
<!-- Node2&#45;&gt;Node11 -->
<g id="edge13_Node000002_Node000011" class="edge">
<title>Node2&#45;&gt;Node11</title>
<g id="a_edge13_Node000002_Node000011"><a xlink:title=" ">
<path fill="none" stroke="#63b8ff" d="M405.39,-436.89C429.39,-469.55 490.36,-545.77 561,-582.5 564.74,-584.44 568.61,-586.23 572.57,-587.87"/>
<polygon fill="#63b8ff" stroke="#63b8ff" points="571.39,-591.17 581.99,-591.45 573.88,-584.62 571.39,-591.17"/>
</a>
</g>
</g>
<!-- Node5&#45;&gt;Node5 -->
<g id="edge5_Node000005_Node000005" class="edge">
<title>Node5&#45;&gt;Node5</title>
<g id="a_edge5_Node000005_Node000005"><a xlink:title=" ">
<path fill="none" stroke="#63b8ff" d="M646.77,-436.78C637.95,-445.91 651.19,-454.5 686.5,-454.5 707.47,-454.5 720.65,-451.47 726.06,-447.1"/>
<polygon fill="#63b8ff" stroke="#63b8ff" points="729.56,-446.83 726.23,-436.78 722.56,-446.72 729.56,-446.83"/>
</a>
</g>
</g>
<!-- Node6&#45;&gt;Node6 -->
<g id="edge7_Node000006_Node000006" class="edge">
<title>Node6&#45;&gt;Node6</title>
<g id="a_edge7_Node000006_Node000006"><a xlink:title=" ">
<path fill="none" stroke="#63b8ff" d="M646.77,-370.78C637.95,-379.91 651.19,-388.5 686.5,-388.5 707.47,-388.5 720.65,-385.47 726.06,-381.1"/>
<polygon fill="#63b8ff" stroke="#63b8ff" points="729.56,-380.83 726.23,-370.78 722.56,-380.72 729.56,-380.83"/>
</a>
</g>
</g>
<!-- Node7&#45;&gt;Node7 -->
<g id="edge9_Node000007_Node000007" class="edge">
<title>Node7&#45;&gt;Node7</title>
<g id="a_edge9_Node000007_Node000007"><a xlink:title=" ">
<path fill="none" stroke="#63b8ff" d="M644.96,-304.1C640.43,-313.65 654.28,-322 686.5,-322 706.64,-322 719.6,-318.74 725.38,-313.96"/>
<polygon fill="#63b8ff" stroke="#63b8ff" points="728.82,-314.66 728.04,-304.1 722.06,-312.84 728.82,-314.66"/>
</a>
</g>
</g>
<!-- Node9 -->
<g id="Node000009" class="node">
<title>Node9</title>
<g id="a_Node000009"><a xlink:href="../../d6/da1/classaopp__deconv__tool_1_1task__strat_1_1TaskStratSet.html#a9c869a7fb815955cc1bb5666e5ebe08f" target="_top" xlink:title=" ">
<polygon fill="white" stroke="#666666" points="977,-250 848,-250 848,-209 977,-209 977,-250"/>
<text text-anchor="start" x="856" y="-238" font-family="Helvetica,sans-Serif" font-size="10.00">aopp_deconv_tool.task</text>
<text text-anchor="start" x="856" y="-227" font-family="Helvetica,sans-Serif" font-size="10.00">_strat.TaskStratSet.</text>
<text text-anchor="middle" x="912.5" y="-216" font-family="Helvetica,sans-Serif" font-size="10.00">_del_item</text>
</a>
</g>
</g>
<!-- Node8&#45;&gt;Node9 -->
<g id="edge11_Node000008_Node000009" class="edge">
<title>Node8&#45;&gt;Node9</title>
<g id="a_edge11_Node000008_Node000009"><a xlink:title=" ">
<path fill="none" stroke="#63b8ff" d="M761.16,-229.5C785.81,-229.5 813.29,-229.5 837.94,-229.5"/>
<polygon fill="#63b8ff" stroke="#63b8ff" points="837.95,-233 847.95,-229.5 837.95,-226 837.95,-233"/>
</a>
</g>
</g>
<!-- Node12&#45;&gt;Node3 -->
<g id="edge17_Node000012_Node000003" class="edge">
<title>Node12&#45;&gt;Node3</title>
<g id="a_edge17_Node000012_Node000003"><a xlink:title=" ">
<path fill="none" stroke="#63b8ff" d="M482.05,-370.57C497.98,-376.72 513.25,-385.36 525,-397.5 565.5,-439.36 518.81,-483.35 561,-523.5 566.71,-528.93 573.23,-533.42 580.22,-537.11"/>
<polygon fill="#63b8ff" stroke="#63b8ff" points="578.78,-540.3 589.32,-541.38 581.75,-533.96 578.78,-540.3"/>
</a>
</g>
</g>
<!-- Node12&#45;&gt;Node4 -->
<g id="edge18_Node000012_Node000004" class="edge">
<title>Node12&#45;&gt;Node4</title>
<g id="a_edge18_Node000012_Node000004"><a xlink:title=" ">
<path fill="none" stroke="#63b8ff" d="M473.93,-370.54C492.09,-376.7 510.33,-385.36 525,-397.5 550.74,-418.81 534.48,-443.17 561,-463.5 568.26,-469.06 576.4,-473.61 584.94,-477.33"/>
<polygon fill="#63b8ff" stroke="#63b8ff" points="583.77,-480.63 594.36,-481.05 586.34,-474.12 583.77,-480.63"/>
</a>
</g>
</g>
<!-- Node12&#45;&gt;Node5 -->
<g id="edge19_Node000012_Node000005" class="edge">
<title>Node12&#45;&gt;Node5</title>
<g id="a_edge19_Node000012_Node000005"><a xlink:title=" ">
<path fill="none" stroke="#63b8ff" d="M450.95,-370.59C483.1,-378.96 524.19,-389.32 561,-397.5 571.72,-399.88 582.99,-402.25 594.19,-404.51"/>
<polygon fill="#63b8ff" stroke="#63b8ff" points="593.5,-407.95 603.99,-406.48 594.87,-401.08 593.5,-407.95"/>
</a>
</g>
</g>
<!-- Node12&#45;&gt;Node6 -->
<g id="edge20_Node000012_Node000006" class="edge">
<title>Node12&#45;&gt;Node6</title>
<g id="a_edge20_Node000012_Node000006"><a xlink:title=" ">
<path fill="none" stroke="#63b8ff" d="M502.86,-355.5C522.76,-355.5 543.66,-355.5 563.93,-355.5"/>
<polygon fill="#63b8ff" stroke="#63b8ff" points="564.14,-359 574.14,-355.5 564.14,-352 564.14,-359"/>
</a>
</g>
</g>
<!-- Node12&#45;&gt;Node7 -->
<g id="edge21_Node000012_Node000007" class="edge">
<title>Node12&#45;&gt;Node7</title>
<g id="a_edge21_Node000012_Node000007"><a xlink:title=" ">
<path fill="none" stroke="#63b8ff" d="M455.15,-340.49C494.95,-330.65 547.78,-317.57 592.8,-306.44"/>
<polygon fill="#63b8ff" stroke="#63b8ff" points="593.71,-309.82 602.58,-304.02 592.03,-303.02 593.71,-309.82"/>
</a>
</g>
</g>
<!-- Node12&#45;&gt;Node8 -->
<g id="edge22_Node000012_Node000008" class="edge">
<title>Node12&#45;&gt;Node8</title>
<g id="a_edge22_Node000012_Node000008"><a xlink:title=" ">
<path fill="none" stroke="#63b8ff" d="M492.49,-340.46C504.17,-335.94 515.35,-330.08 525,-322.5 551.89,-301.38 533.59,-274.95 561,-254.5 572.92,-245.61 587.19,-239.67 601.76,-235.74"/>
<polygon fill="#63b8ff" stroke="#63b8ff" points="602.95,-239.05 611.87,-233.33 601.33,-232.24 602.95,-239.05"/>
</a>
</g>
</g>
<!-- Node12&#45;&gt;Node10 -->
<g id="edge23_Node000012_Node000010" class="edge">
<title>Node12&#45;&gt;Node10</title>
<g id="a_edge23_Node000012_Node000010"><a xlink:title=" ">
<path fill="none" stroke="#63b8ff" d="M485.94,-370.54C500.78,-376.71 514.65,-385.37 525,-397.5 593.01,-477.21 488.29,-555.04 561,-630.5 561.8,-631.33 562.62,-632.14 563.46,-632.93"/>
<polygon fill="#63b8ff" stroke="#63b8ff" points="561.5,-635.84 571.48,-639.37 565.88,-630.38 561.5,-635.84"/>
</a>
</g>
</g>
<!-- Node12&#45;&gt;Node11 -->
<g id="edge24_Node000012_Node000011" class="edge">
<title>Node12&#45;&gt;Node11</title>
<g id="a_edge24_Node000012_Node000011"><a xlink:title=" ">
<path fill="none" stroke="#63b8ff" d="M484.89,-370.6C500.01,-376.76 514.26,-385.39 525,-397.5 580.6,-460.15 501.72,-523.32 561,-582.5 561.94,-583.44 562.91,-584.35 563.9,-585.23"/>
<polygon fill="#63b8ff" stroke="#63b8ff" points="561.86,-588.07 571.92,-591.4 566.13,-582.53 561.86,-588.07"/>
</a>
</g>
</g>
<!-- Node13 -->
<g id="Node000013" class="node">
<title>Node13</title>
<g id="a_Node000013"><a xlink:href="../../db/dd6/classaopp__deconv__tool_1_1graphical__frontends_1_1ssa__filtering_1_1ImagePlot.html#ab02e0d96d535d8e3efe5892c326f6de9" target="_top" xlink:title=" ">
<polygon fill="white" stroke="#666666" points="795,-196.5 578,-196.5 578,-166.5 795,-166.5 795,-196.5"/>
<text text-anchor="start" x="586" y="-184.5" font-family="Helvetica,sans-Serif" font-size="10.00">aopp_deconv_tool.graphical</text>
<text text-anchor="middle" x="686.5" y="-173.5" font-family="Helvetica,sans-Serif" font-size="10.00">_frontends.ssa_filtering.ImagePlot.create</text>
</a>
</g>
</g>
<!-- Node12&#45;&gt;Node13 -->
<g id="edge15_Node000012_Node000013" class="edge">
<title>Node12&#45;&gt;Node13</title>
<g id="a_edge15_Node000012_Node000013"><a xlink:title=" ">
<path fill="none" stroke="#63b8ff" d="M497.82,-340.41C507.8,-335.84 517.12,-329.99 525,-322.5 564.44,-285.02 520.51,-241.84 561,-205.5 563.54,-203.22 566.23,-201.13 569.04,-199.21"/>
<polygon fill="#63b8ff" stroke="#63b8ff" points="571.02,-202.11 577.8,-193.97 567.43,-196.1 571.02,-202.11"/>
</a>
</g>
</g>
<!-- Node14 -->
<g id="Node000014" class="node">
<title>Node14</title>
<g id="a_Node000014"><a xlink:href="../../d1/d4b/classaopp__deconv__tool_1_1graphical__frontends_1_1ssa__filtering_1_1LinePlot.html#a86c5b305fb1693d23c4099d4a7dd2688" target="_top" xlink:title=" ">
<polygon fill="white" stroke="#666666" points="789.5,-148.5 583.5,-148.5 583.5,-118.5 789.5,-118.5 789.5,-148.5"/>
<text text-anchor="start" x="591.5" y="-136.5" font-family="Helvetica,sans-Serif" font-size="10.00">aopp_deconv_tool.graphical</text>
<text text-anchor="middle" x="686.5" y="-125.5" font-family="Helvetica,sans-Serif" font-size="10.00">_frontends.ssa_filtering.LinePlot.create</text>
</a>
</g>
</g>
<!-- Node12&#45;&gt;Node14 -->
<g id="edge16_Node000012_Node000014" class="edge">
<title>Node12&#45;&gt;Node14</title>
<g id="a_edge16_Node000012_Node000014"><a xlink:title=" ">
<path fill="none" stroke="#63b8ff" d="M499.73,-340.45C509.11,-335.85 517.77,-329.97 525,-322.5 577.2,-268.56 507.28,-209.92 561,-157.5 565.04,-153.56 569.51,-150.17 574.3,-147.26"/>
<polygon fill="#63b8ff" stroke="#63b8ff" points="576.04,-150.3 583.22,-142.51 572.75,-144.11 576.04,-150.3"/>
</a>
</g>
</g>
<!-- Node16&#45;&gt;Node16 -->
<g id="edge27_Node000016_Node000016" class="edge">
<title>Node16&#45;&gt;Node16</title>
<g id="a_edge27_Node000016_Node000016"><a xlink:title=" ">
<path fill="none" stroke="#63b8ff" d="M342.04,-247.1C336.42,-256.65 353.58,-265 393.5,-265 418.45,-265 434.51,-261.74 441.67,-256.96"/>
<polygon fill="#63b8ff" stroke="#63b8ff" points="445.12,-257.69 444.96,-247.1 438.48,-255.48 445.12,-257.69"/>
</a>
</g>
</g>
<!-- Node17&#45;&gt;Node17 -->
<g id="edge29_Node000017_Node000017" class="edge">
<title>Node17&#45;&gt;Node17</title>
<g id="a_edge29_Node000017_Node000017"><a xlink:title=" ">
<path fill="none" stroke="#63b8ff" d="M344.28,-169.78C333.34,-178.91 349.75,-187.5 393.5,-187.5 419.82,-187.5 436.24,-184.39 442.77,-179.92"/>
<polygon fill="#63b8ff" stroke="#63b8ff" points="446.27,-179.76 442.72,-169.78 439.27,-179.79 446.27,-179.76"/>
</a>
</g>
</g>
<!-- Node18&#45;&gt;Node18 -->
<g id="edge33_Node000018_Node000018" class="edge">
<title>Node18&#45;&gt;Node18</title>
<g id="a_edge33_Node000018_Node000018"><a xlink:title=" ">
<path fill="none" stroke="#63b8ff" d="M344.28,-98.78C333.34,-107.91 349.75,-116.5 393.5,-116.5 419.82,-116.5 436.24,-113.39 442.77,-108.92"/>
<polygon fill="#63b8ff" stroke="#63b8ff" points="446.27,-108.76 442.72,-98.78 439.27,-108.79 446.27,-108.76"/>
</a>
</g>
</g>
<!-- Node19 -->
<g id="Node000019" class="node">
<title>Node19</title>
<g id="a_Node000019"><a xlink:href="../../d6/d1d/classaopp__deconv__tool_1_1graphical__frontends_1_1ssa__filtering_1_1ImageViewer.html#ae014d11654c3dd2679ddad312da750f4" target="_top" xlink:title=" ">
<polygon fill="white" stroke="#666666" points="794.5,-100 578.5,-100 578.5,-59 794.5,-59 794.5,-100"/>
<text text-anchor="start" x="586.5" y="-88" font-family="Helvetica,sans-Serif" font-size="10.00">aopp_deconv_tool.graphical</text>
<text text-anchor="start" x="586.5" y="-77" font-family="Helvetica,sans-Serif" font-size="10.00">_frontends.ssa_filtering.ImageViewer.get</text>
<text text-anchor="middle" x="686.5" y="-66" font-family="Helvetica,sans-Serif" font-size="10.00">_displayed_data</text>
</a>
</g>
</g>
<!-- Node18&#45;&gt;Node19 -->
<g id="edge31_Node000018_Node000019" class="edge">
<title>Node18&#45;&gt;Node19</title>
<g id="a_edge31_Node000018_Node000019"><a xlink:title=" ">
<path fill="none" stroke="#63b8ff" d="M514.54,-81.85C532.21,-81.61 550.39,-81.36 568.01,-81.11"/>
<polygon fill="#63b8ff" stroke="#63b8ff" points="568.36,-84.61 578.31,-80.97 568.26,-77.61 568.36,-84.61"/>
</a>
</g>
</g>
<!-- Node20 -->
<g id="Node000020" class="node">
<title>Node20</title>
<g id="a_Node000020"><a xlink:href="../../d8/dd5/classaopp__deconv__tool_1_1graphical__frontends_1_1ssa__filtering_1_1ImageAggregator.html#a9e02916c8226e973ad4c7807fe59306c" target="_top" xlink:title=" ">
<polygon fill="white" stroke="#666666" points="804.5,-41 568.5,-41 568.5,0 804.5,0 804.5,-41"/>
<text text-anchor="start" x="576.5" y="-29" font-family="Helvetica,sans-Serif" font-size="10.00">aopp_deconv_tool.graphical</text>
<text text-anchor="start" x="576.5" y="-18" font-family="Helvetica,sans-Serif" font-size="10.00">_frontends.ssa_filtering.ImageAggregator.get</text>
<text text-anchor="middle" x="686.5" y="-7" font-family="Helvetica,sans-Serif" font-size="10.00">_displayed_data</text>
</a>
</g>
</g>
<!-- Node18&#45;&gt;Node20 -->
<g id="edge32_Node000018_Node000020" class="edge">
<title>Node18&#45;&gt;Node20</title>
<g id="a_edge32_Node000018_Node000020"><a xlink:title=" ">
<path fill="none" stroke="#63b8ff" d="M482.12,-68.5C496.49,-65.72 511.19,-62.68 525,-59.5 541.18,-55.77 544.91,-53.61 561,-49.5 568.96,-47.47 577.22,-45.42 585.53,-43.4"/>
<polygon fill="#63b8ff" stroke="#63b8ff" points="586.39,-46.79 595.29,-41.04 584.75,-39.99 586.39,-46.79"/>
</a>
</g>
</g>
<!-- Node21&#45;&gt;Node21 -->
<g id="edge35_Node000021_Node000021" class="edge">
<title>Node21&#45;&gt;Node21</title>
<g id="a_edge35_Node000021_Node000021"><a xlink:title=" ">
<path fill="none" stroke="#63b8ff" d="M344.28,-32.78C333.34,-41.91 349.75,-50.5 393.5,-50.5 419.82,-50.5 436.24,-47.39 442.77,-42.92"/>
<polygon fill="#63b8ff" stroke="#63b8ff" points="446.27,-42.76 442.72,-32.78 439.27,-42.79 446.27,-42.76"/>
</a>
</g>
</g>
</g>
</svg>

<g id="navigator" transform="translate(0 0)" fill="#404254">
  <rect fill="#f2f5e9" fill-opacity="0.5" stroke="#606060" stroke-width=".5" x="0" y="0" width="60" height="60"/>
  <use id="zoomplus" xlink:href="#zoomPlus" x="17" y="9" onmousedown="handleZoom(evt,'in')"/>
  <use id="zoomminus" xlink:href="#zoomMin" x="42" y="9" onmousedown="handleZoom(evt,'out')"/>
  <use id="reset" xlink:href="#resetDef" x="30" y="36" onmousedown="handleReset()"/>
   <use id="arrowup" xlink:href="#arrowUp" x="0" y="0" onmousedown="handlePan(0,-1)"/>
  <use id="arrowright" xlink:href="#arrowRight" x="0" y="0" onmousedown="handlePan(1,0)"/>
  <use id="arrowdown" xlink:href="#arrowDown" x="0" y="0" onmousedown="handlePan(0,1)"/>
  <use id="arrowleft" xlink:href="#arrowLeft" x="0" y="0" onmousedown="handlePan(-1,0)"/>
</g>
<svg viewBox="0 0 15 15" width="100%" height="30px" preserveAspectRatio="xMaxYMin meet">
 <g id="arrow_out" transform="scale(0.3 0.3)">
  <a xlink:href="classaopp__deconv__tool_1_1graphical__frontends_1_1ssa__filtering_1_1ImageViewer_a3a362bcec191790684ab2d054db8042f_cgraph_org.svg" target="_base">
   <rect id="button" ry="5" rx="5" y="6" x="6" height="38" width="38"
        fill="#f2f5e9" fill-opacity="0.5" stroke="#606060" stroke-width="1.0"/>
   <path id="arrow"
     d="M 11.500037,31.436501 C 11.940474,20.09759 22.043105,11.32322 32.158766,21.979434 L 37.068811,17.246167 C 37.068811,17.246167 37.088388,32 37.088388,32 L 22.160133,31.978069 C 22.160133,31.978069 26.997745,27.140456 26.997745,27.140456 C 18.528582,18.264221 13.291696,25.230495 11.500037,31.436501 z"
     style="fill:#404040;"/>
  </a>
 </g>
</svg>

<style type='text/css'>
<![CDATA[
[data-mouse-over-selected='false'] { opacity: 0.7; }
[data-mouse-over-selected='true']  { opacity: 1.0; }
]]>
</style>
<script type="application/ecmascript"><![CDATA[
document.addEventListener('DOMContentLoaded', (event) => {
  highlightEdges();
  highlightAdjacentNodes();
});
]]></script>
</svg>
