<?xml version="1.0" encoding="UTF-8" standalone="no"?>
<!DOCTYPE svg PUBLIC "-//W3C//DTD SVG 1.1//EN"
 "http://www.w3.org/Graphics/SVG/1.1/DTD/svg11.dtd">
<!-- Generated by graphviz version 2.43.0 (0)
 -->
<!-- Title: aopp_deconv_tool.graphical_frontends.ssa_filtering.ImageViewer.set_clim_slider_mode Pages: 1 -->
<svg width="499pt" height="230pt"
 viewBox="0.00 0.00 499.00 230.00" xmlns="http://www.w3.org/2000/svg" xmlns:xlink="http://www.w3.org/1999/xlink">
<g id="graph0" class="graph" transform="scale(1 1) rotate(0) translate(4 226)">
<title>aopp_deconv_tool.graphical_frontends.ssa_filtering.ImageViewer.set_clim_slider_mode</title>
<!-- Node1 -->
<g id="node1" class="node">
<title>Node1</title>
<g id="a_node1"><a xlink:title=" ">
<polygon fill="#bfbfbf" stroke="black" points="0,-90.5 0,-131.5 217,-131.5 217,-90.5 0,-90.5"/>
<text text-anchor="start" x="8" y="-119.5" font-family="Helvetica,sans-Serif" font-size="10.00">aopp_deconv_tool.graphical</text>
<text text-anchor="start" x="8" y="-108.5" font-family="Helvetica,sans-Serif" font-size="10.00">_frontends.ssa_filtering.ImageViewer.set</text>
<text text-anchor="middle" x="108.5" y="-97.5" font-family="Helvetica,sans-Serif" font-size="10.00">_clim_slider_mode</text>
</a>
</g>
</g>
<!-- Node2 -->
<g id="node2" class="node">
<title>Node2</title>
<g id="a_node2"><a xlink:href="../../d3/d42/classaopp__deconv__tool_1_1graphical__frontends_1_1ssa__filtering_1_1CallbackMixin.html#adbf2be8439ffcd7ecfce51f0c49c9726" target="_top" xlink:title=" ">
<polygon fill="none" stroke="black" points="284,-180.5 284,-221.5 460,-221.5 460,-180.5 284,-180.5"/>
<text text-anchor="start" x="292" y="-209.5" font-family="Helvetica,sans-Serif" font-size="10.00">aopp_deconv_tool.graphical</text>
<text text-anchor="start" x="292" y="-198.5" font-family="Helvetica,sans-Serif" font-size="10.00">_frontends.ssa_filtering.Callback</text>
<text text-anchor="middle" x="372" y="-187.5" font-family="Helvetica,sans-Serif" font-size="10.00">Mixin.attach_callback</text>
</a>
</g>
</g>
<!-- Node1&#45;&gt;Node2 -->
<g id="edge1" class="edge">
<title>Node1&#45;&gt;Node2</title>
<path fill="none" stroke="midnightblue" d="M153.77,-131.5C181.82,-143.99 219.07,-159.66 253,-171 259.89,-173.3 267.06,-175.53 274.31,-177.66"/>
<polygon fill="midnightblue" stroke="midnightblue" points="273.64,-181.11 284.22,-180.49 275.57,-174.38 273.64,-181.11"/>
</g>
<!-- Node3 -->
<g id="node3" class="node">
<title>Node3</title>
<g id="a_node3"><a xlink:href="../../d3/d42/classaopp__deconv__tool_1_1graphical__frontends_1_1ssa__filtering_1_1CallbackMixin.html#a943e48b677b4329d6a24f3edafc7ff7e" target="_top" xlink:title=" ">
<polygon fill="none" stroke="black" points="284,-120.5 284,-161.5 460,-161.5 460,-120.5 284,-120.5"/>
<text text-anchor="start" x="292" y="-149.5" font-family="Helvetica,sans-Serif" font-size="10.00">aopp_deconv_tool.graphical</text>
<text text-anchor="start" x="292" y="-138.5" font-family="Helvetica,sans-Serif" font-size="10.00">_frontends.ssa_filtering.Callback</text>
<text text-anchor="middle" x="372" y="-127.5" font-family="Helvetica,sans-Serif" font-size="10.00">Mixin.disconnect_callback_idx</text>
</a>
</g>
</g>
<!-- Node1&#45;&gt;Node3 -->
<g id="edge2" class="edge">
<title>Node1&#45;&gt;Node3</title>
<path fill="none" stroke="midnightblue" d="M217.37,-123.38C236.01,-125.51 255.29,-127.72 273.62,-129.83"/>
<polygon fill="midnightblue" stroke="midnightblue" points="273.37,-133.32 283.71,-130.99 274.17,-126.37 273.37,-133.32"/>
</g>
<!-- Node4 -->
<g id="node4" class="node">
<title>Node4</title>
<g id="a_node4"><a xlink:href="../../d6/d1d/classaopp__deconv__tool_1_1graphical__frontends_1_1ssa__filtering_1_1ImageViewer.html#ae101d1c686b3106923f4aba206e1bb5a" target="_top" xlink:title=" ">
<polygon fill="none" stroke="black" points="263,-60.5 263,-101.5 481,-101.5 481,-60.5 263,-60.5"/>
<text text-anchor="start" x="271" y="-89.5" font-family="Helvetica,sans-Serif" font-size="10.00">aopp_deconv_tool.graphical</text>
<text text-anchor="start" x="271" y="-78.5" font-family="Helvetica,sans-Serif" font-size="10.00">_frontends.ssa_filtering.ImageViewer.get</text>
<text text-anchor="middle" x="372" y="-67.5" font-family="Helvetica,sans-Serif" font-size="10.00">_displayed_data</text>
</a>
</g>
</g>
<!-- Node1&#45;&gt;Node4 -->
<g id="edge3" class="edge">
<title>Node1&#45;&gt;Node4</title>
<path fill="none" stroke="midnightblue" d="M217.37,-98.62C229.01,-97.29 240.91,-95.92 252.67,-94.58"/>
<polygon fill="midnightblue" stroke="midnightblue" points="253.42,-98.01 262.95,-93.4 252.62,-91.06 253.42,-98.01"/>
</g>
<!-- Node5 -->
<g id="node5" class="node">
<title>Node5</title>
<g id="a_node5"><a xlink:href="../../d8/dd5/classaopp__deconv__tool_1_1graphical__frontends_1_1ssa__filtering_1_1ImageAggregator.html#a982eb00733474f4a1702af854eb2ac50" target="_top" xlink:title=" ">
<polygon fill="none" stroke="black" points="253,-0.5 253,-41.5 491,-41.5 491,-0.5 253,-0.5"/>
<text text-anchor="start" x="261" y="-29.5" font-family="Helvetica,sans-Serif" font-size="10.00">aopp_deconv_tool.graphical</text>
<text text-anchor="start" x="261" y="-18.5" font-family="Helvetica,sans-Serif" font-size="10.00">_frontends.ssa_filtering.ImageAggregator.get</text>
<text text-anchor="middle" x="372" y="-7.5" font-family="Helvetica,sans-Serif" font-size="10.00">_displayed_data</text>
</a>
</g>
</g>
<!-- Node1&#45;&gt;Node5 -->
<g id="edge4" class="edge">
<title>Node1&#45;&gt;Node5</title>
<path fill="none" stroke="midnightblue" d="M153.77,-90.5C181.82,-78.01 219.07,-62.34 253,-51 259.89,-48.7 267.06,-46.47 274.31,-44.34"/>
<polygon fill="midnightblue" stroke="midnightblue" points="275.57,-47.62 284.22,-41.51 273.64,-40.89 275.57,-47.62"/>
</g>
</g>
</svg>
