<?xml version="1.0" encoding="UTF-8" standalone="no"?>
<!DOCTYPE svg PUBLIC "-//W3C//DTD SVG 1.1//EN"
 "http://www.w3.org/Graphics/SVG/1.1/DTD/svg11.dtd">
<!-- Generated by graphviz version 2.43.0 (0)
 -->
<!-- Title: aopp_deconv_tool.graphical_frontends.ssa_filtering.ResidualViewer Pages: 1 -->
<svg width="211pt" height="184pt"
 viewBox="0.00 0.00 211.00 184.00" xmlns="http://www.w3.org/2000/svg" xmlns:xlink="http://www.w3.org/1999/xlink">
<g id="graph0" class="graph" transform="scale(1 1) rotate(0) translate(4 180)">
<title>aopp_deconv_tool.graphical_frontends.ssa_filtering.ResidualViewer</title>
<!-- Node1 -->
<g id="node1" class="node">
<title>Node1</title>
<g id="a_node1"><a xlink:title=" ">
<polygon fill="#bfbfbf" stroke="black" points="13.5,-0.5 13.5,-41.5 189.5,-41.5 189.5,-0.5 13.5,-0.5"/>
<text text-anchor="start" x="21.5" y="-29.5" font-family="Helvetica,sans-Serif" font-size="10.00">aopp_deconv_tool.graphical</text>
<text text-anchor="start" x="21.5" y="-18.5" font-family="Helvetica,sans-Serif" font-size="10.00">_frontends.ssa_filtering.Residual</text>
<text text-anchor="middle" x="101.5" y="-7.5" font-family="Helvetica,sans-Serif" font-size="10.00">Viewer</text>
</a>
</g>
</g>
<!-- Node2 -->
<g id="node2" class="node">
<title>Node2</title>
<g id="a_node2"><a xlink:href="../../d6/d1d/classaopp__deconv__tool_1_1graphical__frontends_1_1ssa__filtering_1_1ImageViewer.html" target="_top" xlink:title=" ">
<polygon fill="none" stroke="black" points="2,-78.5 2,-108.5 201,-108.5 201,-78.5 2,-78.5"/>
<text text-anchor="start" x="10" y="-96.5" font-family="Helvetica,sans-Serif" font-size="10.00">aopp_deconv_tool.graphical</text>
<text text-anchor="middle" x="101.5" y="-85.5" font-family="Helvetica,sans-Serif" font-size="10.00">_frontends.ssa_filtering.ImageViewer</text>
</a>
</g>
</g>
<!-- Node2&#45;&gt;Node1 -->
<g id="edge1" class="edge">
<title>Node2&#45;&gt;Node1</title>
<path fill="none" stroke="midnightblue" d="M101.5,-67.98C101.5,-59.35 101.5,-49.76 101.5,-41.59"/>
<polygon fill="midnightblue" stroke="midnightblue" points="98,-68.23 101.5,-78.23 105,-68.23 98,-68.23"/>
</g>
<!-- Node3 -->
<g id="node3" class="node">
<title>Node3</title>
<g id="a_node3"><a xlink:href="../../d3/d42/classaopp__deconv__tool_1_1graphical__frontends_1_1ssa__filtering_1_1CallbackMixin.html" target="_top" xlink:title=" ">
<polygon fill="none" stroke="black" points="0,-145.5 0,-175.5 203,-175.5 203,-145.5 0,-145.5"/>
<text text-anchor="start" x="8" y="-163.5" font-family="Helvetica,sans-Serif" font-size="10.00">aopp_deconv_tool.graphical</text>
<text text-anchor="middle" x="101.5" y="-152.5" font-family="Helvetica,sans-Serif" font-size="10.00">_frontends.ssa_filtering.CallbackMixin</text>
</a>
</g>
</g>
<!-- Node3&#45;&gt;Node2 -->
<g id="edge2" class="edge">
<title>Node3&#45;&gt;Node2</title>
<path fill="none" stroke="midnightblue" d="M101.5,-135.11C101.5,-126.15 101.5,-116.32 101.5,-108.58"/>
<polygon fill="midnightblue" stroke="midnightblue" points="98,-135.4 101.5,-145.4 105,-135.4 98,-135.4"/>
</g>
</g>
</svg>
