<?xml version="1.0" encoding="UTF-8" standalone="no"?>
<!DOCTYPE svg PUBLIC "-//W3C//DTD SVG 1.1//EN"
 "http://www.w3.org/Graphics/SVG/1.1/DTD/svg11.dtd">
<!-- Generated by graphviz version 2.43.0 (0)
 -->
<!-- Title: aopp_deconv_tool.scipy_helper.interp.interpolate_at_mask Pages: 1 -->
<svg width="652pt" height="100pt"
 viewBox="0.00 0.00 652.00 99.50" xmlns="http://www.w3.org/2000/svg" xmlns:xlink="http://www.w3.org/1999/xlink">
<g id="graph0" class="graph" transform="scale(1 1) rotate(0) translate(4 95.5)">
<title>aopp_deconv_tool.scipy_helper.interp.interpolate_at_mask</title>
<!-- Node1 -->
<g id="node1" class="node">
<title>Node1</title>
<g id="a_node1"><a xlink:title=" ">
<polygon fill="#bfbfbf" stroke="black" points="504,-22 504,-63 644,-63 644,-22 504,-22"/>
<text text-anchor="start" x="512" y="-51" font-family="Helvetica,sans-Serif" font-size="10.00">aopp_deconv_tool.scipy</text>
<text text-anchor="start" x="512" y="-40" font-family="Helvetica,sans-Serif" font-size="10.00">_helper.interp.interpolate</text>
<text text-anchor="middle" x="574" y="-29" font-family="Helvetica,sans-Serif" font-size="10.00">_at_mask</text>
</a>
</g>
</g>
<!-- Node2 -->
<g id="node2" class="node">
<title>Node2</title>
<g id="a_node2"><a xlink:href="../../d3/dde/namespaceaopp__deconv__tool_1_1algorithm_1_1bad__pixels_1_1ssa__sum__prob.html#aa7602b0129415861a5c4dd04b73a6c8e" target="_top" xlink:title=" ">
<polygon fill="none" stroke="black" points="263,-53.5 263,-83.5 441,-83.5 441,-53.5 263,-53.5"/>
<text text-anchor="start" x="271" y="-71.5" font-family="Helvetica,sans-Serif" font-size="10.00">aopp_deconv_tool.algorithm.bad</text>
<text text-anchor="middle" x="352" y="-60.5" font-family="Helvetica,sans-Serif" font-size="10.00">_pixels.ssa_sum_prob.pixel_map</text>
</a>
</g>
</g>
<!-- Node1&#45;&gt;Node2 -->
<g id="edge1" class="edge">
<title>Node1&#45;&gt;Node2</title>
<path fill="none" stroke="midnightblue" d="M494.04,-51.83C476.89,-53.86 458.65,-56.01 441.18,-58.08"/>
<polygon fill="midnightblue" stroke="midnightblue" points="494.47,-55.3 503.99,-50.66 493.65,-48.35 494.47,-55.3"/>
</g>
<!-- Node4 -->
<g id="node4" class="node">
<title>Node4</title>
<g id="a_node4"><a xlink:href="../../dd/d09/namespaceaopp__deconv__tool_1_1algorithm_1_1interpolate_1_1ssa__interp.html#a5108b780cb3062375d2907681d81973b" target="_top" xlink:title=" ">
<polygon fill="none" stroke="black" points="236,-3.5 236,-33.5 468,-33.5 468,-3.5 236,-3.5"/>
<text text-anchor="start" x="244" y="-21.5" font-family="Helvetica,sans-Serif" font-size="10.00">aopp_deconv_tool.algorithm.interpolate.ssa</text>
<text text-anchor="middle" x="352" y="-10.5" font-family="Helvetica,sans-Serif" font-size="10.00">_interp.ssa_deviations_interpolate_at_mask</text>
</a>
</g>
</g>
<!-- Node1&#45;&gt;Node4 -->
<g id="edge3" class="edge">
<title>Node1&#45;&gt;Node4</title>
<path fill="none" stroke="midnightblue" d="M493.89,-33.87C485.49,-32.95 476.83,-32.01 468.12,-31.06"/>
<polygon fill="midnightblue" stroke="midnightblue" points="493.67,-37.37 503.99,-34.97 494.43,-30.41 493.67,-37.37"/>
</g>
<!-- Node3 -->
<g id="node3" class="node">
<title>Node3</title>
<g id="a_node3"><a xlink:href="../../d3/dde/namespaceaopp__deconv__tool_1_1algorithm_1_1bad__pixels_1_1ssa__sum__prob.html#a710894c1288e8ec90422e8979b1aaff1" target="_top" xlink:title=" ">
<polygon fill="none" stroke="black" points="12,-50 12,-91 188,-91 188,-50 12,-50"/>
<text text-anchor="start" x="20" y="-79" font-family="Helvetica,sans-Serif" font-size="10.00">aopp_deconv_tool.algorithm.bad</text>
<text text-anchor="start" x="20" y="-68" font-family="Helvetica,sans-Serif" font-size="10.00">_pixels.ssa_sum_prob.get_bp</text>
<text text-anchor="middle" x="100" y="-57" font-family="Helvetica,sans-Serif" font-size="10.00">_mask_from_badness_map</text>
</a>
</g>
</g>
<!-- Node2&#45;&gt;Node3 -->
<g id="edge2" class="edge">
<title>Node2&#45;&gt;Node3</title>
<path fill="none" stroke="midnightblue" d="M252.84,-69.29C231.55,-69.46 209.18,-69.63 188.34,-69.8"/>
<polygon fill="midnightblue" stroke="midnightblue" points="252.89,-72.79 262.86,-69.21 252.83,-65.79 252.89,-72.79"/>
</g>
<!-- Node5 -->
<g id="node5" class="node">
<title>Node5</title>
<g id="a_node5"><a xlink:href="../../d5/ddb/namespaceaopp__deconv__tool_1_1interpolate.html#a587c4805e0ab60a07812e509ac2b4d3b" target="_top" xlink:title=" ">
<polygon fill="none" stroke="black" points="0,-0.5 0,-30.5 200,-30.5 200,-0.5 0,-0.5"/>
<text text-anchor="start" x="8" y="-18.5" font-family="Helvetica,sans-Serif" font-size="10.00">aopp_deconv_tool.interpolate.array</text>
<text text-anchor="middle" x="100" y="-7.5" font-family="Helvetica,sans-Serif" font-size="10.00">_ssa_deviations_interpolate_at_mask</text>
</a>
</g>
</g>
<!-- Node4&#45;&gt;Node5 -->
<g id="edge4" class="edge">
<title>Node4&#45;&gt;Node5</title>
<path fill="none" stroke="midnightblue" d="M225.8,-17C217.21,-16.89 208.63,-16.79 200.2,-16.69"/>
<polygon fill="midnightblue" stroke="midnightblue" points="225.84,-20.5 235.88,-17.12 225.92,-13.5 225.84,-20.5"/>
</g>
</g>
</svg>
