<?xml version="1.0" encoding="UTF-8" standalone="no"?>
<!DOCTYPE svg PUBLIC "-//W3C//DTD SVG 1.1//EN"
 "http://www.w3.org/Graphics/SVG/1.1/DTD/svg11.dtd">
<!-- Generated by graphviz version 2.43.0 (0)
 -->
<!-- Title: aopp_deconv_tool.text.combine_lines_with_same_indent Pages: 1 -->
<!--zoomable 568 -->
<svg id="main" version="1.1" xmlns="http://www.w3.org/2000/svg" xmlns:xlink="http://www.w3.org/1999/xlink" xml:space="preserve" onload="init(evt)">
<style type="text/css"><![CDATA[
.edge:hover path { stroke: red; }
.edge:hover polygon { stroke: red; fill: red; }
]]></style>
<script type="text/javascript"><![CDATA[
var edges = document.getElementsByTagName('g');
if (edges && edges.length) {
  for (var i=0;i<edges.length;i++) {
    if (edges[i].id.substr(0,4)=='edge') {
      edges[i].setAttribute('class','edge');
    }
  }
}
]]></script>
        <defs>
                <circle id="rim" cx="0" cy="0" r="7"/>
                <circle id="rim2" cx="0" cy="0" r="3.5"/>
                <g id="zoomPlus">
                        <use xlink:href="#rim" fill="#404040">
                                <set attributeName="fill" to="#808080" begin="zoomplus.mouseover" end="zoomplus.mouseout"/>
                        </use>
                        <path d="M-4,0h8M0,-4v8" fill="none" stroke="white" stroke-width="1.5" pointer-events="none"/>
                </g>
                <g id="zoomMin">
                        <use xlink:href="#rim" fill="#404040">
                                <set attributeName="fill" to="#808080" begin="zoomminus.mouseover" end="zoomminus.mouseout"/>
                        </use>
                        <path d="M-4,0h8" fill="none" stroke="white" stroke-width="1.5" pointer-events="none"/>
                </g>
                <g id="dirArrow">
                        <path fill="none" stroke="white" stroke-width="1.5" d="M0,-3.0v7 M-2.5,-0.5L0,-3.0L2.5,-0.5"/>
                </g>
               <g id="resetDef">
                       <use xlink:href="#rim2" fill="#404040">
                               <set attributeName="fill" to="#808080" begin="reset.mouseover" end="reset.mouseout"/>
                       </use>
               </g>
        </defs>

<script type="text/javascript">
var viewWidth = 1071;
var viewHeight = 568;
var sectionId = 'dynsection-0';
</script>
<script xlink:href="../../svgpan.js"/>
<svg id="graph" class="graph">
<g id="viewport">
<title>aopp_deconv_tool.text.combine_lines_with_same_indent</title>
<!-- Node1 -->
<g id="node1" class="node">
<title>Node1</title>
<g id="a_node1"><a xlink:title=" ">
<polygon fill="#bfbfbf" stroke="black" points="890,-259.5 890,-289.5 1063,-289.5 1063,-259.5 890,-259.5"/>
<text text-anchor="start" x="898" y="-277.5" font-family="Helvetica,sans-Serif" font-size="10.00">aopp_deconv_tool.text.combine</text>
<text text-anchor="middle" x="976.5" y="-266.5" font-family="Helvetica,sans-Serif" font-size="10.00">_lines_with_same_indent</text>
</a>
</g>
</g>
<!-- Node2 -->
<g id="node2" class="node">
<title>Node2</title>
<g id="a_node2"><a xlink:href="../../d8/d5b/namespaceaopp__deconv__tool_1_1text.html#ae13da0dd246571ccd435ba5f64904bfe" target="_top" xlink:title=" ">
<polygon fill="none" stroke="black" points="699,-265 699,-284 854,-284 854,-265 699,-265"/>
<text text-anchor="middle" x="776.5" y="-272" font-family="Helvetica,sans-Serif" font-size="10.00">aopp_deconv_tool.text.wrap</text>
</a>
</g>
</g>
<!-- Node1&#45;&gt;Node2 -->
<g id="edge1" class="edge">
<title>Node1&#45;&gt;Node2</title>
<path fill="none" stroke="midnightblue" d="M879.8,-274.5C871.24,-274.5 862.66,-274.5 854.29,-274.5"/>
<polygon fill="midnightblue" stroke="midnightblue" points="879.81,-278 889.81,-274.5 879.81,-271 879.81,-278"/>
</g>
<!-- Node3 -->
<g id="node3" class="node">
<title>Node3</title>
<g id="a_node3"><a xlink:href="../../dd/d4d/namespaceaopp__deconv__tool_1_1artefact__detection.html#a4d46d8ae518ad501b8786cd6dd8a50dd" target="_top" xlink:title=" ">
<polygon fill="none" stroke="black" points="479.5,-527.5 479.5,-557.5 625.5,-557.5 625.5,-527.5 479.5,-527.5"/>
<text text-anchor="start" x="487.5" y="-545.5" font-family="Helvetica,sans-Serif" font-size="10.00">aopp_deconv_tool.artefact</text>
<text text-anchor="middle" x="552.5" y="-534.5" font-family="Helvetica,sans-Serif" font-size="10.00">_detection.parse_args</text>
</a>
</g>
</g>
<!-- Node2&#45;&gt;Node3 -->
<g id="edge2" class="edge">
<title>Node2&#45;&gt;Node3</title>
<path fill="none" stroke="midnightblue" d="M772.32,-294.14C763.73,-340.5 735.63,-457.24 663,-516.5 652.25,-525.27 639.04,-531.18 625.56,-535.13"/>
<polygon fill="midnightblue" stroke="midnightblue" points="775.78,-294.64 774.06,-284.18 768.89,-293.43 775.78,-294.64"/>
</g>
<!-- Node6 -->
<g id="node6" class="node">
<title>Node6</title>
<g id="a_node6"><a xlink:href="../../d1/d07/namespaceaopp__deconv__tool_1_1create__bad__pixel__mask.html#a2b16b8c45b14df83d552a22fb639b9f9" target="_top" xlink:title=" ">
<polygon fill="none" stroke="black" points="473.5,-476.5 473.5,-506.5 631.5,-506.5 631.5,-476.5 473.5,-476.5"/>
<text text-anchor="start" x="481.5" y="-494.5" font-family="Helvetica,sans-Serif" font-size="10.00">aopp_deconv_tool.create</text>
<text text-anchor="middle" x="552.5" y="-483.5" font-family="Helvetica,sans-Serif" font-size="10.00">_bad_pixel_mask.parse_args</text>
</a>
</g>
</g>
<!-- Node2&#45;&gt;Node6 -->
<g id="edge5" class="edge">
<title>Node2&#45;&gt;Node6</title>
<path fill="none" stroke="midnightblue" d="M769.43,-293.97C756.44,-332.36 722.19,-417.95 663,-462.5 653.73,-469.48 642.92,-474.78 631.76,-478.81"/>
<polygon fill="midnightblue" stroke="midnightblue" points="772.89,-294.66 772.66,-284.07 766.23,-292.49 772.89,-294.66"/>
</g>
<!-- Node9 -->
<g id="node9" class="node">
<title>Node9</title>
<g id="a_node9"><a xlink:href="../../d6/de2/namespaceaopp__deconv__tool_1_1deconvolve.html#afb9fb6db643cda6e6d7af7ca2c1c4940" target="_top" xlink:title=" ">
<polygon fill="none" stroke="black" points="442,-434 442,-453 663,-453 663,-434 442,-434"/>
<text text-anchor="middle" x="552.5" y="-441" font-family="Helvetica,sans-Serif" font-size="10.00">aopp_deconv_tool.deconvolve.parse_args</text>
</a>
</g>
</g>
<!-- Node2&#45;&gt;Node9 -->
<g id="edge8" class="edge">
<title>Node2&#45;&gt;Node9</title>
<path fill="none" stroke="midnightblue" d="M766.97,-293.21C751.29,-325.29 714.73,-390.42 663,-422.5 655.27,-427.3 646.69,-431.04 637.82,-433.95"/>
<polygon fill="midnightblue" stroke="midnightblue" points="770.19,-294.57 771.31,-284.04 763.87,-291.58 770.19,-294.57"/>
</g>
<!-- Node12 -->
<g id="node12" class="node">
<title>Node12</title>
<g id="a_node12"><a xlink:href="../../dc/dd6/namespaceaopp__deconv__tool_1_1extract__sources.html#adcdbd2b44f75a70235d4f76b6b4d55d9" target="_top" xlink:title=" ">
<polygon fill="none" stroke="black" points="481,-382.5 481,-412.5 624,-412.5 624,-382.5 481,-382.5"/>
<text text-anchor="start" x="489" y="-400.5" font-family="Helvetica,sans-Serif" font-size="10.00">aopp_deconv_tool.extract</text>
<text text-anchor="middle" x="552.5" y="-389.5" font-family="Helvetica,sans-Serif" font-size="10.00">_sources.parse_args</text>
</a>
</g>
</g>
<!-- Node2&#45;&gt;Node12 -->
<g id="edge11" class="edge">
<title>Node2&#45;&gt;Node12</title>
<path fill="none" stroke="midnightblue" d="M760.93,-291.91C741.14,-314.36 703.55,-352.97 663,-373.5 651.02,-379.57 637.54,-384.11 624.25,-387.5"/>
<polygon fill="midnightblue" stroke="midnightblue" points="763.73,-294.02 767.61,-284.16 758.43,-289.45 763.73,-294.02"/>
</g>
<!-- Node15 -->
<g id="node15" class="node">
<title>Node15</title>
<g id="a_node15"><a xlink:href="../../dc/dc5/namespaceaopp__deconv__tool_1_1fit__psf__model.html#a2ff26f2f657884f9deaa3e1e84e508b6" target="_top" xlink:title=" ">
<polygon fill="none" stroke="black" points="488,-333.5 488,-363.5 617,-363.5 617,-333.5 488,-333.5"/>
<text text-anchor="start" x="496" y="-351.5" font-family="Helvetica,sans-Serif" font-size="10.00">aopp_deconv_tool.fit</text>
<text text-anchor="middle" x="552.5" y="-340.5" font-family="Helvetica,sans-Serif" font-size="10.00">_psf_model.parse_args</text>
</a>
</g>
</g>
<!-- Node2&#45;&gt;Node15 -->
<g id="edge14" class="edge">
<title>Node2&#45;&gt;Node15</title>
<path fill="none" stroke="midnightblue" d="M747.62,-288.8C725.22,-299.81 692.72,-314.75 663,-324.5 648.39,-329.29 632.37,-333.41 617.2,-336.82"/>
<polygon fill="midnightblue" stroke="midnightblue" points="749.46,-291.79 756.85,-284.19 746.34,-285.52 749.46,-291.79"/>
</g>
<!-- Node18 -->
<g id="node18" class="node">
<title>Node18</title>
<g id="a_node18"><a xlink:href="../../d4/d1f/namespaceaopp__deconv__tool_1_1fits__copy__wcs.html#a919079e5f742632cf582ee2a7c9ff7a2" target="_top" xlink:title=" ">
<polygon fill="none" stroke="black" points="490,-284.5 490,-314.5 615,-314.5 615,-284.5 490,-284.5"/>
<text text-anchor="start" x="498" y="-302.5" font-family="Helvetica,sans-Serif" font-size="10.00">aopp_deconv_tool.fits</text>
<text text-anchor="middle" x="552.5" y="-291.5" font-family="Helvetica,sans-Serif" font-size="10.00">_copy_wcs.parse_args</text>
</a>
</g>
</g>
<!-- Node2&#45;&gt;Node18 -->
<g id="edge17" class="edge">
<title>Node2&#45;&gt;Node18</title>
<path fill="none" stroke="midnightblue" d="M688.74,-284.27C664.17,-287.04 637.94,-289.99 615.17,-292.55"/>
<polygon fill="midnightblue" stroke="midnightblue" points="689.24,-287.74 698.79,-283.14 688.46,-280.78 689.24,-287.74"/>
</g>
<!-- Node21 -->
<g id="node21" class="node">
<title>Node21</title>
<g id="a_node21"><a xlink:href="../../d6/d01/namespaceaopp__deconv__tool_1_1fits__slice.html#a33fccd58fdb9c6f28d970787b141ca4a" target="_top" xlink:title=" ">
<polygon fill="none" stroke="black" points="490.5,-235.5 490.5,-265.5 614.5,-265.5 614.5,-235.5 490.5,-235.5"/>
<text text-anchor="start" x="498.5" y="-253.5" font-family="Helvetica,sans-Serif" font-size="10.00">aopp_deconv_tool.fits</text>
<text text-anchor="middle" x="552.5" y="-242.5" font-family="Helvetica,sans-Serif" font-size="10.00">_slice.parse_args</text>
</a>
</g>
</g>
<!-- Node2&#45;&gt;Node21 -->
<g id="edge20" class="edge">
<title>Node2&#45;&gt;Node21</title>
<path fill="none" stroke="midnightblue" d="M688.7,-265.12C664.01,-262.45 637.65,-259.6 614.82,-257.13"/>
<polygon fill="midnightblue" stroke="midnightblue" points="688.47,-268.61 698.79,-266.21 689.22,-261.65 688.47,-268.61"/>
</g>
<!-- Node24 -->
<g id="node24" class="node">
<title>Node24</title>
<g id="a_node24"><a xlink:href="../../d5/ddb/namespaceaopp__deconv__tool_1_1interpolate.html#abf004ff77536f8a4c52a86709a9ae800" target="_top" xlink:title=" ">
<polygon fill="none" stroke="black" points="443.5,-197 443.5,-216 661.5,-216 661.5,-197 443.5,-197"/>
<text text-anchor="middle" x="552.5" y="-204" font-family="Helvetica,sans-Serif" font-size="10.00">aopp_deconv_tool.interpolate.parse_args</text>
</a>
</g>
</g>
<!-- Node2&#45;&gt;Node24 -->
<g id="edge23" class="edge">
<title>Node2&#45;&gt;Node24</title>
<path fill="none" stroke="midnightblue" d="M747.24,-260.36C724.87,-249.68 692.58,-235.39 663,-226.5 649.03,-222.3 633.77,-218.84 619.21,-216.04"/>
<polygon fill="midnightblue" stroke="midnightblue" points="745.95,-263.62 756.48,-264.83 749,-257.32 745.95,-263.62"/>
</g>
<!-- Node27 -->
<g id="node27" class="node">
<title>Node27</title>
<g id="a_node27"><a xlink:href="../../da/de2/namespaceaopp__deconv__tool_1_1psf__normalise.html#a3acaf8174cc008c8bf7029fce9df7be0" target="_top" xlink:title=" ">
<polygon fill="none" stroke="black" points="489,-147.5 489,-177.5 616,-177.5 616,-147.5 489,-147.5"/>
<text text-anchor="start" x="497" y="-165.5" font-family="Helvetica,sans-Serif" font-size="10.00">aopp_deconv_tool.psf</text>
<text text-anchor="middle" x="552.5" y="-154.5" font-family="Helvetica,sans-Serif" font-size="10.00">_normalise.parse_args</text>
</a>
</g>
</g>
<!-- Node2&#45;&gt;Node27 -->
<g id="edge26" class="edge">
<title>Node2&#45;&gt;Node27</title>
<path fill="none" stroke="midnightblue" d="M758.93,-257.85C738.28,-238.06 701.04,-205.47 663,-187.5 648.45,-180.63 631.91,-175.59 616.17,-171.91"/>
<polygon fill="midnightblue" stroke="midnightblue" points="756.64,-260.5 766.24,-264.98 761.53,-255.49 756.64,-260.5"/>
</g>
<!-- Node30 -->
<g id="node30" class="node">
<title>Node30</title>
<g id="a_node30"><a xlink:href="../../d5/d6e/namespaceaopp__deconv__tool_1_1spatial__rebin.html#a9ddf23f8c9b02acf470d16465d650281" target="_top" xlink:title=" ">
<polygon fill="none" stroke="black" points="482,-98.5 482,-128.5 623,-128.5 623,-98.5 482,-98.5"/>
<text text-anchor="start" x="490" y="-116.5" font-family="Helvetica,sans-Serif" font-size="10.00">aopp_deconv_tool.spatial</text>
<text text-anchor="middle" x="552.5" y="-105.5" font-family="Helvetica,sans-Serif" font-size="10.00">_rebin.parse_args</text>
</a>
</g>
</g>
<!-- Node2&#45;&gt;Node30 -->
<g id="edge29" class="edge">
<title>Node2&#45;&gt;Node30</title>
<path fill="none" stroke="midnightblue" d="M765.5,-255.82C748.56,-226.06 711.29,-168.24 663,-138.5 650.96,-131.09 636.96,-125.87 623.07,-122.19"/>
<polygon fill="midnightblue" stroke="midnightblue" points="762.54,-257.7 770.45,-264.75 768.66,-254.31 762.54,-257.7"/>
</g>
<!-- Node33 -->
<g id="node33" class="node">
<title>Node33</title>
<g id="a_node33"><a xlink:href="../../d1/d3b/namespaceaopp__deconv__tool_1_1spectral__rebin.html#af5488a9645335a937fcbea8b0efe6e91" target="_top" xlink:title=" ">
<polygon fill="none" stroke="black" points="479,-49.5 479,-79.5 626,-79.5 626,-49.5 479,-49.5"/>
<text text-anchor="start" x="487" y="-67.5" font-family="Helvetica,sans-Serif" font-size="10.00">aopp_deconv_tool.spectral</text>
<text text-anchor="middle" x="552.5" y="-56.5" font-family="Helvetica,sans-Serif" font-size="10.00">_rebin.parse_args</text>
</a>
</g>
</g>
<!-- Node2&#45;&gt;Node33 -->
<g id="edge32" class="edge">
<title>Node2&#45;&gt;Node33</title>
<path fill="none" stroke="midnightblue" d="M769.47,-255.16C756.54,-217.07 722.4,-132.31 663,-89.5 652.16,-81.69 639.29,-76.27 626.24,-72.52"/>
<polygon fill="midnightblue" stroke="midnightblue" points="766.25,-256.58 772.68,-264.99 772.9,-254.4 766.25,-256.58"/>
</g>
<!-- Node36 -->
<g id="node36" class="node">
<title>Node36</title>
<g id="a_node36"><a xlink:href="../../da/d5f/namespaceaopp__deconv__tool_1_1arguments.html#a1c98fc7e3d7869bf74b61831b4f15f4a" target="_top" xlink:title=" ">
<polygon fill="none" stroke="black" points="457,-0.5 457,-30.5 648,-30.5 648,-0.5 457,-0.5"/>
<text text-anchor="start" x="465" y="-18.5" font-family="Helvetica,sans-Serif" font-size="10.00">aopp_deconv_tool.arguments.parse</text>
<text text-anchor="middle" x="552.5" y="-7.5" font-family="Helvetica,sans-Serif" font-size="10.00">_args_of_dataclass</text>
</a>
</g>
</g>
<!-- Node2&#45;&gt;Node36 -->
<g id="edge35" class="edge">
<title>Node2&#45;&gt;Node36</title>
<path fill="none" stroke="midnightblue" d="M772.07,-254.71C763.09,-209.07 734.4,-96.07 663,-39.5 658.42,-35.87 653.42,-32.77 648.14,-30.11"/>
<polygon fill="midnightblue" stroke="midnightblue" points="768.64,-255.36 773.91,-264.55 775.52,-254.08 768.64,-255.36"/>
</g>
<!-- Node4 -->
<g id="node4" class="node">
<title>Node4</title>
<g id="a_node4"><a xlink:href="../../dd/d4d/namespaceaopp__deconv__tool_1_1artefact__detection.html#a948e1922d2a8e9057315178c05637934" target="_top" xlink:title=" ">
<polygon fill="none" stroke="black" points="237.5,-529.5 237.5,-559.5 383.5,-559.5 383.5,-529.5 237.5,-529.5"/>
<text text-anchor="start" x="245.5" y="-547.5" font-family="Helvetica,sans-Serif" font-size="10.00">aopp_deconv_tool.artefact</text>
<text text-anchor="middle" x="310.5" y="-536.5" font-family="Helvetica,sans-Serif" font-size="10.00">_detection.exec_with_args</text>
</a>
</g>
</g>
<!-- Node3&#45;&gt;Node4 -->
<g id="edge3" class="edge">
<title>Node3&#45;&gt;Node4</title>
<path fill="none" stroke="midnightblue" d="M469.41,-543.18C441.63,-543.42 410.84,-543.67 383.87,-543.9"/>
<polygon fill="midnightblue" stroke="midnightblue" points="469.52,-546.68 479.49,-543.1 469.46,-539.68 469.52,-546.68"/>
</g>
<!-- Node5 -->
<g id="node5" class="node">
<title>Node5</title>
<g id="a_node5"><a xlink:href="../../dd/d4d/namespaceaopp__deconv__tool_1_1artefact__detection.html#aaa1d90cc56b5fc1c1e8ce8b043465d95" target="_top" xlink:title=" ">
<polygon fill="none" stroke="black" points="16.5,-529.5 16.5,-559.5 162.5,-559.5 162.5,-529.5 16.5,-529.5"/>
<text text-anchor="start" x="24.5" y="-547.5" font-family="Helvetica,sans-Serif" font-size="10.00">aopp_deconv_tool.artefact</text>
<text text-anchor="middle" x="89.5" y="-536.5" font-family="Helvetica,sans-Serif" font-size="10.00">_detection.go</text>
</a>
</g>
</g>
<!-- Node4&#45;&gt;Node5 -->
<g id="edge4" class="edge">
<title>Node4&#45;&gt;Node5</title>
<path fill="none" stroke="midnightblue" d="M227.48,-544.5C206.15,-544.5 183.33,-544.5 162.56,-544.5"/>
<polygon fill="midnightblue" stroke="midnightblue" points="227.49,-548 237.49,-544.5 227.49,-541 227.49,-548"/>
</g>
<!-- Node7 -->
<g id="node7" class="node">
<title>Node7</title>
<g id="a_node7"><a xlink:href="../../d1/d07/namespaceaopp__deconv__tool_1_1create__bad__pixel__mask.html#a656853bce6dbc18e632700c0daaca43e" target="_top" xlink:title=" ">
<polygon fill="none" stroke="black" points="220.5,-480.5 220.5,-510.5 400.5,-510.5 400.5,-480.5 220.5,-480.5"/>
<text text-anchor="start" x="228.5" y="-498.5" font-family="Helvetica,sans-Serif" font-size="10.00">aopp_deconv_tool.create</text>
<text text-anchor="middle" x="310.5" y="-487.5" font-family="Helvetica,sans-Serif" font-size="10.00">_bad_pixel_mask.exec_with_args</text>
</a>
</g>
</g>
<!-- Node6&#45;&gt;Node7 -->
<g id="edge6" class="edge">
<title>Node6&#45;&gt;Node7</title>
<path fill="none" stroke="midnightblue" d="M463.09,-492.97C442.8,-493.31 421.22,-493.67 400.89,-494.01"/>
<polygon fill="midnightblue" stroke="midnightblue" points="463.31,-496.47 473.25,-492.8 463.19,-489.47 463.31,-496.47"/>
</g>
<!-- Node8 -->
<g id="node8" class="node">
<title>Node8</title>
<g id="a_node8"><a xlink:href="../../d1/d07/namespaceaopp__deconv__tool_1_1create__bad__pixel__mask.html#a8dd3e186d7fb2632f6636b4697448f7e" target="_top" xlink:title=" ">
<polygon fill="none" stroke="black" points="20,-480.5 20,-510.5 159,-510.5 159,-480.5 20,-480.5"/>
<text text-anchor="start" x="28" y="-498.5" font-family="Helvetica,sans-Serif" font-size="10.00">aopp_deconv_tool.create</text>
<text text-anchor="middle" x="89.5" y="-487.5" font-family="Helvetica,sans-Serif" font-size="10.00">_bad_pixel_mask.go</text>
</a>
</g>
</g>
<!-- Node7&#45;&gt;Node8 -->
<g id="edge7" class="edge">
<title>Node7&#45;&gt;Node8</title>
<path fill="none" stroke="midnightblue" d="M210.27,-495.5C192.95,-495.5 175.27,-495.5 159,-495.5"/>
<polygon fill="midnightblue" stroke="midnightblue" points="210.42,-499 220.42,-495.5 210.42,-492 210.42,-499"/>
</g>
<!-- Node10 -->
<g id="node10" class="node">
<title>Node10</title>
<g id="a_node10"><a xlink:href="../../d6/de2/namespaceaopp__deconv__tool_1_1deconvolve.html#aac9167e2fdab893a6897a6bed78f442b" target="_top" xlink:title=" ">
<polygon fill="none" stroke="black" points="215,-431.5 215,-461.5 406,-461.5 406,-431.5 215,-431.5"/>
<text text-anchor="start" x="223" y="-449.5" font-family="Helvetica,sans-Serif" font-size="10.00">aopp_deconv_tool.deconvolve.exec</text>
<text text-anchor="middle" x="310.5" y="-438.5" font-family="Helvetica,sans-Serif" font-size="10.00">_with_args</text>
</a>
</g>
</g>
<!-- Node9&#45;&gt;Node10 -->
<g id="edge9" class="edge">
<title>Node9&#45;&gt;Node10</title>
<path fill="none" stroke="midnightblue" d="M431.67,-445C423.12,-445.1 414.58,-445.21 406.2,-445.32"/>
<polygon fill="midnightblue" stroke="midnightblue" points="431.73,-448.5 441.68,-444.87 431.64,-441.5 431.73,-448.5"/>
</g>
<!-- Node11 -->
<g id="node11" class="node">
<title>Node11</title>
<g id="a_node11"><a xlink:href="../../d6/de2/namespaceaopp__deconv__tool_1_1deconvolve.html#af6bd8fd6e2c673853b1544085c2bf222" target="_top" xlink:title=" ">
<polygon fill="none" stroke="black" points="0,-437 0,-456 179,-456 179,-437 0,-437"/>
<text text-anchor="middle" x="89.5" y="-444" font-family="Helvetica,sans-Serif" font-size="10.00">aopp_deconv_tool.deconvolve.go</text>
</a>
</g>
</g>
<!-- Node10&#45;&gt;Node11 -->
<g id="edge10" class="edge">
<title>Node10&#45;&gt;Node11</title>
<path fill="none" stroke="midnightblue" d="M204.45,-446.5C196,-446.5 187.52,-446.5 179.21,-446.5"/>
<polygon fill="midnightblue" stroke="midnightblue" points="204.72,-450 214.72,-446.5 204.72,-443 204.72,-450"/>
</g>
<!-- Node13 -->
<g id="node13" class="node">
<title>Node13</title>
<g id="a_node13"><a xlink:href="../../dc/dd6/namespaceaopp__deconv__tool_1_1extract__sources.html#adba97220152c924bb19f483434059202" target="_top" xlink:title=" ">
<polygon fill="none" stroke="black" points="239,-382.5 239,-412.5 382,-412.5 382,-382.5 239,-382.5"/>
<text text-anchor="start" x="247" y="-400.5" font-family="Helvetica,sans-Serif" font-size="10.00">aopp_deconv_tool.extract</text>
<text text-anchor="middle" x="310.5" y="-389.5" font-family="Helvetica,sans-Serif" font-size="10.00">_sources.exec_with_args</text>
</a>
</g>
</g>
<!-- Node12&#45;&gt;Node13 -->
<g id="edge12" class="edge">
<title>Node12&#45;&gt;Node13</title>
<path fill="none" stroke="midnightblue" d="M470.78,-397.5C442.05,-397.5 409.94,-397.5 382.12,-397.5"/>
<polygon fill="midnightblue" stroke="midnightblue" points="470.79,-401 480.79,-397.5 470.79,-394 470.79,-401"/>
</g>
<!-- Node14 -->
<g id="node14" class="node">
<title>Node14</title>
<g id="a_node14"><a xlink:href="../../dc/dd6/namespaceaopp__deconv__tool_1_1extract__sources.html#aa4d56ab52c10b8dc7197d1acd18898bb" target="_top" xlink:title=" ">
<polygon fill="none" stroke="black" points="18,-382.5 18,-412.5 161,-412.5 161,-382.5 18,-382.5"/>
<text text-anchor="start" x="26" y="-400.5" font-family="Helvetica,sans-Serif" font-size="10.00">aopp_deconv_tool.extract</text>
<text text-anchor="middle" x="89.5" y="-389.5" font-family="Helvetica,sans-Serif" font-size="10.00">_sources.go</text>
</a>
</g>
</g>
<!-- Node13&#45;&gt;Node14 -->
<g id="edge13" class="edge">
<title>Node13&#45;&gt;Node14</title>
<path fill="none" stroke="midnightblue" d="M228.64,-397.5C206.47,-397.5 182.61,-397.5 161.06,-397.5"/>
<polygon fill="midnightblue" stroke="midnightblue" points="228.7,-401 238.7,-397.5 228.7,-394 228.7,-401"/>
</g>
<!-- Node16 -->
<g id="node16" class="node">
<title>Node16</title>
<g id="a_node16"><a xlink:href="../../dc/dc5/namespaceaopp__deconv__tool_1_1fit__psf__model.html#a628509727f69f8b5e5d81e2ae1a11110" target="_top" xlink:title=" ">
<polygon fill="none" stroke="black" points="234.5,-333.5 234.5,-363.5 386.5,-363.5 386.5,-333.5 234.5,-333.5"/>
<text text-anchor="start" x="242.5" y="-351.5" font-family="Helvetica,sans-Serif" font-size="10.00">aopp_deconv_tool.fit</text>
<text text-anchor="middle" x="310.5" y="-340.5" font-family="Helvetica,sans-Serif" font-size="10.00">_psf_model.exec_with_args</text>
</a>
</g>
</g>
<!-- Node15&#45;&gt;Node16 -->
<g id="edge15" class="edge">
<title>Node15&#45;&gt;Node16</title>
<path fill="none" stroke="midnightblue" d="M477.77,-348.5C448.83,-348.5 415.64,-348.5 386.57,-348.5"/>
<polygon fill="midnightblue" stroke="midnightblue" points="477.81,-352 487.81,-348.5 477.81,-345 477.81,-352"/>
</g>
<!-- Node17 -->
<g id="node17" class="node">
<title>Node17</title>
<g id="a_node17"><a xlink:href="../../dc/dc5/namespaceaopp__deconv__tool_1_1fit__psf__model.html#aeaba04f31c76051331b8e0d8ad867177" target="_top" xlink:title=" ">
<polygon fill="none" stroke="black" points="30,-333.5 30,-363.5 149,-363.5 149,-333.5 30,-333.5"/>
<text text-anchor="start" x="38" y="-351.5" font-family="Helvetica,sans-Serif" font-size="10.00">aopp_deconv_tool.fit</text>
<text text-anchor="middle" x="89.5" y="-340.5" font-family="Helvetica,sans-Serif" font-size="10.00">_psf_model.go</text>
</a>
</g>
</g>
<!-- Node16&#45;&gt;Node17 -->
<g id="edge16" class="edge">
<title>Node16&#45;&gt;Node17</title>
<path fill="none" stroke="midnightblue" d="M224.19,-348.5C199.1,-348.5 172.24,-348.5 149.22,-348.5"/>
<polygon fill="midnightblue" stroke="midnightblue" points="224.44,-352 234.44,-348.5 224.44,-345 224.44,-352"/>
</g>
<!-- Node19 -->
<g id="node19" class="node">
<title>Node19</title>
<g id="a_node19"><a xlink:href="../../d4/d1f/namespaceaopp__deconv__tool_1_1fits__copy__wcs.html#af265f7c9b1d134b4e608c6a2909fb002" target="_top" xlink:title=" ">
<polygon fill="none" stroke="black" points="236.5,-284.5 236.5,-314.5 384.5,-314.5 384.5,-284.5 236.5,-284.5"/>
<text text-anchor="start" x="244.5" y="-302.5" font-family="Helvetica,sans-Serif" font-size="10.00">aopp_deconv_tool.fits</text>
<text text-anchor="middle" x="310.5" y="-291.5" font-family="Helvetica,sans-Serif" font-size="10.00">_copy_wcs.exec_with_args</text>
</a>
</g>
</g>
<!-- Node18&#45;&gt;Node19 -->
<g id="edge18" class="edge">
<title>Node18&#45;&gt;Node19</title>
<path fill="none" stroke="midnightblue" d="M479.31,-299.5C449.36,-299.5 414.66,-299.5 384.62,-299.5"/>
<polygon fill="midnightblue" stroke="midnightblue" points="479.69,-303 489.69,-299.5 479.69,-296 479.69,-303"/>
</g>
<!-- Node20 -->
<g id="node20" class="node">
<title>Node20</title>
<g id="a_node20"><a xlink:href="../../d4/d1f/namespaceaopp__deconv__tool_1_1fits__copy__wcs.html#a82034ade942267b34d143e6a96450416" target="_top" xlink:title=" ">
<polygon fill="none" stroke="black" points="27.5,-284.5 27.5,-314.5 151.5,-314.5 151.5,-284.5 27.5,-284.5"/>
<text text-anchor="start" x="35.5" y="-302.5" font-family="Helvetica,sans-Serif" font-size="10.00">aopp_deconv_tool.fits</text>
<text text-anchor="middle" x="89.5" y="-291.5" font-family="Helvetica,sans-Serif" font-size="10.00">_copy_wcs.go</text>
</a>
</g>
</g>
<!-- Node19&#45;&gt;Node20 -->
<g id="edge19" class="edge">
<title>Node19&#45;&gt;Node20</title>
<path fill="none" stroke="midnightblue" d="M226.15,-299.5C201.37,-299.5 174.69,-299.5 151.61,-299.5"/>
<polygon fill="midnightblue" stroke="midnightblue" points="226.27,-303 236.27,-299.5 226.27,-296 226.27,-303"/>
</g>
<!-- Node22 -->
<g id="node22" class="node">
<title>Node22</title>
<g id="a_node22"><a xlink:href="../../d6/d01/namespaceaopp__deconv__tool_1_1fits__slice.html#ad46012d4708f54f0a6bbde678d5f6b6b" target="_top" xlink:title=" ">
<polygon fill="none" stroke="black" points="248.5,-235.5 248.5,-265.5 372.5,-265.5 372.5,-235.5 248.5,-235.5"/>
<text text-anchor="start" x="256.5" y="-253.5" font-family="Helvetica,sans-Serif" font-size="10.00">aopp_deconv_tool.fits</text>
<text text-anchor="middle" x="310.5" y="-242.5" font-family="Helvetica,sans-Serif" font-size="10.00">_slice.exec_with_args</text>
</a>
</g>
</g>
<!-- Node21&#45;&gt;Node22 -->
<g id="edge21" class="edge">
<title>Node21&#45;&gt;Node22</title>
<path fill="none" stroke="midnightblue" d="M479.93,-250.5C445.75,-250.5 405.28,-250.5 372.57,-250.5"/>
<polygon fill="midnightblue" stroke="midnightblue" points="480.32,-254 490.32,-250.5 480.32,-247 480.32,-254"/>
</g>
<!-- Node23 -->
<g id="node23" class="node">
<title>Node23</title>
<g id="a_node23"><a xlink:href="../../d6/d01/namespaceaopp__deconv__tool_1_1fits__slice.html#a887d4865850a9f67f37d1ac7c3ffd052" target="_top" xlink:title=" ">
<polygon fill="none" stroke="black" points="27.5,-235.5 27.5,-265.5 151.5,-265.5 151.5,-235.5 27.5,-235.5"/>
<text text-anchor="start" x="35.5" y="-253.5" font-family="Helvetica,sans-Serif" font-size="10.00">aopp_deconv_tool.fits</text>
<text text-anchor="middle" x="89.5" y="-242.5" font-family="Helvetica,sans-Serif" font-size="10.00">_slice.go</text>
</a>
</g>
</g>
<!-- Node22&#45;&gt;Node23 -->
<g id="edge22" class="edge">
<title>Node22&#45;&gt;Node23</title>
<path fill="none" stroke="midnightblue" d="M238.37,-250.5C210.35,-250.5 178.5,-250.5 151.56,-250.5"/>
<polygon fill="midnightblue" stroke="midnightblue" points="238.5,-254 248.5,-250.5 238.5,-247 238.5,-254"/>
</g>
<!-- Node25 -->
<g id="node25" class="node">
<title>Node25</title>
<g id="a_node25"><a xlink:href="../../d5/ddb/namespaceaopp__deconv__tool_1_1interpolate.html#a48796d07587b5987c22e7e035354fab4" target="_top" xlink:title=" ">
<polygon fill="none" stroke="black" points="216.5,-186.5 216.5,-216.5 404.5,-216.5 404.5,-186.5 216.5,-186.5"/>
<text text-anchor="start" x="224.5" y="-204.5" font-family="Helvetica,sans-Serif" font-size="10.00">aopp_deconv_tool.interpolate.exec</text>
<text text-anchor="middle" x="310.5" y="-193.5" font-family="Helvetica,sans-Serif" font-size="10.00">_with_args</text>
</a>
</g>
</g>
<!-- Node24&#45;&gt;Node25 -->
<g id="edge24" class="edge">
<title>Node24&#45;&gt;Node25</title>
<path fill="none" stroke="midnightblue" d="M433.4,-204.04C423.76,-203.84 414.09,-203.64 404.67,-203.44"/>
<polygon fill="midnightblue" stroke="midnightblue" points="433.36,-207.54 443.44,-204.25 433.51,-200.54 433.36,-207.54"/>
</g>
<!-- Node26 -->
<g id="node26" class="node">
<title>Node26</title>
<g id="a_node26"><a xlink:href="../../d5/ddb/namespaceaopp__deconv__tool_1_1interpolate.html#a90751da03483cf837084f4aa70cdb1d4" target="_top" xlink:title=" ">
<polygon fill="none" stroke="black" points="1.5,-192 1.5,-211 177.5,-211 177.5,-192 1.5,-192"/>
<text text-anchor="middle" x="89.5" y="-199" font-family="Helvetica,sans-Serif" font-size="10.00">aopp_deconv_tool.interpolate.go</text>
</a>
</g>
</g>
<!-- Node25&#45;&gt;Node26 -->
<g id="edge25" class="edge">
<title>Node25&#45;&gt;Node26</title>
<path fill="none" stroke="midnightblue" d="M206.05,-201.5C196.57,-201.5 187.02,-201.5 177.7,-201.5"/>
<polygon fill="midnightblue" stroke="midnightblue" points="206.31,-205 216.31,-201.5 206.31,-198 206.31,-205"/>
</g>
<!-- Node28 -->
<g id="node28" class="node">
<title>Node28</title>
<g id="a_node28"><a xlink:href="../../da/de2/namespaceaopp__deconv__tool_1_1psf__normalise.html#a7e1eaea902a3d4a70555a4a6bc3d9bea" target="_top" xlink:title=" ">
<polygon fill="none" stroke="black" points="236,-137.5 236,-167.5 385,-167.5 385,-137.5 236,-137.5"/>
<text text-anchor="start" x="244" y="-155.5" font-family="Helvetica,sans-Serif" font-size="10.00">aopp_deconv_tool.psf</text>
<text text-anchor="middle" x="310.5" y="-144.5" font-family="Helvetica,sans-Serif" font-size="10.00">_normalise.exec_with_args</text>
</a>
</g>
</g>
<!-- Node27&#45;&gt;Node28 -->
<g id="edge27" class="edge">
<title>Node27&#45;&gt;Node28</title>
<path fill="none" stroke="midnightblue" d="M478.52,-159.46C449.01,-158.23 414.99,-156.81 385.38,-155.58"/>
<polygon fill="midnightblue" stroke="midnightblue" points="478.62,-162.97 488.76,-159.89 478.91,-155.97 478.62,-162.97"/>
</g>
<!-- Node29 -->
<g id="node29" class="node">
<title>Node29</title>
<g id="a_node29"><a xlink:href="../../da/de2/namespaceaopp__deconv__tool_1_1psf__normalise.html#a97a76320cb70504d32f75a398f4635a0" target="_top" xlink:title=" ">
<polygon fill="none" stroke="black" points="28,-137.5 28,-167.5 151,-167.5 151,-137.5 28,-137.5"/>
<text text-anchor="start" x="36" y="-155.5" font-family="Helvetica,sans-Serif" font-size="10.00">aopp_deconv_tool.psf</text>
<text text-anchor="middle" x="89.5" y="-144.5" font-family="Helvetica,sans-Serif" font-size="10.00">_normalise.go</text>
</a>
</g>
</g>
<!-- Node28&#45;&gt;Node29 -->
<g id="edge28" class="edge">
<title>Node28&#45;&gt;Node29</title>
<path fill="none" stroke="midnightblue" d="M225.81,-152.5C200.94,-152.5 174.19,-152.5 151.09,-152.5"/>
<polygon fill="midnightblue" stroke="midnightblue" points="225.97,-156 235.97,-152.5 225.97,-149 225.97,-156"/>
</g>
<!-- Node31 -->
<g id="node31" class="node">
<title>Node31</title>
<g id="a_node31"><a xlink:href="../../d5/d6e/namespaceaopp__deconv__tool_1_1spatial__rebin.html#a0ec3a82ccfcd0b851529424b83c7c6fb" target="_top" xlink:title=" ">
<polygon fill="none" stroke="black" points="240,-88.5 240,-118.5 381,-118.5 381,-88.5 240,-88.5"/>
<text text-anchor="start" x="248" y="-106.5" font-family="Helvetica,sans-Serif" font-size="10.00">aopp_deconv_tool.spatial</text>
<text text-anchor="middle" x="310.5" y="-95.5" font-family="Helvetica,sans-Serif" font-size="10.00">_rebin.exec_with_args</text>
</a>
</g>
</g>
<!-- Node30&#45;&gt;Node31 -->
<g id="edge30" class="edge">
<title>Node30&#45;&gt;Node31</title>
<path fill="none" stroke="midnightblue" d="M471.6,-110.17C442.42,-108.95 409.66,-107.59 381.41,-106.41"/>
<polygon fill="midnightblue" stroke="midnightblue" points="471.62,-113.67 481.76,-110.59 471.91,-106.68 471.62,-113.67"/>
</g>
<!-- Node32 -->
<g id="node32" class="node">
<title>Node32</title>
<g id="a_node32"><a xlink:href="../../d5/d6e/namespaceaopp__deconv__tool_1_1spatial__rebin.html#aab7cb0364ede9bd5a9ee5fe3eb6d534c" target="_top" xlink:title=" ">
<polygon fill="none" stroke="black" points="19,-88.5 19,-118.5 160,-118.5 160,-88.5 19,-88.5"/>
<text text-anchor="start" x="27" y="-106.5" font-family="Helvetica,sans-Serif" font-size="10.00">aopp_deconv_tool.spatial</text>
<text text-anchor="middle" x="89.5" y="-95.5" font-family="Helvetica,sans-Serif" font-size="10.00">_rebin.go</text>
</a>
</g>
</g>
<!-- Node31&#45;&gt;Node32 -->
<g id="edge31" class="edge">
<title>Node31&#45;&gt;Node32</title>
<path fill="none" stroke="midnightblue" d="M229.62,-103.5C206.9,-103.5 182.35,-103.5 160.29,-103.5"/>
<polygon fill="midnightblue" stroke="midnightblue" points="229.91,-107 239.91,-103.5 229.91,-100 229.91,-107"/>
</g>
<!-- Node34 -->
<g id="node34" class="node">
<title>Node34</title>
<g id="a_node34"><a xlink:href="../../d1/d3b/namespaceaopp__deconv__tool_1_1spectral__rebin.html#a16e0912cc6435aef773275c035b89969" target="_top" xlink:title=" ">
<polygon fill="none" stroke="black" points="237,-39.5 237,-69.5 384,-69.5 384,-39.5 237,-39.5"/>
<text text-anchor="start" x="245" y="-57.5" font-family="Helvetica,sans-Serif" font-size="10.00">aopp_deconv_tool.spectral</text>
<text text-anchor="middle" x="310.5" y="-46.5" font-family="Helvetica,sans-Serif" font-size="10.00">_rebin.exec_with_args</text>
</a>
</g>
</g>
<!-- Node33&#45;&gt;Node34 -->
<g id="edge33" class="edge">
<title>Node33&#45;&gt;Node34</title>
<path fill="none" stroke="midnightblue" d="M468.5,-61.04C441.12,-59.9 410.89,-58.64 384.33,-57.53"/>
<polygon fill="midnightblue" stroke="midnightblue" points="468.7,-64.55 478.84,-61.47 469,-57.56 468.7,-64.55"/>
</g>
<!-- Node35 -->
<g id="node35" class="node">
<title>Node35</title>
<g id="a_node35"><a xlink:href="../../d1/d3b/namespaceaopp__deconv__tool_1_1spectral__rebin.html#a805c759d8363bb2c9ffdec21bf5d19f7" target="_top" xlink:title=" ">
<polygon fill="none" stroke="black" points="16,-39.5 16,-69.5 163,-69.5 163,-39.5 16,-39.5"/>
<text text-anchor="start" x="24" y="-57.5" font-family="Helvetica,sans-Serif" font-size="10.00">aopp_deconv_tool.spectral</text>
<text text-anchor="middle" x="89.5" y="-46.5" font-family="Helvetica,sans-Serif" font-size="10.00">_rebin.go</text>
</a>
</g>
</g>
<!-- Node34&#45;&gt;Node35 -->
<g id="edge34" class="edge">
<title>Node34&#45;&gt;Node35</title>
<path fill="none" stroke="midnightblue" d="M226.76,-54.5C205.89,-54.5 183.64,-54.5 163.3,-54.5"/>
<polygon fill="midnightblue" stroke="midnightblue" points="226.88,-58 236.88,-54.5 226.88,-51 226.88,-58"/>
</g>
</g>
</svg>
        <g id="navigator" transform="translate(0 0)" fill="#404254">
                <rect fill="#f2f5e9" fill-opacity="0.5" stroke="#606060" stroke-width=".5" x="0" y="0" width="60" height="60"/>
                <use id="zoomplus" xlink:href="#zoomPlus" x="17" y="9" onmousedown="handleZoom(evt,'in')"/>
                <use id="zoomminus" xlink:href="#zoomMin" x="42" y="9" onmousedown="handleZoom(evt,'out')"/>
                <use id="reset" xlink:href="#resetDef" x="30" y="36" onmousedown="handleReset()"/>
                <g id="arrowUp" xlink:href="#dirArrow" transform="translate(30 24)" onmousedown="handlePan(0,-1)">
                  <use xlink:href="#rim" fill="#404040">
                        <set attributeName="fill" to="#808080" begin="arrowUp.mouseover" end="arrowUp.mouseout"/>
                  </use>
                  <path fill="none" stroke="white" stroke-width="1.5" d="M0,-3.0v7 M-2.5,-0.5L0,-3.0L2.5,-0.5"/>
                </g>
                <g id="arrowRight" xlink:href="#dirArrow" transform="rotate(90) translate(36 -43)" onmousedown="handlePan(1,0)">
                  <use xlink:href="#rim" fill="#404040">
                        <set attributeName="fill" to="#808080" begin="arrowRight.mouseover" end="arrowRight.mouseout"/>
                  </use>
                  <path fill="none" stroke="white" stroke-width="1.5" d="M0,-3.0v7 M-2.5,-0.5L0,-3.0L2.5,-0.5"/>
                </g>
                <g id="arrowDown" xlink:href="#dirArrow" transform="rotate(180) translate(-30 -48)" onmousedown="handlePan(0,1)">
                  <use xlink:href="#rim" fill="#404040">
                        <set attributeName="fill" to="#808080" begin="arrowDown.mouseover" end="arrowDown.mouseout"/>
                  </use>
                  <path fill="none" stroke="white" stroke-width="1.5" d="M0,-3.0v7 M-2.5,-0.5L0,-3.0L2.5,-0.5"/>
                </g>
                <g id="arrowLeft" xlink:href="#dirArrow" transform="rotate(270) translate(-36 17)" onmousedown="handlePan(-1,0)">
                  <use xlink:href="#rim" fill="#404040">
                        <set attributeName="fill" to="#808080" begin="arrowLeft.mouseover" end="arrowLeft.mouseout"/>
                  </use>
                  <path fill="none" stroke="white" stroke-width="1.5" d="M0,-3.0v7 M-2.5,-0.5L0,-3.0L2.5,-0.5"/>
                </g>
        </g>
        <svg viewBox="0 0 15 15" width="100%" height="30px" preserveAspectRatio="xMaxYMin meet">
         <g id="arrow_out" transform="scale(0.3 0.3)">
          <a xlink:href="namespaceaopp__deconv__tool_1_1text_a5b208e43cdecac49460b4ced231aa4a6_icgraph_org.svg" target="_base">
           <rect id="button" ry="5" rx="5" y="6" x="6" height="38" width="38"
                fill="#f2f5e9" fill-opacity="0.5" stroke="#606060" stroke-width="1.0"/>
           <path id="arrow"
             d="M 11.500037,31.436501 C 11.940474,20.09759 22.043105,11.32322 32.158766,21.979434 L 37.068811,17.246167 C 37.068811,17.246167 37.088388,32 37.088388,32 L 22.160133,31.978069 C 22.160133,31.978069 26.997745,27.140456 26.997745,27.140456 C 18.528582,18.264221 13.291696,25.230495 11.500037,31.436501 z"
             style="fill:#404040;"/>
          </a>
         </g>
        </svg>
</svg>
