<?xml version="1.0" encoding="UTF-8" standalone="no"?>
<!DOCTYPE svg PUBLIC "-//W3C//DTD SVG 1.1//EN"
 "http://www.w3.org/Graphics/SVG/1.1/DTD/svg11.dtd">
<!-- Generated by graphviz version 2.43.0 (0)
 -->
<!-- Title: aopp_deconv_tool.text.wrap Pages: 1 -->
<!--zoomable 519 -->
<svg id="main" version="1.1" xmlns="http://www.w3.org/2000/svg" xmlns:xlink="http://www.w3.org/1999/xlink" xml:space="preserve" onload="init(evt)">
<style type="text/css"><![CDATA[
.edge:hover path { stroke: red; }
.edge:hover polygon { stroke: red; fill: red; }
]]></style>
<script type="text/javascript"><![CDATA[
var edges = document.getElementsByTagName('g');
if (edges && edges.length) {
  for (var i=0;i<edges.length;i++) {
    if (edges[i].id.substr(0,4)=='edge') {
      edges[i].setAttribute('class','edge');
    }
  }
}
]]></script>
        <defs>
                <circle id="rim" cx="0" cy="0" r="7"/>
                <circle id="rim2" cx="0" cy="0" r="3.5"/>
                <g id="zoomPlus">
                        <use xlink:href="#rim" fill="#404040">
                                <set attributeName="fill" to="#808080" begin="zoomplus.mouseover" end="zoomplus.mouseout"/>
                        </use>
                        <path d="M-4,0h8M0,-4v8" fill="none" stroke="white" stroke-width="1.5" pointer-events="none"/>
                </g>
                <g id="zoomMin">
                        <use xlink:href="#rim" fill="#404040">
                                <set attributeName="fill" to="#808080" begin="zoomminus.mouseover" end="zoomminus.mouseout"/>
                        </use>
                        <path d="M-4,0h8" fill="none" stroke="white" stroke-width="1.5" pointer-events="none"/>
                </g>
                <g id="dirArrow">
                        <path fill="none" stroke="white" stroke-width="1.5" d="M0,-3.0v7 M-2.5,-0.5L0,-3.0L2.5,-0.5"/>
                </g>
               <g id="resetDef">
                       <use xlink:href="#rim2" fill="#404040">
                               <set attributeName="fill" to="#808080" begin="reset.mouseover" end="reset.mouseout"/>
                       </use>
               </g>
        </defs>

<script type="text/javascript">
var viewWidth = 862;
var viewHeight = 519;
var sectionId = 'dynsection-2';
</script>
<script xlink:href="../../svgpan.js"/>
<svg id="graph" class="graph">
<g id="viewport">
<title>aopp_deconv_tool.text.wrap</title>
<!-- Node1 -->
<g id="node1" class="node">
<title>Node1</title>
<g id="a_node1"><a xlink:title=" ">
<polygon fill="#bfbfbf" stroke="black" points="699,-241 699,-260 854,-260 854,-241 699,-241"/>
<text text-anchor="middle" x="776.5" y="-248" font-family="Helvetica,sans-Serif" font-size="10.00">aopp_deconv_tool.text.wrap</text>
</a>
</g>
</g>
<!-- Node2 -->
<g id="node2" class="node">
<title>Node2</title>
<g id="a_node2"><a xlink:href="../../dd/d4d/namespaceaopp__deconv__tool_1_1artefact__detection.html#a4d46d8ae518ad501b8786cd6dd8a50dd" target="_top" xlink:title=" ">
<polygon fill="none" stroke="black" points="479.5,-478.5 479.5,-508.5 625.5,-508.5 625.5,-478.5 479.5,-478.5"/>
<text text-anchor="start" x="487.5" y="-496.5" font-family="Helvetica,sans-Serif" font-size="10.00">aopp_deconv_tool.artefact</text>
<text text-anchor="middle" x="552.5" y="-485.5" font-family="Helvetica,sans-Serif" font-size="10.00">_detection.parse_args</text>
</a>
</g>
</g>
<!-- Node1&#45;&gt;Node2 -->
<g id="edge1" class="edge">
<title>Node1&#45;&gt;Node2</title>
<path fill="none" stroke="midnightblue" d="M771.18,-270.13C760.68,-313.03 729.63,-415.48 663,-467.5 652.14,-475.98 638.96,-481.76 625.56,-485.68"/>
<polygon fill="midnightblue" stroke="midnightblue" points="774.65,-270.66 773.52,-260.13 767.84,-269.07 774.65,-270.66"/>
</g>
<!-- Node5 -->
<g id="node5" class="node">
<title>Node5</title>
<g id="a_node5"><a xlink:href="../../d1/d07/namespaceaopp__deconv__tool_1_1create__bad__pixel__mask.html#a2b16b8c45b14df83d552a22fb639b9f9" target="_top" xlink:title=" ">
<polygon fill="none" stroke="black" points="473.5,-427.5 473.5,-457.5 631.5,-457.5 631.5,-427.5 473.5,-427.5"/>
<text text-anchor="start" x="481.5" y="-445.5" font-family="Helvetica,sans-Serif" font-size="10.00">aopp_deconv_tool.create</text>
<text text-anchor="middle" x="552.5" y="-434.5" font-family="Helvetica,sans-Serif" font-size="10.00">_bad_pixel_mask.parse_args</text>
</a>
</g>
</g>
<!-- Node1&#45;&gt;Node5 -->
<g id="edge4" class="edge">
<title>Node1&#45;&gt;Node5</title>
<path fill="none" stroke="midnightblue" d="M767.65,-269.75C752.64,-304.1 716.53,-375.86 663,-413.5 653.59,-420.12 642.76,-425.22 631.65,-429.17"/>
<polygon fill="midnightblue" stroke="midnightblue" points="770.95,-270.95 771.63,-260.37 764.5,-268.22 770.95,-270.95"/>
</g>
<!-- Node8 -->
<g id="node8" class="node">
<title>Node8</title>
<g id="a_node8"><a xlink:href="../../d6/de2/namespaceaopp__deconv__tool_1_1deconvolve.html#afb9fb6db643cda6e6d7af7ca2c1c4940" target="_top" xlink:title=" ">
<polygon fill="none" stroke="black" points="442,-385 442,-404 663,-404 663,-385 442,-385"/>
<text text-anchor="middle" x="552.5" y="-392" font-family="Helvetica,sans-Serif" font-size="10.00">aopp_deconv_tool.deconvolve.parse_args</text>
</a>
</g>
</g>
<!-- Node1&#45;&gt;Node8 -->
<g id="edge7" class="edge">
<title>Node1&#45;&gt;Node8</title>
<path fill="none" stroke="midnightblue" d="M764.4,-268.73C746.64,-296.2 709.1,-347.73 663,-373.5 654.38,-378.32 644.85,-382.05 635.12,-384.93"/>
<polygon fill="midnightblue" stroke="midnightblue" points="767.47,-270.42 769.84,-260.1 761.55,-266.69 767.47,-270.42"/>
</g>
<!-- Node11 -->
<g id="node11" class="node">
<title>Node11</title>
<g id="a_node11"><a xlink:href="../../dc/dc5/namespaceaopp__deconv__tool_1_1fit__psf__model.html#a2ff26f2f657884f9deaa3e1e84e508b6" target="_top" xlink:title=" ">
<polygon fill="none" stroke="black" points="488,-333.5 488,-363.5 617,-363.5 617,-333.5 488,-333.5"/>
<text text-anchor="start" x="496" y="-351.5" font-family="Helvetica,sans-Serif" font-size="10.00">aopp_deconv_tool.fit</text>
<text text-anchor="middle" x="552.5" y="-340.5" font-family="Helvetica,sans-Serif" font-size="10.00">_psf_model.parse_args</text>
</a>
</g>
</g>
<!-- Node1&#45;&gt;Node11 -->
<g id="edge10" class="edge">
<title>Node1&#45;&gt;Node11</title>
<path fill="none" stroke="midnightblue" d="M756.18,-266.42C734.72,-283.32 698.41,-309.58 663,-324.5 648.65,-330.55 632.58,-335.16 617.26,-338.64"/>
<polygon fill="midnightblue" stroke="midnightblue" points="758.55,-269.01 764.17,-260.03 754.17,-263.55 758.55,-269.01"/>
</g>
<!-- Node14 -->
<g id="node14" class="node">
<title>Node14</title>
<g id="a_node14"><a xlink:href="../../d4/d1f/namespaceaopp__deconv__tool_1_1fits__copy__wcs.html#a919079e5f742632cf582ee2a7c9ff7a2" target="_top" xlink:title=" ">
<polygon fill="none" stroke="black" points="490,-284.5 490,-314.5 615,-314.5 615,-284.5 490,-284.5"/>
<text text-anchor="start" x="498" y="-302.5" font-family="Helvetica,sans-Serif" font-size="10.00">aopp_deconv_tool.fits</text>
<text text-anchor="middle" x="552.5" y="-291.5" font-family="Helvetica,sans-Serif" font-size="10.00">_copy_wcs.parse_args</text>
</a>
</g>
</g>
<!-- Node1&#45;&gt;Node14 -->
<g id="edge13" class="edge">
<title>Node1&#45;&gt;Node14</title>
<path fill="none" stroke="midnightblue" d="M722.87,-262.23C703.99,-266.43 682.54,-271.19 663,-275.5 647.51,-278.92 630.79,-282.59 615.18,-286.01"/>
<polygon fill="midnightblue" stroke="midnightblue" points="723.77,-265.61 732.77,-260.03 722.25,-258.78 723.77,-265.61"/>
</g>
<!-- Node17 -->
<g id="node17" class="node">
<title>Node17</title>
<g id="a_node17"><a xlink:href="../../d6/d01/namespaceaopp__deconv__tool_1_1fits__slice.html#a33fccd58fdb9c6f28d970787b141ca4a" target="_top" xlink:title=" ">
<polygon fill="none" stroke="black" points="490.5,-235.5 490.5,-265.5 614.5,-265.5 614.5,-235.5 490.5,-235.5"/>
<text text-anchor="start" x="498.5" y="-253.5" font-family="Helvetica,sans-Serif" font-size="10.00">aopp_deconv_tool.fits</text>
<text text-anchor="middle" x="552.5" y="-242.5" font-family="Helvetica,sans-Serif" font-size="10.00">_slice.parse_args</text>
</a>
</g>
</g>
<!-- Node1&#45;&gt;Node17 -->
<g id="edge16" class="edge">
<title>Node1&#45;&gt;Node17</title>
<path fill="none" stroke="midnightblue" d="M688.7,-250.5C664.01,-250.5 637.65,-250.5 614.82,-250.5"/>
<polygon fill="midnightblue" stroke="midnightblue" points="688.79,-254 698.79,-250.5 688.79,-247 688.79,-254"/>
</g>
<!-- Node20 -->
<g id="node20" class="node">
<title>Node20</title>
<g id="a_node20"><a xlink:href="../../d5/ddb/namespaceaopp__deconv__tool_1_1interpolate.html#abf004ff77536f8a4c52a86709a9ae800" target="_top" xlink:title=" ">
<polygon fill="none" stroke="black" points="443.5,-197 443.5,-216 661.5,-216 661.5,-197 443.5,-197"/>
<text text-anchor="middle" x="552.5" y="-204" font-family="Helvetica,sans-Serif" font-size="10.00">aopp_deconv_tool.interpolate.parse_args</text>
</a>
</g>
</g>
<!-- Node1&#45;&gt;Node20 -->
<g id="edge19" class="edge">
<title>Node1&#45;&gt;Node20</title>
<path fill="none" stroke="midnightblue" d="M722.44,-238.84C703.69,-234.81 682.43,-230.35 663,-226.5 644.9,-222.92 625.06,-219.22 607.31,-216"/>
<polygon fill="midnightblue" stroke="midnightblue" points="721.78,-242.28 732.29,-240.97 723.25,-235.44 721.78,-242.28"/>
</g>
<!-- Node23 -->
<g id="node23" class="node">
<title>Node23</title>
<g id="a_node23"><a xlink:href="../../da/de2/namespaceaopp__deconv__tool_1_1psf__normalise.html#a3acaf8174cc008c8bf7029fce9df7be0" target="_top" xlink:title=" ">
<polygon fill="none" stroke="black" points="489,-147.5 489,-177.5 616,-177.5 616,-147.5 489,-147.5"/>
<text text-anchor="start" x="497" y="-165.5" font-family="Helvetica,sans-Serif" font-size="10.00">aopp_deconv_tool.psf</text>
<text text-anchor="middle" x="552.5" y="-154.5" font-family="Helvetica,sans-Serif" font-size="10.00">_normalise.parse_args</text>
</a>
</g>
</g>
<!-- Node1&#45;&gt;Node23 -->
<g id="edge22" class="edge">
<title>Node1&#45;&gt;Node23</title>
<path fill="none" stroke="midnightblue" d="M752.96,-235.32C730.9,-221.09 695.9,-200.17 663,-187.5 648.17,-181.79 631.68,-177.18 616.1,-173.55"/>
<polygon fill="midnightblue" stroke="midnightblue" points="751.3,-238.42 761.58,-240.97 755.14,-232.56 751.3,-238.42"/>
</g>
<!-- Node26 -->
<g id="node26" class="node">
<title>Node26</title>
<g id="a_node26"><a xlink:href="../../d5/d6e/namespaceaopp__deconv__tool_1_1spatial__rebin.html#a9ddf23f8c9b02acf470d16465d650281" target="_top" xlink:title=" ">
<polygon fill="none" stroke="black" points="482,-98.5 482,-128.5 623,-128.5 623,-98.5 482,-98.5"/>
<text text-anchor="start" x="490" y="-116.5" font-family="Helvetica,sans-Serif" font-size="10.00">aopp_deconv_tool.spatial</text>
<text text-anchor="middle" x="552.5" y="-105.5" font-family="Helvetica,sans-Serif" font-size="10.00">_rebin.parse_args</text>
</a>
</g>
</g>
<!-- Node1&#45;&gt;Node26 -->
<g id="edge25" class="edge">
<title>Node1&#45;&gt;Node26</title>
<path fill="none" stroke="midnightblue" d="M762.82,-232.67C744,-207.59 706.21,-162.32 663,-138.5 650.79,-131.77 636.86,-126.85 623.12,-123.25"/>
<polygon fill="midnightblue" stroke="midnightblue" points="760.13,-234.92 768.87,-240.92 765.78,-230.78 760.13,-234.92"/>
</g>
<!-- Node29 -->
<g id="node29" class="node">
<title>Node29</title>
<g id="a_node29"><a xlink:href="../../d1/d3b/namespaceaopp__deconv__tool_1_1spectral__rebin.html#af5488a9645335a937fcbea8b0efe6e91" target="_top" xlink:title=" ">
<polygon fill="none" stroke="black" points="479,-49.5 479,-79.5 626,-79.5 626,-49.5 479,-49.5"/>
<text text-anchor="start" x="487" y="-67.5" font-family="Helvetica,sans-Serif" font-size="10.00">aopp_deconv_tool.spectral</text>
<text text-anchor="middle" x="552.5" y="-56.5" font-family="Helvetica,sans-Serif" font-size="10.00">_rebin.parse_args</text>
</a>
</g>
</g>
<!-- Node1&#45;&gt;Node29 -->
<g id="edge28" class="edge">
<title>Node1&#45;&gt;Node29</title>
<path fill="none" stroke="midnightblue" d="M767.71,-231.3C752.8,-197.08 716.83,-125.75 663,-89.5 652,-82.09 639.12,-76.86 626.13,-73.16"/>
<polygon fill="midnightblue" stroke="midnightblue" points="764.55,-232.8 771.66,-240.65 770.99,-230.07 764.55,-232.8"/>
</g>
<!-- Node32 -->
<g id="node32" class="node">
<title>Node32</title>
<g id="a_node32"><a xlink:href="../../da/d5f/namespaceaopp__deconv__tool_1_1arguments.html#a1c98fc7e3d7869bf74b61831b4f15f4a" target="_top" xlink:title=" ">
<polygon fill="none" stroke="black" points="457,-0.5 457,-30.5 648,-30.5 648,-0.5 457,-0.5"/>
<text text-anchor="start" x="465" y="-18.5" font-family="Helvetica,sans-Serif" font-size="10.00">aopp_deconv_tool.arguments.parse</text>
<text text-anchor="middle" x="552.5" y="-7.5" font-family="Helvetica,sans-Serif" font-size="10.00">_args_of_dataclass</text>
</a>
</g>
</g>
<!-- Node1&#45;&gt;Node32 -->
<g id="edge31" class="edge">
<title>Node1&#45;&gt;Node32</title>
<path fill="none" stroke="midnightblue" d="M770.93,-230.74C760.07,-188.49 728.61,-89.21 663,-39.5 658.42,-36.03 653.45,-33.05 648.23,-30.48"/>
<polygon fill="midnightblue" stroke="midnightblue" points="767.57,-231.74 773.35,-240.62 774.37,-230.08 767.57,-231.74"/>
</g>
<!-- Node3 -->
<g id="node3" class="node">
<title>Node3</title>
<g id="a_node3"><a xlink:href="../../dd/d4d/namespaceaopp__deconv__tool_1_1artefact__detection.html#a948e1922d2a8e9057315178c05637934" target="_top" xlink:title=" ">
<polygon fill="none" stroke="black" points="237.5,-480.5 237.5,-510.5 383.5,-510.5 383.5,-480.5 237.5,-480.5"/>
<text text-anchor="start" x="245.5" y="-498.5" font-family="Helvetica,sans-Serif" font-size="10.00">aopp_deconv_tool.artefact</text>
<text text-anchor="middle" x="310.5" y="-487.5" font-family="Helvetica,sans-Serif" font-size="10.00">_detection.exec_with_args</text>
</a>
</g>
</g>
<!-- Node2&#45;&gt;Node3 -->
<g id="edge2" class="edge">
<title>Node2&#45;&gt;Node3</title>
<path fill="none" stroke="midnightblue" d="M469.41,-494.18C441.63,-494.42 410.84,-494.67 383.87,-494.9"/>
<polygon fill="midnightblue" stroke="midnightblue" points="469.52,-497.68 479.49,-494.1 469.46,-490.68 469.52,-497.68"/>
</g>
<!-- Node4 -->
<g id="node4" class="node">
<title>Node4</title>
<g id="a_node4"><a xlink:href="../../dd/d4d/namespaceaopp__deconv__tool_1_1artefact__detection.html#aaa1d90cc56b5fc1c1e8ce8b043465d95" target="_top" xlink:title=" ">
<polygon fill="none" stroke="black" points="16.5,-480.5 16.5,-510.5 162.5,-510.5 162.5,-480.5 16.5,-480.5"/>
<text text-anchor="start" x="24.5" y="-498.5" font-family="Helvetica,sans-Serif" font-size="10.00">aopp_deconv_tool.artefact</text>
<text text-anchor="middle" x="89.5" y="-487.5" font-family="Helvetica,sans-Serif" font-size="10.00">_detection.go</text>
</a>
</g>
</g>
<!-- Node3&#45;&gt;Node4 -->
<g id="edge3" class="edge">
<title>Node3&#45;&gt;Node4</title>
<path fill="none" stroke="midnightblue" d="M227.48,-495.5C206.15,-495.5 183.33,-495.5 162.56,-495.5"/>
<polygon fill="midnightblue" stroke="midnightblue" points="227.49,-499 237.49,-495.5 227.49,-492 227.49,-499"/>
</g>
<!-- Node6 -->
<g id="node6" class="node">
<title>Node6</title>
<g id="a_node6"><a xlink:href="../../d1/d07/namespaceaopp__deconv__tool_1_1create__bad__pixel__mask.html#a656853bce6dbc18e632700c0daaca43e" target="_top" xlink:title=" ">
<polygon fill="none" stroke="black" points="220.5,-431.5 220.5,-461.5 400.5,-461.5 400.5,-431.5 220.5,-431.5"/>
<text text-anchor="start" x="228.5" y="-449.5" font-family="Helvetica,sans-Serif" font-size="10.00">aopp_deconv_tool.create</text>
<text text-anchor="middle" x="310.5" y="-438.5" font-family="Helvetica,sans-Serif" font-size="10.00">_bad_pixel_mask.exec_with_args</text>
</a>
</g>
</g>
<!-- Node5&#45;&gt;Node6 -->
<g id="edge5" class="edge">
<title>Node5&#45;&gt;Node6</title>
<path fill="none" stroke="midnightblue" d="M463.09,-443.97C442.8,-444.31 421.22,-444.67 400.89,-445.01"/>
<polygon fill="midnightblue" stroke="midnightblue" points="463.31,-447.47 473.25,-443.8 463.19,-440.47 463.31,-447.47"/>
</g>
<!-- Node7 -->
<g id="node7" class="node">
<title>Node7</title>
<g id="a_node7"><a xlink:href="../../d1/d07/namespaceaopp__deconv__tool_1_1create__bad__pixel__mask.html#a8dd3e186d7fb2632f6636b4697448f7e" target="_top" xlink:title=" ">
<polygon fill="none" stroke="black" points="20,-431.5 20,-461.5 159,-461.5 159,-431.5 20,-431.5"/>
<text text-anchor="start" x="28" y="-449.5" font-family="Helvetica,sans-Serif" font-size="10.00">aopp_deconv_tool.create</text>
<text text-anchor="middle" x="89.5" y="-438.5" font-family="Helvetica,sans-Serif" font-size="10.00">_bad_pixel_mask.go</text>
</a>
</g>
</g>
<!-- Node6&#45;&gt;Node7 -->
<g id="edge6" class="edge">
<title>Node6&#45;&gt;Node7</title>
<path fill="none" stroke="midnightblue" d="M210.27,-446.5C192.95,-446.5 175.27,-446.5 159,-446.5"/>
<polygon fill="midnightblue" stroke="midnightblue" points="210.42,-450 220.42,-446.5 210.42,-443 210.42,-450"/>
</g>
<!-- Node9 -->
<g id="node9" class="node">
<title>Node9</title>
<g id="a_node9"><a xlink:href="../../d6/de2/namespaceaopp__deconv__tool_1_1deconvolve.html#aac9167e2fdab893a6897a6bed78f442b" target="_top" xlink:title=" ">
<polygon fill="none" stroke="black" points="215,-382.5 215,-412.5 406,-412.5 406,-382.5 215,-382.5"/>
<text text-anchor="start" x="223" y="-400.5" font-family="Helvetica,sans-Serif" font-size="10.00">aopp_deconv_tool.deconvolve.exec</text>
<text text-anchor="middle" x="310.5" y="-389.5" font-family="Helvetica,sans-Serif" font-size="10.00">_with_args</text>
</a>
</g>
</g>
<!-- Node8&#45;&gt;Node9 -->
<g id="edge8" class="edge">
<title>Node8&#45;&gt;Node9</title>
<path fill="none" stroke="midnightblue" d="M431.67,-396C423.12,-396.1 414.58,-396.21 406.2,-396.32"/>
<polygon fill="midnightblue" stroke="midnightblue" points="431.73,-399.5 441.68,-395.87 431.64,-392.5 431.73,-399.5"/>
</g>
<!-- Node10 -->
<g id="node10" class="node">
<title>Node10</title>
<g id="a_node10"><a xlink:href="../../d6/de2/namespaceaopp__deconv__tool_1_1deconvolve.html#af6bd8fd6e2c673853b1544085c2bf222" target="_top" xlink:title=" ">
<polygon fill="none" stroke="black" points="0,-388 0,-407 179,-407 179,-388 0,-388"/>
<text text-anchor="middle" x="89.5" y="-395" font-family="Helvetica,sans-Serif" font-size="10.00">aopp_deconv_tool.deconvolve.go</text>
</a>
</g>
</g>
<!-- Node9&#45;&gt;Node10 -->
<g id="edge9" class="edge">
<title>Node9&#45;&gt;Node10</title>
<path fill="none" stroke="midnightblue" d="M204.45,-397.5C196,-397.5 187.52,-397.5 179.21,-397.5"/>
<polygon fill="midnightblue" stroke="midnightblue" points="204.72,-401 214.72,-397.5 204.72,-394 204.72,-401"/>
</g>
<!-- Node12 -->
<g id="node12" class="node">
<title>Node12</title>
<g id="a_node12"><a xlink:href="../../dc/dc5/namespaceaopp__deconv__tool_1_1fit__psf__model.html#a628509727f69f8b5e5d81e2ae1a11110" target="_top" xlink:title=" ">
<polygon fill="none" stroke="black" points="234.5,-333.5 234.5,-363.5 386.5,-363.5 386.5,-333.5 234.5,-333.5"/>
<text text-anchor="start" x="242.5" y="-351.5" font-family="Helvetica,sans-Serif" font-size="10.00">aopp_deconv_tool.fit</text>
<text text-anchor="middle" x="310.5" y="-340.5" font-family="Helvetica,sans-Serif" font-size="10.00">_psf_model.exec_with_args</text>
</a>
</g>
</g>
<!-- Node11&#45;&gt;Node12 -->
<g id="edge11" class="edge">
<title>Node11&#45;&gt;Node12</title>
<path fill="none" stroke="midnightblue" d="M477.77,-348.5C448.83,-348.5 415.64,-348.5 386.57,-348.5"/>
<polygon fill="midnightblue" stroke="midnightblue" points="477.81,-352 487.81,-348.5 477.81,-345 477.81,-352"/>
</g>
<!-- Node13 -->
<g id="node13" class="node">
<title>Node13</title>
<g id="a_node13"><a xlink:href="../../dc/dc5/namespaceaopp__deconv__tool_1_1fit__psf__model.html#a88a4d3ec1a38814c98721c5144c3ecdd" target="_top" xlink:title=" ">
<polygon fill="none" stroke="black" points="30,-333.5 30,-363.5 149,-363.5 149,-333.5 30,-333.5"/>
<text text-anchor="start" x="38" y="-351.5" font-family="Helvetica,sans-Serif" font-size="10.00">aopp_deconv_tool.fit</text>
<text text-anchor="middle" x="89.5" y="-340.5" font-family="Helvetica,sans-Serif" font-size="10.00">_psf_model.go</text>
</a>
</g>
</g>
<!-- Node12&#45;&gt;Node13 -->
<g id="edge12" class="edge">
<title>Node12&#45;&gt;Node13</title>
<path fill="none" stroke="midnightblue" d="M224.19,-348.5C199.1,-348.5 172.24,-348.5 149.22,-348.5"/>
<polygon fill="midnightblue" stroke="midnightblue" points="224.44,-352 234.44,-348.5 224.44,-345 224.44,-352"/>
</g>
<!-- Node15 -->
<g id="node15" class="node">
<title>Node15</title>
<g id="a_node15"><a xlink:href="../../d4/d1f/namespaceaopp__deconv__tool_1_1fits__copy__wcs.html#af265f7c9b1d134b4e608c6a2909fb002" target="_top" xlink:title=" ">
<polygon fill="none" stroke="black" points="236.5,-284.5 236.5,-314.5 384.5,-314.5 384.5,-284.5 236.5,-284.5"/>
<text text-anchor="start" x="244.5" y="-302.5" font-family="Helvetica,sans-Serif" font-size="10.00">aopp_deconv_tool.fits</text>
<text text-anchor="middle" x="310.5" y="-291.5" font-family="Helvetica,sans-Serif" font-size="10.00">_copy_wcs.exec_with_args</text>
</a>
</g>
</g>
<!-- Node14&#45;&gt;Node15 -->
<g id="edge14" class="edge">
<title>Node14&#45;&gt;Node15</title>
<path fill="none" stroke="midnightblue" d="M479.31,-299.5C449.36,-299.5 414.66,-299.5 384.62,-299.5"/>
<polygon fill="midnightblue" stroke="midnightblue" points="479.69,-303 489.69,-299.5 479.69,-296 479.69,-303"/>
</g>
<!-- Node16 -->
<g id="node16" class="node">
<title>Node16</title>
<g id="a_node16"><a xlink:href="../../d4/d1f/namespaceaopp__deconv__tool_1_1fits__copy__wcs.html#a82034ade942267b34d143e6a96450416" target="_top" xlink:title=" ">
<polygon fill="none" stroke="black" points="27.5,-284.5 27.5,-314.5 151.5,-314.5 151.5,-284.5 27.5,-284.5"/>
<text text-anchor="start" x="35.5" y="-302.5" font-family="Helvetica,sans-Serif" font-size="10.00">aopp_deconv_tool.fits</text>
<text text-anchor="middle" x="89.5" y="-291.5" font-family="Helvetica,sans-Serif" font-size="10.00">_copy_wcs.go</text>
</a>
</g>
</g>
<!-- Node15&#45;&gt;Node16 -->
<g id="edge15" class="edge">
<title>Node15&#45;&gt;Node16</title>
<path fill="none" stroke="midnightblue" d="M226.15,-299.5C201.37,-299.5 174.69,-299.5 151.61,-299.5"/>
<polygon fill="midnightblue" stroke="midnightblue" points="226.27,-303 236.27,-299.5 226.27,-296 226.27,-303"/>
</g>
<!-- Node18 -->
<g id="node18" class="node">
<title>Node18</title>
<g id="a_node18"><a xlink:href="../../d6/d01/namespaceaopp__deconv__tool_1_1fits__slice.html#ad46012d4708f54f0a6bbde678d5f6b6b" target="_top" xlink:title=" ">
<polygon fill="none" stroke="black" points="248.5,-235.5 248.5,-265.5 372.5,-265.5 372.5,-235.5 248.5,-235.5"/>
<text text-anchor="start" x="256.5" y="-253.5" font-family="Helvetica,sans-Serif" font-size="10.00">aopp_deconv_tool.fits</text>
<text text-anchor="middle" x="310.5" y="-242.5" font-family="Helvetica,sans-Serif" font-size="10.00">_slice.exec_with_args</text>
</a>
</g>
</g>
<!-- Node17&#45;&gt;Node18 -->
<g id="edge17" class="edge">
<title>Node17&#45;&gt;Node18</title>
<path fill="none" stroke="midnightblue" d="M479.93,-250.5C445.75,-250.5 405.28,-250.5 372.57,-250.5"/>
<polygon fill="midnightblue" stroke="midnightblue" points="480.32,-254 490.32,-250.5 480.32,-247 480.32,-254"/>
</g>
<!-- Node19 -->
<g id="node19" class="node">
<title>Node19</title>
<g id="a_node19"><a xlink:href="../../d6/d01/namespaceaopp__deconv__tool_1_1fits__slice.html#a887d4865850a9f67f37d1ac7c3ffd052" target="_top" xlink:title=" ">
<polygon fill="none" stroke="black" points="27.5,-235.5 27.5,-265.5 151.5,-265.5 151.5,-235.5 27.5,-235.5"/>
<text text-anchor="start" x="35.5" y="-253.5" font-family="Helvetica,sans-Serif" font-size="10.00">aopp_deconv_tool.fits</text>
<text text-anchor="middle" x="89.5" y="-242.5" font-family="Helvetica,sans-Serif" font-size="10.00">_slice.go</text>
</a>
</g>
</g>
<!-- Node18&#45;&gt;Node19 -->
<g id="edge18" class="edge">
<title>Node18&#45;&gt;Node19</title>
<path fill="none" stroke="midnightblue" d="M238.37,-250.5C210.35,-250.5 178.5,-250.5 151.56,-250.5"/>
<polygon fill="midnightblue" stroke="midnightblue" points="238.5,-254 248.5,-250.5 238.5,-247 238.5,-254"/>
</g>
<!-- Node21 -->
<g id="node21" class="node">
<title>Node21</title>
<g id="a_node21"><a xlink:href="../../d5/ddb/namespaceaopp__deconv__tool_1_1interpolate.html#a48796d07587b5987c22e7e035354fab4" target="_top" xlink:title=" ">
<polygon fill="none" stroke="black" points="216.5,-186.5 216.5,-216.5 404.5,-216.5 404.5,-186.5 216.5,-186.5"/>
<text text-anchor="start" x="224.5" y="-204.5" font-family="Helvetica,sans-Serif" font-size="10.00">aopp_deconv_tool.interpolate.exec</text>
<text text-anchor="middle" x="310.5" y="-193.5" font-family="Helvetica,sans-Serif" font-size="10.00">_with_args</text>
</a>
</g>
</g>
<!-- Node20&#45;&gt;Node21 -->
<g id="edge20" class="edge">
<title>Node20&#45;&gt;Node21</title>
<path fill="none" stroke="midnightblue" d="M433.4,-204.04C423.76,-203.84 414.09,-203.64 404.67,-203.44"/>
<polygon fill="midnightblue" stroke="midnightblue" points="433.36,-207.54 443.44,-204.25 433.51,-200.54 433.36,-207.54"/>
</g>
<!-- Node22 -->
<g id="node22" class="node">
<title>Node22</title>
<g id="a_node22"><a xlink:href="../../d5/ddb/namespaceaopp__deconv__tool_1_1interpolate.html#a90751da03483cf837084f4aa70cdb1d4" target="_top" xlink:title=" ">
<polygon fill="none" stroke="black" points="1.5,-192 1.5,-211 177.5,-211 177.5,-192 1.5,-192"/>
<text text-anchor="middle" x="89.5" y="-199" font-family="Helvetica,sans-Serif" font-size="10.00">aopp_deconv_tool.interpolate.go</text>
</a>
</g>
</g>
<!-- Node21&#45;&gt;Node22 -->
<g id="edge21" class="edge">
<title>Node21&#45;&gt;Node22</title>
<path fill="none" stroke="midnightblue" d="M206.05,-201.5C196.57,-201.5 187.02,-201.5 177.7,-201.5"/>
<polygon fill="midnightblue" stroke="midnightblue" points="206.31,-205 216.31,-201.5 206.31,-198 206.31,-205"/>
</g>
<!-- Node24 -->
<g id="node24" class="node">
<title>Node24</title>
<g id="a_node24"><a xlink:href="../../da/de2/namespaceaopp__deconv__tool_1_1psf__normalise.html#a7e1eaea902a3d4a70555a4a6bc3d9bea" target="_top" xlink:title=" ">
<polygon fill="none" stroke="black" points="236,-137.5 236,-167.5 385,-167.5 385,-137.5 236,-137.5"/>
<text text-anchor="start" x="244" y="-155.5" font-family="Helvetica,sans-Serif" font-size="10.00">aopp_deconv_tool.psf</text>
<text text-anchor="middle" x="310.5" y="-144.5" font-family="Helvetica,sans-Serif" font-size="10.00">_normalise.exec_with_args</text>
</a>
</g>
</g>
<!-- Node23&#45;&gt;Node24 -->
<g id="edge23" class="edge">
<title>Node23&#45;&gt;Node24</title>
<path fill="none" stroke="midnightblue" d="M478.52,-159.46C449.01,-158.23 414.99,-156.81 385.38,-155.58"/>
<polygon fill="midnightblue" stroke="midnightblue" points="478.62,-162.97 488.76,-159.89 478.91,-155.97 478.62,-162.97"/>
</g>
<!-- Node25 -->
<g id="node25" class="node">
<title>Node25</title>
<g id="a_node25"><a xlink:href="../../da/de2/namespaceaopp__deconv__tool_1_1psf__normalise.html#a97a76320cb70504d32f75a398f4635a0" target="_top" xlink:title=" ">
<polygon fill="none" stroke="black" points="28,-137.5 28,-167.5 151,-167.5 151,-137.5 28,-137.5"/>
<text text-anchor="start" x="36" y="-155.5" font-family="Helvetica,sans-Serif" font-size="10.00">aopp_deconv_tool.psf</text>
<text text-anchor="middle" x="89.5" y="-144.5" font-family="Helvetica,sans-Serif" font-size="10.00">_normalise.go</text>
</a>
</g>
</g>
<!-- Node24&#45;&gt;Node25 -->
<g id="edge24" class="edge">
<title>Node24&#45;&gt;Node25</title>
<path fill="none" stroke="midnightblue" d="M225.81,-152.5C200.94,-152.5 174.19,-152.5 151.09,-152.5"/>
<polygon fill="midnightblue" stroke="midnightblue" points="225.97,-156 235.97,-152.5 225.97,-149 225.97,-156"/>
</g>
<!-- Node27 -->
<g id="node27" class="node">
<title>Node27</title>
<g id="a_node27"><a xlink:href="../../d5/d6e/namespaceaopp__deconv__tool_1_1spatial__rebin.html#a0ec3a82ccfcd0b851529424b83c7c6fb" target="_top" xlink:title=" ">
<polygon fill="none" stroke="black" points="240,-88.5 240,-118.5 381,-118.5 381,-88.5 240,-88.5"/>
<text text-anchor="start" x="248" y="-106.5" font-family="Helvetica,sans-Serif" font-size="10.00">aopp_deconv_tool.spatial</text>
<text text-anchor="middle" x="310.5" y="-95.5" font-family="Helvetica,sans-Serif" font-size="10.00">_rebin.exec_with_args</text>
</a>
</g>
</g>
<!-- Node26&#45;&gt;Node27 -->
<g id="edge26" class="edge">
<title>Node26&#45;&gt;Node27</title>
<path fill="none" stroke="midnightblue" d="M471.6,-110.17C442.42,-108.95 409.66,-107.59 381.41,-106.41"/>
<polygon fill="midnightblue" stroke="midnightblue" points="471.62,-113.67 481.76,-110.59 471.91,-106.68 471.62,-113.67"/>
</g>
<!-- Node28 -->
<g id="node28" class="node">
<title>Node28</title>
<g id="a_node28"><a xlink:href="../../d5/d6e/namespaceaopp__deconv__tool_1_1spatial__rebin.html#aab7cb0364ede9bd5a9ee5fe3eb6d534c" target="_top" xlink:title=" ">
<polygon fill="none" stroke="black" points="19,-88.5 19,-118.5 160,-118.5 160,-88.5 19,-88.5"/>
<text text-anchor="start" x="27" y="-106.5" font-family="Helvetica,sans-Serif" font-size="10.00">aopp_deconv_tool.spatial</text>
<text text-anchor="middle" x="89.5" y="-95.5" font-family="Helvetica,sans-Serif" font-size="10.00">_rebin.go</text>
</a>
</g>
</g>
<!-- Node27&#45;&gt;Node28 -->
<g id="edge27" class="edge">
<title>Node27&#45;&gt;Node28</title>
<path fill="none" stroke="midnightblue" d="M229.62,-103.5C206.9,-103.5 182.35,-103.5 160.29,-103.5"/>
<polygon fill="midnightblue" stroke="midnightblue" points="229.91,-107 239.91,-103.5 229.91,-100 229.91,-107"/>
</g>
<!-- Node30 -->
<g id="node30" class="node">
<title>Node30</title>
<g id="a_node30"><a xlink:href="../../d1/d3b/namespaceaopp__deconv__tool_1_1spectral__rebin.html#a16e0912cc6435aef773275c035b89969" target="_top" xlink:title=" ">
<polygon fill="none" stroke="black" points="237,-39.5 237,-69.5 384,-69.5 384,-39.5 237,-39.5"/>
<text text-anchor="start" x="245" y="-57.5" font-family="Helvetica,sans-Serif" font-size="10.00">aopp_deconv_tool.spectral</text>
<text text-anchor="middle" x="310.5" y="-46.5" font-family="Helvetica,sans-Serif" font-size="10.00">_rebin.exec_with_args</text>
</a>
</g>
</g>
<!-- Node29&#45;&gt;Node30 -->
<g id="edge29" class="edge">
<title>Node29&#45;&gt;Node30</title>
<path fill="none" stroke="midnightblue" d="M468.5,-61.04C441.12,-59.9 410.89,-58.64 384.33,-57.53"/>
<polygon fill="midnightblue" stroke="midnightblue" points="468.7,-64.55 478.84,-61.47 469,-57.56 468.7,-64.55"/>
</g>
<!-- Node31 -->
<g id="node31" class="node">
<title>Node31</title>
<g id="a_node31"><a xlink:href="../../d1/d3b/namespaceaopp__deconv__tool_1_1spectral__rebin.html#a805c759d8363bb2c9ffdec21bf5d19f7" target="_top" xlink:title=" ">
<polygon fill="none" stroke="black" points="16,-39.5 16,-69.5 163,-69.5 163,-39.5 16,-39.5"/>
<text text-anchor="start" x="24" y="-57.5" font-family="Helvetica,sans-Serif" font-size="10.00">aopp_deconv_tool.spectral</text>
<text text-anchor="middle" x="89.5" y="-46.5" font-family="Helvetica,sans-Serif" font-size="10.00">_rebin.go</text>
</a>
</g>
</g>
<!-- Node30&#45;&gt;Node31 -->
<g id="edge30" class="edge">
<title>Node30&#45;&gt;Node31</title>
<path fill="none" stroke="midnightblue" d="M226.76,-54.5C205.89,-54.5 183.64,-54.5 163.3,-54.5"/>
<polygon fill="midnightblue" stroke="midnightblue" points="226.88,-58 236.88,-54.5 226.88,-51 226.88,-58"/>
</g>
</g>
</svg>
        <g id="navigator" transform="translate(0 0)" fill="#404254">
                <rect fill="#f2f5e9" fill-opacity="0.5" stroke="#606060" stroke-width=".5" x="0" y="0" width="60" height="60"/>
                <use id="zoomplus" xlink:href="#zoomPlus" x="17" y="9" onmousedown="handleZoom(evt,'in')"/>
                <use id="zoomminus" xlink:href="#zoomMin" x="42" y="9" onmousedown="handleZoom(evt,'out')"/>
                <use id="reset" xlink:href="#resetDef" x="30" y="36" onmousedown="handleReset()"/>
                <g id="arrowUp" xlink:href="#dirArrow" transform="translate(30 24)" onmousedown="handlePan(0,-1)">
                  <use xlink:href="#rim" fill="#404040">
                        <set attributeName="fill" to="#808080" begin="arrowUp.mouseover" end="arrowUp.mouseout"/>
                  </use>
                  <path fill="none" stroke="white" stroke-width="1.5" d="M0,-3.0v7 M-2.5,-0.5L0,-3.0L2.5,-0.5"/>
                </g>
                <g id="arrowRight" xlink:href="#dirArrow" transform="rotate(90) translate(36 -43)" onmousedown="handlePan(1,0)">
                  <use xlink:href="#rim" fill="#404040">
                        <set attributeName="fill" to="#808080" begin="arrowRight.mouseover" end="arrowRight.mouseout"/>
                  </use>
                  <path fill="none" stroke="white" stroke-width="1.5" d="M0,-3.0v7 M-2.5,-0.5L0,-3.0L2.5,-0.5"/>
                </g>
                <g id="arrowDown" xlink:href="#dirArrow" transform="rotate(180) translate(-30 -48)" onmousedown="handlePan(0,1)">
                  <use xlink:href="#rim" fill="#404040">
                        <set attributeName="fill" to="#808080" begin="arrowDown.mouseover" end="arrowDown.mouseout"/>
                  </use>
                  <path fill="none" stroke="white" stroke-width="1.5" d="M0,-3.0v7 M-2.5,-0.5L0,-3.0L2.5,-0.5"/>
                </g>
                <g id="arrowLeft" xlink:href="#dirArrow" transform="rotate(270) translate(-36 17)" onmousedown="handlePan(-1,0)">
                  <use xlink:href="#rim" fill="#404040">
                        <set attributeName="fill" to="#808080" begin="arrowLeft.mouseover" end="arrowLeft.mouseout"/>
                  </use>
                  <path fill="none" stroke="white" stroke-width="1.5" d="M0,-3.0v7 M-2.5,-0.5L0,-3.0L2.5,-0.5"/>
                </g>
        </g>
        <svg viewBox="0 0 15 15" width="100%" height="30px" preserveAspectRatio="xMaxYMin meet">
         <g id="arrow_out" transform="scale(0.3 0.3)">
          <a xlink:href="namespaceaopp__deconv__tool_1_1text_ae13da0dd246571ccd435ba5f64904bfe_icgraph_org.svg" target="_base">
           <rect id="button" ry="5" rx="5" y="6" x="6" height="38" width="38"
                fill="#f2f5e9" fill-opacity="0.5" stroke="#606060" stroke-width="1.0"/>
           <path id="arrow"
             d="M 11.500037,31.436501 C 11.940474,20.09759 22.043105,11.32322 32.158766,21.979434 L 37.068811,17.246167 C 37.068811,17.246167 37.088388,32 37.088388,32 L 22.160133,31.978069 C 22.160133,31.978069 26.997745,27.140456 26.997745,27.140456 C 18.528582,18.264221 13.291696,25.230495 11.500037,31.436501 z"
             style="fill:#404040;"/>
          </a>
         </g>
        </svg>
</svg>
