<?xml version="1.0" encoding="UTF-8" standalone="no"?>
<!DOCTYPE svg PUBLIC "-//W3C//DTD SVG 1.1//EN"
 "http://www.w3.org/Graphics/SVG/1.1/DTD/svg11.dtd">
<!-- Generated by graphviz version 2.43.0 (0)
 -->
<!-- Title: aopp_deconv_tool.text.combine_lines_with_same_indent Pages: 1 -->
<!--zoomable 698 -->

<svg id="main" version="1.1" xmlns="http://www.w3.org/2000/svg" xmlns:xlink="http://www.w3.org/1999/xlink" xml:space="preserve" onload="init(evt)">
<style type="text/css"><![CDATA[
.node, .edge {opacity: 0.7;}
.node.selected, .edge.selected {opacity: 1;}
.edge:hover path { stroke: red; }
.edge:hover polygon { stroke: red; fill: red; }
]]></style>

<defs>
  <circle id="rim" cx="0" cy="0" r="7"/>
  <circle id="rim2" cx="0" cy="0" r="3.5"/>
  <g id="zoomPlus">
    <use xlink:href="#rim" fill="#404040"><set attributeName="fill" to="#808080" begin="zoomplus.mouseover" end="zoomplus.mouseout"/></use>
    <path d="M-4,0h8M0,-4v8" fill="none" stroke="white" stroke-width="1.5" pointer-events="none"/>
  </g>
  <g id="zoomMin">
    <use xlink:href="#rim" fill="#404040"><set attributeName="fill" to="#808080" begin="zoomminus.mouseover" end="zoomminus.mouseout"/></use>
    <path d="M-4,0h8" fill="none" stroke="white" stroke-width="1.5" pointer-events="none"/>
  </g>
  <g id="arrowUp" transform="translate(30 24)">
    <use xlink:href="#rim"/>
    <path pointer-events="none" fill="none" stroke="white" stroke-width="1.5" d="M0,-3.0v7 M-2.5,-0.5L0,-3.0L2.5,-0.5"/>
  </g>
  <g id="arrowRight" transform="rotate(90) translate(36 -43)">
    <use xlink:href="#rim"/>
    <path pointer-events="none" fill="none" stroke="white" stroke-width="1.5" d="M0,-3.0v7 M-2.5,-0.5L0,-3.0L2.5,-0.5"/>
  </g>
  <g id="arrowDown" transform="rotate(180) translate(-30 -48)">
    <use xlink:href="#rim"/>
    <path pointer-events="none" fill="none" stroke="white" stroke-width="1.5" d="M0,-3.0v7 M-2.5,-0.5L0,-3.0L2.5,-0.5"/>
  </g>
  <g id="arrowLeft" transform="rotate(270) translate(-36 17)">
    <use xlink:href="#rim"/>
    <path pointer-events="none" fill="none" stroke="white" stroke-width="1.5" d="M0,-3.0v7 M-2.5,-0.5L0,-3.0L2.5,-0.5"/>
  </g>
  <g id="resetDef">
    <use xlink:href="#rim2" fill="#404040"><set attributeName="fill" to="#808080" begin="reset.mouseover" end="reset.mouseout"/></use>
  </g>
</defs>
<script type="application/ecmascript">
var viewWidth = 1070;
var viewHeight = 698;
var sectionId = 'dynsection-0';
</script>
<script type="application/ecmascript" xlink:href="../../svg.min.js"/>
<svg id="graph" class="graph">
<g id="viewport">
<title>aopp_deconv_tool.text.combine_lines_with_same_indent</title>
<!-- Node1 -->
<g id="Node000001" class="node">
<title>Node1</title>
<g id="a_Node000001"><a xlink:title=" ">
<polygon fill="#999999" stroke="#666666" points="1062,-336 889,-336 889,-306 1062,-306 1062,-336"/>
<text text-anchor="start" x="897" y="-324" font-family="Helvetica,sans-Serif" font-size="10.00">aopp_deconv_tool.text.combine</text>
<text text-anchor="middle" x="975.5" y="-313" font-family="Helvetica,sans-Serif" font-size="10.00">_lines_with_same_indent</text>
</a>
</g>
</g>
<!-- Node2 -->
<g id="Node000002" class="node">
<title>Node2</title>
<g id="a_Node000002"><a xlink:href="../../d8/d5b/namespaceaopp__deconv__tool_1_1text.html#a75d81e58c71da89b56473e2616edd1c6" target="_top" xlink:title=" ">
<polygon fill="white" stroke="#666666" points="853,-330.5 698,-330.5 698,-311.5 853,-311.5 853,-330.5"/>
<text text-anchor="middle" x="775.5" y="-318.5" font-family="Helvetica,sans-Serif" font-size="10.00">aopp_deconv_tool.text.wrap</text>
</a>
</g>
</g>
<!-- Node1&#45;&gt;Node2 -->
<g id="edge1_Node000001_Node000002" class="edge">
<title>Node1&#45;&gt;Node2</title>
<g id="a_edge1_Node000001_Node000002"><a xlink:title=" ">
<path fill="none" stroke="#63b8ff" d="M878.8,-321C870.24,-321 861.66,-321 853.29,-321"/>
<polygon fill="#63b8ff" stroke="#63b8ff" points="878.81,-324.5 888.81,-321 878.81,-317.5 878.81,-324.5"/>
</a>
</g>
</g>
<!-- Node3 -->
<g id="Node000003" class="node">
<title>Node3</title>
<g id="a_Node000003"><a xlink:href="../../dd/d4d/namespaceaopp__deconv__tool_1_1artefact__detection.html#ac6e964b0643f1b3a2a1a8bfaf7afee81" target="_top" xlink:title=" ">
<polygon fill="white" stroke="#666666" points="624.5,-657 478.5,-657 478.5,-627 624.5,-627 624.5,-657"/>
<text text-anchor="start" x="486.5" y="-645" font-family="Helvetica,sans-Serif" font-size="10.00">aopp_deconv_tool.artefact</text>
<text text-anchor="middle" x="551.5" y="-634" font-family="Helvetica,sans-Serif" font-size="10.00">_detection.parse_args</text>
</a>
</g>
</g>
<!-- Node2&#45;&gt;Node3 -->
<g id="edge2_Node000002_Node000003" class="edge">
<title>Node2&#45;&gt;Node3</title>
<g id="a_edge2_Node000002_Node000003"><a xlink:title=" ">
<path fill="none" stroke="#63b8ff" d="M772.24,-340.5C765.38,-391.07 740.18,-527.7 662,-603 651.03,-613.57 637,-621.3 622.68,-626.94"/>
<polygon fill="#63b8ff" stroke="#63b8ff" points="775.72,-340.93 773.5,-330.57 768.77,-340.05 775.72,-340.93"/>
</a>
</g>
</g>
<!-- Node6 -->
<g id="Node000006" class="node">
<title>Node6</title>
<g id="a_Node000006"><a xlink:href="../../d1/d07/namespaceaopp__deconv__tool_1_1create__bad__pixel__mask.html#a3e8a19668379e07eef1c7843551a8b12" target="_top" xlink:title=" ">
<polygon fill="white" stroke="#666666" points="630,-594 473,-594 473,-564 630,-564 630,-594"/>
<text text-anchor="start" x="481" y="-582" font-family="Helvetica,sans-Serif" font-size="10.00">aopp_deconv_tool.create</text>
<text text-anchor="middle" x="551.5" y="-571" font-family="Helvetica,sans-Serif" font-size="10.00">_bad_pixel_mask.parse_args</text>
</a>
</g>
</g>
<!-- Node2&#45;&gt;Node6 -->
<g id="edge6_Node000002_Node000006" class="edge">
<title>Node2&#45;&gt;Node6</title>
<g id="a_edge6_Node000002_Node000006"><a xlink:title=" ">
<path fill="none" stroke="#63b8ff" d="M770.05,-340.38C759.22,-383.26 727.43,-486.8 662,-543 651.45,-552.06 638.56,-558.86 625.37,-563.95"/>
<polygon fill="#63b8ff" stroke="#63b8ff" points="773.46,-341.18 772.41,-330.63 766.66,-339.53 773.46,-341.18"/>
</a>
</g>
</g>
<!-- Node9 -->
<g id="Node000009" class="node">
<title>Node9</title>
<g id="a_Node000009"><a xlink:href="../../d6/de2/namespaceaopp__deconv__tool_1_1deconvolve.html#a77bf9473e3a685d91d062977d9596d12" target="_top" xlink:title=" ">
<polygon fill="white" stroke="#666666" points="662,-533.5 441,-533.5 441,-514.5 662,-514.5 662,-533.5"/>
<text text-anchor="middle" x="551.5" y="-521.5" font-family="Helvetica,sans-Serif" font-size="10.00">aopp_deconv_tool.deconvolve.parse_args</text>
</a>
</g>
</g>
<!-- Node2&#45;&gt;Node9 -->
<g id="edge10_Node000002_Node000009" class="edge">
<title>Node2&#45;&gt;Node9</title>
<g id="a_edge10_Node000002_Node000009"><a xlink:title=" ">
<path fill="none" stroke="#63b8ff" d="M766.49,-340.25C751.23,-374.67 714.72,-446.88 662,-487 644.67,-500.19 622.37,-508.84 602.41,-514.44"/>
<polygon fill="#63b8ff" stroke="#63b8ff" points="769.8,-341.43 770.54,-330.86 763.37,-338.66 769.8,-341.43"/>
</a>
</g>
</g>
<!-- Node12 -->
<g id="Node000012" class="node">
<title>Node12</title>
<g id="a_Node000012"><a xlink:href="../../dc/dd6/namespaceaopp__deconv__tool_1_1extract__sources.html#ab4d0e2b875998b043db4d32962dd3b07" target="_top" xlink:title=" ">
<polygon fill="white" stroke="#666666" points="623,-478 480,-478 480,-448 623,-448 623,-478"/>
<text text-anchor="start" x="488" y="-466" font-family="Helvetica,sans-Serif" font-size="10.00">aopp_deconv_tool.extract</text>
<text text-anchor="middle" x="551.5" y="-455" font-family="Helvetica,sans-Serif" font-size="10.00">_sources.parse_args</text>
</a>
</g>
</g>
<!-- Node2&#45;&gt;Node12 -->
<g id="edge13_Node000002_Node000012" class="edge">
<title>Node2&#45;&gt;Node12</title>
<g id="a_edge13_Node000002_Node000012"><a xlink:title=" ">
<path fill="none" stroke="#63b8ff" d="M760.09,-338.46C740.22,-361.5 702.27,-401.95 662,-426 646.67,-435.16 628.76,-442.42 611.92,-448"/>
<polygon fill="#63b8ff" stroke="#63b8ff" points="762.99,-340.44 766.79,-330.55 757.65,-335.92 762.99,-340.44"/>
</a>
</g>
</g>
<!-- Node15 -->
<g id="Node000015" class="node">
<title>Node15</title>
<g id="a_Node000015"><a xlink:href="../../dc/dc5/namespaceaopp__deconv__tool_1_1fit__psf__model.html#a87fd9094bb15e15471048a0ea76d6adc" target="_top" xlink:title=" ">
<polygon fill="white" stroke="#666666" points="616,-417 487,-417 487,-387 616,-387 616,-417"/>
<text text-anchor="start" x="495" y="-405" font-family="Helvetica,sans-Serif" font-size="10.00">aopp_deconv_tool.fit</text>
<text text-anchor="middle" x="551.5" y="-394" font-family="Helvetica,sans-Serif" font-size="10.00">_psf_model.parse_args</text>
</a>
</g>
</g>
<!-- Node2&#45;&gt;Node15 -->
<g id="edge17_Node000002_Node000015" class="edge">
<title>Node2&#45;&gt;Node15</title>
<g id="a_edge17_Node000002_Node000015"><a xlink:title=" ">
<path fill="none" stroke="#63b8ff" d="M744.71,-334.78C722.24,-344.91 690.52,-358.66 662,-369 644.18,-375.47 624.41,-381.7 606.63,-386.98"/>
<polygon fill="#63b8ff" stroke="#63b8ff" points="746.38,-337.86 754.04,-330.54 743.49,-331.49 746.38,-337.86"/>
</a>
</g>
</g>
<!-- Node18 -->
<g id="Node000018" class="node">
<title>Node18</title>
<g id="a_Node000018"><a xlink:href="../../d4/d1f/namespaceaopp__deconv__tool_1_1fits__copy__wcs.html#ab1e67f4c0dc029228ad94d9489864d66" target="_top" xlink:title=" ">
<polygon fill="white" stroke="#666666" points="614,-360 489,-360 489,-330 614,-330 614,-360"/>
<text text-anchor="start" x="497" y="-348" font-family="Helvetica,sans-Serif" font-size="10.00">aopp_deconv_tool.fits</text>
<text text-anchor="middle" x="551.5" y="-337" font-family="Helvetica,sans-Serif" font-size="10.00">_copy_wcs.parse_args</text>
</a>
</g>
</g>
<!-- Node2&#45;&gt;Node18 -->
<g id="edge21_Node000002_Node000018" class="edge">
<title>Node2&#45;&gt;Node18</title>
<g id="a_edge21_Node000002_Node000018"><a xlink:title=" ">
<path fill="none" stroke="#63b8ff" d="M687.74,-330.38C663.17,-333.04 636.94,-335.87 614.17,-338.33"/>
<polygon fill="#63b8ff" stroke="#63b8ff" points="688.22,-333.85 697.79,-329.29 687.47,-326.89 688.22,-333.85"/>
</a>
</g>
</g>
<!-- Node21 -->
<g id="Node000021" class="node">
<title>Node21</title>
<g id="a_Node000021"><a xlink:href="../../d6/d01/namespaceaopp__deconv__tool_1_1fits__slice.html#a07e531c1e706bd0a972662aab71208a8" target="_top" xlink:title=" ">
<polygon fill="white" stroke="#666666" points="613,-312 490,-312 490,-282 613,-282 613,-312"/>
<text text-anchor="start" x="498" y="-300" font-family="Helvetica,sans-Serif" font-size="10.00">aopp_deconv_tool.fits</text>
<text text-anchor="middle" x="551.5" y="-289" font-family="Helvetica,sans-Serif" font-size="10.00">_slice.parse_args</text>
</a>
</g>
</g>
<!-- Node2&#45;&gt;Node21 -->
<g id="edge25_Node000002_Node000021" class="edge">
<title>Node2&#45;&gt;Node21</title>
<g id="a_edge25_Node000002_Node000021"><a xlink:title=" ">
<path fill="none" stroke="#63b8ff" d="M687.6,-311.61C662.69,-308.91 636.07,-306.03 613.11,-303.55"/>
<polygon fill="#63b8ff" stroke="#63b8ff" points="687.47,-315.11 697.79,-312.71 688.22,-308.15 687.47,-315.11"/>
</a>
</g>
</g>
<!-- Node24 -->
<g id="Node000024" class="node">
<title>Node24</title>
<g id="a_Node000024"><a xlink:href="../../d5/ddb/namespaceaopp__deconv__tool_1_1interpolate.html#ade9f4feccf2c0678e202594ba7e5ab69" target="_top" xlink:title=" ">
<polygon fill="white" stroke="#666666" points="660.5,-263.5 442.5,-263.5 442.5,-244.5 660.5,-244.5 660.5,-263.5"/>
<text text-anchor="middle" x="551.5" y="-251.5" font-family="Helvetica,sans-Serif" font-size="10.00">aopp_deconv_tool.interpolate.parse_args</text>
</a>
</g>
</g>
<!-- Node2&#45;&gt;Node24 -->
<g id="edge29_Node000002_Node000024" class="edge">
<title>Node2&#45;&gt;Node24</title>
<g id="a_edge29_Node000002_Node000024"><a xlink:title=" ">
<path fill="none" stroke="#63b8ff" d="M746.66,-306.97C724.29,-296.24 691.8,-281.81 662,-273 649.14,-269.2 635.19,-266.06 621.7,-263.5"/>
<polygon fill="#63b8ff" stroke="#63b8ff" points="745.36,-310.24 755.89,-311.47 748.43,-303.94 745.36,-310.24"/>
</a>
</g>
</g>
<!-- Node27 -->
<g id="Node000027" class="node">
<title>Node27</title>
<g id="a_Node000027"><a xlink:href="../../da/de2/namespaceaopp__deconv__tool_1_1psf__normalise.html#ab24ef44aec15bef80051e2c36d2cb363" target="_top" xlink:title=" ">
<polygon fill="white" stroke="#666666" points="615,-226 488,-226 488,-196 615,-196 615,-226"/>
<text text-anchor="start" x="496" y="-214" font-family="Helvetica,sans-Serif" font-size="10.00">aopp_deconv_tool.psf</text>
<text text-anchor="middle" x="551.5" y="-203" font-family="Helvetica,sans-Serif" font-size="10.00">_normalise.parse_args</text>
</a>
</g>
</g>
<!-- Node2&#45;&gt;Node27 -->
<g id="edge33_Node000002_Node000027" class="edge">
<title>Node2&#45;&gt;Node27</title>
<g id="a_edge33_Node000002_Node000027"><a xlink:title=" ">
<path fill="none" stroke="#63b8ff" d="M757.53,-304.44C736.74,-285.1 699.62,-253.51 662,-236 647.42,-229.21 630.86,-224.2 615.12,-220.53"/>
<polygon fill="#63b8ff" stroke="#63b8ff" points="755.25,-307.1 764.91,-311.44 760.06,-302.02 755.25,-307.1"/>
</a>
</g>
</g>
<!-- Node30 -->
<g id="Node000030" class="node">
<title>Node30</title>
<g id="a_Node000030"><a xlink:href="../../d5/d6e/namespaceaopp__deconv__tool_1_1spatial__rebin.html#aaa2a0a3f151d03aa3993c67539285b7f" target="_top" xlink:title=" ">
<polygon fill="white" stroke="#666666" points="622,-178 481,-178 481,-148 622,-148 622,-178"/>
<text text-anchor="start" x="489" y="-166" font-family="Helvetica,sans-Serif" font-size="10.00">aopp_deconv_tool.spatial</text>
<text text-anchor="middle" x="551.5" y="-155" font-family="Helvetica,sans-Serif" font-size="10.00">_rebin.parse_args</text>
</a>
</g>
</g>
<!-- Node2&#45;&gt;Node30 -->
<g id="edge37_Node000002_Node000030" class="edge">
<title>Node2&#45;&gt;Node30</title>
<g id="a_edge37_Node000002_Node000030"><a xlink:title=" ">
<path fill="none" stroke="#63b8ff" d="M764.46,-302.55C747.45,-273.16 710.1,-216.1 662,-187 649.93,-179.7 635.91,-174.6 622.02,-171.06"/>
<polygon fill="#63b8ff" stroke="#63b8ff" points="761.47,-304.38 769.43,-311.37 767.57,-300.94 761.47,-304.38"/>
</a>
</g>
</g>
<!-- Node33 -->
<g id="Node000033" class="node">
<title>Node33</title>
<g id="a_Node000033"><a xlink:href="../../d1/d3b/namespaceaopp__deconv__tool_1_1spectral__rebin.html#ace5a0ce85a7cdb93418aa575a5aa336a" target="_top" xlink:title=" ">
<polygon fill="white" stroke="#666666" points="625,-130 478,-130 478,-100 625,-100 625,-130"/>
<text text-anchor="start" x="486" y="-118" font-family="Helvetica,sans-Serif" font-size="10.00">aopp_deconv_tool.spectral</text>
<text text-anchor="middle" x="551.5" y="-107" font-family="Helvetica,sans-Serif" font-size="10.00">_rebin.parse_args</text>
</a>
</g>
</g>
<!-- Node2&#45;&gt;Node33 -->
<g id="edge41_Node000002_Node000033" class="edge">
<title>Node2&#45;&gt;Node33</title>
<g id="a_edge41_Node000002_Node000033"><a xlink:title=" ">
<path fill="none" stroke="#63b8ff" d="M768.22,-301.4C755.04,-263.58 720.76,-180.63 662,-139 651.12,-131.29 638.23,-125.99 625.17,-122.36"/>
<polygon fill="#63b8ff" stroke="#63b8ff" points="765.01,-302.83 771.51,-311.19 771.64,-300.6 765.01,-302.83"/>
</a>
</g>
</g>
<!-- Node36 -->
<g id="Node000036" class="node">
<title>Node36</title>
<g id="a_Node000036"><a xlink:href="../../da/d5f/namespaceaopp__deconv__tool_1_1arguments.html#a1c98fc7e3d7869bf74b61831b4f15f4a" target="_top" xlink:title=" ">
<polygon fill="white" stroke="#666666" points="647,-82 456,-82 456,-52 647,-52 647,-82"/>
<text text-anchor="start" x="464" y="-70" font-family="Helvetica,sans-Serif" font-size="10.00">aopp_deconv_tool.arguments.parse</text>
<text text-anchor="middle" x="551.5" y="-59" font-family="Helvetica,sans-Serif" font-size="10.00">_args_of_dataclass</text>
</a>
</g>
</g>
<!-- Node2&#45;&gt;Node36 -->
<g id="edge45_Node000002_Node000036" class="edge">
<title>Node2&#45;&gt;Node36</title>
<g id="a_edge45_Node000002_Node000036"><a xlink:title=" ">
<path fill="none" stroke="#63b8ff" d="M770.88,-301.33C761.54,-256.47 732.25,-146.18 662,-91 657.41,-87.39 652.39,-84.3 647.11,-81.66"/>
<polygon fill="#63b8ff" stroke="#63b8ff" points="767.47,-302.12 772.84,-311.26 774.33,-300.77 767.47,-302.12"/>
</a>
</g>
</g>
<!-- Node4 -->
<g id="Node000004" class="node">
<title>Node4</title>
<g id="a_Node000004"><a xlink:href="../../dd/d4d/namespaceaopp__deconv__tool_1_1artefact__detection.html#a85e230af714e8a2e7a292c51f0ff39d6" target="_top" xlink:title=" ">
<polygon fill="white" stroke="#666666" points="383,-672 237,-672 237,-642 383,-642 383,-672"/>
<text text-anchor="start" x="245" y="-660" font-family="Helvetica,sans-Serif" font-size="10.00">aopp_deconv_tool.artefact</text>
<text text-anchor="middle" x="310" y="-649" font-family="Helvetica,sans-Serif" font-size="10.00">_detection.exec_with_args</text>
</a>
</g>
</g>
<!-- Node3&#45;&gt;Node4 -->
<g id="edge3_Node000003_Node000004" class="edge">
<title>Node3&#45;&gt;Node4</title>
<g id="a_edge3_Node000003_Node000004"><a xlink:title=" ">
<path fill="none" stroke="#63b8ff" d="M468.26,-647.15C440.56,-648.89 409.89,-650.81 383.03,-652.49"/>
<polygon fill="#63b8ff" stroke="#63b8ff" points="468.56,-650.64 478.32,-646.52 468.12,-643.65 468.56,-650.64"/>
</a>
</g>
</g>
<!-- Node4&#45;&gt;Node4 -->
<g id="edge4_Node000004_Node000004" class="edge">
<title>Node4&#45;&gt;Node4</title>
<g id="a_edge4_Node000004_Node000004"><a xlink:title=" ">
<path fill="none" stroke="#63b8ff" d="M348.51,-682.6C343.25,-686.97 330.41,-690 310,-690 275.62,-690 262.73,-681.41 271.33,-672.28"/>
<polygon fill="#63b8ff" stroke="#63b8ff" points="352.01,-682.33 348.67,-672.28 345.01,-682.22 352.01,-682.33"/>
</a>
</g>
</g>
<!-- Node5 -->
<g id="Node000005" class="node">
<title>Node5</title>
<g id="a_Node000005"><a xlink:href="../../dd/d4d/namespaceaopp__deconv__tool_1_1artefact__detection.html#a87f271a8aa2a92f2943244eb29d02ca6" target="_top" xlink:title=" ">
<polygon fill="white" stroke="#666666" points="162.5,-672 16.5,-672 16.5,-642 162.5,-642 162.5,-672"/>
<text text-anchor="start" x="24.5" y="-660" font-family="Helvetica,sans-Serif" font-size="10.00">aopp_deconv_tool.artefact</text>
<text text-anchor="middle" x="89.5" y="-649" font-family="Helvetica,sans-Serif" font-size="10.00">_detection.go</text>
</a>
</g>
</g>
<!-- Node4&#45;&gt;Node5 -->
<g id="edge5_Node000004_Node000005" class="edge">
<title>Node4&#45;&gt;Node5</title>
<g id="a_edge5_Node000004_Node000005"><a xlink:title=" ">
<path fill="none" stroke="#63b8ff" d="M226.64,-657C205.57,-657 183.08,-657 162.57,-657"/>
<polygon fill="#63b8ff" stroke="#63b8ff" points="226.85,-660.5 236.85,-657 226.85,-653.5 226.85,-660.5"/>
</a>
</g>
</g>
<!-- Node7 -->
<g id="Node000007" class="node">
<title>Node7</title>
<g id="a_Node000007"><a xlink:href="../../d1/d07/namespaceaopp__deconv__tool_1_1create__bad__pixel__mask.html#a0aa99e7152235361dccbaa951b53d825" target="_top" xlink:title=" ">
<polygon fill="white" stroke="#666666" points="399.5,-606 220.5,-606 220.5,-576 399.5,-576 399.5,-606"/>
<text text-anchor="start" x="228.5" y="-594" font-family="Helvetica,sans-Serif" font-size="10.00">aopp_deconv_tool.create</text>
<text text-anchor="middle" x="310" y="-583" font-family="Helvetica,sans-Serif" font-size="10.00">_bad_pixel_mask.exec_with_args</text>
</a>
</g>
</g>
<!-- Node6&#45;&gt;Node7 -->
<g id="edge7_Node000006_Node000007" class="edge">
<title>Node6&#45;&gt;Node7</title>
<g id="a_edge7_Node000006_Node000007"><a xlink:title=" ">
<path fill="none" stroke="#63b8ff" d="M462.47,-583.41C441.97,-584.44 420.12,-585.53 399.59,-586.56"/>
<polygon fill="#63b8ff" stroke="#63b8ff" points="462.93,-586.89 472.74,-582.9 462.58,-579.9 462.93,-586.89"/>
</a>
</g>
</g>
<!-- Node7&#45;&gt;Node7 -->
<g id="edge8_Node000007_Node000007" class="edge">
<title>Node7&#45;&gt;Node7</title>
<g id="a_edge8_Node000007_Node000007"><a xlink:title=" ">
<path fill="none" stroke="#63b8ff" d="M348.51,-616.6C343.25,-620.97 330.41,-624 310,-624 275.62,-624 262.73,-615.41 271.33,-606.28"/>
<polygon fill="#63b8ff" stroke="#63b8ff" points="352.01,-616.33 348.67,-606.28 345.01,-616.22 352.01,-616.33"/>
</a>
</g>
</g>
<!-- Node8 -->
<g id="Node000008" class="node">
<title>Node8</title>
<g id="a_Node000008"><a xlink:href="../../d1/d07/namespaceaopp__deconv__tool_1_1create__bad__pixel__mask.html#a5f856e8b1feca41397f810042306f140" target="_top" xlink:title=" ">
<polygon fill="white" stroke="#666666" points="159,-606 20,-606 20,-576 159,-576 159,-606"/>
<text text-anchor="start" x="28" y="-594" font-family="Helvetica,sans-Serif" font-size="10.00">aopp_deconv_tool.create</text>
<text text-anchor="middle" x="89.5" y="-583" font-family="Helvetica,sans-Serif" font-size="10.00">_bad_pixel_mask.go</text>
</a>
</g>
</g>
<!-- Node7&#45;&gt;Node8 -->
<g id="edge9_Node000007_Node000008" class="edge">
<title>Node7&#45;&gt;Node8</title>
<g id="a_edge9_Node000007_Node000008"><a xlink:title=" ">
<path fill="none" stroke="#63b8ff" d="M210.3,-591C192.99,-591 175.31,-591 159.05,-591"/>
<polygon fill="#63b8ff" stroke="#63b8ff" points="210.44,-594.5 220.44,-591 210.44,-587.5 210.44,-594.5"/>
</a>
</g>
</g>
<!-- Node10 -->
<g id="Node000010" class="node">
<title>Node10</title>
<g id="a_Node000010"><a xlink:href="../../d6/de2/namespaceaopp__deconv__tool_1_1deconvolve.html#ab47cfff58ba9849c13d9157e3f2cb893" target="_top" xlink:title=" ">
<polygon fill="white" stroke="#666666" points="405,-558 215,-558 215,-528 405,-528 405,-558"/>
<text text-anchor="start" x="223" y="-546" font-family="Helvetica,sans-Serif" font-size="10.00">aopp_deconv_tool.deconvolve.exec</text>
<text text-anchor="middle" x="310" y="-535" font-family="Helvetica,sans-Serif" font-size="10.00">_with_args</text>
</a>
</g>
</g>
<!-- Node9&#45;&gt;Node10 -->
<g id="edge11_Node000009_Node000010" class="edge">
<title>Node9&#45;&gt;Node10</title>
<g id="a_edge11_Node000009_Node000010"><a xlink:title=" ">
<path fill="none" stroke="#63b8ff" d="M430.81,-533.5C422.2,-534.18 413.58,-534.86 405.14,-535.53"/>
<polygon fill="#63b8ff" stroke="#63b8ff" points="431.22,-536.97 440.91,-532.69 430.67,-530 431.22,-536.97"/>
</a>
</g>
</g>
<!-- Node11 -->
<g id="Node000011" class="node">
<title>Node11</title>
<g id="a_Node000011"><a xlink:href="../../d6/de2/namespaceaopp__deconv__tool_1_1deconvolve.html#a202bd6f9934dee3e90074864830108dd" target="_top" xlink:title=" ">
<polygon fill="white" stroke="#666666" points="179,-552.5 0,-552.5 0,-533.5 179,-533.5 179,-552.5"/>
<text text-anchor="middle" x="89.5" y="-540.5" font-family="Helvetica,sans-Serif" font-size="10.00">aopp_deconv_tool.deconvolve.go</text>
</a>
</g>
</g>
<!-- Node10&#45;&gt;Node11 -->
<g id="edge12_Node000010_Node000011" class="edge">
<title>Node10&#45;&gt;Node11</title>
<g id="a_edge12_Node000010_Node000011"><a xlink:title=" ">
<path fill="none" stroke="#63b8ff" d="M204.49,-543C196.05,-543 187.57,-543 179.26,-543"/>
<polygon fill="#63b8ff" stroke="#63b8ff" points="204.75,-546.5 214.75,-543 204.75,-539.5 204.75,-546.5"/>
</a>
</g>
</g>
<!-- Node13 -->
<g id="Node000013" class="node">
<title>Node13</title>
<g id="a_Node000013"><a xlink:href="../../dc/dd6/namespaceaopp__deconv__tool_1_1extract__sources.html#ac11710297252459a547bc73b3a48d390" target="_top" xlink:title=" ">
<polygon fill="white" stroke="#666666" points="381.5,-492 238.5,-492 238.5,-462 381.5,-462 381.5,-492"/>
<text text-anchor="start" x="246.5" y="-480" font-family="Helvetica,sans-Serif" font-size="10.00">aopp_deconv_tool.extract</text>
<text text-anchor="middle" x="310" y="-469" font-family="Helvetica,sans-Serif" font-size="10.00">_sources.exec_with_args</text>
</a>
</g>
</g>
<!-- Node12&#45;&gt;Node13 -->
<g id="edge14_Node000012_Node000013" class="edge">
<title>Node12&#45;&gt;Node13</title>
<g id="a_edge14_Node000012_Node000013"><a xlink:title=" ">
<path fill="none" stroke="#63b8ff" d="M469.62,-467.73C441.17,-469.39 409.45,-471.25 381.89,-472.86"/>
<polygon fill="#63b8ff" stroke="#63b8ff" points="470.16,-471.2 479.94,-467.12 469.75,-464.21 470.16,-471.2"/>
</a>
</g>
</g>
<!-- Node13&#45;&gt;Node13 -->
<g id="edge15_Node000013_Node000013" class="edge">
<title>Node13&#45;&gt;Node13</title>
<g id="a_edge15_Node000013_Node000013"><a xlink:title=" ">
<path fill="none" stroke="#63b8ff" d="M348.51,-502.6C343.25,-506.97 330.41,-510 310,-510 275.62,-510 262.73,-501.41 271.33,-492.28"/>
<polygon fill="#63b8ff" stroke="#63b8ff" points="352.01,-502.33 348.67,-492.28 345.01,-502.22 352.01,-502.33"/>
</a>
</g>
</g>
<!-- Node14 -->
<g id="Node000014" class="node">
<title>Node14</title>
<g id="a_Node000014"><a xlink:href="../../dc/dd6/namespaceaopp__deconv__tool_1_1extract__sources.html#a8fb4f3b3f5c3db5a9ec1ab735c86715e" target="_top" xlink:title=" ">
<polygon fill="white" stroke="#666666" points="161,-492 18,-492 18,-462 161,-462 161,-492"/>
<text text-anchor="start" x="26" y="-480" font-family="Helvetica,sans-Serif" font-size="10.00">aopp_deconv_tool.extract</text>
<text text-anchor="middle" x="89.5" y="-469" font-family="Helvetica,sans-Serif" font-size="10.00">_sources.go</text>
</a>
</g>
</g>
<!-- Node13&#45;&gt;Node14 -->
<g id="edge16_Node000013_Node000014" class="edge">
<title>Node13&#45;&gt;Node14</title>
<g id="a_edge16_Node000013_Node000014"><a xlink:title=" ">
<path fill="none" stroke="#63b8ff" d="M228.08,-477C206.15,-477 182.59,-477 161.27,-477"/>
<polygon fill="#63b8ff" stroke="#63b8ff" points="228.36,-480.5 238.36,-477 228.36,-473.5 228.36,-480.5"/>
</a>
</g>
</g>
<!-- Node16 -->
<g id="Node000016" class="node">
<title>Node16</title>
<g id="a_Node000016"><a xlink:href="../../dc/dc5/namespaceaopp__deconv__tool_1_1fit__psf__model.html#a2c0d0ac24ff97340d04ba31dcb4b9c5f" target="_top" xlink:title=" ">
<polygon fill="white" stroke="#666666" points="385.5,-426 234.5,-426 234.5,-396 385.5,-396 385.5,-426"/>
<text text-anchor="start" x="242.5" y="-414" font-family="Helvetica,sans-Serif" font-size="10.00">aopp_deconv_tool.fit</text>
<text text-anchor="middle" x="310" y="-403" font-family="Helvetica,sans-Serif" font-size="10.00">_psf_model.exec_with_args</text>
</a>
</g>
</g>
<!-- Node15&#45;&gt;Node16 -->
<g id="edge18_Node000015_Node000016" class="edge">
<title>Node15&#45;&gt;Node16</title>
<g id="a_edge18_Node000015_Node000016"><a xlink:title=" ">
<path fill="none" stroke="#63b8ff" d="M476.92,-404.76C448.04,-405.85 414.93,-407.09 385.92,-408.18"/>
<polygon fill="#63b8ff" stroke="#63b8ff" points="477.09,-408.26 486.95,-404.39 476.82,-401.27 477.09,-408.26"/>
</a>
</g>
</g>
<!-- Node16&#45;&gt;Node16 -->
<g id="edge19_Node000016_Node000016" class="edge">
<title>Node16&#45;&gt;Node16</title>
<g id="a_edge19_Node000016_Node000016"><a xlink:title=" ">
<path fill="none" stroke="#63b8ff" d="M348.51,-436.6C343.25,-440.97 330.41,-444 310,-444 275.62,-444 262.73,-435.41 271.33,-426.28"/>
<polygon fill="#63b8ff" stroke="#63b8ff" points="352.01,-436.33 348.67,-426.28 345.01,-436.22 352.01,-436.33"/>
</a>
</g>
</g>
<!-- Node17 -->
<g id="Node000017" class="node">
<title>Node17</title>
<g id="a_Node000017"><a xlink:href="../../dc/dc5/namespaceaopp__deconv__tool_1_1fit__psf__model.html#aa00a098e5079cb102034a26b8a2834ef" target="_top" xlink:title=" ">
<polygon fill="white" stroke="#666666" points="148.5,-426 30.5,-426 30.5,-396 148.5,-396 148.5,-426"/>
<text text-anchor="start" x="38.5" y="-414" font-family="Helvetica,sans-Serif" font-size="10.00">aopp_deconv_tool.fit</text>
<text text-anchor="middle" x="89.5" y="-403" font-family="Helvetica,sans-Serif" font-size="10.00">_psf_model.go</text>
</a>
</g>
</g>
<!-- Node16&#45;&gt;Node17 -->
<g id="edge20_Node000016_Node000017" class="edge">
<title>Node16&#45;&gt;Node17</title>
<g id="a_edge20_Node000016_Node000017"><a xlink:title=" ">
<path fill="none" stroke="#63b8ff" d="M224.09,-411C198.81,-411 171.69,-411 148.55,-411"/>
<polygon fill="#63b8ff" stroke="#63b8ff" points="224.42,-414.5 234.42,-411 224.42,-407.5 224.42,-414.5"/>
</a>
</g>
</g>
<!-- Node19 -->
<g id="Node000019" class="node">
<title>Node19</title>
<g id="a_Node000019"><a xlink:href="../../d4/d1f/namespaceaopp__deconv__tool_1_1fits__copy__wcs.html#a3631900195a5cf3f0c325d7d87a28cef" target="_top" xlink:title=" ">
<polygon fill="white" stroke="#666666" points="383.5,-360 236.5,-360 236.5,-330 383.5,-330 383.5,-360"/>
<text text-anchor="start" x="244.5" y="-348" font-family="Helvetica,sans-Serif" font-size="10.00">aopp_deconv_tool.fits</text>
<text text-anchor="middle" x="310" y="-337" font-family="Helvetica,sans-Serif" font-size="10.00">_copy_wcs.exec_with_args</text>
</a>
</g>
</g>
<!-- Node18&#45;&gt;Node19 -->
<g id="edge22_Node000018_Node000019" class="edge">
<title>Node18&#45;&gt;Node19</title>
<g id="a_edge22_Node000018_Node000019"><a xlink:title=" ">
<path fill="none" stroke="#63b8ff" d="M478.81,-345C448.7,-345 413.73,-345 383.53,-345"/>
<polygon fill="#63b8ff" stroke="#63b8ff" points="478.82,-348.5 488.82,-345 478.82,-341.5 478.82,-348.5"/>
</a>
</g>
</g>
<!-- Node19&#45;&gt;Node19 -->
<g id="edge23_Node000019_Node000019" class="edge">
<title>Node19&#45;&gt;Node19</title>
<g id="a_edge23_Node000019_Node000019"><a xlink:title=" ">
<path fill="none" stroke="#63b8ff" d="M348.51,-370.6C343.25,-374.97 330.41,-378 310,-378 275.62,-378 262.73,-369.41 271.33,-360.28"/>
<polygon fill="#63b8ff" stroke="#63b8ff" points="352.01,-370.33 348.67,-360.28 345.01,-370.22 352.01,-370.33"/>
</a>
</g>
</g>
<!-- Node20 -->
<g id="Node000020" class="node">
<title>Node20</title>
<g id="a_Node000020"><a xlink:href="../../d4/d1f/namespaceaopp__deconv__tool_1_1fits__copy__wcs.html#a5f4a23414edd7fdb1073babc32fb823f" target="_top" xlink:title=" ">
<polygon fill="white" stroke="#666666" points="151,-360 28,-360 28,-330 151,-330 151,-360"/>
<text text-anchor="start" x="36" y="-348" font-family="Helvetica,sans-Serif" font-size="10.00">aopp_deconv_tool.fits</text>
<text text-anchor="middle" x="89.5" y="-337" font-family="Helvetica,sans-Serif" font-size="10.00">_copy_wcs.go</text>
</a>
</g>
</g>
<!-- Node19&#45;&gt;Node20 -->
<g id="edge24_Node000019_Node000020" class="edge">
<title>Node19&#45;&gt;Node20</title>
<g id="a_edge24_Node000019_Node000020"><a xlink:title=" ">
<path fill="none" stroke="#63b8ff" d="M226.09,-345C201.23,-345 174.43,-345 151.28,-345"/>
<polygon fill="#63b8ff" stroke="#63b8ff" points="226.24,-348.5 236.24,-345 226.24,-341.5 226.24,-348.5"/>
</a>
</g>
</g>
<!-- Node22 -->
<g id="Node000022" class="node">
<title>Node22</title>
<g id="a_Node000022"><a xlink:href="../../d6/d01/namespaceaopp__deconv__tool_1_1fits__slice.html#a22c48d7ced086dab4c8658964fc83178" target="_top" xlink:title=" ">
<polygon fill="white" stroke="#666666" points="371.5,-294 248.5,-294 248.5,-264 371.5,-264 371.5,-294"/>
<text text-anchor="start" x="256.5" y="-282" font-family="Helvetica,sans-Serif" font-size="10.00">aopp_deconv_tool.fits</text>
<text text-anchor="middle" x="310" y="-271" font-family="Helvetica,sans-Serif" font-size="10.00">_slice.exec_with_args</text>
</a>
</g>
</g>
<!-- Node21&#45;&gt;Node22 -->
<g id="edge26_Node000021_Node000022" class="edge">
<title>Node21&#45;&gt;Node22</title>
<g id="a_edge26_Node000021_Node000022"><a xlink:title=" ">
<path fill="none" stroke="#63b8ff" d="M479.34,-291.65C445.09,-289.08 404.45,-286.02 371.68,-283.56"/>
<polygon fill="#63b8ff" stroke="#63b8ff" points="479.52,-295.18 489.75,-292.43 480.04,-288.19 479.52,-295.18"/>
</a>
</g>
</g>
<!-- Node22&#45;&gt;Node22 -->
<g id="edge27_Node000022_Node000022" class="edge">
<title>Node22&#45;&gt;Node22</title>
<g id="a_edge27_Node000022_Node000022"><a xlink:title=" ">
<path fill="none" stroke="#63b8ff" d="M348.51,-304.6C343.25,-308.97 330.41,-312 310,-312 275.62,-312 262.73,-303.41 271.33,-294.28"/>
<polygon fill="#63b8ff" stroke="#63b8ff" points="352.01,-304.33 348.67,-294.28 345.01,-304.22 352.01,-304.33"/>
</a>
</g>
</g>
<!-- Node23 -->
<g id="Node000023" class="node">
<title>Node23</title>
<g id="a_Node000023"><a xlink:href="../../d6/d01/namespaceaopp__deconv__tool_1_1fits__slice.html#a69728c3bf8ba785d1debb85a0e2ba7cb" target="_top" xlink:title=" ">
<polygon fill="white" stroke="#666666" points="151,-294 28,-294 28,-264 151,-264 151,-294"/>
<text text-anchor="start" x="36" y="-282" font-family="Helvetica,sans-Serif" font-size="10.00">aopp_deconv_tool.fits</text>
<text text-anchor="middle" x="89.5" y="-271" font-family="Helvetica,sans-Serif" font-size="10.00">_slice.go</text>
</a>
</g>
</g>
<!-- Node22&#45;&gt;Node23 -->
<g id="edge28_Node000022_Node000023" class="edge">
<title>Node22&#45;&gt;Node23</title>
<g id="a_edge28_Node000022_Node000023"><a xlink:title=" ">
<path fill="none" stroke="#63b8ff" d="M238.27,-279C210.18,-279 178.2,-279 151.19,-279"/>
<polygon fill="#63b8ff" stroke="#63b8ff" points="238.43,-282.5 248.43,-279 238.43,-275.5 238.43,-282.5"/>
</a>
</g>
</g>
<!-- Node25 -->
<g id="Node000025" class="node">
<title>Node25</title>
<g id="a_Node000025"><a xlink:href="../../d5/ddb/namespaceaopp__deconv__tool_1_1interpolate.html#a7bda07803ba191b5ff2f40faf888e13a" target="_top" xlink:title=" ">
<polygon fill="white" stroke="#666666" points="403.5,-228 216.5,-228 216.5,-198 403.5,-198 403.5,-228"/>
<text text-anchor="start" x="224.5" y="-216" font-family="Helvetica,sans-Serif" font-size="10.00">aopp_deconv_tool.interpolate.exec</text>
<text text-anchor="middle" x="310" y="-205" font-family="Helvetica,sans-Serif" font-size="10.00">_with_args</text>
</a>
</g>
</g>
<!-- Node24&#45;&gt;Node25 -->
<g id="edge30_Node000024_Node000025" class="edge">
<title>Node24&#45;&gt;Node25</title>
<g id="a_edge30_Node000024_Node000025"><a xlink:title=" ">
<path fill="none" stroke="#63b8ff" d="M485.03,-242.79C458.52,-238.25 427.51,-232.95 399.08,-228.08"/>
<polygon fill="#63b8ff" stroke="#63b8ff" points="484.5,-246.25 494.95,-244.49 485.69,-239.35 484.5,-246.25"/>
</a>
</g>
</g>
<!-- Node25&#45;&gt;Node25 -->
<g id="edge31_Node000025_Node000025" class="edge">
<title>Node25&#45;&gt;Node25</title>
<g id="a_edge31_Node000025_Node000025"><a xlink:title=" ">
<path fill="none" stroke="#63b8ff" d="M348.51,-238.6C343.25,-242.97 330.41,-246 310,-246 275.62,-246 262.73,-237.41 271.33,-228.28"/>
<polygon fill="#63b8ff" stroke="#63b8ff" points="352.01,-238.33 348.67,-228.28 345.01,-238.22 352.01,-238.33"/>
</a>
</g>
</g>
<!-- Node26 -->
<g id="Node000026" class="node">
<title>Node26</title>
<g id="a_Node000026"><a xlink:href="../../d5/ddb/namespaceaopp__deconv__tool_1_1interpolate.html#af9d74de473c70ee0b7ec7a720c1b3088" target="_top" xlink:title=" ">
<polygon fill="white" stroke="#666666" points="177.5,-222.5 1.5,-222.5 1.5,-203.5 177.5,-203.5 177.5,-222.5"/>
<text text-anchor="middle" x="89.5" y="-210.5" font-family="Helvetica,sans-Serif" font-size="10.00">aopp_deconv_tool.interpolate.go</text>
</a>
</g>
</g>
<!-- Node25&#45;&gt;Node26 -->
<g id="edge32_Node000025_Node000026" class="edge">
<title>Node25&#45;&gt;Node26</title>
<g id="a_edge32_Node000025_Node000026"><a xlink:title=" ">
<path fill="none" stroke="#63b8ff" d="M206.09,-213C196.61,-213 187.07,-213 177.74,-213"/>
<polygon fill="#63b8ff" stroke="#63b8ff" points="206.34,-216.5 216.34,-213 206.34,-209.5 206.34,-216.5"/>
</a>
</g>
</g>
<!-- Node28 -->
<g id="Node000028" class="node">
<title>Node28</title>
<g id="a_Node000028"><a xlink:href="../../da/de2/namespaceaopp__deconv__tool_1_1psf__normalise.html#ad72b9decade1f302c0220c3995f9b699" target="_top" xlink:title=" ">
<polygon fill="white" stroke="#666666" points="384.5,-162 235.5,-162 235.5,-132 384.5,-132 384.5,-162"/>
<text text-anchor="start" x="243.5" y="-150" font-family="Helvetica,sans-Serif" font-size="10.00">aopp_deconv_tool.psf</text>
<text text-anchor="middle" x="310" y="-139" font-family="Helvetica,sans-Serif" font-size="10.00">_normalise.exec_with_args</text>
</a>
</g>
</g>
<!-- Node27&#45;&gt;Node28 -->
<g id="edge34_Node000027_Node000028" class="edge">
<title>Node27&#45;&gt;Node28</title>
<g id="a_edge34_Node000027_Node000028"><a xlink:title=" ">
<path fill="none" stroke="#63b8ff" d="M477.92,-195.98C465.56,-193.17 452.88,-190.12 441,-187 412.8,-179.58 381.55,-170.01 356.76,-162.09"/>
<polygon fill="#63b8ff" stroke="#63b8ff" points="477.22,-199.41 487.75,-198.18 478.76,-192.58 477.22,-199.41"/>
</a>
</g>
</g>
<!-- Node28&#45;&gt;Node28 -->
<g id="edge35_Node000028_Node000028" class="edge">
<title>Node28&#45;&gt;Node28</title>
<g id="a_edge35_Node000028_Node000028"><a xlink:title=" ">
<path fill="none" stroke="#63b8ff" d="M348.51,-172.6C343.25,-176.97 330.41,-180 310,-180 275.62,-180 262.73,-171.41 271.33,-162.28"/>
<polygon fill="#63b8ff" stroke="#63b8ff" points="352.01,-172.33 348.67,-162.28 345.01,-172.22 352.01,-172.33"/>
</a>
</g>
</g>
<!-- Node29 -->
<g id="Node000029" class="node">
<title>Node29</title>
<g id="a_Node000029"><a xlink:href="../../da/de2/namespaceaopp__deconv__tool_1_1psf__normalise.html#a7bf25e1913f827299d046172625dd4f5" target="_top" xlink:title=" ">
<polygon fill="white" stroke="#666666" points="151,-162 28,-162 28,-132 151,-132 151,-162"/>
<text text-anchor="start" x="36" y="-150" font-family="Helvetica,sans-Serif" font-size="10.00">aopp_deconv_tool.psf</text>
<text text-anchor="middle" x="89.5" y="-139" font-family="Helvetica,sans-Serif" font-size="10.00">_normalise.go</text>
</a>
</g>
</g>
<!-- Node28&#45;&gt;Node29 -->
<g id="edge36_Node000028_Node000029" class="edge">
<title>Node28&#45;&gt;Node29</title>
<g id="a_edge36_Node000028_Node000029"><a xlink:title=" ">
<path fill="none" stroke="#63b8ff" d="M225.25,-147C200.58,-147 174.06,-147 151.14,-147"/>
<polygon fill="#63b8ff" stroke="#63b8ff" points="225.33,-150.5 235.33,-147 225.33,-143.5 225.33,-150.5"/>
</a>
</g>
</g>
<!-- Node31 -->
<g id="Node000031" class="node">
<title>Node31</title>
<g id="a_Node000031"><a xlink:href="../../d5/d6e/namespaceaopp__deconv__tool_1_1spatial__rebin.html#a4f87cd8439a0b6864d66422bed2b6fe2" target="_top" xlink:title=" ">
<polygon fill="white" stroke="#666666" points="380.5,-96 239.5,-96 239.5,-66 380.5,-66 380.5,-96"/>
<text text-anchor="start" x="247.5" y="-84" font-family="Helvetica,sans-Serif" font-size="10.00">aopp_deconv_tool.spatial</text>
<text text-anchor="middle" x="310" y="-73" font-family="Helvetica,sans-Serif" font-size="10.00">_rebin.exec_with_args</text>
</a>
</g>
</g>
<!-- Node30&#45;&gt;Node31 -->
<g id="edge38_Node000030_Node000031" class="edge">
<title>Node30&#45;&gt;Node31</title>
<g id="a_edge38_Node000030_Node000031"><a xlink:title=" ">
<path fill="none" stroke="#63b8ff" d="M471.2,-147.63C460.95,-145.06 450.67,-142.18 441,-139 440.37,-138.79 382.92,-113.14 344.61,-96.02"/>
<polygon fill="#63b8ff" stroke="#63b8ff" points="470.45,-151.05 481,-150.01 472.1,-144.25 470.45,-151.05"/>
</a>
</g>
</g>
<!-- Node31&#45;&gt;Node31 -->
<g id="edge39_Node000031_Node000031" class="edge">
<title>Node31&#45;&gt;Node31</title>
<g id="a_edge39_Node000031_Node000031"><a xlink:title=" ">
<path fill="none" stroke="#63b8ff" d="M348.51,-106.6C343.25,-110.97 330.41,-114 310,-114 275.62,-114 262.73,-105.41 271.33,-96.28"/>
<polygon fill="#63b8ff" stroke="#63b8ff" points="352.01,-106.33 348.67,-96.28 345.01,-106.22 352.01,-106.33"/>
</a>
</g>
</g>
<!-- Node32 -->
<g id="Node000032" class="node">
<title>Node32</title>
<g id="a_Node000032"><a xlink:href="../../d5/d6e/namespaceaopp__deconv__tool_1_1spatial__rebin.html#a2b2adb8d3e917f0f1e2a1a15a893572a" target="_top" xlink:title=" ">
<polygon fill="white" stroke="#666666" points="160,-96 19,-96 19,-66 160,-66 160,-96"/>
<text text-anchor="start" x="27" y="-84" font-family="Helvetica,sans-Serif" font-size="10.00">aopp_deconv_tool.spatial</text>
<text text-anchor="middle" x="89.5" y="-73" font-family="Helvetica,sans-Serif" font-size="10.00">_rebin.go</text>
</a>
</g>
</g>
<!-- Node31&#45;&gt;Node32 -->
<g id="edge40_Node000031_Node000032" class="edge">
<title>Node31&#45;&gt;Node32</title>
<g id="a_edge40_Node000031_Node000032"><a xlink:title=" ">
<path fill="none" stroke="#63b8ff" d="M229.06,-81C206.53,-81 182.21,-81 160.32,-81"/>
<polygon fill="#63b8ff" stroke="#63b8ff" points="229.26,-84.5 239.26,-81 229.26,-77.5 229.26,-84.5"/>
</a>
</g>
</g>
<!-- Node34 -->
<g id="Node000034" class="node">
<title>Node34</title>
<g id="a_Node000034"><a xlink:href="../../d1/d3b/namespaceaopp__deconv__tool_1_1spectral__rebin.html#aa9bdd6efd3db7b645aaefcdbad5e2842" target="_top" xlink:title=" ">
<polygon fill="white" stroke="#666666" points="383.5,-30 236.5,-30 236.5,0 383.5,0 383.5,-30"/>
<text text-anchor="start" x="244.5" y="-18" font-family="Helvetica,sans-Serif" font-size="10.00">aopp_deconv_tool.spectral</text>
<text text-anchor="middle" x="310" y="-7" font-family="Helvetica,sans-Serif" font-size="10.00">_rebin.exec_with_args</text>
</a>
</g>
</g>
<!-- Node33&#45;&gt;Node34 -->
<g id="edge42_Node000033_Node000034" class="edge">
<title>Node33&#45;&gt;Node34</title>
<g id="a_edge42_Node000033_Node000034"><a xlink:title=" ">
<path fill="none" stroke="#63b8ff" d="M468.03,-102.04C458.64,-99.08 449.43,-95.46 441,-91 421.54,-80.71 423.31,-69.22 405,-57 388.94,-46.28 369.7,-37.13 352.83,-30.14"/>
<polygon fill="#63b8ff" stroke="#63b8ff" points="467.27,-105.46 477.85,-104.88 469.21,-98.74 467.27,-105.46"/>
</a>
</g>
</g>
<!-- Node34&#45;&gt;Node34 -->
<g id="edge43_Node000034_Node000034" class="edge">
<title>Node34&#45;&gt;Node34</title>
<g id="a_edge43_Node000034_Node000034"><a xlink:title=" ">
<path fill="none" stroke="#63b8ff" d="M348.51,-40.6C343.25,-44.97 330.41,-48 310,-48 275.62,-48 262.73,-39.41 271.33,-30.28"/>
<polygon fill="#63b8ff" stroke="#63b8ff" points="352.01,-40.33 348.67,-30.28 345.01,-40.22 352.01,-40.33"/>
</a>
</g>
</g>
<!-- Node35 -->
<g id="Node000035" class="node">
<title>Node35</title>
<g id="a_Node000035"><a xlink:href="../../d1/d3b/namespaceaopp__deconv__tool_1_1spectral__rebin.html#a049527339bf134575025af61a86c25d6" target="_top" xlink:title=" ">
<polygon fill="white" stroke="#666666" points="163,-30 16,-30 16,0 163,0 163,-30"/>
<text text-anchor="start" x="24" y="-18" font-family="Helvetica,sans-Serif" font-size="10.00">aopp_deconv_tool.spectral</text>
<text text-anchor="middle" x="89.5" y="-7" font-family="Helvetica,sans-Serif" font-size="10.00">_rebin.go</text>
</a>
</g>
</g>
<!-- Node34&#45;&gt;Node35 -->
<g id="edge44_Node000034_Node000035" class="edge">
<title>Node34&#45;&gt;Node35</title>
<g id="a_edge44_Node000034_Node000035"><a xlink:title=" ">
<path fill="none" stroke="#63b8ff" d="M226.21,-15C205.52,-15 183.48,-15 163.31,-15"/>
<polygon fill="#63b8ff" stroke="#63b8ff" points="226.24,-18.5 236.24,-15 226.24,-11.5 226.24,-18.5"/>
</a>
</g>
</g>
</g>
</svg>

<g id="navigator" transform="translate(0 0)" fill="#404254">
  <rect fill="#f2f5e9" fill-opacity="0.5" stroke="#606060" stroke-width=".5" x="0" y="0" width="60" height="60"/>
  <use id="zoomplus" xlink:href="#zoomPlus" x="17" y="9" onmousedown="handleZoom(evt,'in')"/>
  <use id="zoomminus" xlink:href="#zoomMin" x="42" y="9" onmousedown="handleZoom(evt,'out')"/>
  <use id="reset" xlink:href="#resetDef" x="30" y="36" onmousedown="handleReset()"/>
   <use id="arrowup" xlink:href="#arrowUp" x="0" y="0" onmousedown="handlePan(0,-1)"/>
  <use id="arrowright" xlink:href="#arrowRight" x="0" y="0" onmousedown="handlePan(1,0)"/>
  <use id="arrowdown" xlink:href="#arrowDown" x="0" y="0" onmousedown="handlePan(0,1)"/>
  <use id="arrowleft" xlink:href="#arrowLeft" x="0" y="0" onmousedown="handlePan(-1,0)"/>
</g>
<svg viewBox="0 0 15 15" width="100%" height="30px" preserveAspectRatio="xMaxYMin meet">
 <g id="arrow_out" transform="scale(0.3 0.3)">
  <a xlink:href="namespaceaopp__deconv__tool_1_1text_a1496cf89a275b1b851ff81f401628c27_icgraph_org.svg" target="_base">
   <rect id="button" ry="5" rx="5" y="6" x="6" height="38" width="38"
        fill="#f2f5e9" fill-opacity="0.5" stroke="#606060" stroke-width="1.0"/>
   <path id="arrow"
     d="M 11.500037,31.436501 C 11.940474,20.09759 22.043105,11.32322 32.158766,21.979434 L 37.068811,17.246167 C 37.068811,17.246167 37.088388,32 37.088388,32 L 22.160133,31.978069 C 22.160133,31.978069 26.997745,27.140456 26.997745,27.140456 C 18.528582,18.264221 13.291696,25.230495 11.500037,31.436501 z"
     style="fill:#404040;"/>
  </a>
 </g>
</svg>

<style type='text/css'>
<![CDATA[
[data-mouse-over-selected='false'] { opacity: 0.7; }
[data-mouse-over-selected='true']  { opacity: 1.0; }
]]>
</style>
<script type="application/ecmascript"><![CDATA[
document.addEventListener('DOMContentLoaded', (event) => {
  highlightEdges();
  highlightAdjacentNodes();
});
]]></script>
</svg>
