<?xml version="1.0" encoding="UTF-8" standalone="no"?>
<!DOCTYPE svg PUBLIC "-//W3C//DTD SVG 1.1//EN"
 "http://www.w3.org/Graphics/SVG/1.1/DTD/svg11.dtd">
<!-- Generated by graphviz version 2.43.0 (0)
 -->
<!-- Title: aopp_deconv_tool.text.combine_lines_with_same_indent Pages: 1 -->
<!--zoomable 509 -->
<svg id="main" version="1.1" xmlns="http://www.w3.org/2000/svg" xmlns:xlink="http://www.w3.org/1999/xlink" xml:space="preserve" onload="init(evt)">
<style type="text/css"><![CDATA[
.edge:hover path { stroke: red; }
.edge:hover polygon { stroke: red; fill: red; }
]]></style>
<script type="text/javascript"><![CDATA[
var edges = document.getElementsByTagName('g');
if (edges && edges.length) {
  for (var i=0;i<edges.length;i++) {
    if (edges[i].id.substr(0,4)=='edge') {
      edges[i].setAttribute('class','edge');
    }
  }
}
]]></script>
        <defs>
                <circle id="rim" cx="0" cy="0" r="7"/>
                <circle id="rim2" cx="0" cy="0" r="3.5"/>
                <g id="zoomPlus">
                        <use xlink:href="#rim" fill="#404040">
                                <set attributeName="fill" to="#808080" begin="zoomplus.mouseover" end="zoomplus.mouseout"/>
                        </use>
                        <path d="M-4,0h8M0,-4v8" fill="none" stroke="white" stroke-width="1.5" pointer-events="none"/>
                </g>
                <g id="zoomMin">
                        <use xlink:href="#rim" fill="#404040">
                                <set attributeName="fill" to="#808080" begin="zoomminus.mouseover" end="zoomminus.mouseout"/>
                        </use>
                        <path d="M-4,0h8" fill="none" stroke="white" stroke-width="1.5" pointer-events="none"/>
                </g>
                <g id="dirArrow">
                        <path fill="none" stroke="white" stroke-width="1.5" d="M0,-3.0v7 M-2.5,-0.5L0,-3.0L2.5,-0.5"/>
                </g>
               <g id="resetDef">
                       <use xlink:href="#rim2" fill="#404040">
                               <set attributeName="fill" to="#808080" begin="reset.mouseover" end="reset.mouseout"/>
                       </use>
               </g>
        </defs>

<script type="text/javascript">
var viewWidth = 629;
var viewHeight = 509;
var sectionId = 'dynsection-0';
</script>
<script xlink:href="../../svgpan.js"/>
<svg id="graph" class="graph">
<g id="viewport">
<title>aopp_deconv_tool.text.combine_lines_with_same_indent</title>
<!-- Node1 -->
<g id="node1" class="node">
<title>Node1</title>
<g id="a_node1"><a xlink:title=" ">
<polygon fill="#bfbfbf" stroke="black" points="448,-235.5 448,-265.5 621,-265.5 621,-235.5 448,-235.5"/>
<text text-anchor="start" x="456" y="-253.5" font-family="Helvetica,sans-Serif" font-size="10.00">aopp_deconv_tool.text.combine</text>
<text text-anchor="middle" x="534.5" y="-242.5" font-family="Helvetica,sans-Serif" font-size="10.00">_lines_with_same_indent</text>
</a>
</g>
</g>
<!-- Node2 -->
<g id="node2" class="node">
<title>Node2</title>
<g id="a_node2"><a xlink:href="../../d8/d5b/namespaceaopp__deconv__tool_1_1text.html#ae13da0dd246571ccd435ba5f64904bfe" target="_top" xlink:title=" ">
<polygon fill="none" stroke="black" points="257,-241 257,-260 412,-260 412,-241 257,-241"/>
<text text-anchor="middle" x="334.5" y="-248" font-family="Helvetica,sans-Serif" font-size="10.00">aopp_deconv_tool.text.wrap</text>
</a>
</g>
</g>
<!-- Node1&#45;&gt;Node2 -->
<g id="edge1" class="edge">
<title>Node1&#45;&gt;Node2</title>
<path fill="none" stroke="midnightblue" d="M437.8,-250.5C429.24,-250.5 420.66,-250.5 412.29,-250.5"/>
<polygon fill="midnightblue" stroke="midnightblue" points="437.81,-254 447.81,-250.5 437.81,-247 437.81,-254"/>
</g>
<!-- Node3 -->
<g id="node3" class="node">
<title>Node3</title>
<g id="a_node3"><a xlink:href="../../dd/d4d/namespaceaopp__deconv__tool_1_1artefact__detection.html#a4d46d8ae518ad501b8786cd6dd8a50dd" target="_top" xlink:title=" ">
<polygon fill="none" stroke="black" points="37.5,-470.5 37.5,-500.5 183.5,-500.5 183.5,-470.5 37.5,-470.5"/>
<text text-anchor="start" x="45.5" y="-488.5" font-family="Helvetica,sans-Serif" font-size="10.00">aopp_deconv_tool.artefact</text>
<text text-anchor="middle" x="110.5" y="-477.5" font-family="Helvetica,sans-Serif" font-size="10.00">_detection.parse_args</text>
</a>
</g>
</g>
<!-- Node2&#45;&gt;Node3 -->
<g id="edge2" class="edge">
<title>Node2&#45;&gt;Node3</title>
<path fill="none" stroke="midnightblue" d="M328.93,-270.26C318.07,-312.51 286.61,-411.79 221,-461.5 210.14,-469.73 197.03,-475.25 183.72,-478.93"/>
<polygon fill="midnightblue" stroke="midnightblue" points="332.37,-270.92 331.35,-260.38 325.57,-269.26 332.37,-270.92"/>
</g>
<!-- Node4 -->
<g id="node4" class="node">
<title>Node4</title>
<g id="a_node4"><a xlink:href="../../d1/d07/namespaceaopp__deconv__tool_1_1create__bad__pixel__mask.html#a2b16b8c45b14df83d552a22fb639b9f9" target="_top" xlink:title=" ">
<polygon fill="none" stroke="black" points="31.5,-421.5 31.5,-451.5 189.5,-451.5 189.5,-421.5 31.5,-421.5"/>
<text text-anchor="start" x="39.5" y="-439.5" font-family="Helvetica,sans-Serif" font-size="10.00">aopp_deconv_tool.create</text>
<text text-anchor="middle" x="110.5" y="-428.5" font-family="Helvetica,sans-Serif" font-size="10.00">_bad_pixel_mask.parse_args</text>
</a>
</g>
</g>
<!-- Node2&#45;&gt;Node4 -->
<g id="edge3" class="edge">
<title>Node2&#45;&gt;Node4</title>
<path fill="none" stroke="midnightblue" d="M325.71,-269.7C310.8,-303.92 274.83,-375.25 221,-411.5 211.54,-417.87 200.68,-422.64 189.56,-426.2"/>
<polygon fill="midnightblue" stroke="midnightblue" points="328.99,-270.93 329.66,-260.35 322.55,-268.2 328.99,-270.93"/>
</g>
<!-- Node5 -->
<g id="node5" class="node">
<title>Node5</title>
<g id="a_node5"><a xlink:href="../../d6/de2/namespaceaopp__deconv__tool_1_1deconvolve.html#afb9fb6db643cda6e6d7af7ca2c1c4940" target="_top" xlink:title=" ">
<polygon fill="none" stroke="black" points="0,-383 0,-402 221,-402 221,-383 0,-383"/>
<text text-anchor="middle" x="110.5" y="-390" font-family="Helvetica,sans-Serif" font-size="10.00">aopp_deconv_tool.deconvolve.parse_args</text>
</a>
</g>
</g>
<!-- Node2&#45;&gt;Node5 -->
<g id="edge4" class="edge">
<title>Node2&#45;&gt;Node5</title>
<path fill="none" stroke="midnightblue" d="M322.46,-268.83C304.77,-296.44 267.32,-348.14 221,-373.5 213.98,-377.35 206.35,-380.44 198.51,-382.93"/>
<polygon fill="midnightblue" stroke="midnightblue" points="325.55,-270.49 327.87,-260.15 319.61,-266.79 325.55,-270.49"/>
</g>
<!-- Node6 -->
<g id="node6" class="node">
<title>Node6</title>
<g id="a_node6"><a xlink:href="../../dc/dc5/namespaceaopp__deconv__tool_1_1fit__psf__model.html#a2ff26f2f657884f9deaa3e1e84e508b6" target="_top" xlink:title=" ">
<polygon fill="none" stroke="black" points="46,-333.5 46,-363.5 175,-363.5 175,-333.5 46,-333.5"/>
<text text-anchor="start" x="54" y="-351.5" font-family="Helvetica,sans-Serif" font-size="10.00">aopp_deconv_tool.fit</text>
<text text-anchor="middle" x="110.5" y="-340.5" font-family="Helvetica,sans-Serif" font-size="10.00">_psf_model.parse_args</text>
</a>
</g>
</g>
<!-- Node2&#45;&gt;Node6 -->
<g id="edge5" class="edge">
<title>Node2&#45;&gt;Node6</title>
<path fill="none" stroke="midnightblue" d="M314.18,-266.42C292.72,-283.32 256.41,-309.58 221,-324.5 206.65,-330.55 190.58,-335.16 175.26,-338.64"/>
<polygon fill="midnightblue" stroke="midnightblue" points="316.55,-269.01 322.17,-260.03 312.17,-263.55 316.55,-269.01"/>
</g>
<!-- Node7 -->
<g id="node7" class="node">
<title>Node7</title>
<g id="a_node7"><a xlink:href="../../d4/d1f/namespaceaopp__deconv__tool_1_1fits__copy__wcs.html#a919079e5f742632cf582ee2a7c9ff7a2" target="_top" xlink:title=" ">
<polygon fill="none" stroke="black" points="48,-284.5 48,-314.5 173,-314.5 173,-284.5 48,-284.5"/>
<text text-anchor="start" x="56" y="-302.5" font-family="Helvetica,sans-Serif" font-size="10.00">aopp_deconv_tool.fits</text>
<text text-anchor="middle" x="110.5" y="-291.5" font-family="Helvetica,sans-Serif" font-size="10.00">_copy_wcs.parse_args</text>
</a>
</g>
</g>
<!-- Node2&#45;&gt;Node7 -->
<g id="edge6" class="edge">
<title>Node2&#45;&gt;Node7</title>
<path fill="none" stroke="midnightblue" d="M280.87,-262.23C261.99,-266.43 240.54,-271.19 221,-275.5 205.51,-278.92 188.79,-282.59 173.18,-286.01"/>
<polygon fill="midnightblue" stroke="midnightblue" points="281.77,-265.61 290.77,-260.03 280.25,-258.78 281.77,-265.61"/>
</g>
<!-- Node8 -->
<g id="node8" class="node">
<title>Node8</title>
<g id="a_node8"><a xlink:href="../../d6/d01/namespaceaopp__deconv__tool_1_1fits__slice.html#a33fccd58fdb9c6f28d970787b141ca4a" target="_top" xlink:title=" ">
<polygon fill="none" stroke="black" points="48.5,-235.5 48.5,-265.5 172.5,-265.5 172.5,-235.5 48.5,-235.5"/>
<text text-anchor="start" x="56.5" y="-253.5" font-family="Helvetica,sans-Serif" font-size="10.00">aopp_deconv_tool.fits</text>
<text text-anchor="middle" x="110.5" y="-242.5" font-family="Helvetica,sans-Serif" font-size="10.00">_slice.parse_args</text>
</a>
</g>
</g>
<!-- Node2&#45;&gt;Node8 -->
<g id="edge7" class="edge">
<title>Node2&#45;&gt;Node8</title>
<path fill="none" stroke="midnightblue" d="M246.7,-250.5C222.01,-250.5 195.65,-250.5 172.82,-250.5"/>
<polygon fill="midnightblue" stroke="midnightblue" points="246.79,-254 256.79,-250.5 246.79,-247 246.79,-254"/>
</g>
<!-- Node9 -->
<g id="node9" class="node">
<title>Node9</title>
<g id="a_node9"><a xlink:href="../../d5/ddb/namespaceaopp__deconv__tool_1_1interpolate.html#abf004ff77536f8a4c52a86709a9ae800" target="_top" xlink:title=" ">
<polygon fill="none" stroke="black" points="1.5,-197 1.5,-216 219.5,-216 219.5,-197 1.5,-197"/>
<text text-anchor="middle" x="110.5" y="-204" font-family="Helvetica,sans-Serif" font-size="10.00">aopp_deconv_tool.interpolate.parse_args</text>
</a>
</g>
</g>
<!-- Node2&#45;&gt;Node9 -->
<g id="edge8" class="edge">
<title>Node2&#45;&gt;Node9</title>
<path fill="none" stroke="midnightblue" d="M280.44,-238.84C261.69,-234.81 240.43,-230.35 221,-226.5 202.9,-222.92 183.06,-219.22 165.31,-216"/>
<polygon fill="midnightblue" stroke="midnightblue" points="279.78,-242.28 290.29,-240.97 281.25,-235.44 279.78,-242.28"/>
</g>
<!-- Node10 -->
<g id="node10" class="node">
<title>Node10</title>
<g id="a_node10"><a xlink:href="../../da/de2/namespaceaopp__deconv__tool_1_1psf__normalise.html#a3acaf8174cc008c8bf7029fce9df7be0" target="_top" xlink:title=" ">
<polygon fill="none" stroke="black" points="47,-147.5 47,-177.5 174,-177.5 174,-147.5 47,-147.5"/>
<text text-anchor="start" x="55" y="-165.5" font-family="Helvetica,sans-Serif" font-size="10.00">aopp_deconv_tool.psf</text>
<text text-anchor="middle" x="110.5" y="-154.5" font-family="Helvetica,sans-Serif" font-size="10.00">_normalise.parse_args</text>
</a>
</g>
</g>
<!-- Node2&#45;&gt;Node10 -->
<g id="edge9" class="edge">
<title>Node2&#45;&gt;Node10</title>
<path fill="none" stroke="midnightblue" d="M310.96,-235.32C288.9,-221.09 253.9,-200.17 221,-187.5 206.17,-181.79 189.68,-177.18 174.1,-173.55"/>
<polygon fill="midnightblue" stroke="midnightblue" points="309.3,-238.42 319.58,-240.97 313.14,-232.56 309.3,-238.42"/>
</g>
<!-- Node11 -->
<g id="node11" class="node">
<title>Node11</title>
<g id="a_node11"><a xlink:href="../../d5/d6e/namespaceaopp__deconv__tool_1_1spatial__rebin.html#a9ddf23f8c9b02acf470d16465d650281" target="_top" xlink:title=" ">
<polygon fill="none" stroke="black" points="40,-98.5 40,-128.5 181,-128.5 181,-98.5 40,-98.5"/>
<text text-anchor="start" x="48" y="-116.5" font-family="Helvetica,sans-Serif" font-size="10.00">aopp_deconv_tool.spatial</text>
<text text-anchor="middle" x="110.5" y="-105.5" font-family="Helvetica,sans-Serif" font-size="10.00">_rebin.parse_args</text>
</a>
</g>
</g>
<!-- Node2&#45;&gt;Node11 -->
<g id="edge10" class="edge">
<title>Node2&#45;&gt;Node11</title>
<path fill="none" stroke="midnightblue" d="M320.82,-232.67C302,-207.59 264.21,-162.32 221,-138.5 208.79,-131.77 194.86,-126.85 181.12,-123.25"/>
<polygon fill="midnightblue" stroke="midnightblue" points="318.13,-234.92 326.87,-240.92 323.78,-230.78 318.13,-234.92"/>
</g>
<!-- Node12 -->
<g id="node12" class="node">
<title>Node12</title>
<g id="a_node12"><a xlink:href="../../d1/d3b/namespaceaopp__deconv__tool_1_1spectral__rebin.html#af5488a9645335a937fcbea8b0efe6e91" target="_top" xlink:title=" ">
<polygon fill="none" stroke="black" points="37,-49.5 37,-79.5 184,-79.5 184,-49.5 37,-49.5"/>
<text text-anchor="start" x="45" y="-67.5" font-family="Helvetica,sans-Serif" font-size="10.00">aopp_deconv_tool.spectral</text>
<text text-anchor="middle" x="110.5" y="-56.5" font-family="Helvetica,sans-Serif" font-size="10.00">_rebin.parse_args</text>
</a>
</g>
</g>
<!-- Node2&#45;&gt;Node12 -->
<g id="edge11" class="edge">
<title>Node2&#45;&gt;Node12</title>
<path fill="none" stroke="midnightblue" d="M325.71,-231.3C310.8,-197.08 274.83,-125.75 221,-89.5 210,-82.09 197.12,-76.86 184.13,-73.16"/>
<polygon fill="midnightblue" stroke="midnightblue" points="322.55,-232.8 329.66,-240.65 328.99,-230.07 322.55,-232.8"/>
</g>
<!-- Node13 -->
<g id="node13" class="node">
<title>Node13</title>
<g id="a_node13"><a xlink:href="../../da/d5f/namespaceaopp__deconv__tool_1_1arguments.html#a1c98fc7e3d7869bf74b61831b4f15f4a" target="_top" xlink:title=" ">
<polygon fill="none" stroke="black" points="15,-0.5 15,-30.5 206,-30.5 206,-0.5 15,-0.5"/>
<text text-anchor="start" x="23" y="-18.5" font-family="Helvetica,sans-Serif" font-size="10.00">aopp_deconv_tool.arguments.parse</text>
<text text-anchor="middle" x="110.5" y="-7.5" font-family="Helvetica,sans-Serif" font-size="10.00">_args_of_dataclass</text>
</a>
</g>
</g>
<!-- Node2&#45;&gt;Node13 -->
<g id="edge12" class="edge">
<title>Node2&#45;&gt;Node13</title>
<path fill="none" stroke="midnightblue" d="M328.87,-230.87C317.89,-188.91 286.2,-90.24 221,-40.5 215.96,-36.66 210.44,-33.39 204.63,-30.6"/>
<polygon fill="midnightblue" stroke="midnightblue" points="325.5,-231.84 331.32,-240.69 332.29,-230.14 325.5,-231.84"/>
</g>
</g>
</svg>
        <g id="navigator" transform="translate(0 0)" fill="#404254">
                <rect fill="#f2f5e9" fill-opacity="0.5" stroke="#606060" stroke-width=".5" x="0" y="0" width="60" height="60"/>
                <use id="zoomplus" xlink:href="#zoomPlus" x="17" y="9" onmousedown="handleZoom(evt,'in')"/>
                <use id="zoomminus" xlink:href="#zoomMin" x="42" y="9" onmousedown="handleZoom(evt,'out')"/>
                <use id="reset" xlink:href="#resetDef" x="30" y="36" onmousedown="handleReset()"/>
                <g id="arrowUp" xlink:href="#dirArrow" transform="translate(30 24)" onmousedown="handlePan(0,-1)">
                  <use xlink:href="#rim" fill="#404040">
                        <set attributeName="fill" to="#808080" begin="arrowUp.mouseover" end="arrowUp.mouseout"/>
                  </use>
                  <path fill="none" stroke="white" stroke-width="1.5" d="M0,-3.0v7 M-2.5,-0.5L0,-3.0L2.5,-0.5"/>
                </g>
                <g id="arrowRight" xlink:href="#dirArrow" transform="rotate(90) translate(36 -43)" onmousedown="handlePan(1,0)">
                  <use xlink:href="#rim" fill="#404040">
                        <set attributeName="fill" to="#808080" begin="arrowRight.mouseover" end="arrowRight.mouseout"/>
                  </use>
                  <path fill="none" stroke="white" stroke-width="1.5" d="M0,-3.0v7 M-2.5,-0.5L0,-3.0L2.5,-0.5"/>
                </g>
                <g id="arrowDown" xlink:href="#dirArrow" transform="rotate(180) translate(-30 -48)" onmousedown="handlePan(0,1)">
                  <use xlink:href="#rim" fill="#404040">
                        <set attributeName="fill" to="#808080" begin="arrowDown.mouseover" end="arrowDown.mouseout"/>
                  </use>
                  <path fill="none" stroke="white" stroke-width="1.5" d="M0,-3.0v7 M-2.5,-0.5L0,-3.0L2.5,-0.5"/>
                </g>
                <g id="arrowLeft" xlink:href="#dirArrow" transform="rotate(270) translate(-36 17)" onmousedown="handlePan(-1,0)">
                  <use xlink:href="#rim" fill="#404040">
                        <set attributeName="fill" to="#808080" begin="arrowLeft.mouseover" end="arrowLeft.mouseout"/>
                  </use>
                  <path fill="none" stroke="white" stroke-width="1.5" d="M0,-3.0v7 M-2.5,-0.5L0,-3.0L2.5,-0.5"/>
                </g>
        </g>
        <svg viewBox="0 0 15 15" width="100%" height="30px" preserveAspectRatio="xMaxYMin meet">
         <g id="arrow_out" transform="scale(0.3 0.3)">
          <a xlink:href="namespaceaopp__deconv__tool_1_1text_a5b208e43cdecac49460b4ced231aa4a6_icgraph_org.svg" target="_base">
           <rect id="button" ry="5" rx="5" y="6" x="6" height="38" width="38"
                fill="#f2f5e9" fill-opacity="0.5" stroke="#606060" stroke-width="1.0"/>
           <path id="arrow"
             d="M 11.500037,31.436501 C 11.940474,20.09759 22.043105,11.32322 32.158766,21.979434 L 37.068811,17.246167 C 37.068811,17.246167 37.088388,32 37.088388,32 L 22.160133,31.978069 C 22.160133,31.978069 26.997745,27.140456 26.997745,27.140456 C 18.528582,18.264221 13.291696,25.230495 11.500037,31.436501 z"
             style="fill:#404040;"/>
          </a>
         </g>
        </svg>
</svg>
