<?xml version="1.0" encoding="UTF-8" standalone="no"?>
<!DOCTYPE svg PUBLIC "-//W3C//DTD SVG 1.1//EN"
 "http://www.w3.org/Graphics/SVG/1.1/DTD/svg11.dtd">
<!-- Generated by graphviz version 2.43.0 (0)
 -->
<!-- Title: optical_component.OpticalComponentSet Pages: 1 -->
<svg width="254pt" height="104pt"
 viewBox="0.00 0.00 253.50 104.00" xmlns="http://www.w3.org/2000/svg" xmlns:xlink="http://www.w3.org/1999/xlink">
<g id="graph0" class="graph" transform="scale(1 1) rotate(0) translate(4 100)">
<title>optical_component.OpticalComponentSet</title>
<!-- Node1 -->
<g id="Node000001" class="node">
<title>Node1</title>
<g id="a_Node000001"><a xlink:title=" ">
<polygon fill="#999999" stroke="#666666" points="181.5,-30 34.5,-30 34.5,0 181.5,0 181.5,-30"/>
<text text-anchor="start" x="42.5" y="-18" font-family="Helvetica,sans-Serif" font-size="10.00">optical_component.Optical</text>
<text text-anchor="middle" x="108" y="-7" font-family="Helvetica,sans-Serif" font-size="10.00">ComponentSet</text>
</a>
</g>
</g>
<!-- Node2 -->
<g id="Node000002" class="node">
<title>Node2</title>
<g id="a_Node000002"><a xlink:title=" ">
<polygon fill="white" stroke="#666666" points="32,-96 0,-96 0,-77 32,-77 32,-96"/>
<text text-anchor="middle" x="16" y="-84" font-family="Helvetica,sans-Serif" font-size="10.00">list</text>
</a>
</g>
</g>
<!-- Node2&#45;&gt;Node1 -->
<g id="edge1_Node000001_Node000002" class="edge">
<title>Node2&#45;&gt;Node1</title>
<g id="a_edge1_Node000001_Node000002"><a xlink:title=" ">
<path fill="none" stroke="#9a32cd" stroke-dasharray="5,2" d="M22.34,-66.99C25.34,-60.34 29.5,-53.2 35,-48 42.84,-40.58 52.68,-34.72 62.58,-30.14"/>
<polygon fill="#9a32cd" stroke="#9a32cd" points="18.92,-66.12 18.54,-76.7 25.44,-68.67 18.92,-66.12"/>
</a>
</g>
<text text-anchor="middle" x="69.5" y="-51" font-family="Helvetica,sans-Serif" font-size="10.00" fill="grey"> _optical_path</text>
</g>
<!-- Node3 -->
<g id="Node000003" class="node">
<title>Node3</title>
<g id="a_Node000003"><a xlink:title=" ">
<polygon fill="white" stroke="#666666" points="122.5,-96 93.5,-96 93.5,-77 122.5,-77 122.5,-96"/>
<text text-anchor="middle" x="108" y="-84" font-family="Helvetica,sans-Serif" font-size="10.00">int</text>
</a>
</g>
</g>
<!-- Node3&#45;&gt;Node1 -->
<g id="edge2_Node000001_Node000003" class="edge">
<title>Node3&#45;&gt;Node1</title>
<g id="a_edge2_Node000001_Node000003"><a xlink:title=" ">
<path fill="none" stroke="#9a32cd" stroke-dasharray="5,2" d="M108,-66.71C108,-55.19 108,-40.68 108,-30.14"/>
<polygon fill="#9a32cd" stroke="#9a32cd" points="104.5,-66.98 108,-76.98 111.5,-66.98 104.5,-66.98"/>
</a>
</g>
<text text-anchor="middle" x="156.5" y="-51" font-family="Helvetica,sans-Serif" font-size="10.00" fill="grey"> _aperture_stop_idx</text>
</g>
<!-- Node4 -->
<g id="Node000004" class="node">
<title>Node4</title>
<g id="a_Node000004"><a xlink:title=" ">
<polygon fill="white" stroke="#666666" points="245.5,-96 210.5,-96 210.5,-77 245.5,-77 245.5,-96"/>
<text text-anchor="middle" x="228" y="-84" font-family="Helvetica,sans-Serif" font-size="10.00">Any</text>
</a>
</g>
</g>
<!-- Node4&#45;&gt;Node1 -->
<g id="edge3_Node000001_Node000004" class="edge">
<title>Node4&#45;&gt;Node1</title>
<g id="a_edge3_Node000001_Node000004"><a xlink:title=" ">
<path fill="none" stroke="#9a32cd" stroke-dasharray="5,2" d="M220.76,-67.42C217.21,-60.52 212.32,-53.09 206,-48 196.52,-40.37 185.16,-34.53 173.59,-30.08"/>
<polygon fill="#9a32cd" stroke="#9a32cd" points="217.7,-69.16 225.01,-76.83 224.08,-66.28 217.7,-69.16"/>
</a>
</g>
<text text-anchor="middle" x="226.5" y="-51" font-family="Helvetica,sans-Serif" font-size="10.00" fill="grey"> _lbs</text>
</g>
</g>
</svg>
