<?xml version="1.0" encoding="UTF-8" standalone="no"?>
<!DOCTYPE svg PUBLIC "-//W3C//DTD SVG 1.1//EN"
 "http://www.w3.org/Graphics/SVG/1.1/DTD/svg11.dtd">
<!-- Generated by graphviz version 2.43.0 (0)
 -->
<!-- Title: aopp_deconv_tool.algorithm.bad_pixels.ssa_sum_prob.plot_pixel_map_test Pages: 1 -->
<svg width="610pt" height="50pt"
 viewBox="0.00 0.00 610.00 50.00" xmlns="http://www.w3.org/2000/svg" xmlns:xlink="http://www.w3.org/1999/xlink">
<g id="graph0" class="graph" transform="scale(1 1) rotate(0) translate(4 46)">
<title>aopp_deconv_tool.algorithm.bad_pixels.ssa_sum_prob.plot_pixel_map_test</title>
<!-- Node1 -->
<g id="node1" class="node">
<title>Node1</title>
<g id="a_node1"><a xlink:title=" ">
<polygon fill="#bfbfbf" stroke="black" points="426,-0.5 426,-41.5 602,-41.5 602,-0.5 426,-0.5"/>
<text text-anchor="start" x="434" y="-29.5" font-family="Helvetica,sans-Serif" font-size="10.00">aopp_deconv_tool.algorithm.bad</text>
<text text-anchor="start" x="434" y="-18.5" font-family="Helvetica,sans-Serif" font-size="10.00">_pixels.ssa_sum_prob.plot</text>
<text text-anchor="middle" x="514" y="-7.5" font-family="Helvetica,sans-Serif" font-size="10.00">_pixel_map_test</text>
</a>
</g>
</g>
<!-- Node2 -->
<g id="node2" class="node">
<title>Node2</title>
<g id="a_node2"><a xlink:href="../../d3/dde/namespaceaopp__deconv__tool_1_1algorithm_1_1bad__pixels_1_1ssa__sum__prob.html#aa7602b0129415861a5c4dd04b73a6c8e" target="_top" xlink:title=" ">
<polygon fill="none" stroke="black" points="212,-6 212,-36 390,-36 390,-6 212,-6"/>
<text text-anchor="start" x="220" y="-24" font-family="Helvetica,sans-Serif" font-size="10.00">aopp_deconv_tool.algorithm.bad</text>
<text text-anchor="middle" x="301" y="-13" font-family="Helvetica,sans-Serif" font-size="10.00">_pixels.ssa_sum_prob.pixel_map</text>
</a>
</g>
</g>
<!-- Node1&#45;&gt;Node2 -->
<g id="edge1" class="edge">
<title>Node1&#45;&gt;Node2</title>
<path fill="none" stroke="midnightblue" d="M415.94,-21C407.36,-21 398.7,-21 390.2,-21"/>
<polygon fill="midnightblue" stroke="midnightblue" points="415.96,-24.5 425.96,-21 415.96,-17.5 415.96,-24.5"/>
</g>
<!-- Node3 -->
<g id="node3" class="node">
<title>Node3</title>
<g id="a_node3"><a xlink:href="../../d3/dde/namespaceaopp__deconv__tool_1_1algorithm_1_1bad__pixels_1_1ssa__sum__prob.html#a710894c1288e8ec90422e8979b1aaff1" target="_top" xlink:title=" ">
<polygon fill="none" stroke="black" points="0,-0.5 0,-41.5 176,-41.5 176,-0.5 0,-0.5"/>
<text text-anchor="start" x="8" y="-29.5" font-family="Helvetica,sans-Serif" font-size="10.00">aopp_deconv_tool.algorithm.bad</text>
<text text-anchor="start" x="8" y="-18.5" font-family="Helvetica,sans-Serif" font-size="10.00">_pixels.ssa_sum_prob.get_bp</text>
<text text-anchor="middle" x="88" y="-7.5" font-family="Helvetica,sans-Serif" font-size="10.00">_mask_from_badness_map</text>
</a>
</g>
</g>
<!-- Node2&#45;&gt;Node3 -->
<g id="edge2" class="edge">
<title>Node2&#45;&gt;Node3</title>
<path fill="none" stroke="midnightblue" d="M201.5,-21C193.06,-21 184.57,-21 176.23,-21"/>
<polygon fill="midnightblue" stroke="midnightblue" points="201.74,-24.5 211.74,-21 201.74,-17.5 201.74,-24.5"/>
</g>
</g>
</svg>
