<?xml version="1.0" encoding="UTF-8" standalone="no"?>
<!DOCTYPE svg PUBLIC "-//W3C//DTD SVG 1.1//EN"
 "http://www.w3.org/Graphics/SVG/1.1/DTD/svg11.dtd">
<!-- Generated by graphviz version 2.43.0 (0)
 -->
<!-- Title: aopp_deconv_tool.algorithm.bad_pixels.ssa_sum_prob.get_bp_mask_from_badness_map Pages: 1 -->
<svg width="610pt" height="110pt"
 viewBox="0.00 0.00 610.00 110.00" xmlns="http://www.w3.org/2000/svg" xmlns:xlink="http://www.w3.org/1999/xlink">
<g id="graph0" class="graph" transform="scale(1 1) rotate(0) translate(4 106)">
<title>aopp_deconv_tool.algorithm.bad_pixels.ssa_sum_prob.get_bp_mask_from_badness_map</title>
<!-- Node1 -->
<g id="node1" class="node">
<title>Node1</title>
<g id="a_node1"><a xlink:title=" ">
<polygon fill="#bfbfbf" stroke="black" points="0,-30.5 0,-71.5 176,-71.5 176,-30.5 0,-30.5"/>
<text text-anchor="start" x="8" y="-59.5" font-family="Helvetica,sans-Serif" font-size="10.00">aopp_deconv_tool.algorithm.bad</text>
<text text-anchor="start" x="8" y="-48.5" font-family="Helvetica,sans-Serif" font-size="10.00">_pixels.ssa_sum_prob.get_bp</text>
<text text-anchor="middle" x="88" y="-37.5" font-family="Helvetica,sans-Serif" font-size="10.00">_mask_from_badness_map</text>
</a>
</g>
</g>
<!-- Node2 -->
<g id="node2" class="node">
<title>Node2</title>
<g id="a_node2"><a xlink:href="../../d3/dde/namespaceaopp__deconv__tool_1_1algorithm_1_1bad__pixels_1_1ssa__sum__prob.html#aa7602b0129415861a5c4dd04b73a6c8e" target="_top" xlink:title=" ">
<polygon fill="none" stroke="black" points="212,-36 212,-66 390,-66 390,-36 212,-36"/>
<text text-anchor="start" x="220" y="-54" font-family="Helvetica,sans-Serif" font-size="10.00">aopp_deconv_tool.algorithm.bad</text>
<text text-anchor="middle" x="301" y="-43" font-family="Helvetica,sans-Serif" font-size="10.00">_pixels.ssa_sum_prob.pixel_map</text>
</a>
</g>
</g>
<!-- Node1&#45;&gt;Node2 -->
<g id="edge1" class="edge">
<title>Node1&#45;&gt;Node2</title>
<path fill="none" stroke="midnightblue" d="M176.04,-51C184.53,-51 193.18,-51 201.76,-51"/>
<polygon fill="midnightblue" stroke="midnightblue" points="201.8,-54.5 211.8,-51 201.8,-47.5 201.8,-54.5"/>
</g>
<!-- Node3 -->
<g id="node3" class="node">
<title>Node3</title>
<g id="a_node3"><a xlink:href="../../da/df5/namespaceaopp__deconv__tool_1_1scipy__helper_1_1interp.html#afe27d8cf60620374e1470d69c646b2c3" target="_top" xlink:title=" ">
<polygon fill="none" stroke="black" points="444,-60.5 444,-101.5 584,-101.5 584,-60.5 444,-60.5"/>
<text text-anchor="start" x="452" y="-89.5" font-family="Helvetica,sans-Serif" font-size="10.00">aopp_deconv_tool.scipy</text>
<text text-anchor="start" x="452" y="-78.5" font-family="Helvetica,sans-Serif" font-size="10.00">_helper.interp.interpolate</text>
<text text-anchor="middle" x="514" y="-67.5" font-family="Helvetica,sans-Serif" font-size="10.00">_at_mask</text>
</a>
</g>
</g>
<!-- Node2&#45;&gt;Node3 -->
<g id="edge2" class="edge">
<title>Node2&#45;&gt;Node3</title>
<path fill="none" stroke="midnightblue" d="M390.26,-63.55C404.62,-65.59 419.41,-67.69 433.54,-69.7"/>
<polygon fill="midnightblue" stroke="midnightblue" points="433.31,-73.2 443.7,-71.15 434.29,-66.27 433.31,-73.2"/>
</g>
<!-- Node4 -->
<g id="node4" class="node">
<title>Node4</title>
<g id="a_node4"><a xlink:href="../../d3/dde/namespaceaopp__deconv__tool_1_1algorithm_1_1bad__pixels_1_1ssa__sum__prob.html#a4a522bbf96785742e41bb09f604c26ae" target="_top" xlink:title=" ">
<polygon fill="none" stroke="black" points="426,-0.5 426,-41.5 602,-41.5 602,-0.5 426,-0.5"/>
<text text-anchor="start" x="434" y="-29.5" font-family="Helvetica,sans-Serif" font-size="10.00">aopp_deconv_tool.algorithm.bad</text>
<text text-anchor="start" x="434" y="-18.5" font-family="Helvetica,sans-Serif" font-size="10.00">_pixels.ssa_sum_prob.plot</text>
<text text-anchor="middle" x="514" y="-7.5" font-family="Helvetica,sans-Serif" font-size="10.00">_pixel_map_test</text>
</a>
</g>
</g>
<!-- Node2&#45;&gt;Node4 -->
<g id="edge3" class="edge">
<title>Node2&#45;&gt;Node4</title>
<path fill="none" stroke="midnightblue" d="M390.26,-38.45C398.7,-37.25 407.29,-36.03 415.81,-34.82"/>
<polygon fill="midnightblue" stroke="midnightblue" points="416.36,-38.28 425.77,-33.4 415.38,-31.35 416.36,-38.28"/>
</g>
</g>
</svg>
