<?xml version="1.0" encoding="UTF-8" standalone="no"?>
<!DOCTYPE svg PUBLIC "-//W3C//DTD SVG 1.1//EN"
 "http://www.w3.org/Graphics/SVG/1.1/DTD/svg11.dtd">
<!-- Generated by graphviz version 2.43.0 (0)
 -->
<!-- Title: aopp_deconv_tool.algorithm.bad_pixels.ssa_sum_prob.get_bp_mask_from_badness_map Pages: 1 -->
<svg width="608pt" height="49pt"
 viewBox="0.00 0.00 608.00 49.00" xmlns="http://www.w3.org/2000/svg" xmlns:xlink="http://www.w3.org/1999/xlink">
<g id="graph0" class="graph" transform="scale(1 1) rotate(0) translate(4 45)">
<title>aopp_deconv_tool.algorithm.bad_pixels.ssa_sum_prob.get_bp_mask_from_badness_map</title>
<!-- Node1 -->
<g id="Node000001" class="node">
<title>Node1</title>
<g id="a_Node000001"><a xlink:title=" ">
<polygon fill="#999999" stroke="#666666" points="176,-41 0,-41 0,0 176,0 176,-41"/>
<text text-anchor="start" x="8" y="-29" font-family="Helvetica,sans-Serif" font-size="10.00">aopp_deconv_tool.algorithm.bad</text>
<text text-anchor="start" x="8" y="-18" font-family="Helvetica,sans-Serif" font-size="10.00">_pixels.ssa_sum_prob.get_bp</text>
<text text-anchor="middle" x="88" y="-7" font-family="Helvetica,sans-Serif" font-size="10.00">_mask_from_badness_map</text>
</a>
</g>
</g>
<!-- Node2 -->
<g id="Node000002" class="node">
<title>Node2</title>
<g id="a_Node000002"><a xlink:href="../../d3/dde/namespaceaopp__deconv__tool_1_1algorithm_1_1bad__pixels_1_1ssa__sum__prob.html#aa7602b0129415861a5c4dd04b73a6c8e" target="_top" xlink:title=" ">
<polygon fill="white" stroke="#666666" points="388,-35.5 212,-35.5 212,-5.5 388,-5.5 388,-35.5"/>
<text text-anchor="start" x="220" y="-23.5" font-family="Helvetica,sans-Serif" font-size="10.00">aopp_deconv_tool.algorithm.bad</text>
<text text-anchor="middle" x="300" y="-12.5" font-family="Helvetica,sans-Serif" font-size="10.00">_pixels.ssa_sum_prob.pixel_map</text>
</a>
</g>
</g>
<!-- Node1&#45;&gt;Node2 -->
<g id="edge1_Node000001_Node000002" class="edge">
<title>Node1&#45;&gt;Node2</title>
<g id="a_edge1_Node000001_Node000002"><a xlink:title=" ">
<path fill="none" stroke="#63b8ff" d="M176.23,-20.5C184.57,-20.5 193.05,-20.5 201.47,-20.5"/>
<polygon fill="#63b8ff" stroke="#63b8ff" points="201.7,-24 211.7,-20.5 201.7,-17 201.7,-24"/>
</a>
</g>
</g>
<!-- Node3 -->
<g id="Node000003" class="node">
<title>Node3</title>
<g id="a_Node000003"><a xlink:href="../../d3/dde/namespaceaopp__deconv__tool_1_1algorithm_1_1bad__pixels_1_1ssa__sum__prob.html#a2c8381c6fa04fe0207e07a7b9632dd67" target="_top" xlink:title=" ">
<polygon fill="white" stroke="#666666" points="600,-41 424,-41 424,0 600,0 600,-41"/>
<text text-anchor="start" x="432" y="-29" font-family="Helvetica,sans-Serif" font-size="10.00">aopp_deconv_tool.algorithm.bad</text>
<text text-anchor="start" x="432" y="-18" font-family="Helvetica,sans-Serif" font-size="10.00">_pixels.ssa_sum_prob.plot</text>
<text text-anchor="middle" x="512" y="-7" font-family="Helvetica,sans-Serif" font-size="10.00">_pixel_map_test</text>
</a>
</g>
</g>
<!-- Node2&#45;&gt;Node3 -->
<g id="edge2_Node000002_Node000003" class="edge">
<title>Node2&#45;&gt;Node3</title>
<g id="a_edge2_Node000002_Node000003"><a xlink:title=" ">
<path fill="none" stroke="#63b8ff" d="M388.23,-20.5C396.57,-20.5 405.05,-20.5 413.47,-20.5"/>
<polygon fill="#63b8ff" stroke="#63b8ff" points="413.7,-24 423.7,-20.5 413.7,-17 413.7,-24"/>
</a>
</g>
</g>
</g>
</svg>
