<?xml version="1.0" encoding="UTF-8" standalone="no"?>
<!DOCTYPE svg PUBLIC "-//W3C//DTD SVG 1.1//EN"
 "http://www.w3.org/Graphics/SVG/1.1/DTD/svg11.dtd">
<!-- Generated by graphviz version 2.43.0 (0)
 -->
<!-- Title: aopp_deconv_tool.algorithm.bad_pixels.ssa_sum_prob.pixel_map Pages: 1 -->
<svg width="398pt" height="110pt"
 viewBox="0.00 0.00 398.00 110.00" xmlns="http://www.w3.org/2000/svg" xmlns:xlink="http://www.w3.org/1999/xlink">
<g id="graph0" class="graph" transform="scale(1 1) rotate(0) translate(4 106)">
<title>aopp_deconv_tool.algorithm.bad_pixels.ssa_sum_prob.pixel_map</title>
<!-- Node1 -->
<g id="node1" class="node">
<title>Node1</title>
<g id="a_node1"><a xlink:title=" ">
<polygon fill="#bfbfbf" stroke="black" points="0,-36 0,-66 178,-66 178,-36 0,-36"/>
<text text-anchor="start" x="8" y="-54" font-family="Helvetica,sans-Serif" font-size="10.00">aopp_deconv_tool.algorithm.bad</text>
<text text-anchor="middle" x="89" y="-43" font-family="Helvetica,sans-Serif" font-size="10.00">_pixels.ssa_sum_prob.pixel_map</text>
</a>
</g>
</g>
<!-- Node2 -->
<g id="node2" class="node">
<title>Node2</title>
<g id="a_node2"><a xlink:href="../../da/df5/namespaceaopp__deconv__tool_1_1scipy__helper_1_1interp.html#afe27d8cf60620374e1470d69c646b2c3" target="_top" xlink:title=" ">
<polygon fill="none" stroke="black" points="232,-60.5 232,-101.5 372,-101.5 372,-60.5 232,-60.5"/>
<text text-anchor="start" x="240" y="-89.5" font-family="Helvetica,sans-Serif" font-size="10.00">aopp_deconv_tool.scipy</text>
<text text-anchor="start" x="240" y="-78.5" font-family="Helvetica,sans-Serif" font-size="10.00">_helper.interp.interpolate</text>
<text text-anchor="middle" x="302" y="-67.5" font-family="Helvetica,sans-Serif" font-size="10.00">_at_mask</text>
</a>
</g>
</g>
<!-- Node1&#45;&gt;Node2 -->
<g id="edge1" class="edge">
<title>Node1&#45;&gt;Node2</title>
<path fill="none" stroke="midnightblue" d="M178.26,-63.55C192.62,-65.59 207.41,-67.69 221.54,-69.7"/>
<polygon fill="midnightblue" stroke="midnightblue" points="221.31,-73.2 231.7,-71.15 222.29,-66.27 221.31,-73.2"/>
</g>
<!-- Node3 -->
<g id="node3" class="node">
<title>Node3</title>
<g id="a_node3"><a xlink:href="../../d3/dde/namespaceaopp__deconv__tool_1_1algorithm_1_1bad__pixels_1_1ssa__sum__prob.html#a4a522bbf96785742e41bb09f604c26ae" target="_top" xlink:title=" ">
<polygon fill="none" stroke="black" points="214,-0.5 214,-41.5 390,-41.5 390,-0.5 214,-0.5"/>
<text text-anchor="start" x="222" y="-29.5" font-family="Helvetica,sans-Serif" font-size="10.00">aopp_deconv_tool.algorithm.bad</text>
<text text-anchor="start" x="222" y="-18.5" font-family="Helvetica,sans-Serif" font-size="10.00">_pixels.ssa_sum_prob.plot</text>
<text text-anchor="middle" x="302" y="-7.5" font-family="Helvetica,sans-Serif" font-size="10.00">_pixel_map_test</text>
</a>
</g>
</g>
<!-- Node1&#45;&gt;Node3 -->
<g id="edge2" class="edge">
<title>Node1&#45;&gt;Node3</title>
<path fill="none" stroke="midnightblue" d="M178.26,-38.45C186.7,-37.25 195.29,-36.03 203.81,-34.82"/>
<polygon fill="midnightblue" stroke="midnightblue" points="204.36,-38.28 213.77,-33.4 203.38,-31.35 204.36,-38.28"/>
</g>
</g>
</svg>
