<?xml version="1.0" encoding="UTF-8" standalone="no"?>
<!DOCTYPE svg PUBLIC "-//W3C//DTD SVG 1.1//EN"
 "http://www.w3.org/Graphics/SVG/1.1/DTD/svg11.dtd">
<!-- Generated by graphviz version 2.43.0 (0)
 -->
<!-- Title: aopp_deconv_tool.graphical_frontends.ssa_filtering.LinePlot Pages: 1 -->
<svg width="420pt" height="88pt"
 viewBox="0.00 0.00 420.00 88.00" xmlns="http://www.w3.org/2000/svg" xmlns:xlink="http://www.w3.org/1999/xlink">
<g id="graph0" class="graph" transform="scale(1 1) rotate(0) translate(4 84)">
<title>aopp_deconv_tool.graphical_frontends.ssa_filtering.LinePlot</title>
<!-- Node1 -->
<g id="node1" class="node">
<title>Node1</title>
<g id="a_node1"><a xlink:title=" ">
<polygon fill="#bfbfbf" stroke="black" points="239,-24.5 239,-54.5 412,-54.5 412,-24.5 239,-24.5"/>
<text text-anchor="start" x="247" y="-42.5" font-family="Helvetica,sans-Serif" font-size="10.00">aopp_deconv_tool.graphical</text>
<text text-anchor="middle" x="325.5" y="-31.5" font-family="Helvetica,sans-Serif" font-size="10.00">_frontends.ssa_filtering.LinePlot</text>
</a>
</g>
</g>
<!-- Node2 -->
<g id="node2" class="node">
<title>Node2</title>
<g id="a_node2"><a xlink:href="../../d7/d1a/classaopp__deconv__tool_1_1graphical__frontends_1_1ssa__filtering_1_1BasePlot.html" target="_top" xlink:title=" ">
<polygon fill="none" stroke="black" points="13,-49.5 13,-79.5 190,-79.5 190,-49.5 13,-49.5"/>
<text text-anchor="start" x="21" y="-67.5" font-family="Helvetica,sans-Serif" font-size="10.00">aopp_deconv_tool.graphical</text>
<text text-anchor="middle" x="101.5" y="-56.5" font-family="Helvetica,sans-Serif" font-size="10.00">_frontends.ssa_filtering.BasePlot</text>
</a>
</g>
</g>
<!-- Node2&#45;&gt;Node1 -->
<g id="edge1" class="edge">
<title>Node2&#45;&gt;Node1</title>
<path fill="none" stroke="midnightblue" d="M200.44,-53.47C213.24,-52.03 226.27,-50.56 238.85,-49.15"/>
<polygon fill="midnightblue" stroke="midnightblue" points="199.79,-50.02 190.24,-54.62 200.57,-56.98 199.79,-50.02"/>
</g>
<!-- Node3 -->
<g id="node3" class="node">
<title>Node3</title>
<g id="a_node3"><a xlink:href="../../d3/d42/classaopp__deconv__tool_1_1graphical__frontends_1_1ssa__filtering_1_1CallbackMixin.html" target="_top" xlink:title=" ">
<polygon fill="none" stroke="black" points="0,-0.5 0,-30.5 203,-30.5 203,-0.5 0,-0.5"/>
<text text-anchor="start" x="8" y="-18.5" font-family="Helvetica,sans-Serif" font-size="10.00">aopp_deconv_tool.graphical</text>
<text text-anchor="middle" x="101.5" y="-7.5" font-family="Helvetica,sans-Serif" font-size="10.00">_frontends.ssa_filtering.CallbackMixin</text>
</a>
</g>
</g>
<!-- Node3&#45;&gt;Node1 -->
<g id="edge2" class="edge">
<title>Node3&#45;&gt;Node1</title>
<path fill="none" stroke="midnightblue" d="M213.2,-27.47C221.81,-28.4 230.42,-29.33 238.83,-30.24"/>
<polygon fill="midnightblue" stroke="midnightblue" points="213.43,-23.97 203.11,-26.38 212.67,-30.93 213.43,-23.97"/>
</g>
</g>
</svg>
