<?xml version="1.0" encoding="UTF-8" standalone="no"?>
<!DOCTYPE svg PUBLIC "-//W3C//DTD SVG 1.1//EN"
 "http://www.w3.org/Graphics/SVG/1.1/DTD/svg11.dtd">
<!-- Generated by graphviz version 2.43.0 (0)
 -->
<!-- Title: aopp_deconv_tool.numpy_helper.array.offsets_manhattan_distance Pages: 1 -->
<svg width="328pt" height="170pt"
 viewBox="0.00 0.00 328.00 170.00" xmlns="http://www.w3.org/2000/svg" xmlns:xlink="http://www.w3.org/1999/xlink">
<g id="graph0" class="graph" transform="scale(1 1) rotate(0) translate(4 166)">
<title>aopp_deconv_tool.numpy_helper.array.offsets_manhattan_distance</title>
<!-- Node1 -->
<g id="node1" class="node">
<title>Node1</title>
<g id="a_node1"><a xlink:title=" ">
<polygon fill="#bfbfbf" stroke="black" points="0,-60.5 0,-101.5 142,-101.5 142,-60.5 0,-60.5"/>
<text text-anchor="start" x="8" y="-89.5" font-family="Helvetica,sans-Serif" font-size="10.00">aopp_deconv_tool.numpy</text>
<text text-anchor="start" x="8" y="-78.5" font-family="Helvetica,sans-Serif" font-size="10.00">_helper.array.offsets</text>
<text text-anchor="middle" x="71" y="-67.5" font-family="Helvetica,sans-Serif" font-size="10.00">_manhattan_distance</text>
</a>
</g>
</g>
<!-- Node2 -->
<g id="node2" class="node">
<title>Node2</title>
<g id="a_node2"><a xlink:href="../../d2/d57/namespaceaopp__deconv__tool_1_1numpy__helper_1_1array.html#aa5f4cb491e4aac836ae3356b9fd0ffab" target="_top" xlink:title=" ">
<polygon fill="none" stroke="black" points="178,-120.5 178,-161.5 320,-161.5 320,-120.5 178,-120.5"/>
<text text-anchor="start" x="186" y="-149.5" font-family="Helvetica,sans-Serif" font-size="10.00">aopp_deconv_tool.numpy</text>
<text text-anchor="start" x="186" y="-138.5" font-family="Helvetica,sans-Serif" font-size="10.00">_helper.array.manhattan</text>
<text text-anchor="middle" x="249" y="-127.5" font-family="Helvetica,sans-Serif" font-size="10.00">_distance_mask</text>
</a>
</g>
</g>
<!-- Node1&#45;&gt;Node2 -->
<g id="edge1" class="edge">
<title>Node1&#45;&gt;Node2</title>
<path fill="none" stroke="midnightblue" d="M132.57,-101.65C147.17,-106.63 162.89,-111.99 177.89,-117.1"/>
<polygon fill="midnightblue" stroke="midnightblue" points="177.02,-120.5 187.62,-120.42 179.28,-113.88 177.02,-120.5"/>
</g>
<!-- Node3 -->
<g id="node3" class="node">
<title>Node3</title>
<g id="a_node3"><a xlink:href="../../d2/d57/namespaceaopp__deconv__tool_1_1numpy__helper_1_1array.html#a9805b57f8805d2b1c95c20b61658d502" target="_top" xlink:title=" ">
<polygon fill="none" stroke="black" points="178,-60.5 178,-101.5 320,-101.5 320,-60.5 178,-60.5"/>
<text text-anchor="start" x="186" y="-89.5" font-family="Helvetica,sans-Serif" font-size="10.00">aopp_deconv_tool.numpy</text>
<text text-anchor="start" x="186" y="-78.5" font-family="Helvetica,sans-Serif" font-size="10.00">_helper.array.offsets</text>
<text text-anchor="middle" x="249" y="-67.5" font-family="Helvetica,sans-Serif" font-size="10.00">_from_centre_of_mask</text>
</a>
</g>
</g>
<!-- Node1&#45;&gt;Node3 -->
<g id="edge2" class="edge">
<title>Node1&#45;&gt;Node3</title>
<path fill="none" stroke="midnightblue" d="M142.07,-81C150.54,-81 159.25,-81 167.85,-81"/>
<polygon fill="midnightblue" stroke="midnightblue" points="167.89,-84.5 177.89,-81 167.89,-77.5 167.89,-84.5"/>
</g>
<!-- Node4 -->
<g id="node4" class="node">
<title>Node4</title>
<g id="a_node4"><a xlink:href="../../d2/d57/namespaceaopp__deconv__tool_1_1numpy__helper_1_1array.html#ae30bc38247094049655d9e571a8c5eeb" target="_top" xlink:title=" ">
<polygon fill="none" stroke="black" points="178,-0.5 178,-41.5 320,-41.5 320,-0.5 178,-0.5"/>
<text text-anchor="start" x="186" y="-29.5" font-family="Helvetica,sans-Serif" font-size="10.00">aopp_deconv_tool.numpy</text>
<text text-anchor="start" x="186" y="-18.5" font-family="Helvetica,sans-Serif" font-size="10.00">_helper.array.offsets</text>
<text text-anchor="middle" x="249" y="-7.5" font-family="Helvetica,sans-Serif" font-size="10.00">_from_point</text>
</a>
</g>
</g>
<!-- Node1&#45;&gt;Node4 -->
<g id="edge3" class="edge">
<title>Node1&#45;&gt;Node4</title>
<path fill="none" stroke="midnightblue" d="M132.57,-60.35C147.17,-55.37 162.89,-50.01 177.89,-44.9"/>
<polygon fill="midnightblue" stroke="midnightblue" points="179.28,-48.12 187.62,-41.58 177.02,-41.5 179.28,-48.12"/>
</g>
</g>
</svg>
