<?xml version="1.0" encoding="UTF-8" standalone="no"?>
<!DOCTYPE svg PUBLIC "-//W3C//DTD SVG 1.1//EN"
 "http://www.w3.org/Graphics/SVG/1.1/DTD/svg11.dtd">
<!-- Generated by graphviz version 2.43.0 (0)
 -->
<!-- Title: aopp_deconv_tool.psf_model.dependency_injector.params_and_psf_model_di.ParamsAndPsfModelDependencyInjector Pages: 1 -->
<svg width="570pt" height="274pt"
 viewBox="0.00 0.00 570.00 274.00" xmlns="http://www.w3.org/2000/svg" xmlns:xlink="http://www.w3.org/1999/xlink">
<g id="graph0" class="graph" transform="scale(1 1) rotate(0) translate(4 270)">
<title>aopp_deconv_tool.psf_model.dependency_injector.params_and_psf_model_di.ParamsAndPsfModelDependencyInjector</title>
<!-- Node1 -->
<g id="node1" class="node">
<title>Node1</title>
<g id="a_node1"><a xlink:title=" ">
<polygon fill="#bfbfbf" stroke="black" points="0,-106.5 0,-158.5 275,-158.5 275,-106.5 0,-106.5"/>
<text text-anchor="start" x="8" y="-146.5" font-family="Helvetica,sans-Serif" font-size="10.00">aopp_deconv_tool.psf</text>
<text text-anchor="start" x="8" y="-135.5" font-family="Helvetica,sans-Serif" font-size="10.00">_model.dependency_injector.params</text>
<text text-anchor="start" x="8" y="-124.5" font-family="Helvetica,sans-Serif" font-size="10.00">_and_psf_model_di.ParamsAndPsfModelDependency</text>
<text text-anchor="middle" x="137.5" y="-113.5" font-family="Helvetica,sans-Serif" font-size="10.00">Injector</text>
</a>
</g>
</g>
<!-- Node2 -->
<g id="node2" class="node">
<title>Node2</title>
<g id="a_node2"><a xlink:href="../../d1/d9c/classaopp__deconv__tool_1_1psf__model_1_1dependency__injector_1_1adaptive__optics__psf__model__d294521e194e6a71ff5836ee8df9e3bea.html" target="_top" xlink:title=" ">
<polygon fill="none" stroke="black" points="323,-213.5 323,-265.5 550,-265.5 550,-213.5 323,-213.5"/>
<text text-anchor="start" x="331" y="-253.5" font-family="Helvetica,sans-Serif" font-size="10.00">aopp_deconv_tool.psf</text>
<text text-anchor="start" x="331" y="-242.5" font-family="Helvetica,sans-Serif" font-size="10.00">_model.dependency_injector.adaptive</text>
<text text-anchor="start" x="331" y="-231.5" font-family="Helvetica,sans-Serif" font-size="10.00">_optics_psf_model_di.MUSEAdaptiveOptics</text>
<text text-anchor="middle" x="436.5" y="-220.5" font-family="Helvetica,sans-Serif" font-size="10.00">PSFModelDependencyInjector</text>
</a>
</g>
</g>
<!-- Node1&#45;&gt;Node2 -->
<g id="edge1" class="edge">
<title>Node1&#45;&gt;Node2</title>
<path fill="none" stroke="midnightblue" d="M205.28,-162.6C236.97,-176.3 275.57,-192.18 311,-204.5 319.8,-207.56 329.02,-210.55 338.29,-213.41"/>
<polygon fill="midnightblue" stroke="midnightblue" points="206.67,-159.39 196.11,-158.61 203.88,-165.81 206.67,-159.39"/>
</g>
<!-- Node3 -->
<g id="node3" class="node">
<title>Node3</title>
<g id="a_node3"><a xlink:href="../../df/df8/classaopp__deconv__tool_1_1psf__model_1_1dependency__injector_1_1gaussian__psf__model__di_1_1GaussianPSFModelDependencyInjector.html" target="_top" xlink:title=" ">
<polygon fill="none" stroke="black" points="314.5,-142.5 314.5,-194.5 558.5,-194.5 558.5,-142.5 314.5,-142.5"/>
<text text-anchor="start" x="322.5" y="-182.5" font-family="Helvetica,sans-Serif" font-size="10.00">aopp_deconv_tool.psf</text>
<text text-anchor="start" x="322.5" y="-171.5" font-family="Helvetica,sans-Serif" font-size="10.00">_model.dependency_injector.gaussian</text>
<text text-anchor="start" x="322.5" y="-160.5" font-family="Helvetica,sans-Serif" font-size="10.00">_psf_model_di.GaussianPSFModelDependency</text>
<text text-anchor="middle" x="436.5" y="-149.5" font-family="Helvetica,sans-Serif" font-size="10.00">Injector</text>
</a>
</g>
</g>
<!-- Node1&#45;&gt;Node3 -->
<g id="edge2" class="edge">
<title>Node1&#45;&gt;Node3</title>
<path fill="none" stroke="midnightblue" d="M285.41,-150.31C295.15,-151.49 304.91,-152.67 314.5,-153.83"/>
<polygon fill="midnightblue" stroke="midnightblue" points="285.61,-146.81 275.26,-149.08 284.77,-153.76 285.61,-146.81"/>
</g>
<!-- Node4 -->
<g id="node4" class="node">
<title>Node4</title>
<g id="a_node4"><a xlink:href="../../d4/de4/classaopp__deconv__tool_1_1psf__model_1_1dependency__injector_1_1radial__psf__model__di_1_1RadialPSFModelDependencyInjector.html" target="_top" xlink:title=" ">
<polygon fill="none" stroke="black" points="321.5,-71.5 321.5,-123.5 551.5,-123.5 551.5,-71.5 321.5,-71.5"/>
<text text-anchor="start" x="329.5" y="-111.5" font-family="Helvetica,sans-Serif" font-size="10.00">aopp_deconv_tool.psf</text>
<text text-anchor="start" x="329.5" y="-100.5" font-family="Helvetica,sans-Serif" font-size="10.00">_model.dependency_injector.radial</text>
<text text-anchor="start" x="329.5" y="-89.5" font-family="Helvetica,sans-Serif" font-size="10.00">_psf_model_di.RadialPSFModelDependency</text>
<text text-anchor="middle" x="436.5" y="-78.5" font-family="Helvetica,sans-Serif" font-size="10.00">Injector</text>
</a>
</g>
</g>
<!-- Node1&#45;&gt;Node4 -->
<g id="edge3" class="edge">
<title>Node1&#45;&gt;Node4</title>
<path fill="none" stroke="midnightblue" d="M285.37,-115.19C297.42,-113.77 309.48,-112.35 321.24,-110.97"/>
<polygon fill="midnightblue" stroke="midnightblue" points="284.79,-111.74 275.26,-116.38 285.61,-118.69 284.79,-111.74"/>
</g>
<!-- Node5 -->
<g id="node5" class="node">
<title>Node5</title>
<g id="a_node5"><a xlink:href="../../da/dfa/classaopp__deconv__tool_1_1psf__model_1_1dependency__injector_1_1turbulence__psf__model__di_1_1T36ef1ba1189ed5977de0cafe54c1f0eb.html" target="_top" xlink:title=" ">
<polygon fill="none" stroke="black" points="311,-0.5 311,-52.5 562,-52.5 562,-0.5 311,-0.5"/>
<text text-anchor="start" x="319" y="-40.5" font-family="Helvetica,sans-Serif" font-size="10.00">aopp_deconv_tool.psf</text>
<text text-anchor="start" x="319" y="-29.5" font-family="Helvetica,sans-Serif" font-size="10.00">_model.dependency_injector.turbulence</text>
<text text-anchor="start" x="319" y="-18.5" font-family="Helvetica,sans-Serif" font-size="10.00">_psf_model_di.TurbulencePSFModelDependency</text>
<text text-anchor="middle" x="436.5" y="-7.5" font-family="Helvetica,sans-Serif" font-size="10.00">Injector</text>
</a>
</g>
</g>
<!-- Node1&#45;&gt;Node5 -->
<g id="edge4" class="edge">
<title>Node1&#45;&gt;Node5</title>
<path fill="none" stroke="midnightblue" d="M207.68,-102.51C238.95,-89.45 276.54,-74.44 311,-62.5 320.78,-59.11 331.06,-55.78 341.36,-52.59"/>
<polygon fill="midnightblue" stroke="midnightblue" points="206.06,-99.39 198.19,-106.49 208.77,-105.85 206.06,-99.39"/>
</g>
</g>
</svg>
