<?xml version="1.0" encoding="UTF-8" standalone="no"?>
<!DOCTYPE svg PUBLIC "-//W3C//DTD SVG 1.1//EN"
 "http://www.w3.org/Graphics/SVG/1.1/DTD/svg11.dtd">
<!-- Generated by graphviz version 2.43.0 (0)
 -->
<!-- Title: aopp_deconv_tool.psf_model.dependency_injector.params_and_psf_model_di.ParamsAndPsfModelDependencyInjector Pages: 1 -->
<!--zoomable 270 -->

<svg id="main" version="1.1" xmlns="http://www.w3.org/2000/svg" xmlns:xlink="http://www.w3.org/1999/xlink" xml:space="preserve" onload="init(evt)">
<style type="text/css"><![CDATA[
.node, .edge {opacity: 0.7;}
.node.selected, .edge.selected {opacity: 1;}
.edge:hover path { stroke: red; }
.edge:hover polygon { stroke: red; fill: red; }
]]></style>

<defs>
  <circle id="rim" cx="0" cy="0" r="7"/>
  <circle id="rim2" cx="0" cy="0" r="3.5"/>
  <g id="zoomPlus">
    <use xlink:href="#rim" fill="#404040"><set attributeName="fill" to="#808080" begin="zoomplus.mouseover" end="zoomplus.mouseout"/></use>
    <path d="M-4,0h8M0,-4v8" fill="none" stroke="white" stroke-width="1.5" pointer-events="none"/>
  </g>
  <g id="zoomMin">
    <use xlink:href="#rim" fill="#404040"><set attributeName="fill" to="#808080" begin="zoomminus.mouseover" end="zoomminus.mouseout"/></use>
    <path d="M-4,0h8" fill="none" stroke="white" stroke-width="1.5" pointer-events="none"/>
  </g>
  <g id="arrowUp" transform="translate(30 24)">
    <use xlink:href="#rim"/>
    <path pointer-events="none" fill="none" stroke="white" stroke-width="1.5" d="M0,-3.0v7 M-2.5,-0.5L0,-3.0L2.5,-0.5"/>
  </g>
  <g id="arrowRight" transform="rotate(90) translate(36 -43)">
    <use xlink:href="#rim"/>
    <path pointer-events="none" fill="none" stroke="white" stroke-width="1.5" d="M0,-3.0v7 M-2.5,-0.5L0,-3.0L2.5,-0.5"/>
  </g>
  <g id="arrowDown" transform="rotate(180) translate(-30 -48)">
    <use xlink:href="#rim"/>
    <path pointer-events="none" fill="none" stroke="white" stroke-width="1.5" d="M0,-3.0v7 M-2.5,-0.5L0,-3.0L2.5,-0.5"/>
  </g>
  <g id="arrowLeft" transform="rotate(270) translate(-36 17)">
    <use xlink:href="#rim"/>
    <path pointer-events="none" fill="none" stroke="white" stroke-width="1.5" d="M0,-3.0v7 M-2.5,-0.5L0,-3.0L2.5,-0.5"/>
  </g>
  <g id="resetDef">
    <use xlink:href="#rim2" fill="#404040"><set attributeName="fill" to="#808080" begin="reset.mouseover" end="reset.mouseout"/></use>
  </g>
</defs>
<script type="application/ecmascript">
var viewWidth = 569;
var viewHeight = 270;
var sectionId = 'dynsection-0';
</script>
<script type="application/ecmascript" xlink:href="../../svg.min.js"/>
<svg id="graph" class="graph">
<g id="viewport">
<title>aopp_deconv_tool.psf_model.dependency_injector.params_and_psf_model_di.ParamsAndPsfModelDependencyInjector</title>
<!-- Node1 -->
<g id="Node000001" class="node">
<title>Node1</title>
<g id="a_Node000001"><a xlink:title=" ">
<polygon fill="#999999" stroke="#666666" points="274,-157 0,-157 0,-105 274,-105 274,-157"/>
<text text-anchor="start" x="8" y="-145" font-family="Helvetica,sans-Serif" font-size="10.00">aopp_deconv_tool.psf</text>
<text text-anchor="start" x="8" y="-134" font-family="Helvetica,sans-Serif" font-size="10.00">_model.dependency_injector.params</text>
<text text-anchor="start" x="8" y="-123" font-family="Helvetica,sans-Serif" font-size="10.00">_and_psf_model_di.ParamsAndPsfModelDependency</text>
<text text-anchor="middle" x="137" y="-112" font-family="Helvetica,sans-Serif" font-size="10.00">Injector</text>
</a>
</g>
</g>
<!-- Node2 -->
<g id="Node000002" class="node">
<title>Node2</title>
<g id="a_Node000002"><a xlink:href="../../d1/d9c/classaopp__deconv__tool_1_1psf__model_1_1dependency__injector_1_1adaptive__optics__psf__model__d294521e194e6a71ff5836ee8df9e3bea.html" target="_top" xlink:title=" ">
<polygon fill="white" stroke="#666666" points="549,-262 322,-262 322,-210 549,-210 549,-262"/>
<text text-anchor="start" x="330" y="-250" font-family="Helvetica,sans-Serif" font-size="10.00">aopp_deconv_tool.psf</text>
<text text-anchor="start" x="330" y="-239" font-family="Helvetica,sans-Serif" font-size="10.00">_model.dependency_injector.adaptive</text>
<text text-anchor="start" x="330" y="-228" font-family="Helvetica,sans-Serif" font-size="10.00">_optics_psf_model_di.MUSEAdaptiveOptics</text>
<text text-anchor="middle" x="435.5" y="-217" font-family="Helvetica,sans-Serif" font-size="10.00">PSFModelDependencyInjector</text>
</a>
</g>
</g>
<!-- Node1&#45;&gt;Node2 -->
<g id="edge1_Node000001_Node000002" class="edge">
<title>Node1&#45;&gt;Node2</title>
<g id="a_edge1_Node000001_Node000002"><a xlink:title=" ">
<path fill="none" stroke="#63b8ff" d="M206.93,-161.12C238.1,-174.21 275.59,-189.2 310,-201 318.92,-204.06 328.26,-207.06 337.65,-209.93"/>
<polygon fill="#63b8ff" stroke="#63b8ff" points="208.05,-157.8 197.47,-157.13 205.32,-164.24 208.05,-157.8"/>
</a>
</g>
</g>
<!-- Node3 -->
<g id="Node000003" class="node">
<title>Node3</title>
<g id="a_Node000003"><a xlink:href="../../df/df8/classaopp__deconv__tool_1_1psf__model_1_1dependency__injector_1_1gaussian__psf__model__di_1_1GaussianPSFModelDependencyInjector.html" target="_top" xlink:title=" ">
<polygon fill="white" stroke="#666666" points="557.5,-192 313.5,-192 313.5,-140 557.5,-140 557.5,-192"/>
<text text-anchor="start" x="321.5" y="-180" font-family="Helvetica,sans-Serif" font-size="10.00">aopp_deconv_tool.psf</text>
<text text-anchor="start" x="321.5" y="-169" font-family="Helvetica,sans-Serif" font-size="10.00">_model.dependency_injector.gaussian</text>
<text text-anchor="start" x="321.5" y="-158" font-family="Helvetica,sans-Serif" font-size="10.00">_psf_model_di.GaussianPSFModelDependency</text>
<text text-anchor="middle" x="435.5" y="-147" font-family="Helvetica,sans-Serif" font-size="10.00">Injector</text>
</a>
</g>
</g>
<!-- Node1&#45;&gt;Node3 -->
<g id="edge2_Node000001_Node000003" class="edge">
<title>Node1&#45;&gt;Node3</title>
<g id="a_edge2_Node000001_Node000003"><a xlink:title=" ">
<path fill="none" stroke="#63b8ff" d="M284.25,-148.26C293.99,-149.41 303.75,-150.57 313.35,-151.7"/>
<polygon fill="#63b8ff" stroke="#63b8ff" points="284.44,-144.76 274.1,-147.07 283.62,-151.71 284.44,-144.76"/>
</a>
</g>
</g>
<!-- Node4 -->
<g id="Node000004" class="node">
<title>Node4</title>
<g id="a_Node000004"><a xlink:href="../../d4/de4/classaopp__deconv__tool_1_1psf__model_1_1dependency__injector_1_1radial__psf__model__di_1_1RadialPSFModelDependencyInjector.html" target="_top" xlink:title=" ">
<polygon fill="white" stroke="#666666" points="550.5,-122 320.5,-122 320.5,-70 550.5,-70 550.5,-122"/>
<text text-anchor="start" x="328.5" y="-110" font-family="Helvetica,sans-Serif" font-size="10.00">aopp_deconv_tool.psf</text>
<text text-anchor="start" x="328.5" y="-99" font-family="Helvetica,sans-Serif" font-size="10.00">_model.dependency_injector.radial</text>
<text text-anchor="start" x="328.5" y="-88" font-family="Helvetica,sans-Serif" font-size="10.00">_psf_model_di.RadialPSFModelDependency</text>
<text text-anchor="middle" x="435.5" y="-77" font-family="Helvetica,sans-Serif" font-size="10.00">Injector</text>
</a>
</g>
</g>
<!-- Node1&#45;&gt;Node4 -->
<g id="edge3_Node000001_Node000004" class="edge">
<title>Node1&#45;&gt;Node4</title>
<g id="a_edge3_Node000001_Node000004"><a xlink:title=" ">
<path fill="none" stroke="#63b8ff" d="M284.21,-113.74C296.26,-112.32 308.32,-110.89 320.09,-109.51"/>
<polygon fill="#63b8ff" stroke="#63b8ff" points="283.62,-110.29 274.1,-114.93 284.44,-117.24 283.62,-110.29"/>
</a>
</g>
</g>
<!-- Node5 -->
<g id="Node000005" class="node">
<title>Node5</title>
<g id="a_Node000005"><a xlink:href="../../da/dfa/classaopp__deconv__tool_1_1psf__model_1_1dependency__injector_1_1turbulence__psf__model__di_1_1T36ef1ba1189ed5977de0cafe54c1f0eb.html" target="_top" xlink:title=" ">
<polygon fill="white" stroke="#666666" points="561,-52 310,-52 310,0 561,0 561,-52"/>
<text text-anchor="start" x="318" y="-40" font-family="Helvetica,sans-Serif" font-size="10.00">aopp_deconv_tool.psf</text>
<text text-anchor="start" x="318" y="-29" font-family="Helvetica,sans-Serif" font-size="10.00">_model.dependency_injector.turbulence</text>
<text text-anchor="start" x="318" y="-18" font-family="Helvetica,sans-Serif" font-size="10.00">_psf_model_di.TurbulencePSFModelDependency</text>
<text text-anchor="middle" x="435.5" y="-7" font-family="Helvetica,sans-Serif" font-size="10.00">Injector</text>
</a>
</g>
</g>
<!-- Node1&#45;&gt;Node5 -->
<g id="edge4_Node000001_Node000005" class="edge">
<title>Node1&#45;&gt;Node5</title>
<g id="a_edge4_Node000001_Node000005"><a xlink:title=" ">
<path fill="none" stroke="#63b8ff" d="M206.93,-100.88C238.1,-87.79 275.59,-72.8 310,-61 318.92,-57.94 328.26,-54.94 337.65,-52.07"/>
<polygon fill="#63b8ff" stroke="#63b8ff" points="205.32,-97.76 197.47,-104.87 208.05,-104.2 205.32,-97.76"/>
</a>
</g>
</g>
</g>
</svg>

<g id="navigator" transform="translate(0 0)" fill="#404254">
  <rect fill="#f2f5e9" fill-opacity="0.5" stroke="#606060" stroke-width=".5" x="0" y="0" width="60" height="60"/>
  <use id="zoomplus" xlink:href="#zoomPlus" x="17" y="9" onmousedown="handleZoom(evt,'in')"/>
  <use id="zoomminus" xlink:href="#zoomMin" x="42" y="9" onmousedown="handleZoom(evt,'out')"/>
  <use id="reset" xlink:href="#resetDef" x="30" y="36" onmousedown="handleReset()"/>
   <use id="arrowup" xlink:href="#arrowUp" x="0" y="0" onmousedown="handlePan(0,-1)"/>
  <use id="arrowright" xlink:href="#arrowRight" x="0" y="0" onmousedown="handlePan(1,0)"/>
  <use id="arrowdown" xlink:href="#arrowDown" x="0" y="0" onmousedown="handlePan(0,1)"/>
  <use id="arrowleft" xlink:href="#arrowLeft" x="0" y="0" onmousedown="handlePan(-1,0)"/>
</g>
<svg viewBox="0 0 15 15" width="100%" height="30px" preserveAspectRatio="xMaxYMin meet">
 <g id="arrow_out" transform="scale(0.3 0.3)">
  <a xlink:href="classaopp__deconv__tool_1_1psf__model_1_1dependency__injector_1_1params__and__psf__model__di_1_11de2fc34877ade6ee2060bf0057c4e1e_org.svg" target="_base">
   <rect id="button" ry="5" rx="5" y="6" x="6" height="38" width="38"
        fill="#f2f5e9" fill-opacity="0.5" stroke="#606060" stroke-width="1.0"/>
   <path id="arrow"
     d="M 11.500037,31.436501 C 11.940474,20.09759 22.043105,11.32322 32.158766,21.979434 L 37.068811,17.246167 C 37.068811,17.246167 37.088388,32 37.088388,32 L 22.160133,31.978069 C 22.160133,31.978069 26.997745,27.140456 26.997745,27.140456 C 18.528582,18.264221 13.291696,25.230495 11.500037,31.436501 z"
     style="fill:#404040;"/>
  </a>
 </g>
</svg>

<style type='text/css'>
<![CDATA[
[data-mouse-over-selected='false'] { opacity: 0.7; }
[data-mouse-over-selected='true']  { opacity: 1.0; }
]]>
</style>
<script type="application/ecmascript"><![CDATA[
document.addEventListener('DOMContentLoaded', (event) => {
  highlightEdges();
  highlightAdjacentNodes();
});
]]></script>
</svg>
