<?xml version="1.0" encoding="UTF-8" standalone="no"?>
<!DOCTYPE svg PUBLIC "-//W3C//DTD SVG 1.1//EN"
 "http://www.w3.org/Graphics/SVG/1.1/DTD/svg11.dtd">
<!-- Generated by graphviz version 2.43.0 (0)
 -->
<!-- Title: aopp_deconv_tool.optimise_compat.PriorParam Pages: 1 -->
<svg width="281pt" height="115pt"
 viewBox="0.00 0.00 280.50 115.00" xmlns="http://www.w3.org/2000/svg" xmlns:xlink="http://www.w3.org/1999/xlink">
<g id="graph0" class="graph" transform="scale(1 1) rotate(0) translate(4 111)">
<title>aopp_deconv_tool.optimise_compat.PriorParam</title>
<!-- Node1 -->
<g id="Node000001" class="node">
<title>Node1</title>
<g id="a_Node000001"><a xlink:title=" ">
<polygon fill="#999999" stroke="#666666" points="202,-30 51,-30 51,0 202,0 202,-30"/>
<text text-anchor="start" x="59" y="-18" font-family="Helvetica,sans-Serif" font-size="10.00">aopp_deconv_tool.optimise</text>
<text text-anchor="middle" x="126.5" y="-7" font-family="Helvetica,sans-Serif" font-size="10.00">_compat.PriorParam</text>
</a>
</g>
</g>
<!-- Node2 -->
<g id="Node000002" class="node">
<title>Node2</title>
<g id="a_Node000002"><a xlink:title=" ">
<polygon fill="white" stroke="#666666" points="29,-107 0,-107 0,-88 29,-88 29,-107"/>
<text text-anchor="middle" x="14.5" y="-95" font-family="Helvetica,sans-Serif" font-size="10.00">str</text>
</a>
</g>
</g>
<!-- Node2&#45;&gt;Node1 -->
<g id="edge1_Node000001_Node000002" class="edge">
<title>Node2&#45;&gt;Node1</title>
<g id="a_edge1_Node000001_Node000002"><a xlink:title=" ">
<path fill="none" stroke="#9a32cd" stroke-dasharray="5,2" d="M16.64,-77.56C18.68,-67.59 22.68,-55.85 30.5,-48 38.07,-40.41 47.48,-34.62 57.42,-30.2"/>
<polygon fill="#9a32cd" stroke="#9a32cd" points="13.13,-77.33 15.06,-87.75 20.05,-78.4 13.13,-77.33"/>
</a>
</g>
<text text-anchor="middle" x="59.5" y="-62" font-family="Helvetica,sans-Serif" font-size="10.00" fill="grey"> description</text>
<text text-anchor="middle" x="59.5" y="-51" font-family="Helvetica,sans-Serif" font-size="10.00" fill="grey">name</text>
</g>
<!-- Node3 -->
<g id="Node000003" class="node">
<title>Node3</title>
<g id="a_Node000003"><a xlink:title=" ">
<polygon fill="white" stroke="#666666" points="116,-107 75,-107 75,-88 116,-88 116,-107"/>
<text text-anchor="middle" x="95.5" y="-95" font-family="Helvetica,sans-Serif" font-size="10.00">tuple</text>
</a>
</g>
</g>
<!-- Node3&#45;&gt;Node1 -->
<g id="edge2_Node000001_Node000003" class="edge">
<title>Node3&#45;&gt;Node1</title>
<g id="a_edge2_Node000001_Node000003"><a xlink:title=" ">
<path fill="none" stroke="#9a32cd" stroke-dasharray="5,2" d="M92.81,-77.77C92.23,-68.5 92.7,-57.32 96.5,-48 99.2,-41.37 103.96,-35.3 108.91,-30.26"/>
<polygon fill="#9a32cd" stroke="#9a32cd" points="89.35,-78.32 93.88,-87.89 96.31,-77.58 89.35,-78.32"/>
</a>
</g>
<text text-anchor="middle" x="116.5" y="-56.5" font-family="Helvetica,sans-Serif" font-size="10.00" fill="grey"> domain</text>
</g>
<!-- Node4 -->
<g id="Node000004" class="node">
<title>Node4</title>
<g id="a_Node000004"><a xlink:title=" ">
<polygon fill="white" stroke="#666666" points="177.5,-107 139.5,-107 139.5,-88 177.5,-88 177.5,-107"/>
<text text-anchor="middle" x="158.5" y="-95" font-family="Helvetica,sans-Serif" font-size="10.00">bool</text>
</a>
</g>
</g>
<!-- Node4&#45;&gt;Node1 -->
<g id="edge3_Node000001_Node000004" class="edge">
<title>Node4&#45;&gt;Node1</title>
<g id="a_edge3_Node000001_Node000004"><a xlink:title=" ">
<path fill="none" stroke="#9a32cd" stroke-dasharray="5,2" d="M151.33,-78.45C145.53,-63.88 137.49,-43.66 132.15,-30.22"/>
<polygon fill="#9a32cd" stroke="#9a32cd" points="148.13,-79.89 155.08,-87.89 154.63,-77.3 148.13,-79.89"/>
</a>
</g>
<text text-anchor="middle" x="168" y="-56.5" font-family="Helvetica,sans-Serif" font-size="10.00" fill="grey"> is_const</text>
</g>
<!-- Node5 -->
<g id="Node000005" class="node">
<title>Node5</title>
<g id="a_Node000005"><a xlink:title=" ">
<polygon fill="white" stroke="#666666" points="243.5,-107 205.5,-107 205.5,-88 243.5,-88 243.5,-107"/>
<text text-anchor="middle" x="224.5" y="-95" font-family="Helvetica,sans-Serif" font-size="10.00">float</text>
</a>
</g>
</g>
<!-- Node5&#45;&gt;Node1 -->
<g id="edge4_Node000001_Node000005" class="edge">
<title>Node5&#45;&gt;Node1</title>
<g id="a_edge4_Node000001_Node000005"><a xlink:title=" ">
<path fill="none" stroke="#9a32cd" stroke-dasharray="5,2" d="M216.31,-78.84C210.96,-68.79 203.16,-56.54 193.5,-48 185.29,-40.74 175.15,-34.78 165.26,-30.05"/>
<polygon fill="#9a32cd" stroke="#9a32cd" points="213.25,-80.54 220.84,-87.94 219.52,-77.43 213.25,-80.54"/>
</a>
</g>
<text text-anchor="middle" x="241.5" y="-56.5" font-family="Helvetica,sans-Serif" font-size="10.00" fill="grey"> const_value</text>
</g>
</g>
</svg>
