<?xml version="1.0" encoding="UTF-8" standalone="no"?>
<!DOCTYPE svg PUBLIC "-//W3C//DTD SVG 1.1//EN"
 "http://www.w3.org/Graphics/SVG/1.1/DTD/svg11.dtd">
<!-- Generated by graphviz version 2.43.0 (0)
 -->
<!-- Title: aopp_deconv_tool.plot_helper.plotters.PlotSet Pages: 1 -->
<svg width="379pt" height="159pt"
 viewBox="0.00 0.00 378.50 159.00" xmlns="http://www.w3.org/2000/svg" xmlns:xlink="http://www.w3.org/1999/xlink">

<svg id="main" version="1.1" xmlns="http://www.w3.org/2000/svg" xmlns:xlink="http://www.w3.org/1999/xlink" xml:space="preserve" onload="init(evt)">
<style type="text/css"><![CDATA[
.node, .edge {opacity: 0.7;}
.node.selected, .edge.selected {opacity: 1;}
.edge:hover path { stroke: red; }
.edge:hover polygon { stroke: red; fill: red; }
]]></style>
<script type="application/ecmascript" xlink:href="../../svg.min.js"/>
<svg id="graph" class="graph">
<g id="graph0" class="graph" transform="scale(1 1) rotate(0) translate(4 155)">
<title>aopp_deconv_tool.plot_helper.plotters.PlotSet</title>
<!-- Node1 -->
<g id="Node000001" class="node">
<title>Node1</title>
<g id="a_Node000001"><a xlink:title=" ">
<polygon fill="#999999" stroke="#666666" points="207.5,-30 77.5,-30 77.5,0 207.5,0 207.5,-30"/>
<text text-anchor="start" x="85.5" y="-18" font-family="Helvetica,sans-Serif" font-size="10.00">aopp_deconv_tool.plot</text>
<text text-anchor="middle" x="142.5" y="-7" font-family="Helvetica,sans-Serif" font-size="10.00">_helper.plotters.PlotSet</text>
</a>
</g>
</g>
<!-- Node2 -->
<g id="Node000002" class="node">
<title>Node2</title>
<g id="a_Node000002"><a xlink:title=" ">
<polygon fill="white" stroke="#666666" points="35,-151 0,-151 0,-132 35,-132 35,-151"/>
<text text-anchor="middle" x="17.5" y="-139" font-family="Helvetica,sans-Serif" font-size="10.00">mpl</text>
</a>
</g>
</g>
<!-- Node2&#45;&gt;Node1 -->
<g id="edge1_Node000001_Node000002" class="edge">
<title>Node2&#45;&gt;Node1</title>
<g id="a_edge1_Node000001_Node000002"><a xlink:title=" ">
<path fill="none" stroke="#9a32cd" stroke-dasharray="5,2" d="M18.47,-121.71C20.52,-100.99 26.9,-67.96 46.5,-48 54.99,-39.35 65.88,-33.04 77.26,-28.44"/>
<polygon fill="#9a32cd" stroke="#9a32cd" points="14.97,-121.56 17.71,-131.79 21.95,-122.08 14.97,-121.56"/>
</a>
</g>
<text text-anchor="middle" x="54.5" y="-78.5" font-family="Helvetica,sans-Serif" font-size="10.00" fill="grey"> fig</text>
</g>
<!-- Node3 -->
<g id="Node000003" class="node">
<title>Node3</title>
<g id="a_Node000003"><a xlink:title=" ">
<polygon fill="white" stroke="#666666" points="82,-151 53,-151 53,-132 82,-132 82,-151"/>
<text text-anchor="middle" x="67.5" y="-139" font-family="Helvetica,sans-Serif" font-size="10.00">str</text>
</a>
</g>
</g>
<!-- Node3&#45;&gt;Node1 -->
<g id="edge2_Node000001_Node000003" class="edge">
<title>Node3&#45;&gt;Node1</title>
<g id="a_edge2_Node000001_Node000003"><a xlink:title=" ">
<path fill="none" stroke="#9a32cd" stroke-dasharray="5,2" d="M66.71,-121.9C66.8,-101.83 69.73,-69.83 85.5,-48 90.82,-40.64 98.38,-34.76 106.26,-30.14"/>
<polygon fill="#9a32cd" stroke="#9a32cd" points="63.21,-121.99 66.91,-131.92 70.21,-121.86 63.21,-121.99"/>
</a>
</g>
<text text-anchor="middle" x="97" y="-78.5" font-family="Helvetica,sans-Serif" font-size="10.00" fill="grey"> title</text>
</g>
<!-- Node4 -->
<g id="Node000004" class="node">
<title>Node4</title>
<g id="a_Node000004"><a xlink:title=" ">
<polygon fill="white" stroke="#666666" points="132.5,-151 100.5,-151 100.5,-132 132.5,-132 132.5,-151"/>
<text text-anchor="middle" x="116.5" y="-139" font-family="Helvetica,sans-Serif" font-size="10.00">list</text>
</a>
</g>
</g>
<!-- Node4&#45;&gt;Node1 -->
<g id="edge3_Node000001_Node000004" class="edge">
<title>Node4&#45;&gt;Node1</title>
<g id="a_edge3_Node000001_Node000004"><a xlink:title=" ">
<path fill="none" stroke="#9a32cd" stroke-dasharray="5,2" d="M113.98,-121.71C112.13,-102.61 111.19,-72.43 119.5,-48 121.66,-41.65 125.54,-35.47 129.5,-30.27"/>
<polygon fill="#9a32cd" stroke="#9a32cd" points="110.52,-122.25 115.14,-131.79 117.47,-121.45 110.52,-122.25"/>
</a>
</g>
<text text-anchor="middle" x="133.5" y="-78.5" font-family="Helvetica,sans-Serif" font-size="10.00" fill="grey"> plots</text>
</g>
<!-- Node5 -->
<g id="Node000005" class="node">
<title>Node5</title>
<g id="a_Node000005"><a xlink:title=" ">
<polygon fill="white" stroke="#666666" points="188.5,-151 150.5,-151 150.5,-132 188.5,-132 188.5,-151"/>
<text text-anchor="middle" x="169.5" y="-139" font-family="Helvetica,sans-Serif" font-size="10.00">bool</text>
</a>
</g>
</g>
<!-- Node5&#45;&gt;Node1 -->
<g id="edge4_Node000001_Node000005" class="edge">
<title>Node5&#45;&gt;Node1</title>
<g id="a_edge4_Node000001_Node000005"><a xlink:title=" ">
<path fill="none" stroke="#9a32cd" stroke-dasharray="5,2" d="M165.47,-121.91C160.03,-96.83 150.46,-52.72 145.57,-30.16"/>
<polygon fill="#9a32cd" stroke="#9a32cd" points="162.1,-122.91 167.64,-131.94 168.95,-121.43 162.1,-122.91"/>
</a>
</g>
<text text-anchor="middle" x="173" y="-78.5" font-family="Helvetica,sans-Serif" font-size="10.00" fill="grey"> blit</text>
</g>
<!-- Node6 -->
<g id="Node000006" class="node">
<title>Node6</title>
<g id="a_Node000006"><a xlink:title=" ">
<polygon fill="white" stroke="#666666" points="236,-151 207,-151 207,-132 236,-132 236,-151"/>
<text text-anchor="middle" x="221.5" y="-139" font-family="Helvetica,sans-Serif" font-size="10.00">int</text>
</a>
</g>
</g>
<!-- Node6&#45;&gt;Node1 -->
<g id="edge5_Node000001_Node000006" class="edge">
<title>Node6&#45;&gt;Node1</title>
<g id="a_edge5_Node000001_Node000006"><a xlink:title=" ">
<path fill="none" stroke="#9a32cd" stroke-dasharray="5,2" d="M217.79,-121.84C213.12,-101.96 203.56,-70.35 186.5,-48 181.23,-41.09 174.06,-35.02 167.05,-30.07"/>
<polygon fill="#9a32cd" stroke="#9a32cd" points="214.4,-122.75 219.95,-131.78 221.24,-121.27 214.4,-122.75"/>
</a>
</g>
<text text-anchor="middle" x="238.5" y="-84" font-family="Helvetica,sans-Serif" font-size="10.00" fill="grey"> cadence</text>
<text text-anchor="middle" x="238.5" y="-73" font-family="Helvetica,sans-Serif" font-size="10.00" fill="grey">n_frames</text>
</g>
<!-- Node7 -->
<g id="Node000007" class="node">
<title>Node7</title>
<g id="a_Node000007"><a xlink:title=" ">
<polygon fill="white" stroke="#666666" points="303,-151 268,-151 268,-132 303,-132 303,-151"/>
<text text-anchor="middle" x="285.5" y="-139" font-family="Helvetica,sans-Serif" font-size="10.00">Any</text>
</a>
</g>
</g>
<!-- Node7&#45;&gt;Node1 -->
<g id="edge6_Node000001_Node000007" class="edge">
<title>Node7&#45;&gt;Node1</title>
<g id="a_edge6_Node000001_Node000007"><a xlink:title=" ">
<path fill="none" stroke="#9a32cd" stroke-dasharray="5,2" d="M286.35,-121.6C286.21,-100.77 282.66,-67.64 263.5,-48 248.78,-32.91 227.85,-24.66 207.52,-20.24"/>
<polygon fill="#9a32cd" stroke="#9a32cd" points="282.85,-121.67 286.15,-131.73 289.85,-121.8 282.85,-121.67"/>
</a>
</g>
<text text-anchor="middle" x="328" y="-106" font-family="Helvetica,sans-Serif" font-size="10.00" fill="grey"> blit_regions</text>
<text text-anchor="middle" x="328" y="-95" font-family="Helvetica,sans-Serif" font-size="10.00" fill="grey">blit_regions_data</text>
<text text-anchor="middle" x="328" y="-84" font-family="Helvetica,sans-Serif" font-size="10.00" fill="grey">title_blit_region</text>
<text text-anchor="start" x="285.5" y="-73" font-family="Helvetica,sans-Serif" font-size="10.00" fill="grey">title_blit_region</text>
<text text-anchor="middle" x="328" y="-62" font-family="Helvetica,sans-Serif" font-size="10.00" fill="grey">_data</text>
<text text-anchor="middle" x="328" y="-51" font-family="Helvetica,sans-Serif" font-size="10.00" fill="grey">title_hdl</text>
</g>
</g>
</svg>
</svg>

<style type='text/css'>
<![CDATA[
[data-mouse-over-selected='false'] { opacity: 0.7; }
[data-mouse-over-selected='true']  { opacity: 1.0; }
]]>
</style>
<script type="application/ecmascript"><![CDATA[
document.addEventListener('DOMContentLoaded', (event) => {
  highlightEdges();
  highlightAdjacentNodes();
});
]]></script>
</svg>
