<?xml version="1.0" encoding="UTF-8" standalone="no"?>
<!DOCTYPE svg PUBLIC "-//W3C//DTD SVG 1.1//EN"
 "http://www.w3.org/Graphics/SVG/1.1/DTD/svg11.dtd">
<!-- Generated by graphviz version 2.43.0 (0)
 -->
<!-- Title: aopp_deconv_tool.geometry.shape.PolyShape Pages: 1 -->
<svg width="292pt" height="181pt"
 viewBox="0.00 0.00 292.00 181.00" xmlns="http://www.w3.org/2000/svg" xmlns:xlink="http://www.w3.org/1999/xlink">
<g id="graph0" class="graph" transform="scale(1 1) rotate(0) translate(4 177)">
<title>aopp_deconv_tool.geometry.shape.PolyShape</title>
<!-- Node1 -->
<g id="Node000001" class="node">
<title>Node1</title>
<g id="a_Node000001"><a xlink:title=" ">
<polygon fill="#999999" stroke="#666666" points="284,-30 95,-30 95,0 284,0 284,-30"/>
<text text-anchor="start" x="103" y="-18" font-family="Helvetica,sans-Serif" font-size="10.00">aopp_deconv_tool.geometry.shape.</text>
<text text-anchor="middle" x="189.5" y="-7" font-family="Helvetica,sans-Serif" font-size="10.00">PolyShape</text>
</a>
</g>
</g>
<!-- Node2 -->
<g id="Node000002" class="node">
<title>Node2</title>
<g id="a_Node000002"><a xlink:href="../../d2/dbe/classaopp__deconv__tool_1_1geometry_1_1shape_1_1GeoShape.html" target="_top" xlink:title=" ">
<polygon fill="white" stroke="#666666" points="189,-107 0,-107 0,-77 189,-77 189,-107"/>
<text text-anchor="start" x="8" y="-95" font-family="Helvetica,sans-Serif" font-size="10.00">aopp_deconv_tool.geometry.shape.</text>
<text text-anchor="middle" x="94.5" y="-84" font-family="Helvetica,sans-Serif" font-size="10.00">GeoShape</text>
</a>
</g>
</g>
<!-- Node2&#45;&gt;Node1 -->
<g id="edge1_Node000001_Node000002" class="edge">
<title>Node2&#45;&gt;Node1</title>
<g id="a_edge1_Node000001_Node000002"><a xlink:title=" ">
<path fill="none" stroke="#63b8ff" d="M120.43,-70.53C136.71,-57.68 157.27,-41.44 171.71,-30.04"/>
<polygon fill="#63b8ff" stroke="#63b8ff" points="118.05,-67.95 112.37,-76.89 122.39,-73.44 118.05,-67.95"/>
</a>
</g>
</g>
<!-- Node3 -->
<g id="Node000003" class="node">
<title>Node3</title>
<g id="a_Node000003"><a xlink:title=" ">
<polygon fill="white" stroke="#666666" points="122.5,-173 66.5,-173 66.5,-154 122.5,-154 122.5,-173"/>
<text text-anchor="middle" x="94.5" y="-161" font-family="Helvetica,sans-Serif" font-size="10.00">Callable</text>
</a>
</g>
</g>
<!-- Node3&#45;&gt;Node2 -->
<g id="edge2_Node000002_Node000003" class="edge">
<title>Node3&#45;&gt;Node2</title>
<g id="a_edge2_Node000002_Node000003"><a xlink:title=" ">
<path fill="none" stroke="#9a32cd" stroke-dasharray="5,2" d="M94.5,-143.71C94.5,-132.19 94.5,-117.68 94.5,-107.14"/>
<polygon fill="#9a32cd" stroke="#9a32cd" points="91,-143.98 94.5,-153.98 98,-143.98 91,-143.98"/>
</a>
</g>
<text text-anchor="middle" x="112" y="-128" font-family="Helvetica,sans-Serif" font-size="10.00" fill="grey"> metric</text>
</g>
<!-- Node4 -->
<g id="Node000004" class="node">
<title>Node4</title>
<g id="a_Node000004"><a xlink:title=" ">
<polygon fill="white" stroke="#666666" points="236,-101.5 207,-101.5 207,-82.5 236,-82.5 236,-101.5"/>
<text text-anchor="middle" x="221.5" y="-89.5" font-family="Helvetica,sans-Serif" font-size="10.00">np</text>
</a>
</g>
</g>
<!-- Node4&#45;&gt;Node1 -->
<g id="edge3_Node000001_Node000004" class="edge">
<title>Node4&#45;&gt;Node1</title>
<g id="a_edge3_Node000001_Node000004"><a xlink:title=" ">
<path fill="none" stroke="#9a32cd" stroke-dasharray="5,2" d="M213.81,-72.99C208.2,-59.83 200.7,-42.25 195.52,-30.11"/>
<polygon fill="#9a32cd" stroke="#9a32cd" points="210.69,-74.57 217.83,-82.4 217.12,-71.83 210.69,-74.57"/>
</a>
</g>
<text text-anchor="middle" x="223.5" y="-51" font-family="Helvetica,sans-Serif" font-size="10.00" fill="grey"> centre</text>
</g>
</g>
</svg>
