<?xml version="1.0" encoding="UTF-8" standalone="no"?>
<!DOCTYPE svg PUBLIC "-//W3C//DTD SVG 1.1//EN"
 "http://www.w3.org/Graphics/SVG/1.1/DTD/svg11.dtd">
<!-- Generated by graphviz version 2.43.0 (0)
 -->
<!-- Title: aopp_deconv_tool.task_strat.TaskStratSet._del_item Pages: 1 -->
<svg width="848pt" height="86pt"
 viewBox="0.00 0.00 848.00 86.00" xmlns="http://www.w3.org/2000/svg" xmlns:xlink="http://www.w3.org/1999/xlink">
<g id="graph0" class="graph" transform="scale(1 1) rotate(0) translate(4 82)">
<title>aopp_deconv_tool.task_strat.TaskStratSet._del_item</title>
<!-- Node1 -->
<g id="Node000001" class="node">
<title>Node1</title>
<g id="a_Node000001"><a xlink:title=" ">
<polygon fill="#999999" stroke="#666666" points="840,-59.5 711,-59.5 711,-18.5 840,-18.5 840,-59.5"/>
<text text-anchor="start" x="719" y="-47.5" font-family="Helvetica,sans-Serif" font-size="10.00">aopp_deconv_tool.task</text>
<text text-anchor="start" x="719" y="-36.5" font-family="Helvetica,sans-Serif" font-size="10.00">_strat.TaskStratSet.</text>
<text text-anchor="middle" x="775.5" y="-25.5" font-family="Helvetica,sans-Serif" font-size="10.00">_del_item</text>
</a>
</g>
</g>
<!-- Node2 -->
<g id="Node000002" class="node">
<title>Node2</title>
<g id="a_Node000002"><a xlink:href="../../d6/da1/classaopp__deconv__tool_1_1task__strat_1_1TaskStratSet.html#a089f805d274ef3be0b64217e99ffed9d" target="_top" xlink:title=" ">
<polygon fill="white" stroke="#666666" points="675,-54 526,-54 526,-24 675,-24 675,-54"/>
<text text-anchor="start" x="534" y="-42" font-family="Helvetica,sans-Serif" font-size="10.00">aopp_deconv_tool.task</text>
<text text-anchor="middle" x="600.5" y="-31" font-family="Helvetica,sans-Serif" font-size="10.00">_strat.TaskStratSet.remove</text>
</a>
</g>
</g>
<!-- Node1&#45;&gt;Node2 -->
<g id="edge1_Node000001_Node000002" class="edge">
<title>Node1&#45;&gt;Node2</title>
<g id="a_edge1_Node000001_Node000002"><a xlink:title=" ">
<path fill="none" stroke="#63b8ff" d="M700.43,-39C692.04,-39 683.48,-39 675.09,-39"/>
<polygon fill="#63b8ff" stroke="#63b8ff" points="700.57,-42.5 710.57,-39 700.57,-35.5 700.57,-42.5"/>
</a>
</g>
</g>
<!-- Node3 -->
<g id="Node000003" class="node">
<title>Node3</title>
<g id="a_Node000003"><a xlink:href="../../db/dd6/classaopp__deconv__tool_1_1graphical__frontends_1_1ssa__filtering_1_1ImagePlot.html#aa2bda605c014c2b3193e8c4db3e4ecfb" target="_top" xlink:title=" ">
<polygon fill="white" stroke="#666666" points="490,-78 262,-78 262,-48 490,-48 490,-78"/>
<text text-anchor="start" x="270" y="-66" font-family="Helvetica,sans-Serif" font-size="10.00">aopp_deconv_tool.graphical</text>
<text text-anchor="middle" x="376" y="-55" font-family="Helvetica,sans-Serif" font-size="10.00">_frontends.ssa_filtering.ImagePlot.set_data</text>
</a>
</g>
</g>
<!-- Node2&#45;&gt;Node3 -->
<g id="edge2_Node000002_Node000003" class="edge">
<title>Node2&#45;&gt;Node3</title>
<g id="a_edge2_Node000002_Node000003"><a xlink:title=" ">
<path fill="none" stroke="#63b8ff" d="M515.71,-48.04C507.41,-48.93 498.89,-49.85 490.35,-50.77"/>
<polygon fill="#63b8ff" stroke="#63b8ff" points="516.15,-51.51 525.72,-46.96 515.4,-44.55 516.15,-51.51"/>
</a>
</g>
</g>
<!-- Node6 -->
<g id="Node000006" class="node">
<title>Node6</title>
<g id="a_Node000006"><a xlink:href="../../d1/d4b/classaopp__deconv__tool_1_1graphical__frontends_1_1ssa__filtering_1_1LinePlot.html#abbc55db75bf504c9785025cd364e77bf" target="_top" xlink:title=" ">
<polygon fill="white" stroke="#666666" points="485,-30 267,-30 267,0 485,0 485,-30"/>
<text text-anchor="start" x="275" y="-18" font-family="Helvetica,sans-Serif" font-size="10.00">aopp_deconv_tool.graphical</text>
<text text-anchor="middle" x="376" y="-7" font-family="Helvetica,sans-Serif" font-size="10.00">_frontends.ssa_filtering.LinePlot.set_data</text>
</a>
</g>
</g>
<!-- Node2&#45;&gt;Node6 -->
<g id="edge5_Node000002_Node000006" class="edge">
<title>Node2&#45;&gt;Node6</title>
<g id="a_edge5_Node000002_Node000006"><a xlink:title=" ">
<path fill="none" stroke="#63b8ff" d="M515.5,-29.94C505.58,-28.87 495.34,-27.76 485.14,-26.66"/>
<polygon fill="#63b8ff" stroke="#63b8ff" points="515.4,-33.45 525.72,-31.04 516.15,-26.49 515.4,-33.45"/>
</a>
</g>
</g>
<!-- Node4 -->
<g id="Node000004" class="node">
<title>Node4</title>
<g id="a_Node000004"><a xlink:href="../../d6/d1d/classaopp__deconv__tool_1_1graphical__frontends_1_1ssa__filtering_1_1ImageViewer.html#a3a362bcec191790684ab2d054db8042f" target="_top" xlink:title=" ">
<polygon fill="white" stroke="#666666" points="226,-78 0,-78 0,-48 226,-48 226,-78"/>
<text text-anchor="start" x="8" y="-66" font-family="Helvetica,sans-Serif" font-size="10.00">aopp_deconv_tool.graphical</text>
<text text-anchor="middle" x="113" y="-55" font-family="Helvetica,sans-Serif" font-size="10.00">_frontends.ssa_filtering.ImageViewer.show</text>
</a>
</g>
</g>
<!-- Node3&#45;&gt;Node4 -->
<g id="edge3_Node000003_Node000004" class="edge">
<title>Node3&#45;&gt;Node4</title>
<g id="a_edge3_Node000003_Node000004"><a xlink:title=" ">
<path fill="none" stroke="#63b8ff" d="M251.48,-63C243.11,-63 234.71,-63 226.4,-63"/>
<polygon fill="#63b8ff" stroke="#63b8ff" points="251.66,-66.5 261.66,-63 251.66,-59.5 251.66,-66.5"/>
</a>
</g>
</g>
<!-- Node5 -->
<g id="Node000005" class="node">
<title>Node5</title>
<g id="a_Node000005"><a xlink:href="../../dd/d48/classaopp__deconv__tool_1_1graphical__frontends_1_1ssa__filtering_1_1SSAViewer.html#aa5805401ffe03e9fed4dc9e4ee3c745e" target="_top" xlink:title=" ">
<polygon fill="white" stroke="#666666" points="220,-30 6,-30 6,0 220,0 220,-30"/>
<text text-anchor="start" x="14" y="-18" font-family="Helvetica,sans-Serif" font-size="10.00">aopp_deconv_tool.graphical</text>
<text text-anchor="middle" x="113" y="-7" font-family="Helvetica,sans-Serif" font-size="10.00">_frontends.ssa_filtering.SSAViewer.show</text>
</a>
</g>
</g>
<!-- Node3&#45;&gt;Node5 -->
<g id="edge4_Node000003_Node000005" class="edge">
<title>Node3&#45;&gt;Node5</title>
<g id="a_edge4_Node000003_Node000005"><a xlink:title=" ">
<path fill="none" stroke="#63b8ff" d="M283.16,-46.11C254.62,-40.86 223.37,-35.11 195.58,-30"/>
<polygon fill="#63b8ff" stroke="#63b8ff" points="282.67,-49.58 293.13,-47.94 283.93,-42.69 282.67,-49.58"/>
</a>
</g>
</g>
<!-- Node6&#45;&gt;Node4 -->
<g id="edge6_Node000006_Node000004" class="edge">
<title>Node6&#45;&gt;Node4</title>
<g id="a_edge6_Node000006_Node000004"><a xlink:title=" ">
<path fill="none" stroke="#63b8ff" d="M283.16,-31.89C254.62,-37.14 223.37,-42.89 195.58,-48"/>
<polygon fill="#63b8ff" stroke="#63b8ff" points="283.93,-35.31 293.13,-30.06 282.67,-28.42 283.93,-35.31"/>
</a>
</g>
</g>
<!-- Node6&#45;&gt;Node5 -->
<g id="edge7_Node000006_Node000005" class="edge">
<title>Node6&#45;&gt;Node5</title>
<g id="a_edge7_Node000006_Node000005"><a xlink:title=" ">
<path fill="none" stroke="#63b8ff" d="M256.78,-15C244.62,-15 232.31,-15 220.28,-15"/>
<polygon fill="#63b8ff" stroke="#63b8ff" points="256.96,-18.5 266.96,-15 256.96,-11.5 256.96,-18.5"/>
</a>
</g>
</g>
</g>
</svg>
