<?xml version="1.0" encoding="UTF-8" standalone="no"?>
<!DOCTYPE svg PUBLIC "-//W3C//DTD SVG 1.1//EN"
 "http://www.w3.org/Graphics/SVG/1.1/DTD/svg11.dtd">
<!-- Generated by graphviz version 2.43.0 (0)
 -->
<!-- Title: aopp_deconv_tool.task_strat.TaskStratSet.get_name Pages: 1 -->
<svg width="562pt" height="270pt"
 viewBox="0.00 0.00 562.00 269.50" xmlns="http://www.w3.org/2000/svg" xmlns:xlink="http://www.w3.org/1999/xlink">
<g id="graph0" class="graph" transform="scale(1 1) rotate(0) translate(4 265.5)">
<title>aopp_deconv_tool.task_strat.TaskStratSet.get_name</title>
<!-- Node1 -->
<g id="node1" class="node">
<title>Node1</title>
<g id="a_node1"><a xlink:title=" ">
<polygon fill="#bfbfbf" stroke="black" points="0,-116 0,-146 160,-146 160,-116 0,-116"/>
<text text-anchor="start" x="8" y="-134" font-family="Helvetica,sans-Serif" font-size="10.00">aopp_deconv_tool.task</text>
<text text-anchor="middle" x="80" y="-123" font-family="Helvetica,sans-Serif" font-size="10.00">_strat.TaskStratSet.get_name</text>
</a>
</g>
</g>
<!-- Node2 -->
<g id="node2" class="node">
<title>Node2</title>
<g id="a_node2"><a xlink:href="../../d5/d45/classlight__beam_1_1LightBeamSet.html#a3a2d8747141be2e5632caa5f430a3105" target="_top" xlink:title=" ">
<polygon fill="none" stroke="black" points="219.5,-231 219.5,-261 365.5,-261 365.5,-231 219.5,-231"/>
<text text-anchor="start" x="227.5" y="-249" font-family="Helvetica,sans-Serif" font-size="10.00">light_beam.LightBeamSet.</text>
<text text-anchor="middle" x="292.5" y="-238" font-family="Helvetica,sans-Serif" font-size="10.00">__getitem__</text>
</a>
</g>
</g>
<!-- Node1&#45;&gt;Node2 -->
<g id="edge1" class="edge">
<title>Node1&#45;&gt;Node2</title>
<path fill="none" stroke="midnightblue" d="M95.96,-146.07C116.66,-166.08 156.02,-201.19 196,-221 200.85,-223.4 205.95,-225.59 211.17,-227.58"/>
<polygon fill="midnightblue" stroke="midnightblue" points="210.08,-230.91 220.67,-230.96 212.43,-224.31 210.08,-230.91"/>
</g>
<!-- Node3 -->
<g id="node3" class="node">
<title>Node3</title>
<g id="a_node3"><a xlink:href="../../d6/da1/classaopp__deconv__tool_1_1task__strat_1_1TaskStratSet.html#a16bcd4d5e98aa809db0c219b6b0aff51" target="_top" xlink:title=" ">
<polygon fill="none" stroke="black" points="228,-170.5 228,-211.5 357,-211.5 357,-170.5 228,-170.5"/>
<text text-anchor="start" x="236" y="-199.5" font-family="Helvetica,sans-Serif" font-size="10.00">aopp_deconv_tool.task</text>
<text text-anchor="start" x="236" y="-188.5" font-family="Helvetica,sans-Serif" font-size="10.00">_strat.TaskStratSet.</text>
<text text-anchor="middle" x="292.5" y="-177.5" font-family="Helvetica,sans-Serif" font-size="10.00">__getitem__</text>
</a>
</g>
</g>
<!-- Node1&#45;&gt;Node3 -->
<g id="edge2" class="edge">
<title>Node1&#45;&gt;Node3</title>
<path fill="none" stroke="midnightblue" d="M133.85,-146.06C159.34,-153.33 190.34,-162.16 218.08,-170.07"/>
<polygon fill="midnightblue" stroke="midnightblue" points="217.17,-173.45 227.74,-172.83 219.08,-166.72 217.17,-173.45"/>
</g>
<!-- Node5 -->
<g id="node5" class="node">
<title>Node5</title>
<g id="a_node5"><a xlink:href="../../df/da5/classaopp__deconv__tool_1_1data__structures_1_1bi__directional__map_1_1BiDirectionalMap.html#aee299272ed1c87829cc9006e9a823722" target="_top" xlink:title=" ">
<polygon fill="none" stroke="black" points="196,-110.5 196,-151.5 389,-151.5 389,-110.5 196,-110.5"/>
<text text-anchor="start" x="204" y="-139.5" font-family="Helvetica,sans-Serif" font-size="10.00">aopp_deconv_tool.data</text>
<text text-anchor="start" x="204" y="-128.5" font-family="Helvetica,sans-Serif" font-size="10.00">_structures.bi_directional</text>
<text text-anchor="middle" x="292.5" y="-117.5" font-family="Helvetica,sans-Serif" font-size="10.00">_map.BiDirectionalMap.__getitem__</text>
</a>
</g>
</g>
<!-- Node1&#45;&gt;Node5 -->
<g id="edge4" class="edge">
<title>Node1&#45;&gt;Node5</title>
<path fill="none" stroke="midnightblue" d="M160.28,-131C168.66,-131 177.27,-131 185.88,-131"/>
<polygon fill="midnightblue" stroke="midnightblue" points="185.98,-134.5 195.98,-131 185.98,-127.5 185.98,-134.5"/>
</g>
<!-- Node6 -->
<g id="node6" class="node">
<title>Node6</title>
<g id="a_node6"><a xlink:href="../../d0/dda/classoptical__component_1_1OpticalComponentSet.html#a181dc234d01cfebdf5ad26cc52c4bac1" target="_top" xlink:title=" ">
<polygon fill="none" stroke="black" points="217,-61 217,-91 368,-91 368,-61 217,-61"/>
<text text-anchor="start" x="225" y="-79" font-family="Helvetica,sans-Serif" font-size="10.00">optical_component.Optical</text>
<text text-anchor="middle" x="292.5" y="-68" font-family="Helvetica,sans-Serif" font-size="10.00">ComponentSet.__getitem__</text>
</a>
</g>
</g>
<!-- Node1&#45;&gt;Node6 -->
<g id="edge5" class="edge">
<title>Node1&#45;&gt;Node6</title>
<path fill="none" stroke="midnightblue" d="M138.52,-115.97C164.97,-109.06 196.53,-100.81 224.09,-93.61"/>
<polygon fill="midnightblue" stroke="midnightblue" points="225.26,-96.93 234.05,-91.01 223.49,-90.15 225.26,-96.93"/>
</g>
<!-- Node7 -->
<g id="node7" class="node">
<title>Node7</title>
<g id="a_node7"><a xlink:href="../../d9/d34/classaopp__deconv__tool_1_1optimise__compat_1_1PriorParamSet.html#ad6f05162d6a853ae0e1a695db8cef33d" target="_top" xlink:title=" ">
<polygon fill="none" stroke="black" points="217,-0.5 217,-41.5 368,-41.5 368,-0.5 217,-0.5"/>
<text text-anchor="start" x="225" y="-29.5" font-family="Helvetica,sans-Serif" font-size="10.00">aopp_deconv_tool.optimise</text>
<text text-anchor="start" x="225" y="-18.5" font-family="Helvetica,sans-Serif" font-size="10.00">_compat.PriorParamSet.</text>
<text text-anchor="middle" x="292.5" y="-7.5" font-family="Helvetica,sans-Serif" font-size="10.00">__getitem__</text>
</a>
</g>
</g>
<!-- Node1&#45;&gt;Node7 -->
<g id="edge6" class="edge">
<title>Node1&#45;&gt;Node7</title>
<path fill="none" stroke="midnightblue" d="M99.48,-115.79C121.38,-98.39 159.5,-69.99 196,-52 200.84,-49.62 205.9,-47.36 211.06,-45.22"/>
<polygon fill="midnightblue" stroke="midnightblue" points="212.42,-48.45 220.44,-41.53 209.85,-41.94 212.42,-48.45"/>
</g>
<!-- Node4 -->
<g id="node4" class="node">
<title>Node4</title>
<g id="a_node4"><a xlink:href="../../d6/da1/classaopp__deconv__tool_1_1task__strat_1_1TaskStratSet.html#a76324e28a364c9e85b911725b852314b" target="_top" xlink:title=" ">
<polygon fill="none" stroke="black" points="425,-170.5 425,-211.5 554,-211.5 554,-170.5 425,-170.5"/>
<text text-anchor="start" x="433" y="-199.5" font-family="Helvetica,sans-Serif" font-size="10.00">aopp_deconv_tool.task</text>
<text text-anchor="start" x="433" y="-188.5" font-family="Helvetica,sans-Serif" font-size="10.00">_strat.TaskStratSet.</text>
<text text-anchor="middle" x="489.5" y="-177.5" font-family="Helvetica,sans-Serif" font-size="10.00">_get_item</text>
</a>
</g>
</g>
<!-- Node3&#45;&gt;Node4 -->
<g id="edge3" class="edge">
<title>Node3&#45;&gt;Node4</title>
<path fill="none" stroke="midnightblue" d="M357.08,-191C375.45,-191 395.66,-191 414.6,-191"/>
<polygon fill="midnightblue" stroke="midnightblue" points="414.67,-194.5 424.67,-191 414.67,-187.5 414.67,-194.5"/>
</g>
</g>
</svg>
