<?xml version="1.0" encoding="UTF-8" standalone="no"?>
<!DOCTYPE svg PUBLIC "-//W3C//DTD SVG 1.1//EN"
 "http://www.w3.org/Graphics/SVG/1.1/DTD/svg11.dtd">
<!-- Generated by graphviz version 2.43.0 (0)
 -->
<!-- Title: aopp_deconv_tool.task_strat.TaskStratSet.get_name Pages: 1 -->
<svg width="562pt" height="265pt"
 viewBox="0.00 0.00 562.00 264.50" xmlns="http://www.w3.org/2000/svg" xmlns:xlink="http://www.w3.org/1999/xlink">
<g id="graph0" class="graph" transform="scale(1 1) rotate(0) translate(4 260.5)">
<title>aopp_deconv_tool.task_strat.TaskStratSet.get_name</title>
<!-- Node1 -->
<g id="Node000001" class="node">
<title>Node1</title>
<g id="a_Node000001"><a xlink:title=" ">
<polygon fill="#999999" stroke="#666666" points="160,-143.5 0,-143.5 0,-113.5 160,-113.5 160,-143.5"/>
<text text-anchor="start" x="8" y="-131.5" font-family="Helvetica,sans-Serif" font-size="10.00">aopp_deconv_tool.task</text>
<text text-anchor="middle" x="80" y="-120.5" font-family="Helvetica,sans-Serif" font-size="10.00">_strat.TaskStratSet.get_name</text>
</a>
</g>
</g>
<!-- Node2 -->
<g id="Node000002" class="node">
<title>Node2</title>
<g id="a_Node000002"><a xlink:href="../../d5/d45/classlight__beam_1_1LightBeamSet.html#a7b067f101871cd6c837d626958b03a3b" target="_top" xlink:title=" ">
<polygon fill="white" stroke="#666666" points="365.5,-256.5 219.5,-256.5 219.5,-226.5 365.5,-226.5 365.5,-256.5"/>
<text text-anchor="start" x="227.5" y="-244.5" font-family="Helvetica,sans-Serif" font-size="10.00">light_beam.LightBeamSet.</text>
<text text-anchor="middle" x="292.5" y="-233.5" font-family="Helvetica,sans-Serif" font-size="10.00">__getitem__</text>
</a>
</g>
</g>
<!-- Node1&#45;&gt;Node2 -->
<g id="edge1_Node000001_Node000002" class="edge">
<title>Node1&#45;&gt;Node2</title>
<g id="a_edge1_Node000001_Node000002"><a xlink:title=" ">
<path fill="none" stroke="#63b8ff" d="M96.32,-143.79C117.12,-163.69 156.26,-198.19 196,-217.5 200.38,-219.63 204.97,-221.58 209.67,-223.37"/>
<polygon fill="#63b8ff" stroke="#63b8ff" points="208.83,-226.79 219.43,-226.82 211.17,-220.19 208.83,-226.79"/>
</a>
</g>
</g>
<!-- Node3 -->
<g id="Node000003" class="node">
<title>Node3</title>
<g id="a_Node000003"><a xlink:href="../../d6/da1/classaopp__deconv__tool_1_1task__strat_1_1TaskStratSet.html#a16bcd4d5e98aa809db0c219b6b0aff51" target="_top" xlink:title=" ">
<polygon fill="white" stroke="#666666" points="357,-208 228,-208 228,-167 357,-167 357,-208"/>
<text text-anchor="start" x="236" y="-196" font-family="Helvetica,sans-Serif" font-size="10.00">aopp_deconv_tool.task</text>
<text text-anchor="start" x="236" y="-185" font-family="Helvetica,sans-Serif" font-size="10.00">_strat.TaskStratSet.</text>
<text text-anchor="middle" x="292.5" y="-174" font-family="Helvetica,sans-Serif" font-size="10.00">__getitem__</text>
</a>
</g>
</g>
<!-- Node1&#45;&gt;Node3 -->
<g id="edge2_Node000001_Node000003" class="edge">
<title>Node1&#45;&gt;Node3</title>
<g id="a_edge2_Node000001_Node000003"><a xlink:title=" ">
<path fill="none" stroke="#63b8ff" d="M134.66,-143.54C159.94,-150.63 190.49,-159.19 217.89,-166.87"/>
<polygon fill="#63b8ff" stroke="#63b8ff" points="217.25,-170.32 227.82,-169.65 219.14,-163.58 217.25,-170.32"/>
</a>
</g>
</g>
<!-- Node5 -->
<g id="Node000005" class="node">
<title>Node5</title>
<g id="a_Node000005"><a xlink:href="../../df/da5/classaopp__deconv__tool_1_1data__structures_1_1bi__directional__map_1_1BiDirectionalMap.html#a614b437f58a5a3e5b548bd67436ae109" target="_top" xlink:title=" ">
<polygon fill="white" stroke="#666666" points="389,-149 196,-149 196,-108 389,-108 389,-149"/>
<text text-anchor="start" x="204" y="-137" font-family="Helvetica,sans-Serif" font-size="10.00">aopp_deconv_tool.data</text>
<text text-anchor="start" x="204" y="-126" font-family="Helvetica,sans-Serif" font-size="10.00">_structures.bi_directional</text>
<text text-anchor="middle" x="292.5" y="-115" font-family="Helvetica,sans-Serif" font-size="10.00">_map.BiDirectionalMap.__getitem__</text>
</a>
</g>
</g>
<!-- Node1&#45;&gt;Node5 -->
<g id="edge4_Node000001_Node000005" class="edge">
<title>Node1&#45;&gt;Node5</title>
<g id="a_edge4_Node000001_Node000005"><a xlink:title=" ">
<path fill="none" stroke="#63b8ff" d="M160.28,-128.5C168.66,-128.5 177.27,-128.5 185.88,-128.5"/>
<polygon fill="#63b8ff" stroke="#63b8ff" points="185.98,-132 195.98,-128.5 185.98,-125 185.98,-132"/>
</a>
</g>
</g>
<!-- Node6 -->
<g id="Node000006" class="node">
<title>Node6</title>
<g id="a_Node000006"><a xlink:href="../../d0/dda/classoptical__component_1_1OpticalComponentSet.html#ab8abbe5c0a1e1d1434239962fb70be0c" target="_top" xlink:title=" ">
<polygon fill="white" stroke="#666666" points="368,-89.5 217,-89.5 217,-59.5 368,-59.5 368,-89.5"/>
<text text-anchor="start" x="225" y="-77.5" font-family="Helvetica,sans-Serif" font-size="10.00">optical_component.Optical</text>
<text text-anchor="middle" x="292.5" y="-66.5" font-family="Helvetica,sans-Serif" font-size="10.00">ComponentSet.__getitem__</text>
</a>
</g>
</g>
<!-- Node1&#45;&gt;Node6 -->
<g id="edge5_Node000001_Node000006" class="edge">
<title>Node1&#45;&gt;Node6</title>
<g id="a_edge5_Node000001_Node000006"><a xlink:title=" ">
<path fill="none" stroke="#63b8ff" d="M139.64,-113.46C165.53,-106.82 196.14,-98.96 223.07,-92.05"/>
<polygon fill="#63b8ff" stroke="#63b8ff" points="224,-95.43 232.81,-89.55 222.26,-88.65 224,-95.43"/>
</a>
</g>
</g>
<!-- Node7 -->
<g id="Node000007" class="node">
<title>Node7</title>
<g id="a_Node000007"><a xlink:href="../../d9/d34/classaopp__deconv__tool_1_1optimise__compat_1_1PriorParamSet.html#a8af3ab497153694a2bd2db8760918b23" target="_top" xlink:title=" ">
<polygon fill="white" stroke="#666666" points="368,-41 217,-41 217,0 368,0 368,-41"/>
<text text-anchor="start" x="225" y="-29" font-family="Helvetica,sans-Serif" font-size="10.00">aopp_deconv_tool.optimise</text>
<text text-anchor="start" x="225" y="-18" font-family="Helvetica,sans-Serif" font-size="10.00">_compat.PriorParamSet.</text>
<text text-anchor="middle" x="292.5" y="-7" font-family="Helvetica,sans-Serif" font-size="10.00">__getitem__</text>
</a>
</g>
</g>
<!-- Node1&#45;&gt;Node7 -->
<g id="edge6_Node000001_Node000007" class="edge">
<title>Node1&#45;&gt;Node7</title>
<g id="a_edge6_Node000001_Node000007"><a xlink:title=" ">
<path fill="none" stroke="#63b8ff" d="M99.49,-113.44C121.39,-96.22 159.51,-68.14 196,-50.5 200.12,-48.51 204.39,-46.61 208.76,-44.81"/>
<polygon fill="#63b8ff" stroke="#63b8ff" points="210.39,-47.93 218.42,-41.01 207.83,-41.41 210.39,-47.93"/>
</a>
</g>
</g>
<!-- Node4 -->
<g id="Node000004" class="node">
<title>Node4</title>
<g id="a_Node000004"><a xlink:href="../../d6/da1/classaopp__deconv__tool_1_1task__strat_1_1TaskStratSet.html#a76324e28a364c9e85b911725b852314b" target="_top" xlink:title=" ">
<polygon fill="white" stroke="#666666" points="554,-208 425,-208 425,-167 554,-167 554,-208"/>
<text text-anchor="start" x="433" y="-196" font-family="Helvetica,sans-Serif" font-size="10.00">aopp_deconv_tool.task</text>
<text text-anchor="start" x="433" y="-185" font-family="Helvetica,sans-Serif" font-size="10.00">_strat.TaskStratSet.</text>
<text text-anchor="middle" x="489.5" y="-174" font-family="Helvetica,sans-Serif" font-size="10.00">_get_item</text>
</a>
</g>
</g>
<!-- Node3&#45;&gt;Node4 -->
<g id="edge3_Node000003_Node000004" class="edge">
<title>Node3&#45;&gt;Node4</title>
<g id="a_edge3_Node000003_Node000004"><a xlink:title=" ">
<path fill="none" stroke="#63b8ff" d="M357.08,-187.5C375.45,-187.5 395.66,-187.5 414.6,-187.5"/>
<polygon fill="#63b8ff" stroke="#63b8ff" points="414.67,-191 424.67,-187.5 414.67,-184 414.67,-191"/>
</a>
</g>
</g>
</g>
</svg>
