<?xml version="1.0" encoding="UTF-8" standalone="no"?>
<!DOCTYPE svg PUBLIC "-//W3C//DTD SVG 1.1//EN"
 "http://www.w3.org/Graphics/SVG/1.1/DTD/svg11.dtd">
<!-- Generated by graphviz version 2.43.0 (0)
 -->
<!-- Title: aopp_deconv_tool.task_strat.TaskStratSet.get_description Pages: 1 -->
<svg width="531pt" height="265pt"
 viewBox="0.00 0.00 531.00 264.50" xmlns="http://www.w3.org/2000/svg" xmlns:xlink="http://www.w3.org/1999/xlink">
<g id="graph0" class="graph" transform="scale(1 1) rotate(0) translate(4 260.5)">
<title>aopp_deconv_tool.task_strat.TaskStratSet.get_description</title>
<!-- Node1 -->
<g id="Node000001" class="node">
<title>Node1</title>
<g id="a_Node000001"><a xlink:title=" ">
<polygon fill="#999999" stroke="#666666" points="129,-149 0,-149 0,-108 129,-108 129,-149"/>
<text text-anchor="start" x="8" y="-137" font-family="Helvetica,sans-Serif" font-size="10.00">aopp_deconv_tool.task</text>
<text text-anchor="start" x="8" y="-126" font-family="Helvetica,sans-Serif" font-size="10.00">_strat.TaskStratSet.get</text>
<text text-anchor="middle" x="64.5" y="-115" font-family="Helvetica,sans-Serif" font-size="10.00">_description</text>
</a>
</g>
</g>
<!-- Node2 -->
<g id="Node000002" class="node">
<title>Node2</title>
<g id="a_Node000002"><a xlink:href="../../d5/d45/classlight__beam_1_1LightBeamSet.html#a7b067f101871cd6c837d626958b03a3b" target="_top" xlink:title=" ">
<polygon fill="white" stroke="#666666" points="334.5,-256.5 188.5,-256.5 188.5,-226.5 334.5,-226.5 334.5,-256.5"/>
<text text-anchor="start" x="196.5" y="-244.5" font-family="Helvetica,sans-Serif" font-size="10.00">light_beam.LightBeamSet.</text>
<text text-anchor="middle" x="261.5" y="-233.5" font-family="Helvetica,sans-Serif" font-size="10.00">__getitem__</text>
</a>
</g>
</g>
<!-- Node1&#45;&gt;Node2 -->
<g id="edge1_Node000001_Node000002" class="edge">
<title>Node1&#45;&gt;Node2</title>
<g id="a_edge1_Node000001_Node000002"><a xlink:title=" ">
<path fill="none" stroke="#63b8ff" d="M83.16,-149.33C101.57,-169.7 132.25,-200.11 165,-217.5 169.46,-219.87 174.17,-222.01 179,-223.95"/>
<polygon fill="#63b8ff" stroke="#63b8ff" points="177.83,-227.24 188.42,-227.42 180.25,-220.68 177.83,-227.24"/>
</a>
</g>
</g>
<!-- Node3 -->
<g id="Node000003" class="node">
<title>Node3</title>
<g id="a_Node000003"><a xlink:href="../../d6/da1/classaopp__deconv__tool_1_1task__strat_1_1TaskStratSet.html#a16bcd4d5e98aa809db0c219b6b0aff51" target="_top" xlink:title=" ">
<polygon fill="white" stroke="#666666" points="326,-208 197,-208 197,-167 326,-167 326,-208"/>
<text text-anchor="start" x="205" y="-196" font-family="Helvetica,sans-Serif" font-size="10.00">aopp_deconv_tool.task</text>
<text text-anchor="start" x="205" y="-185" font-family="Helvetica,sans-Serif" font-size="10.00">_strat.TaskStratSet.</text>
<text text-anchor="middle" x="261.5" y="-174" font-family="Helvetica,sans-Serif" font-size="10.00">__getitem__</text>
</a>
</g>
</g>
<!-- Node1&#45;&gt;Node3 -->
<g id="edge2_Node000001_Node000003" class="edge">
<title>Node1&#45;&gt;Node3</title>
<g id="a_edge2_Node000001_Node000003"><a xlink:title=" ">
<path fill="none" stroke="#63b8ff" d="M129.08,-147.74C147.54,-153.32 167.84,-159.47 186.86,-165.22"/>
<polygon fill="#63b8ff" stroke="#63b8ff" points="186.09,-168.64 196.67,-168.19 188.11,-161.94 186.09,-168.64"/>
</a>
</g>
</g>
<!-- Node5 -->
<g id="Node000005" class="node">
<title>Node5</title>
<g id="a_Node000005"><a xlink:href="../../df/da5/classaopp__deconv__tool_1_1data__structures_1_1bi__directional__map_1_1BiDirectionalMap.html#a614b437f58a5a3e5b548bd67436ae109" target="_top" xlink:title=" ">
<polygon fill="white" stroke="#666666" points="358,-149 165,-149 165,-108 358,-108 358,-149"/>
<text text-anchor="start" x="173" y="-137" font-family="Helvetica,sans-Serif" font-size="10.00">aopp_deconv_tool.data</text>
<text text-anchor="start" x="173" y="-126" font-family="Helvetica,sans-Serif" font-size="10.00">_structures.bi_directional</text>
<text text-anchor="middle" x="261.5" y="-115" font-family="Helvetica,sans-Serif" font-size="10.00">_map.BiDirectionalMap.__getitem__</text>
</a>
</g>
</g>
<!-- Node1&#45;&gt;Node5 -->
<g id="edge4_Node000001_Node000005" class="edge">
<title>Node1&#45;&gt;Node5</title>
<g id="a_edge4_Node000001_Node000005"><a xlink:title=" ">
<path fill="none" stroke="#63b8ff" d="M129.08,-128.5C137.31,-128.5 145.9,-128.5 154.59,-128.5"/>
<polygon fill="#63b8ff" stroke="#63b8ff" points="154.81,-132 164.81,-128.5 154.81,-125 154.81,-132"/>
</a>
</g>
</g>
<!-- Node6 -->
<g id="Node000006" class="node">
<title>Node6</title>
<g id="a_Node000006"><a xlink:href="../../d0/dda/classoptical__component_1_1OpticalComponentSet.html#ab8abbe5c0a1e1d1434239962fb70be0c" target="_top" xlink:title=" ">
<polygon fill="white" stroke="#666666" points="337,-89.5 186,-89.5 186,-59.5 337,-59.5 337,-89.5"/>
<text text-anchor="start" x="194" y="-77.5" font-family="Helvetica,sans-Serif" font-size="10.00">optical_component.Optical</text>
<text text-anchor="middle" x="261.5" y="-66.5" font-family="Helvetica,sans-Serif" font-size="10.00">ComponentSet.__getitem__</text>
</a>
</g>
</g>
<!-- Node1&#45;&gt;Node6 -->
<g id="edge5_Node000001_Node000006" class="edge">
<title>Node1&#45;&gt;Node6</title>
<g id="a_edge5_Node000001_Node000006"><a xlink:title=" ">
<path fill="none" stroke="#63b8ff" d="M129.12,-109.67C141.03,-106.23 153.38,-102.71 165,-99.5 173.79,-97.07 183.06,-94.57 192.23,-92.13"/>
<polygon fill="#63b8ff" stroke="#63b8ff" points="193.33,-95.46 202.1,-89.52 191.54,-88.69 193.33,-95.46"/>
</a>
</g>
</g>
<!-- Node7 -->
<g id="Node000007" class="node">
<title>Node7</title>
<g id="a_Node000007"><a xlink:href="../../d9/d34/classaopp__deconv__tool_1_1optimise__compat_1_1PriorParamSet.html#a8af3ab497153694a2bd2db8760918b23" target="_top" xlink:title=" ">
<polygon fill="white" stroke="#666666" points="337,-41 186,-41 186,0 337,0 337,-41"/>
<text text-anchor="start" x="194" y="-29" font-family="Helvetica,sans-Serif" font-size="10.00">aopp_deconv_tool.optimise</text>
<text text-anchor="start" x="194" y="-18" font-family="Helvetica,sans-Serif" font-size="10.00">_compat.PriorParamSet.</text>
<text text-anchor="middle" x="261.5" y="-7" font-family="Helvetica,sans-Serif" font-size="10.00">__getitem__</text>
</a>
</g>
</g>
<!-- Node1&#45;&gt;Node7 -->
<g id="edge6_Node000001_Node000007" class="edge">
<title>Node1&#45;&gt;Node7</title>
<g id="a_edge6_Node000001_Node000007"><a xlink:title=" ">
<path fill="none" stroke="#63b8ff" d="M87.18,-107.69C106.32,-90.3 135.67,-65.94 165,-50.5 168.72,-48.54 172.59,-46.69 176.55,-44.93"/>
<polygon fill="#63b8ff" stroke="#63b8ff" points="178.03,-48.1 185.91,-41.01 175.33,-41.64 178.03,-48.1"/>
</a>
</g>
</g>
<!-- Node4 -->
<g id="Node000004" class="node">
<title>Node4</title>
<g id="a_Node000004"><a xlink:href="../../d6/da1/classaopp__deconv__tool_1_1task__strat_1_1TaskStratSet.html#a76324e28a364c9e85b911725b852314b" target="_top" xlink:title=" ">
<polygon fill="white" stroke="#666666" points="523,-208 394,-208 394,-167 523,-167 523,-208"/>
<text text-anchor="start" x="402" y="-196" font-family="Helvetica,sans-Serif" font-size="10.00">aopp_deconv_tool.task</text>
<text text-anchor="start" x="402" y="-185" font-family="Helvetica,sans-Serif" font-size="10.00">_strat.TaskStratSet.</text>
<text text-anchor="middle" x="458.5" y="-174" font-family="Helvetica,sans-Serif" font-size="10.00">_get_item</text>
</a>
</g>
</g>
<!-- Node3&#45;&gt;Node4 -->
<g id="edge3_Node000003_Node000004" class="edge">
<title>Node3&#45;&gt;Node4</title>
<g id="a_edge3_Node000003_Node000004"><a xlink:title=" ">
<path fill="none" stroke="#63b8ff" d="M326.08,-187.5C344.45,-187.5 364.66,-187.5 383.6,-187.5"/>
<polygon fill="#63b8ff" stroke="#63b8ff" points="383.67,-191 393.67,-187.5 383.67,-184 383.67,-191"/>
</a>
</g>
</g>
</g>
</svg>
