<?xml version="1.0" encoding="UTF-8" standalone="no"?>
<!DOCTYPE svg PUBLIC "-//W3C//DTD SVG 1.1//EN"
 "http://www.w3.org/Graphics/SVG/1.1/DTD/svg11.dtd">
<!-- Generated by graphviz version 2.43.0 (0)
 -->
<!-- Title: aopp_deconv_tool.task_strat.TaskStratSet.__call__ Pages: 1 -->
<svg width="696pt" height="265pt"
 viewBox="0.00 0.00 696.00 264.50" xmlns="http://www.w3.org/2000/svg" xmlns:xlink="http://www.w3.org/1999/xlink">
<g id="graph0" class="graph" transform="scale(1 1) rotate(0) translate(4 260.5)">
<title>aopp_deconv_tool.task_strat.TaskStratSet.__call__</title>
<!-- Node1 -->
<g id="Node000001" class="node">
<title>Node1</title>
<g id="a_Node000001"><a xlink:title=" ">
<polygon fill="#999999" stroke="#666666" points="129,-149 0,-149 0,-108 129,-108 129,-149"/>
<text text-anchor="start" x="8" y="-137" font-family="Helvetica,sans-Serif" font-size="10.00">aopp_deconv_tool.task</text>
<text text-anchor="start" x="8" y="-126" font-family="Helvetica,sans-Serif" font-size="10.00">_strat.TaskStratSet.</text>
<text text-anchor="middle" x="64.5" y="-115" font-family="Helvetica,sans-Serif" font-size="10.00">__call__</text>
</a>
</g>
</g>
<!-- Node2 -->
<g id="Node000002" class="node">
<title>Node2</title>
<g id="a_Node000002"><a xlink:href="../../d6/da1/classaopp__deconv__tool_1_1task__strat_1_1TaskStratSet.html#ad7d425601c3adf5f89372f5c7cd5fcb9" target="_top" xlink:title=" ">
<polygon fill="white" stroke="#666666" points="294,-149 165,-149 165,-108 294,-108 294,-149"/>
<text text-anchor="start" x="173" y="-137" font-family="Helvetica,sans-Serif" font-size="10.00">aopp_deconv_tool.task</text>
<text text-anchor="start" x="173" y="-126" font-family="Helvetica,sans-Serif" font-size="10.00">_strat.TaskStratSet.get</text>
<text text-anchor="middle" x="229.5" y="-115" font-family="Helvetica,sans-Serif" font-size="10.00">_callable</text>
</a>
</g>
</g>
<!-- Node1&#45;&gt;Node2 -->
<g id="edge1_Node000001_Node000002" class="edge">
<title>Node1&#45;&gt;Node2</title>
<g id="a_edge1_Node000001_Node000002"><a xlink:title=" ">
<path fill="none" stroke="#63b8ff" d="M129.45,-128.5C137.76,-128.5 146.32,-128.5 154.77,-128.5"/>
<polygon fill="#63b8ff" stroke="#63b8ff" points="155,-132 165,-128.5 155,-125 155,-132"/>
</a>
</g>
</g>
<!-- Node3 -->
<g id="Node000003" class="node">
<title>Node3</title>
<g id="a_Node000003"><a xlink:href="../../d5/d45/classlight__beam_1_1LightBeamSet.html#a7b067f101871cd6c837d626958b03a3b" target="_top" xlink:title=" ">
<polygon fill="white" stroke="#666666" points="499.5,-256.5 353.5,-256.5 353.5,-226.5 499.5,-226.5 499.5,-256.5"/>
<text text-anchor="start" x="361.5" y="-244.5" font-family="Helvetica,sans-Serif" font-size="10.00">light_beam.LightBeamSet.</text>
<text text-anchor="middle" x="426.5" y="-233.5" font-family="Helvetica,sans-Serif" font-size="10.00">__getitem__</text>
</a>
</g>
</g>
<!-- Node2&#45;&gt;Node3 -->
<g id="edge2_Node000002_Node000003" class="edge">
<title>Node2&#45;&gt;Node3</title>
<g id="a_edge2_Node000002_Node000003"><a xlink:title=" ">
<path fill="none" stroke="#63b8ff" d="M248.16,-149.33C266.57,-169.7 297.25,-200.11 330,-217.5 334.46,-219.87 339.17,-222.01 344,-223.95"/>
<polygon fill="#63b8ff" stroke="#63b8ff" points="342.83,-227.24 353.42,-227.42 345.25,-220.68 342.83,-227.24"/>
</a>
</g>
</g>
<!-- Node4 -->
<g id="Node000004" class="node">
<title>Node4</title>
<g id="a_Node000004"><a xlink:href="../../d6/da1/classaopp__deconv__tool_1_1task__strat_1_1TaskStratSet.html#a16bcd4d5e98aa809db0c219b6b0aff51" target="_top" xlink:title=" ">
<polygon fill="white" stroke="#666666" points="491,-208 362,-208 362,-167 491,-167 491,-208"/>
<text text-anchor="start" x="370" y="-196" font-family="Helvetica,sans-Serif" font-size="10.00">aopp_deconv_tool.task</text>
<text text-anchor="start" x="370" y="-185" font-family="Helvetica,sans-Serif" font-size="10.00">_strat.TaskStratSet.</text>
<text text-anchor="middle" x="426.5" y="-174" font-family="Helvetica,sans-Serif" font-size="10.00">__getitem__</text>
</a>
</g>
</g>
<!-- Node2&#45;&gt;Node4 -->
<g id="edge3_Node000002_Node000004" class="edge">
<title>Node2&#45;&gt;Node4</title>
<g id="a_edge3_Node000002_Node000004"><a xlink:title=" ">
<path fill="none" stroke="#63b8ff" d="M294.08,-147.74C312.54,-153.32 332.84,-159.47 351.86,-165.22"/>
<polygon fill="#63b8ff" stroke="#63b8ff" points="351.09,-168.64 361.67,-168.19 353.11,-161.94 351.09,-168.64"/>
</a>
</g>
</g>
<!-- Node6 -->
<g id="Node000006" class="node">
<title>Node6</title>
<g id="a_Node000006"><a xlink:href="../../df/da5/classaopp__deconv__tool_1_1data__structures_1_1bi__directional__map_1_1BiDirectionalMap.html#a614b437f58a5a3e5b548bd67436ae109" target="_top" xlink:title=" ">
<polygon fill="white" stroke="#666666" points="523,-149 330,-149 330,-108 523,-108 523,-149"/>
<text text-anchor="start" x="338" y="-137" font-family="Helvetica,sans-Serif" font-size="10.00">aopp_deconv_tool.data</text>
<text text-anchor="start" x="338" y="-126" font-family="Helvetica,sans-Serif" font-size="10.00">_structures.bi_directional</text>
<text text-anchor="middle" x="426.5" y="-115" font-family="Helvetica,sans-Serif" font-size="10.00">_map.BiDirectionalMap.__getitem__</text>
</a>
</g>
</g>
<!-- Node2&#45;&gt;Node6 -->
<g id="edge5_Node000002_Node000006" class="edge">
<title>Node2&#45;&gt;Node6</title>
<g id="a_edge5_Node000002_Node000006"><a xlink:title=" ">
<path fill="none" stroke="#63b8ff" d="M294.08,-128.5C302.31,-128.5 310.9,-128.5 319.59,-128.5"/>
<polygon fill="#63b8ff" stroke="#63b8ff" points="319.81,-132 329.81,-128.5 319.81,-125 319.81,-132"/>
</a>
</g>
</g>
<!-- Node7 -->
<g id="Node000007" class="node">
<title>Node7</title>
<g id="a_Node000007"><a xlink:href="../../d0/dda/classoptical__component_1_1OpticalComponentSet.html#ab8abbe5c0a1e1d1434239962fb70be0c" target="_top" xlink:title=" ">
<polygon fill="white" stroke="#666666" points="502,-89.5 351,-89.5 351,-59.5 502,-59.5 502,-89.5"/>
<text text-anchor="start" x="359" y="-77.5" font-family="Helvetica,sans-Serif" font-size="10.00">optical_component.Optical</text>
<text text-anchor="middle" x="426.5" y="-66.5" font-family="Helvetica,sans-Serif" font-size="10.00">ComponentSet.__getitem__</text>
</a>
</g>
</g>
<!-- Node2&#45;&gt;Node7 -->
<g id="edge6_Node000002_Node000007" class="edge">
<title>Node2&#45;&gt;Node7</title>
<g id="a_edge6_Node000002_Node000007"><a xlink:title=" ">
<path fill="none" stroke="#63b8ff" d="M294.12,-109.67C306.03,-106.23 318.38,-102.71 330,-99.5 338.79,-97.07 348.06,-94.57 357.23,-92.13"/>
<polygon fill="#63b8ff" stroke="#63b8ff" points="358.33,-95.46 367.1,-89.52 356.54,-88.69 358.33,-95.46"/>
</a>
</g>
</g>
<!-- Node8 -->
<g id="Node000008" class="node">
<title>Node8</title>
<g id="a_Node000008"><a xlink:href="../../d9/d34/classaopp__deconv__tool_1_1optimise__compat_1_1PriorParamSet.html#a8af3ab497153694a2bd2db8760918b23" target="_top" xlink:title=" ">
<polygon fill="white" stroke="#666666" points="502,-41 351,-41 351,0 502,0 502,-41"/>
<text text-anchor="start" x="359" y="-29" font-family="Helvetica,sans-Serif" font-size="10.00">aopp_deconv_tool.optimise</text>
<text text-anchor="start" x="359" y="-18" font-family="Helvetica,sans-Serif" font-size="10.00">_compat.PriorParamSet.</text>
<text text-anchor="middle" x="426.5" y="-7" font-family="Helvetica,sans-Serif" font-size="10.00">__getitem__</text>
</a>
</g>
</g>
<!-- Node2&#45;&gt;Node8 -->
<g id="edge7_Node000002_Node000008" class="edge">
<title>Node2&#45;&gt;Node8</title>
<g id="a_edge7_Node000002_Node000008"><a xlink:title=" ">
<path fill="none" stroke="#63b8ff" d="M252.18,-107.69C271.32,-90.3 300.67,-65.94 330,-50.5 333.72,-48.54 337.59,-46.69 341.55,-44.93"/>
<polygon fill="#63b8ff" stroke="#63b8ff" points="343.03,-48.1 350.91,-41.01 340.33,-41.64 343.03,-48.1"/>
</a>
</g>
</g>
<!-- Node5 -->
<g id="Node000005" class="node">
<title>Node5</title>
<g id="a_Node000005"><a xlink:href="../../d6/da1/classaopp__deconv__tool_1_1task__strat_1_1TaskStratSet.html#a76324e28a364c9e85b911725b852314b" target="_top" xlink:title=" ">
<polygon fill="white" stroke="#666666" points="688,-208 559,-208 559,-167 688,-167 688,-208"/>
<text text-anchor="start" x="567" y="-196" font-family="Helvetica,sans-Serif" font-size="10.00">aopp_deconv_tool.task</text>
<text text-anchor="start" x="567" y="-185" font-family="Helvetica,sans-Serif" font-size="10.00">_strat.TaskStratSet.</text>
<text text-anchor="middle" x="623.5" y="-174" font-family="Helvetica,sans-Serif" font-size="10.00">_get_item</text>
</a>
</g>
</g>
<!-- Node4&#45;&gt;Node5 -->
<g id="edge4_Node000004_Node000005" class="edge">
<title>Node4&#45;&gt;Node5</title>
<g id="a_edge4_Node000004_Node000005"><a xlink:title=" ">
<path fill="none" stroke="#63b8ff" d="M491.08,-187.5C509.45,-187.5 529.66,-187.5 548.6,-187.5"/>
<polygon fill="#63b8ff" stroke="#63b8ff" points="548.67,-191 558.67,-187.5 548.67,-184 548.67,-191"/>
</a>
</g>
</g>
</g>
</svg>
