<?xml version="1.0" encoding="UTF-8" standalone="no"?>
<!DOCTYPE svg PUBLIC "-//W3C//DTD SVG 1.1//EN"
 "http://www.w3.org/Graphics/SVG/1.1/DTD/svg11.dtd">
<!-- Generated by graphviz version 2.43.0 (0)
 -->
<!-- Title: aopp_deconv_tool.task_strat.TaskStratSet.__call__ Pages: 1 -->
<svg width="696pt" height="270pt"
 viewBox="0.00 0.00 696.00 269.50" xmlns="http://www.w3.org/2000/svg" xmlns:xlink="http://www.w3.org/1999/xlink">
<g id="graph0" class="graph" transform="scale(1 1) rotate(0) translate(4 265.5)">
<title>aopp_deconv_tool.task_strat.TaskStratSet.__call__</title>
<!-- Node1 -->
<g id="node1" class="node">
<title>Node1</title>
<g id="a_node1"><a xlink:title=" ">
<polygon fill="#bfbfbf" stroke="black" points="0,-110.5 0,-151.5 129,-151.5 129,-110.5 0,-110.5"/>
<text text-anchor="start" x="8" y="-139.5" font-family="Helvetica,sans-Serif" font-size="10.00">aopp_deconv_tool.task</text>
<text text-anchor="start" x="8" y="-128.5" font-family="Helvetica,sans-Serif" font-size="10.00">_strat.TaskStratSet.</text>
<text text-anchor="middle" x="64.5" y="-117.5" font-family="Helvetica,sans-Serif" font-size="10.00">__call__</text>
</a>
</g>
</g>
<!-- Node2 -->
<g id="node2" class="node">
<title>Node2</title>
<g id="a_node2"><a xlink:href="../../d6/da1/classaopp__deconv__tool_1_1task__strat_1_1TaskStratSet.html#ad7d425601c3adf5f89372f5c7cd5fcb9" target="_top" xlink:title=" ">
<polygon fill="none" stroke="black" points="165,-110.5 165,-151.5 294,-151.5 294,-110.5 165,-110.5"/>
<text text-anchor="start" x="173" y="-139.5" font-family="Helvetica,sans-Serif" font-size="10.00">aopp_deconv_tool.task</text>
<text text-anchor="start" x="173" y="-128.5" font-family="Helvetica,sans-Serif" font-size="10.00">_strat.TaskStratSet.get</text>
<text text-anchor="middle" x="229.5" y="-117.5" font-family="Helvetica,sans-Serif" font-size="10.00">_callable</text>
</a>
</g>
</g>
<!-- Node1&#45;&gt;Node2 -->
<g id="edge1" class="edge">
<title>Node1&#45;&gt;Node2</title>
<path fill="none" stroke="midnightblue" d="M129.45,-131C137.76,-131 146.32,-131 154.77,-131"/>
<polygon fill="midnightblue" stroke="midnightblue" points="155,-134.5 165,-131 155,-127.5 155,-134.5"/>
</g>
<!-- Node3 -->
<g id="node3" class="node">
<title>Node3</title>
<g id="a_node3"><a xlink:href="../../d5/d45/classlight__beam_1_1LightBeamSet.html#a3a2d8747141be2e5632caa5f430a3105" target="_top" xlink:title=" ">
<polygon fill="none" stroke="black" points="353.5,-231 353.5,-261 499.5,-261 499.5,-231 353.5,-231"/>
<text text-anchor="start" x="361.5" y="-249" font-family="Helvetica,sans-Serif" font-size="10.00">light_beam.LightBeamSet.</text>
<text text-anchor="middle" x="426.5" y="-238" font-family="Helvetica,sans-Serif" font-size="10.00">__getitem__</text>
</a>
</g>
</g>
<!-- Node2&#45;&gt;Node3 -->
<g id="edge2" class="edge">
<title>Node2&#45;&gt;Node3</title>
<path fill="none" stroke="midnightblue" d="M247.81,-151.61C266.16,-172.17 297.01,-203.16 330,-221 334.46,-223.41 339.16,-225.6 343.98,-227.58"/>
<polygon fill="midnightblue" stroke="midnightblue" points="342.8,-230.87 353.4,-231.14 345.28,-224.33 342.8,-230.87"/>
</g>
<!-- Node4 -->
<g id="node4" class="node">
<title>Node4</title>
<g id="a_node4"><a xlink:href="../../d6/da1/classaopp__deconv__tool_1_1task__strat_1_1TaskStratSet.html#a16bcd4d5e98aa809db0c219b6b0aff51" target="_top" xlink:title=" ">
<polygon fill="none" stroke="black" points="362,-170.5 362,-211.5 491,-211.5 491,-170.5 362,-170.5"/>
<text text-anchor="start" x="370" y="-199.5" font-family="Helvetica,sans-Serif" font-size="10.00">aopp_deconv_tool.task</text>
<text text-anchor="start" x="370" y="-188.5" font-family="Helvetica,sans-Serif" font-size="10.00">_strat.TaskStratSet.</text>
<text text-anchor="middle" x="426.5" y="-177.5" font-family="Helvetica,sans-Serif" font-size="10.00">__getitem__</text>
</a>
</g>
</g>
<!-- Node2&#45;&gt;Node4 -->
<g id="edge3" class="edge">
<title>Node2&#45;&gt;Node4</title>
<path fill="none" stroke="midnightblue" d="M294.08,-150.56C312.54,-156.24 332.84,-162.49 351.86,-168.34"/>
<polygon fill="midnightblue" stroke="midnightblue" points="351.09,-171.77 361.67,-171.36 353.14,-165.07 351.09,-171.77"/>
</g>
<!-- Node6 -->
<g id="node6" class="node">
<title>Node6</title>
<g id="a_node6"><a xlink:href="../../df/da5/classaopp__deconv__tool_1_1data__structures_1_1bi__directional__map_1_1BiDirectionalMap.html#aee299272ed1c87829cc9006e9a823722" target="_top" xlink:title=" ">
<polygon fill="none" stroke="black" points="330,-110.5 330,-151.5 523,-151.5 523,-110.5 330,-110.5"/>
<text text-anchor="start" x="338" y="-139.5" font-family="Helvetica,sans-Serif" font-size="10.00">aopp_deconv_tool.data</text>
<text text-anchor="start" x="338" y="-128.5" font-family="Helvetica,sans-Serif" font-size="10.00">_structures.bi_directional</text>
<text text-anchor="middle" x="426.5" y="-117.5" font-family="Helvetica,sans-Serif" font-size="10.00">_map.BiDirectionalMap.__getitem__</text>
</a>
</g>
</g>
<!-- Node2&#45;&gt;Node6 -->
<g id="edge5" class="edge">
<title>Node2&#45;&gt;Node6</title>
<path fill="none" stroke="midnightblue" d="M294.08,-131C302.31,-131 310.9,-131 319.59,-131"/>
<polygon fill="midnightblue" stroke="midnightblue" points="319.81,-134.5 329.81,-131 319.81,-127.5 319.81,-134.5"/>
</g>
<!-- Node7 -->
<g id="node7" class="node">
<title>Node7</title>
<g id="a_node7"><a xlink:href="../../d0/dda/classoptical__component_1_1OpticalComponentSet.html#a181dc234d01cfebdf5ad26cc52c4bac1" target="_top" xlink:title=" ">
<polygon fill="none" stroke="black" points="351,-61 351,-91 502,-91 502,-61 351,-61"/>
<text text-anchor="start" x="359" y="-79" font-family="Helvetica,sans-Serif" font-size="10.00">optical_component.Optical</text>
<text text-anchor="middle" x="426.5" y="-68" font-family="Helvetica,sans-Serif" font-size="10.00">ComponentSet.__getitem__</text>
</a>
</g>
</g>
<!-- Node2&#45;&gt;Node7 -->
<g id="edge6" class="edge">
<title>Node2&#45;&gt;Node7</title>
<path fill="none" stroke="midnightblue" d="M294.09,-111.45C306,-107.89 318.36,-104.28 330,-101 338.66,-98.56 347.79,-96.07 356.82,-93.65"/>
<polygon fill="midnightblue" stroke="midnightblue" points="357.8,-97.02 366.57,-91.06 356,-90.25 357.8,-97.02"/>
</g>
<!-- Node8 -->
<g id="node8" class="node">
<title>Node8</title>
<g id="a_node8"><a xlink:href="../../d9/d34/classaopp__deconv__tool_1_1optimise__compat_1_1PriorParamSet.html#ad6f05162d6a853ae0e1a695db8cef33d" target="_top" xlink:title=" ">
<polygon fill="none" stroke="black" points="351,-0.5 351,-41.5 502,-41.5 502,-0.5 351,-0.5"/>
<text text-anchor="start" x="359" y="-29.5" font-family="Helvetica,sans-Serif" font-size="10.00">aopp_deconv_tool.optimise</text>
<text text-anchor="start" x="359" y="-18.5" font-family="Helvetica,sans-Serif" font-size="10.00">_compat.PriorParamSet.</text>
<text text-anchor="middle" x="426.5" y="-7.5" font-family="Helvetica,sans-Serif" font-size="10.00">__getitem__</text>
</a>
</g>
</g>
<!-- Node2&#45;&gt;Node8 -->
<g id="edge7" class="edge">
<title>Node2&#45;&gt;Node8</title>
<path fill="none" stroke="midnightblue" d="M251.79,-110.33C270.92,-92.73 300.46,-67.85 330,-52 334.29,-49.7 338.77,-47.53 343.37,-45.5"/>
<polygon fill="midnightblue" stroke="midnightblue" points="345.04,-48.59 352.91,-41.5 342.33,-42.14 345.04,-48.59"/>
</g>
<!-- Node5 -->
<g id="node5" class="node">
<title>Node5</title>
<g id="a_node5"><a xlink:href="../../d6/da1/classaopp__deconv__tool_1_1task__strat_1_1TaskStratSet.html#a76324e28a364c9e85b911725b852314b" target="_top" xlink:title=" ">
<polygon fill="none" stroke="black" points="559,-170.5 559,-211.5 688,-211.5 688,-170.5 559,-170.5"/>
<text text-anchor="start" x="567" y="-199.5" font-family="Helvetica,sans-Serif" font-size="10.00">aopp_deconv_tool.task</text>
<text text-anchor="start" x="567" y="-188.5" font-family="Helvetica,sans-Serif" font-size="10.00">_strat.TaskStratSet.</text>
<text text-anchor="middle" x="623.5" y="-177.5" font-family="Helvetica,sans-Serif" font-size="10.00">_get_item</text>
</a>
</g>
</g>
<!-- Node4&#45;&gt;Node5 -->
<g id="edge4" class="edge">
<title>Node4&#45;&gt;Node5</title>
<path fill="none" stroke="midnightblue" d="M491.08,-191C509.45,-191 529.66,-191 548.6,-191"/>
<polygon fill="midnightblue" stroke="midnightblue" points="548.67,-194.5 558.67,-191 548.67,-187.5 548.67,-194.5"/>
</g>
</g>
</svg>
