<?xml version="1.0" encoding="UTF-8" standalone="no"?>
<!DOCTYPE svg PUBLIC "-//W3C//DTD SVG 1.1//EN"
 "http://www.w3.org/Graphics/SVG/1.1/DTD/svg11.dtd">
<!-- Generated by graphviz version 2.43.0 (0)
 -->
<!-- Title: optical_component.OpticalComponentSet.otf Pages: 1 -->
<svg width="901pt" height="74pt"
 viewBox="0.00 0.00 901.00 74.00" xmlns="http://www.w3.org/2000/svg" xmlns:xlink="http://www.w3.org/1999/xlink">
<g id="graph0" class="graph" transform="scale(1 1) rotate(0) translate(4 70)">
<title>optical_component.OpticalComponentSet.otf</title>
<!-- Node1 -->
<g id="node1" class="node">
<title>Node1</title>
<g id="a_node1"><a xlink:title=" ">
<polygon fill="#bfbfbf" stroke="black" points="0,-30 0,-60 147,-60 147,-30 0,-30"/>
<text text-anchor="start" x="8" y="-48" font-family="Helvetica,sans-Serif" font-size="10.00">optical_component.Optical</text>
<text text-anchor="middle" x="73.5" y="-37" font-family="Helvetica,sans-Serif" font-size="10.00">ComponentSet.otf</text>
</a>
</g>
</g>
<!-- Node2 -->
<g id="node2" class="node">
<title>Node2</title>
<g id="a_node2"><a xlink:href="../../d0/dda/classoptical__component_1_1OpticalComponentSet.html#a40a78b805fc3c79d16471d083619d9a7" target="_top" xlink:title=" ">
<polygon fill="none" stroke="black" points="183,-30 183,-60 330,-60 330,-30 183,-30"/>
<text text-anchor="start" x="191" y="-48" font-family="Helvetica,sans-Serif" font-size="10.00">optical_component.Optical</text>
<text text-anchor="middle" x="256.5" y="-37" font-family="Helvetica,sans-Serif" font-size="10.00">ComponentSet.psf</text>
</a>
</g>
</g>
<!-- Node1&#45;&gt;Node2 -->
<g id="edge1" class="edge">
<title>Node1&#45;&gt;Node2</title>
<path fill="none" stroke="midnightblue" d="M147.08,-45C155.56,-45 164.26,-45 172.87,-45"/>
<polygon fill="midnightblue" stroke="midnightblue" points="172.91,-48.5 182.91,-45 172.91,-41.5 172.91,-48.5"/>
</g>
<!-- Node3 -->
<g id="node3" class="node">
<title>Node3</title>
<g id="a_node3"><a xlink:href="../../d0/dda/classoptical__component_1_1OpticalComponentSet.html#af12dd9b9561096cced993897bc85a762" target="_top" xlink:title=" ">
<polygon fill="none" stroke="black" points="366,-30 366,-60 527,-60 527,-30 366,-30"/>
<text text-anchor="start" x="374" y="-48" font-family="Helvetica,sans-Serif" font-size="10.00">optical_component.Optical</text>
<text text-anchor="middle" x="446.5" y="-37" font-family="Helvetica,sans-Serif" font-size="10.00">ComponentSet.pupil_function</text>
</a>
</g>
</g>
<!-- Node2&#45;&gt;Node3 -->
<g id="edge2" class="edge">
<title>Node2&#45;&gt;Node3</title>
<path fill="none" stroke="midnightblue" d="M330.19,-45C338.58,-45 347.21,-45 355.79,-45"/>
<polygon fill="midnightblue" stroke="midnightblue" points="355.83,-48.5 365.83,-45 355.83,-41.5 355.83,-48.5"/>
</g>
<!-- Node4 -->
<g id="node4" class="node">
<title>Node4</title>
<g id="a_node4"><a xlink:href="../../d0/dda/classoptical__component_1_1OpticalComponentSet.html#acc14c680a3b7a5bf0ac7cbfd58049627" target="_top" xlink:title=" ">
<polygon fill="none" stroke="black" points="746,-24.5 746,-65.5 893,-65.5 893,-24.5 746,-24.5"/>
<text text-anchor="start" x="754" y="-53.5" font-family="Helvetica,sans-Serif" font-size="10.00">optical_component.Optical</text>
<text text-anchor="start" x="754" y="-42.5" font-family="Helvetica,sans-Serif" font-size="10.00">ComponentSet.calc_full</text>
<text text-anchor="middle" x="819.5" y="-31.5" font-family="Helvetica,sans-Serif" font-size="10.00">_light_beam</text>
</a>
</g>
</g>
<!-- Node3&#45;&gt;Node4 -->
<g id="edge3" class="edge">
<title>Node3&#45;&gt;Node4</title>
<path fill="none" stroke="midnightblue" d="M527.01,-49.67C539.06,-50.22 551.36,-50.7 563,-51 628.31,-52.7 644.69,-52.8 710,-51 718.34,-50.77 727.03,-50.44 735.7,-50.05"/>
<polygon fill="midnightblue" stroke="midnightblue" points="736.04,-53.54 745.86,-49.57 735.71,-46.55 736.04,-53.54"/>
</g>
<!-- Node5 -->
<g id="node5" class="node">
<title>Node5</title>
<g id="a_node5"><a xlink:href="../../d0/dda/classoptical__component_1_1OpticalComponentSet.html#ae6649866f2449837c05b1741199338a3" target="_top" xlink:title=" ">
<polygon fill="none" stroke="black" points="563,-0.5 563,-41.5 710,-41.5 710,-0.5 563,-0.5"/>
<text text-anchor="start" x="571" y="-29.5" font-family="Helvetica,sans-Serif" font-size="10.00">optical_component.Optical</text>
<text text-anchor="start" x="571" y="-18.5" font-family="Helvetica,sans-Serif" font-size="10.00">ComponentSet.get_pupil</text>
<text text-anchor="middle" x="636.5" y="-7.5" font-family="Helvetica,sans-Serif" font-size="10.00">_function_scale</text>
</a>
</g>
</g>
<!-- Node3&#45;&gt;Node5 -->
<g id="edge4" class="edge">
<title>Node3&#45;&gt;Node5</title>
<path fill="none" stroke="midnightblue" d="M527.23,-34.82C535.72,-33.74 544.36,-32.63 552.88,-31.55"/>
<polygon fill="midnightblue" stroke="midnightblue" points="553.33,-35.02 562.81,-30.28 552.45,-28.07 553.33,-35.02"/>
</g>
<!-- Node5&#45;&gt;Node4 -->
<g id="edge5" class="edge">
<title>Node5&#45;&gt;Node4</title>
<path fill="none" stroke="midnightblue" d="M710.08,-30.62C718.56,-31.75 727.26,-32.9 735.87,-34.04"/>
<polygon fill="midnightblue" stroke="midnightblue" points="735.53,-37.53 745.91,-35.37 736.45,-30.59 735.53,-37.53"/>
</g>
</g>
</svg>
