<?xml version="1.0" encoding="UTF-8" standalone="no"?>
<!DOCTYPE svg PUBLIC "-//W3C//DTD SVG 1.1//EN"
 "http://www.w3.org/Graphics/SVG/1.1/DTD/svg11.dtd">
<!-- Generated by graphviz version 2.43.0 (0)
 -->
<!-- Title: optical_component.OpticalComponentSet.calc_full_light_beam Pages: 1 -->
<svg width="901pt" height="74pt"
 viewBox="0.00 0.00 901.00 74.00" xmlns="http://www.w3.org/2000/svg" xmlns:xlink="http://www.w3.org/1999/xlink">
<g id="graph0" class="graph" transform="scale(1 1) rotate(0) translate(4 70)">
<title>optical_component.OpticalComponentSet.calc_full_light_beam</title>
<!-- Node1 -->
<g id="Node000001" class="node">
<title>Node1</title>
<g id="a_Node000001"><a xlink:title=" ">
<polygon fill="#999999" stroke="#666666" points="893,-41 746,-41 746,0 893,0 893,-41"/>
<text text-anchor="start" x="754" y="-29" font-family="Helvetica,sans-Serif" font-size="10.00">optical_component.Optical</text>
<text text-anchor="start" x="754" y="-18" font-family="Helvetica,sans-Serif" font-size="10.00">ComponentSet.calc_full</text>
<text text-anchor="middle" x="819.5" y="-7" font-family="Helvetica,sans-Serif" font-size="10.00">_light_beam</text>
</a>
</g>
</g>
<!-- Node2 -->
<g id="Node000002" class="node">
<title>Node2</title>
<g id="a_Node000002"><a xlink:href="../../d0/dda/classoptical__component_1_1OpticalComponentSet.html#a08350fc7bd0cdf6d877b56d30fd42547" target="_top" xlink:title=" ">
<polygon fill="white" stroke="#666666" points="710,-66 563,-66 563,-25 710,-25 710,-66"/>
<text text-anchor="start" x="571" y="-54" font-family="Helvetica,sans-Serif" font-size="10.00">optical_component.Optical</text>
<text text-anchor="start" x="571" y="-43" font-family="Helvetica,sans-Serif" font-size="10.00">ComponentSet.get_pupil</text>
<text text-anchor="middle" x="636.5" y="-32" font-family="Helvetica,sans-Serif" font-size="10.00">_function_scale</text>
</a>
</g>
</g>
<!-- Node1&#45;&gt;Node2 -->
<g id="edge1_Node000001_Node000002" class="edge">
<title>Node1&#45;&gt;Node2</title>
<g id="a_edge1_Node000001_Node000002"><a xlink:title=" ">
<path fill="none" stroke="#63b8ff" d="M735.88,-31.91C727.28,-33.1 718.58,-34.3 710.09,-35.47"/>
<polygon fill="#63b8ff" stroke="#63b8ff" points="736.5,-35.36 745.92,-30.52 735.54,-28.43 736.5,-35.36"/>
</a>
</g>
</g>
<!-- Node3 -->
<g id="Node000003" class="node">
<title>Node3</title>
<g id="a_Node000003"><a xlink:href="../../d0/dda/classoptical__component_1_1OpticalComponentSet.html#aa90be9d766d2dd7952a1a4098d0f6df0" target="_top" xlink:title=" ">
<polygon fill="white" stroke="#666666" points="527,-35.5 366,-35.5 366,-5.5 527,-5.5 527,-35.5"/>
<text text-anchor="start" x="374" y="-23.5" font-family="Helvetica,sans-Serif" font-size="10.00">optical_component.Optical</text>
<text text-anchor="middle" x="446.5" y="-12.5" font-family="Helvetica,sans-Serif" font-size="10.00">ComponentSet.pupil_function</text>
</a>
</g>
</g>
<!-- Node1&#45;&gt;Node3 -->
<g id="edge5_Node000001_Node000003" class="edge">
<title>Node1&#45;&gt;Node3</title>
<g id="a_edge5_Node000001_Node000003"><a xlink:title=" ">
<path fill="none" stroke="#63b8ff" d="M735.69,-17.13C727.02,-16.87 718.33,-16.65 710,-16.5 644.68,-15.3 628.32,-15.37 563,-16.5 551.36,-16.7 539.07,-17.02 527.02,-17.38"/>
<polygon fill="#63b8ff" stroke="#63b8ff" points="735.74,-20.64 745.85,-17.45 735.96,-13.64 735.74,-20.64"/>
</a>
</g>
</g>
<!-- Node2&#45;&gt;Node3 -->
<g id="edge2_Node000002_Node000003" class="edge">
<title>Node2&#45;&gt;Node3</title>
<g id="a_edge2_Node000002_Node000003"><a xlink:title=" ">
<path fill="none" stroke="#63b8ff" d="M552.87,-34.51C544.33,-33.38 535.67,-32.23 527.17,-31.09"/>
<polygon fill="#63b8ff" stroke="#63b8ff" points="552.44,-37.99 562.81,-35.83 553.36,-31.05 552.44,-37.99"/>
</a>
</g>
</g>
<!-- Node4 -->
<g id="Node000004" class="node">
<title>Node4</title>
<g id="a_Node000004"><a xlink:href="../../d0/dda/classoptical__component_1_1OpticalComponentSet.html#ae63c6b683ce2043a310ef64a0669c8e9" target="_top" xlink:title=" ">
<polygon fill="white" stroke="#666666" points="330,-35.5 183,-35.5 183,-5.5 330,-5.5 330,-35.5"/>
<text text-anchor="start" x="191" y="-23.5" font-family="Helvetica,sans-Serif" font-size="10.00">optical_component.Optical</text>
<text text-anchor="middle" x="256.5" y="-12.5" font-family="Helvetica,sans-Serif" font-size="10.00">ComponentSet.psf</text>
</a>
</g>
</g>
<!-- Node3&#45;&gt;Node4 -->
<g id="edge3_Node000003_Node000004" class="edge">
<title>Node3&#45;&gt;Node4</title>
<g id="a_edge3_Node000003_Node000004"><a xlink:title=" ">
<path fill="none" stroke="#63b8ff" d="M355.75,-20.5C347.18,-20.5 338.57,-20.5 330.19,-20.5"/>
<polygon fill="#63b8ff" stroke="#63b8ff" points="355.77,-24 365.77,-20.5 355.77,-17 355.77,-24"/>
</a>
</g>
</g>
<!-- Node5 -->
<g id="Node000005" class="node">
<title>Node5</title>
<g id="a_Node000005"><a xlink:href="../../d0/dda/classoptical__component_1_1OpticalComponentSet.html#a35eda5cce83a6ec1a596724a66d3d6d6" target="_top" xlink:title=" ">
<polygon fill="white" stroke="#666666" points="147,-35.5 0,-35.5 0,-5.5 147,-5.5 147,-35.5"/>
<text text-anchor="start" x="8" y="-23.5" font-family="Helvetica,sans-Serif" font-size="10.00">optical_component.Optical</text>
<text text-anchor="middle" x="73.5" y="-12.5" font-family="Helvetica,sans-Serif" font-size="10.00">ComponentSet.otf</text>
</a>
</g>
</g>
<!-- Node4&#45;&gt;Node5 -->
<g id="edge4_Node000004_Node000005" class="edge">
<title>Node4&#45;&gt;Node5</title>
<g id="a_edge4_Node000004_Node000005"><a xlink:title=" ">
<path fill="none" stroke="#63b8ff" d="M172.88,-20.5C164.28,-20.5 155.58,-20.5 147.09,-20.5"/>
<polygon fill="#63b8ff" stroke="#63b8ff" points="172.92,-24 182.92,-20.5 172.92,-17 172.92,-24"/>
</a>
</g>
</g>
</g>
</svg>
