<?xml version="1.0" encoding="UTF-8" standalone="no"?>
<!DOCTYPE svg PUBLIC "-//W3C//DTD SVG 1.1//EN"
 "http://www.w3.org/Graphics/SVG/1.1/DTD/svg11.dtd">
<!-- Generated by graphviz version 2.43.0 (0)
 -->
<!-- Title: optical_component.OpticalComponentSet.pupil_function Pages: 1 -->
<svg width="535pt" height="73pt"
 viewBox="0.00 0.00 535.00 73.00" xmlns="http://www.w3.org/2000/svg" xmlns:xlink="http://www.w3.org/1999/xlink">
<g id="graph0" class="graph" transform="scale(1 1) rotate(0) translate(4 69)">
<title>optical_component.OpticalComponentSet.pupil_function</title>
<!-- Node1 -->
<g id="Node000001" class="node">
<title>Node1</title>
<g id="a_Node000001"><a xlink:title=" ">
<polygon fill="#999999" stroke="#666666" points="161,-59.5 0,-59.5 0,-29.5 161,-29.5 161,-59.5"/>
<text text-anchor="start" x="8" y="-47.5" font-family="Helvetica,sans-Serif" font-size="10.00">optical_component.Optical</text>
<text text-anchor="middle" x="80.5" y="-36.5" font-family="Helvetica,sans-Serif" font-size="10.00">ComponentSet.pupil_function</text>
</a>
</g>
</g>
<!-- Node2 -->
<g id="Node000002" class="node">
<title>Node2</title>
<g id="a_Node000002"><a xlink:href="../../d0/dda/classoptical__component_1_1OpticalComponentSet.html#a4e7c3638f1edd823fa7b4ed1566ffe69" target="_top" xlink:title=" ">
<polygon fill="white" stroke="#666666" points="527,-65 380,-65 380,-24 527,-24 527,-65"/>
<text text-anchor="start" x="388" y="-53" font-family="Helvetica,sans-Serif" font-size="10.00">optical_component.Optical</text>
<text text-anchor="start" x="388" y="-42" font-family="Helvetica,sans-Serif" font-size="10.00">ComponentSet.calc_full</text>
<text text-anchor="middle" x="453.5" y="-31" font-family="Helvetica,sans-Serif" font-size="10.00">_light_beam</text>
</a>
</g>
</g>
<!-- Node1&#45;&gt;Node2 -->
<g id="edge1_Node000001_Node000002" class="edge">
<title>Node1&#45;&gt;Node2</title>
<g id="a_edge1_Node000001_Node000002"><a xlink:title=" ">
<path fill="none" stroke="#63b8ff" d="M161.01,-49.17C173.06,-49.72 185.36,-50.2 197,-50.5 262.31,-52.2 278.69,-52.3 344,-50.5 352.34,-50.27 361.03,-49.94 369.7,-49.55"/>
<polygon fill="#63b8ff" stroke="#63b8ff" points="370.04,-53.04 379.86,-49.07 369.71,-46.05 370.04,-53.04"/>
</a>
</g>
</g>
<!-- Node3 -->
<g id="Node000003" class="node">
<title>Node3</title>
<g id="a_Node000003"><a xlink:href="../../d0/dda/classoptical__component_1_1OpticalComponentSet.html#a08350fc7bd0cdf6d877b56d30fd42547" target="_top" xlink:title=" ">
<polygon fill="white" stroke="#666666" points="344,-41 197,-41 197,0 344,0 344,-41"/>
<text text-anchor="start" x="205" y="-29" font-family="Helvetica,sans-Serif" font-size="10.00">optical_component.Optical</text>
<text text-anchor="start" x="205" y="-18" font-family="Helvetica,sans-Serif" font-size="10.00">ComponentSet.get_pupil</text>
<text text-anchor="middle" x="270.5" y="-7" font-family="Helvetica,sans-Serif" font-size="10.00">_function_scale</text>
</a>
</g>
</g>
<!-- Node1&#45;&gt;Node3 -->
<g id="edge2_Node000001_Node000003" class="edge">
<title>Node1&#45;&gt;Node3</title>
<g id="a_edge2_Node000001_Node000003"><a xlink:title=" ">
<path fill="none" stroke="#63b8ff" d="M161.23,-34.32C169.72,-33.24 178.36,-32.13 186.88,-31.05"/>
<polygon fill="#63b8ff" stroke="#63b8ff" points="187.33,-34.52 196.81,-29.78 186.45,-27.57 187.33,-34.52"/>
</a>
</g>
</g>
<!-- Node3&#45;&gt;Node2 -->
<g id="edge3_Node000003_Node000002" class="edge">
<title>Node3&#45;&gt;Node2</title>
<g id="a_edge3_Node000003_Node000002"><a xlink:title=" ">
<path fill="none" stroke="#63b8ff" d="M344.08,-30.12C352.56,-31.25 361.26,-32.4 369.87,-33.54"/>
<polygon fill="#63b8ff" stroke="#63b8ff" points="369.53,-37.03 379.91,-34.87 370.45,-30.09 369.53,-37.03"/>
</a>
</g>
</g>
</g>
</svg>
