<?xml version="1.0" encoding="UTF-8" standalone="no"?>
<!DOCTYPE svg PUBLIC "-//W3C//DTD SVG 1.1//EN"
 "http://www.w3.org/Graphics/SVG/1.1/DTD/svg11.dtd">
<!-- Generated by graphviz version 2.43.0 (0)
 -->
<!-- Title: optical_component.OpticalComponentSet.get_pupil_function_scale Pages: 1 -->
<svg width="718pt" height="50pt"
 viewBox="0.00 0.00 718.00 50.00" xmlns="http://www.w3.org/2000/svg" xmlns:xlink="http://www.w3.org/1999/xlink">
<g id="graph0" class="graph" transform="scale(1 1) rotate(0) translate(4 46)">
<title>optical_component.OpticalComponentSet.get_pupil_function_scale</title>
<!-- Node1 -->
<g id="node1" class="node">
<title>Node1</title>
<g id="a_node1"><a xlink:title=" ">
<polygon fill="#bfbfbf" stroke="black" points="563,-0.5 563,-41.5 710,-41.5 710,-0.5 563,-0.5"/>
<text text-anchor="start" x="571" y="-29.5" font-family="Helvetica,sans-Serif" font-size="10.00">optical_component.Optical</text>
<text text-anchor="start" x="571" y="-18.5" font-family="Helvetica,sans-Serif" font-size="10.00">ComponentSet.get_pupil</text>
<text text-anchor="middle" x="636.5" y="-7.5" font-family="Helvetica,sans-Serif" font-size="10.00">_function_scale</text>
</a>
</g>
</g>
<!-- Node2 -->
<g id="node2" class="node">
<title>Node2</title>
<g id="a_node2"><a xlink:href="../../d0/dda/classoptical__component_1_1OpticalComponentSet.html#af12dd9b9561096cced993897bc85a762" target="_top" xlink:title=" ">
<polygon fill="none" stroke="black" points="366,-6 366,-36 527,-36 527,-6 366,-6"/>
<text text-anchor="start" x="374" y="-24" font-family="Helvetica,sans-Serif" font-size="10.00">optical_component.Optical</text>
<text text-anchor="middle" x="446.5" y="-13" font-family="Helvetica,sans-Serif" font-size="10.00">ComponentSet.pupil_function</text>
</a>
</g>
</g>
<!-- Node1&#45;&gt;Node2 -->
<g id="edge1" class="edge">
<title>Node1&#45;&gt;Node2</title>
<path fill="none" stroke="midnightblue" d="M552.59,-21C544.15,-21 535.58,-21 527.17,-21"/>
<polygon fill="midnightblue" stroke="midnightblue" points="552.81,-24.5 562.81,-21 552.81,-17.5 552.81,-24.5"/>
</g>
<!-- Node3 -->
<g id="node3" class="node">
<title>Node3</title>
<g id="a_node3"><a xlink:href="../../d0/dda/classoptical__component_1_1OpticalComponentSet.html#a40a78b805fc3c79d16471d083619d9a7" target="_top" xlink:title=" ">
<polygon fill="none" stroke="black" points="183,-6 183,-36 330,-36 330,-6 183,-6"/>
<text text-anchor="start" x="191" y="-24" font-family="Helvetica,sans-Serif" font-size="10.00">optical_component.Optical</text>
<text text-anchor="middle" x="256.5" y="-13" font-family="Helvetica,sans-Serif" font-size="10.00">ComponentSet.psf</text>
</a>
</g>
</g>
<!-- Node2&#45;&gt;Node3 -->
<g id="edge2" class="edge">
<title>Node2&#45;&gt;Node3</title>
<path fill="none" stroke="midnightblue" d="M355.75,-21C347.18,-21 338.57,-21 330.19,-21"/>
<polygon fill="midnightblue" stroke="midnightblue" points="355.77,-24.5 365.77,-21 355.77,-17.5 355.77,-24.5"/>
</g>
<!-- Node4 -->
<g id="node4" class="node">
<title>Node4</title>
<g id="a_node4"><a xlink:href="../../d0/dda/classoptical__component_1_1OpticalComponentSet.html#a1bc64cfa0c36cb2e6edb4b62aaa917ed" target="_top" xlink:title=" ">
<polygon fill="none" stroke="black" points="0,-6 0,-36 147,-36 147,-6 0,-6"/>
<text text-anchor="start" x="8" y="-24" font-family="Helvetica,sans-Serif" font-size="10.00">optical_component.Optical</text>
<text text-anchor="middle" x="73.5" y="-13" font-family="Helvetica,sans-Serif" font-size="10.00">ComponentSet.otf</text>
</a>
</g>
</g>
<!-- Node3&#45;&gt;Node4 -->
<g id="edge3" class="edge">
<title>Node3&#45;&gt;Node4</title>
<path fill="none" stroke="midnightblue" d="M172.88,-21C164.28,-21 155.58,-21 147.09,-21"/>
<polygon fill="midnightblue" stroke="midnightblue" points="172.92,-24.5 182.92,-21 172.92,-17.5 172.92,-24.5"/>
</g>
</g>
</svg>
