<?xml version="1.0" encoding="UTF-8" standalone="no"?>
<!DOCTYPE svg PUBLIC "-//W3C//DTD SVG 1.1//EN"
 "http://www.w3.org/Graphics/SVG/1.1/DTD/svg11.dtd">
<!-- Generated by graphviz version 2.43.0 (0)
 -->
<!-- Title: optical_component.OpticalComponentSet.insert Pages: 1 -->
<svg width="343pt" height="100pt"
 viewBox="0.00 0.00 343.00 99.50" xmlns="http://www.w3.org/2000/svg" xmlns:xlink="http://www.w3.org/1999/xlink">
<g id="graph0" class="graph" transform="scale(1 1) rotate(0) translate(4 95.5)">
<title>optical_component.OpticalComponentSet.insert</title>
<!-- Node1 -->
<g id="node1" class="node">
<title>Node1</title>
<g id="a_node1"><a xlink:title=" ">
<polygon fill="#bfbfbf" stroke="black" points="0,-0.5 0,-30.5 147,-30.5 147,-0.5 0,-0.5"/>
<text text-anchor="start" x="8" y="-18.5" font-family="Helvetica,sans-Serif" font-size="10.00">optical_component.Optical</text>
<text text-anchor="middle" x="73.5" y="-7.5" font-family="Helvetica,sans-Serif" font-size="10.00">ComponentSet.insert</text>
</a>
</g>
</g>
<!-- Node2 -->
<g id="node2" class="node">
<title>Node2</title>
<g id="a_node2"><a xlink:href="../../d0/dda/classoptical__component_1_1OpticalComponentSet.html#ad3b92c106fee7170f6b6353f51c02c4f" target="_top" xlink:title=" ">
<polygon fill="none" stroke="black" points="183,-50 183,-91 335,-91 335,-50 183,-50"/>
<text text-anchor="start" x="191" y="-79" font-family="Helvetica,sans-Serif" font-size="10.00">optical_component.Optical</text>
<text text-anchor="start" x="191" y="-68" font-family="Helvetica,sans-Serif" font-size="10.00">ComponentSet._component</text>
<text text-anchor="middle" x="259" y="-57" font-family="Helvetica,sans-Serif" font-size="10.00">_name_present</text>
</a>
</g>
</g>
<!-- Node1&#45;&gt;Node2 -->
<g id="edge1" class="edge">
<title>Node1&#45;&gt;Node2</title>
<path fill="none" stroke="midnightblue" d="M124.64,-30.53C141.63,-35.62 161.03,-41.44 179.68,-47.03"/>
<polygon fill="midnightblue" stroke="midnightblue" points="178.76,-50.4 189.35,-49.92 180.77,-43.7 178.76,-50.4"/>
</g>
<!-- Node3 -->
<g id="node3" class="node">
<title>Node3</title>
<g id="a_node3"><a xlink:href="../../d0/dda/classoptical__component_1_1OpticalComponentSet.html#a5cf060a9921e51be5e54bc7a94e4b221" target="_top" xlink:title=" ">
<polygon fill="none" stroke="black" points="185.5,-0.5 185.5,-30.5 332.5,-30.5 332.5,-0.5 185.5,-0.5"/>
<text text-anchor="start" x="193.5" y="-18.5" font-family="Helvetica,sans-Serif" font-size="10.00">optical_component.Optical</text>
<text text-anchor="middle" x="259" y="-7.5" font-family="Helvetica,sans-Serif" font-size="10.00">ComponentSet._do_insert</text>
</a>
</g>
</g>
<!-- Node1&#45;&gt;Node3 -->
<g id="edge2" class="edge">
<title>Node1&#45;&gt;Node3</title>
<path fill="none" stroke="midnightblue" d="M147.02,-8.88C156.29,-8.75 165.84,-8.72 175.25,-8.78"/>
<polygon fill="midnightblue" stroke="midnightblue" points="175.37,-12.28 185.4,-8.88 175.44,-5.28 175.37,-12.28"/>
</g>
<!-- Node3&#45;&gt;Node1 -->
<g id="edge3" class="edge">
<title>Node3&#45;&gt;Node1</title>
<path fill="none" stroke="midnightblue" d="M185.4,-22.12C176.13,-22.25 166.59,-22.28 157.17,-22.22"/>
<polygon fill="midnightblue" stroke="midnightblue" points="157.06,-18.72 147.02,-22.12 156.99,-25.72 157.06,-18.72"/>
</g>
</g>
</svg>
