<?xml version="1.0" encoding="UTF-8" standalone="no"?>
<!DOCTYPE svg PUBLIC "-//W3C//DTD SVG 1.1//EN"
 "http://www.w3.org/Graphics/SVG/1.1/DTD/svg11.dtd">
<!-- Generated by graphviz version 2.43.0 (0)
 -->
<!-- Title: optical_component.OpticalComponentSet.pupil_function Pages: 1 -->
<svg width="535pt" height="74pt"
 viewBox="0.00 0.00 535.00 74.00" xmlns="http://www.w3.org/2000/svg" xmlns:xlink="http://www.w3.org/1999/xlink">
<g id="graph0" class="graph" transform="scale(1 1) rotate(0) translate(4 70)">
<title>optical_component.OpticalComponentSet.pupil_function</title>
<!-- Node1 -->
<g id="node1" class="node">
<title>Node1</title>
<g id="a_node1"><a xlink:title=" ">
<polygon fill="#bfbfbf" stroke="black" points="0,-30 0,-60 161,-60 161,-30 0,-30"/>
<text text-anchor="start" x="8" y="-48" font-family="Helvetica,sans-Serif" font-size="10.00">optical_component.Optical</text>
<text text-anchor="middle" x="80.5" y="-37" font-family="Helvetica,sans-Serif" font-size="10.00">ComponentSet.pupil_function</text>
</a>
</g>
</g>
<!-- Node2 -->
<g id="node2" class="node">
<title>Node2</title>
<g id="a_node2"><a xlink:href="../../d0/dda/classoptical__component_1_1OpticalComponentSet.html#acc14c680a3b7a5bf0ac7cbfd58049627" target="_top" xlink:title=" ">
<polygon fill="none" stroke="black" points="380,-24.5 380,-65.5 527,-65.5 527,-24.5 380,-24.5"/>
<text text-anchor="start" x="388" y="-53.5" font-family="Helvetica,sans-Serif" font-size="10.00">optical_component.Optical</text>
<text text-anchor="start" x="388" y="-42.5" font-family="Helvetica,sans-Serif" font-size="10.00">ComponentSet.calc_full</text>
<text text-anchor="middle" x="453.5" y="-31.5" font-family="Helvetica,sans-Serif" font-size="10.00">_light_beam</text>
</a>
</g>
</g>
<!-- Node1&#45;&gt;Node2 -->
<g id="edge1" class="edge">
<title>Node1&#45;&gt;Node2</title>
<path fill="none" stroke="midnightblue" d="M161.01,-49.67C173.06,-50.22 185.36,-50.7 197,-51 262.31,-52.7 278.69,-52.8 344,-51 352.34,-50.77 361.03,-50.44 369.7,-50.05"/>
<polygon fill="midnightblue" stroke="midnightblue" points="370.04,-53.54 379.86,-49.57 369.71,-46.55 370.04,-53.54"/>
</g>
<!-- Node3 -->
<g id="node3" class="node">
<title>Node3</title>
<g id="a_node3"><a xlink:href="../../d0/dda/classoptical__component_1_1OpticalComponentSet.html#ae6649866f2449837c05b1741199338a3" target="_top" xlink:title=" ">
<polygon fill="none" stroke="black" points="197,-0.5 197,-41.5 344,-41.5 344,-0.5 197,-0.5"/>
<text text-anchor="start" x="205" y="-29.5" font-family="Helvetica,sans-Serif" font-size="10.00">optical_component.Optical</text>
<text text-anchor="start" x="205" y="-18.5" font-family="Helvetica,sans-Serif" font-size="10.00">ComponentSet.get_pupil</text>
<text text-anchor="middle" x="270.5" y="-7.5" font-family="Helvetica,sans-Serif" font-size="10.00">_function_scale</text>
</a>
</g>
</g>
<!-- Node1&#45;&gt;Node3 -->
<g id="edge2" class="edge">
<title>Node1&#45;&gt;Node3</title>
<path fill="none" stroke="midnightblue" d="M161.23,-34.82C169.72,-33.74 178.36,-32.63 186.88,-31.55"/>
<polygon fill="midnightblue" stroke="midnightblue" points="187.33,-35.02 196.81,-30.28 186.45,-28.07 187.33,-35.02"/>
</g>
<!-- Node3&#45;&gt;Node2 -->
<g id="edge3" class="edge">
<title>Node3&#45;&gt;Node2</title>
<path fill="none" stroke="midnightblue" d="M344.08,-30.62C352.56,-31.75 361.26,-32.9 369.87,-34.04"/>
<polygon fill="midnightblue" stroke="midnightblue" points="369.53,-37.53 379.91,-35.37 370.45,-30.59 369.53,-37.53"/>
</g>
</g>
</svg>
