<?xml version="1.0" encoding="UTF-8" standalone="no"?>
<!DOCTYPE svg PUBLIC "-//W3C//DTD SVG 1.1//EN"
 "http://www.w3.org/Graphics/SVG/1.1/DTD/svg11.dtd">
<!-- Generated by graphviz version 2.43.0 (0)
 -->
<!-- Title: optical_component.OpticalComponentSet.pupil_function Pages: 1 -->
<svg width="535pt" height="39pt"
 viewBox="0.00 0.00 535.00 39.00" xmlns="http://www.w3.org/2000/svg" xmlns:xlink="http://www.w3.org/1999/xlink">
<g id="graph0" class="graph" transform="scale(1 1) rotate(0) translate(4 35)">
<title>optical_component.OpticalComponentSet.pupil_function</title>
<!-- Node1 -->
<g id="node1" class="node">
<title>Node1</title>
<g id="a_node1"><a xlink:title=" ">
<polygon fill="#bfbfbf" stroke="black" points="366,-0.5 366,-30.5 527,-30.5 527,-0.5 366,-0.5"/>
<text text-anchor="start" x="374" y="-18.5" font-family="Helvetica,sans-Serif" font-size="10.00">optical_component.Optical</text>
<text text-anchor="middle" x="446.5" y="-7.5" font-family="Helvetica,sans-Serif" font-size="10.00">ComponentSet.pupil_function</text>
</a>
</g>
</g>
<!-- Node2 -->
<g id="node2" class="node">
<title>Node2</title>
<g id="a_node2"><a xlink:href="../../d0/dda/classoptical__component_1_1OpticalComponentSet.html#a40a78b805fc3c79d16471d083619d9a7" target="_top" xlink:title=" ">
<polygon fill="none" stroke="black" points="183,-0.5 183,-30.5 330,-30.5 330,-0.5 183,-0.5"/>
<text text-anchor="start" x="191" y="-18.5" font-family="Helvetica,sans-Serif" font-size="10.00">optical_component.Optical</text>
<text text-anchor="middle" x="256.5" y="-7.5" font-family="Helvetica,sans-Serif" font-size="10.00">ComponentSet.psf</text>
</a>
</g>
</g>
<!-- Node1&#45;&gt;Node2 -->
<g id="edge1" class="edge">
<title>Node1&#45;&gt;Node2</title>
<path fill="none" stroke="midnightblue" d="M355.75,-15.5C347.18,-15.5 338.57,-15.5 330.19,-15.5"/>
<polygon fill="midnightblue" stroke="midnightblue" points="355.77,-19 365.77,-15.5 355.77,-12 355.77,-19"/>
</g>
<!-- Node3 -->
<g id="node3" class="node">
<title>Node3</title>
<g id="a_node3"><a xlink:href="../../d0/dda/classoptical__component_1_1OpticalComponentSet.html#a1bc64cfa0c36cb2e6edb4b62aaa917ed" target="_top" xlink:title=" ">
<polygon fill="none" stroke="black" points="0,-0.5 0,-30.5 147,-30.5 147,-0.5 0,-0.5"/>
<text text-anchor="start" x="8" y="-18.5" font-family="Helvetica,sans-Serif" font-size="10.00">optical_component.Optical</text>
<text text-anchor="middle" x="73.5" y="-7.5" font-family="Helvetica,sans-Serif" font-size="10.00">ComponentSet.otf</text>
</a>
</g>
</g>
<!-- Node2&#45;&gt;Node3 -->
<g id="edge2" class="edge">
<title>Node2&#45;&gt;Node3</title>
<path fill="none" stroke="midnightblue" d="M172.88,-15.5C164.28,-15.5 155.58,-15.5 147.09,-15.5"/>
<polygon fill="midnightblue" stroke="midnightblue" points="172.92,-19 182.92,-15.5 172.92,-12 172.92,-19"/>
</g>
</g>
</svg>
