<?xml version="1.0" encoding="UTF-8" standalone="no"?>
<!DOCTYPE svg PUBLIC "-//W3C//DTD SVG 1.1//EN"
 "http://www.w3.org/Graphics/SVG/1.1/DTD/svg11.dtd">
<!-- Generated by graphviz version 2.43.0 (0)
 -->
<!-- Title: optical_component.OpticalComponentSet.psf Pages: 1 -->
<svg width="718pt" height="73pt"
 viewBox="0.00 0.00 718.00 73.00" xmlns="http://www.w3.org/2000/svg" xmlns:xlink="http://www.w3.org/1999/xlink">
<g id="graph0" class="graph" transform="scale(1 1) rotate(0) translate(4 69)">
<title>optical_component.OpticalComponentSet.psf</title>
<!-- Node1 -->
<g id="Node000001" class="node">
<title>Node1</title>
<g id="a_Node000001"><a xlink:title=" ">
<polygon fill="#999999" stroke="#666666" points="147,-59.5 0,-59.5 0,-29.5 147,-29.5 147,-59.5"/>
<text text-anchor="start" x="8" y="-47.5" font-family="Helvetica,sans-Serif" font-size="10.00">optical_component.Optical</text>
<text text-anchor="middle" x="73.5" y="-36.5" font-family="Helvetica,sans-Serif" font-size="10.00">ComponentSet.psf</text>
</a>
</g>
</g>
<!-- Node2 -->
<g id="Node000002" class="node">
<title>Node2</title>
<g id="a_Node000002"><a xlink:href="../../d0/dda/classoptical__component_1_1OpticalComponentSet.html#aa90be9d766d2dd7952a1a4098d0f6df0" target="_top" xlink:title=" ">
<polygon fill="white" stroke="#666666" points="344,-59.5 183,-59.5 183,-29.5 344,-29.5 344,-59.5"/>
<text text-anchor="start" x="191" y="-47.5" font-family="Helvetica,sans-Serif" font-size="10.00">optical_component.Optical</text>
<text text-anchor="middle" x="263.5" y="-36.5" font-family="Helvetica,sans-Serif" font-size="10.00">ComponentSet.pupil_function</text>
</a>
</g>
</g>
<!-- Node1&#45;&gt;Node2 -->
<g id="edge1_Node000001_Node000002" class="edge">
<title>Node1&#45;&gt;Node2</title>
<g id="a_edge1_Node000001_Node000002"><a xlink:title=" ">
<path fill="none" stroke="#63b8ff" d="M147.19,-44.5C155.58,-44.5 164.21,-44.5 172.79,-44.5"/>
<polygon fill="#63b8ff" stroke="#63b8ff" points="172.83,-48 182.83,-44.5 172.83,-41 172.83,-48"/>
</a>
</g>
</g>
<!-- Node3 -->
<g id="Node000003" class="node">
<title>Node3</title>
<g id="a_Node000003"><a xlink:href="../../d0/dda/classoptical__component_1_1OpticalComponentSet.html#a4e7c3638f1edd823fa7b4ed1566ffe69" target="_top" xlink:title=" ">
<polygon fill="white" stroke="#666666" points="710,-65 563,-65 563,-24 710,-24 710,-65"/>
<text text-anchor="start" x="571" y="-53" font-family="Helvetica,sans-Serif" font-size="10.00">optical_component.Optical</text>
<text text-anchor="start" x="571" y="-42" font-family="Helvetica,sans-Serif" font-size="10.00">ComponentSet.calc_full</text>
<text text-anchor="middle" x="636.5" y="-31" font-family="Helvetica,sans-Serif" font-size="10.00">_light_beam</text>
</a>
</g>
</g>
<!-- Node2&#45;&gt;Node3 -->
<g id="edge2_Node000002_Node000003" class="edge">
<title>Node2&#45;&gt;Node3</title>
<g id="a_edge2_Node000002_Node000003"><a xlink:title=" ">
<path fill="none" stroke="#63b8ff" d="M344.01,-49.17C356.06,-49.72 368.36,-50.2 380,-50.5 445.31,-52.2 461.69,-52.3 527,-50.5 535.34,-50.27 544.03,-49.94 552.7,-49.55"/>
<polygon fill="#63b8ff" stroke="#63b8ff" points="553.04,-53.04 562.86,-49.07 552.71,-46.05 553.04,-53.04"/>
</a>
</g>
</g>
<!-- Node4 -->
<g id="Node000004" class="node">
<title>Node4</title>
<g id="a_Node000004"><a xlink:href="../../d0/dda/classoptical__component_1_1OpticalComponentSet.html#a08350fc7bd0cdf6d877b56d30fd42547" target="_top" xlink:title=" ">
<polygon fill="white" stroke="#666666" points="527,-41 380,-41 380,0 527,0 527,-41"/>
<text text-anchor="start" x="388" y="-29" font-family="Helvetica,sans-Serif" font-size="10.00">optical_component.Optical</text>
<text text-anchor="start" x="388" y="-18" font-family="Helvetica,sans-Serif" font-size="10.00">ComponentSet.get_pupil</text>
<text text-anchor="middle" x="453.5" y="-7" font-family="Helvetica,sans-Serif" font-size="10.00">_function_scale</text>
</a>
</g>
</g>
<!-- Node2&#45;&gt;Node4 -->
<g id="edge3_Node000002_Node000004" class="edge">
<title>Node2&#45;&gt;Node4</title>
<g id="a_edge3_Node000002_Node000004"><a xlink:title=" ">
<path fill="none" stroke="#63b8ff" d="M344.23,-34.32C352.72,-33.24 361.36,-32.13 369.88,-31.05"/>
<polygon fill="#63b8ff" stroke="#63b8ff" points="370.33,-34.52 379.81,-29.78 369.45,-27.57 370.33,-34.52"/>
</a>
</g>
</g>
<!-- Node4&#45;&gt;Node3 -->
<g id="edge4_Node000004_Node000003" class="edge">
<title>Node4&#45;&gt;Node3</title>
<g id="a_edge4_Node000004_Node000003"><a xlink:title=" ">
<path fill="none" stroke="#63b8ff" d="M527.08,-30.12C535.56,-31.25 544.26,-32.4 552.87,-33.54"/>
<polygon fill="#63b8ff" stroke="#63b8ff" points="552.53,-37.03 562.91,-34.87 553.45,-30.09 552.53,-37.03"/>
</a>
</g>
</g>
</g>
</svg>
