<?xml version="1.0" encoding="UTF-8" standalone="no"?>
<!DOCTYPE svg PUBLIC "-//W3C//DTD SVG 1.1//EN"
 "http://www.w3.org/Graphics/SVG/1.1/DTD/svg11.dtd">
<!-- Generated by graphviz version 2.43.0 (0)
 -->
<!-- Title: optical_component.OpticalComponentSet._do_insert Pages: 1 -->
<svg width="338pt" height="38pt"
 viewBox="0.00 0.00 338.00 38.00" xmlns="http://www.w3.org/2000/svg" xmlns:xlink="http://www.w3.org/1999/xlink">
<g id="graph0" class="graph" transform="scale(1 1) rotate(0) translate(4 34)">
<title>optical_component.OpticalComponentSet._do_insert</title>
<!-- Node1 -->
<g id="Node000001" class="node">
<title>Node1</title>
<g id="a_Node000001"><a xlink:title=" ">
<polygon fill="#999999" stroke="#666666" points="330,-30 183,-30 183,0 330,0 330,-30"/>
<text text-anchor="start" x="191" y="-18" font-family="Helvetica,sans-Serif" font-size="10.00">optical_component.Optical</text>
<text text-anchor="middle" x="256.5" y="-7" font-family="Helvetica,sans-Serif" font-size="10.00">ComponentSet._do_insert</text>
</a>
</g>
</g>
<!-- Node2 -->
<g id="Node000002" class="node">
<title>Node2</title>
<g id="a_Node000002"><a xlink:href="../../d0/dda/classoptical__component_1_1OpticalComponentSet.html#a8c12a75117754d4803204f41843f380e" target="_top" xlink:title=" ">
<polygon fill="white" stroke="#666666" points="147,-30 0,-30 0,0 147,0 147,-30"/>
<text text-anchor="start" x="8" y="-18" font-family="Helvetica,sans-Serif" font-size="10.00">optical_component.Optical</text>
<text text-anchor="middle" x="73.5" y="-7" font-family="Helvetica,sans-Serif" font-size="10.00">ComponentSet.insert</text>
</a>
</g>
</g>
<!-- Node1&#45;&gt;Node2 -->
<g id="edge1_Node000001_Node000002" class="edge">
<title>Node1&#45;&gt;Node2</title>
<g id="a_edge1_Node000001_Node000002"><a xlink:title=" ">
<path fill="none" stroke="#63b8ff" d="M172.88,-8.27C164.28,-8.22 155.58,-8.25 147.09,-8.37"/>
<polygon fill="#63b8ff" stroke="#63b8ff" points="172.89,-11.77 182.92,-8.37 172.96,-4.77 172.89,-11.77"/>
</a>
</g>
</g>
<!-- Node2&#45;&gt;Node1 -->
<g id="edge2_Node000002_Node000001" class="edge">
<title>Node2&#45;&gt;Node1</title>
<g id="a_edge2_Node000002_Node000001"><a xlink:title=" ">
<path fill="none" stroke="#63b8ff" d="M157.13,-21.73C165.74,-21.78 174.44,-21.74 182.92,-21.63"/>
<polygon fill="#63b8ff" stroke="#63b8ff" points="157.13,-18.23 147.09,-21.63 157.06,-25.23 157.13,-18.23"/>
</a>
</g>
</g>
</g>
</svg>
