<?xml version="1.0" encoding="UTF-8" standalone="no"?>
<!DOCTYPE svg PUBLIC "-//W3C//DTD SVG 1.1//EN"
 "http://www.w3.org/Graphics/SVG/1.1/DTD/svg11.dtd">
<!-- Generated by graphviz version 2.43.0 (0)
 -->
<!-- Title: aopp_deconv_tool.spatial_rebin.exec_with_args Pages: 1 -->
<svg width="726pt" height="88pt"
 viewBox="0.00 0.00 726.00 88.00" xmlns="http://www.w3.org/2000/svg" xmlns:xlink="http://www.w3.org/1999/xlink">
<g id="graph0" class="graph" transform="scale(1 1) rotate(0) translate(4 84)">
<title>aopp_deconv_tool.spatial_rebin.exec_with_args</title>
<!-- Node1 -->
<g id="node1" class="node">
<title>Node1</title>
<g id="a_node1"><a xlink:title=" ">
<polygon fill="#bfbfbf" stroke="black" points="0,-24.5 0,-54.5 141,-54.5 141,-24.5 0,-24.5"/>
<text text-anchor="start" x="8" y="-42.5" font-family="Helvetica,sans-Serif" font-size="10.00">aopp_deconv_tool.spatial</text>
<text text-anchor="middle" x="70.5" y="-31.5" font-family="Helvetica,sans-Serif" font-size="10.00">_rebin.exec_with_args</text>
</a>
</g>
</g>
<!-- Node2 -->
<g id="node2" class="node">
<title>Node2</title>
<g id="a_node2"><a xlink:href="../../d5/d6e/namespaceaopp__deconv__tool_1_1spatial__rebin.html#a9ddf23f8c9b02acf470d16465d650281" target="_top" xlink:title=" ">
<polygon fill="none" stroke="black" points="177,-49.5 177,-79.5 318,-79.5 318,-49.5 177,-49.5"/>
<text text-anchor="start" x="185" y="-67.5" font-family="Helvetica,sans-Serif" font-size="10.00">aopp_deconv_tool.spatial</text>
<text text-anchor="middle" x="247.5" y="-56.5" font-family="Helvetica,sans-Serif" font-size="10.00">_rebin.parse_args</text>
</a>
</g>
</g>
<!-- Node1&#45;&gt;Node2 -->
<g id="edge1" class="edge">
<title>Node1&#45;&gt;Node2</title>
<path fill="none" stroke="midnightblue" d="M141.17,-49.45C149.59,-50.66 158.25,-51.89 166.81,-53.12"/>
<polygon fill="midnightblue" stroke="midnightblue" points="166.39,-56.59 176.79,-54.54 167.38,-49.66 166.39,-56.59"/>
</g>
<!-- Node5 -->
<g id="node5" class="node">
<title>Node5</title>
<g id="a_node5"><a xlink:href="../../d5/d6e/namespaceaopp__deconv__tool_1_1spatial__rebin.html#adb974c01f59eb85e0109749dae253285" target="_top" xlink:title=" ">
<polygon fill="none" stroke="black" points="177,-0.5 177,-30.5 318,-30.5 318,-0.5 177,-0.5"/>
<text text-anchor="start" x="185" y="-18.5" font-family="Helvetica,sans-Serif" font-size="10.00">aopp_deconv_tool.spatial</text>
<text text-anchor="middle" x="247.5" y="-7.5" font-family="Helvetica,sans-Serif" font-size="10.00">_rebin.run</text>
</a>
</g>
</g>
<!-- Node1&#45;&gt;Node5 -->
<g id="edge4" class="edge">
<title>Node1&#45;&gt;Node5</title>
<path fill="none" stroke="midnightblue" d="M141.17,-29.95C149.59,-28.79 158.25,-27.6 166.81,-26.43"/>
<polygon fill="midnightblue" stroke="midnightblue" points="167.35,-29.89 176.79,-25.06 166.4,-22.95 167.35,-29.89"/>
</g>
<!-- Node3 -->
<g id="node3" class="node">
<title>Node3</title>
<g id="a_node3"><a xlink:href="../../d8/d5b/namespaceaopp__deconv__tool_1_1text.html#ae13da0dd246571ccd435ba5f64904bfe" target="_top" xlink:title=" ">
<polygon fill="none" stroke="black" points="354,-55 354,-74 509,-74 509,-55 354,-55"/>
<text text-anchor="middle" x="431.5" y="-62" font-family="Helvetica,sans-Serif" font-size="10.00">aopp_deconv_tool.text.wrap</text>
</a>
</g>
</g>
<!-- Node2&#45;&gt;Node3 -->
<g id="edge2" class="edge">
<title>Node2&#45;&gt;Node3</title>
<path fill="none" stroke="midnightblue" d="M318.09,-64.5C326.52,-64.5 335.22,-64.5 343.87,-64.5"/>
<polygon fill="midnightblue" stroke="midnightblue" points="343.98,-68 353.98,-64.5 343.98,-61 343.98,-68"/>
</g>
<!-- Node4 -->
<g id="node4" class="node">
<title>Node4</title>
<g id="a_node4"><a xlink:href="../../d8/d5b/namespaceaopp__deconv__tool_1_1text.html#a5b208e43cdecac49460b4ced231aa4a6" target="_top" xlink:title=" ">
<polygon fill="none" stroke="black" points="545,-49.5 545,-79.5 718,-79.5 718,-49.5 545,-49.5"/>
<text text-anchor="start" x="553" y="-67.5" font-family="Helvetica,sans-Serif" font-size="10.00">aopp_deconv_tool.text.combine</text>
<text text-anchor="middle" x="631.5" y="-56.5" font-family="Helvetica,sans-Serif" font-size="10.00">_lines_with_same_indent</text>
</a>
</g>
</g>
<!-- Node3&#45;&gt;Node4 -->
<g id="edge3" class="edge">
<title>Node3&#45;&gt;Node4</title>
<path fill="none" stroke="midnightblue" d="M509.05,-64.5C517.5,-64.5 526.18,-64.5 534.82,-64.5"/>
<polygon fill="midnightblue" stroke="midnightblue" points="534.94,-68 544.94,-64.5 534.94,-61 534.94,-68"/>
</g>
</g>
</svg>
