<?xml version="1.0" encoding="UTF-8" standalone="no"?>
<!DOCTYPE svg PUBLIC "-//W3C//DTD SVG 1.1//EN"
 "http://www.w3.org/Graphics/SVG/1.1/DTD/svg11.dtd">
<!-- Generated by graphviz version 2.43.0 (0)
 -->
<!-- Title: aopp_deconv_tool.plot_helper.plotters.IterativeLineGraph Pages: 1 -->
<svg width="911pt" height="193pt"
 viewBox="0.00 0.00 910.55 193.00" xmlns="http://www.w3.org/2000/svg" xmlns:xlink="http://www.w3.org/1999/xlink">
<g id="graph0" class="graph" transform="scale(1 1) rotate(0) translate(4 189)">
<title>aopp_deconv_tool.plot_helper.plotters.IterativeLineGraph</title>
<!-- Node1 -->
<g id="Node000001" class="node">
<title>Node1</title>
<g id="a_Node000001"><a xlink:title=" ">
<polygon fill="#999999" stroke="#666666" points="368,-41 211,-41 211,0 368,0 368,-41"/>
<text text-anchor="start" x="219" y="-29" font-family="Helvetica,sans-Serif" font-size="10.00">aopp_deconv_tool.plot</text>
<text text-anchor="start" x="219" y="-18" font-family="Helvetica,sans-Serif" font-size="10.00">_helper.plotters.IterativeLine</text>
<text text-anchor="middle" x="289.5" y="-7" font-family="Helvetica,sans-Serif" font-size="10.00">Graph</text>
</a>
</g>
</g>
<!-- Node2 -->
<g id="Node000002" class="node">
<title>Node2</title>
<g id="a_Node000002"><a xlink:href="../../d4/d84/classaopp__deconv__tool_1_1plot__helper_1_1base_1_1Base.html" target="_top" xlink:title=" ">
<polygon fill="white" stroke="#666666" points="558,-108 431,-108 431,-78 558,-78 558,-108"/>
<text text-anchor="start" x="439" y="-96" font-family="Helvetica,sans-Serif" font-size="10.00">aopp_deconv_tool.plot</text>
<text text-anchor="middle" x="494.5" y="-85" font-family="Helvetica,sans-Serif" font-size="10.00">_helper.base.Base</text>
</a>
</g>
</g>
<!-- Node2&#45;&gt;Node1 -->
<g id="edge1_Node000001_Node000002" class="edge">
<title>Node2&#45;&gt;Node1</title>
<g id="a_edge1_Node000001_Node000002"><a xlink:title=" ">
<path fill="none" stroke="#63b8ff" d="M443.8,-74.57C414.25,-64.4 376.89,-51.55 346.34,-41.05"/>
<polygon fill="#63b8ff" stroke="#63b8ff" points="442.91,-77.96 453.51,-77.9 445.19,-71.34 442.91,-77.96"/>
</a>
</g>
</g>
<!-- Node3 -->
<g id="Node000003" class="node">
<title>Node3</title>
<g id="a_Node000003"><a xlink:title=" ">
<polygon fill="white" stroke="#666666" points="186,-185 157,-185 157,-166 186,-166 186,-185"/>
<text text-anchor="middle" x="171.5" y="-173" font-family="Helvetica,sans-Serif" font-size="10.00">str</text>
</a>
</g>
</g>
<!-- Node3&#45;&gt;Node1 -->
<g id="edge11_Node000001_Node000003" class="edge">
<title>Node3&#45;&gt;Node1</title>
<g id="a_edge11_Node000001_Node000003"><a xlink:title=" ">
<path fill="none" stroke="#9a32cd" stroke-dasharray="5,2" d="M174.14,-155.82C176.03,-146.42 179.23,-135.11 184.5,-126 204.47,-91.5 238.75,-60.47 262.69,-41.35"/>
<polygon fill="#9a32cd" stroke="#9a32cd" points="170.67,-155.3 172.45,-165.74 177.58,-156.47 170.67,-155.3"/>
</a>
</g>
<text text-anchor="middle" x="268" y="-96" font-family="Helvetica,sans-Serif" font-size="10.00" fill="grey"> datasource_name</text>
<text text-anchor="middle" x="268" y="-85" font-family="Helvetica,sans-Serif" font-size="10.00" fill="grey">title</text>
</g>
<!-- Node3&#45;&gt;Node2 -->
<g id="edge2_Node000002_Node000003" class="edge">
<title>Node3&#45;&gt;Node2</title>
<g id="a_edge2_Node000002_Node000003"><a xlink:title=" ">
<path fill="none" stroke="#9a32cd" stroke-dasharray="5,2" d="M181.01,-157.21C187.96,-146.35 198.44,-133.08 211.5,-126 248.12,-106.14 359.14,-98.56 430.75,-95.7"/>
<polygon fill="#9a32cd" stroke="#9a32cd" points="177.93,-155.55 175.83,-165.93 183.94,-159.12 177.93,-155.55"/>
</a>
</g>
<text text-anchor="middle" x="257" y="-140" font-family="Helvetica,sans-Serif" font-size="10.00" fill="grey"> datasource_name</text>
<text text-anchor="middle" x="257" y="-129" font-family="Helvetica,sans-Serif" font-size="10.00" fill="grey">title</text>
</g>
<!-- Node4 -->
<g id="Node000004" class="node">
<title>Node4</title>
<g id="a_Node000004"><a xlink:title=" ">
<polygon fill="white" stroke="#666666" points="41,-185 0,-185 0,-166 41,-166 41,-185"/>
<text text-anchor="middle" x="20.5" y="-173" font-family="Helvetica,sans-Serif" font-size="10.00">tuple</text>
</a>
</g>
</g>
<!-- Node4&#45;&gt;Node1 -->
<g id="edge12_Node000001_Node000004" class="edge">
<title>Node4&#45;&gt;Node1</title>
<g id="a_edge12_Node000001_Node000004"><a xlink:title=" ">
<path fill="none" stroke="#9a32cd" stroke-dasharray="5,2" d="M27.5,-156.26C31.52,-146.83 37.04,-135.37 43.5,-126 60.27,-101.67 64.17,-93.22 89.5,-78 126.31,-55.89 172.11,-42.12 210.59,-33.73"/>
<polygon fill="#9a32cd" stroke="#9a32cd" points="24.14,-155.23 23.64,-165.82 30.63,-157.86 24.14,-155.23"/>
</a>
</g>
<text text-anchor="middle" x="141.5" y="-90.5" font-family="Helvetica,sans-Serif" font-size="10.00" fill="grey"> axis_data_mappings</text>
</g>
<!-- Node4&#45;&gt;Node2 -->
<g id="edge3_Node000002_Node000004" class="edge">
<title>Node4&#45;&gt;Node2</title>
<g id="a_edge3_Node000002_Node000004"><a xlink:title=" ">
<path fill="none" stroke="#9a32cd" stroke-dasharray="5,2" d="M35.17,-158.3C46.39,-147.11 62.87,-133.01 80.5,-126 96.47,-119.65 318.49,-105 430.64,-97.94"/>
<polygon fill="#9a32cd" stroke="#9a32cd" points="32.38,-156.16 28,-165.8 37.44,-161 32.38,-156.16"/>
</a>
</g>
<text text-anchor="middle" x="132.5" y="-140" font-family="Helvetica,sans-Serif" font-size="10.00" fill="grey"> axis_data_mappings</text>
<text text-anchor="middle" x="132.5" y="-129" font-family="Helvetica,sans-Serif" font-size="10.00" fill="grey">axis_labels</text>
</g>
<!-- Node5 -->
<g id="Node000005" class="node">
<title>Node5</title>
<g id="a_Node000005"><a xlink:title=" ">
<polygon fill="white" stroke="#666666" points="661.5,-185 623.5,-185 623.5,-166 661.5,-166 661.5,-185"/>
<text text-anchor="middle" x="642.5" y="-173" font-family="Helvetica,sans-Serif" font-size="10.00">bool</text>
</a>
</g>
</g>
<!-- Node5&#45;&gt;Node2 -->
<g id="edge4_Node000002_Node000005" class="edge">
<title>Node5&#45;&gt;Node2</title>
<g id="a_edge4_Node000002_Node000005"><a xlink:title=" ">
<path fill="none" stroke="#9a32cd" stroke-dasharray="5,2" d="M636.17,-156.52C631.65,-146.17 624.57,-133.72 614.5,-126 598.33,-113.61 577.74,-106 558.21,-101.34"/>
<polygon fill="#9a32cd" stroke="#9a32cd" points="632.95,-157.89 639.85,-165.93 639.47,-155.34 632.95,-157.89"/>
</a>
</g>
<text text-anchor="middle" x="665" y="-134.5" font-family="Helvetica,sans-Serif" font-size="10.00" fill="grey"> static_frame</text>
</g>
<!-- Node6 -->
<g id="Node000006" class="node">
<title>Node6</title>
<g id="a_Node000006"><a xlink:title=" ">
<polygon fill="white" stroke="#666666" points="320,-185 285,-185 285,-166 320,-166 320,-185"/>
<text text-anchor="middle" x="302.5" y="-173" font-family="Helvetica,sans-Serif" font-size="10.00">dict</text>
</a>
</g>
</g>
<!-- Node6&#45;&gt;Node2 -->
<g id="edge5_Node000002_Node000006" class="edge">
<title>Node6&#45;&gt;Node2</title>
<g id="a_edge5_Node000002_Node000006"><a xlink:title=" ">
<path fill="none" stroke="#9a32cd" stroke-dasharray="5,2" d="M303.67,-155.81C305.32,-145.56 309.07,-133.47 317.5,-126 334.16,-111.25 387.11,-103 430.8,-98.59"/>
<polygon fill="#9a32cd" stroke="#9a32cd" points="300.18,-155.57 302.6,-165.89 307.14,-156.32 300.18,-155.57"/>
</a>
</g>
<text text-anchor="middle" x="366.5" y="-140" font-family="Helvetica,sans-Serif" font-size="10.00" fill="grey"> plt_kwargs</text>
<text text-anchor="middle" x="366.5" y="-129" font-family="Helvetica,sans-Serif" font-size="10.00" fill="grey">show_limits_in_title</text>
</g>
<!-- Node7 -->
<g id="Node000007" class="node">
<title>Node7</title>
<g id="a_Node000007"><a xlink:title=" ">
<polygon fill="white" stroke="#666666" points="897.5,-185 865.5,-185 865.5,-166 897.5,-166 897.5,-185"/>
<text text-anchor="middle" x="881.5" y="-173" font-family="Helvetica,sans-Serif" font-size="10.00">list</text>
</a>
</g>
</g>
<!-- Node7&#45;&gt;Node1 -->
<g id="edge13_Node000001_Node000007" class="edge">
<title>Node7&#45;&gt;Node1</title>
<g id="a_edge13_Node000001_Node000007"><a xlink:title=" ">
<path fill="none" stroke="#9a32cd" stroke-dasharray="5,2" d="M895.21,-157.3C901.46,-147.27 905.99,-134.88 898.5,-126 831.52,-46.54 517.09,-27.5 368.13,-22.94"/>
<polygon fill="#9a32cd" stroke="#9a32cd" points="892.2,-155.5 889.28,-165.68 897.91,-159.54 892.2,-155.5"/>
</a>
</g>
<text text-anchor="middle" x="885" y="-96" font-family="Helvetica,sans-Serif" font-size="10.00" fill="grey"> _x</text>
<text text-anchor="middle" x="885" y="-85" font-family="Helvetica,sans-Serif" font-size="10.00" fill="grey">_y</text>
</g>
<!-- Node7&#45;&gt;Node2 -->
<g id="edge6_Node000002_Node000007" class="edge">
<title>Node7&#45;&gt;Node2</title>
<g id="a_edge6_Node000002_Node000007"><a xlink:title=" ">
<path fill="none" stroke="#9a32cd" stroke-dasharray="5,2" d="M863.61,-159.16C847.74,-145.71 826.36,-127.99 821.5,-126 775.31,-107.09 639.46,-99.08 558.12,-95.9"/>
<polygon fill="#9a32cd" stroke="#9a32cd" points="861.4,-161.88 871.28,-165.7 865.94,-156.55 861.4,-161.88"/>
</a>
</g>
<text text-anchor="middle" x="872" y="-134.5" font-family="Helvetica,sans-Serif" font-size="10.00" fill="grey"> ax_funcs</text>
</g>
<!-- Node8 -->
<g id="Node000008" class="node">
<title>Node8</title>
<g id="a_Node000008"><a xlink:title=" ">
<polygon fill="white" stroke="#666666" points="741,-185 706,-185 706,-166 741,-166 741,-185"/>
<text text-anchor="middle" x="723.5" y="-173" font-family="Helvetica,sans-Serif" font-size="10.00">mpl</text>
</a>
</g>
</g>
<!-- Node8&#45;&gt;Node2 -->
<g id="edge7_Node000002_Node000008" class="edge">
<title>Node8&#45;&gt;Node2</title>
<g id="a_edge7_Node000002_Node000008"><a xlink:title=" ">
<path fill="none" stroke="#9a32cd" stroke-dasharray="5,2" d="M719.65,-155.89C716.53,-145.5 711.01,-133.22 701.5,-126 679.45,-109.27 610.41,-101.12 558.07,-97.26"/>
<polygon fill="#9a32cd" stroke="#9a32cd" points="716.3,-156.9 722.12,-165.75 723.09,-155.2 716.3,-156.9"/>
</a>
</g>
<text text-anchor="middle" x="724.5" y="-134.5" font-family="Helvetica,sans-Serif" font-size="10.00" fill="grey"> ax</text>
</g>
<!-- Node9 -->
<g id="Node000009" class="node">
<title>Node9</title>
<g id="a_Node000009"><a xlink:title=" ">
<polygon fill="white" stroke="#666666" points="794,-185 759,-185 759,-166 794,-166 794,-185"/>
<text text-anchor="middle" x="776.5" y="-173" font-family="Helvetica,sans-Serif" font-size="10.00">Any</text>
</a>
</g>
</g>
<!-- Node9&#45;&gt;Node2 -->
<g id="edge8_Node000002_Node000009" class="edge">
<title>Node9&#45;&gt;Node2</title>
<g id="a_edge8_Node000002_Node000009"><a xlink:title=" ">
<path fill="none" stroke="#9a32cd" stroke-dasharray="5,2" d="M766.95,-157.3C759.98,-146.46 749.49,-133.21 736.5,-126 706.8,-109.53 619.46,-101.14 558.28,-97.17"/>
<polygon fill="#9a32cd" stroke="#9a32cd" points="764.01,-159.2 772.14,-165.98 770.01,-155.6 764.01,-159.2"/>
</a>
</g>
<text text-anchor="middle" x="788.5" y="-140" font-family="Helvetica,sans-Serif" font-size="10.00" fill="grey"> datasource</text>
<text text-anchor="middle" x="788.5" y="-129" font-family="Helvetica,sans-Serif" font-size="10.00" fill="grey">hdl</text>
</g>
<!-- Node10 -->
<g id="Node000010" class="node">
<title>Node10</title>
<g id="a_Node000010"><a xlink:title=" ">
<polygon fill="white" stroke="#666666" points="451.5,-185 395.5,-185 395.5,-166 451.5,-166 451.5,-185"/>
<text text-anchor="middle" x="423.5" y="-173" font-family="Helvetica,sans-Serif" font-size="10.00">Callable</text>
</a>
</g>
</g>
<!-- Node10&#45;&gt;Node2 -->
<g id="edge9_Node000002_Node000010" class="edge">
<title>Node10&#45;&gt;Node2</title>
<g id="a_edge9_Node000002_Node000010"><a xlink:title=" ">
<path fill="none" stroke="#9a32cd" stroke-dasharray="5,2" d="M419.4,-155.65C418.36,-146.04 418.85,-134.6 424.5,-126 429.49,-118.41 436.77,-112.59 444.77,-108.14"/>
<polygon fill="#9a32cd" stroke="#9a32cd" points="416,-156.52 421.1,-165.81 422.9,-155.37 416,-156.52"/>
</a>
</g>
<text text-anchor="middle" x="484" y="-134.5" font-family="Helvetica,sans-Serif" font-size="10.00" fill="grey"> datasource_data_getter</text>
</g>
<!-- Node11 -->
<g id="Node000011" class="node">
<title>Node11</title>
<g id="a_Node000011"><a xlink:title=" ">
<polygon fill="white" stroke="#666666" points="580,-185 551,-185 551,-166 580,-166 580,-185"/>
<text text-anchor="middle" x="565.5" y="-173" font-family="Helvetica,sans-Serif" font-size="10.00">int</text>
</a>
</g>
</g>
<!-- Node11&#45;&gt;Node2 -->
<g id="edge10_Node000002_Node000011" class="edge">
<title>Node11&#45;&gt;Node2</title>
<g id="a_edge10_Node000002_Node000011"><a xlink:title=" ">
<path fill="none" stroke="#9a32cd" stroke-dasharray="5,2" d="M560.01,-156.25C556.43,-146.51 551.02,-134.76 543.5,-126 537.55,-119.06 529.72,-113.04 522.08,-108.16"/>
<polygon fill="#9a32cd" stroke="#9a32cd" points="556.71,-157.41 563.18,-165.8 563.35,-155.2 556.71,-157.41"/>
</a>
</g>
<text text-anchor="middle" x="583.5" y="-134.5" font-family="Helvetica,sans-Serif" font-size="10.00" fill="grey"> n_updates</text>
</g>
</g>
</svg>
