<?xml version="1.0" encoding="UTF-8" standalone="no"?>
<!DOCTYPE svg PUBLIC "-//W3C//DTD SVG 1.1//EN"
 "http://www.w3.org/Graphics/SVG/1.1/DTD/svg11.dtd">
<!-- Generated by graphviz version 2.43.0 (0)
 -->
<!-- Title: aopp_deconv_tool.plot_helper.LimRememberNExtremes Pages: 1 -->
<svg width="189pt" height="115pt"
 viewBox="0.00 0.00 189.00 115.00" xmlns="http://www.w3.org/2000/svg" xmlns:xlink="http://www.w3.org/1999/xlink">
<g id="graph0" class="graph" transform="scale(1 1) rotate(0) translate(4 111)">
<title>aopp_deconv_tool.plot_helper.LimRememberNExtremes</title>
<!-- Node1 -->
<g id="Node000001" class="node">
<title>Node1</title>
<g id="a_Node000001"><a xlink:title=" ">
<polygon fill="#999999" stroke="#666666" points="181,-30 0,-30 0,0 181,0 181,-30"/>
<text text-anchor="start" x="8" y="-18" font-family="Helvetica,sans-Serif" font-size="10.00">aopp_deconv_tool.plot</text>
<text text-anchor="middle" x="90.5" y="-7" font-family="Helvetica,sans-Serif" font-size="10.00">_helper.LimRememberNExtremes</text>
</a>
</g>
</g>
<!-- Node2 -->
<g id="Node000002" class="node">
<title>Node2</title>
<g id="a_Node000002"><a xlink:title=" ">
<polygon fill="white" stroke="#666666" points="44,-107 15,-107 15,-88 44,-88 44,-107"/>
<text text-anchor="middle" x="29.5" y="-95" font-family="Helvetica,sans-Serif" font-size="10.00">int</text>
</a>
</g>
</g>
<!-- Node2&#45;&gt;Node1 -->
<g id="edge1_Node000001_Node000002" class="edge">
<title>Node2&#45;&gt;Node1</title>
<g id="a_edge1_Node000001_Node000002"><a xlink:title=" ">
<path fill="none" stroke="#9a32cd" stroke-dasharray="5,2" d="M42.22,-79.71C53.32,-65.06 69.25,-44.05 79.73,-30.22"/>
<polygon fill="#9a32cd" stroke="#9a32cd" points="39.28,-77.8 36.03,-87.89 44.86,-82.03 39.28,-77.8"/>
</a>
</g>
<text text-anchor="middle" x="71.5" y="-62" font-family="Helvetica,sans-Serif" font-size="10.00" fill="grey"> _i</text>
<text text-anchor="middle" x="71.5" y="-51" font-family="Helvetica,sans-Serif" font-size="10.00" fill="grey">n</text>
</g>
<!-- Node3 -->
<g id="Node000003" class="node">
<title>Node3</title>
<g id="a_Node000003"><a xlink:title=" ">
<polygon fill="white" stroke="#666666" points="118.5,-107 62.5,-107 62.5,-88 118.5,-88 118.5,-107"/>
<text text-anchor="middle" x="90.5" y="-95" font-family="Helvetica,sans-Serif" font-size="10.00">Callable</text>
</a>
</g>
</g>
<!-- Node3&#45;&gt;Node1 -->
<g id="edge2_Node000001_Node000003" class="edge">
<title>Node3&#45;&gt;Node1</title>
<g id="a_edge2_Node000001_Node000003"><a xlink:title=" ">
<path fill="none" stroke="#9a32cd" stroke-dasharray="5,2" d="M90.5,-77.6C90.5,-63.1 90.5,-43.4 90.5,-30.22"/>
<polygon fill="#9a32cd" stroke="#9a32cd" points="87,-77.89 90.5,-87.89 94,-77.89 87,-77.89"/>
</a>
</g>
<text text-anchor="middle" x="103" y="-56.5" font-family="Helvetica,sans-Serif" font-size="10.00" fill="grey"> func</text>
</g>
<!-- Node4 -->
<g id="Node000004" class="node">
<title>Node4</title>
<g id="a_Node000004"><a xlink:title=" ">
<polygon fill="white" stroke="#666666" points="178,-107 137,-107 137,-88 178,-88 178,-107"/>
<text text-anchor="middle" x="157.5" y="-95" font-family="Helvetica,sans-Serif" font-size="10.00">tuple</text>
</a>
</g>
</g>
<!-- Node4&#45;&gt;Node1 -->
<g id="edge3_Node000001_Node000004" class="edge">
<title>Node4&#45;&gt;Node1</title>
<g id="a_edge3_Node000001_Node000004"><a xlink:title=" ">
<path fill="none" stroke="#9a32cd" stroke-dasharray="5,2" d="M144.74,-79.61C137.5,-70.18 128.17,-58.29 119.5,-48 114.47,-42.04 108.75,-35.64 103.71,-30.14"/>
<polygon fill="#9a32cd" stroke="#9a32cd" points="142.11,-81.93 150.96,-87.77 147.68,-77.69 142.11,-81.93"/>
</a>
</g>
<text text-anchor="middle" x="155" y="-62" font-family="Helvetica,sans-Serif" font-size="10.00" fill="grey"> _vmax</text>
<text text-anchor="middle" x="155" y="-51" font-family="Helvetica,sans-Serif" font-size="10.00" fill="grey">_vmin</text>
</g>
</g>
</svg>
