<?xml version="1.0" encoding="UTF-8" standalone="no"?>
<!DOCTYPE svg PUBLIC "-//W3C//DTD SVG 1.1//EN"
 "http://www.w3.org/Graphics/SVG/1.1/DTD/svg11.dtd">
<!-- Generated by graphviz version 2.43.0 (0)
 -->
<!-- Title: aopp_deconv_tool.fpath.FPath.defaults Pages: 1 -->
<svg width="458pt" height="66pt"
 viewBox="0.00 0.00 458.00 66.00" xmlns="http://www.w3.org/2000/svg" xmlns:xlink="http://www.w3.org/1999/xlink">
<g id="graph0" class="graph" transform="scale(1 1) rotate(0) translate(4 62)">
<title>aopp_deconv_tool.fpath.FPath.defaults</title>
<!-- Node1 -->
<g id="node1" class="node">
<title>Node1</title>
<g id="a_node1"><a xlink:title=" ">
<polygon fill="#bfbfbf" stroke="black" points="0,-19.5 0,-38.5 207,-38.5 207,-19.5 0,-19.5"/>
<text text-anchor="middle" x="103.5" y="-26.5" font-family="Helvetica,sans-Serif" font-size="10.00">aopp_deconv_tool.fpath.FPath.defaults</text>
</a>
</g>
</g>
<!-- Node2 -->
<g id="node2" class="node">
<title>Node2</title>
<g id="a_node2"><a xlink:href="../../d8/df1/classaopp__deconv__tool_1_1fpath_1_1FPath.html#a5b6e5b6114e3477655c0905e801db3be" target="_top" xlink:title=" ">
<polygon fill="none" stroke="black" points="243,-38.5 243,-57.5 450,-57.5 450,-38.5 243,-38.5"/>
<text text-anchor="middle" x="346.5" y="-45.5" font-family="Helvetica,sans-Serif" font-size="10.00">aopp_deconv_tool.fpath.FPath.defaults</text>
</a>
</g>
</g>
<!-- Node1&#45;&gt;Node2 -->
<g id="edge1" class="edge">
<title>Node1&#45;&gt;Node2</title>
<path fill="none" stroke="midnightblue" d="M207.06,-37.09C215.53,-37.75 224.12,-38.43 232.66,-39.1"/>
<polygon fill="midnightblue" stroke="midnightblue" points="232.41,-42.59 242.65,-39.89 232.96,-35.62 232.41,-42.59"/>
</g>
<!-- Node3 -->
<g id="node3" class="node">
<title>Node3</title>
<g id="a_node3"><a xlink:href="../../d8/df1/classaopp__deconv__tool_1_1fpath_1_1FPath.html#ab8a82603611a65e73db8be826a8fb2b6" target="_top" xlink:title=" ">
<polygon fill="none" stroke="black" points="249.5,-0.5 249.5,-19.5 443.5,-19.5 443.5,-0.5 249.5,-0.5"/>
<text text-anchor="middle" x="346.5" y="-7.5" font-family="Helvetica,sans-Serif" font-size="10.00">aopp_deconv_tool.fpath.FPath.fields</text>
</a>
</g>
</g>
<!-- Node1&#45;&gt;Node3 -->
<g id="edge2" class="edge">
<title>Node1&#45;&gt;Node3</title>
<path fill="none" stroke="midnightblue" d="M207.06,-20.91C217.64,-20.08 228.41,-19.23 239.03,-18.39"/>
<polygon fill="midnightblue" stroke="midnightblue" points="239.47,-21.87 249.16,-17.6 238.92,-14.89 239.47,-21.87"/>
</g>
</g>
</svg>
