<?xml version="1.0" encoding="UTF-8" standalone="no"?>
<!DOCTYPE svg PUBLIC "-//W3C//DTD SVG 1.1//EN"
 "http://www.w3.org/Graphics/SVG/1.1/DTD/svg11.dtd">
<!-- Generated by graphviz version 2.43.0 (0)
 -->
<!-- Title: aopp_deconv_tool.astropy_helper.fits.specifier.FitsInfo Pages: 1 -->
<svg width="216pt" height="104pt"
 viewBox="0.00 0.00 216.00 104.00" xmlns="http://www.w3.org/2000/svg" xmlns:xlink="http://www.w3.org/1999/xlink">
<g id="graph0" class="graph" transform="scale(1 1) rotate(0) translate(4 100)">
<title>aopp_deconv_tool.astropy_helper.fits.specifier.FitsInfo</title>
<!-- Node1 -->
<g id="Node000001" class="node">
<title>Node1</title>
<g id="a_Node000001"><a xlink:title=" ">
<polygon fill="#999999" stroke="#666666" points="152,-30 0,-30 0,0 152,0 152,-30"/>
<text text-anchor="start" x="8" y="-18" font-family="Helvetica,sans-Serif" font-size="10.00">aopp_deconv_tool.astropy</text>
<text text-anchor="middle" x="76" y="-7" font-family="Helvetica,sans-Serif" font-size="10.00">_helper.fits.specifier.FitsInfo</text>
</a>
</g>
</g>
<!-- Node2 -->
<g id="Node000002" class="node">
<title>Node2</title>
<g id="a_Node000002"><a xlink:title=" ">
<polygon fill="white" stroke="#666666" points="43,-96 5,-96 5,-77 43,-77 43,-96"/>
<text text-anchor="middle" x="24" y="-84" font-family="Helvetica,sans-Serif" font-size="10.00">Path</text>
</a>
</g>
</g>
<!-- Node2&#45;&gt;Node1 -->
<g id="edge1_Node000001_Node000002" class="edge">
<title>Node2&#45;&gt;Node1</title>
<g id="a_edge1_Node000001_Node000002"><a xlink:title=" ">
<path fill="none" stroke="#9a32cd" stroke-dasharray="5,2" d="M33.72,-68.16C37.59,-61.66 42.26,-54.32 47,-48 51.59,-41.88 57.12,-35.56 62.12,-30.16"/>
<polygon fill="#9a32cd" stroke="#9a32cd" points="30.66,-66.46 28.68,-76.87 36.72,-69.96 30.66,-66.46"/>
</a>
</g>
<text text-anchor="middle" x="59.5" y="-51" font-family="Helvetica,sans-Serif" font-size="10.00" fill="grey"> path</text>
</g>
<!-- Node3 -->
<g id="Node000003" class="node">
<title>Node3</title>
<g id="a_Node000003"><a xlink:title=" ">
<polygon fill="white" stroke="#666666" points="90.5,-96 61.5,-96 61.5,-77 90.5,-77 90.5,-96"/>
<text text-anchor="middle" x="76" y="-84" font-family="Helvetica,sans-Serif" font-size="10.00">int</text>
</a>
</g>
</g>
<!-- Node3&#45;&gt;Node1 -->
<g id="edge2_Node000001_Node000003" class="edge">
<title>Node3&#45;&gt;Node1</title>
<g id="a_edge2_Node000001_Node000003"><a xlink:title=" ">
<path fill="none" stroke="#9a32cd" stroke-dasharray="5,2" d="M76,-66.71C76,-55.19 76,-40.68 76,-30.14"/>
<polygon fill="#9a32cd" stroke="#9a32cd" points="72.5,-66.98 76,-76.98 79.5,-66.98 72.5,-66.98"/>
</a>
</g>
<text text-anchor="middle" x="97.5" y="-51" font-family="Helvetica,sans-Serif" font-size="10.00" fill="grey"> _n_hdus</text>
</g>
<!-- Node4 -->
<g id="Node000004" class="node">
<title>Node4</title>
<g id="a_Node000004"><a xlink:title=" ">
<polygon fill="white" stroke="#666666" points="162.5,-96 121.5,-96 121.5,-77 162.5,-77 162.5,-96"/>
<text text-anchor="middle" x="142" y="-84" font-family="Helvetica,sans-Serif" font-size="10.00">tuple</text>
</a>
</g>
</g>
<!-- Node4&#45;&gt;Node1 -->
<g id="edge3_Node000001_Node000004" class="edge">
<title>Node4&#45;&gt;Node1</title>
<g id="a_edge3_Node000001_Node000004"><a xlink:title=" ">
<path fill="none" stroke="#9a32cd" stroke-dasharray="5,2" d="M133.6,-67.84C129.96,-61.21 125.31,-53.86 120,-48 113.91,-41.28 106.2,-35.1 98.94,-30"/>
<polygon fill="#9a32cd" stroke="#9a32cd" points="130.51,-69.48 138.17,-76.8 136.74,-66.3 130.51,-69.48"/>
</a>
</g>
<text text-anchor="middle" x="167.5" y="-51" font-family="Helvetica,sans-Serif" font-size="10.00" fill="grey"> _hdu_identifiers</text>
</g>
</g>
</svg>
