<?xml version="1.0" encoding="UTF-8" standalone="no"?>
<!DOCTYPE svg PUBLIC "-//W3C//DTD SVG 1.1//EN"
 "http://www.w3.org/Graphics/SVG/1.1/DTD/svg11.dtd">
<!-- Generated by graphviz version 2.43.0 (0)
 -->
<!-- Title: aopp_deconv_tool.deconvolve.IterationTracker.print Pages: 1 -->
<svg width="581pt" height="124pt"
 viewBox="0.00 0.00 581.00 124.00" xmlns="http://www.w3.org/2000/svg" xmlns:xlink="http://www.w3.org/1999/xlink">
<g id="graph0" class="graph" transform="scale(1 1) rotate(0) translate(4 120)">
<title>aopp_deconv_tool.deconvolve.IterationTracker.print</title>
<!-- Node1 -->
<g id="Node000001" class="node">
<title>Node1</title>
<g id="a_Node000001"><a xlink:title=" ">
<polygon fill="#999999" stroke="#666666" points="573,-94 406,-94 406,-64 573,-64 573,-94"/>
<text text-anchor="start" x="414" y="-82" font-family="Helvetica,sans-Serif" font-size="10.00">aopp_deconv_tool.deconvolve.</text>
<text text-anchor="middle" x="489.5" y="-71" font-family="Helvetica,sans-Serif" font-size="10.00">IterationTracker.print</text>
</a>
</g>
</g>
<!-- Node1&#45;&gt;Node1 -->
<g id="edge5_Node000001_Node000001" class="edge">
<title>Node1&#45;&gt;Node1</title>
<g id="a_edge5_Node000001_Node000001"><a xlink:title=" ">
<path fill="none" stroke="#63b8ff" d="M524.86,-104.6C520.03,-108.97 508.24,-112 489.5,-112 457.94,-112 446.1,-103.41 453.99,-94.28"/>
<polygon fill="#63b8ff" stroke="#63b8ff" points="528.36,-104.33 525.01,-94.28 521.36,-104.22 528.36,-104.33"/>
</a>
</g>
</g>
<!-- Node2 -->
<g id="Node000002" class="node">
<title>Node2</title>
<g id="a_Node000002"><a xlink:href="../../d0/d4f/classaopp__deconv__tool_1_1deconvolve_1_1IterationTracker.html#a44064783bbb0ecf0d2818f809a55f929" target="_top" xlink:title=" ">
<polygon fill="white" stroke="#666666" points="370,-116 203,-116 203,-86 370,-86 370,-116"/>
<text text-anchor="start" x="211" y="-104" font-family="Helvetica,sans-Serif" font-size="10.00">aopp_deconv_tool.deconvolve.</text>
<text text-anchor="middle" x="286.5" y="-93" font-family="Helvetica,sans-Serif" font-size="10.00">IterationTracker.clear</text>
</a>
</g>
</g>
<!-- Node1&#45;&gt;Node2 -->
<g id="edge1_Node000001_Node000002" class="edge">
<title>Node1&#45;&gt;Node2</title>
<g id="a_edge1_Node000001_Node000002"><a xlink:title=" ">
<path fill="none" stroke="#63b8ff" d="M395.9,-82.4C385.44,-83.5 374.87,-84.71 364.63,-85.97"/>
<polygon fill="#63b8ff" stroke="#63b8ff" points="396.28,-85.88 405.88,-81.39 395.57,-78.92 396.28,-85.88"/>
</a>
</g>
</g>
<!-- Node3 -->
<g id="Node000003" class="node">
<title>Node3</title>
<g id="a_Node000003"><a xlink:href="../../d0/d4f/classaopp__deconv__tool_1_1deconvolve_1_1IterationTracker.html#ad06f1d789e1ad5590b09b6773ce64233" target="_top" xlink:title=" ">
<polygon fill="white" stroke="#666666" points="167,-94 0,-94 0,-64 167,-64 167,-94"/>
<text text-anchor="start" x="8" y="-82" font-family="Helvetica,sans-Serif" font-size="10.00">aopp_deconv_tool.deconvolve.</text>
<text text-anchor="middle" x="83.5" y="-71" font-family="Helvetica,sans-Serif" font-size="10.00">IterationTracker.complete</text>
</a>
</g>
</g>
<!-- Node1&#45;&gt;Node3 -->
<g id="edge4_Node000001_Node000003" class="edge">
<title>Node1&#45;&gt;Node3</title>
<g id="a_edge4_Node000001_Node000003"><a xlink:title=" ">
<path fill="none" stroke="#63b8ff" d="M395.74,-77.28C387.04,-77.17 378.36,-77.07 370,-77 295.78,-76.37 277.22,-76.37 203,-77 191.38,-77.1 179.11,-77.25 167.05,-77.43"/>
<polygon fill="#63b8ff" stroke="#63b8ff" points="395.9,-80.79 405.95,-77.43 396,-73.79 395.9,-80.79"/>
</a>
</g>
</g>
<!-- Node4 -->
<g id="Node000004" class="node">
<title>Node4</title>
<g id="a_Node000004"><a xlink:href="../../d0/d4f/classaopp__deconv__tool_1_1deconvolve_1_1IterationTracker.html#ad07614fd2f762e4754b051c3cfadf847" target="_top" xlink:title=" ">
<polygon fill="white" stroke="#666666" points="370,-30 203,-30 203,0 370,0 370,-30"/>
<text text-anchor="start" x="211" y="-18" font-family="Helvetica,sans-Serif" font-size="10.00">aopp_deconv_tool.deconvolve.</text>
<text text-anchor="middle" x="286.5" y="-7" font-family="Helvetica,sans-Serif" font-size="10.00">IterationTracker.update</text>
</a>
</g>
</g>
<!-- Node1&#45;&gt;Node4 -->
<g id="edge6_Node000001_Node000004" class="edge">
<title>Node1&#45;&gt;Node4</title>
<g id="a_edge6_Node000001_Node000004"><a xlink:title=" ">
<path fill="none" stroke="#63b8ff" d="M431.68,-60.91C401.05,-51.15 363.69,-39.26 334.68,-30.02"/>
<polygon fill="#63b8ff" stroke="#63b8ff" points="430.78,-64.3 441.37,-63.99 432.91,-57.63 430.78,-64.3"/>
</a>
</g>
</g>
<!-- Node2&#45;&gt;Node1 -->
<g id="edge3_Node000002_Node000001" class="edge">
<title>Node2&#45;&gt;Node1</title>
<g id="a_edge3_Node000002_Node000001"><a xlink:title=" ">
<path fill="none" stroke="#63b8ff" d="M380.09,-97.6C390.55,-96.5 401.13,-95.3 411.36,-94.03"/>
<polygon fill="#63b8ff" stroke="#63b8ff" points="379.7,-94.12 370.11,-98.61 380.41,-101.08 379.7,-94.12"/>
</a>
</g>
</g>
<!-- Node2&#45;&gt;Node3 -->
<g id="edge2_Node000002_Node000003" class="edge">
<title>Node2&#45;&gt;Node3</title>
<g id="a_edge2_Node000002_Node000003"><a xlink:title=" ">
<path fill="none" stroke="#63b8ff" d="M192.85,-90.86C184.27,-89.92 175.61,-88.97 167.13,-88.04"/>
<polygon fill="#63b8ff" stroke="#63b8ff" points="192.55,-94.35 202.88,-91.96 193.32,-87.39 192.55,-94.35"/>
</a>
</g>
</g>
</g>
</svg>
