<?xml version="1.0" encoding="UTF-8" standalone="no"?>
<!DOCTYPE svg PUBLIC "-//W3C//DTD SVG 1.1//EN"
 "http://www.w3.org/Graphics/SVG/1.1/DTD/svg11.dtd">
<!-- Generated by graphviz version 2.43.0 (0)
 -->
<!-- Title: aopp_deconv_tool.deconvolve.IterationTracker.in_notebook Pages: 1 -->
<svg width="784pt" height="92pt"
 viewBox="0.00 0.00 784.00 92.00" xmlns="http://www.w3.org/2000/svg" xmlns:xlink="http://www.w3.org/1999/xlink">
<g id="graph0" class="graph" transform="scale(1 1) rotate(0) translate(4 88)">
<title>aopp_deconv_tool.deconvolve.IterationTracker.in_notebook</title>
<!-- Node1 -->
<g id="Node000001" class="node">
<title>Node1</title>
<g id="a_Node000001"><a xlink:title=" ">
<polygon fill="#999999" stroke="#666666" points="776,-30 609,-30 609,0 776,0 776,-30"/>
<text text-anchor="start" x="617" y="-18" font-family="Helvetica,sans-Serif" font-size="10.00">aopp_deconv_tool.deconvolve.</text>
<text text-anchor="middle" x="692.5" y="-7" font-family="Helvetica,sans-Serif" font-size="10.00">IterationTracker.in_notebook</text>
</a>
</g>
</g>
<!-- Node2 -->
<g id="Node000002" class="node">
<title>Node2</title>
<g id="a_Node000002"><a xlink:href="../../d0/d4f/classaopp__deconv__tool_1_1deconvolve_1_1IterationTracker.html#a44064783bbb0ecf0d2818f809a55f929" target="_top" xlink:title=" ">
<polygon fill="white" stroke="#666666" points="573,-30 406,-30 406,0 573,0 573,-30"/>
<text text-anchor="start" x="414" y="-18" font-family="Helvetica,sans-Serif" font-size="10.00">aopp_deconv_tool.deconvolve.</text>
<text text-anchor="middle" x="489.5" y="-7" font-family="Helvetica,sans-Serif" font-size="10.00">IterationTracker.clear</text>
</a>
</g>
</g>
<!-- Node1&#45;&gt;Node2 -->
<g id="edge1_Node000001_Node000002" class="edge">
<title>Node1&#45;&gt;Node2</title>
<g id="a_edge1_Node000001_Node000002"><a xlink:title=" ">
<path fill="none" stroke="#63b8ff" d="M598.85,-15C590.27,-15 581.61,-15 573.13,-15"/>
<polygon fill="#63b8ff" stroke="#63b8ff" points="598.88,-18.5 608.88,-15 598.88,-11.5 598.88,-18.5"/>
</a>
</g>
</g>
<!-- Node3 -->
<g id="Node000003" class="node">
<title>Node3</title>
<g id="a_Node000003"><a xlink:href="../../d0/d4f/classaopp__deconv__tool_1_1deconvolve_1_1IterationTracker.html#ad06f1d789e1ad5590b09b6773ce64233" target="_top" xlink:title=" ">
<polygon fill="white" stroke="#666666" points="167,-84 0,-84 0,-54 167,-54 167,-84"/>
<text text-anchor="start" x="8" y="-72" font-family="Helvetica,sans-Serif" font-size="10.00">aopp_deconv_tool.deconvolve.</text>
<text text-anchor="middle" x="83.5" y="-61" font-family="Helvetica,sans-Serif" font-size="10.00">IterationTracker.complete</text>
</a>
</g>
</g>
<!-- Node2&#45;&gt;Node3 -->
<g id="edge2_Node000002_Node000003" class="edge">
<title>Node2&#45;&gt;Node3</title>
<g id="a_edge2_Node000002_Node000003"><a xlink:title=" ">
<path fill="none" stroke="#63b8ff" d="M445.11,-33.89C423.06,-42.58 395.57,-52.05 370,-57 302.54,-70.06 224.51,-72.51 167.09,-71.99"/>
<polygon fill="#63b8ff" stroke="#63b8ff" points="446.55,-37.09 454.52,-30.1 443.94,-30.59 446.55,-37.09"/>
</a>
</g>
</g>
<!-- Node4 -->
<g id="Node000004" class="node">
<title>Node4</title>
<g id="a_Node000004"><a xlink:href="../../d0/d4f/classaopp__deconv__tool_1_1deconvolve_1_1IterationTracker.html#a0fea9bff7e21ba3c573bb2d5b973a241" target="_top" xlink:title=" ">
<polygon fill="white" stroke="#666666" points="370,-30 203,-30 203,0 370,0 370,-30"/>
<text text-anchor="start" x="211" y="-18" font-family="Helvetica,sans-Serif" font-size="10.00">aopp_deconv_tool.deconvolve.</text>
<text text-anchor="middle" x="286.5" y="-7" font-family="Helvetica,sans-Serif" font-size="10.00">IterationTracker.print</text>
</a>
</g>
</g>
<!-- Node2&#45;&gt;Node4 -->
<g id="edge3_Node000002_Node000004" class="edge">
<title>Node2&#45;&gt;Node4</title>
<g id="a_edge3_Node000002_Node000004"><a xlink:title=" ">
<path fill="none" stroke="#63b8ff" d="M395.85,-8.27C387.27,-8.23 378.61,-8.25 370.13,-8.35"/>
<polygon fill="#63b8ff" stroke="#63b8ff" points="395.85,-11.77 405.88,-8.35 395.9,-4.77 395.85,-11.77"/>
</a>
</g>
</g>
<!-- Node4&#45;&gt;Node2 -->
<g id="edge4_Node000004_Node000002" class="edge">
<title>Node4&#45;&gt;Node2</title>
<g id="a_edge4_Node000004_Node000002"><a xlink:title=" ">
<path fill="none" stroke="#63b8ff" d="M380.15,-21.73C388.73,-21.77 397.39,-21.75 405.88,-21.65"/>
<polygon fill="#63b8ff" stroke="#63b8ff" points="380.16,-18.23 370.13,-21.65 380.1,-25.23 380.16,-18.23"/>
</a>
</g>
</g>
<!-- Node4&#45;&gt;Node3 -->
<g id="edge5_Node000004_Node000003" class="edge">
<title>Node4&#45;&gt;Node3</title>
<g id="a_edge5_Node000004_Node000003"><a xlink:title=" ">
<path fill="none" stroke="#63b8ff" d="M219.53,-32.72C193.99,-39.59 165.05,-47.36 140.54,-53.95"/>
<polygon fill="#63b8ff" stroke="#63b8ff" points="220.76,-36.02 229.51,-30.04 218.94,-29.26 220.76,-36.02"/>
</a>
</g>
</g>
<!-- Node4&#45;&gt;Node4 -->
<g id="edge6_Node000004_Node000004" class="edge">
<title>Node4&#45;&gt;Node4</title>
<g id="a_edge6_Node000004_Node000004"><a xlink:title=" ">
<path fill="none" stroke="#63b8ff" d="M321.86,-40.6C317.03,-44.97 305.24,-48 286.5,-48 254.94,-48 243.1,-39.41 250.99,-30.28"/>
<polygon fill="#63b8ff" stroke="#63b8ff" points="325.36,-40.33 322.01,-30.28 318.36,-40.22 325.36,-40.33"/>
</a>
</g>
</g>
<!-- Node5 -->
<g id="Node000005" class="node">
<title>Node5</title>
<g id="a_Node000005"><a xlink:href="../../d0/d4f/classaopp__deconv__tool_1_1deconvolve_1_1IterationTracker.html#ad07614fd2f762e4754b051c3cfadf847" target="_top" xlink:title=" ">
<polygon fill="white" stroke="#666666" points="167,-30 0,-30 0,0 167,0 167,-30"/>
<text text-anchor="start" x="8" y="-18" font-family="Helvetica,sans-Serif" font-size="10.00">aopp_deconv_tool.deconvolve.</text>
<text text-anchor="middle" x="83.5" y="-7" font-family="Helvetica,sans-Serif" font-size="10.00">IterationTracker.update</text>
</a>
</g>
</g>
<!-- Node4&#45;&gt;Node5 -->
<g id="edge7_Node000004_Node000005" class="edge">
<title>Node4&#45;&gt;Node5</title>
<g id="a_edge7_Node000004_Node000005"><a xlink:title=" ">
<path fill="none" stroke="#63b8ff" d="M192.85,-15C184.27,-15 175.61,-15 167.13,-15"/>
<polygon fill="#63b8ff" stroke="#63b8ff" points="192.88,-18.5 202.88,-15 192.88,-11.5 192.88,-18.5"/>
</a>
</g>
</g>
</g>
</svg>
