<?xml version="1.0" encoding="UTF-8" standalone="no"?>
<!DOCTYPE svg PUBLIC "-//W3C//DTD SVG 1.1//EN"
 "http://www.w3.org/Graphics/SVG/1.1/DTD/svg11.dtd">
<!-- Generated by graphviz version 2.43.0 (0)
 -->
<!-- Title: aopp_deconv_tool.deconvolve.IterationTracker.clear Pages: 1 -->
<svg width="378pt" height="104pt"
 viewBox="0.00 0.00 378.00 104.00" xmlns="http://www.w3.org/2000/svg" xmlns:xlink="http://www.w3.org/1999/xlink">
<g id="graph0" class="graph" transform="scale(1 1) rotate(0) translate(4 100)">
<title>aopp_deconv_tool.deconvolve.IterationTracker.clear</title>
<!-- Node1 -->
<g id="Node000001" class="node">
<title>Node1</title>
<g id="a_Node000001"><a xlink:title=" ">
<polygon fill="#999999" stroke="#666666" points="167,-30 0,-30 0,0 167,0 167,-30"/>
<text text-anchor="start" x="8" y="-18" font-family="Helvetica,sans-Serif" font-size="10.00">aopp_deconv_tool.deconvolve.</text>
<text text-anchor="middle" x="83.5" y="-7" font-family="Helvetica,sans-Serif" font-size="10.00">IterationTracker.clear</text>
</a>
</g>
</g>
<!-- Node2 -->
<g id="Node000002" class="node">
<title>Node2</title>
<g id="a_Node000002"><a xlink:href="../../d0/d4f/classaopp__deconv__tool_1_1deconvolve_1_1IterationTracker.html#ad28f60040b52ac0caa4f19ed261aa890" target="_top" xlink:title=" ">
<polygon fill="white" stroke="#666666" points="370,-96 203,-96 203,-66 370,-66 370,-96"/>
<text text-anchor="start" x="211" y="-84" font-family="Helvetica,sans-Serif" font-size="10.00">aopp_deconv_tool.deconvolve.</text>
<text text-anchor="middle" x="286.5" y="-73" font-family="Helvetica,sans-Serif" font-size="10.00">IterationTracker.in_notebook</text>
</a>
</g>
</g>
<!-- Node1&#45;&gt;Node2 -->
<g id="edge1_Node000001_Node000002" class="edge">
<title>Node1&#45;&gt;Node2</title>
<g id="a_edge1_Node000001_Node000002"><a xlink:title=" ">
<path fill="none" stroke="#63b8ff" d="M125.16,-30.06C147.94,-38.34 176.93,-48.6 203,-57 209.3,-59.03 215.89,-61.08 222.48,-63.07"/>
<polygon fill="#63b8ff" stroke="#63b8ff" points="221.52,-66.44 232.11,-65.95 223.53,-59.73 221.52,-66.44"/>
</a>
</g>
</g>
<!-- Node3 -->
<g id="Node000003" class="node">
<title>Node3</title>
<g id="a_Node000003"><a xlink:href="../../d0/d4f/classaopp__deconv__tool_1_1deconvolve_1_1IterationTracker.html#a0fea9bff7e21ba3c573bb2d5b973a241" target="_top" xlink:title=" ">
<polygon fill="white" stroke="#666666" points="370,-30 203,-30 203,0 370,0 370,-30"/>
<text text-anchor="start" x="211" y="-18" font-family="Helvetica,sans-Serif" font-size="10.00">aopp_deconv_tool.deconvolve.</text>
<text text-anchor="middle" x="286.5" y="-7" font-family="Helvetica,sans-Serif" font-size="10.00">IterationTracker.print</text>
</a>
</g>
</g>
<!-- Node1&#45;&gt;Node3 -->
<g id="edge2_Node000001_Node000003" class="edge">
<title>Node1&#45;&gt;Node3</title>
<g id="a_edge2_Node000001_Node000003"><a xlink:title=" ">
<path fill="none" stroke="#63b8ff" d="M167.12,-8.35C175.61,-8.25 184.27,-8.23 192.85,-8.27"/>
<polygon fill="#63b8ff" stroke="#63b8ff" points="192.84,-11.77 202.87,-8.35 192.9,-4.77 192.84,-11.77"/>
</a>
</g>
</g>
<!-- Node3&#45;&gt;Node1 -->
<g id="edge3_Node000003_Node000001" class="edge">
<title>Node3&#45;&gt;Node1</title>
<g id="a_edge3_Node000003_Node000001"><a xlink:title=" ">
<path fill="none" stroke="#63b8ff" d="M202.87,-21.65C194.39,-21.75 185.73,-21.77 177.15,-21.73"/>
<polygon fill="#63b8ff" stroke="#63b8ff" points="177.15,-18.23 167.12,-21.65 177.1,-25.23 177.15,-18.23"/>
</a>
</g>
</g>
<!-- Node3&#45;&gt;Node3 -->
<g id="edge4_Node000003_Node000003" class="edge">
<title>Node3&#45;&gt;Node3</title>
<g id="a_edge4_Node000003_Node000003"><a xlink:title=" ">
<path fill="none" stroke="#63b8ff" d="M250.99,-30.28C243.1,-39.41 254.94,-48 286.5,-48 305.24,-48 317.03,-44.97 321.86,-40.6"/>
<polygon fill="#63b8ff" stroke="#63b8ff" points="325.36,-40.33 322.01,-30.28 318.36,-40.22 325.36,-40.33"/>
</a>
</g>
</g>
</g>
</svg>
