<?xml version="1.0" encoding="UTF-8" standalone="no"?>
<!DOCTYPE svg PUBLIC "-//W3C//DTD SVG 1.1//EN"
 "http://www.w3.org/Graphics/SVG/1.1/DTD/svg11.dtd">
<!-- Generated by graphviz version 2.43.0 (0)
 -->
<!-- Title: aopp_deconv_tool.plot_helper.LimRememberNExtremes.__call__ Pages: 1 -->
<svg width="383pt" height="86pt"
 viewBox="0.00 0.00 383.00 86.00" xmlns="http://www.w3.org/2000/svg" xmlns:xlink="http://www.w3.org/1999/xlink">
<g id="graph0" class="graph" transform="scale(1 1) rotate(0) translate(4 82)">
<title>aopp_deconv_tool.plot_helper.LimRememberNExtremes.__call__</title>
<!-- Node1 -->
<g id="Node000001" class="node">
<title>Node1</title>
<g id="a_Node000001"><a xlink:title=" ">
<polygon fill="#999999" stroke="#666666" points="184,-59.5 0,-59.5 0,-18.5 184,-18.5 184,-59.5"/>
<text text-anchor="start" x="8" y="-47.5" font-family="Helvetica,sans-Serif" font-size="10.00">aopp_deconv_tool.plot</text>
<text text-anchor="start" x="8" y="-36.5" font-family="Helvetica,sans-Serif" font-size="10.00">_helper.LimRememberNExtremes.</text>
<text text-anchor="middle" x="92" y="-25.5" font-family="Helvetica,sans-Serif" font-size="10.00">__call__</text>
</a>
</g>
</g>
<!-- Node2 -->
<g id="Node000002" class="node">
<title>Node2</title>
<g id="a_Node000002"><a xlink:href="../../d4/d4e/classaopp__deconv__tool_1_1numpy__helper_1_1axes_1_1AxesOrdering.html#a2c9a54b6029b66d8210c9634c145c0ba" target="_top" xlink:title=" ">
<polygon fill="white" stroke="#666666" points="375,-78 220,-78 220,-48 375,-48 375,-78"/>
<text text-anchor="start" x="228" y="-66" font-family="Helvetica,sans-Serif" font-size="10.00">aopp_deconv_tool.numpy</text>
<text text-anchor="middle" x="297.5" y="-55" font-family="Helvetica,sans-Serif" font-size="10.00">_helper.axes.AxesOrdering.n</text>
</a>
</g>
</g>
<!-- Node1&#45;&gt;Node2 -->
<g id="edge1_Node000001_Node000002" class="edge">
<title>Node1&#45;&gt;Node2</title>
<g id="a_edge1_Node000001_Node000002"><a xlink:title=" ">
<path fill="none" stroke="#63b8ff" d="M184.04,-49.74C192.63,-50.75 201.33,-51.78 209.88,-52.78"/>
<polygon fill="#63b8ff" stroke="#63b8ff" points="209.5,-56.26 219.84,-53.96 210.32,-49.31 209.5,-56.26"/>
</a>
</g>
</g>
<!-- Node3 -->
<g id="Node000003" class="node">
<title>Node3</title>
<g id="a_Node000003"><a xlink:href="../../d4/d4e/classaopp__deconv__tool_1_1numpy__helper_1_1axes_1_1AxesOrdering.html#a39ab54eb13f6f13f73d6846a28964739" target="_top" xlink:title=" ">
<polygon fill="white" stroke="#666666" points="375,-30 220,-30 220,0 375,0 375,-30"/>
<text text-anchor="start" x="228" y="-18" font-family="Helvetica,sans-Serif" font-size="10.00">aopp_deconv_tool.numpy</text>
<text text-anchor="middle" x="297.5" y="-7" font-family="Helvetica,sans-Serif" font-size="10.00">_helper.axes.AxesOrdering.n</text>
</a>
</g>
</g>
<!-- Node1&#45;&gt;Node3 -->
<g id="edge2_Node000001_Node000003" class="edge">
<title>Node1&#45;&gt;Node3</title>
<g id="a_edge2_Node000001_Node000003"><a xlink:title=" ">
<path fill="none" stroke="#63b8ff" d="M184.04,-28.26C192.63,-27.25 201.33,-26.22 209.88,-25.22"/>
<polygon fill="#63b8ff" stroke="#63b8ff" points="210.32,-28.69 219.84,-24.04 209.5,-21.74 210.32,-28.69"/>
</a>
</g>
</g>
</g>
</svg>
