<?xml version="1.0" encoding="UTF-8" standalone="no"?>
<!DOCTYPE svg PUBLIC "-//W3C//DTD SVG 1.1//EN"
 "http://www.w3.org/Graphics/SVG/1.1/DTD/svg11.dtd">
<!-- Generated by graphviz version 2.43.0 (0)
 -->
<!-- Title: aopp_deconv_tool.numpy_helper.array.mask.interp.interp Pages: 1 -->
<svg width="354pt" height="149pt"
 viewBox="0.00 0.00 354.00 149.00" xmlns="http://www.w3.org/2000/svg" xmlns:xlink="http://www.w3.org/1999/xlink">
<g id="graph0" class="graph" transform="scale(1 1) rotate(0) translate(4 145)">
<title>aopp_deconv_tool.numpy_helper.array.mask.interp.interp</title>
<!-- Node1 -->
<g id="node1" class="node">
<title>Node1</title>
<g id="a_node1"><a xlink:title=" ">
<polygon fill="#bfbfbf" stroke="black" points="173,-55.5 173,-85.5 346,-85.5 346,-55.5 173,-55.5"/>
<text text-anchor="start" x="181" y="-73.5" font-family="Helvetica,sans-Serif" font-size="10.00">aopp_deconv_tool.numpy</text>
<text text-anchor="middle" x="259.5" y="-62.5" font-family="Helvetica,sans-Serif" font-size="10.00">_helper.array.mask.interp.interp</text>
</a>
</g>
</g>
<!-- Node2 -->
<g id="node2" class="node">
<title>Node2</title>
<g id="a_node2"><a xlink:href="../../de/daa/namespaceaopp__deconv__tool_1_1psf__data__ops.html#a2969163168d8875a18ecbc78c38594c1" target="_top" xlink:title=" ">
<polygon fill="none" stroke="black" points="1,-110.5 1,-140.5 136,-140.5 136,-110.5 1,-110.5"/>
<text text-anchor="start" x="9" y="-128.5" font-family="Helvetica,sans-Serif" font-size="10.00">aopp_deconv_tool.psf</text>
<text text-anchor="middle" x="68.5" y="-117.5" font-family="Helvetica,sans-Serif" font-size="10.00">_data_ops.apply_offsets</text>
</a>
</g>
</g>
<!-- Node1&#45;&gt;Node2 -->
<g id="edge1" class="edge">
<title>Node1&#45;&gt;Node2</title>
<path fill="none" stroke="midnightblue" d="M196.93,-88.42C172.41,-95.55 144.51,-103.67 121.08,-110.49"/>
<polygon fill="midnightblue" stroke="midnightblue" points="198.23,-91.68 206.85,-85.53 196.28,-84.96 198.23,-91.68"/>
</g>
<!-- Node3 -->
<g id="node3" class="node">
<title>Node3</title>
<g id="a_node3"><a xlink:href="../../d5/de7/classaopp__deconv__tool_1_1psf__model_1_1adaptive__optics__psf__model_1_1PSFModel.html#a06d0c27d6d99db1295c53769cb5ae7c6" target="_top" xlink:title=" ">
<polygon fill="none" stroke="black" points="0,-50 0,-91 137,-91 137,-50 0,-50"/>
<text text-anchor="start" x="8" y="-79" font-family="Helvetica,sans-Serif" font-size="10.00">aopp_deconv_tool.psf</text>
<text text-anchor="start" x="8" y="-68" font-family="Helvetica,sans-Serif" font-size="10.00">_model.adaptive_optics</text>
<text text-anchor="middle" x="68.5" y="-57" font-family="Helvetica,sans-Serif" font-size="10.00">_psf_model.PSFModel.at</text>
</a>
</g>
</g>
<!-- Node1&#45;&gt;Node3 -->
<g id="edge2" class="edge">
<title>Node1&#45;&gt;Node3</title>
<path fill="none" stroke="midnightblue" d="M162.68,-70.5C154.02,-70.5 145.36,-70.5 137.02,-70.5"/>
<polygon fill="midnightblue" stroke="midnightblue" points="162.85,-74 172.85,-70.5 162.85,-67 162.85,-74"/>
</g>
<!-- Node4 -->
<g id="node4" class="node">
<title>Node4</title>
<g id="a_node4"><a xlink:href="../../de/daa/namespaceaopp__deconv__tool_1_1psf__data__ops.html#ab039d8ada9591efa0e48b5b9badb121c" target="_top" xlink:title=" ">
<polygon fill="none" stroke="black" points="7,-0.5 7,-30.5 130,-30.5 130,-0.5 7,-0.5"/>
<text text-anchor="start" x="15" y="-18.5" font-family="Helvetica,sans-Serif" font-size="10.00">aopp_deconv_tool.psf</text>
<text text-anchor="middle" x="68.5" y="-7.5" font-family="Helvetica,sans-Serif" font-size="10.00">_data_ops.normalise</text>
</a>
</g>
</g>
<!-- Node1&#45;&gt;Node4 -->
<g id="edge3" class="edge">
<title>Node1&#45;&gt;Node4</title>
<path fill="none" stroke="midnightblue" d="M196.93,-52.58C172.41,-45.45 144.51,-37.33 121.08,-30.51"/>
<polygon fill="midnightblue" stroke="midnightblue" points="196.28,-56.04 206.85,-55.47 198.23,-49.32 196.28,-56.04"/>
</g>
</g>
</svg>
