<?xml version="1.0" encoding="UTF-8" standalone="no"?>
<!DOCTYPE svg PUBLIC "-//W3C//DTD SVG 1.1//EN"
 "http://www.w3.org/Graphics/SVG/1.1/DTD/svg11.dtd">
<!-- Generated by graphviz version 2.43.0 (0)
 -->
<!-- Title: aopp_deconv_tool.optimise_compat.linear_transform_factory Pages: 1 -->
<svg width="355pt" height="108pt"
 viewBox="0.00 0.00 355.00 108.00" xmlns="http://www.w3.org/2000/svg" xmlns:xlink="http://www.w3.org/1999/xlink">
<g id="graph0" class="graph" transform="scale(1 1) rotate(0) translate(4 104)">
<title>aopp_deconv_tool.optimise_compat.linear_transform_factory</title>
<!-- Node1 -->
<g id="Node000001" class="node">
<title>Node1</title>
<g id="a_Node000001"><a xlink:title=" ">
<polygon fill="#999999" stroke="#666666" points="347,-70 196,-70 196,-29 347,-29 347,-70"/>
<text text-anchor="start" x="204" y="-58" font-family="Helvetica,sans-Serif" font-size="10.00">aopp_deconv_tool.optimise</text>
<text text-anchor="start" x="204" y="-47" font-family="Helvetica,sans-Serif" font-size="10.00">_compat.linear_transform</text>
<text text-anchor="middle" x="271.5" y="-36" font-family="Helvetica,sans-Serif" font-size="10.00">_factory</text>
</a>
</g>
</g>
<!-- Node2 -->
<g id="Node000002" class="node">
<title>Node2</title>
<g id="a_Node000002"><a xlink:href="../../d9/d34/classaopp__deconv__tool_1_1optimise__compat_1_1PriorParamSet.html#a58e1a267239e7075ff928b813ab70537" target="_top" xlink:title=" ">
<polygon fill="white" stroke="#666666" points="160,-100 0,-100 0,-59 160,-59 160,-100"/>
<text text-anchor="start" x="8" y="-88" font-family="Helvetica,sans-Serif" font-size="10.00">aopp_deconv_tool.optimise</text>
<text text-anchor="start" x="8" y="-77" font-family="Helvetica,sans-Serif" font-size="10.00">_compat.PriorParamSet.get</text>
<text text-anchor="middle" x="80" y="-66" font-family="Helvetica,sans-Serif" font-size="10.00">_linear_transform_to_domain</text>
</a>
</g>
</g>
<!-- Node1&#45;&gt;Node2 -->
<g id="edge1_Node000001_Node000002" class="edge">
<title>Node1&#45;&gt;Node2</title>
<g id="a_edge1_Node000001_Node000002"><a xlink:title=" ">
<path fill="none" stroke="#63b8ff" d="M185.92,-62.89C177.37,-64.24 168.72,-65.61 160.24,-66.96"/>
<polygon fill="#63b8ff" stroke="#63b8ff" points="186.55,-66.33 195.88,-61.31 185.45,-59.42 186.55,-66.33"/>
</a>
</g>
</g>
<!-- Node3 -->
<g id="Node000003" class="node">
<title>Node3</title>
<g id="a_Node000003"><a xlink:href="../../d7/d62/classaopp__deconv__tool_1_1optimise__compat_1_1PriorParam.html#a2eab1a2312a8d1c91ca87c4e292e9540" target="_top" xlink:title=" ">
<polygon fill="white" stroke="#666666" points="155.5,-41 4.5,-41 4.5,0 155.5,0 155.5,-41"/>
<text text-anchor="start" x="12.5" y="-29" font-family="Helvetica,sans-Serif" font-size="10.00">aopp_deconv_tool.optimise</text>
<text text-anchor="start" x="12.5" y="-18" font-family="Helvetica,sans-Serif" font-size="10.00">_compat.PriorParam.linear</text>
<text text-anchor="middle" x="80" y="-7" font-family="Helvetica,sans-Serif" font-size="10.00">_transform_from_domain</text>
</a>
</g>
</g>
<!-- Node1&#45;&gt;Node3 -->
<g id="edge2_Node000001_Node000003" class="edge">
<title>Node1&#45;&gt;Node3</title>
<g id="a_edge2_Node000001_Node000003"><a xlink:title=" ">
<path fill="none" stroke="#63b8ff" d="M185.85,-36.55C175.75,-35 165.5,-33.43 155.56,-31.91"/>
<polygon fill="#63b8ff" stroke="#63b8ff" points="185.46,-40.03 195.88,-38.08 186.52,-33.11 185.46,-40.03"/>
</a>
</g>
</g>
</g>
</svg>
