<?xml version="1.0" encoding="UTF-8" standalone="no"?>
<!DOCTYPE svg PUBLIC "-//W3C//DTD SVG 1.1//EN"
 "http://www.w3.org/Graphics/SVG/1.1/DTD/svg11.dtd">
<!-- Generated by graphviz version 2.43.0 (0)
 -->
<!-- Title: aopp_deconv_tool.optimise_compat.linear_transform_factory Pages: 1 -->
<svg width="355pt" height="170pt"
 viewBox="0.00 0.00 355.00 170.00" xmlns="http://www.w3.org/2000/svg" xmlns:xlink="http://www.w3.org/1999/xlink">
<g id="graph0" class="graph" transform="scale(1 1) rotate(0) translate(4 166)">
<title>aopp_deconv_tool.optimise_compat.linear_transform_factory</title>
<!-- Node1 -->
<g id="node1" class="node">
<title>Node1</title>
<g id="a_node1"><a xlink:title=" ">
<polygon fill="#bfbfbf" stroke="black" points="196,-60.5 196,-101.5 347,-101.5 347,-60.5 196,-60.5"/>
<text text-anchor="start" x="204" y="-89.5" font-family="Helvetica,sans-Serif" font-size="10.00">aopp_deconv_tool.optimise</text>
<text text-anchor="start" x="204" y="-78.5" font-family="Helvetica,sans-Serif" font-size="10.00">_compat.linear_transform</text>
<text text-anchor="middle" x="271.5" y="-67.5" font-family="Helvetica,sans-Serif" font-size="10.00">_factory</text>
</a>
</g>
</g>
<!-- Node2 -->
<g id="node2" class="node">
<title>Node2</title>
<g id="a_node2"><a xlink:href="../../d9/d34/classaopp__deconv__tool_1_1optimise__compat_1_1PriorParamSet.html#ab3ec78e2d92c92d474f639049df4c40c" target="_top" xlink:title=" ">
<polygon fill="none" stroke="black" points="0,-120.5 0,-161.5 160,-161.5 160,-120.5 0,-120.5"/>
<text text-anchor="start" x="8" y="-149.5" font-family="Helvetica,sans-Serif" font-size="10.00">aopp_deconv_tool.optimise</text>
<text text-anchor="start" x="8" y="-138.5" font-family="Helvetica,sans-Serif" font-size="10.00">_compat.PriorParamSet.get</text>
<text text-anchor="middle" x="80" y="-127.5" font-family="Helvetica,sans-Serif" font-size="10.00">_linear_transform_to_domain</text>
</a>
</g>
</g>
<!-- Node1&#45;&gt;Node2 -->
<g id="edge1" class="edge">
<title>Node1&#45;&gt;Node2</title>
<path fill="none" stroke="midnightblue" d="M195.93,-104.61C179.38,-109.85 161.98,-115.36 145.87,-120.46"/>
<polygon fill="midnightblue" stroke="midnightblue" points="197.07,-107.92 205.55,-101.56 194.96,-101.25 197.07,-107.92"/>
</g>
<!-- Node3 -->
<g id="node3" class="node">
<title>Node3</title>
<g id="a_node3"><a xlink:href="../../d7/d62/classaopp__deconv__tool_1_1optimise__compat_1_1PriorParam.html#a87669490eddb38538df6028281c89f4a" target="_top" xlink:title=" ">
<polygon fill="none" stroke="black" points="4.5,-60.5 4.5,-101.5 155.5,-101.5 155.5,-60.5 4.5,-60.5"/>
<text text-anchor="start" x="12.5" y="-89.5" font-family="Helvetica,sans-Serif" font-size="10.00">aopp_deconv_tool.optimise</text>
<text text-anchor="start" x="12.5" y="-78.5" font-family="Helvetica,sans-Serif" font-size="10.00">_compat.PriorParam.linear</text>
<text text-anchor="middle" x="80" y="-67.5" font-family="Helvetica,sans-Serif" font-size="10.00">_transform_from_domain</text>
</a>
</g>
</g>
<!-- Node1&#45;&gt;Node3 -->
<g id="edge2" class="edge">
<title>Node1&#45;&gt;Node3</title>
<path fill="none" stroke="midnightblue" d="M185.85,-81C175.75,-81 165.5,-81 155.56,-81"/>
<polygon fill="midnightblue" stroke="midnightblue" points="185.88,-84.5 195.88,-81 185.88,-77.5 185.88,-84.5"/>
</g>
<!-- Node4 -->
<g id="node4" class="node">
<title>Node4</title>
<g id="a_node4"><a xlink:href="../../d7/d62/classaopp__deconv__tool_1_1optimise__compat_1_1PriorParam.html#a19e74283db509a99090ab04dab393f8e" target="_top" xlink:title=" ">
<polygon fill="none" stroke="black" points="4.5,-0.5 4.5,-41.5 155.5,-41.5 155.5,-0.5 4.5,-0.5"/>
<text text-anchor="start" x="12.5" y="-29.5" font-family="Helvetica,sans-Serif" font-size="10.00">aopp_deconv_tool.optimise</text>
<text text-anchor="start" x="12.5" y="-18.5" font-family="Helvetica,sans-Serif" font-size="10.00">_compat.PriorParam.linear</text>
<text text-anchor="middle" x="80" y="-7.5" font-family="Helvetica,sans-Serif" font-size="10.00">_transform_to_domain</text>
</a>
</g>
</g>
<!-- Node1&#45;&gt;Node4 -->
<g id="edge3" class="edge">
<title>Node1&#45;&gt;Node4</title>
<path fill="none" stroke="midnightblue" d="M195.93,-57.39C179.38,-52.15 161.98,-46.64 145.87,-41.54"/>
<polygon fill="midnightblue" stroke="midnightblue" points="194.96,-60.75 205.55,-60.44 197.07,-54.08 194.96,-60.75"/>
</g>
</g>
</svg>
