<?xml version="1.0" encoding="UTF-8" standalone="no"?>
<!DOCTYPE svg PUBLIC "-//W3C//DTD SVG 1.1//EN"
 "http://www.w3.org/Graphics/SVG/1.1/DTD/svg11.dtd">
<!-- Generated by graphviz version 2.43.0 (0)
 -->
<!-- Title: aopp_deconv_tool.graphical_frontends.ssa_filtering.Slider.set_limits Pages: 1 -->
<svg width="798pt" height="313pt"
 viewBox="0.00 0.00 798.00 313.00" xmlns="http://www.w3.org/2000/svg" xmlns:xlink="http://www.w3.org/1999/xlink">
<g id="graph0" class="graph" transform="scale(1 1) rotate(0) translate(4 309)">
<title>aopp_deconv_tool.graphical_frontends.ssa_filtering.Slider.set_limits</title>
<!-- Node1 -->
<g id="node1" class="node">
<title>Node1</title>
<g id="a_node1"><a xlink:title=" ">
<polygon fill="#bfbfbf" stroke="black" points="0,-149 0,-179 213,-179 213,-149 0,-149"/>
<text text-anchor="start" x="8" y="-167" font-family="Helvetica,sans-Serif" font-size="10.00">aopp_deconv_tool.graphical</text>
<text text-anchor="middle" x="106.5" y="-156" font-family="Helvetica,sans-Serif" font-size="10.00">_frontends.ssa_filtering.Slider.set_limits</text>
</a>
</g>
</g>
<!-- Node2 -->
<g id="node2" class="node">
<title>Node2</title>
<g id="a_node2"><a xlink:href="../../da/d39/classaopp__deconv__tool_1_1graphical__frontends_1_1ssa__filtering_1_1WidgetBase.html#a44b8666598d632f144849eb1153d8909" target="_top" xlink:title=" ">
<polygon fill="none" stroke="black" points="579,-263.5 579,-304.5 748,-304.5 748,-263.5 579,-263.5"/>
<text text-anchor="start" x="587" y="-292.5" font-family="Helvetica,sans-Serif" font-size="10.00">aopp_deconv_tool.graphical</text>
<text text-anchor="start" x="587" y="-281.5" font-family="Helvetica,sans-Serif" font-size="10.00">_frontends.ssa_filtering.Widget</text>
<text text-anchor="middle" x="663.5" y="-270.5" font-family="Helvetica,sans-Serif" font-size="10.00">Base.get_value</text>
</a>
</g>
</g>
<!-- Node1&#45;&gt;Node2 -->
<g id="edge1" class="edge">
<title>Node1&#45;&gt;Node2</title>
<path fill="none" stroke="midnightblue" d="M133.41,-179.06C161.09,-194.42 206.71,-217.69 249,-230 356.05,-261.15 483.93,-274.36 568.85,-279.95"/>
<polygon fill="midnightblue" stroke="midnightblue" points="568.78,-283.45 578.99,-280.59 569.23,-276.46 568.78,-283.45"/>
</g>
<!-- Node3 -->
<g id="node3" class="node">
<title>Node3</title>
<g id="a_node3"><a xlink:href="../../d2/d2f/classaopp__deconv__tool_1_1graphical__frontends_1_1ssa__filtering_1_1CheckButtons.html#a36d51bbdd702b55277de1434bdbe9e2e" target="_top" xlink:title=" ">
<polygon fill="none" stroke="black" points="537,-214 537,-244 790,-244 790,-214 537,-214"/>
<text text-anchor="start" x="545" y="-232" font-family="Helvetica,sans-Serif" font-size="10.00">aopp_deconv_tool.graphical</text>
<text text-anchor="middle" x="663.5" y="-221" font-family="Helvetica,sans-Serif" font-size="10.00">_frontends.ssa_filtering.CheckButtons.get_value</text>
</a>
</g>
</g>
<!-- Node1&#45;&gt;Node3 -->
<g id="edge2" class="edge">
<title>Node1&#45;&gt;Node3</title>
<path fill="none" stroke="midnightblue" d="M149.95,-179.01C177.76,-188.16 215.1,-199.18 249,-205 340.75,-220.75 445.46,-226.71 526.55,-228.75"/>
<polygon fill="midnightblue" stroke="midnightblue" points="526.74,-232.26 536.82,-228.99 526.9,-225.26 526.74,-232.26"/>
</g>
<!-- Node4 -->
<g id="node4" class="node">
<title>Node4</title>
<g id="a_node4"><a xlink:href="../../da/d4a/classaopp__deconv__tool_1_1graphical__frontends_1_1ssa__filtering_1_1TextBox.html#aa35e9c92729265525e70acc4c973b974" target="_top" xlink:title=" ">
<polygon fill="none" stroke="black" points="551.5,-165 551.5,-195 775.5,-195 775.5,-165 551.5,-165"/>
<text text-anchor="start" x="559.5" y="-183" font-family="Helvetica,sans-Serif" font-size="10.00">aopp_deconv_tool.graphical</text>
<text text-anchor="middle" x="663.5" y="-172" font-family="Helvetica,sans-Serif" font-size="10.00">_frontends.ssa_filtering.TextBox.get_value</text>
</a>
</g>
</g>
<!-- Node1&#45;&gt;Node4 -->
<g id="edge3" class="edge">
<title>Node1&#45;&gt;Node4</title>
<path fill="none" stroke="midnightblue" d="M178.44,-179.04C200.89,-183.12 225.89,-186.97 249,-189 347.02,-197.59 458.59,-194.41 541.11,-189.59"/>
<polygon fill="midnightblue" stroke="midnightblue" points="541.51,-193.07 551.28,-188.98 541.09,-186.09 541.51,-193.07"/>
</g>
<!-- Node5 -->
<g id="node5" class="node">
<title>Node5</title>
<g id="a_node5"><a xlink:href="../../d9/d2e/classaopp__deconv__tool_1_1graphical__frontends_1_1ssa__filtering_1_1RadioButtons.html#a7451826d80866b900047ca46013adeb7" target="_top" xlink:title=" ">
<polygon fill="none" stroke="black" points="538,-116 538,-146 789,-146 789,-116 538,-116"/>
<text text-anchor="start" x="546" y="-134" font-family="Helvetica,sans-Serif" font-size="10.00">aopp_deconv_tool.graphical</text>
<text text-anchor="middle" x="663.5" y="-123" font-family="Helvetica,sans-Serif" font-size="10.00">_frontends.ssa_filtering.RadioButtons.get_value</text>
</a>
</g>
</g>
<!-- Node1&#45;&gt;Node5 -->
<g id="edge4" class="edge">
<title>Node1&#45;&gt;Node5</title>
<path fill="none" stroke="midnightblue" d="M183.6,-148.99C204.7,-145.4 227.67,-142.03 249,-140 341.71,-131.18 446.62,-128.98 527.57,-128.97"/>
<polygon fill="midnightblue" stroke="midnightblue" points="527.82,-132.47 537.83,-128.98 527.83,-125.47 527.82,-132.47"/>
</g>
<!-- Node6 -->
<g id="node6" class="node">
<title>Node6</title>
<g id="a_node6"><a xlink:href="../../d9/d2e/classaopp__deconv__tool_1_1graphical__frontends_1_1ssa__filtering_1_1RadioButtons.html#a2013828f374523f17948da0b9a3c6b27" target="_top" xlink:title=" ">
<polygon fill="none" stroke="black" points="250,-61 250,-91 500,-91 500,-61 250,-61"/>
<text text-anchor="start" x="258" y="-79" font-family="Helvetica,sans-Serif" font-size="10.00">aopp_deconv_tool.graphical</text>
<text text-anchor="middle" x="375" y="-68" font-family="Helvetica,sans-Serif" font-size="10.00">_frontends.ssa_filtering.RadioButtons.set_value</text>
</a>
</g>
</g>
<!-- Node1&#45;&gt;Node6 -->
<g id="edge5" class="edge">
<title>Node1&#45;&gt;Node6</title>
<path fill="none" stroke="midnightblue" d="M140.13,-148.95C168.47,-136.28 210.85,-118.32 249,-106 263.06,-101.46 278.22,-97.26 292.95,-93.53"/>
<polygon fill="midnightblue" stroke="midnightblue" points="294.2,-96.83 303.07,-91.03 292.52,-90.03 294.2,-96.83"/>
</g>
<!-- Node8 -->
<g id="node8" class="node">
<title>Node8</title>
<g id="a_node8"><a xlink:href="../../da/d39/classaopp__deconv__tool_1_1graphical__frontends_1_1ssa__filtering_1_1WidgetBase.html#a862ab274604e45821e82c7d44517c1ec" target="_top" xlink:title=" ">
<polygon fill="none" stroke="black" points="290.5,-0.5 290.5,-41.5 459.5,-41.5 459.5,-0.5 290.5,-0.5"/>
<text text-anchor="start" x="298.5" y="-29.5" font-family="Helvetica,sans-Serif" font-size="10.00">aopp_deconv_tool.graphical</text>
<text text-anchor="start" x="298.5" y="-18.5" font-family="Helvetica,sans-Serif" font-size="10.00">_frontends.ssa_filtering.Widget</text>
<text text-anchor="middle" x="375" y="-7.5" font-family="Helvetica,sans-Serif" font-size="10.00">Base.set_value</text>
</a>
</g>
</g>
<!-- Node1&#45;&gt;Node8 -->
<g id="edge7" class="edge">
<title>Node1&#45;&gt;Node8</title>
<path fill="none" stroke="midnightblue" d="M122.06,-148.64C146.12,-124.18 196.75,-76.54 249,-51 258.92,-46.15 269.68,-42.05 280.59,-38.6"/>
<polygon fill="midnightblue" stroke="midnightblue" points="281.61,-41.95 290.19,-35.73 279.6,-35.24 281.61,-41.95"/>
</g>
<!-- Node9 -->
<g id="node9" class="node">
<title>Node9</title>
<g id="a_node9"><a xlink:href="../../d2/d2f/classaopp__deconv__tool_1_1graphical__frontends_1_1ssa__filtering_1_1CheckButtons.html#a83863b3a66516dfbfb8b24ae4c16e49e" target="_top" xlink:title=" ">
<polygon fill="none" stroke="black" points="249,-149 249,-179 501,-179 501,-149 249,-149"/>
<text text-anchor="start" x="257" y="-167" font-family="Helvetica,sans-Serif" font-size="10.00">aopp_deconv_tool.graphical</text>
<text text-anchor="middle" x="375" y="-156" font-family="Helvetica,sans-Serif" font-size="10.00">_frontends.ssa_filtering.CheckButtons.set_value</text>
</a>
</g>
</g>
<!-- Node1&#45;&gt;Node9 -->
<g id="edge8" class="edge">
<title>Node1&#45;&gt;Node9</title>
<path fill="none" stroke="midnightblue" d="M213.21,-164C221.48,-164 229.89,-164 238.31,-164"/>
<polygon fill="midnightblue" stroke="midnightblue" points="238.59,-167.5 248.59,-164 238.59,-160.5 238.59,-167.5"/>
</g>
<!-- Node7 -->
<g id="node7" class="node">
<title>Node7</title>
<g id="a_node7"><a xlink:href="../../da/d39/classaopp__deconv__tool_1_1graphical__frontends_1_1ssa__filtering_1_1WidgetBase.html#a8b5f0c98d3fd7534284c4151b2a942bc" target="_top" xlink:title=" ">
<polygon fill="none" stroke="black" points="579,-55.5 579,-96.5 748,-96.5 748,-55.5 579,-55.5"/>
<text text-anchor="start" x="587" y="-84.5" font-family="Helvetica,sans-Serif" font-size="10.00">aopp_deconv_tool.graphical</text>
<text text-anchor="start" x="587" y="-73.5" font-family="Helvetica,sans-Serif" font-size="10.00">_frontends.ssa_filtering.Widget</text>
<text text-anchor="middle" x="663.5" y="-62.5" font-family="Helvetica,sans-Serif" font-size="10.00">Base.set_active</text>
</a>
</g>
</g>
<!-- Node6&#45;&gt;Node7 -->
<g id="edge6" class="edge">
<title>Node6&#45;&gt;Node7</title>
<path fill="none" stroke="midnightblue" d="M500.41,-76C523.23,-76 546.69,-76 568.43,-76"/>
<polygon fill="midnightblue" stroke="midnightblue" points="568.62,-79.5 578.62,-76 568.62,-72.5 568.62,-79.5"/>
</g>
<!-- Node9&#45;&gt;Node2 -->
<g id="edge9" class="edge">
<title>Node9&#45;&gt;Node2</title>
<path fill="none" stroke="midnightblue" d="M398.22,-179.04C428.41,-198.85 484.65,-233.56 537,-254 547.25,-258 558.18,-261.57 569.17,-264.73"/>
<polygon fill="midnightblue" stroke="midnightblue" points="568.24,-268.1 578.81,-267.4 570.11,-261.36 568.24,-268.1"/>
</g>
<!-- Node9&#45;&gt;Node3 -->
<g id="edge10" class="edge">
<title>Node9&#45;&gt;Node3</title>
<path fill="none" stroke="midnightblue" d="M431.68,-179.06C462.6,-187.2 501.81,-197.16 537,-205 547.72,-207.39 558.98,-209.75 570.18,-212"/>
<polygon fill="midnightblue" stroke="midnightblue" points="569.5,-215.44 579.99,-213.96 570.87,-208.57 569.5,-215.44"/>
</g>
<!-- Node9&#45;&gt;Node4 -->
<g id="edge11" class="edge">
<title>Node9&#45;&gt;Node4</title>
<path fill="none" stroke="midnightblue" d="M501.25,-170.99C514.56,-171.74 528.09,-172.49 541.36,-173.24"/>
<polygon fill="midnightblue" stroke="midnightblue" points="541.27,-176.74 551.45,-173.8 541.66,-169.75 541.27,-176.74"/>
</g>
<!-- Node9&#45;&gt;Node5 -->
<g id="edge12" class="edge">
<title>Node9&#45;&gt;Node5</title>
<path fill="none" stroke="midnightblue" d="M501.25,-149.57C509.9,-148.58 518.65,-147.57 527.36,-146.57"/>
<polygon fill="midnightblue" stroke="midnightblue" points="528.02,-150.01 537.55,-145.39 527.22,-143.06 528.02,-150.01"/>
</g>
<!-- Node9&#45;&gt;Node7 -->
<g id="edge13" class="edge">
<title>Node9&#45;&gt;Node7</title>
<path fill="none" stroke="midnightblue" d="M415.01,-148.98C447.4,-136.8 494.82,-119.64 537,-107 547.29,-103.92 558.11,-100.9 568.92,-98.04"/>
<polygon fill="midnightblue" stroke="midnightblue" points="570.03,-101.37 578.82,-95.46 568.26,-94.6 570.03,-101.37"/>
</g>
</g>
</svg>
