<?xml version="1.0" encoding="UTF-8" standalone="no"?>
<!DOCTYPE svg PUBLIC "-//W3C//DTD SVG 1.1//EN"
 "http://www.w3.org/Graphics/SVG/1.1/DTD/svg11.dtd">
<!-- Generated by graphviz version 2.43.0 (0)
 -->
<!-- Title: aopp_deconv_tool.graphical_frontends.ssa_filtering.Slider.set_limits Pages: 1 -->
<svg width="795pt" height="320pt"
 viewBox="0.00 0.00 795.00 320.00" xmlns="http://www.w3.org/2000/svg" xmlns:xlink="http://www.w3.org/1999/xlink">
<g id="graph0" class="graph" transform="scale(1 1) rotate(0) translate(4 316)">
<title>aopp_deconv_tool.graphical_frontends.ssa_filtering.Slider.set_limits</title>
<!-- Node1 -->
<g id="Node000001" class="node">
<title>Node1</title>
<g id="a_Node000001"><a xlink:title=" ">
<polygon fill="#999999" stroke="#666666" points="212,-175.5 0,-175.5 0,-145.5 212,-145.5 212,-175.5"/>
<text text-anchor="start" x="8" y="-163.5" font-family="Helvetica,sans-Serif" font-size="10.00">aopp_deconv_tool.graphical</text>
<text text-anchor="middle" x="106" y="-152.5" font-family="Helvetica,sans-Serif" font-size="10.00">_frontends.ssa_filtering.Slider.set_limits</text>
</a>
</g>
</g>
<!-- Node2 -->
<g id="Node000002" class="node">
<title>Node2</title>
<g id="a_Node000002"><a xlink:href="../../da/d39/classaopp__deconv__tool_1_1graphical__frontends_1_1ssa__filtering_1_1WidgetBase.html#a50e64e1fc378bfc45bb50f9eb6a961fb" target="_top" xlink:title=" ">
<polygon fill="white" stroke="#666666" points="745,-312 577,-312 577,-271 745,-271 745,-312"/>
<text text-anchor="start" x="585" y="-300" font-family="Helvetica,sans-Serif" font-size="10.00">aopp_deconv_tool.graphical</text>
<text text-anchor="start" x="585" y="-289" font-family="Helvetica,sans-Serif" font-size="10.00">_frontends.ssa_filtering.Widget</text>
<text text-anchor="middle" x="661" y="-278" font-family="Helvetica,sans-Serif" font-size="10.00">Base.get_value</text>
</a>
</g>
</g>
<!-- Node1&#45;&gt;Node2 -->
<g id="edge1_Node000001_Node000002" class="edge">
<title>Node1&#45;&gt;Node2</title>
<g id="a_edge1_Node000001_Node000002"><a xlink:title=" ">
<path fill="none" stroke="#63b8ff" d="M131.47,-175.63C158.84,-191.83 204.97,-217.01 248,-230.5 354.24,-263.82 481.75,-279.13 566.49,-286.03"/>
<polygon fill="#63b8ff" stroke="#63b8ff" points="566.36,-289.53 576.61,-286.83 566.91,-282.56 566.36,-289.53"/>
</a>
</g>
</g>
<!-- Node3 -->
<g id="Node000003" class="node">
<title>Node3</title>
<g id="a_Node000003"><a xlink:href="../../d2/d2f/classaopp__deconv__tool_1_1graphical__frontends_1_1ssa__filtering_1_1CheckButtons.html#af410b1ad557888c7ef236bab981f1efe" target="_top" xlink:title=" ">
<polygon fill="white" stroke="#666666" points="787,-252.5 535,-252.5 535,-222.5 787,-222.5 787,-252.5"/>
<text text-anchor="start" x="543" y="-240.5" font-family="Helvetica,sans-Serif" font-size="10.00">aopp_deconv_tool.graphical</text>
<text text-anchor="middle" x="661" y="-229.5" font-family="Helvetica,sans-Serif" font-size="10.00">_frontends.ssa_filtering.CheckButtons.get_value</text>
</a>
</g>
</g>
<!-- Node1&#45;&gt;Node3 -->
<g id="edge2_Node000001_Node000003" class="edge">
<title>Node1&#45;&gt;Node3</title>
<g id="a_edge2_Node000001_Node000003"><a xlink:title=" ">
<path fill="none" stroke="#63b8ff" d="M149.32,-175.58C177.04,-184.84 214.25,-196.11 248,-202.5 339.31,-219.79 443.64,-228.54 524.46,-232.97"/>
<polygon fill="#63b8ff" stroke="#63b8ff" points="524.53,-236.48 534.7,-233.52 524.9,-229.49 524.53,-236.48"/>
</a>
</g>
</g>
<!-- Node4 -->
<g id="Node000004" class="node">
<title>Node4</title>
<g id="a_Node000004"><a xlink:href="../../da/d4a/classaopp__deconv__tool_1_1graphical__frontends_1_1ssa__filtering_1_1TextBox.html#ad9cacfd56b8b2b133a9bc9179a05c390" target="_top" xlink:title=" ">
<polygon fill="white" stroke="#666666" points="773,-204.5 549,-204.5 549,-174.5 773,-174.5 773,-204.5"/>
<text text-anchor="start" x="557" y="-192.5" font-family="Helvetica,sans-Serif" font-size="10.00">aopp_deconv_tool.graphical</text>
<text text-anchor="middle" x="661" y="-181.5" font-family="Helvetica,sans-Serif" font-size="10.00">_frontends.ssa_filtering.TextBox.get_value</text>
</a>
</g>
</g>
<!-- Node1&#45;&gt;Node4 -->
<g id="edge3_Node000001_Node000004" class="edge">
<title>Node1&#45;&gt;Node4</title>
<g id="a_edge3_Node000001_Node000004"><a xlink:title=" ">
<path fill="none" stroke="#63b8ff" d="M182.09,-175.52C203.31,-179.15 226.48,-182.55 248,-184.5 345.45,-193.33 456.4,-194.15 538.59,-193"/>
<polygon fill="#63b8ff" stroke="#63b8ff" points="538.77,-196.5 548.72,-192.85 538.67,-189.5 538.77,-196.5"/>
</a>
</g>
</g>
<!-- Node5 -->
<g id="Node000005" class="node">
<title>Node5</title>
<g id="a_Node000005"><a xlink:href="../../d9/d2e/classaopp__deconv__tool_1_1graphical__frontends_1_1ssa__filtering_1_1RadioButtons.html#ab058bb7bc5aedda2b36c5e9fe87e8d06" target="_top" xlink:title=" ">
<polygon fill="white" stroke="#666666" points="786,-156.5 536,-156.5 536,-126.5 786,-126.5 786,-156.5"/>
<text text-anchor="start" x="544" y="-144.5" font-family="Helvetica,sans-Serif" font-size="10.00">aopp_deconv_tool.graphical</text>
<text text-anchor="middle" x="661" y="-133.5" font-family="Helvetica,sans-Serif" font-size="10.00">_frontends.ssa_filtering.RadioButtons.get_value</text>
</a>
</g>
</g>
<!-- Node1&#45;&gt;Node5 -->
<g id="edge4_Node000001_Node000005" class="edge">
<title>Node1&#45;&gt;Node5</title>
<g id="a_edge4_Node000001_Node000005"><a xlink:title=" ">
<path fill="none" stroke="#63b8ff" d="M180.97,-145.5C202.49,-141.79 226.1,-138.35 248,-136.5 340.45,-128.69 444.98,-130.08 525.62,-133.35"/>
<polygon fill="#63b8ff" stroke="#63b8ff" points="525.69,-136.85 535.83,-133.78 525.98,-129.86 525.69,-136.85"/>
</a>
</g>
</g>
<!-- Node6 -->
<g id="Node000006" class="node">
<title>Node6</title>
<g id="a_Node000006"><a xlink:href="../../d9/d2e/classaopp__deconv__tool_1_1graphical__frontends_1_1ssa__filtering_1_1RadioButtons.html#a0657025ad2cdd49dc0c3d199a76f02e2" target="_top" xlink:title=" ">
<polygon fill="white" stroke="#666666" points="498,-89.5 249,-89.5 249,-59.5 498,-59.5 498,-89.5"/>
<text text-anchor="start" x="257" y="-77.5" font-family="Helvetica,sans-Serif" font-size="10.00">aopp_deconv_tool.graphical</text>
<text text-anchor="middle" x="373.5" y="-66.5" font-family="Helvetica,sans-Serif" font-size="10.00">_frontends.ssa_filtering.RadioButtons.set_value</text>
</a>
</g>
</g>
<!-- Node1&#45;&gt;Node6 -->
<g id="edge5_Node000001_Node000006" class="edge">
<title>Node1&#45;&gt;Node6</title>
<g id="a_edge5_Node000001_Node000006"><a xlink:title=" ">
<path fill="none" stroke="#63b8ff" d="M140.08,-145.42C168.32,-132.97 210.24,-115.45 248,-103.5 261.2,-99.32 275.35,-95.46 289.21,-92.01"/>
<polygon fill="#63b8ff" stroke="#63b8ff" points="290.35,-95.33 299.24,-89.57 288.7,-88.53 290.35,-95.33"/>
</a>
</g>
</g>
<!-- Node8 -->
<g id="Node000008" class="node">
<title>Node8</title>
<g id="a_Node000008"><a xlink:href="../../da/d39/classaopp__deconv__tool_1_1graphical__frontends_1_1ssa__filtering_1_1WidgetBase.html#a60cb9c76c496750c40e4982422b4b6f7" target="_top" xlink:title=" ">
<polygon fill="white" stroke="#666666" points="457.5,-41 289.5,-41 289.5,0 457.5,0 457.5,-41"/>
<text text-anchor="start" x="297.5" y="-29" font-family="Helvetica,sans-Serif" font-size="10.00">aopp_deconv_tool.graphical</text>
<text text-anchor="start" x="297.5" y="-18" font-family="Helvetica,sans-Serif" font-size="10.00">_frontends.ssa_filtering.Widget</text>
<text text-anchor="middle" x="373.5" y="-7" font-family="Helvetica,sans-Serif" font-size="10.00">Base.set_value</text>
</a>
</g>
</g>
<!-- Node1&#45;&gt;Node8 -->
<g id="edge8_Node000001_Node000008" class="edge">
<title>Node1&#45;&gt;Node8</title>
<g id="a_edge8_Node000001_Node000008"><a xlink:title=" ">
<path fill="none" stroke="#63b8ff" d="M121.98,-145.18C146.22,-121.29 196.55,-75.32 248,-50.5 257.99,-45.68 268.81,-41.6 279.77,-38.15"/>
<polygon fill="#63b8ff" stroke="#63b8ff" points="280.82,-41.49 289.41,-35.29 278.83,-34.78 280.82,-41.49"/>
</a>
</g>
</g>
<!-- Node9 -->
<g id="Node000009" class="node">
<title>Node9</title>
<g id="a_Node000009"><a xlink:href="../../d2/d2f/classaopp__deconv__tool_1_1graphical__frontends_1_1ssa__filtering_1_1CheckButtons.html#a7ec932ab45bcc9e3ca7ff7d33a38dc46" target="_top" xlink:title=" ">
<polygon fill="white" stroke="#666666" points="499,-175.5 248,-175.5 248,-145.5 499,-145.5 499,-175.5"/>
<text text-anchor="start" x="256" y="-163.5" font-family="Helvetica,sans-Serif" font-size="10.00">aopp_deconv_tool.graphical</text>
<text text-anchor="middle" x="373.5" y="-152.5" font-family="Helvetica,sans-Serif" font-size="10.00">_frontends.ssa_filtering.CheckButtons.set_value</text>
</a>
</g>
</g>
<!-- Node1&#45;&gt;Node9 -->
<g id="edge9_Node000001_Node000009" class="edge">
<title>Node1&#45;&gt;Node9</title>
<g id="a_edge9_Node000001_Node000009"><a xlink:title=" ">
<path fill="none" stroke="#63b8ff" d="M212.31,-160.5C220.55,-160.5 228.93,-160.5 237.32,-160.5"/>
<polygon fill="#63b8ff" stroke="#63b8ff" points="237.56,-164 247.56,-160.5 237.56,-157 237.56,-164"/>
</a>
</g>
</g>
<!-- Node7 -->
<g id="Node000007" class="node">
<title>Node7</title>
<g id="a_Node000007"><a xlink:href="../../da/d39/classaopp__deconv__tool_1_1graphical__frontends_1_1ssa__filtering_1_1WidgetBase.html#a57c669a0b1d75a6756ec5e30a6a39832" target="_top" xlink:title=" ">
<polygon fill="white" stroke="#666666" points="745,-90 577,-90 577,-49 745,-49 745,-90"/>
<text text-anchor="start" x="585" y="-78" font-family="Helvetica,sans-Serif" font-size="10.00">aopp_deconv_tool.graphical</text>
<text text-anchor="start" x="585" y="-67" font-family="Helvetica,sans-Serif" font-size="10.00">_frontends.ssa_filtering.Widget</text>
<text text-anchor="middle" x="661" y="-56" font-family="Helvetica,sans-Serif" font-size="10.00">Base.set_active</text>
</a>
</g>
</g>
<!-- Node6&#45;&gt;Node7 -->
<g id="edge6_Node000006_Node000007" class="edge">
<title>Node6&#45;&gt;Node7</title>
<g id="a_edge6_Node000006_Node000007"><a xlink:title=" ">
<path fill="none" stroke="#63b8ff" d="M498.06,-72.34C520.96,-71.94 544.53,-71.52 566.35,-71.14"/>
<polygon fill="#63b8ff" stroke="#63b8ff" points="566.64,-74.64 576.58,-70.96 566.52,-67.64 566.64,-74.64"/>
</a>
</g>
</g>
<!-- Node7&#45;&gt;Node7 -->
<g id="edge7_Node000007_Node000007" class="edge">
<title>Node7&#45;&gt;Node7</title>
<g id="a_edge7_Node000007_Node000007"><a xlink:title=" ">
<path fill="none" stroke="#63b8ff" d="M608.44,-90.1C602.7,-99.65 620.22,-108 661,-108 686.49,-108 702.89,-104.74 710.2,-99.96"/>
<polygon fill="#63b8ff" stroke="#63b8ff" points="713.65,-100.69 713.56,-90.1 707.03,-98.43 713.65,-100.69"/>
</a>
</g>
</g>
<!-- Node9&#45;&gt;Node2 -->
<g id="edge10_Node000009_Node000002" class="edge">
<title>Node9&#45;&gt;Node2</title>
<g id="a_edge10_Node000009_Node000002"><a xlink:title=" ">
<path fill="none" stroke="#63b8ff" d="M394.1,-175.84C423.22,-197.91 480.39,-238.5 535,-261.5 545.18,-265.79 556.1,-269.54 567.09,-272.8"/>
<polygon fill="#63b8ff" stroke="#63b8ff" points="566.17,-276.18 576.74,-275.54 568.08,-269.44 566.17,-276.18"/>
</a>
</g>
</g>
<!-- Node9&#45;&gt;Node3 -->
<g id="edge11_Node000009_Node000003" class="edge">
<title>Node9&#45;&gt;Node3</title>
<g id="a_edge11_Node000009_Node000003"><a xlink:title=" ">
<path fill="none" stroke="#63b8ff" d="M415.3,-175.6C447.48,-187.11 493.68,-202.76 535,-213.5 544.38,-215.94 554.22,-218.25 564.08,-220.4"/>
<polygon fill="#63b8ff" stroke="#63b8ff" points="563.43,-223.84 573.94,-222.49 564.89,-216.99 563.43,-223.84"/>
</a>
</g>
</g>
<!-- Node9&#45;&gt;Node4 -->
<g id="edge12_Node000009_Node000004" class="edge">
<title>Node9&#45;&gt;Node4</title>
<g id="a_edge12_Node000009_Node000004"><a xlink:title=" ">
<path fill="none" stroke="#63b8ff" d="M499.31,-173.18C512.46,-174.51 525.82,-175.87 538.93,-177.2"/>
<polygon fill="#63b8ff" stroke="#63b8ff" points="538.6,-180.69 548.9,-178.21 539.3,-173.72 538.6,-180.69"/>
</a>
</g>
</g>
<!-- Node9&#45;&gt;Node5 -->
<g id="edge13_Node000009_Node000005" class="edge">
<title>Node9&#45;&gt;Node5</title>
<g id="a_edge13_Node000009_Node000005"><a xlink:title=" ">
<path fill="none" stroke="#63b8ff" d="M499.31,-152.19C508.14,-151.61 517.06,-151.01 525.94,-150.42"/>
<polygon fill="#63b8ff" stroke="#63b8ff" points="526.19,-153.91 535.94,-149.76 525.73,-146.93 526.19,-153.91"/>
</a>
</g>
</g>
<!-- Node9&#45;&gt;Node7 -->
<g id="edge14_Node000009_Node000007" class="edge">
<title>Node9&#45;&gt;Node7</title>
<g id="a_edge14_Node000009_Node000007"><a xlink:title=" ">
<path fill="none" stroke="#63b8ff" d="M421.64,-145.47C466.28,-131.25 534,-109.66 585.86,-93.13"/>
<polygon fill="#63b8ff" stroke="#63b8ff" points="587.22,-96.37 595.68,-90 585.09,-89.7 587.22,-96.37"/>
</a>
</g>
</g>
</g>
</svg>
