<?xml version="1.0" encoding="UTF-8" standalone="no"?>
<!DOCTYPE svg PUBLIC "-//W3C//DTD SVG 1.1//EN"
 "http://www.w3.org/Graphics/SVG/1.1/DTD/svg11.dtd">
<!-- Generated by graphviz version 2.43.0 (0)
 -->
<!-- Title: aopp_deconv_tool.graphical_frontends.ssa_filtering.Slider.set_active Pages: 1 -->
<!--zoomable 369 -->

<svg id="main" version="1.1" xmlns="http://www.w3.org/2000/svg" xmlns:xlink="http://www.w3.org/1999/xlink" xml:space="preserve" onload="init(evt)">
<style type="text/css"><![CDATA[
.node, .edge {opacity: 0.7;}
.node.selected, .edge.selected {opacity: 1;}
.edge:hover path { stroke: red; }
.edge:hover polygon { stroke: red; fill: red; }
]]></style>

<defs>
  <circle id="rim" cx="0" cy="0" r="7"/>
  <circle id="rim2" cx="0" cy="0" r="3.5"/>
  <g id="zoomPlus">
    <use xlink:href="#rim" fill="#404040"><set attributeName="fill" to="#808080" begin="zoomplus.mouseover" end="zoomplus.mouseout"/></use>
    <path d="M-4,0h8M0,-4v8" fill="none" stroke="white" stroke-width="1.5" pointer-events="none"/>
  </g>
  <g id="zoomMin">
    <use xlink:href="#rim" fill="#404040"><set attributeName="fill" to="#808080" begin="zoomminus.mouseover" end="zoomminus.mouseout"/></use>
    <path d="M-4,0h8" fill="none" stroke="white" stroke-width="1.5" pointer-events="none"/>
  </g>
  <g id="arrowUp" transform="translate(30 24)">
    <use xlink:href="#rim"/>
    <path pointer-events="none" fill="none" stroke="white" stroke-width="1.5" d="M0,-3.0v7 M-2.5,-0.5L0,-3.0L2.5,-0.5"/>
  </g>
  <g id="arrowRight" transform="rotate(90) translate(36 -43)">
    <use xlink:href="#rim"/>
    <path pointer-events="none" fill="none" stroke="white" stroke-width="1.5" d="M0,-3.0v7 M-2.5,-0.5L0,-3.0L2.5,-0.5"/>
  </g>
  <g id="arrowDown" transform="rotate(180) translate(-30 -48)">
    <use xlink:href="#rim"/>
    <path pointer-events="none" fill="none" stroke="white" stroke-width="1.5" d="M0,-3.0v7 M-2.5,-0.5L0,-3.0L2.5,-0.5"/>
  </g>
  <g id="arrowLeft" transform="rotate(270) translate(-36 17)">
    <use xlink:href="#rim"/>
    <path pointer-events="none" fill="none" stroke="white" stroke-width="1.5" d="M0,-3.0v7 M-2.5,-0.5L0,-3.0L2.5,-0.5"/>
  </g>
  <g id="resetDef">
    <use xlink:href="#rim2" fill="#404040"><set attributeName="fill" to="#808080" begin="reset.mouseover" end="reset.mouseout"/></use>
  </g>
</defs>
<script type="application/ecmascript">
var viewWidth = 1048;
var viewHeight = 369;
var sectionId = 'dynsection-6';
</script>
<script type="application/ecmascript" xlink:href="../../svg.min.js"/>
<svg id="graph" class="graph">
<g id="viewport">
<title>aopp_deconv_tool.graphical_frontends.ssa_filtering.Slider.set_active</title>
<!-- Node1 -->
<g id="Node000001" class="node">
<title>Node1</title>
<g id="a_Node000001"><a xlink:title=" ">
<polygon fill="#999999" stroke="#666666" points="214,-192 0,-192 0,-162 214,-162 214,-192"/>
<text text-anchor="start" x="8" y="-180" font-family="Helvetica,sans-Serif" font-size="10.00">aopp_deconv_tool.graphical</text>
<text text-anchor="middle" x="107" y="-169" font-family="Helvetica,sans-Serif" font-size="10.00">_frontends.ssa_filtering.Slider.set_active</text>
</a>
</g>
</g>
<!-- Node1&#45;&gt;Node1 -->
<g id="edge1_Node000001_Node000001" class="edge">
<title>Node1&#45;&gt;Node1</title>
<g id="a_edge1_Node000001_Node000001"><a xlink:title=" ">
<path fill="none" stroke="#63b8ff" d="M63.05,-192.28C53.29,-201.41 67.94,-210 107,-210 130.19,-210 144.78,-206.97 150.76,-202.6"/>
<polygon fill="#63b8ff" stroke="#63b8ff" points="154.26,-202.34 150.95,-192.28 147.27,-202.21 154.26,-202.34"/>
</a>
</g>
</g>
<!-- Node2 -->
<g id="Node000002" class="node">
<title>Node2</title>
<g id="a_Node000002"><a xlink:href="../../d5/d53/classaopp__deconv__tool_1_1graphical__frontends_1_1ssa__filtering_1_1Slider.html#ac053deeaf27504aac90059d271548268" target="_top" xlink:title=" ">
<polygon fill="white" stroke="#666666" points="463.5,-225 251.5,-225 251.5,-195 463.5,-195 463.5,-225"/>
<text text-anchor="start" x="259.5" y="-213" font-family="Helvetica,sans-Serif" font-size="10.00">aopp_deconv_tool.graphical</text>
<text text-anchor="middle" x="357.5" y="-202" font-family="Helvetica,sans-Serif" font-size="10.00">_frontends.ssa_filtering.Slider.set_limits</text>
</a>
</g>
</g>
<!-- Node1&#45;&gt;Node2 -->
<g id="edge2_Node000001_Node000002" class="edge">
<title>Node1&#45;&gt;Node2</title>
<g id="a_edge2_Node000001_Node000002"><a xlink:title=" ">
<path fill="none" stroke="#63b8ff" d="M214.11,-191.09C223.02,-192.27 232.06,-193.48 241.04,-194.67"/>
<polygon fill="#63b8ff" stroke="#63b8ff" points="240.77,-198.16 251.14,-196.01 241.69,-191.22 240.77,-198.16"/>
</a>
</g>
</g>
<!-- Node11 -->
<g id="Node000011" class="node">
<title>Node11</title>
<g id="a_Node000011"><a xlink:href="../../dc/d2e/classaopp__deconv__tool_1_1graphical__frontends_1_1ssa__filtering_1_1Range.html#ad2d49047d340c025b38fe5f7a8ac6b17" target="_top" xlink:title=" ">
<polygon fill="white" stroke="#666666" points="465,-168 250,-168 250,-138 465,-138 465,-168"/>
<text text-anchor="start" x="258" y="-156" font-family="Helvetica,sans-Serif" font-size="10.00">aopp_deconv_tool.graphical</text>
<text text-anchor="middle" x="357.5" y="-145" font-family="Helvetica,sans-Serif" font-size="10.00">_frontends.ssa_filtering.Range.set_limits</text>
</a>
</g>
</g>
<!-- Node1&#45;&gt;Node11 -->
<g id="edge17_Node000001_Node000011" class="edge">
<title>Node1&#45;&gt;Node11</title>
<g id="a_edge17_Node000001_Node000011"><a xlink:title=" ">
<path fill="none" stroke="#63b8ff" d="M214.11,-166.75C222.64,-165.93 231.29,-165.09 239.89,-164.26"/>
<polygon fill="#63b8ff" stroke="#63b8ff" points="240.34,-167.74 249.96,-163.29 239.67,-160.77 240.34,-167.74"/>
</a>
</g>
</g>
<!-- Node3 -->
<g id="Node000003" class="node">
<title>Node3</title>
<g id="a_Node000003"><a xlink:href="../../da/d39/classaopp__deconv__tool_1_1graphical__frontends_1_1ssa__filtering_1_1WidgetBase.html#a50e64e1fc378bfc45bb50f9eb6a961fb" target="_top" xlink:title=" ">
<polygon fill="white" stroke="#666666" points="998,-285.5 830,-285.5 830,-244.5 998,-244.5 998,-285.5"/>
<text text-anchor="start" x="838" y="-273.5" font-family="Helvetica,sans-Serif" font-size="10.00">aopp_deconv_tool.graphical</text>
<text text-anchor="start" x="838" y="-262.5" font-family="Helvetica,sans-Serif" font-size="10.00">_frontends.ssa_filtering.Widget</text>
<text text-anchor="middle" x="914" y="-251.5" font-family="Helvetica,sans-Serif" font-size="10.00">Base.get_value</text>
</a>
</g>
</g>
<!-- Node2&#45;&gt;Node3 -->
<g id="edge3_Node000002_Node000003" class="edge">
<title>Node2&#45;&gt;Node3</title>
<g id="a_edge3_Node000002_Node000003"><a xlink:title=" ">
<path fill="none" stroke="#63b8ff" d="M369.28,-225.15C390.59,-253.61 441.23,-314.23 501,-337 605.25,-376.71 642.9,-360.28 752,-337 793.84,-328.07 837.96,-307.44 869.41,-290.55"/>
<polygon fill="#63b8ff" stroke="#63b8ff" points="871.25,-293.53 878.34,-285.67 867.89,-287.39 871.25,-293.53"/>
</a>
</g>
</g>
<!-- Node4 -->
<g id="Node000004" class="node">
<title>Node4</title>
<g id="a_Node000004"><a xlink:href="../../d2/d2f/classaopp__deconv__tool_1_1graphical__frontends_1_1ssa__filtering_1_1CheckButtons.html#af410b1ad557888c7ef236bab981f1efe" target="_top" xlink:title=" ">
<polygon fill="white" stroke="#666666" points="1040,-30 788,-30 788,0 1040,0 1040,-30"/>
<text text-anchor="start" x="796" y="-18" font-family="Helvetica,sans-Serif" font-size="10.00">aopp_deconv_tool.graphical</text>
<text text-anchor="middle" x="914" y="-7" font-family="Helvetica,sans-Serif" font-size="10.00">_frontends.ssa_filtering.CheckButtons.get_value</text>
</a>
</g>
</g>
<!-- Node2&#45;&gt;Node4 -->
<g id="edge4_Node000002_Node000004" class="edge">
<title>Node2&#45;&gt;Node4</title>
<g id="a_edge4_Node000002_Node000004"><a xlink:title=" ">
<path fill="none" stroke="#63b8ff" d="M438.54,-194.93C448.34,-190.42 457.52,-184.58 465,-177 504.7,-136.76 457.41,-91 501,-55 542.12,-21.04 674.07,-13.01 777.69,-12.26"/>
<polygon fill="#63b8ff" stroke="#63b8ff" points="777.96,-15.76 787.94,-12.21 777.92,-8.76 777.96,-15.76"/>
</a>
</g>
</g>
<!-- Node5 -->
<g id="Node000005" class="node">
<title>Node5</title>
<g id="a_Node000005"><a xlink:href="../../da/d4a/classaopp__deconv__tool_1_1graphical__frontends_1_1ssa__filtering_1_1TextBox.html#ad9cacfd56b8b2b133a9bc9179a05c390" target="_top" xlink:title=" ">
<polygon fill="white" stroke="#666666" points="1026,-101 802,-101 802,-71 1026,-71 1026,-101"/>
<text text-anchor="start" x="810" y="-89" font-family="Helvetica,sans-Serif" font-size="10.00">aopp_deconv_tool.graphical</text>
<text text-anchor="middle" x="914" y="-78" font-family="Helvetica,sans-Serif" font-size="10.00">_frontends.ssa_filtering.TextBox.get_value</text>
</a>
</g>
</g>
<!-- Node2&#45;&gt;Node5 -->
<g id="edge5_Node000002_Node000005" class="edge">
<title>Node2&#45;&gt;Node5</title>
<g id="a_edge5_Node000002_Node000005"><a xlink:title=" ">
<path fill="none" stroke="#63b8ff" d="M433.6,-194.91C444.89,-190.41 455.81,-184.57 465,-177 491.09,-155.51 472.5,-128.18 501,-110 601.76,-45.71 746.15,-55.01 834.52,-69.3"/>
<polygon fill="#63b8ff" stroke="#63b8ff" points="834.05,-72.77 844.49,-70.97 835.2,-65.87 834.05,-72.77"/>
</a>
</g>
</g>
<!-- Node6 -->
<g id="Node000006" class="node">
<title>Node6</title>
<g id="a_Node000006"><a xlink:href="../../d9/d2e/classaopp__deconv__tool_1_1graphical__frontends_1_1ssa__filtering_1_1RadioButtons.html#ab058bb7bc5aedda2b36c5e9fe87e8d06" target="_top" xlink:title=" ">
<polygon fill="white" stroke="#666666" points="1039,-149 789,-149 789,-119 1039,-119 1039,-149"/>
<text text-anchor="start" x="797" y="-137" font-family="Helvetica,sans-Serif" font-size="10.00">aopp_deconv_tool.graphical</text>
<text text-anchor="middle" x="914" y="-126" font-family="Helvetica,sans-Serif" font-size="10.00">_frontends.ssa_filtering.RadioButtons.get_value</text>
</a>
</g>
</g>
<!-- Node2&#45;&gt;Node6 -->
<g id="edge6_Node000002_Node000006" class="edge">
<title>Node2&#45;&gt;Node6</title>
<g id="a_edge6_Node000002_Node000006"><a xlink:title=" ">
<path fill="none" stroke="#63b8ff" d="M374.39,-225.14C399.11,-247.53 449.34,-288.49 501,-304 554.42,-320.03 708.06,-338.36 752,-304 804.3,-263.09 739.98,-204.86 788,-159 789.47,-157.6 791,-156.26 792.57,-154.99"/>
<polygon fill="#63b8ff" stroke="#63b8ff" points="794.67,-157.79 800.84,-149.17 790.64,-152.07 794.67,-157.79"/>
</a>
</g>
</g>
<!-- Node7 -->
<g id="Node000007" class="node">
<title>Node7</title>
<g id="a_Node000007"><a xlink:href="../../d9/d2e/classaopp__deconv__tool_1_1graphical__frontends_1_1ssa__filtering_1_1RadioButtons.html#a0657025ad2cdd49dc0c3d199a76f02e2" target="_top" xlink:title=" ">
<polygon fill="white" stroke="#666666" points="751,-235 502,-235 502,-205 751,-205 751,-235"/>
<text text-anchor="start" x="510" y="-223" font-family="Helvetica,sans-Serif" font-size="10.00">aopp_deconv_tool.graphical</text>
<text text-anchor="middle" x="626.5" y="-212" font-family="Helvetica,sans-Serif" font-size="10.00">_frontends.ssa_filtering.RadioButtons.set_value</text>
</a>
</g>
</g>
<!-- Node2&#45;&gt;Node7 -->
<g id="edge7_Node000002_Node000007" class="edge">
<title>Node2&#45;&gt;Node7</title>
<g id="a_edge7_Node000002_Node000007"><a xlink:title=" ">
<path fill="none" stroke="#63b8ff" d="M463.64,-213.94C472.86,-214.28 482.26,-214.64 491.67,-214.99"/>
<polygon fill="#63b8ff" stroke="#63b8ff" points="491.75,-218.49 501.87,-215.37 492.01,-211.5 491.75,-218.49"/>
</a>
</g>
</g>
<!-- Node9 -->
<g id="Node000009" class="node">
<title>Node9</title>
<g id="a_Node000009"><a xlink:href="../../da/d39/classaopp__deconv__tool_1_1graphical__frontends_1_1ssa__filtering_1_1WidgetBase.html#a60cb9c76c496750c40e4982422b4b6f7" target="_top" xlink:title=" ">
<polygon fill="white" stroke="#666666" points="710.5,-294.5 542.5,-294.5 542.5,-253.5 710.5,-253.5 710.5,-294.5"/>
<text text-anchor="start" x="550.5" y="-282.5" font-family="Helvetica,sans-Serif" font-size="10.00">aopp_deconv_tool.graphical</text>
<text text-anchor="start" x="550.5" y="-271.5" font-family="Helvetica,sans-Serif" font-size="10.00">_frontends.ssa_filtering.Widget</text>
<text text-anchor="middle" x="626.5" y="-260.5" font-family="Helvetica,sans-Serif" font-size="10.00">Base.set_value</text>
</a>
</g>
</g>
<!-- Node2&#45;&gt;Node9 -->
<g id="edge10_Node000002_Node000009" class="edge">
<title>Node2&#45;&gt;Node9</title>
<g id="a_edge10_Node000002_Node000009"><a xlink:title=" ">
<path fill="none" stroke="#63b8ff" d="M421.1,-225.01C454.28,-232.96 495.69,-242.88 532.55,-251.72"/>
<polygon fill="#63b8ff" stroke="#63b8ff" points="531.77,-255.13 542.31,-254.06 533.4,-248.32 531.77,-255.13"/>
</a>
</g>
</g>
<!-- Node10 -->
<g id="Node000010" class="node">
<title>Node10</title>
<g id="a_Node000010"><a xlink:href="../../d2/d2f/classaopp__deconv__tool_1_1graphical__frontends_1_1ssa__filtering_1_1CheckButtons.html#a7ec932ab45bcc9e3ca7ff7d33a38dc46" target="_top" xlink:title=" ">
<polygon fill="white" stroke="#666666" points="752,-149 501,-149 501,-119 752,-119 752,-149"/>
<text text-anchor="start" x="509" y="-137" font-family="Helvetica,sans-Serif" font-size="10.00">aopp_deconv_tool.graphical</text>
<text text-anchor="middle" x="626.5" y="-126" font-family="Helvetica,sans-Serif" font-size="10.00">_frontends.ssa_filtering.CheckButtons.set_value</text>
</a>
</g>
</g>
<!-- Node2&#45;&gt;Node10 -->
<g id="edge11_Node000002_Node000010" class="edge">
<title>Node2&#45;&gt;Node10</title>
<g id="a_edge11_Node000002_Node000010"><a xlink:title=" ">
<path fill="none" stroke="#63b8ff" d="M411.25,-194.98C454.72,-182.61 516.48,-165.03 562.53,-151.92"/>
<polygon fill="#63b8ff" stroke="#63b8ff" points="563.74,-155.22 572.4,-149.11 561.83,-148.49 563.74,-155.22"/>
</a>
</g>
</g>
<!-- Node8 -->
<g id="Node000008" class="node">
<title>Node8</title>
<g id="a_Node000008"><a xlink:href="../../da/d39/classaopp__deconv__tool_1_1graphical__frontends_1_1ssa__filtering_1_1WidgetBase.html#a57c669a0b1d75a6756ec5e30a6a39832" target="_top" xlink:title=" ">
<polygon fill="white" stroke="#666666" points="998,-208.5 830,-208.5 830,-167.5 998,-167.5 998,-208.5"/>
<text text-anchor="start" x="838" y="-196.5" font-family="Helvetica,sans-Serif" font-size="10.00">aopp_deconv_tool.graphical</text>
<text text-anchor="start" x="838" y="-185.5" font-family="Helvetica,sans-Serif" font-size="10.00">_frontends.ssa_filtering.Widget</text>
<text text-anchor="middle" x="914" y="-174.5" font-family="Helvetica,sans-Serif" font-size="10.00">Base.set_active</text>
</a>
</g>
</g>
<!-- Node7&#45;&gt;Node8 -->
<g id="edge8_Node000007_Node000008" class="edge">
<title>Node7&#45;&gt;Node8</title>
<g id="a_edge8_Node000007_Node000008"><a xlink:title=" ">
<path fill="none" stroke="#63b8ff" d="M751.06,-206.15C773.96,-203.58 797.53,-200.94 819.35,-198.5"/>
<polygon fill="#63b8ff" stroke="#63b8ff" points="820.03,-201.94 829.58,-197.35 819.25,-194.99 820.03,-201.94"/>
</a>
</g>
</g>
<!-- Node8&#45;&gt;Node8 -->
<g id="edge9_Node000008_Node000008" class="edge">
<title>Node8&#45;&gt;Node8</title>
<g id="a_edge9_Node000008_Node000008"><a xlink:title=" ">
<path fill="none" stroke="#63b8ff" d="M861.44,-208.6C855.7,-218.15 873.22,-226.5 914,-226.5 939.49,-226.5 955.89,-223.24 963.2,-218.46"/>
<polygon fill="#63b8ff" stroke="#63b8ff" points="966.65,-219.19 966.56,-208.6 960.03,-216.93 966.65,-219.19"/>
</a>
</g>
</g>
<!-- Node10&#45;&gt;Node3 -->
<g id="edge12_Node000010_Node000003" class="edge">
<title>Node10&#45;&gt;Node3</title>
<g id="a_edge12_Node000010_Node000003"><a xlink:title=" ">
<path fill="none" stroke="#63b8ff" d="M728.36,-149.04C736.83,-152.76 744.87,-157.34 752,-163 780.34,-185.49 759.65,-213.53 788,-236 797.48,-243.51 808.56,-249.15 820.14,-253.35"/>
<polygon fill="#63b8ff" stroke="#63b8ff" points="819.36,-256.78 829.95,-256.57 821.54,-250.13 819.36,-256.78"/>
</a>
</g>
</g>
<!-- Node10&#45;&gt;Node4 -->
<g id="edge13_Node000010_Node000004" class="edge">
<title>Node10&#45;&gt;Node4</title>
<g id="a_edge13_Node000010_Node000004"><a xlink:title=" ">
<path fill="none" stroke="#63b8ff" d="M659.52,-118.93C691.74,-103.93 742.96,-80.55 788,-62 812.01,-52.11 838.94,-41.88 861.63,-33.5"/>
<polygon fill="#63b8ff" stroke="#63b8ff" points="862.9,-36.76 871.08,-30.02 860.49,-30.19 862.9,-36.76"/>
</a>
</g>
</g>
<!-- Node10&#45;&gt;Node5 -->
<g id="edge14_Node000010_Node000005" class="edge">
<title>Node10&#45;&gt;Node5</title>
<g id="a_edge14_Node000010_Node000005"><a xlink:title=" ">
<path fill="none" stroke="#63b8ff" d="M717.05,-118.94C747.74,-113.78 782.27,-107.98 813.68,-102.7"/>
<polygon fill="#63b8ff" stroke="#63b8ff" points="814.49,-106.11 823.77,-101 813.33,-99.21 814.49,-106.11"/>
</a>
</g>
</g>
<!-- Node10&#45;&gt;Node6 -->
<g id="edge15_Node000010_Node000006" class="edge">
<title>Node10&#45;&gt;Node6</title>
<g id="a_edge15_Node000010_Node000006"><a xlink:title=" ">
<path fill="none" stroke="#63b8ff" d="M752.31,-134C761.04,-134 769.87,-134 778.66,-134"/>
<polygon fill="#63b8ff" stroke="#63b8ff" points="778.94,-137.5 788.94,-134 778.94,-130.5 778.94,-137.5"/>
</a>
</g>
</g>
<!-- Node10&#45;&gt;Node8 -->
<g id="edge16_Node000010_Node000008" class="edge">
<title>Node10&#45;&gt;Node8</title>
<g id="a_edge16_Node000010_Node000008"><a xlink:title=" ">
<path fill="none" stroke="#63b8ff" d="M707.03,-149.04C742.02,-155.66 783.36,-163.48 819.78,-170.37"/>
<polygon fill="#63b8ff" stroke="#63b8ff" points="819.44,-173.87 829.92,-172.29 820.74,-166.99 819.44,-173.87"/>
</a>
</g>
</g>
<!-- Node11&#45;&gt;Node3 -->
<g id="edge18_Node000011_Node000003" class="edge">
<title>Node11&#45;&gt;Node3</title>
<g id="a_edge18_Node000011_Node000003"><a xlink:title=" ">
<path fill="none" stroke="#63b8ff" d="M465.21,-160.73C572.95,-169.16 726.96,-183.17 752,-196 773.29,-206.9 767.4,-223.85 788,-236 797.87,-241.82 808.82,-246.48 820.01,-250.19"/>
<polygon fill="#63b8ff" stroke="#63b8ff" points="819.31,-253.64 829.9,-253.23 821.36,-246.95 819.31,-253.64"/>
</a>
</g>
</g>
<!-- Node11&#45;&gt;Node4 -->
<g id="edge19_Node000011_Node000004" class="edge">
<title>Node11&#45;&gt;Node4</title>
<g id="a_edge19_Node000011_Node000004"><a xlink:title=" ">
<path fill="none" stroke="#63b8ff" d="M380.07,-137.97C407.05,-119.96 455.26,-90.3 501,-75 590.41,-45.1 695.65,-30.09 777.39,-22.57"/>
<polygon fill="#63b8ff" stroke="#63b8ff" points="778.09,-26.02 787.74,-21.64 777.47,-19.04 778.09,-26.02"/>
</a>
</g>
</g>
<!-- Node11&#45;&gt;Node5 -->
<g id="edge20_Node000011_Node000005" class="edge">
<title>Node11&#45;&gt;Node5</title>
<g id="a_edge20_Node000011_Node000005"><a xlink:title=" ">
<path fill="none" stroke="#63b8ff" d="M389.31,-137.91C417.59,-124.89 461.04,-106.97 501,-99 597.34,-79.78 708.83,-77.44 791.51,-79.4"/>
<polygon fill="#63b8ff" stroke="#63b8ff" points="791.62,-82.9 801.71,-79.66 791.8,-75.9 791.62,-82.9"/>
</a>
</g>
</g>
<!-- Node11&#45;&gt;Node6 -->
<g id="edge21_Node000011_Node000006" class="edge">
<title>Node11&#45;&gt;Node6</title>
<g id="a_edge21_Node000011_Node000006"><a xlink:title=" ">
<path fill="none" stroke="#63b8ff" d="M397.11,-137.98C425.39,-127.82 464.95,-115.32 501,-110 608.96,-94.07 734.29,-105.59 818.11,-117.54"/>
<polygon fill="#63b8ff" stroke="#63b8ff" points="817.72,-121.02 828.12,-118.99 818.73,-114.09 817.72,-121.02"/>
</a>
</g>
</g>
<!-- Node11&#45;&gt;Node7 -->
<g id="edge22_Node000011_Node000007" class="edge">
<title>Node11&#45;&gt;Node7</title>
<g id="a_edge22_Node000011_Node000007"><a xlink:title=" ">
<path fill="none" stroke="#63b8ff" d="M413.21,-168.02C439.67,-175.18 471.94,-183.74 501,-191 516.6,-194.9 533.35,-198.91 549.34,-202.66"/>
<polygon fill="#63b8ff" stroke="#63b8ff" points="548.64,-206.1 559.18,-204.96 550.24,-199.28 548.64,-206.1"/>
</a>
</g>
</g>
<!-- Node11&#45;&gt;Node9 -->
<g id="edge23_Node000011_Node000009" class="edge">
<title>Node11&#45;&gt;Node9</title>
<g id="a_edge23_Node000011_Node000009"><a xlink:title=" ">
<path fill="none" stroke="#63b8ff" d="M431.82,-168.06C443.64,-172.58 455.2,-178.43 465,-186 489.01,-204.55 476.41,-226.23 501,-244 510.5,-250.87 521.37,-256.18 532.64,-260.28"/>
<polygon fill="#63b8ff" stroke="#63b8ff" points="531.59,-263.62 542.19,-263.46 533.8,-256.98 531.59,-263.62"/>
</a>
</g>
</g>
<!-- Node11&#45;&gt;Node10 -->
<g id="edge24_Node000011_Node000010" class="edge">
<title>Node11&#45;&gt;Node10</title>
<g id="a_edge24_Node000011_Node000010"><a xlink:title=" ">
<path fill="none" stroke="#63b8ff" d="M465.18,-145.41C473.63,-144.81 482.24,-144.19 490.85,-143.58"/>
<polygon fill="#63b8ff" stroke="#63b8ff" points="491.23,-147.06 500.96,-142.86 490.73,-140.08 491.23,-147.06"/>
</a>
</g>
</g>
</g>
</svg>

<g id="navigator" transform="translate(0 0)" fill="#404254">
  <rect fill="#f2f5e9" fill-opacity="0.5" stroke="#606060" stroke-width=".5" x="0" y="0" width="60" height="60"/>
  <use id="zoomplus" xlink:href="#zoomPlus" x="17" y="9" onmousedown="handleZoom(evt,'in')"/>
  <use id="zoomminus" xlink:href="#zoomMin" x="42" y="9" onmousedown="handleZoom(evt,'out')"/>
  <use id="reset" xlink:href="#resetDef" x="30" y="36" onmousedown="handleReset()"/>
   <use id="arrowup" xlink:href="#arrowUp" x="0" y="0" onmousedown="handlePan(0,-1)"/>
  <use id="arrowright" xlink:href="#arrowRight" x="0" y="0" onmousedown="handlePan(1,0)"/>
  <use id="arrowdown" xlink:href="#arrowDown" x="0" y="0" onmousedown="handlePan(0,1)"/>
  <use id="arrowleft" xlink:href="#arrowLeft" x="0" y="0" onmousedown="handlePan(-1,0)"/>
</g>
<svg viewBox="0 0 15 15" width="100%" height="30px" preserveAspectRatio="xMaxYMin meet">
 <g id="arrow_out" transform="scale(0.3 0.3)">
  <a xlink:href="classaopp__deconv__tool_1_1graphical__frontends_1_1ssa__filtering_1_1Slider_ac3e9379fd1ef597ccb25e7a848f9dbd6_cgraph_org.svg" target="_base">
   <rect id="button" ry="5" rx="5" y="6" x="6" height="38" width="38"
        fill="#f2f5e9" fill-opacity="0.5" stroke="#606060" stroke-width="1.0"/>
   <path id="arrow"
     d="M 11.500037,31.436501 C 11.940474,20.09759 22.043105,11.32322 32.158766,21.979434 L 37.068811,17.246167 C 37.068811,17.246167 37.088388,32 37.088388,32 L 22.160133,31.978069 C 22.160133,31.978069 26.997745,27.140456 26.997745,27.140456 C 18.528582,18.264221 13.291696,25.230495 11.500037,31.436501 z"
     style="fill:#404040;"/>
  </a>
 </g>
</svg>

<style type='text/css'>
<![CDATA[
[data-mouse-over-selected='false'] { opacity: 0.7; }
[data-mouse-over-selected='true']  { opacity: 1.0; }
]]>
</style>
<script type="application/ecmascript"><![CDATA[
document.addEventListener('DOMContentLoaded', (event) => {
  highlightEdges();
  highlightAdjacentNodes();
});
]]></script>
</svg>
