<?xml version="1.0" encoding="UTF-8" standalone="no"?>
<!DOCTYPE svg PUBLIC "-//W3C//DTD SVG 1.1//EN"
 "http://www.w3.org/Graphics/SVG/1.1/DTD/svg11.dtd">
<!-- Generated by graphviz version 2.43.0 (0)
 -->
<!-- Title: aopp_deconv_tool.graphical_frontends.ssa_filtering.Slider.set_active Pages: 1 -->
<svg width="1052pt" height="376pt"
 viewBox="0.00 0.00 1052.00 375.51" xmlns="http://www.w3.org/2000/svg" xmlns:xlink="http://www.w3.org/1999/xlink">
<g id="graph0" class="graph" transform="scale(1 1) rotate(0) translate(4 371.51)">
<title>aopp_deconv_tool.graphical_frontends.ssa_filtering.Slider.set_active</title>
<!-- Node1 -->
<g id="node1" class="node">
<title>Node1</title>
<g id="a_node1"><a xlink:title=" ">
<polygon fill="#bfbfbf" stroke="black" points="0,-163.5 0,-193.5 215,-193.5 215,-163.5 0,-163.5"/>
<text text-anchor="start" x="8" y="-181.5" font-family="Helvetica,sans-Serif" font-size="10.00">aopp_deconv_tool.graphical</text>
<text text-anchor="middle" x="107.5" y="-170.5" font-family="Helvetica,sans-Serif" font-size="10.00">_frontends.ssa_filtering.Slider.set_active</text>
</a>
</g>
</g>
<!-- Node2 -->
<g id="node2" class="node">
<title>Node2</title>
<g id="a_node2"><a xlink:href="../../d5/d53/classaopp__deconv__tool_1_1graphical__frontends_1_1ssa__filtering_1_1Slider.html#a5478390a8acd2e82c176345e7f6a9ef3" target="_top" xlink:title=" ">
<polygon fill="none" stroke="black" points="252.5,-198.5 252.5,-228.5 465.5,-228.5 465.5,-198.5 252.5,-198.5"/>
<text text-anchor="start" x="260.5" y="-216.5" font-family="Helvetica,sans-Serif" font-size="10.00">aopp_deconv_tool.graphical</text>
<text text-anchor="middle" x="359" y="-205.5" font-family="Helvetica,sans-Serif" font-size="10.00">_frontends.ssa_filtering.Slider.set_limits</text>
</a>
</g>
</g>
<!-- Node1&#45;&gt;Node2 -->
<g id="edge1" class="edge">
<title>Node1&#45;&gt;Node2</title>
<path fill="none" stroke="midnightblue" d="M215.03,-193.44C223.98,-194.7 233.06,-195.97 242.08,-197.24"/>
<polygon fill="midnightblue" stroke="midnightblue" points="241.83,-200.74 252.22,-198.66 242.8,-193.81 241.83,-200.74"/>
</g>
<!-- Node11 -->
<g id="node11" class="node">
<title>Node11</title>
<g id="a_node11"><a xlink:href="../../dc/d2e/classaopp__deconv__tool_1_1graphical__frontends_1_1ssa__filtering_1_1Range.html#a756766852c014c8d0e404adc35cb042e" target="_top" xlink:title=" ">
<polygon fill="none" stroke="black" points="251,-139.5 251,-169.5 467,-169.5 467,-139.5 251,-139.5"/>
<text text-anchor="start" x="259" y="-157.5" font-family="Helvetica,sans-Serif" font-size="10.00">aopp_deconv_tool.graphical</text>
<text text-anchor="middle" x="359" y="-146.5" font-family="Helvetica,sans-Serif" font-size="10.00">_frontends.ssa_filtering.Range.set_limits</text>
</a>
</g>
</g>
<!-- Node1&#45;&gt;Node11 -->
<g id="edge15" class="edge">
<title>Node1&#45;&gt;Node11</title>
<path fill="none" stroke="midnightblue" d="M215.03,-168.25C223.51,-167.44 232.09,-166.61 240.63,-165.79"/>
<polygon fill="midnightblue" stroke="midnightblue" points="241.01,-169.27 250.63,-164.83 240.34,-162.3 241.01,-169.27"/>
</g>
<!-- Node3 -->
<g id="node3" class="node">
<title>Node3</title>
<g id="a_node3"><a xlink:href="../../da/d39/classaopp__deconv__tool_1_1graphical__frontends_1_1ssa__filtering_1_1WidgetBase.html#a44b8666598d632f144849eb1153d8909" target="_top" xlink:title=" ">
<polygon fill="none" stroke="black" points="833,-230 833,-271 1002,-271 1002,-230 833,-230"/>
<text text-anchor="start" x="841" y="-259" font-family="Helvetica,sans-Serif" font-size="10.00">aopp_deconv_tool.graphical</text>
<text text-anchor="start" x="841" y="-248" font-family="Helvetica,sans-Serif" font-size="10.00">_frontends.ssa_filtering.Widget</text>
<text text-anchor="middle" x="917.5" y="-237" font-family="Helvetica,sans-Serif" font-size="10.00">Base.get_value</text>
</a>
</g>
</g>
<!-- Node2&#45;&gt;Node3 -->
<g id="edge2" class="edge">
<title>Node2&#45;&gt;Node3</title>
<path fill="none" stroke="midnightblue" d="M370.8,-228.77C392.16,-257.45 442.93,-318.54 503,-341.5 607.62,-381.48 646.67,-369.92 755,-341.5 802.38,-329.07 850.5,-299.26 881.74,-277.12"/>
<polygon fill="midnightblue" stroke="midnightblue" points="884.02,-279.79 890.09,-271.1 879.93,-274.11 884.02,-279.79"/>
</g>
<!-- Node4 -->
<g id="node4" class="node">
<title>Node4</title>
<g id="a_node4"><a xlink:href="../../d2/d2f/classaopp__deconv__tool_1_1graphical__frontends_1_1ssa__filtering_1_1CheckButtons.html#a36d51bbdd702b55277de1434bdbe9e2e" target="_top" xlink:title=" ">
<polygon fill="none" stroke="black" points="791,-0.5 791,-30.5 1044,-30.5 1044,-0.5 791,-0.5"/>
<text text-anchor="start" x="799" y="-18.5" font-family="Helvetica,sans-Serif" font-size="10.00">aopp_deconv_tool.graphical</text>
<text text-anchor="middle" x="917.5" y="-7.5" font-family="Helvetica,sans-Serif" font-size="10.00">_frontends.ssa_filtering.CheckButtons.get_value</text>
</a>
</g>
</g>
<!-- Node2&#45;&gt;Node4 -->
<g id="edge3" class="edge">
<title>Node2&#45;&gt;Node4</title>
<path fill="none" stroke="midnightblue" d="M438.85,-198.47C449.3,-193.77 459.11,-187.59 467,-179.5 507.07,-138.42 458.83,-92.13 503,-55.5 544.2,-21.33 676.64,-13.34 780.66,-12.65"/>
<polygon fill="midnightblue" stroke="midnightblue" points="780.97,-16.15 790.95,-12.61 780.94,-9.15 780.97,-16.15"/>
</g>
<!-- Node5 -->
<g id="node5" class="node">
<title>Node5</title>
<g id="a_node5"><a xlink:href="../../da/d4a/classaopp__deconv__tool_1_1graphical__frontends_1_1ssa__filtering_1_1TextBox.html#aa35e9c92729265525e70acc4c973b974" target="_top" xlink:title=" ">
<polygon fill="none" stroke="black" points="805.5,-71.5 805.5,-101.5 1029.5,-101.5 1029.5,-71.5 805.5,-71.5"/>
<text text-anchor="start" x="813.5" y="-89.5" font-family="Helvetica,sans-Serif" font-size="10.00">aopp_deconv_tool.graphical</text>
<text text-anchor="middle" x="917.5" y="-78.5" font-family="Helvetica,sans-Serif" font-size="10.00">_frontends.ssa_filtering.TextBox.get_value</text>
</a>
</g>
</g>
<!-- Node2&#45;&gt;Node5 -->
<g id="edge4" class="edge">
<title>Node2&#45;&gt;Node5</title>
<path fill="none" stroke="midnightblue" d="M433.89,-198.46C445.81,-193.76 457.37,-187.59 467,-179.5 493.48,-157.25 473.95,-129.28 503,-110.5 604.32,-44.99 750.45,-55.04 839.13,-69.75"/>
<polygon fill="midnightblue" stroke="midnightblue" points="838.67,-73.22 849.12,-71.47 839.86,-66.32 838.67,-73.22"/>
</g>
<!-- Node6 -->
<g id="node6" class="node">
<title>Node6</title>
<g id="a_node6"><a xlink:href="../../d9/d2e/classaopp__deconv__tool_1_1graphical__frontends_1_1ssa__filtering_1_1RadioButtons.html#a7451826d80866b900047ca46013adeb7" target="_top" xlink:title=" ">
<polygon fill="none" stroke="black" points="792,-120.5 792,-150.5 1043,-150.5 1043,-120.5 792,-120.5"/>
<text text-anchor="start" x="800" y="-138.5" font-family="Helvetica,sans-Serif" font-size="10.00">aopp_deconv_tool.graphical</text>
<text text-anchor="middle" x="917.5" y="-127.5" font-family="Helvetica,sans-Serif" font-size="10.00">_frontends.ssa_filtering.RadioButtons.get_value</text>
</a>
</g>
</g>
<!-- Node2&#45;&gt;Node6 -->
<g id="edge5" class="edge">
<title>Node2&#45;&gt;Node6</title>
<path fill="none" stroke="midnightblue" d="M375.92,-228.79C400.7,-251.42 451.07,-292.82 503,-308.5 556.61,-324.68 710.97,-343.1 755,-308.5 808.23,-266.67 742.14,-207.35 791,-160.5 792.47,-159.09 794,-157.74 795.58,-156.47"/>
<polygon fill="midnightblue" stroke="midnightblue" points="797.72,-159.24 803.87,-150.62 793.68,-153.53 797.72,-159.24"/>
</g>
<!-- Node7 -->
<g id="node7" class="node">
<title>Node7</title>
<g id="a_node7"><a xlink:href="../../d9/d2e/classaopp__deconv__tool_1_1graphical__frontends_1_1ssa__filtering_1_1RadioButtons.html#a2013828f374523f17948da0b9a3c6b27" target="_top" xlink:title=" ">
<polygon fill="none" stroke="black" points="504,-208.5 504,-238.5 754,-238.5 754,-208.5 504,-208.5"/>
<text text-anchor="start" x="512" y="-226.5" font-family="Helvetica,sans-Serif" font-size="10.00">aopp_deconv_tool.graphical</text>
<text text-anchor="middle" x="629" y="-215.5" font-family="Helvetica,sans-Serif" font-size="10.00">_frontends.ssa_filtering.RadioButtons.set_value</text>
</a>
</g>
</g>
<!-- Node2&#45;&gt;Node7 -->
<g id="edge6" class="edge">
<title>Node2&#45;&gt;Node7</title>
<path fill="none" stroke="midnightblue" d="M465.54,-217.44C474.79,-217.78 484.23,-218.14 493.67,-218.49"/>
<polygon fill="midnightblue" stroke="midnightblue" points="493.79,-221.99 503.91,-218.87 494.05,-215 493.79,-221.99"/>
</g>
<!-- Node9 -->
<g id="node9" class="node">
<title>Node9</title>
<g id="a_node9"><a xlink:href="../../da/d39/classaopp__deconv__tool_1_1graphical__frontends_1_1ssa__filtering_1_1WidgetBase.html#a862ab274604e45821e82c7d44517c1ec" target="_top" xlink:title=" ">
<polygon fill="none" stroke="black" points="544.5,-258 544.5,-299 713.5,-299 713.5,-258 544.5,-258"/>
<text text-anchor="start" x="552.5" y="-287" font-family="Helvetica,sans-Serif" font-size="10.00">aopp_deconv_tool.graphical</text>
<text text-anchor="start" x="552.5" y="-276" font-family="Helvetica,sans-Serif" font-size="10.00">_frontends.ssa_filtering.Widget</text>
<text text-anchor="middle" x="629" y="-265" font-family="Helvetica,sans-Serif" font-size="10.00">Base.set_value</text>
</a>
</g>
</g>
<!-- Node2&#45;&gt;Node9 -->
<g id="edge8" class="edge">
<title>Node2&#45;&gt;Node9</title>
<path fill="none" stroke="midnightblue" d="M421.22,-228.55C446.53,-234.75 476.17,-242 503,-248.5 513.21,-250.98 523.9,-253.55 534.53,-256.12"/>
<polygon fill="midnightblue" stroke="midnightblue" points="533.73,-259.52 544.28,-258.46 535.37,-252.72 533.73,-259.52"/>
</g>
<!-- Node10 -->
<g id="node10" class="node">
<title>Node10</title>
<g id="a_node10"><a xlink:href="../../d2/d2f/classaopp__deconv__tool_1_1graphical__frontends_1_1ssa__filtering_1_1CheckButtons.html#a83863b3a66516dfbfb8b24ae4c16e49e" target="_top" xlink:title=" ">
<polygon fill="none" stroke="black" points="503,-120.5 503,-150.5 755,-150.5 755,-120.5 503,-120.5"/>
<text text-anchor="start" x="511" y="-138.5" font-family="Helvetica,sans-Serif" font-size="10.00">aopp_deconv_tool.graphical</text>
<text text-anchor="middle" x="629" y="-127.5" font-family="Helvetica,sans-Serif" font-size="10.00">_frontends.ssa_filtering.CheckButtons.set_value</text>
</a>
</g>
</g>
<!-- Node2&#45;&gt;Node10 -->
<g id="edge9" class="edge">
<title>Node2&#45;&gt;Node10</title>
<path fill="none" stroke="midnightblue" d="M411.67,-198.46C455.84,-185.61 519.48,-167.08 566.31,-153.46"/>
<polygon fill="midnightblue" stroke="midnightblue" points="567.41,-156.78 576.03,-150.63 565.45,-150.06 567.41,-156.78"/>
</g>
<!-- Node8 -->
<g id="node8" class="node">
<title>Node8</title>
<g id="a_node8"><a xlink:href="../../da/d39/classaopp__deconv__tool_1_1graphical__frontends_1_1ssa__filtering_1_1WidgetBase.html#a8b5f0c98d3fd7534284c4151b2a942bc" target="_top" xlink:title=" ">
<polygon fill="none" stroke="black" points="833,-170 833,-211 1002,-211 1002,-170 833,-170"/>
<text text-anchor="start" x="841" y="-199" font-family="Helvetica,sans-Serif" font-size="10.00">aopp_deconv_tool.graphical</text>
<text text-anchor="start" x="841" y="-188" font-family="Helvetica,sans-Serif" font-size="10.00">_frontends.ssa_filtering.Widget</text>
<text text-anchor="middle" x="917.5" y="-177" font-family="Helvetica,sans-Serif" font-size="10.00">Base.set_active</text>
</a>
</g>
</g>
<!-- Node7&#45;&gt;Node8 -->
<g id="edge7" class="edge">
<title>Node7&#45;&gt;Node8</title>
<path fill="none" stroke="midnightblue" d="M754.41,-209.17C777.23,-206.54 800.69,-203.84 822.43,-201.34"/>
<polygon fill="midnightblue" stroke="midnightblue" points="823.09,-204.78 832.62,-200.16 822.29,-197.83 823.09,-204.78"/>
</g>
<!-- Node10&#45;&gt;Node3 -->
<g id="edge10" class="edge">
<title>Node10&#45;&gt;Node3</title>
<path fill="none" stroke="midnightblue" d="M726.12,-150.52C736.37,-154.42 746.24,-159.33 755,-165.5 778.89,-182.32 767.1,-203.69 791,-220.5 800.66,-227.3 811.67,-232.57 823.06,-236.65"/>
<polygon fill="midnightblue" stroke="midnightblue" points="822.1,-240.02 832.69,-239.81 824.28,-233.37 822.1,-240.02"/>
</g>
<!-- Node10&#45;&gt;Node4 -->
<g id="edge11" class="edge">
<title>Node10&#45;&gt;Node4</title>
<path fill="none" stroke="midnightblue" d="M660.84,-120.44C693.02,-104.93 745.07,-80.44 791,-61.5 814.45,-51.83 840.76,-42.03 863.21,-33.97"/>
<polygon fill="midnightblue" stroke="midnightblue" points="864.66,-37.17 872.9,-30.52 862.31,-30.58 864.66,-37.17"/>
</g>
<!-- Node10&#45;&gt;Node5 -->
<g id="edge12" class="edge">
<title>Node10&#45;&gt;Node5</title>
<path fill="none" stroke="midnightblue" d="M717.91,-120.47C749.81,-115.01 786.03,-108.81 818.73,-103.22"/>
<polygon fill="midnightblue" stroke="midnightblue" points="819.49,-106.64 828.76,-101.51 818.31,-99.74 819.49,-106.64"/>
</g>
<!-- Node10&#45;&gt;Node6 -->
<g id="edge13" class="edge">
<title>Node10&#45;&gt;Node6</title>
<path fill="none" stroke="midnightblue" d="M755.25,-135.5C763.9,-135.5 772.65,-135.5 781.36,-135.5"/>
<polygon fill="midnightblue" stroke="midnightblue" points="781.55,-139 791.55,-135.5 781.55,-132 781.55,-139"/>
</g>
<!-- Node10&#45;&gt;Node8 -->
<g id="edge14" class="edge">
<title>Node10&#45;&gt;Node8</title>
<path fill="none" stroke="midnightblue" d="M708.29,-150.53C743.57,-157.3 785.53,-165.36 822.5,-172.46"/>
<polygon fill="midnightblue" stroke="midnightblue" points="822.31,-175.98 832.79,-174.43 823.63,-169.11 822.31,-175.98"/>
</g>
<!-- Node11&#45;&gt;Node3 -->
<g id="edge16" class="edge">
<title>Node11&#45;&gt;Node3</title>
<path fill="none" stroke="midnightblue" d="M467.06,-161.71C565.36,-169.24 703.34,-182.34 755,-199.5 772.58,-205.34 773.81,-213.61 791,-220.5 801.21,-224.59 812.12,-228.22 823.09,-231.41"/>
<polygon fill="midnightblue" stroke="midnightblue" points="822.16,-234.78 832.73,-234.1 824.04,-228.04 822.16,-234.78"/>
</g>
<!-- Node11&#45;&gt;Node4 -->
<g id="edge17" class="edge">
<title>Node11&#45;&gt;Node4</title>
<path fill="none" stroke="midnightblue" d="M381.62,-139.27C408.67,-121.01 457.03,-90.96 503,-75.5 592.76,-45.31 698.52,-30.31 780.6,-22.86"/>
<polygon fill="midnightblue" stroke="midnightblue" points="781.09,-26.33 790.75,-21.96 780.48,-19.35 781.09,-26.33"/>
</g>
<!-- Node11&#45;&gt;Node5 -->
<g id="edge18" class="edge">
<title>Node11&#45;&gt;Node5</title>
<path fill="none" stroke="midnightblue" d="M390.34,-139.38C418.69,-126.1 462.59,-107.66 503,-99.5 599.81,-79.95 711.93,-77.65 794.98,-79.71"/>
<polygon fill="midnightblue" stroke="midnightblue" points="795.12,-83.22 805.21,-79.99 795.31,-76.22 795.12,-83.22"/>
</g>
<!-- Node11&#45;&gt;Node6 -->
<g id="edge19" class="edge">
<title>Node11&#45;&gt;Node6</title>
<path fill="none" stroke="midnightblue" d="M397.82,-139.47C426.24,-129.01 466.4,-116 503,-110.5 612.69,-94.01 740.29,-106.46 824.42,-118.97"/>
<polygon fill="midnightblue" stroke="midnightblue" points="824.04,-122.45 834.46,-120.49 825.09,-115.53 824.04,-122.45"/>
</g>
<!-- Node11&#45;&gt;Node7 -->
<g id="edge20" class="edge">
<title>Node11&#45;&gt;Node7</title>
<path fill="none" stroke="midnightblue" d="M413.54,-169.52C440.35,-176.94 473.34,-185.9 503,-193.5 519.45,-197.71 537.15,-202.07 553.92,-206.12"/>
<polygon fill="midnightblue" stroke="midnightblue" points="553.13,-209.53 563.67,-208.46 554.77,-202.72 553.13,-209.53"/>
</g>
<!-- Node11&#45;&gt;Node9 -->
<g id="edge21" class="edge">
<title>Node11&#45;&gt;Node9</title>
<path fill="none" stroke="midnightblue" d="M430.11,-169.53C443.23,-174.45 456.2,-180.95 467,-189.5 491.09,-208.56 478.17,-230.42 503,-248.5 512.52,-255.43 523.41,-260.77 534.72,-264.89"/>
<polygon fill="midnightblue" stroke="midnightblue" points="533.7,-268.24 544.3,-268.08 535.91,-261.6 533.7,-268.24"/>
</g>
<!-- Node11&#45;&gt;Node10 -->
<g id="edge22" class="edge">
<title>Node11&#45;&gt;Node10</title>
<path fill="none" stroke="midnightblue" d="M467.08,-146.91C475.56,-146.31 484.2,-145.69 492.85,-145.08"/>
<polygon fill="midnightblue" stroke="midnightblue" points="493.26,-148.56 502.99,-144.36 492.77,-141.58 493.26,-148.56"/>
</g>
</g>
</svg>
