<?xml version="1.0" encoding="UTF-8" standalone="no"?>
<!DOCTYPE svg PUBLIC "-//W3C//DTD SVG 1.1//EN"
 "http://www.w3.org/Graphics/SVG/1.1/DTD/svg11.dtd">
<!-- Generated by graphviz version 2.43.0 (0)
 -->
<!-- Title: aopp_deconv_tool.plot_helper.base.Base Pages: 1 -->
<svg width="338pt" height="247pt"
 viewBox="0.00 0.00 338.00 247.00" xmlns="http://www.w3.org/2000/svg" xmlns:xlink="http://www.w3.org/1999/xlink">
<g id="graph0" class="graph" transform="scale(1 1) rotate(0) translate(4 243)">
<title>aopp_deconv_tool.plot_helper.base.Base</title>
<!-- Node1 -->
<g id="node1" class="node">
<title>Node1</title>
<g id="a_node1"><a xlink:title=" ">
<polygon fill="#bfbfbf" stroke="black" points="0,-110.5 0,-140.5 127,-140.5 127,-110.5 0,-110.5"/>
<text text-anchor="start" x="8" y="-128.5" font-family="Helvetica,sans-Serif" font-size="10.00">aopp_deconv_tool.plot</text>
<text text-anchor="middle" x="63.5" y="-117.5" font-family="Helvetica,sans-Serif" font-size="10.00">_helper.base.Base</text>
</a>
</g>
</g>
<!-- Node2 -->
<g id="node2" class="node">
<title>Node2</title>
<g id="a_node2"><a xlink:href="../../d3/ddd/classaopp__deconv__tool_1_1plot__helper_1_1plotters_1_1Histogram.html" target="_top" xlink:title=" ">
<polygon fill="none" stroke="black" points="173,-208.5 173,-238.5 320,-238.5 320,-208.5 173,-208.5"/>
<text text-anchor="start" x="181" y="-226.5" font-family="Helvetica,sans-Serif" font-size="10.00">aopp_deconv_tool.plot</text>
<text text-anchor="middle" x="246.5" y="-215.5" font-family="Helvetica,sans-Serif" font-size="10.00">_helper.plotters.Histogram</text>
</a>
</g>
</g>
<!-- Node1&#45;&gt;Node2 -->
<g id="edge1" class="edge">
<title>Node1&#45;&gt;Node2</title>
<path fill="none" stroke="midnightblue" d="M88.25,-147.26C107.25,-163.65 135.21,-185.6 163,-199.5 169.67,-202.84 176.88,-205.78 184.17,-208.37"/>
<polygon fill="midnightblue" stroke="midnightblue" points="90.51,-144.59 80.69,-140.62 85.89,-149.85 90.51,-144.59"/>
</g>
<!-- Node3 -->
<g id="node3" class="node">
<title>Node3</title>
<g id="a_node3"><a xlink:href="../../d0/d38/classaopp__deconv__tool_1_1plot__helper_1_1plotters_1_1HorizontalLine.html" target="_top" xlink:title=" ">
<polygon fill="none" stroke="black" points="163,-159.5 163,-189.5 330,-189.5 330,-159.5 163,-159.5"/>
<text text-anchor="start" x="171" y="-177.5" font-family="Helvetica,sans-Serif" font-size="10.00">aopp_deconv_tool.plot</text>
<text text-anchor="middle" x="246.5" y="-166.5" font-family="Helvetica,sans-Serif" font-size="10.00">_helper.plotters.HorizontalLine</text>
</a>
</g>
</g>
<!-- Node1&#45;&gt;Node3 -->
<g id="edge2" class="edge">
<title>Node1&#45;&gt;Node3</title>
<path fill="none" stroke="midnightblue" d="M130.06,-143.25C149.68,-148.56 170.99,-154.33 189.9,-159.45"/>
<polygon fill="midnightblue" stroke="midnightblue" points="130.85,-139.84 120.28,-140.6 129.02,-146.59 130.85,-139.84"/>
</g>
<!-- Node4 -->
<g id="node4" class="node">
<title>Node4</title>
<g id="a_node4"><a xlink:href="../../da/d2d/classaopp__deconv__tool_1_1plot__helper_1_1plotters_1_1Image.html" target="_top" xlink:title=" ">
<polygon fill="none" stroke="black" points="183,-110.5 183,-140.5 310,-140.5 310,-110.5 183,-110.5"/>
<text text-anchor="start" x="191" y="-128.5" font-family="Helvetica,sans-Serif" font-size="10.00">aopp_deconv_tool.plot</text>
<text text-anchor="middle" x="246.5" y="-117.5" font-family="Helvetica,sans-Serif" font-size="10.00">_helper.plotters.Image</text>
</a>
</g>
</g>
<!-- Node1&#45;&gt;Node4 -->
<g id="edge3" class="edge">
<title>Node1&#45;&gt;Node4</title>
<path fill="none" stroke="midnightblue" d="M137.37,-125.5C152.47,-125.5 168.26,-125.5 182.95,-125.5"/>
<polygon fill="midnightblue" stroke="midnightblue" points="137.04,-122 127.04,-125.5 137.04,-129 137.04,-122"/>
</g>
<!-- Node5 -->
<g id="node5" class="node">
<title>Node5</title>
<g id="a_node5"><a xlink:href="../../d4/d23/classaopp__deconv__tool_1_1plot__helper_1_1plotters_1_1IterativeLineGraph.html" target="_top" xlink:title=" ">
<polygon fill="none" stroke="black" points="167.5,-50 167.5,-91 325.5,-91 325.5,-50 167.5,-50"/>
<text text-anchor="start" x="175.5" y="-79" font-family="Helvetica,sans-Serif" font-size="10.00">aopp_deconv_tool.plot</text>
<text text-anchor="start" x="175.5" y="-68" font-family="Helvetica,sans-Serif" font-size="10.00">_helper.plotters.IterativeLine</text>
<text text-anchor="middle" x="246.5" y="-57" font-family="Helvetica,sans-Serif" font-size="10.00">Graph</text>
</a>
</g>
</g>
<!-- Node1&#45;&gt;Node5 -->
<g id="edge4" class="edge">
<title>Node1&#45;&gt;Node5</title>
<path fill="none" stroke="midnightblue" d="M123.89,-107.45C141.12,-102.22 160.07,-96.46 177.78,-91.08"/>
<polygon fill="midnightblue" stroke="midnightblue" points="122.51,-104.21 113.96,-110.47 124.54,-110.91 122.51,-104.21"/>
</g>
<!-- Node6 -->
<g id="node6" class="node">
<title>Node6</title>
<g id="a_node6"><a xlink:href="../../d0/dba/classaopp__deconv__tool_1_1plot__helper_1_1plotters_1_1VerticalLine.html" target="_top" xlink:title=" ">
<polygon fill="none" stroke="black" points="169.5,-0.5 169.5,-30.5 323.5,-30.5 323.5,-0.5 169.5,-0.5"/>
<text text-anchor="start" x="177.5" y="-18.5" font-family="Helvetica,sans-Serif" font-size="10.00">aopp_deconv_tool.plot</text>
<text text-anchor="middle" x="246.5" y="-7.5" font-family="Helvetica,sans-Serif" font-size="10.00">_helper.plotters.VerticalLine</text>
</a>
</g>
</g>
<!-- Node1&#45;&gt;Node6 -->
<g id="edge5" class="edge">
<title>Node1&#45;&gt;Node6</title>
<path fill="none" stroke="midnightblue" d="M85.15,-103.03C103.82,-83.93 132.91,-57.06 163,-40.5 169.95,-36.68 177.56,-33.36 185.25,-30.51"/>
<polygon fill="midnightblue" stroke="midnightblue" points="82.45,-100.79 78.05,-110.43 87.5,-105.63 82.45,-100.79"/>
</g>
</g>
</svg>
