<?xml version="1.0" encoding="UTF-8" standalone="no"?>
<!DOCTYPE svg PUBLIC "-//W3C//DTD SVG 1.1//EN"
 "http://www.w3.org/Graphics/SVG/1.1/DTD/svg11.dtd">
<!-- Generated by graphviz version 2.43.0 (0)
 -->
<!-- Title: aopp_deconv_tool.task_strat.TaskStratSet Pages: 1 -->
<svg width="233pt" height="104pt"
 viewBox="0.00 0.00 232.50 104.00" xmlns="http://www.w3.org/2000/svg" xmlns:xlink="http://www.w3.org/1999/xlink">
<g id="graph0" class="graph" transform="scale(1 1) rotate(0) translate(4 100)">
<title>aopp_deconv_tool.task_strat.TaskStratSet</title>
<!-- Node1 -->
<g id="Node000001" class="node">
<title>Node1</title>
<g id="a_Node000001"><a xlink:title=" ">
<polygon fill="#999999" stroke="#666666" points="160,-30 31,-30 31,0 160,0 160,-30"/>
<text text-anchor="start" x="39" y="-18" font-family="Helvetica,sans-Serif" font-size="10.00">aopp_deconv_tool.task</text>
<text text-anchor="middle" x="95.5" y="-7" font-family="Helvetica,sans-Serif" font-size="10.00">_strat.TaskStratSet</text>
</a>
</g>
</g>
<!-- Node2 -->
<g id="Node000002" class="node">
<title>Node2</title>
<g id="a_Node000002"><a xlink:title=" ">
<polygon fill="white" stroke="#666666" points="29,-96 0,-96 0,-77 29,-77 29,-96"/>
<text text-anchor="middle" x="14.5" y="-84" font-family="Helvetica,sans-Serif" font-size="10.00">str</text>
</a>
</g>
</g>
<!-- Node2&#45;&gt;Node1 -->
<g id="edge1_Node000001_Node000002" class="edge">
<title>Node2&#45;&gt;Node1</title>
<g id="a_edge1_Node000001_Node000002"><a xlink:title=" ">
<path fill="none" stroke="#9a32cd" stroke-dasharray="5,2" d="M21.01,-67.18C24.04,-60.54 28.17,-53.37 33.5,-48 40.67,-40.78 49.81,-34.85 58.85,-30.15"/>
<polygon fill="#9a32cd" stroke="#9a32cd" points="17.62,-66.23 17.15,-76.82 24.12,-68.84 17.62,-66.23"/>
</a>
</g>
<text text-anchor="middle" x="62.5" y="-51" font-family="Helvetica,sans-Serif" font-size="10.00" fill="grey"> description</text>
</g>
<!-- Node3 -->
<g id="Node000003" class="node">
<title>Node3</title>
<g id="a_Node000003"><a xlink:title=" ">
<polygon fill="white" stroke="#666666" points="111.5,-96 79.5,-96 79.5,-77 111.5,-77 111.5,-96"/>
<text text-anchor="middle" x="95.5" y="-84" font-family="Helvetica,sans-Serif" font-size="10.00">list</text>
</a>
</g>
</g>
<!-- Node3&#45;&gt;Node1 -->
<g id="edge2_Node000001_Node000003" class="edge">
<title>Node3&#45;&gt;Node1</title>
<g id="a_edge2_Node000001_Node000003"><a xlink:title=" ">
<path fill="none" stroke="#9a32cd" stroke-dasharray="5,2" d="M95.5,-66.71C95.5,-55.19 95.5,-40.68 95.5,-30.14"/>
<polygon fill="#9a32cd" stroke="#9a32cd" points="92,-66.98 95.5,-76.98 99,-66.98 92,-66.98"/>
</a>
</g>
<text text-anchor="middle" x="114" y="-51" font-family="Helvetica,sans-Serif" font-size="10.00" fill="grey"> _items</text>
</g>
<!-- Node4 -->
<g id="Node000004" class="node">
<title>Node4</title>
<g id="a_Node000004"><a xlink:title=" ">
<polygon fill="white" stroke="#666666" points="173,-96 138,-96 138,-77 173,-77 173,-96"/>
<text text-anchor="middle" x="155.5" y="-84" font-family="Helvetica,sans-Serif" font-size="10.00">dict</text>
</a>
</g>
</g>
<!-- Node4&#45;&gt;Node1 -->
<g id="edge3_Node000001_Node000004" class="edge">
<title>Node4&#45;&gt;Node1</title>
<g id="a_edge3_Node000001_Node000004"><a xlink:title=" ">
<path fill="none" stroke="#9a32cd" stroke-dasharray="5,2" d="M146.88,-68.04C143.21,-61.43 138.6,-54.05 133.5,-48 128.05,-41.54 121.2,-35.34 114.83,-30.14"/>
<polygon fill="#9a32cd" stroke="#9a32cd" points="143.79,-69.68 151.53,-76.92 150,-66.44 143.79,-69.68"/>
</a>
</g>
<text text-anchor="middle" x="182.5" y="-51" font-family="Helvetica,sans-Serif" font-size="10.00" fill="grey"> _name_idx_map</text>
</g>
</g>
</svg>
