<?xml version="1.0" encoding="UTF-8" standalone="no"?>
<!DOCTYPE svg PUBLIC "-//W3C//DTD SVG 1.1//EN"
 "http://www.w3.org/Graphics/SVG/1.1/DTD/svg11.dtd">
<!-- Generated by graphviz version 2.43.0 (0)
 -->
<!-- Title: aopp_deconv_tool.optimise_compat.ultranest_compat.UltranestResultSet.plot_results Pages: 1 -->
<svg width="667pt" height="167pt"
 viewBox="0.00 0.00 667.00 167.00" xmlns="http://www.w3.org/2000/svg" xmlns:xlink="http://www.w3.org/1999/xlink">
<g id="graph0" class="graph" transform="scale(1 1) rotate(0) translate(4 163)">
<title>aopp_deconv_tool.optimise_compat.ultranest_compat.UltranestResultSet.plot_results</title>
<!-- Node1 -->
<g id="Node000001" class="node">
<title>Node1</title>
<g id="a_Node000001"><a xlink:title=" ">
<polygon fill="#999999" stroke="#666666" points="195,-70 0,-70 0,-29 195,-29 195,-70"/>
<text text-anchor="start" x="8" y="-58" font-family="Helvetica,sans-Serif" font-size="10.00">aopp_deconv_tool.optimise</text>
<text text-anchor="start" x="8" y="-47" font-family="Helvetica,sans-Serif" font-size="10.00">_compat.ultranest_compat.Ultranest</text>
<text text-anchor="middle" x="97.5" y="-36" font-family="Helvetica,sans-Serif" font-size="10.00">ResultSet.plot_results</text>
</a>
</g>
</g>
<!-- Node2 -->
<g id="Node000002" class="node">
<title>Node2</title>
<g id="a_Node000002"><a xlink:href="../../d2/d5e/classaopp__deconv__tool_1_1optimise__compat_1_1ultranest__compat_1_1UltranestResultSet.html#ad2c66880cee06fa86f3f94445518e746" target="_top" xlink:title=" ">
<polygon fill="white" stroke="#666666" points="426,-100 231,-100 231,-59 426,-59 426,-100"/>
<text text-anchor="start" x="239" y="-88" font-family="Helvetica,sans-Serif" font-size="10.00">aopp_deconv_tool.optimise</text>
<text text-anchor="start" x="239" y="-77" font-family="Helvetica,sans-Serif" font-size="10.00">_compat.ultranest_compat.Ultranest</text>
<text text-anchor="middle" x="328.5" y="-66" font-family="Helvetica,sans-Serif" font-size="10.00">ResultSet.get_params_vs_run_index</text>
</a>
</g>
</g>
<!-- Node1&#45;&gt;Node2 -->
<g id="edge1_Node000001_Node000002" class="edge">
<title>Node1&#45;&gt;Node2</title>
<g id="a_edge1_Node000001_Node000002"><a xlink:title=" ">
<path fill="none" stroke="#63b8ff" d="M195.28,-62.18C203.71,-63.28 212.26,-64.4 220.76,-65.52"/>
<polygon fill="#63b8ff" stroke="#63b8ff" points="220.32,-68.99 230.69,-66.82 221.23,-62.05 220.32,-68.99"/>
</a>
</g>
</g>
<!-- Node6 -->
<g id="Node000006" class="node">
<title>Node6</title>
<g id="a_Node000006"><a xlink:href="../../d2/d5e/classaopp__deconv__tool_1_1optimise__compat_1_1ultranest__compat_1_1UltranestResultSet.html#a2ae6f5c7fea7a6b0cfc28695fda84213" target="_top" xlink:title=" ">
<polygon fill="white" stroke="#666666" points="426,-41 231,-41 231,0 426,0 426,-41"/>
<text text-anchor="start" x="239" y="-29" font-family="Helvetica,sans-Serif" font-size="10.00">aopp_deconv_tool.optimise</text>
<text text-anchor="start" x="239" y="-18" font-family="Helvetica,sans-Serif" font-size="10.00">_compat.ultranest_compat.Ultranest</text>
<text text-anchor="middle" x="328.5" y="-7" font-family="Helvetica,sans-Serif" font-size="10.00">ResultSet.plot_directory</text>
</a>
</g>
</g>
<!-- Node1&#45;&gt;Node6 -->
<g id="edge5_Node000001_Node000006" class="edge">
<title>Node1&#45;&gt;Node6</title>
<g id="a_edge5_Node000001_Node000006"><a xlink:title=" ">
<path fill="none" stroke="#63b8ff" d="M195.28,-37.24C203.71,-36.18 212.26,-35.09 220.76,-34.02"/>
<polygon fill="#63b8ff" stroke="#63b8ff" points="221.21,-37.49 230.69,-32.76 220.33,-30.54 221.21,-37.49"/>
</a>
</g>
</g>
<!-- Node3 -->
<g id="Node000003" class="node">
<title>Node3</title>
<g id="a_Node000003"><a xlink:href="../../d2/d5e/classaopp__deconv__tool_1_1optimise__compat_1_1ultranest__compat_1_1UltranestResultSet.html#aa9644f9814e3b2d290836b8c77b32150" target="_top" xlink:title=" ">
<polygon fill="white" stroke="#666666" points="659,-159 462,-159 462,-118 659,-118 659,-159"/>
<text text-anchor="start" x="470" y="-147" font-family="Helvetica,sans-Serif" font-size="10.00">aopp_deconv_tool.optimise</text>
<text text-anchor="start" x="470" y="-136" font-family="Helvetica,sans-Serif" font-size="10.00">_compat.ultranest_compat.Ultranest</text>
<text text-anchor="middle" x="560.5" y="-125" font-family="Helvetica,sans-Serif" font-size="10.00">ResultSet.get_result_data_from_path</text>
</a>
</g>
</g>
<!-- Node2&#45;&gt;Node3 -->
<g id="edge2_Node000002_Node000003" class="edge">
<title>Node2&#45;&gt;Node3</title>
<g id="a_edge2_Node000002_Node000003"><a xlink:title=" ">
<path fill="none" stroke="#63b8ff" d="M409.62,-100.05C428.92,-105 449.66,-110.32 469.38,-115.38"/>
<polygon fill="#63b8ff" stroke="#63b8ff" points="468.72,-118.83 479.28,-117.92 470.46,-112.05 468.72,-118.83"/>
</a>
</g>
</g>
<!-- Node4 -->
<g id="Node000004" class="node">
<title>Node4</title>
<g id="a_Node000004"><a xlink:href="../../d2/d5e/classaopp__deconv__tool_1_1optimise__compat_1_1ultranest__compat_1_1UltranestResultSet.html#a333d0d1034772a03abb30a4af64285c9" target="_top" xlink:title=" ">
<polygon fill="white" stroke="#666666" points="658,-100 463,-100 463,-59 658,-59 658,-100"/>
<text text-anchor="start" x="471" y="-88" font-family="Helvetica,sans-Serif" font-size="10.00">aopp_deconv_tool.optimise</text>
<text text-anchor="start" x="471" y="-77" font-family="Helvetica,sans-Serif" font-size="10.00">_compat.ultranest_compat.Ultranest</text>
<text text-anchor="middle" x="560.5" y="-66" font-family="Helvetica,sans-Serif" font-size="10.00">ResultSet.get_result_data_path</text>
</a>
</g>
</g>
<!-- Node2&#45;&gt;Node4 -->
<g id="edge3_Node000002_Node000004" class="edge">
<title>Node2&#45;&gt;Node4</title>
<g id="a_edge3_Node000002_Node000004"><a xlink:title=" ">
<path fill="none" stroke="#63b8ff" d="M426.04,-79.5C434.88,-79.5 443.88,-79.5 452.8,-79.5"/>
<polygon fill="#63b8ff" stroke="#63b8ff" points="452.84,-83 462.84,-79.5 452.84,-76 452.84,-83"/>
</a>
</g>
</g>
<!-- Node5 -->
<g id="Node000005" class="node">
<title>Node5</title>
<g id="a_Node000005"><a xlink:href="../../d2/d5e/classaopp__deconv__tool_1_1optimise__compat_1_1ultranest__compat_1_1UltranestResultSet.html#aeb023b50a435cccd038835f67fbd8605" target="_top" xlink:title=" ">
<polygon fill="white" stroke="#666666" points="658,-41 463,-41 463,0 658,0 658,-41"/>
<text text-anchor="start" x="471" y="-29" font-family="Helvetica,sans-Serif" font-size="10.00">aopp_deconv_tool.optimise</text>
<text text-anchor="start" x="471" y="-18" font-family="Helvetica,sans-Serif" font-size="10.00">_compat.ultranest_compat.Ultranest</text>
<text text-anchor="middle" x="560.5" y="-7" font-family="Helvetica,sans-Serif" font-size="10.00">ResultSet.get_run_indices</text>
</a>
</g>
</g>
<!-- Node2&#45;&gt;Node5 -->
<g id="edge4_Node000002_Node000005" class="edge">
<title>Node2&#45;&gt;Node5</title>
<g id="a_edge4_Node000002_Node000005"><a xlink:title=" ">
<path fill="none" stroke="#63b8ff" d="M409.62,-58.95C428.92,-54 449.66,-48.68 469.38,-43.62"/>
<polygon fill="#63b8ff" stroke="#63b8ff" points="470.46,-46.95 479.28,-41.08 468.72,-40.17 470.46,-46.95"/>
</a>
</g>
</g>
</g>
</svg>
