<?xml version="1.0" encoding="UTF-8" standalone="no"?>
<!DOCTYPE svg PUBLIC "-//W3C//DTD SVG 1.1//EN"
 "http://www.w3.org/Graphics/SVG/1.1/DTD/svg11.dtd">
<!-- Generated by graphviz version 2.43.0 (0)
 -->
<!-- Title: aopp_deconv_tool.optimise_compat.ultranest_compat.UltranestResultSet.get_result_data_path Pages: 1 -->
<svg width="667pt" height="110pt"
 viewBox="0.00 0.00 667.00 110.00" xmlns="http://www.w3.org/2000/svg" xmlns:xlink="http://www.w3.org/1999/xlink">
<g id="graph0" class="graph" transform="scale(1 1) rotate(0) translate(4 106)">
<title>aopp_deconv_tool.optimise_compat.ultranest_compat.UltranestResultSet.get_result_data_path</title>
<!-- Node1 -->
<g id="node1" class="node">
<title>Node1</title>
<g id="a_node1"><a xlink:title=" ">
<polygon fill="#bfbfbf" stroke="black" points="464,-30.5 464,-71.5 659,-71.5 659,-30.5 464,-30.5"/>
<text text-anchor="start" x="472" y="-59.5" font-family="Helvetica,sans-Serif" font-size="10.00">aopp_deconv_tool.optimise</text>
<text text-anchor="start" x="472" y="-48.5" font-family="Helvetica,sans-Serif" font-size="10.00">_compat.ultranest_compat.Ultranest</text>
<text text-anchor="middle" x="561.5" y="-37.5" font-family="Helvetica,sans-Serif" font-size="10.00">ResultSet.get_result_data_path</text>
</a>
</g>
</g>
<!-- Node2 -->
<g id="node2" class="node">
<title>Node2</title>
<g id="a_node2"><a xlink:href="../../d2/d5e/classaopp__deconv__tool_1_1optimise__compat_1_1ultranest__compat_1_1UltranestResultSet.html#ad2c66880cee06fa86f3f94445518e746" target="_top" xlink:title=" ">
<polygon fill="none" stroke="black" points="233,-30.5 233,-71.5 428,-71.5 428,-30.5 233,-30.5"/>
<text text-anchor="start" x="241" y="-59.5" font-family="Helvetica,sans-Serif" font-size="10.00">aopp_deconv_tool.optimise</text>
<text text-anchor="start" x="241" y="-48.5" font-family="Helvetica,sans-Serif" font-size="10.00">_compat.ultranest_compat.Ultranest</text>
<text text-anchor="middle" x="330.5" y="-37.5" font-family="Helvetica,sans-Serif" font-size="10.00">ResultSet.get_params_vs_run_index</text>
</a>
</g>
</g>
<!-- Node1&#45;&gt;Node2 -->
<g id="edge1" class="edge">
<title>Node1&#45;&gt;Node2</title>
<path fill="none" stroke="midnightblue" d="M453.5,-51C445.1,-51 436.64,-51 428.31,-51"/>
<polygon fill="midnightblue" stroke="midnightblue" points="453.72,-54.5 463.72,-51 453.72,-47.5 453.72,-54.5"/>
</g>
<!-- Node3 -->
<g id="node3" class="node">
<title>Node3</title>
<g id="a_node3"><a xlink:href="../../d2/d5e/classaopp__deconv__tool_1_1optimise__compat_1_1ultranest__compat_1_1UltranestResultSet.html#a60379b92d22d46d219194d47499b0825" target="_top" xlink:title=" ">
<polygon fill="none" stroke="black" points="0,-60.5 0,-101.5 197,-101.5 197,-60.5 0,-60.5"/>
<text text-anchor="start" x="8" y="-89.5" font-family="Helvetica,sans-Serif" font-size="10.00">aopp_deconv_tool.optimise</text>
<text text-anchor="start" x="8" y="-78.5" font-family="Helvetica,sans-Serif" font-size="10.00">_compat.ultranest_compat.Ultranest</text>
<text text-anchor="middle" x="98.5" y="-67.5" font-family="Helvetica,sans-Serif" font-size="10.00">ResultSet.plot_params_vs_run_index</text>
</a>
</g>
</g>
<!-- Node2&#45;&gt;Node3 -->
<g id="edge2" class="edge">
<title>Node2&#45;&gt;Node3</title>
<path fill="none" stroke="midnightblue" d="M222.95,-64.9C214.39,-66.01 205.77,-67.14 197.27,-68.25"/>
<polygon fill="midnightblue" stroke="midnightblue" points="223.5,-68.36 232.96,-63.59 222.59,-61.42 223.5,-68.36"/>
</g>
<!-- Node4 -->
<g id="node4" class="node">
<title>Node4</title>
<g id="a_node4"><a xlink:href="../../d2/d5e/classaopp__deconv__tool_1_1optimise__compat_1_1ultranest__compat_1_1UltranestResultSet.html#ae57918befb7dfaffe043c520ce0035a9" target="_top" xlink:title=" ">
<polygon fill="none" stroke="black" points="1,-0.5 1,-41.5 196,-41.5 196,-0.5 1,-0.5"/>
<text text-anchor="start" x="9" y="-29.5" font-family="Helvetica,sans-Serif" font-size="10.00">aopp_deconv_tool.optimise</text>
<text text-anchor="start" x="9" y="-18.5" font-family="Helvetica,sans-Serif" font-size="10.00">_compat.ultranest_compat.Ultranest</text>
<text text-anchor="middle" x="98.5" y="-7.5" font-family="Helvetica,sans-Serif" font-size="10.00">ResultSet.plot_results</text>
</a>
</g>
</g>
<!-- Node2&#45;&gt;Node4 -->
<g id="edge3" class="edge">
<title>Node2&#45;&gt;Node4</title>
<path fill="none" stroke="midnightblue" d="M222.92,-37.1C214,-35.93 205.01,-34.76 196.16,-33.61"/>
<polygon fill="midnightblue" stroke="midnightblue" points="222.59,-40.58 232.96,-38.41 223.5,-33.64 222.59,-40.58"/>
</g>
</g>
</svg>
