<?xml version="1.0" encoding="UTF-8" standalone="no"?>
<!DOCTYPE svg PUBLIC "-//W3C//DTD SVG 1.1//EN"
 "http://www.w3.org/Graphics/SVG/1.1/DTD/svg11.dtd">
<!-- Generated by graphviz version 2.43.0 (0)
 -->
<!-- Title: aopp_deconv_tool.optimise_compat.ultranest_compat.UltranestResultSet.plot_params_vs_run_index Pages: 1 -->
<!--zoomable 220 -->
<svg id="main" version="1.1" xmlns="http://www.w3.org/2000/svg" xmlns:xlink="http://www.w3.org/1999/xlink" xml:space="preserve" onload="init(evt)">
<style type="text/css"><![CDATA[
.edge:hover path { stroke: red; }
.edge:hover polygon { stroke: red; fill: red; }
]]></style>
<script type="text/javascript"><![CDATA[
var edges = document.getElementsByTagName('g');
if (edges && edges.length) {
  for (var i=0;i<edges.length;i++) {
    if (edges[i].id.substr(0,4)=='edge') {
      edges[i].setAttribute('class','edge');
    }
  }
}
]]></script>
        <defs>
                <circle id="rim" cx="0" cy="0" r="7"/>
                <circle id="rim2" cx="0" cy="0" r="3.5"/>
                <g id="zoomPlus">
                        <use xlink:href="#rim" fill="#404040">
                                <set attributeName="fill" to="#808080" begin="zoomplus.mouseover" end="zoomplus.mouseout"/>
                        </use>
                        <path d="M-4,0h8M0,-4v8" fill="none" stroke="white" stroke-width="1.5" pointer-events="none"/>
                </g>
                <g id="zoomMin">
                        <use xlink:href="#rim" fill="#404040">
                                <set attributeName="fill" to="#808080" begin="zoomminus.mouseover" end="zoomminus.mouseout"/>
                        </use>
                        <path d="M-4,0h8" fill="none" stroke="white" stroke-width="1.5" pointer-events="none"/>
                </g>
                <g id="dirArrow">
                        <path fill="none" stroke="white" stroke-width="1.5" d="M0,-3.0v7 M-2.5,-0.5L0,-3.0L2.5,-0.5"/>
                </g>
               <g id="resetDef">
                       <use xlink:href="#rim2" fill="#404040">
                               <set attributeName="fill" to="#808080" begin="reset.mouseover" end="reset.mouseout"/>
                       </use>
               </g>
        </defs>

<script type="text/javascript">
var viewWidth = 669;
var viewHeight = 220;
var sectionId = 'dynsection-6';
</script>
<script xlink:href="../../svgpan.js"/>
<svg id="graph" class="graph">
<g id="viewport">
<title>aopp_deconv_tool.optimise_compat.ultranest_compat.UltranestResultSet.plot_params_vs_run_index</title>
<!-- Node1 -->
<g id="node1" class="node">
<title>Node1</title>
<g id="a_node1"><a xlink:title=" ">
<polygon fill="#bfbfbf" stroke="black" points="0,-55.5 0,-96.5 197,-96.5 197,-55.5 0,-55.5"/>
<text text-anchor="start" x="8" y="-84.5" font-family="Helvetica,sans-Serif" font-size="10.00">aopp_deconv_tool.optimise</text>
<text text-anchor="start" x="8" y="-73.5" font-family="Helvetica,sans-Serif" font-size="10.00">_compat.ultranest_compat.Ultranest</text>
<text text-anchor="middle" x="98.5" y="-62.5" font-family="Helvetica,sans-Serif" font-size="10.00">ResultSet.plot_params_vs_run_index</text>
</a>
</g>
</g>
<!-- Node2 -->
<g id="node2" class="node">
<title>Node2</title>
<g id="a_node2"><a xlink:href="../../d2/d5e/classaopp__deconv__tool_1_1optimise__compat_1_1ultranest__compat_1_1UltranestResultSet.html#ad2c66880cee06fa86f3f94445518e746" target="_top" xlink:title=" ">
<polygon fill="none" stroke="black" points="233,-110.5 233,-151.5 428,-151.5 428,-110.5 233,-110.5"/>
<text text-anchor="start" x="241" y="-139.5" font-family="Helvetica,sans-Serif" font-size="10.00">aopp_deconv_tool.optimise</text>
<text text-anchor="start" x="241" y="-128.5" font-family="Helvetica,sans-Serif" font-size="10.00">_compat.ultranest_compat.Ultranest</text>
<text text-anchor="middle" x="330.5" y="-117.5" font-family="Helvetica,sans-Serif" font-size="10.00">ResultSet.get_params_vs_run_index</text>
</a>
</g>
</g>
<!-- Node1&#45;&gt;Node2 -->
<g id="edge1" class="edge">
<title>Node1&#45;&gt;Node2</title>
<path fill="none" stroke="midnightblue" d="M185.47,-96.56C201.21,-100.32 217.74,-104.27 233.74,-108.1"/>
<polygon fill="midnightblue" stroke="midnightblue" points="233.09,-111.54 243.63,-110.47 234.72,-104.74 233.09,-111.54"/>
</g>
<!-- Node6 -->
<g id="node6" class="node">
<title>Node6</title>
<g id="a_node6"><a xlink:href="../../da/dfc/namespaceaopp__deconv__tool_1_1py__svd.html#a25823459e22f98cda9bd9a0b4cea09a1" target="_top" xlink:title=" ">
<polygon fill="none" stroke="black" points="270.5,-61 270.5,-91 390.5,-91 390.5,-61 270.5,-61"/>
<text text-anchor="start" x="278.5" y="-79" font-family="Helvetica,sans-Serif" font-size="10.00">aopp_deconv_tool.py</text>
<text text-anchor="middle" x="330.5" y="-68" font-family="Helvetica,sans-Serif" font-size="10.00">_svd.plot</text>
</a>
</g>
</g>
<!-- Node1&#45;&gt;Node6 -->
<g id="edge5" class="edge">
<title>Node1&#45;&gt;Node6</title>
<path fill="none" stroke="midnightblue" d="M197.04,-76C218.31,-76 240.39,-76 260.29,-76"/>
<polygon fill="midnightblue" stroke="midnightblue" points="260.48,-79.5 270.48,-76 260.48,-72.5 260.48,-79.5"/>
</g>
<!-- Node7 -->
<g id="node7" class="node">
<title>Node7</title>
<g id="a_node7"><a xlink:href="../../d2/d5e/classaopp__deconv__tool_1_1optimise__compat_1_1ultranest__compat_1_1UltranestResultSet.html#a2ae6f5c7fea7a6b0cfc28695fda84213" target="_top" xlink:title=" ">
<polygon fill="none" stroke="black" points="233,-0.5 233,-41.5 428,-41.5 428,-0.5 233,-0.5"/>
<text text-anchor="start" x="241" y="-29.5" font-family="Helvetica,sans-Serif" font-size="10.00">aopp_deconv_tool.optimise</text>
<text text-anchor="start" x="241" y="-18.5" font-family="Helvetica,sans-Serif" font-size="10.00">_compat.ultranest_compat.Ultranest</text>
<text text-anchor="middle" x="330.5" y="-7.5" font-family="Helvetica,sans-Serif" font-size="10.00">ResultSet.plot_directory</text>
</a>
</g>
</g>
<!-- Node1&#45;&gt;Node7 -->
<g id="edge6" class="edge">
<title>Node1&#45;&gt;Node7</title>
<path fill="none" stroke="midnightblue" d="M185.47,-55.44C201.21,-51.68 217.74,-47.73 233.74,-43.9"/>
<polygon fill="midnightblue" stroke="midnightblue" points="234.72,-47.26 243.63,-41.53 233.09,-40.46 234.72,-47.26"/>
</g>
<!-- Node3 -->
<g id="node3" class="node">
<title>Node3</title>
<g id="a_node3"><a xlink:href="../../d2/d5e/classaopp__deconv__tool_1_1optimise__compat_1_1ultranest__compat_1_1UltranestResultSet.html#aeb1ad340f149774c00a0009fadbd9041" target="_top" xlink:title=" ">
<polygon fill="none" stroke="black" points="464,-170.5 464,-211.5 661,-211.5 661,-170.5 464,-170.5"/>
<text text-anchor="start" x="472" y="-199.5" font-family="Helvetica,sans-Serif" font-size="10.00">aopp_deconv_tool.optimise</text>
<text text-anchor="start" x="472" y="-188.5" font-family="Helvetica,sans-Serif" font-size="10.00">_compat.ultranest_compat.Ultranest</text>
<text text-anchor="middle" x="562.5" y="-177.5" font-family="Helvetica,sans-Serif" font-size="10.00">ResultSet.get_result_data_from_path</text>
</a>
</g>
</g>
<!-- Node2&#45;&gt;Node3 -->
<g id="edge2" class="edge">
<title>Node2&#45;&gt;Node3</title>
<path fill="none" stroke="midnightblue" d="M410.33,-151.56C430.54,-156.84 452.4,-162.54 473.06,-167.93"/>
<polygon fill="midnightblue" stroke="midnightblue" points="472.21,-171.32 482.77,-170.46 473.98,-164.55 472.21,-171.32"/>
</g>
<!-- Node4 -->
<g id="node4" class="node">
<title>Node4</title>
<g id="a_node4"><a xlink:href="../../d2/d5e/classaopp__deconv__tool_1_1optimise__compat_1_1ultranest__compat_1_1UltranestResultSet.html#a07efcf04bbd41257f6b8654d3b0bd1e0" target="_top" xlink:title=" ">
<polygon fill="none" stroke="black" points="465,-110.5 465,-151.5 660,-151.5 660,-110.5 465,-110.5"/>
<text text-anchor="start" x="473" y="-139.5" font-family="Helvetica,sans-Serif" font-size="10.00">aopp_deconv_tool.optimise</text>
<text text-anchor="start" x="473" y="-128.5" font-family="Helvetica,sans-Serif" font-size="10.00">_compat.ultranest_compat.Ultranest</text>
<text text-anchor="middle" x="562.5" y="-117.5" font-family="Helvetica,sans-Serif" font-size="10.00">ResultSet.get_result_data_path</text>
</a>
</g>
</g>
<!-- Node2&#45;&gt;Node4 -->
<g id="edge3" class="edge">
<title>Node2&#45;&gt;Node4</title>
<path fill="none" stroke="midnightblue" d="M428.04,-131C436.88,-131 445.88,-131 454.8,-131"/>
<polygon fill="midnightblue" stroke="midnightblue" points="454.84,-134.5 464.84,-131 454.84,-127.5 454.84,-134.5"/>
</g>
<!-- Node5 -->
<g id="node5" class="node">
<title>Node5</title>
<g id="a_node5"><a xlink:href="../../d2/d5e/classaopp__deconv__tool_1_1optimise__compat_1_1ultranest__compat_1_1UltranestResultSet.html#aeb023b50a435cccd038835f67fbd8605" target="_top" xlink:title=" ">
<polygon fill="none" stroke="black" points="465,-50.5 465,-91.5 660,-91.5 660,-50.5 465,-50.5"/>
<text text-anchor="start" x="473" y="-79.5" font-family="Helvetica,sans-Serif" font-size="10.00">aopp_deconv_tool.optimise</text>
<text text-anchor="start" x="473" y="-68.5" font-family="Helvetica,sans-Serif" font-size="10.00">_compat.ultranest_compat.Ultranest</text>
<text text-anchor="middle" x="562.5" y="-57.5" font-family="Helvetica,sans-Serif" font-size="10.00">ResultSet.get_run_indices</text>
</a>
</g>
</g>
<!-- Node2&#45;&gt;Node5 -->
<g id="edge4" class="edge">
<title>Node2&#45;&gt;Node5</title>
<path fill="none" stroke="midnightblue" d="M410.33,-110.44C430.54,-105.16 452.4,-99.46 473.06,-94.07"/>
<polygon fill="midnightblue" stroke="midnightblue" points="473.98,-97.45 482.77,-91.54 472.21,-90.68 473.98,-97.45"/>
</g>
</g>
</svg>
        <g id="navigator" transform="translate(0 0)" fill="#404254">
                <rect fill="#f2f5e9" fill-opacity="0.5" stroke="#606060" stroke-width=".5" x="0" y="0" width="60" height="60"/>
                <use id="zoomplus" xlink:href="#zoomPlus" x="17" y="9" onmousedown="handleZoom(evt,'in')"/>
                <use id="zoomminus" xlink:href="#zoomMin" x="42" y="9" onmousedown="handleZoom(evt,'out')"/>
                <use id="reset" xlink:href="#resetDef" x="30" y="36" onmousedown="handleReset()"/>
                <g id="arrowUp" xlink:href="#dirArrow" transform="translate(30 24)" onmousedown="handlePan(0,-1)">
                  <use xlink:href="#rim" fill="#404040">
                        <set attributeName="fill" to="#808080" begin="arrowUp.mouseover" end="arrowUp.mouseout"/>
                  </use>
                  <path fill="none" stroke="white" stroke-width="1.5" d="M0,-3.0v7 M-2.5,-0.5L0,-3.0L2.5,-0.5"/>
                </g>
                <g id="arrowRight" xlink:href="#dirArrow" transform="rotate(90) translate(36 -43)" onmousedown="handlePan(1,0)">
                  <use xlink:href="#rim" fill="#404040">
                        <set attributeName="fill" to="#808080" begin="arrowRight.mouseover" end="arrowRight.mouseout"/>
                  </use>
                  <path fill="none" stroke="white" stroke-width="1.5" d="M0,-3.0v7 M-2.5,-0.5L0,-3.0L2.5,-0.5"/>
                </g>
                <g id="arrowDown" xlink:href="#dirArrow" transform="rotate(180) translate(-30 -48)" onmousedown="handlePan(0,1)">
                  <use xlink:href="#rim" fill="#404040">
                        <set attributeName="fill" to="#808080" begin="arrowDown.mouseover" end="arrowDown.mouseout"/>
                  </use>
                  <path fill="none" stroke="white" stroke-width="1.5" d="M0,-3.0v7 M-2.5,-0.5L0,-3.0L2.5,-0.5"/>
                </g>
                <g id="arrowLeft" xlink:href="#dirArrow" transform="rotate(270) translate(-36 17)" onmousedown="handlePan(-1,0)">
                  <use xlink:href="#rim" fill="#404040">
                        <set attributeName="fill" to="#808080" begin="arrowLeft.mouseover" end="arrowLeft.mouseout"/>
                  </use>
                  <path fill="none" stroke="white" stroke-width="1.5" d="M0,-3.0v7 M-2.5,-0.5L0,-3.0L2.5,-0.5"/>
                </g>
        </g>
        <svg viewBox="0 0 15 15" width="100%" height="30px" preserveAspectRatio="xMaxYMin meet">
         <g id="arrow_out" transform="scale(0.3 0.3)">
          <a xlink:href="classaopp__deconv__tool_1_1optimise__compat_1_1ultranest__compat_1_1UltranestResultSet_a60379b92d22d46d219194d47499b0825_cgraph_org.svg" target="_base">
           <rect id="button" ry="5" rx="5" y="6" x="6" height="38" width="38"
                fill="#f2f5e9" fill-opacity="0.5" stroke="#606060" stroke-width="1.0"/>
           <path id="arrow"
             d="M 11.500037,31.436501 C 11.940474,20.09759 22.043105,11.32322 32.158766,21.979434 L 37.068811,17.246167 C 37.068811,17.246167 37.088388,32 37.088388,32 L 22.160133,31.978069 C 22.160133,31.978069 26.997745,27.140456 26.997745,27.140456 C 18.528582,18.264221 13.291696,25.230495 11.500037,31.436501 z"
             style="fill:#404040;"/>
          </a>
         </g>
        </svg>
</svg>
