<?xml version="1.0" encoding="UTF-8" standalone="no"?>
<!DOCTYPE svg PUBLIC "-//W3C//DTD SVG 1.1//EN"
 "http://www.w3.org/Graphics/SVG/1.1/DTD/svg11.dtd">
<!-- Generated by graphviz version 2.43.0 (0)
 -->
<!-- Title: aopp_deconv_tool.optimise_compat.ultranest_compat.UltranestResultSet.plot_results Pages: 1 -->
<svg width="667pt" height="170pt"
 viewBox="0.00 0.00 667.00 170.00" xmlns="http://www.w3.org/2000/svg" xmlns:xlink="http://www.w3.org/1999/xlink">
<g id="graph0" class="graph" transform="scale(1 1) rotate(0) translate(4 166)">
<title>aopp_deconv_tool.optimise_compat.ultranest_compat.UltranestResultSet.plot_results</title>
<!-- Node1 -->
<g id="node1" class="node">
<title>Node1</title>
<g id="a_node1"><a xlink:title=" ">
<polygon fill="#bfbfbf" stroke="black" points="0,-30.5 0,-71.5 195,-71.5 195,-30.5 0,-30.5"/>
<text text-anchor="start" x="8" y="-59.5" font-family="Helvetica,sans-Serif" font-size="10.00">aopp_deconv_tool.optimise</text>
<text text-anchor="start" x="8" y="-48.5" font-family="Helvetica,sans-Serif" font-size="10.00">_compat.ultranest_compat.Ultranest</text>
<text text-anchor="middle" x="97.5" y="-37.5" font-family="Helvetica,sans-Serif" font-size="10.00">ResultSet.plot_results</text>
</a>
</g>
</g>
<!-- Node2 -->
<g id="node2" class="node">
<title>Node2</title>
<g id="a_node2"><a xlink:href="../../d2/d5e/classaopp__deconv__tool_1_1optimise__compat_1_1ultranest__compat_1_1UltranestResultSet.html#ad2c66880cee06fa86f3f94445518e746" target="_top" xlink:title=" ">
<polygon fill="none" stroke="black" points="231,-60.5 231,-101.5 426,-101.5 426,-60.5 231,-60.5"/>
<text text-anchor="start" x="239" y="-89.5" font-family="Helvetica,sans-Serif" font-size="10.00">aopp_deconv_tool.optimise</text>
<text text-anchor="start" x="239" y="-78.5" font-family="Helvetica,sans-Serif" font-size="10.00">_compat.ultranest_compat.Ultranest</text>
<text text-anchor="middle" x="328.5" y="-67.5" font-family="Helvetica,sans-Serif" font-size="10.00">ResultSet.get_params_vs_run_index</text>
</a>
</g>
</g>
<!-- Node1&#45;&gt;Node2 -->
<g id="edge1" class="edge">
<title>Node1&#45;&gt;Node2</title>
<path fill="none" stroke="midnightblue" d="M195.28,-63.68C203.71,-64.78 212.26,-65.9 220.76,-67.02"/>
<polygon fill="midnightblue" stroke="midnightblue" points="220.32,-70.49 230.69,-68.32 221.23,-63.55 220.32,-70.49"/>
</g>
<!-- Node6 -->
<g id="node6" class="node">
<title>Node6</title>
<g id="a_node6"><a xlink:href="../../d2/d5e/classaopp__deconv__tool_1_1optimise__compat_1_1ultranest__compat_1_1UltranestResultSet.html#a2ae6f5c7fea7a6b0cfc28695fda84213" target="_top" xlink:title=" ">
<polygon fill="none" stroke="black" points="231,-0.5 231,-41.5 426,-41.5 426,-0.5 231,-0.5"/>
<text text-anchor="start" x="239" y="-29.5" font-family="Helvetica,sans-Serif" font-size="10.00">aopp_deconv_tool.optimise</text>
<text text-anchor="start" x="239" y="-18.5" font-family="Helvetica,sans-Serif" font-size="10.00">_compat.ultranest_compat.Ultranest</text>
<text text-anchor="middle" x="328.5" y="-7.5" font-family="Helvetica,sans-Serif" font-size="10.00">ResultSet.plot_directory</text>
</a>
</g>
</g>
<!-- Node1&#45;&gt;Node6 -->
<g id="edge5" class="edge">
<title>Node1&#45;&gt;Node6</title>
<path fill="none" stroke="midnightblue" d="M195.28,-38.32C203.71,-37.22 212.26,-36.1 220.76,-34.98"/>
<polygon fill="midnightblue" stroke="midnightblue" points="221.23,-38.45 230.69,-33.68 220.32,-31.51 221.23,-38.45"/>
</g>
<!-- Node3 -->
<g id="node3" class="node">
<title>Node3</title>
<g id="a_node3"><a xlink:href="../../d2/d5e/classaopp__deconv__tool_1_1optimise__compat_1_1ultranest__compat_1_1UltranestResultSet.html#aeb1ad340f149774c00a0009fadbd9041" target="_top" xlink:title=" ">
<polygon fill="none" stroke="black" points="462,-120.5 462,-161.5 659,-161.5 659,-120.5 462,-120.5"/>
<text text-anchor="start" x="470" y="-149.5" font-family="Helvetica,sans-Serif" font-size="10.00">aopp_deconv_tool.optimise</text>
<text text-anchor="start" x="470" y="-138.5" font-family="Helvetica,sans-Serif" font-size="10.00">_compat.ultranest_compat.Ultranest</text>
<text text-anchor="middle" x="560.5" y="-127.5" font-family="Helvetica,sans-Serif" font-size="10.00">ResultSet.get_result_data_from_path</text>
</a>
</g>
</g>
<!-- Node2&#45;&gt;Node3 -->
<g id="edge2" class="edge">
<title>Node2&#45;&gt;Node3</title>
<path fill="none" stroke="midnightblue" d="M408.33,-101.56C428.54,-106.84 450.4,-112.54 471.06,-117.93"/>
<polygon fill="midnightblue" stroke="midnightblue" points="470.21,-121.32 480.77,-120.46 471.98,-114.55 470.21,-121.32"/>
</g>
<!-- Node4 -->
<g id="node4" class="node">
<title>Node4</title>
<g id="a_node4"><a xlink:href="../../d2/d5e/classaopp__deconv__tool_1_1optimise__compat_1_1ultranest__compat_1_1UltranestResultSet.html#a07efcf04bbd41257f6b8654d3b0bd1e0" target="_top" xlink:title=" ">
<polygon fill="none" stroke="black" points="463,-60.5 463,-101.5 658,-101.5 658,-60.5 463,-60.5"/>
<text text-anchor="start" x="471" y="-89.5" font-family="Helvetica,sans-Serif" font-size="10.00">aopp_deconv_tool.optimise</text>
<text text-anchor="start" x="471" y="-78.5" font-family="Helvetica,sans-Serif" font-size="10.00">_compat.ultranest_compat.Ultranest</text>
<text text-anchor="middle" x="560.5" y="-67.5" font-family="Helvetica,sans-Serif" font-size="10.00">ResultSet.get_result_data_path</text>
</a>
</g>
</g>
<!-- Node2&#45;&gt;Node4 -->
<g id="edge3" class="edge">
<title>Node2&#45;&gt;Node4</title>
<path fill="none" stroke="midnightblue" d="M426.04,-81C434.88,-81 443.88,-81 452.8,-81"/>
<polygon fill="midnightblue" stroke="midnightblue" points="452.84,-84.5 462.84,-81 452.84,-77.5 452.84,-84.5"/>
</g>
<!-- Node5 -->
<g id="node5" class="node">
<title>Node5</title>
<g id="a_node5"><a xlink:href="../../d2/d5e/classaopp__deconv__tool_1_1optimise__compat_1_1ultranest__compat_1_1UltranestResultSet.html#aeb023b50a435cccd038835f67fbd8605" target="_top" xlink:title=" ">
<polygon fill="none" stroke="black" points="463,-0.5 463,-41.5 658,-41.5 658,-0.5 463,-0.5"/>
<text text-anchor="start" x="471" y="-29.5" font-family="Helvetica,sans-Serif" font-size="10.00">aopp_deconv_tool.optimise</text>
<text text-anchor="start" x="471" y="-18.5" font-family="Helvetica,sans-Serif" font-size="10.00">_compat.ultranest_compat.Ultranest</text>
<text text-anchor="middle" x="560.5" y="-7.5" font-family="Helvetica,sans-Serif" font-size="10.00">ResultSet.get_run_indices</text>
</a>
</g>
</g>
<!-- Node2&#45;&gt;Node5 -->
<g id="edge4" class="edge">
<title>Node2&#45;&gt;Node5</title>
<path fill="none" stroke="midnightblue" d="M408.33,-60.44C428.54,-55.16 450.4,-49.46 471.06,-44.07"/>
<polygon fill="midnightblue" stroke="midnightblue" points="471.98,-47.45 480.77,-41.54 470.21,-40.68 471.98,-47.45"/>
</g>
</g>
</svg>
