<?xml version="1.0" encoding="UTF-8" standalone="no"?>
<!DOCTYPE svg PUBLIC "-//W3C//DTD SVG 1.1//EN"
 "http://www.w3.org/Graphics/SVG/1.1/DTD/svg11.dtd">
<!-- Generated by graphviz version 2.43.0 (0)
 -->
<!-- Title: aopp_deconv_tool.graphical_frontends.ssa_filtering.TextBox.get_value Pages: 1 -->
<svg width="1023pt" height="163pt"
 viewBox="0.00 0.00 1023.00 162.50" xmlns="http://www.w3.org/2000/svg" xmlns:xlink="http://www.w3.org/1999/xlink">
<g id="graph0" class="graph" transform="scale(1 1) rotate(0) translate(4 158.5)">
<title>aopp_deconv_tool.graphical_frontends.ssa_filtering.TextBox.get_value</title>
<!-- Node1 -->
<g id="node1" class="node">
<title>Node1</title>
<g id="a_node1"><a xlink:title=" ">
<polygon fill="#bfbfbf" stroke="black" points="791,-47.5 791,-77.5 1015,-77.5 1015,-47.5 791,-47.5"/>
<text text-anchor="start" x="799" y="-65.5" font-family="Helvetica,sans-Serif" font-size="10.00">aopp_deconv_tool.graphical</text>
<text text-anchor="middle" x="903" y="-54.5" font-family="Helvetica,sans-Serif" font-size="10.00">_frontends.ssa_filtering.TextBox.get_value</text>
</a>
</g>
</g>
<!-- Node2 -->
<g id="node2" class="node">
<title>Node2</title>
<g id="a_node2"><a xlink:href="../../d2/d2f/classaopp__deconv__tool_1_1graphical__frontends_1_1ssa__filtering_1_1CheckButtons.html#a52acbae3dc5ad39b177e3b49b9fa5eb5" target="_top" xlink:title=" ">
<polygon fill="none" stroke="black" points="520.5,-113 520.5,-154 737.5,-154 737.5,-113 520.5,-113"/>
<text text-anchor="start" x="528.5" y="-142" font-family="Helvetica,sans-Serif" font-size="10.00">aopp_deconv_tool.graphical</text>
<text text-anchor="start" x="528.5" y="-131" font-family="Helvetica,sans-Serif" font-size="10.00">_frontends.ssa_filtering.CheckButtons.on</text>
<text text-anchor="middle" x="629" y="-120" font-family="Helvetica,sans-Serif" font-size="10.00">_clicked</text>
</a>
</g>
</g>
<!-- Node1&#45;&gt;Node2 -->
<g id="edge1" class="edge">
<title>Node1&#45;&gt;Node2</title>
<path fill="none" stroke="midnightblue" d="M834.35,-80.16C796.26,-90.1 748.52,-102.56 708.75,-112.94"/>
<polygon fill="midnightblue" stroke="midnightblue" points="835.52,-83.47 844.32,-77.56 833.76,-76.7 835.52,-83.47"/>
</g>
<!-- Node3 -->
<g id="node3" class="node">
<title>Node3</title>
<g id="a_node3"><a xlink:href="../../d5/d53/classaopp__deconv__tool_1_1graphical__frontends_1_1ssa__filtering_1_1Slider.html#a5478390a8acd2e82c176345e7f6a9ef3" target="_top" xlink:title=" ">
<polygon fill="none" stroke="black" points="252.5,-49.5 252.5,-79.5 465.5,-79.5 465.5,-49.5 252.5,-49.5"/>
<text text-anchor="start" x="260.5" y="-67.5" font-family="Helvetica,sans-Serif" font-size="10.00">aopp_deconv_tool.graphical</text>
<text text-anchor="middle" x="359" y="-56.5" font-family="Helvetica,sans-Serif" font-size="10.00">_frontends.ssa_filtering.Slider.set_limits</text>
</a>
</g>
</g>
<!-- Node1&#45;&gt;Node3 -->
<g id="edge2" class="edge">
<title>Node1&#45;&gt;Node3</title>
<path fill="none" stroke="midnightblue" d="M780.63,-64.28C771.96,-64.37 763.35,-64.44 755,-64.5 656.94,-65.17 545.18,-65.09 465.62,-64.89"/>
<polygon fill="midnightblue" stroke="midnightblue" points="780.87,-67.78 790.84,-64.17 780.8,-60.78 780.87,-67.78"/>
</g>
<!-- Node5 -->
<g id="node5" class="node">
<title>Node5</title>
<g id="a_node5"><a xlink:href="../../dc/d2e/classaopp__deconv__tool_1_1graphical__frontends_1_1ssa__filtering_1_1Range.html#a756766852c014c8d0e404adc35cb042e" target="_top" xlink:title=" ">
<polygon fill="none" stroke="black" points="251,-0.5 251,-30.5 467,-30.5 467,-0.5 251,-0.5"/>
<text text-anchor="start" x="259" y="-18.5" font-family="Helvetica,sans-Serif" font-size="10.00">aopp_deconv_tool.graphical</text>
<text text-anchor="middle" x="359" y="-7.5" font-family="Helvetica,sans-Serif" font-size="10.00">_frontends.ssa_filtering.Range.set_limits</text>
</a>
</g>
</g>
<!-- Node1&#45;&gt;Node5 -->
<g id="edge4" class="edge">
<title>Node1&#45;&gt;Node5</title>
<path fill="none" stroke="midnightblue" d="M856.21,-43.82C827.65,-33.18 789.81,-20.93 755,-15.5 658.45,-0.44 546.99,-2.15 467.15,-6.62"/>
<polygon fill="midnightblue" stroke="midnightblue" points="855.32,-47.22 865.91,-47.5 857.8,-40.68 855.32,-47.22"/>
</g>
<!-- Node6 -->
<g id="node6" class="node">
<title>Node6</title>
<g id="a_node6"><a xlink:href="../../d2/d2f/classaopp__deconv__tool_1_1graphical__frontends_1_1ssa__filtering_1_1CheckButtons.html#a83863b3a66516dfbfb8b24ae4c16e49e" target="_top" xlink:title=" ">
<polygon fill="none" stroke="black" points="503,-25.5 503,-55.5 755,-55.5 755,-25.5 503,-25.5"/>
<text text-anchor="start" x="511" y="-43.5" font-family="Helvetica,sans-Serif" font-size="10.00">aopp_deconv_tool.graphical</text>
<text text-anchor="middle" x="629" y="-32.5" font-family="Helvetica,sans-Serif" font-size="10.00">_frontends.ssa_filtering.CheckButtons.set_value</text>
</a>
</g>
</g>
<!-- Node1&#45;&gt;Node6 -->
<g id="edge6" class="edge">
<title>Node1&#45;&gt;Node6</title>
<path fill="none" stroke="midnightblue" d="M781.01,-52.71C772.48,-52.02 763.87,-51.33 755.31,-50.64"/>
<polygon fill="midnightblue" stroke="midnightblue" points="780.73,-56.2 790.97,-53.52 781.29,-49.23 780.73,-56.2"/>
</g>
<!-- Node4 -->
<g id="node4" class="node">
<title>Node4</title>
<g id="a_node4"><a xlink:href="../../d5/d53/classaopp__deconv__tool_1_1graphical__frontends_1_1ssa__filtering_1_1Slider.html#a45f75660c170690f2f336e1f51766a45" target="_top" xlink:title=" ">
<polygon fill="none" stroke="black" points="0,-24.5 0,-54.5 215,-54.5 215,-24.5 0,-24.5"/>
<text text-anchor="start" x="8" y="-42.5" font-family="Helvetica,sans-Serif" font-size="10.00">aopp_deconv_tool.graphical</text>
<text text-anchor="middle" x="107.5" y="-31.5" font-family="Helvetica,sans-Serif" font-size="10.00">_frontends.ssa_filtering.Slider.set_active</text>
</a>
</g>
</g>
<!-- Node3&#45;&gt;Node4 -->
<g id="edge3" class="edge">
<title>Node3&#45;&gt;Node4</title>
<path fill="none" stroke="midnightblue" d="M242.12,-52.89C233.17,-51.99 224.16,-51.09 215.27,-50.2"/>
<polygon fill="midnightblue" stroke="midnightblue" points="241.89,-56.38 252.19,-53.9 242.59,-49.42 241.89,-56.38"/>
</g>
<!-- Node5&#45;&gt;Node4 -->
<g id="edge5" class="edge">
<title>Node5&#45;&gt;Node4</title>
<path fill="none" stroke="midnightblue" d="M240.78,-26.78C232.27,-27.59 223.72,-28.42 215.27,-29.23"/>
<polygon fill="midnightblue" stroke="midnightblue" points="241.12,-30.26 250.74,-25.82 240.45,-23.29 241.12,-30.26"/>
</g>
<!-- Node6&#45;&gt;Node3 -->
<g id="edge7" class="edge">
<title>Node6&#45;&gt;Node3</title>
<path fill="none" stroke="midnightblue" d="M492.45,-52.64C483.43,-53.45 474.41,-54.25 465.57,-55.05"/>
<polygon fill="midnightblue" stroke="midnightblue" points="492.98,-56.11 502.63,-51.73 492.36,-49.13 492.98,-56.11"/>
</g>
<!-- Node6&#45;&gt;Node5 -->
<g id="edge8" class="edge">
<title>Node6&#45;&gt;Node5</title>
<path fill="none" stroke="midnightblue" d="M492.62,-27.87C484.08,-27.08 475.56,-26.28 467.18,-25.5"/>
<polygon fill="midnightblue" stroke="midnightblue" points="492.35,-31.36 502.63,-28.81 493,-24.39 492.35,-31.36"/>
</g>
</g>
</svg>
