<?xml version="1.0" encoding="UTF-8" standalone="no"?>
<!DOCTYPE svg PUBLIC "-//W3C//DTD SVG 1.1//EN"
 "http://www.w3.org/Graphics/SVG/1.1/DTD/svg11.dtd">
<!-- Generated by graphviz version 2.43.0 (0)
 -->
<!-- Title: aopp_deconv_tool.graphical_frontends.ssa_filtering.TextBox.get_value Pages: 1 -->
<svg width="1020pt" height="178pt"
 viewBox="0.00 0.00 1020.00 177.50" xmlns="http://www.w3.org/2000/svg" xmlns:xlink="http://www.w3.org/1999/xlink">
<g id="graph0" class="graph" transform="scale(1 1) rotate(0) translate(4 173.5)">
<title>aopp_deconv_tool.graphical_frontends.ssa_filtering.TextBox.get_value</title>
<!-- Node1 -->
<g id="Node000001" class="node">
<title>Node1</title>
<g id="a_Node000001"><a xlink:title=" ">
<polygon fill="#999999" stroke="#666666" points="1012,-75 788,-75 788,-45 1012,-45 1012,-75"/>
<text text-anchor="start" x="796" y="-63" font-family="Helvetica,sans-Serif" font-size="10.00">aopp_deconv_tool.graphical</text>
<text text-anchor="middle" x="900" y="-52" font-family="Helvetica,sans-Serif" font-size="10.00">_frontends.ssa_filtering.TextBox.get_value</text>
</a>
</g>
</g>
<!-- Node2 -->
<g id="Node000002" class="node">
<title>Node2</title>
<g id="a_Node000002"><a xlink:href="../../d2/d2f/classaopp__deconv__tool_1_1graphical__frontends_1_1ssa__filtering_1_1CheckButtons.html#aa7b2c74c678f3e93797b319fe3014704" target="_top" xlink:title=" ">
<polygon fill="white" stroke="#666666" points="734.5,-151.5 518.5,-151.5 518.5,-110.5 734.5,-110.5 734.5,-151.5"/>
<text text-anchor="start" x="526.5" y="-139.5" font-family="Helvetica,sans-Serif" font-size="10.00">aopp_deconv_tool.graphical</text>
<text text-anchor="start" x="526.5" y="-128.5" font-family="Helvetica,sans-Serif" font-size="10.00">_frontends.ssa_filtering.CheckButtons.on</text>
<text text-anchor="middle" x="626.5" y="-117.5" font-family="Helvetica,sans-Serif" font-size="10.00">_clicked</text>
</a>
</g>
</g>
<!-- Node1&#45;&gt;Node2 -->
<g id="edge1_Node000001_Node000002" class="edge">
<title>Node1&#45;&gt;Node2</title>
<g id="a_edge1_Node000001_Node000002"><a xlink:title=" ">
<path fill="none" stroke="#63b8ff" d="M831.47,-77.66C793.46,-87.6 745.8,-100.06 706.11,-110.44"/>
<polygon fill="#63b8ff" stroke="#63b8ff" points="832.63,-80.97 841.42,-75.06 830.86,-74.2 832.63,-80.97"/>
</a>
</g>
</g>
<!-- Node3 -->
<g id="Node000003" class="node">
<title>Node3</title>
<g id="a_Node000003"><a xlink:href="../../d5/d53/classaopp__deconv__tool_1_1graphical__frontends_1_1ssa__filtering_1_1Slider.html#ac053deeaf27504aac90059d271548268" target="_top" xlink:title=" ">
<polygon fill="white" stroke="#666666" points="463.5,-78 251.5,-78 251.5,-48 463.5,-48 463.5,-78"/>
<text text-anchor="start" x="259.5" y="-66" font-family="Helvetica,sans-Serif" font-size="10.00">aopp_deconv_tool.graphical</text>
<text text-anchor="middle" x="357.5" y="-55" font-family="Helvetica,sans-Serif" font-size="10.00">_frontends.ssa_filtering.Slider.set_limits</text>
</a>
</g>
</g>
<!-- Node1&#45;&gt;Node3 -->
<g id="edge3_Node000001_Node000003" class="edge">
<title>Node1&#45;&gt;Node3</title>
<g id="a_edge3_Node000001_Node000003"><a xlink:title=" ">
<path fill="none" stroke="#63b8ff" d="M777.64,-62.67C768.96,-62.8 760.35,-62.91 752,-63 654.31,-64 542.98,-63.88 463.72,-63.58"/>
<polygon fill="#63b8ff" stroke="#63b8ff" points="777.89,-66.17 787.84,-62.51 777.78,-59.17 777.89,-66.17"/>
</a>
</g>
</g>
<!-- Node5 -->
<g id="Node000005" class="node">
<title>Node5</title>
<g id="a_Node000005"><a xlink:href="../../dc/d2e/classaopp__deconv__tool_1_1graphical__frontends_1_1ssa__filtering_1_1Range.html#ad2d49047d340c025b38fe5f7a8ac6b17" target="_top" xlink:title=" ">
<polygon fill="white" stroke="#666666" points="465,-30 250,-30 250,0 465,0 465,-30"/>
<text text-anchor="start" x="258" y="-18" font-family="Helvetica,sans-Serif" font-size="10.00">aopp_deconv_tool.graphical</text>
<text text-anchor="middle" x="357.5" y="-7" font-family="Helvetica,sans-Serif" font-size="10.00">_frontends.ssa_filtering.Range.set_limits</text>
</a>
</g>
</g>
<!-- Node1&#45;&gt;Node5 -->
<g id="edge6_Node000001_Node000005" class="edge">
<title>Node1&#45;&gt;Node5</title>
<g id="a_edge6_Node000001_Node000005"><a xlink:title=" ">
<path fill="none" stroke="#63b8ff" d="M851.38,-41.48C823,-31.45 786,-20.09 752,-15 655.72,-0.59 544.7,-2.23 465.19,-6.5"/>
<polygon fill="#63b8ff" stroke="#63b8ff" points="850.44,-44.86 861.04,-44.96 852.81,-38.28 850.44,-44.86"/>
</a>
</g>
</g>
<!-- Node6 -->
<g id="Node000006" class="node">
<title>Node6</title>
<g id="a_Node000006"><a xlink:href="../../d2/d2f/classaopp__deconv__tool_1_1graphical__frontends_1_1ssa__filtering_1_1CheckButtons.html#a7ec932ab45bcc9e3ca7ff7d33a38dc46" target="_top" xlink:title=" ">
<polygon fill="white" stroke="#666666" points="752,-54 501,-54 501,-24 752,-24 752,-54"/>
<text text-anchor="start" x="509" y="-42" font-family="Helvetica,sans-Serif" font-size="10.00">aopp_deconv_tool.graphical</text>
<text text-anchor="middle" x="626.5" y="-31" font-family="Helvetica,sans-Serif" font-size="10.00">_frontends.ssa_filtering.CheckButtons.set_value</text>
</a>
</g>
</g>
<!-- Node1&#45;&gt;Node6 -->
<g id="edge8_Node000001_Node000006" class="edge">
<title>Node1&#45;&gt;Node6</title>
<g id="a_edge8_Node000001_Node000006"><a xlink:title=" ">
<path fill="none" stroke="#63b8ff" d="M777.57,-50.61C769.16,-49.96 760.68,-49.3 752.25,-48.65"/>
<polygon fill="#63b8ff" stroke="#63b8ff" points="777.55,-54.12 787.79,-51.4 778.09,-47.14 777.55,-54.12"/>
</a>
</g>
</g>
<!-- Node2&#45;&gt;Node2 -->
<g id="edge2_Node000002_Node000002" class="edge">
<title>Node2&#45;&gt;Node2</title>
<g id="a_edge2_Node000002_Node000002"><a xlink:title=" ">
<path fill="none" stroke="#63b8ff" d="M672.61,-161.46C665.75,-166.24 650.38,-169.5 626.5,-169.5 588.29,-169.5 571.87,-161.15 577.24,-151.6"/>
<polygon fill="#63b8ff" stroke="#63b8ff" points="676.05,-162.19 675.76,-151.6 669.38,-160.06 676.05,-162.19"/>
</a>
</g>
</g>
<!-- Node4 -->
<g id="Node000004" class="node">
<title>Node4</title>
<g id="a_Node000004"><a xlink:href="../../d5/d53/classaopp__deconv__tool_1_1graphical__frontends_1_1ssa__filtering_1_1Slider.html#ac3e9379fd1ef597ccb25e7a848f9dbd6" target="_top" xlink:title=" ">
<polygon fill="white" stroke="#666666" points="214,-54 0,-54 0,-24 214,-24 214,-54"/>
<text text-anchor="start" x="8" y="-42" font-family="Helvetica,sans-Serif" font-size="10.00">aopp_deconv_tool.graphical</text>
<text text-anchor="middle" x="107" y="-31" font-family="Helvetica,sans-Serif" font-size="10.00">_frontends.ssa_filtering.Slider.set_active</text>
</a>
</g>
</g>
<!-- Node3&#45;&gt;Node4 -->
<g id="edge4_Node000003_Node000004" class="edge">
<title>Node3&#45;&gt;Node4</title>
<g id="a_edge4_Node000003_Node000004"><a xlink:title=" ">
<path fill="none" stroke="#63b8ff" d="M241.32,-51.88C232.29,-51 223.2,-50.13 214.24,-49.26"/>
<polygon fill="#63b8ff" stroke="#63b8ff" points="241.18,-55.38 251.47,-52.86 241.86,-48.41 241.18,-55.38"/>
</a>
</g>
</g>
<!-- Node4&#45;&gt;Node4 -->
<g id="edge5_Node000004_Node000004" class="edge">
<title>Node4&#45;&gt;Node4</title>
<g id="a_edge5_Node000004_Node000004"><a xlink:title=" ">
<path fill="none" stroke="#63b8ff" d="M150.76,-64.6C144.78,-68.97 130.19,-72 107,-72 67.94,-72 53.29,-63.41 63.05,-54.28"/>
<polygon fill="#63b8ff" stroke="#63b8ff" points="154.26,-64.34 150.95,-54.28 147.27,-64.21 154.26,-64.34"/>
</a>
</g>
</g>
<!-- Node5&#45;&gt;Node4 -->
<g id="edge7_Node000005_Node000004" class="edge">
<title>Node5&#45;&gt;Node4</title>
<g id="a_edge7_Node000005_Node000004"><a xlink:title=" ">
<path fill="none" stroke="#63b8ff" d="M239.48,-26.3C231.09,-27.11 222.66,-27.93 214.34,-28.73"/>
<polygon fill="#63b8ff" stroke="#63b8ff" points="240.05,-29.76 249.67,-25.32 239.38,-22.8 240.05,-29.76"/>
</a>
</g>
</g>
<!-- Node6&#45;&gt;Node3 -->
<g id="edge9_Node000006_Node000003" class="edge">
<title>Node6&#45;&gt;Node3</title>
<g id="a_edge9_Node000006_Node000003"><a xlink:title=" ">
<path fill="none" stroke="#63b8ff" d="M491.01,-51.09C481.8,-51.92 472.61,-52.74 463.59,-53.55"/>
<polygon fill="#63b8ff" stroke="#63b8ff" points="491.34,-54.57 500.99,-50.19 490.72,-47.6 491.34,-54.57"/>
</a>
</g>
</g>
<!-- Node6&#45;&gt;Node5 -->
<g id="edge10_Node000006_Node000005" class="edge">
<title>Node6&#45;&gt;Node5</title>
<g id="a_edge10_Node000006_Node000005"><a xlink:title=" ">
<path fill="none" stroke="#63b8ff" d="M490.88,-26.9C482.26,-26.12 473.65,-25.35 465.19,-24.59"/>
<polygon fill="#63b8ff" stroke="#63b8ff" points="490.72,-30.4 500.99,-27.81 491.34,-23.43 490.72,-30.4"/>
</a>
</g>
</g>
</g>
</svg>
