<?xml version="1.0" encoding="UTF-8" standalone="no"?>
<!DOCTYPE svg PUBLIC "-//W3C//DTD SVG 1.1//EN"
 "http://www.w3.org/Graphics/SVG/1.1/DTD/svg11.dtd">
<!-- Generated by graphviz version 2.43.0 (0)
 -->
<!-- Title: aopp_deconv_tool.graphical_frontends.ssa_filtering.Range.set_limits Pages: 1 -->
<svg width="798pt" height="320pt"
 viewBox="0.00 0.00 798.00 320.00" xmlns="http://www.w3.org/2000/svg" xmlns:xlink="http://www.w3.org/1999/xlink">
<g id="graph0" class="graph" transform="scale(1 1) rotate(0) translate(4 316)">
<title>aopp_deconv_tool.graphical_frontends.ssa_filtering.Range.set_limits</title>
<!-- Node1 -->
<g id="Node000001" class="node">
<title>Node1</title>
<g id="a_Node000001"><a xlink:title=" ">
<polygon fill="#999999" stroke="#666666" points="215,-175.5 0,-175.5 0,-145.5 215,-145.5 215,-175.5"/>
<text text-anchor="start" x="8" y="-163.5" font-family="Helvetica,sans-Serif" font-size="10.00">aopp_deconv_tool.graphical</text>
<text text-anchor="middle" x="107.5" y="-152.5" font-family="Helvetica,sans-Serif" font-size="10.00">_frontends.ssa_filtering.Range.set_limits</text>
</a>
</g>
</g>
<!-- Node2 -->
<g id="Node000002" class="node">
<title>Node2</title>
<g id="a_Node000002"><a xlink:href="../../da/d39/classaopp__deconv__tool_1_1graphical__frontends_1_1ssa__filtering_1_1WidgetBase.html#a50e64e1fc378bfc45bb50f9eb6a961fb" target="_top" xlink:title=" ">
<polygon fill="white" stroke="#666666" points="748,-312 580,-312 580,-271 748,-271 748,-312"/>
<text text-anchor="start" x="588" y="-300" font-family="Helvetica,sans-Serif" font-size="10.00">aopp_deconv_tool.graphical</text>
<text text-anchor="start" x="588" y="-289" font-family="Helvetica,sans-Serif" font-size="10.00">_frontends.ssa_filtering.Widget</text>
<text text-anchor="middle" x="664" y="-278" font-family="Helvetica,sans-Serif" font-size="10.00">Base.get_value</text>
</a>
</g>
</g>
<!-- Node1&#45;&gt;Node2 -->
<g id="edge1_Node000001_Node000002" class="edge">
<title>Node1&#45;&gt;Node2</title>
<g id="a_edge1_Node000001_Node000002"><a xlink:title=" ">
<path fill="none" stroke="#63b8ff" d="M133.26,-175.62C160.93,-191.81 207.58,-216.98 251,-230.5 357.31,-263.6 484.8,-278.95 569.52,-285.93"/>
<polygon fill="#63b8ff" stroke="#63b8ff" points="569.39,-289.43 579.64,-286.74 569.95,-282.45 569.39,-289.43"/>
</a>
</g>
</g>
<!-- Node3 -->
<g id="Node000003" class="node">
<title>Node3</title>
<g id="a_Node000003"><a xlink:href="../../d2/d2f/classaopp__deconv__tool_1_1graphical__frontends_1_1ssa__filtering_1_1CheckButtons.html#af410b1ad557888c7ef236bab981f1efe" target="_top" xlink:title=" ">
<polygon fill="white" stroke="#666666" points="790,-252.5 538,-252.5 538,-222.5 790,-222.5 790,-252.5"/>
<text text-anchor="start" x="546" y="-240.5" font-family="Helvetica,sans-Serif" font-size="10.00">aopp_deconv_tool.graphical</text>
<text text-anchor="middle" x="664" y="-229.5" font-family="Helvetica,sans-Serif" font-size="10.00">_frontends.ssa_filtering.CheckButtons.get_value</text>
</a>
</g>
</g>
<!-- Node1&#45;&gt;Node3 -->
<g id="edge2_Node000001_Node000003" class="edge">
<title>Node1&#45;&gt;Node3</title>
<g id="a_edge2_Node000001_Node000003"><a xlink:title=" ">
<path fill="none" stroke="#63b8ff" d="M151.29,-175.57C179.3,-184.83 216.91,-196.1 251,-202.5 342.34,-219.66 446.66,-228.41 527.48,-232.88"/>
<polygon fill="#63b8ff" stroke="#63b8ff" points="527.54,-236.38 537.72,-233.43 527.92,-229.39 527.54,-236.38"/>
</a>
</g>
</g>
<!-- Node4 -->
<g id="Node000004" class="node">
<title>Node4</title>
<g id="a_Node000004"><a xlink:href="../../da/d4a/classaopp__deconv__tool_1_1graphical__frontends_1_1ssa__filtering_1_1TextBox.html#ad9cacfd56b8b2b133a9bc9179a05c390" target="_top" xlink:title=" ">
<polygon fill="white" stroke="#666666" points="776,-204.5 552,-204.5 552,-174.5 776,-174.5 776,-204.5"/>
<text text-anchor="start" x="560" y="-192.5" font-family="Helvetica,sans-Serif" font-size="10.00">aopp_deconv_tool.graphical</text>
<text text-anchor="middle" x="664" y="-181.5" font-family="Helvetica,sans-Serif" font-size="10.00">_frontends.ssa_filtering.TextBox.get_value</text>
</a>
</g>
</g>
<!-- Node1&#45;&gt;Node4 -->
<g id="edge3_Node000001_Node000004" class="edge">
<title>Node1&#45;&gt;Node4</title>
<g id="a_edge3_Node000001_Node000004"><a xlink:title=" ">
<path fill="none" stroke="#63b8ff" d="M184.39,-175.52C205.84,-179.15 229.26,-182.55 251,-184.5 348.46,-193.25 459.41,-194.07 541.59,-192.95"/>
<polygon fill="#63b8ff" stroke="#63b8ff" points="541.78,-196.44 551.72,-192.8 541.67,-189.44 541.78,-196.44"/>
</a>
</g>
</g>
<!-- Node5 -->
<g id="Node000005" class="node">
<title>Node5</title>
<g id="a_Node000005"><a xlink:href="../../d9/d2e/classaopp__deconv__tool_1_1graphical__frontends_1_1ssa__filtering_1_1RadioButtons.html#ab058bb7bc5aedda2b36c5e9fe87e8d06" target="_top" xlink:title=" ">
<polygon fill="white" stroke="#666666" points="789,-156.5 539,-156.5 539,-126.5 789,-126.5 789,-156.5"/>
<text text-anchor="start" x="547" y="-144.5" font-family="Helvetica,sans-Serif" font-size="10.00">aopp_deconv_tool.graphical</text>
<text text-anchor="middle" x="664" y="-133.5" font-family="Helvetica,sans-Serif" font-size="10.00">_frontends.ssa_filtering.RadioButtons.get_value</text>
</a>
</g>
</g>
<!-- Node1&#45;&gt;Node5 -->
<g id="edge4_Node000001_Node000005" class="edge">
<title>Node1&#45;&gt;Node5</title>
<g id="a_edge4_Node000001_Node000005"><a xlink:title=" ">
<path fill="none" stroke="#63b8ff" d="M183.27,-145.5C205.02,-141.79 228.87,-138.35 251,-136.5 343.46,-128.77 447.99,-130.15 528.62,-133.4"/>
<polygon fill="#63b8ff" stroke="#63b8ff" points="528.7,-136.91 538.83,-133.83 528.99,-129.92 528.7,-136.91"/>
</a>
</g>
</g>
<!-- Node6 -->
<g id="Node000006" class="node">
<title>Node6</title>
<g id="a_Node000006"><a xlink:href="../../d9/d2e/classaopp__deconv__tool_1_1graphical__frontends_1_1ssa__filtering_1_1RadioButtons.html#a0657025ad2cdd49dc0c3d199a76f02e2" target="_top" xlink:title=" ">
<polygon fill="white" stroke="#666666" points="501,-89.5 252,-89.5 252,-59.5 501,-59.5 501,-89.5"/>
<text text-anchor="start" x="260" y="-77.5" font-family="Helvetica,sans-Serif" font-size="10.00">aopp_deconv_tool.graphical</text>
<text text-anchor="middle" x="376.5" y="-66.5" font-family="Helvetica,sans-Serif" font-size="10.00">_frontends.ssa_filtering.RadioButtons.set_value</text>
</a>
</g>
</g>
<!-- Node1&#45;&gt;Node6 -->
<g id="edge5_Node000001_Node000006" class="edge">
<title>Node1&#45;&gt;Node6</title>
<g id="a_edge5_Node000001_Node000006"><a xlink:title=" ">
<path fill="none" stroke="#63b8ff" d="M141.95,-145.44C170.5,-133 212.87,-115.49 251,-103.5 264.29,-99.32 278.54,-95.45 292.5,-91.98"/>
<polygon fill="#63b8ff" stroke="#63b8ff" points="293.69,-95.29 302.58,-89.53 292.04,-88.49 293.69,-95.29"/>
</a>
</g>
</g>
<!-- Node8 -->
<g id="Node000008" class="node">
<title>Node8</title>
<g id="a_Node000008"><a xlink:href="../../da/d39/classaopp__deconv__tool_1_1graphical__frontends_1_1ssa__filtering_1_1WidgetBase.html#a60cb9c76c496750c40e4982422b4b6f7" target="_top" xlink:title=" ">
<polygon fill="white" stroke="#666666" points="460.5,-41 292.5,-41 292.5,0 460.5,0 460.5,-41"/>
<text text-anchor="start" x="300.5" y="-29" font-family="Helvetica,sans-Serif" font-size="10.00">aopp_deconv_tool.graphical</text>
<text text-anchor="start" x="300.5" y="-18" font-family="Helvetica,sans-Serif" font-size="10.00">_frontends.ssa_filtering.Widget</text>
<text text-anchor="middle" x="376.5" y="-7" font-family="Helvetica,sans-Serif" font-size="10.00">Base.set_value</text>
</a>
</g>
</g>
<!-- Node1&#45;&gt;Node8 -->
<g id="edge8_Node000001_Node000008" class="edge">
<title>Node1&#45;&gt;Node8</title>
<g id="a_edge8_Node000001_Node000008"><a xlink:title=" ">
<path fill="none" stroke="#63b8ff" d="M123.67,-145.19C148.21,-121.31 199.14,-75.35 251,-50.5 261,-45.71 271.83,-41.64 282.79,-38.2"/>
<polygon fill="#63b8ff" stroke="#63b8ff" points="283.85,-41.54 292.44,-35.34 281.85,-34.83 283.85,-41.54"/>
</a>
</g>
</g>
<!-- Node9 -->
<g id="Node000009" class="node">
<title>Node9</title>
<g id="a_Node000009"><a xlink:href="../../d2/d2f/classaopp__deconv__tool_1_1graphical__frontends_1_1ssa__filtering_1_1CheckButtons.html#a7ec932ab45bcc9e3ca7ff7d33a38dc46" target="_top" xlink:title=" ">
<polygon fill="white" stroke="#666666" points="502,-175.5 251,-175.5 251,-145.5 502,-145.5 502,-175.5"/>
<text text-anchor="start" x="259" y="-163.5" font-family="Helvetica,sans-Serif" font-size="10.00">aopp_deconv_tool.graphical</text>
<text text-anchor="middle" x="376.5" y="-152.5" font-family="Helvetica,sans-Serif" font-size="10.00">_frontends.ssa_filtering.CheckButtons.set_value</text>
</a>
</g>
</g>
<!-- Node1&#45;&gt;Node9 -->
<g id="edge9_Node000001_Node000009" class="edge">
<title>Node1&#45;&gt;Node9</title>
<g id="a_edge9_Node000001_Node000009"><a xlink:title=" ">
<path fill="none" stroke="#63b8ff" d="M215.18,-160.5C223.63,-160.5 232.24,-160.5 240.85,-160.5"/>
<polygon fill="#63b8ff" stroke="#63b8ff" points="240.96,-164 250.96,-160.5 240.96,-157 240.96,-164"/>
</a>
</g>
</g>
<!-- Node7 -->
<g id="Node000007" class="node">
<title>Node7</title>
<g id="a_Node000007"><a xlink:href="../../da/d39/classaopp__deconv__tool_1_1graphical__frontends_1_1ssa__filtering_1_1WidgetBase.html#a57c669a0b1d75a6756ec5e30a6a39832" target="_top" xlink:title=" ">
<polygon fill="white" stroke="#666666" points="748,-90 580,-90 580,-49 748,-49 748,-90"/>
<text text-anchor="start" x="588" y="-78" font-family="Helvetica,sans-Serif" font-size="10.00">aopp_deconv_tool.graphical</text>
<text text-anchor="start" x="588" y="-67" font-family="Helvetica,sans-Serif" font-size="10.00">_frontends.ssa_filtering.Widget</text>
<text text-anchor="middle" x="664" y="-56" font-family="Helvetica,sans-Serif" font-size="10.00">Base.set_active</text>
</a>
</g>
</g>
<!-- Node6&#45;&gt;Node7 -->
<g id="edge6_Node000006_Node000007" class="edge">
<title>Node6&#45;&gt;Node7</title>
<g id="a_edge6_Node000006_Node000007"><a xlink:title=" ">
<path fill="none" stroke="#63b8ff" d="M501.06,-72.34C523.96,-71.94 547.53,-71.52 569.35,-71.14"/>
<polygon fill="#63b8ff" stroke="#63b8ff" points="569.64,-74.64 579.58,-70.96 569.52,-67.64 569.64,-74.64"/>
</a>
</g>
</g>
<!-- Node7&#45;&gt;Node7 -->
<g id="edge7_Node000007_Node000007" class="edge">
<title>Node7&#45;&gt;Node7</title>
<g id="a_edge7_Node000007_Node000007"><a xlink:title=" ">
<path fill="none" stroke="#63b8ff" d="M611.44,-90.1C605.7,-99.65 623.22,-108 664,-108 689.49,-108 705.89,-104.74 713.2,-99.96"/>
<polygon fill="#63b8ff" stroke="#63b8ff" points="716.65,-100.69 716.56,-90.1 710.03,-98.43 716.65,-100.69"/>
</a>
</g>
</g>
<!-- Node9&#45;&gt;Node2 -->
<g id="edge10_Node000009_Node000002" class="edge">
<title>Node9&#45;&gt;Node2</title>
<g id="a_edge10_Node000009_Node000002"><a xlink:title=" ">
<path fill="none" stroke="#63b8ff" d="M397.1,-175.84C426.22,-197.91 483.39,-238.5 538,-261.5 548.18,-265.79 559.1,-269.54 570.09,-272.8"/>
<polygon fill="#63b8ff" stroke="#63b8ff" points="569.17,-276.18 579.74,-275.54 571.08,-269.44 569.17,-276.18"/>
</a>
</g>
</g>
<!-- Node9&#45;&gt;Node3 -->
<g id="edge11_Node000009_Node000003" class="edge">
<title>Node9&#45;&gt;Node3</title>
<g id="a_edge11_Node000009_Node000003"><a xlink:title=" ">
<path fill="none" stroke="#63b8ff" d="M418.3,-175.6C450.48,-187.11 496.68,-202.76 538,-213.5 547.38,-215.94 557.22,-218.25 567.08,-220.4"/>
<polygon fill="#63b8ff" stroke="#63b8ff" points="566.43,-223.84 576.94,-222.49 567.89,-216.99 566.43,-223.84"/>
</a>
</g>
</g>
<!-- Node9&#45;&gt;Node4 -->
<g id="edge12_Node000009_Node000004" class="edge">
<title>Node9&#45;&gt;Node4</title>
<g id="a_edge12_Node000009_Node000004"><a xlink:title=" ">
<path fill="none" stroke="#63b8ff" d="M502.31,-173.18C515.46,-174.51 528.82,-175.87 541.93,-177.2"/>
<polygon fill="#63b8ff" stroke="#63b8ff" points="541.6,-180.69 551.9,-178.21 542.3,-173.72 541.6,-180.69"/>
</a>
</g>
</g>
<!-- Node9&#45;&gt;Node5 -->
<g id="edge13_Node000009_Node000005" class="edge">
<title>Node9&#45;&gt;Node5</title>
<g id="a_edge13_Node000009_Node000005"><a xlink:title=" ">
<path fill="none" stroke="#63b8ff" d="M502.31,-152.19C511.14,-151.61 520.06,-151.01 528.94,-150.42"/>
<polygon fill="#63b8ff" stroke="#63b8ff" points="529.19,-153.91 538.94,-149.76 528.73,-146.93 529.19,-153.91"/>
</a>
</g>
</g>
<!-- Node9&#45;&gt;Node7 -->
<g id="edge14_Node000009_Node000007" class="edge">
<title>Node9&#45;&gt;Node7</title>
<g id="a_edge14_Node000009_Node000007"><a xlink:title=" ">
<path fill="none" stroke="#63b8ff" d="M424.64,-145.47C469.28,-131.25 537,-109.66 588.86,-93.13"/>
<polygon fill="#63b8ff" stroke="#63b8ff" points="590.22,-96.37 598.68,-90 588.09,-89.7 590.22,-96.37"/>
</a>
</g>
</g>
</g>
</svg>
