<?xml version="1.0" encoding="UTF-8" standalone="no"?>
<!DOCTYPE svg PUBLIC "-//W3C//DTD SVG 1.1//EN"
 "http://www.w3.org/Graphics/SVG/1.1/DTD/svg11.dtd">
<!-- Generated by graphviz version 2.43.0 (0)
 -->
<!-- Title: aopp_deconv_tool.graphical_frontends.ssa_filtering.Range.set_limits Pages: 1 -->
<svg width="801pt" height="313pt"
 viewBox="0.00 0.00 801.00 313.00" xmlns="http://www.w3.org/2000/svg" xmlns:xlink="http://www.w3.org/1999/xlink">
<g id="graph0" class="graph" transform="scale(1 1) rotate(0) translate(4 309)">
<title>aopp_deconv_tool.graphical_frontends.ssa_filtering.Range.set_limits</title>
<!-- Node1 -->
<g id="node1" class="node">
<title>Node1</title>
<g id="a_node1"><a xlink:title=" ">
<polygon fill="#bfbfbf" stroke="black" points="0,-149 0,-179 216,-179 216,-149 0,-149"/>
<text text-anchor="start" x="8" y="-167" font-family="Helvetica,sans-Serif" font-size="10.00">aopp_deconv_tool.graphical</text>
<text text-anchor="middle" x="108" y="-156" font-family="Helvetica,sans-Serif" font-size="10.00">_frontends.ssa_filtering.Range.set_limits</text>
</a>
</g>
</g>
<!-- Node2 -->
<g id="node2" class="node">
<title>Node2</title>
<g id="a_node2"><a xlink:href="../../da/d39/classaopp__deconv__tool_1_1graphical__frontends_1_1ssa__filtering_1_1WidgetBase.html#a44b8666598d632f144849eb1153d8909" target="_top" xlink:title=" ">
<polygon fill="none" stroke="black" points="582,-263.5 582,-304.5 751,-304.5 751,-263.5 582,-263.5"/>
<text text-anchor="start" x="590" y="-292.5" font-family="Helvetica,sans-Serif" font-size="10.00">aopp_deconv_tool.graphical</text>
<text text-anchor="start" x="590" y="-281.5" font-family="Helvetica,sans-Serif" font-size="10.00">_frontends.ssa_filtering.Widget</text>
<text text-anchor="middle" x="666.5" y="-270.5" font-family="Helvetica,sans-Serif" font-size="10.00">Base.get_value</text>
</a>
</g>
</g>
<!-- Node1&#45;&gt;Node2 -->
<g id="edge1" class="edge">
<title>Node1&#45;&gt;Node2</title>
<path fill="none" stroke="midnightblue" d="M135.21,-179.05C163.2,-194.4 209.31,-217.67 252,-230 358.94,-260.88 486.58,-274.15 571.48,-279.82"/>
<polygon fill="midnightblue" stroke="midnightblue" points="571.41,-283.32 581.62,-280.47 571.86,-276.34 571.41,-283.32"/>
</g>
<!-- Node3 -->
<g id="node3" class="node">
<title>Node3</title>
<g id="a_node3"><a xlink:href="../../d2/d2f/classaopp__deconv__tool_1_1graphical__frontends_1_1ssa__filtering_1_1CheckButtons.html#a36d51bbdd702b55277de1434bdbe9e2e" target="_top" xlink:title=" ">
<polygon fill="none" stroke="black" points="540,-214 540,-244 793,-244 793,-214 540,-214"/>
<text text-anchor="start" x="548" y="-232" font-family="Helvetica,sans-Serif" font-size="10.00">aopp_deconv_tool.graphical</text>
<text text-anchor="middle" x="666.5" y="-221" font-family="Helvetica,sans-Serif" font-size="10.00">_frontends.ssa_filtering.CheckButtons.get_value</text>
</a>
</g>
</g>
<!-- Node1&#45;&gt;Node3 -->
<g id="edge2" class="edge">
<title>Node1&#45;&gt;Node3</title>
<path fill="none" stroke="midnightblue" d="M151.92,-179C180.02,-188.15 217.76,-199.17 252,-205 343.78,-220.62 448.48,-226.58 529.56,-228.66"/>
<polygon fill="midnightblue" stroke="midnightblue" points="529.75,-232.16 539.83,-228.9 529.92,-225.16 529.75,-232.16"/>
</g>
<!-- Node4 -->
<g id="node4" class="node">
<title>Node4</title>
<g id="a_node4"><a xlink:href="../../da/d4a/classaopp__deconv__tool_1_1graphical__frontends_1_1ssa__filtering_1_1TextBox.html#aa35e9c92729265525e70acc4c973b974" target="_top" xlink:title=" ">
<polygon fill="none" stroke="black" points="554.5,-165 554.5,-195 778.5,-195 778.5,-165 554.5,-165"/>
<text text-anchor="start" x="562.5" y="-183" font-family="Helvetica,sans-Serif" font-size="10.00">aopp_deconv_tool.graphical</text>
<text text-anchor="middle" x="666.5" y="-172" font-family="Helvetica,sans-Serif" font-size="10.00">_frontends.ssa_filtering.TextBox.get_value</text>
</a>
</g>
</g>
<!-- Node1&#45;&gt;Node4 -->
<g id="edge3" class="edge">
<title>Node1&#45;&gt;Node4</title>
<path fill="none" stroke="midnightblue" d="M180.7,-179.04C203.39,-183.12 228.65,-186.97 252,-189 350.03,-197.5 461.59,-194.33 544.11,-189.53"/>
<polygon fill="midnightblue" stroke="midnightblue" points="544.51,-193.02 554.28,-188.93 544.09,-186.03 544.51,-193.02"/>
</g>
<!-- Node5 -->
<g id="node5" class="node">
<title>Node5</title>
<g id="a_node5"><a xlink:href="../../d9/d2e/classaopp__deconv__tool_1_1graphical__frontends_1_1ssa__filtering_1_1RadioButtons.html#a7451826d80866b900047ca46013adeb7" target="_top" xlink:title=" ">
<polygon fill="none" stroke="black" points="541,-116 541,-146 792,-146 792,-116 541,-116"/>
<text text-anchor="start" x="549" y="-134" font-family="Helvetica,sans-Serif" font-size="10.00">aopp_deconv_tool.graphical</text>
<text text-anchor="middle" x="666.5" y="-123" font-family="Helvetica,sans-Serif" font-size="10.00">_frontends.ssa_filtering.RadioButtons.get_value</text>
</a>
</g>
</g>
<!-- Node1&#45;&gt;Node5 -->
<g id="edge4" class="edge">
<title>Node1&#45;&gt;Node5</title>
<path fill="none" stroke="midnightblue" d="M185.91,-148.99C207.24,-145.41 230.45,-142.03 252,-140 344.72,-131.26 449.63,-129.06 530.58,-129.03"/>
<polygon fill="midnightblue" stroke="midnightblue" points="530.83,-132.53 540.83,-129.03 530.83,-125.53 530.83,-132.53"/>
</g>
<!-- Node6 -->
<g id="node6" class="node">
<title>Node6</title>
<g id="a_node6"><a xlink:href="../../d9/d2e/classaopp__deconv__tool_1_1graphical__frontends_1_1ssa__filtering_1_1RadioButtons.html#a2013828f374523f17948da0b9a3c6b27" target="_top" xlink:title=" ">
<polygon fill="none" stroke="black" points="253,-61 253,-91 503,-91 503,-61 253,-61"/>
<text text-anchor="start" x="261" y="-79" font-family="Helvetica,sans-Serif" font-size="10.00">aopp_deconv_tool.graphical</text>
<text text-anchor="middle" x="378" y="-68" font-family="Helvetica,sans-Serif" font-size="10.00">_frontends.ssa_filtering.RadioButtons.set_value</text>
</a>
</g>
</g>
<!-- Node1&#45;&gt;Node6 -->
<g id="edge5" class="edge">
<title>Node1&#45;&gt;Node6</title>
<path fill="none" stroke="midnightblue" d="M142,-148.97C170.65,-136.32 213.48,-118.36 252,-106 266.07,-101.49 281.23,-97.3 295.96,-93.57"/>
<polygon fill="midnightblue" stroke="midnightblue" points="297.22,-96.87 306.08,-91.07 295.53,-90.07 297.22,-96.87"/>
</g>
<!-- Node8 -->
<g id="node8" class="node">
<title>Node8</title>
<g id="a_node8"><a xlink:href="../../da/d39/classaopp__deconv__tool_1_1graphical__frontends_1_1ssa__filtering_1_1WidgetBase.html#a862ab274604e45821e82c7d44517c1ec" target="_top" xlink:title=" ">
<polygon fill="none" stroke="black" points="293.5,-0.5 293.5,-41.5 462.5,-41.5 462.5,-0.5 293.5,-0.5"/>
<text text-anchor="start" x="301.5" y="-29.5" font-family="Helvetica,sans-Serif" font-size="10.00">aopp_deconv_tool.graphical</text>
<text text-anchor="start" x="301.5" y="-18.5" font-family="Helvetica,sans-Serif" font-size="10.00">_frontends.ssa_filtering.Widget</text>
<text text-anchor="middle" x="378" y="-7.5" font-family="Helvetica,sans-Serif" font-size="10.00">Base.set_value</text>
</a>
</g>
</g>
<!-- Node1&#45;&gt;Node8 -->
<g id="edge7" class="edge">
<title>Node1&#45;&gt;Node8</title>
<path fill="none" stroke="midnightblue" d="M123.75,-148.65C148.11,-124.2 199.34,-76.57 252,-51 261.94,-46.17 272.7,-42.09 283.61,-38.65"/>
<polygon fill="midnightblue" stroke="midnightblue" points="284.63,-42 293.21,-35.78 282.63,-35.29 284.63,-42"/>
</g>
<!-- Node9 -->
<g id="node9" class="node">
<title>Node9</title>
<g id="a_node9"><a xlink:href="../../d2/d2f/classaopp__deconv__tool_1_1graphical__frontends_1_1ssa__filtering_1_1CheckButtons.html#a83863b3a66516dfbfb8b24ae4c16e49e" target="_top" xlink:title=" ">
<polygon fill="none" stroke="black" points="252,-149 252,-179 504,-179 504,-149 252,-149"/>
<text text-anchor="start" x="260" y="-167" font-family="Helvetica,sans-Serif" font-size="10.00">aopp_deconv_tool.graphical</text>
<text text-anchor="middle" x="378" y="-156" font-family="Helvetica,sans-Serif" font-size="10.00">_frontends.ssa_filtering.CheckButtons.set_value</text>
</a>
</g>
</g>
<!-- Node1&#45;&gt;Node9 -->
<g id="edge8" class="edge">
<title>Node1&#45;&gt;Node9</title>
<path fill="none" stroke="midnightblue" d="M216.08,-164C224.56,-164 233.2,-164 241.85,-164"/>
<polygon fill="midnightblue" stroke="midnightblue" points="241.99,-167.5 251.99,-164 241.99,-160.5 241.99,-167.5"/>
</g>
<!-- Node7 -->
<g id="node7" class="node">
<title>Node7</title>
<g id="a_node7"><a xlink:href="../../da/d39/classaopp__deconv__tool_1_1graphical__frontends_1_1ssa__filtering_1_1WidgetBase.html#a8b5f0c98d3fd7534284c4151b2a942bc" target="_top" xlink:title=" ">
<polygon fill="none" stroke="black" points="582,-55.5 582,-96.5 751,-96.5 751,-55.5 582,-55.5"/>
<text text-anchor="start" x="590" y="-84.5" font-family="Helvetica,sans-Serif" font-size="10.00">aopp_deconv_tool.graphical</text>
<text text-anchor="start" x="590" y="-73.5" font-family="Helvetica,sans-Serif" font-size="10.00">_frontends.ssa_filtering.Widget</text>
<text text-anchor="middle" x="666.5" y="-62.5" font-family="Helvetica,sans-Serif" font-size="10.00">Base.set_active</text>
</a>
</g>
</g>
<!-- Node6&#45;&gt;Node7 -->
<g id="edge6" class="edge">
<title>Node6&#45;&gt;Node7</title>
<path fill="none" stroke="midnightblue" d="M503.41,-76C526.23,-76 549.69,-76 571.43,-76"/>
<polygon fill="midnightblue" stroke="midnightblue" points="571.62,-79.5 581.62,-76 571.62,-72.5 571.62,-79.5"/>
</g>
<!-- Node9&#45;&gt;Node2 -->
<g id="edge9" class="edge">
<title>Node9&#45;&gt;Node2</title>
<path fill="none" stroke="midnightblue" d="M401.22,-179.04C431.41,-198.85 487.65,-233.56 540,-254 550.25,-258 561.18,-261.57 572.17,-264.73"/>
<polygon fill="midnightblue" stroke="midnightblue" points="571.24,-268.1 581.81,-267.4 573.11,-261.36 571.24,-268.1"/>
</g>
<!-- Node9&#45;&gt;Node3 -->
<g id="edge10" class="edge">
<title>Node9&#45;&gt;Node3</title>
<path fill="none" stroke="midnightblue" d="M434.68,-179.06C465.6,-187.2 504.81,-197.16 540,-205 550.72,-207.39 561.98,-209.75 573.18,-212"/>
<polygon fill="midnightblue" stroke="midnightblue" points="572.5,-215.44 582.99,-213.96 573.87,-208.57 572.5,-215.44"/>
</g>
<!-- Node9&#45;&gt;Node4 -->
<g id="edge11" class="edge">
<title>Node9&#45;&gt;Node4</title>
<path fill="none" stroke="midnightblue" d="M504.25,-170.99C517.56,-171.74 531.09,-172.49 544.36,-173.24"/>
<polygon fill="midnightblue" stroke="midnightblue" points="544.27,-176.74 554.45,-173.8 544.66,-169.75 544.27,-176.74"/>
</g>
<!-- Node9&#45;&gt;Node5 -->
<g id="edge12" class="edge">
<title>Node9&#45;&gt;Node5</title>
<path fill="none" stroke="midnightblue" d="M504.25,-149.57C512.9,-148.58 521.65,-147.57 530.36,-146.57"/>
<polygon fill="midnightblue" stroke="midnightblue" points="531.02,-150.01 540.55,-145.39 530.22,-143.06 531.02,-150.01"/>
</g>
<!-- Node9&#45;&gt;Node7 -->
<g id="edge13" class="edge">
<title>Node9&#45;&gt;Node7</title>
<path fill="none" stroke="midnightblue" d="M418.01,-148.98C450.4,-136.8 497.82,-119.64 540,-107 550.29,-103.92 561.11,-100.9 571.92,-98.04"/>
<polygon fill="midnightblue" stroke="midnightblue" points="573.03,-101.37 581.82,-95.46 571.26,-94.6 573.03,-101.37"/>
</g>
</g>
</svg>
