<?xml version="1.0" encoding="UTF-8" standalone="no"?>
<!DOCTYPE svg PUBLIC "-//W3C//DTD SVG 1.1//EN"
 "http://www.w3.org/Graphics/SVG/1.1/DTD/svg11.dtd">
<!-- Generated by graphviz version 2.43.0 (0)
 -->
<!-- Title: aopp_deconv_tool.algorithm.deconv.clean_modified.CleanModified Pages: 1 -->
<svg width="793pt" height="619pt"
 viewBox="0.00 0.00 793.00 619.00" xmlns="http://www.w3.org/2000/svg" xmlns:xlink="http://www.w3.org/1999/xlink">
<g id="graph0" class="graph" transform="scale(1 1) rotate(0) translate(4 615)">
<title>aopp_deconv_tool.algorithm.deconv.clean_modified.CleanModified</title>
<!-- Node1 -->
<g id="Node000001" class="node">
<title>Node1</title>
<g id="a_Node000001"><a xlink:title=" ">
<polygon fill="#999999" stroke="#666666" points="785,-234 563,-234 563,-204 785,-204 785,-234"/>
<text text-anchor="start" x="571" y="-222" font-family="Helvetica,sans-Serif" font-size="10.00">aopp_deconv_tool.algorithm.deconv.clean</text>
<text text-anchor="middle" x="674" y="-211" font-family="Helvetica,sans-Serif" font-size="10.00">_modified.CleanModified</text>
</a>
</g>
</g>
<!-- Node2 -->
<g id="Node000002" class="node">
<title>Node2</title>
<g id="a_Node000002"><a xlink:href="../../d1/df9/classaopp__deconv__tool_1_1algorithm_1_1deconv_1_1base_1_1Base.html" target="_top" xlink:title=" ">
<polygon fill="white" stroke="#666666" points="411,-530.5 165,-530.5 165,-511.5 411,-511.5 411,-530.5"/>
<text text-anchor="middle" x="288" y="-518.5" font-family="Helvetica,sans-Serif" font-size="10.00">aopp_deconv_tool.algorithm.deconv.base.Base</text>
</a>
</g>
</g>
<!-- Node2&#45;&gt;Node1 -->
<g id="edge1_Node000001_Node000002" class="edge">
<title>Node2&#45;&gt;Node1</title>
<g id="a_edge1_Node000001_Node000002"><a xlink:title=" ">
<path fill="none" stroke="#63b8ff" d="M377.99,-508.91C389.39,-505.8 400.67,-501.9 411,-497 539.22,-436.16 636.16,-282.77 664.51,-234.08"/>
<polygon fill="#63b8ff" stroke="#63b8ff" points="376.81,-505.6 367.97,-511.44 378.52,-512.38 376.81,-505.6"/>
</a>
</g>
</g>
<!-- Node3 -->
<g id="Node000003" class="node">
<title>Node3</title>
<g id="a_Node000003"><a xlink:title=" ">
<polygon fill="white" stroke="#666666" points="35,-580.5 6,-580.5 6,-561.5 35,-561.5 35,-580.5"/>
<text text-anchor="middle" x="20.5" y="-568.5" font-family="Helvetica,sans-Serif" font-size="10.00">int</text>
</a>
</g>
</g>
<!-- Node3&#45;&gt;Node1 -->
<g id="edge6_Node000001_Node000003" class="edge">
<title>Node3&#45;&gt;Node1</title>
<g id="a_edge6_Node000001_Node000003"><a xlink:title=" ">
<path fill="none" stroke="#9a32cd" stroke-dasharray="5,2" d="M45.25,-577.59C49.78,-578.59 54.51,-579.47 59,-580 97.84,-584.6 108,-582.94 147,-580 265.34,-571.09 299.73,-581.27 411,-540 476.9,-515.56 496.93,-507.28 545,-456 611.04,-385.54 653.82,-274.54 667.9,-234.25"/>
<polygon fill="#9a32cd" stroke="#9a32cd" points="45.8,-574.12 35.25,-575.12 44.12,-580.91 45.8,-574.12"/>
</a>
</g>
<text text-anchor="middle" x="288" y="-603" font-family="Helvetica,sans-Serif" font-size="10.00" fill="grey"> _i_best</text>
<text text-anchor="middle" x="288" y="-592" font-family="Helvetica,sans-Serif" font-size="10.00" fill="grey">n_iter</text>
<text text-anchor="middle" x="288" y="-581" font-family="Helvetica,sans-Serif" font-size="10.00" fill="grey">n_positive_iter</text>
</g>
<!-- Node3&#45;&gt;Node2 -->
<g id="edge2_Node000002_Node000003" class="edge">
<title>Node3&#45;&gt;Node2</title>
<g id="a_edge2_Node000002_Node000003"><a xlink:title=" ">
<path fill="none" stroke="#9a32cd" stroke-dasharray="5,2" d="M41.64,-555.75C47.03,-552.35 53.03,-549.12 59,-547 92.32,-535.16 129.94,-528.41 164.87,-524.63"/>
<polygon fill="#9a32cd" stroke="#9a32cd" points="39.54,-552.95 33.26,-561.48 43.49,-558.73 39.54,-552.95"/>
</a>
</g>
<text text-anchor="middle" x="103" y="-572" font-family="Helvetica,sans-Serif" font-size="10.00" fill="grey"> _i</text>
<text text-anchor="middle" x="103" y="-561" font-family="Helvetica,sans-Serif" font-size="10.00" fill="grey">n_iter</text>
<text text-anchor="middle" x="103" y="-550" font-family="Helvetica,sans-Serif" font-size="10.00" fill="grey">n_iter_stopped</text>
</g>
<!-- Node4 -->
<g id="Node000004" class="node">
<title>Node4</title>
<g id="a_Node000004"><a xlink:title=" ">
<polygon fill="white" stroke="#666666" points="35,-521.5 6,-521.5 6,-502.5 35,-502.5 35,-521.5"/>
<text text-anchor="middle" x="20.5" y="-509.5" font-family="Helvetica,sans-Serif" font-size="10.00">str</text>
</a>
</g>
</g>
<!-- Node4&#45;&gt;Node2 -->
<g id="edge3_Node000002_Node000004" class="edge">
<title>Node4&#45;&gt;Node2</title>
<g id="a_edge3_Node000002_Node000004"><a xlink:title=" ">
<path fill="none" stroke="#9a32cd" stroke-dasharray="5,2" d="M45.15,-511.84C70.38,-511.76 111.53,-511.85 147,-513 152.84,-513.19 158.82,-513.41 164.85,-513.67"/>
<polygon fill="#9a32cd" stroke="#9a32cd" points="45.04,-508.34 35.06,-511.89 45.08,-515.34 45.04,-508.34"/>
</a>
</g>
<text text-anchor="middle" x="103" y="-516" font-family="Helvetica,sans-Serif" font-size="10.00" fill="grey"> progress_string</text>
</g>
<!-- Node5 -->
<g id="Node000005" class="node">
<title>Node5</title>
<g id="a_Node000005"><a xlink:title=" ">
<polygon fill="white" stroke="#666666" points="35,-406.5 6,-406.5 6,-387.5 35,-387.5 35,-406.5"/>
<text text-anchor="middle" x="20.5" y="-394.5" font-family="Helvetica,sans-Serif" font-size="10.00">np</text>
</a>
</g>
</g>
<!-- Node5&#45;&gt;Node1 -->
<g id="edge9_Node000001_Node000005" class="edge">
<title>Node5&#45;&gt;Node1</title>
<g id="a_edge9_Node000001_Node000005"><a xlink:title=" ">
<path fill="none" stroke="#9a32cd" stroke-dasharray="5,2" d="M45.54,-394.24C74.02,-391.03 122.92,-385.69 165,-382 249.33,-374.6 468.53,-391.31 545,-355 601.82,-328.02 646.03,-263.83 664.11,-234.32"/>
<polygon fill="#9a32cd" stroke="#9a32cd" points="44.88,-390.79 35.34,-395.4 45.67,-397.75 44.88,-390.79"/>
</a>
</g>
<text text-anchor="middle" x="288" y="-495" font-family="Helvetica,sans-Serif" font-size="10.00" fill="grey"> _accumulator</text>
<text text-anchor="middle" x="288" y="-484" font-family="Helvetica,sans-Serif" font-size="10.00" fill="grey">_components_best</text>
<text text-anchor="middle" x="288" y="-473" font-family="Helvetica,sans-Serif" font-size="10.00" fill="grey">_current_cleaned</text>
<text text-anchor="middle" x="288" y="-462" font-family="Helvetica,sans-Serif" font-size="10.00" fill="grey">_current_convolved</text>
<text text-anchor="middle" x="288" y="-451" font-family="Helvetica,sans-Serif" font-size="10.00" fill="grey">_obs</text>
<text text-anchor="middle" x="288" y="-440" font-family="Helvetica,sans-Serif" font-size="10.00" fill="grey">_psf</text>
<text text-anchor="middle" x="288" y="-429" font-family="Helvetica,sans-Serif" font-size="10.00" fill="grey">_residual_copy</text>
<text text-anchor="middle" x="288" y="-418" font-family="Helvetica,sans-Serif" font-size="10.00" fill="grey">_selected_map</text>
<text text-anchor="middle" x="288" y="-407" font-family="Helvetica,sans-Serif" font-size="10.00" fill="grey">_selected_px</text>
<text text-anchor="middle" x="288" y="-396" font-family="Helvetica,sans-Serif" font-size="10.00" fill="grey">_stats_best</text>
<text text-anchor="middle" x="288" y="-385" font-family="Helvetica,sans-Serif" font-size="10.00" fill="grey">...</text>
</g>
<!-- Node5&#45;&gt;Node2 -->
<g id="edge4_Node000002_Node000005" class="edge">
<title>Node5&#45;&gt;Node2</title>
<g id="a_edge4_Node000002_Node000005"><a xlink:title=" ">
<path fill="none" stroke="#9a32cd" stroke-dasharray="5,2" d="M45.09,-402.4C72.82,-409.86 118.64,-425.83 147,-455 161.16,-469.56 149.21,-484.23 165,-497 172.55,-503.11 181.22,-507.81 190.38,-511.41"/>
<polygon fill="#9a32cd" stroke="#9a32cd" points="45.64,-398.93 35.09,-399.87 43.92,-405.72 45.64,-398.93"/>
</a>
</g>
<text text-anchor="middle" x="103" y="-469" font-family="Helvetica,sans-Serif" font-size="10.00" fill="grey"> _components</text>
<text text-anchor="middle" x="103" y="-458" font-family="Helvetica,sans-Serif" font-size="10.00" fill="grey">_residual</text>
</g>
<!-- Node6 -->
<g id="Node000006" class="node">
<title>Node6</title>
<g id="a_Node000006"><a xlink:title=" ">
<polygon fill="white" stroke="#666666" points="38,-484.5 3,-484.5 3,-465.5 38,-465.5 38,-484.5"/>
<text text-anchor="middle" x="20.5" y="-472.5" font-family="Helvetica,sans-Serif" font-size="10.00">dict</text>
</a>
</g>
</g>
<!-- Node6&#45;&gt;Node2 -->
<g id="edge5_Node000002_Node000006" class="edge">
<title>Node6&#45;&gt;Node2</title>
<g id="a_edge5_Node000002_Node000006"><a xlink:title=" ">
<path fill="none" stroke="#9a32cd" stroke-dasharray="5,2" d="M48.14,-479.37C73.55,-483.56 112.91,-490.1 147,-496 175.95,-501.01 208.24,-506.76 234.5,-511.49"/>
<polygon fill="#9a32cd" stroke="#9a32cd" points="48.59,-475.9 38.16,-477.73 47.46,-482.81 48.59,-475.9"/>
</a>
</g>
<text text-anchor="middle" x="103" y="-499" font-family="Helvetica,sans-Serif" font-size="10.00" fill="grey"> _last_parameters</text>
</g>
<!-- Node7 -->
<g id="Node000007" class="node">
<title>Node7</title>
<g id="a_Node000007"><a xlink:title=" ">
<polygon fill="white" stroke="#666666" points="307,-246.5 269,-246.5 269,-227.5 307,-227.5 307,-246.5"/>
<text text-anchor="middle" x="288" y="-234.5" font-family="Helvetica,sans-Serif" font-size="10.00">float</text>
</a>
</g>
</g>
<!-- Node7&#45;&gt;Node1 -->
<g id="edge7_Node000001_Node000007" class="edge">
<title>Node7&#45;&gt;Node1</title>
<g id="a_edge7_Node000001_Node000007"><a xlink:title=" ">
<path fill="none" stroke="#9a32cd" stroke-dasharray="5,2" d="M317.26,-235.68C368.31,-233.28 478.45,-228.12 562.74,-224.17"/>
<polygon fill="#9a32cd" stroke="#9a32cd" points="316.83,-232.19 307.01,-236.16 317.16,-239.18 316.83,-232.19"/>
</a>
</g>
<text text-anchor="middle" x="487" y="-343" font-family="Helvetica,sans-Serif" font-size="10.00" fill="grey"> _fabs_threshold</text>
<text text-anchor="middle" x="487" y="-332" font-family="Helvetica,sans-Serif" font-size="10.00" fill="grey">_rms_threshold</text>
<text text-anchor="middle" x="487" y="-321" font-family="Helvetica,sans-Serif" font-size="10.00" fill="grey">clean_beam_sigma</text>
<text text-anchor="middle" x="487" y="-310" font-family="Helvetica,sans-Serif" font-size="10.00" fill="grey">fabs_frac_threshold</text>
<text text-anchor="middle" x="487" y="-299" font-family="Helvetica,sans-Serif" font-size="10.00" fill="grey">loop_gain</text>
<text text-anchor="middle" x="487" y="-288" font-family="Helvetica,sans-Serif" font-size="10.00" fill="grey">max_stat_increase</text>
<text text-anchor="middle" x="487" y="-277" font-family="Helvetica,sans-Serif" font-size="10.00" fill="grey">min_frac_stat_delta</text>
<text text-anchor="middle" x="487" y="-266" font-family="Helvetica,sans-Serif" font-size="10.00" fill="grey">noise_std</text>
<text text-anchor="middle" x="487" y="-255" font-family="Helvetica,sans-Serif" font-size="10.00" fill="grey">rms_frac_threshold</text>
<text text-anchor="middle" x="487" y="-244" font-family="Helvetica,sans-Serif" font-size="10.00" fill="grey">threshold</text>
<text text-anchor="middle" x="487" y="-233" font-family="Helvetica,sans-Serif" font-size="10.00" fill="grey">...</text>
</g>
<!-- Node8 -->
<g id="Node000008" class="node">
<title>Node8</title>
<g id="a_Node000008"><a xlink:title=" ">
<polygon fill="white" stroke="#666666" points="307,-209.5 269,-209.5 269,-190.5 307,-190.5 307,-209.5"/>
<text text-anchor="middle" x="288" y="-197.5" font-family="Helvetica,sans-Serif" font-size="10.00">bool</text>
</a>
</g>
</g>
<!-- Node8&#45;&gt;Node1 -->
<g id="edge8_Node000001_Node000008" class="edge">
<title>Node8&#45;&gt;Node1</title>
<g id="a_edge8_Node000001_Node000008"><a xlink:title=" ">
<path fill="none" stroke="#9a32cd" stroke-dasharray="5,2" d="M317.06,-200.81C364.19,-202.23 462.18,-205.47 545,-210 550.78,-210.32 556.71,-210.66 562.7,-211.03"/>
<polygon fill="#9a32cd" stroke="#9a32cd" points="317.11,-197.31 307.01,-200.51 316.9,-204.31 317.11,-197.31"/>
</a>
</g>
<text text-anchor="middle" x="487" y="-213" font-family="Helvetica,sans-Serif" font-size="10.00" fill="grey"> give_best_result</text>
</g>
<!-- Node9 -->
<g id="Node000009" class="node">
<title>Node9</title>
<g id="a_Node000009"><a xlink:title=" ">
<polygon fill="white" stroke="#666666" points="305.5,-114.5 270.5,-114.5 270.5,-95.5 305.5,-95.5 305.5,-114.5"/>
<text text-anchor="middle" x="288" y="-102.5" font-family="Helvetica,sans-Serif" font-size="10.00">Any</text>
</a>
</g>
</g>
<!-- Node9&#45;&gt;Node1 -->
<g id="edge10_Node000001_Node000009" class="edge">
<title>Node9&#45;&gt;Node1</title>
<g id="a_edge10_Node000001_Node000009"><a xlink:title=" ">
<path fill="none" stroke="#9a32cd" stroke-dasharray="5,2" d="M315.67,-102.06C363.39,-97.82 465.8,-93.47 545,-123 592.37,-140.66 637.08,-181.73 658.97,-204"/>
<polygon fill="#9a32cd" stroke="#9a32cd" points="315.17,-98.59 305.55,-103.03 315.84,-105.56 315.17,-98.59"/>
</a>
</g>
<text text-anchor="middle" x="487" y="-192" font-family="Helvetica,sans-Serif" font-size="10.00" fill="grey"> _choose_update_pixels</text>
<text text-anchor="middle" x="487" y="-181" font-family="Helvetica,sans-Serif" font-size="10.00" fill="grey">_flux_correction_factor</text>
<text text-anchor="middle" x="487" y="-170" font-family="Helvetica,sans-Serif" font-size="10.00" fill="grey">_get_pixel_threshold</text>
<text text-anchor="middle" x="487" y="-159" font-family="Helvetica,sans-Serif" font-size="10.00" fill="grey">_iter_stat_record</text>
<text text-anchor="start" x="429" y="-148" font-family="Helvetica,sans-Serif" font-size="10.00" fill="grey">_loop_gain_correction</text>
<text text-anchor="middle" x="487" y="-137" font-family="Helvetica,sans-Serif" font-size="10.00" fill="grey">_factor</text>
<text text-anchor="middle" x="487" y="-126" font-family="Helvetica,sans-Serif" font-size="10.00" fill="grey">_pixel_threshold</text>
</g>
<!-- Node10 -->
<g id="Node000010" class="node">
<title>Node10</title>
<g id="a_Node000010"><a xlink:title=" ">
<polygon fill="white" stroke="#666666" points="41,-56.5 0,-56.5 0,-37.5 41,-37.5 41,-56.5"/>
<text text-anchor="middle" x="20.5" y="-44.5" font-family="Helvetica,sans-Serif" font-size="10.00">tuple</text>
</a>
</g>
</g>
<!-- Node10&#45;&gt;Node1 -->
<g id="edge11_Node000001_Node000010" class="edge">
<title>Node10&#45;&gt;Node1</title>
<g id="a_edge11_Node000001_Node000010"><a xlink:title=" ">
<path fill="none" stroke="#9a32cd" stroke-dasharray="5,2" d="M51.26,-51.15C53.88,-51.46 56.48,-51.75 59,-52 274.79,-73.72 350.36,-0.33 545,-96 597.55,-121.83 642.61,-177.07 662.34,-203.84"/>
<polygon fill="#9a32cd" stroke="#9a32cd" points="51.68,-47.67 41.32,-49.89 50.8,-54.62 51.68,-47.67"/>
</a>
</g>
<text text-anchor="middle" x="288" y="-58" font-family="Helvetica,sans-Serif" font-size="10.00" fill="grey"> _iter_stat_names</text>
</g>
<!-- Node11 -->
<g id="Node000011" class="node">
<title>Node11</title>
<g id="a_Node000011"><a xlink:href="../../dd/de2/classaopp__deconv__tool_1_1data__structures_1_1pointer_1_1Pointer.html" target="_top" xlink:title=" ">
<polygon fill="white" stroke="#666666" points="360.5,-30 215.5,-30 215.5,0 360.5,0 360.5,-30"/>
<text text-anchor="start" x="223.5" y="-18" font-family="Helvetica,sans-Serif" font-size="10.00">aopp_deconv_tool.data</text>
<text text-anchor="middle" x="288" y="-7" font-family="Helvetica,sans-Serif" font-size="10.00">_structures.pointer.Pointer</text>
</a>
</g>
</g>
<!-- Node10&#45;&gt;Node11 -->
<g id="edge13_Node000011_Node000010" class="edge">
<title>Node10&#45;&gt;Node11</title>
<g id="a_edge13_Node000011_Node000010"><a xlink:title=" ">
<path fill="none" stroke="#9a32cd" stroke-dasharray="5,2" d="M51.26,-42.11C53.88,-41.72 56.49,-41.34 59,-41 111.2,-33.85 170.32,-27.15 215.27,-22.34"/>
<polygon fill="#9a32cd" stroke="#9a32cd" points="50.67,-38.66 41.33,-43.66 51.74,-45.58 50.67,-38.66"/>
</a>
</g>
<text text-anchor="middle" x="103" y="-44" font-family="Helvetica,sans-Serif" font-size="10.00" fill="grey"> __slots__</text>
</g>
<!-- Node11&#45;&gt;Node1 -->
<g id="edge12_Node000001_Node000011" class="edge">
<title>Node11&#45;&gt;Node1</title>
<g id="a_edge12_Node000001_Node000011"><a xlink:title=" ">
<path fill="none" stroke="#9a32cd" stroke-dasharray="5,2" d="M370.64,-6.73C423.69,-5.17 492.5,-10.64 545,-41 611.72,-79.59 652.98,-168.5 667.31,-203.98"/>
<polygon fill="#9a32cd" stroke="#9a32cd" points="370.44,-3.23 360.58,-7.11 370.71,-10.23 370.44,-3.23"/>
</a>
</g>
<text text-anchor="middle" x="487" y="-44" font-family="Helvetica,sans-Serif" font-size="10.00" fill="grey"> _px_choice_img_ptr</text>
</g>
</g>
</svg>
