<?xml version="1.0" encoding="UTF-8" standalone="no"?>
<!DOCTYPE svg PUBLIC "-//W3C//DTD SVG 1.1//EN"
 "http://www.w3.org/Graphics/SVG/1.1/DTD/svg11.dtd">
<!-- Generated by graphviz version 2.43.0 (0)
 -->
<!-- Title: IntVar Pages: 1 -->
<svg width="260pt" height="307pt"
 viewBox="0.00 0.00 260.00 306.50" xmlns="http://www.w3.org/2000/svg" xmlns:xlink="http://www.w3.org/1999/xlink">
<g id="graph0" class="graph" transform="scale(1 1) rotate(0) translate(4 302.5)">
<title>IntVar</title>
<!-- Node1 -->
<g id="node1" class="node">
<title>Node1</title>
<g id="a_node1"><a xlink:title=" ">
<polygon fill="#bfbfbf" stroke="black" points="0,-150.5 0,-169.5 46,-169.5 46,-150.5 0,-150.5"/>
<text text-anchor="middle" x="23" y="-157.5" font-family="Helvetica,sans-Serif" font-size="10.00">IntVar</text>
</a>
</g>
</g>
<!-- Node2 -->
<g id="node2" class="node">
<title>Node2</title>
<g id="a_node2"><a xlink:href="../../d5/d03/classaopp__deconv__tool_1_1psf__data__ops_1_1S.html" target="_top" xlink:title=" ">
<polygon fill="none" stroke="black" points="105.5,-268 105.5,-298 228.5,-298 228.5,-268 105.5,-268"/>
<text text-anchor="start" x="113.5" y="-286" font-family="Helvetica,sans-Serif" font-size="10.00">aopp_deconv_tool.psf</text>
<text text-anchor="middle" x="167" y="-275" font-family="Helvetica,sans-Serif" font-size="10.00">_data_ops.S</text>
</a>
</g>
</g>
<!-- Node1&#45;&gt;Node2 -->
<g id="edge1" class="edge">
<title>Node1&#45;&gt;Node2</title>
<path fill="none" stroke="midnightblue" d="M30.28,-179.26C38.58,-201.71 55.35,-238.33 82,-259 88.95,-264.39 97.07,-268.57 105.46,-271.81"/>
<polygon fill="midnightblue" stroke="midnightblue" points="33.48,-177.81 26.88,-169.52 26.87,-180.11 33.48,-177.81"/>
</g>
<!-- Node3 -->
<g id="node3" class="node">
<title>Node3</title>
<g id="a_node3"><a xlink:href="../../d6/db6/classaopp__deconv__tool_1_1psf__data__ops_1_1S1.html" target="_top" xlink:title=" ">
<polygon fill="none" stroke="black" points="105.5,-219 105.5,-249 228.5,-249 228.5,-219 105.5,-219"/>
<text text-anchor="start" x="113.5" y="-237" font-family="Helvetica,sans-Serif" font-size="10.00">aopp_deconv_tool.psf</text>
<text text-anchor="middle" x="167" y="-226" font-family="Helvetica,sans-Serif" font-size="10.00">_data_ops.S1</text>
</a>
</g>
</g>
<!-- Node1&#45;&gt;Node3 -->
<g id="edge2" class="edge">
<title>Node1&#45;&gt;Node3</title>
<path fill="none" stroke="midnightblue" d="M39.6,-176.81C50.53,-187.68 66,-201.36 82,-210 89.21,-213.89 97.11,-217.21 105.1,-220.02"/>
<polygon fill="midnightblue" stroke="midnightblue" points="41.98,-174.24 32.51,-169.5 36.96,-179.11 41.98,-174.24"/>
</g>
<!-- Node4 -->
<g id="node4" class="node">
<title>Node4</title>
<g id="a_node4"><a xlink:href="../../d9/d1a/classaopp__deconv__tool_1_1psf__model_1_1gaussian__psf__model_1_1S.html" target="_top" xlink:title=" ">
<polygon fill="none" stroke="black" points="85,-170 85,-200 249,-200 249,-170 85,-170"/>
<text text-anchor="start" x="93" y="-188" font-family="Helvetica,sans-Serif" font-size="10.00">aopp_deconv_tool.psf</text>
<text text-anchor="middle" x="167" y="-177" font-family="Helvetica,sans-Serif" font-size="10.00">_model.gaussian_psf_model.S</text>
</a>
</g>
</g>
<!-- Node1&#45;&gt;Node4 -->
<g id="edge3" class="edge">
<title>Node1&#45;&gt;Node4</title>
<path fill="none" stroke="midnightblue" d="M56.19,-165.67C64.9,-167.2 74.73,-168.93 84.84,-170.71"/>
<polygon fill="midnightblue" stroke="midnightblue" points="56.64,-162.19 46.19,-163.91 55.43,-169.09 56.64,-162.19"/>
</g>
<!-- Node5 -->
<g id="node5" class="node">
<title>Node5</title>
<g id="a_node5"><a xlink:href="../../da/dca/classaopp__deconv__tool_1_1psf__model_1_1gaussian__psf__model_1_1S1.html" target="_top" xlink:title=" ">
<polygon fill="none" stroke="black" points="82,-121 82,-151 252,-151 252,-121 82,-121"/>
<text text-anchor="start" x="90" y="-139" font-family="Helvetica,sans-Serif" font-size="10.00">aopp_deconv_tool.psf</text>
<text text-anchor="middle" x="167" y="-128" font-family="Helvetica,sans-Serif" font-size="10.00">_model.gaussian_psf_model.S1</text>
</a>
</g>
</g>
<!-- Node1&#45;&gt;Node5 -->
<g id="edge4" class="edge">
<title>Node1&#45;&gt;Node5</title>
<path fill="none" stroke="midnightblue" d="M56.22,-154.55C64.03,-153.23 72.75,-151.76 81.76,-150.24"/>
<polygon fill="midnightblue" stroke="midnightblue" points="55.46,-151.13 46.19,-156.25 56.63,-158.03 55.46,-151.13"/>
</g>
<!-- Node6 -->
<g id="node6" class="node">
<title>Node6</title>
<g id="a_node6"><a xlink:href="../../d0/dd1/classaopp__deconv__tool_1_1psf__model_1_1turbulence__psf__model_1_1S.html" target="_top" xlink:title=" ">
<polygon fill="none" stroke="black" points="103,-60.5 103,-101.5 231,-101.5 231,-60.5 103,-60.5"/>
<text text-anchor="start" x="111" y="-89.5" font-family="Helvetica,sans-Serif" font-size="10.00">aopp_deconv_tool.psf</text>
<text text-anchor="start" x="111" y="-78.5" font-family="Helvetica,sans-Serif" font-size="10.00">_model.turbulence_psf</text>
<text text-anchor="middle" x="167" y="-67.5" font-family="Helvetica,sans-Serif" font-size="10.00">_model.S</text>
</a>
</g>
</g>
<!-- Node1&#45;&gt;Node6 -->
<g id="edge5" class="edge">
<title>Node1&#45;&gt;Node6</title>
<path fill="none" stroke="midnightblue" d="M41.05,-143.25C52.03,-133.16 67.02,-120.63 82,-112 88.6,-108.2 95.75,-104.72 103,-101.57"/>
<polygon fill="midnightblue" stroke="midnightblue" points="38.36,-140.98 33.49,-150.39 43.17,-146.06 38.36,-140.98"/>
</g>
<!-- Node7 -->
<g id="node7" class="node">
<title>Node7</title>
<g id="a_node7"><a xlink:href="../../df/d2f/classaopp__deconv__tool_1_1psf__model_1_1turbulence__psf__model_1_1S1.html" target="_top" xlink:title=" ">
<polygon fill="none" stroke="black" points="103,-0.5 103,-41.5 231,-41.5 231,-0.5 103,-0.5"/>
<text text-anchor="start" x="111" y="-29.5" font-family="Helvetica,sans-Serif" font-size="10.00">aopp_deconv_tool.psf</text>
<text text-anchor="start" x="111" y="-18.5" font-family="Helvetica,sans-Serif" font-size="10.00">_model.turbulence_psf</text>
<text text-anchor="middle" x="167" y="-7.5" font-family="Helvetica,sans-Serif" font-size="10.00">_model.S1</text>
</a>
</g>
</g>
<!-- Node1&#45;&gt;Node7 -->
<g id="edge6" class="edge">
<title>Node1&#45;&gt;Node7</title>
<path fill="none" stroke="midnightblue" d="M29.55,-140.52C37.4,-116.29 54,-75.18 82,-51 88.09,-45.74 95.18,-41.37 102.6,-37.76"/>
<polygon fill="midnightblue" stroke="midnightblue" points="26.12,-139.76 26.54,-150.34 32.81,-141.8 26.12,-139.76"/>
</g>
</g>
</svg>
