<?xml version="1.0" encoding="UTF-8" standalone="no"?>
<!DOCTYPE svg PUBLIC "-//W3C//DTD SVG 1.1//EN"
 "http://www.w3.org/Graphics/SVG/1.1/DTD/svg11.dtd">
<!-- Generated by graphviz version 2.43.0 (0)
 -->
<!-- Title: IntVar Pages: 1 -->
<svg width="259pt" height="301pt"
 viewBox="0.00 0.00 259.00 300.50" xmlns="http://www.w3.org/2000/svg" xmlns:xlink="http://www.w3.org/1999/xlink">

<svg id="main" version="1.1" xmlns="http://www.w3.org/2000/svg" xmlns:xlink="http://www.w3.org/1999/xlink" xml:space="preserve" onload="init(evt)">
<style type="text/css"><![CDATA[
.node, .edge {opacity: 0.7;}
.node.selected, .edge.selected {opacity: 1;}
.edge:hover path { stroke: red; }
.edge:hover polygon { stroke: red; fill: red; }
]]></style>
<script type="application/ecmascript" xlink:href="../../svg.min.js"/>
<svg id="graph" class="graph">
<g id="graph0" class="graph" transform="scale(1 1) rotate(0) translate(4 296.5)">
<title>IntVar</title>
<!-- Node1 -->
<g id="Node000001" class="node">
<title>Node1</title>
<g id="a_Node000001"><a xlink:title=" ">
<polygon fill="#999999" stroke="#666666" points="45,-167 0,-167 0,-148 45,-148 45,-167"/>
<text text-anchor="middle" x="22.5" y="-155" font-family="Helvetica,sans-Serif" font-size="10.00">IntVar</text>
</a>
</g>
</g>
<!-- Node2 -->
<g id="Node000002" class="node">
<title>Node2</title>
<g id="a_Node000002"><a xlink:href="../../d5/d03/classaopp__deconv__tool_1_1psf__data__ops_1_1S.html" target="_top" xlink:title=" ">
<polygon fill="white" stroke="#666666" points="227.5,-292.5 104.5,-292.5 104.5,-262.5 227.5,-262.5 227.5,-292.5"/>
<text text-anchor="start" x="112.5" y="-280.5" font-family="Helvetica,sans-Serif" font-size="10.00">aopp_deconv_tool.psf</text>
<text text-anchor="middle" x="166" y="-269.5" font-family="Helvetica,sans-Serif" font-size="10.00">_data_ops.S</text>
</a>
</g>
</g>
<!-- Node1&#45;&gt;Node2 -->
<g id="edge1_Node000001_Node000002" class="edge">
<title>Node1&#45;&gt;Node2</title>
<g id="a_edge1_Node000001_Node000002"><a xlink:title=" ">
<path fill="none" stroke="#63b8ff" d="M29.97,-176.52C38.35,-198.31 55.04,-233.57 81,-253.5 87.86,-258.76 95.83,-262.87 104.07,-266.08"/>
<polygon fill="#63b8ff" stroke="#63b8ff" points="33.22,-175.23 26.52,-167.03 26.65,-177.62 33.22,-175.23"/>
</a>
</g>
</g>
<!-- Node3 -->
<g id="Node000003" class="node">
<title>Node3</title>
<g id="a_Node000003"><a xlink:href="../../d6/db6/classaopp__deconv__tool_1_1psf__data__ops_1_1S1.html" target="_top" xlink:title=" ">
<polygon fill="white" stroke="#666666" points="227.5,-244.5 104.5,-244.5 104.5,-214.5 227.5,-214.5 227.5,-244.5"/>
<text text-anchor="start" x="112.5" y="-232.5" font-family="Helvetica,sans-Serif" font-size="10.00">aopp_deconv_tool.psf</text>
<text text-anchor="middle" x="166" y="-221.5" font-family="Helvetica,sans-Serif" font-size="10.00">_data_ops.S1</text>
</a>
</g>
</g>
<!-- Node1&#45;&gt;Node3 -->
<g id="edge2_Node000001_Node000003" class="edge">
<title>Node1&#45;&gt;Node3</title>
<g id="a_edge2_Node000001_Node000003"><a xlink:title=" ">
<path fill="none" stroke="#63b8ff" d="M40.16,-174.66C50.95,-184.9 65.8,-197.45 81,-205.5 88.24,-209.33 96.16,-212.62 104.16,-215.41"/>
<polygon fill="#63b8ff" stroke="#63b8ff" points="42.34,-171.89 32.75,-167.38 37.43,-176.89 42.34,-171.89"/>
</a>
</g>
</g>
<!-- Node4 -->
<g id="Node000004" class="node">
<title>Node4</title>
<g id="a_Node000004"><a xlink:href="../../d9/d1a/classaopp__deconv__tool_1_1psf__model_1_1gaussian__psf__model_1_1S.html" target="_top" xlink:title=" ">
<polygon fill="white" stroke="#666666" points="248,-196.5 84,-196.5 84,-166.5 248,-166.5 248,-196.5"/>
<text text-anchor="start" x="92" y="-184.5" font-family="Helvetica,sans-Serif" font-size="10.00">aopp_deconv_tool.psf</text>
<text text-anchor="middle" x="166" y="-173.5" font-family="Helvetica,sans-Serif" font-size="10.00">_model.gaussian_psf_model.S</text>
</a>
</g>
</g>
<!-- Node1&#45;&gt;Node4 -->
<g id="edge3_Node000001_Node000004" class="edge">
<title>Node1&#45;&gt;Node4</title>
<g id="a_edge3_Node000001_Node000004"><a xlink:title=" ">
<path fill="none" stroke="#63b8ff" d="M55.25,-162.89C63.92,-164.36 73.73,-166.02 83.82,-167.73"/>
<polygon fill="#63b8ff" stroke="#63b8ff" points="55.74,-159.42 45.3,-161.2 54.57,-166.32 55.74,-159.42"/>
</a>
</g>
</g>
<!-- Node5 -->
<g id="Node000005" class="node">
<title>Node5</title>
<g id="a_Node000005"><a xlink:href="../../da/dca/classaopp__deconv__tool_1_1psf__model_1_1gaussian__psf__model_1_1S1.html" target="_top" xlink:title=" ">
<polygon fill="white" stroke="#666666" points="251,-148.5 81,-148.5 81,-118.5 251,-118.5 251,-148.5"/>
<text text-anchor="start" x="89" y="-136.5" font-family="Helvetica,sans-Serif" font-size="10.00">aopp_deconv_tool.psf</text>
<text text-anchor="middle" x="166" y="-125.5" font-family="Helvetica,sans-Serif" font-size="10.00">_model.gaussian_psf_model.S1</text>
</a>
</g>
</g>
<!-- Node1&#45;&gt;Node5 -->
<g id="edge4_Node000001_Node000005" class="edge">
<title>Node1&#45;&gt;Node5</title>
<g id="a_edge4_Node000001_Node000005"><a xlink:title=" ">
<path fill="none" stroke="#63b8ff" d="M55.28,-152.11C63.06,-150.79 71.75,-149.32 80.75,-147.79"/>
<polygon fill="#63b8ff" stroke="#63b8ff" points="54.57,-148.68 45.3,-153.8 55.74,-155.58 54.57,-148.68"/>
</a>
</g>
</g>
<!-- Node6 -->
<g id="Node000006" class="node">
<title>Node6</title>
<g id="a_Node000006"><a xlink:href="../../d0/dd1/classaopp__deconv__tool_1_1psf__model_1_1turbulence__psf__model_1_1S.html" target="_top" xlink:title=" ">
<polygon fill="white" stroke="#666666" points="230,-100 102,-100 102,-59 230,-59 230,-100"/>
<text text-anchor="start" x="110" y="-88" font-family="Helvetica,sans-Serif" font-size="10.00">aopp_deconv_tool.psf</text>
<text text-anchor="start" x="110" y="-77" font-family="Helvetica,sans-Serif" font-size="10.00">_model.turbulence_psf</text>
<text text-anchor="middle" x="166" y="-66" font-family="Helvetica,sans-Serif" font-size="10.00">_model.S</text>
</a>
</g>
</g>
<!-- Node1&#45;&gt;Node6 -->
<g id="edge5_Node000001_Node000006" class="edge">
<title>Node1&#45;&gt;Node6</title>
<g id="a_edge5_Node000001_Node000006"><a xlink:title=" ">
<path fill="none" stroke="#63b8ff" d="M40.34,-140.69C51.21,-130.57 66.07,-118.04 81,-109.5 87.59,-105.73 94.73,-102.31 101.98,-99.24"/>
<polygon fill="#63b8ff" stroke="#63b8ff" points="37.67,-138.4 32.87,-147.85 42.52,-143.45 37.67,-138.4"/>
</a>
</g>
</g>
<!-- Node7 -->
<g id="Node000007" class="node">
<title>Node7</title>
<g id="a_Node000007"><a xlink:href="../../df/d2f/classaopp__deconv__tool_1_1psf__model_1_1turbulence__psf__model_1_1S1.html" target="_top" xlink:title=" ">
<polygon fill="white" stroke="#666666" points="230,-41 102,-41 102,0 230,0 230,-41"/>
<text text-anchor="start" x="110" y="-29" font-family="Helvetica,sans-Serif" font-size="10.00">aopp_deconv_tool.psf</text>
<text text-anchor="start" x="110" y="-18" font-family="Helvetica,sans-Serif" font-size="10.00">_model.turbulence_psf</text>
<text text-anchor="middle" x="166" y="-7" font-family="Helvetica,sans-Serif" font-size="10.00">_model.S1</text>
</a>
</g>
</g>
<!-- Node1&#45;&gt;Node7 -->
<g id="edge6_Node000001_Node000007" class="edge">
<title>Node1&#45;&gt;Node7</title>
<g id="a_edge6_Node000001_Node000007"><a xlink:title=" ">
<path fill="none" stroke="#63b8ff" d="M29.17,-138.02C37.05,-114.19 53.55,-74.11 81,-50.5 87.1,-45.25 94.2,-40.89 101.62,-37.29"/>
<polygon fill="#63b8ff" stroke="#63b8ff" points="25.78,-137.12 26.14,-147.7 32.46,-139.2 25.78,-137.12"/>
</a>
</g>
</g>
</g>
</svg>
</svg>

<style type='text/css'>
<![CDATA[
[data-mouse-over-selected='false'] { opacity: 0.7; }
[data-mouse-over-selected='true']  { opacity: 1.0; }
]]>
</style>
<script type="application/ecmascript"><![CDATA[
document.addEventListener('DOMContentLoaded', (event) => {
  highlightEdges();
  highlightAdjacentNodes();
});
]]></script>
</svg>
