<?xml version="1.0" encoding="UTF-8" standalone="no"?>
<!DOCTYPE svg PUBLIC "-//W3C//DTD SVG 1.1//EN"
 "http://www.w3.org/Graphics/SVG/1.1/DTD/svg11.dtd">
<!-- Generated by graphviz version 2.43.0 (0)
 -->
<!-- Title: aopp_deconv_tool.psf_data_ops.fit_to_data Pages: 1 -->
<svg width="326pt" height="149pt"
 viewBox="0.00 0.00 326.00 148.50" xmlns="http://www.w3.org/2000/svg" xmlns:xlink="http://www.w3.org/1999/xlink">
<g id="graph0" class="graph" transform="scale(1 1) rotate(0) translate(4 144.5)">
<title>aopp_deconv_tool.psf_data_ops.fit_to_data</title>
<!-- Node1 -->
<g id="node1" class="node">
<title>Node1</title>
<g id="a_node1"><a xlink:title=" ">
<polygon fill="#bfbfbf" stroke="black" points="0,-49.5 0,-79.5 123,-79.5 123,-49.5 0,-49.5"/>
<text text-anchor="start" x="8" y="-67.5" font-family="Helvetica,sans-Serif" font-size="10.00">aopp_deconv_tool.psf</text>
<text text-anchor="middle" x="61.5" y="-56.5" font-family="Helvetica,sans-Serif" font-size="10.00">_data_ops.fit_to_data</text>
</a>
</g>
</g>
<!-- Node2 -->
<g id="node2" class="node">
<title>Node2</title>
<g id="a_node2"><a xlink:href="../../de/daa/namespaceaopp__deconv__tool_1_1psf__data__ops.html#aeeb273f603fa12765786ad7bdb87ee72" target="_top" xlink:title=" ">
<polygon fill="none" stroke="black" points="159,-99 159,-140 318,-140 318,-99 159,-99"/>
<text text-anchor="start" x="167" y="-128" font-family="Helvetica,sans-Serif" font-size="10.00">aopp_deconv_tool.psf</text>
<text text-anchor="start" x="167" y="-117" font-family="Helvetica,sans-Serif" font-size="10.00">_data_ops.objective_function</text>
<text text-anchor="middle" x="238.5" y="-106" font-family="Helvetica,sans-Serif" font-size="10.00">_factory</text>
</a>
</g>
</g>
<!-- Node1&#45;&gt;Node2 -->
<g id="edge1" class="edge">
<title>Node1&#45;&gt;Node2</title>
<path fill="none" stroke="midnightblue" d="M110.32,-79.53C126.37,-84.57 144.69,-90.33 162.32,-95.87"/>
<polygon fill="midnightblue" stroke="midnightblue" points="161.44,-99.26 172.03,-98.92 163.53,-92.58 161.44,-99.26"/>
</g>
<!-- Node3 -->
<g id="node3" class="node">
<title>Node3</title>
<g id="a_node3"><a xlink:href="../../da/dfc/namespaceaopp__deconv__tool_1_1py__svd.html#a25823459e22f98cda9bd9a0b4cea09a1" target="_top" xlink:title=" ">
<polygon fill="none" stroke="black" points="178.5,-49.5 178.5,-79.5 298.5,-79.5 298.5,-49.5 178.5,-49.5"/>
<text text-anchor="start" x="186.5" y="-67.5" font-family="Helvetica,sans-Serif" font-size="10.00">aopp_deconv_tool.py</text>
<text text-anchor="middle" x="238.5" y="-56.5" font-family="Helvetica,sans-Serif" font-size="10.00">_svd.plot</text>
</a>
</g>
</g>
<!-- Node1&#45;&gt;Node3 -->
<g id="edge2" class="edge">
<title>Node1&#45;&gt;Node3</title>
<path fill="none" stroke="midnightblue" d="M123.22,-64.5C137.73,-64.5 153.34,-64.5 168.21,-64.5"/>
<polygon fill="midnightblue" stroke="midnightblue" points="168.37,-68 178.37,-64.5 168.37,-61 168.37,-68"/>
</g>
<!-- Node4 -->
<g id="node4" class="node">
<title>Node4</title>
<g id="a_node4"><a xlink:href="../../de/db0/namespaceaopp__deconv__tool_1_1scipy__helper_1_1label__ops.html#ac2bf445a729acdf9c248252ac139ebbe" target="_top" xlink:title=" ">
<polygon fill="none" stroke="black" points="167,-0.5 167,-30.5 310,-30.5 310,-0.5 167,-0.5"/>
<text text-anchor="start" x="175" y="-18.5" font-family="Helvetica,sans-Serif" font-size="10.00">aopp_deconv_tool.scipy</text>
<text text-anchor="middle" x="238.5" y="-7.5" font-family="Helvetica,sans-Serif" font-size="10.00">_helper.label_ops.remove</text>
</a>
</g>
</g>
<!-- Node1&#45;&gt;Node4 -->
<g id="edge3" class="edge">
<title>Node1&#45;&gt;Node4</title>
<path fill="none" stroke="midnightblue" d="M116.43,-49.4C134.65,-44.3 155.15,-38.56 174.04,-33.27"/>
<polygon fill="midnightblue" stroke="midnightblue" points="175.06,-36.62 183.74,-30.55 173.17,-29.88 175.06,-36.62"/>
</g>
</g>
</svg>
