<?xml version="1.0" encoding="UTF-8" standalone="no"?>
<!DOCTYPE svg PUBLIC "-//W3C//DTD SVG 1.1//EN"
 "http://www.w3.org/Graphics/SVG/1.1/DTD/svg11.dtd">
<!-- Generated by graphviz version 2.43.0 (0)
 -->
<!-- Title: aopp_deconv_tool.psf_data_ops.fit_to_data Pages: 1 -->
<svg width="326pt" height="100pt"
 viewBox="0.00 0.00 326.00 99.50" xmlns="http://www.w3.org/2000/svg" xmlns:xlink="http://www.w3.org/1999/xlink">
<g id="graph0" class="graph" transform="scale(1 1) rotate(0) translate(4 95.5)">
<title>aopp_deconv_tool.psf_data_ops.fit_to_data</title>
<!-- Node1 -->
<g id="node1" class="node">
<title>Node1</title>
<g id="a_node1"><a xlink:title=" ">
<polygon fill="#bfbfbf" stroke="black" points="0,-27.5 0,-57.5 123,-57.5 123,-27.5 0,-27.5"/>
<text text-anchor="start" x="8" y="-45.5" font-family="Helvetica,sans-Serif" font-size="10.00">aopp_deconv_tool.psf</text>
<text text-anchor="middle" x="61.5" y="-34.5" font-family="Helvetica,sans-Serif" font-size="10.00">_data_ops.fit_to_data</text>
</a>
</g>
</g>
<!-- Node2 -->
<g id="node2" class="node">
<title>Node2</title>
<g id="a_node2"><a xlink:href="../../de/daa/namespaceaopp__deconv__tool_1_1psf__data__ops.html#aeeb273f603fa12765786ad7bdb87ee72" target="_top" xlink:title=" ">
<polygon fill="none" stroke="black" points="159,-50 159,-91 318,-91 318,-50 159,-50"/>
<text text-anchor="start" x="167" y="-79" font-family="Helvetica,sans-Serif" font-size="10.00">aopp_deconv_tool.psf</text>
<text text-anchor="start" x="167" y="-68" font-family="Helvetica,sans-Serif" font-size="10.00">_data_ops.objective_function</text>
<text text-anchor="middle" x="238.5" y="-57" font-family="Helvetica,sans-Serif" font-size="10.00">_factory</text>
</a>
</g>
</g>
<!-- Node1&#45;&gt;Node2 -->
<g id="edge1" class="edge">
<title>Node1&#45;&gt;Node2</title>
<path fill="none" stroke="midnightblue" d="M123.22,-52.21C131.45,-53.53 140.03,-54.9 148.63,-56.28"/>
<polygon fill="midnightblue" stroke="midnightblue" points="148.28,-59.77 158.71,-57.89 149.39,-52.86 148.28,-59.77"/>
</g>
<!-- Node3 -->
<g id="node3" class="node">
<title>Node3</title>
<g id="a_node3"><a xlink:href="../../de/db0/namespaceaopp__deconv__tool_1_1scipy__helper_1_1label__ops.html#ac2bf445a729acdf9c248252ac139ebbe" target="_top" xlink:title=" ">
<polygon fill="none" stroke="black" points="167,-0.5 167,-30.5 310,-30.5 310,-0.5 167,-0.5"/>
<text text-anchor="start" x="175" y="-18.5" font-family="Helvetica,sans-Serif" font-size="10.00">aopp_deconv_tool.scipy</text>
<text text-anchor="middle" x="238.5" y="-7.5" font-family="Helvetica,sans-Serif" font-size="10.00">_helper.label_ops.remove</text>
</a>
</g>
</g>
<!-- Node1&#45;&gt;Node3 -->
<g id="edge2" class="edge">
<title>Node1&#45;&gt;Node3</title>
<path fill="none" stroke="midnightblue" d="M123.22,-33.13C134.13,-31.45 145.67,-29.67 157.04,-27.91"/>
<polygon fill="midnightblue" stroke="midnightblue" points="157.63,-31.36 166.98,-26.38 156.56,-24.45 157.63,-31.36"/>
</g>
</g>
</svg>
