<?xml version="1.0" encoding="UTF-8" standalone="no"?>
<!DOCTYPE svg PUBLIC "-//W3C//DTD SVG 1.1//EN"
 "http://www.w3.org/Graphics/SVG/1.1/DTD/svg11.dtd">
<!-- Generated by graphviz version 2.43.0 (0)
 -->
<!-- Title: aopp_deconv_tool.image_processing.otsu_thresholding.calc Pages: 1 -->
<!--zoomable 257 -->
<svg id="main" version="1.1" xmlns="http://www.w3.org/2000/svg" xmlns:xlink="http://www.w3.org/1999/xlink" xml:space="preserve" onload="init(evt)">
<style type="text/css"><![CDATA[
.edge:hover path { stroke: red; }
.edge:hover polygon { stroke: red; fill: red; }
]]></style>
<script type="text/javascript"><![CDATA[
var edges = document.getElementsByTagName('g');
if (edges && edges.length) {
  for (var i=0;i<edges.length;i++) {
    if (edges[i].id.substr(0,4)=='edge') {
      edges[i].setAttribute('class','edge');
    }
  }
}
]]></script>
        <defs>
                <circle id="rim" cx="0" cy="0" r="7"/>
                <circle id="rim2" cx="0" cy="0" r="3.5"/>
                <g id="zoomPlus">
                        <use xlink:href="#rim" fill="#404040">
                                <set attributeName="fill" to="#808080" begin="zoomplus.mouseover" end="zoomplus.mouseout"/>
                        </use>
                        <path d="M-4,0h8M0,-4v8" fill="none" stroke="white" stroke-width="1.5" pointer-events="none"/>
                </g>
                <g id="zoomMin">
                        <use xlink:href="#rim" fill="#404040">
                                <set attributeName="fill" to="#808080" begin="zoomminus.mouseover" end="zoomminus.mouseout"/>
                        </use>
                        <path d="M-4,0h8" fill="none" stroke="white" stroke-width="1.5" pointer-events="none"/>
                </g>
                <g id="dirArrow">
                        <path fill="none" stroke="white" stroke-width="1.5" d="M0,-3.0v7 M-2.5,-0.5L0,-3.0L2.5,-0.5"/>
                </g>
               <g id="resetDef">
                       <use xlink:href="#rim2" fill="#404040">
                               <set attributeName="fill" to="#808080" begin="reset.mouseover" end="reset.mouseout"/>
                       </use>
               </g>
        </defs>

<script type="text/javascript">
var viewWidth = 642;
var viewHeight = 257;
var sectionId = 'dynsection-0';
</script>
<script xlink:href="../../svgpan.js"/>
<svg id="graph" class="graph">
<g id="viewport">
<title>aopp_deconv_tool.image_processing.otsu_thresholding.calc</title>
<!-- Node1 -->
<g id="node1" class="node">
<title>Node1</title>
<g id="a_node1"><a xlink:title=" ">
<polygon fill="#bfbfbf" stroke="black" points="447,-92.92 447,-122.92 634,-122.92 634,-92.92 447,-92.92"/>
<text text-anchor="start" x="455" y="-110.92" font-family="Helvetica,sans-Serif" font-size="10.00">aopp_deconv_tool.image</text>
<text text-anchor="middle" x="540.5" y="-99.92" font-family="Helvetica,sans-Serif" font-size="10.00">_processing.otsu_thresholding.calc</text>
</a>
</g>
</g>
<!-- Node2 -->
<g id="node2" class="node">
<title>Node2</title>
<g id="a_node2"><a xlink:href="../../d5/d78/namespaceaopp__deconv__tool_1_1image__processing_1_1otsu__thresholding.html#a22f5d4f005f2218b64302951d3873b9a" target="_top" xlink:title=" ">
<polygon fill="none" stroke="black" points="223.5,-207.42 223.5,-248.42 409.5,-248.42 409.5,-207.42 223.5,-207.42"/>
<text text-anchor="start" x="231.5" y="-236.42" font-family="Helvetica,sans-Serif" font-size="10.00">aopp_deconv_tool.image</text>
<text text-anchor="start" x="231.5" y="-225.42" font-family="Helvetica,sans-Serif" font-size="10.00">_processing.otsu_thresholding.frac</text>
<text text-anchor="middle" x="316.5" y="-214.42" font-family="Helvetica,sans-Serif" font-size="10.00">_per_fpix_threshold</text>
</a>
</g>
</g>
<!-- Node1&#45;&gt;Node2 -->
<g id="edge1" class="edge">
<title>Node1&#45;&gt;Node2</title>
<path fill="none" stroke="midnightblue" d="M513.57,-129.62C488.62,-149.62 449.14,-178.99 411,-197.92 404.13,-201.33 396.78,-204.47 389.34,-207.33"/>
<polygon fill="midnightblue" stroke="midnightblue" points="515.9,-132.24 521.46,-123.22 511.49,-126.8 515.9,-132.24"/>
</g>
<!-- Node3 -->
<g id="node3" class="node">
<title>Node3</title>
<g id="a_node3"><a xlink:href="../../d5/d78/namespaceaopp__deconv__tool_1_1image__processing_1_1otsu__thresholding.html#ab26822a35e0322a9f2d0f1de155814c9" target="_top" xlink:title=" ">
<polygon fill="none" stroke="black" points="222,-147.42 222,-188.42 411,-188.42 411,-147.42 222,-147.42"/>
<text text-anchor="start" x="230" y="-176.42" font-family="Helvetica,sans-Serif" font-size="10.00">aopp_deconv_tool.image</text>
<text text-anchor="start" x="230" y="-165.42" font-family="Helvetica,sans-Serif" font-size="10.00">_processing.otsu_thresholding.max</text>
<text text-anchor="middle" x="316.5" y="-154.42" font-family="Helvetica,sans-Serif" font-size="10.00">_frac_diff_threshold</text>
</a>
</g>
</g>
<!-- Node1&#45;&gt;Node3 -->
<g id="edge2" class="edge">
<title>Node1&#45;&gt;Node3</title>
<path fill="none" stroke="midnightblue" d="M473.92,-125.65C448.64,-132.48 419.56,-140.34 393.39,-147.41"/>
<polygon fill="midnightblue" stroke="midnightblue" points="475.03,-128.97 483.77,-122.99 473.2,-122.22 475.03,-128.97"/>
</g>
<!-- Node4 -->
<g id="node4" class="node">
<title>Node4</title>
<g id="a_node4"><a xlink:href="../../d5/d78/namespaceaopp__deconv__tool_1_1image__processing_1_1otsu__thresholding.html#a87f611c8cf03a9f630bc495f2e0cb411" target="_top" xlink:title=" ">
<polygon fill="none" stroke="black" points="222,-87.42 222,-128.42 411,-128.42 411,-87.42 222,-87.42"/>
<text text-anchor="start" x="230" y="-116.42" font-family="Helvetica,sans-Serif" font-size="10.00">aopp_deconv_tool.image</text>
<text text-anchor="start" x="230" y="-105.42" font-family="Helvetica,sans-Serif" font-size="10.00">_processing.otsu_thresholding.max</text>
<text text-anchor="middle" x="316.5" y="-94.42" font-family="Helvetica,sans-Serif" font-size="10.00">_frac_per_fpix_threshold</text>
</a>
</g>
</g>
<!-- Node1&#45;&gt;Node4 -->
<g id="edge3" class="edge">
<title>Node1&#45;&gt;Node4</title>
<path fill="none" stroke="midnightblue" d="M436.69,-107.92C428.23,-107.92 419.71,-107.92 411.32,-107.92"/>
<polygon fill="midnightblue" stroke="midnightblue" points="436.96,-111.42 446.96,-107.92 436.96,-104.42 436.96,-111.42"/>
</g>
<!-- Node5 -->
<g id="node5" class="node">
<title>Node5</title>
<g id="a_node5"><a xlink:href="../../d5/d78/namespaceaopp__deconv__tool_1_1image__processing_1_1otsu__thresholding.html#a207be5bc810a1726583a0e53a91a4dd8" target="_top" xlink:title=" ">
<polygon fill="none" stroke="black" points="230,-27.42 230,-68.42 403,-68.42 403,-27.42 230,-27.42"/>
<text text-anchor="start" x="238" y="-56.42" font-family="Helvetica,sans-Serif" font-size="10.00">aopp_deconv_tool.image</text>
<text text-anchor="start" x="238" y="-45.42" font-family="Helvetica,sans-Serif" font-size="10.00">_processing.otsu_thresholding.n</text>
<text text-anchor="middle" x="316.5" y="-34.42" font-family="Helvetica,sans-Serif" font-size="10.00">_thresholds</text>
</a>
</g>
</g>
<!-- Node1&#45;&gt;Node5 -->
<g id="edge4" class="edge">
<title>Node1&#45;&gt;Node5</title>
<path fill="none" stroke="midnightblue" d="M473.92,-90.2C448.64,-83.36 419.56,-75.51 393.39,-68.43"/>
<polygon fill="midnightblue" stroke="midnightblue" points="473.2,-93.63 483.77,-92.86 475.03,-86.87 473.2,-93.63"/>
</g>
<!-- Node6 -->
<g id="node6" class="node">
<title>Node6</title>
<g id="a_node6"><a xlink:href="../../d5/d78/namespaceaopp__deconv__tool_1_1image__processing_1_1otsu__thresholding.html#aa6ca62c3d059ab6a82b443936fdf40b3" target="_top" xlink:title=" ">
<polygon fill="none" stroke="black" points="0,-2.42 0,-43.42 186,-43.42 186,-2.42 0,-2.42"/>
<text text-anchor="start" x="8" y="-31.42" font-family="Helvetica,sans-Serif" font-size="10.00">aopp_deconv_tool.image</text>
<text text-anchor="start" x="8" y="-20.42" font-family="Helvetica,sans-Serif" font-size="10.00">_processing.otsu_thresholding.plot</text>
<text text-anchor="middle" x="93" y="-9.42" font-family="Helvetica,sans-Serif" font-size="10.00">_repeats</text>
</a>
</g>
</g>
<!-- Node1&#45;&gt;Node6 -->
<g id="edge6" class="edge">
<title>Node1&#45;&gt;Node6</title>
<path fill="none" stroke="midnightblue" d="M517.14,-85.68C493.22,-63.6 453.01,-31.17 411,-17.92 337.9,5.13 250.54,1.62 186.05,-6.37"/>
<polygon fill="midnightblue" stroke="midnightblue" points="514.94,-88.41 524.61,-92.73 519.74,-83.32 514.94,-88.41"/>
</g>
<!-- Node5&#45;&gt;Node6 -->
<g id="edge5" class="edge">
<title>Node5&#45;&gt;Node6</title>
<path fill="none" stroke="midnightblue" d="M219.68,-37.11C208.51,-35.85 197.13,-34.56 186.02,-33.31"/>
<polygon fill="midnightblue" stroke="midnightblue" points="219.53,-40.61 229.86,-38.26 220.32,-33.66 219.53,-40.61"/>
</g>
</g>
</svg>
        <g id="navigator" transform="translate(0 0)" fill="#404254">
                <rect fill="#f2f5e9" fill-opacity="0.5" stroke="#606060" stroke-width=".5" x="0" y="0" width="60" height="60"/>
                <use id="zoomplus" xlink:href="#zoomPlus" x="17" y="9" onmousedown="handleZoom(evt,'in')"/>
                <use id="zoomminus" xlink:href="#zoomMin" x="42" y="9" onmousedown="handleZoom(evt,'out')"/>
                <use id="reset" xlink:href="#resetDef" x="30" y="36" onmousedown="handleReset()"/>
                <g id="arrowUp" xlink:href="#dirArrow" transform="translate(30 24)" onmousedown="handlePan(0,-1)">
                  <use xlink:href="#rim" fill="#404040">
                        <set attributeName="fill" to="#808080" begin="arrowUp.mouseover" end="arrowUp.mouseout"/>
                  </use>
                  <path fill="none" stroke="white" stroke-width="1.5" d="M0,-3.0v7 M-2.5,-0.5L0,-3.0L2.5,-0.5"/>
                </g>
                <g id="arrowRight" xlink:href="#dirArrow" transform="rotate(90) translate(36 -43)" onmousedown="handlePan(1,0)">
                  <use xlink:href="#rim" fill="#404040">
                        <set attributeName="fill" to="#808080" begin="arrowRight.mouseover" end="arrowRight.mouseout"/>
                  </use>
                  <path fill="none" stroke="white" stroke-width="1.5" d="M0,-3.0v7 M-2.5,-0.5L0,-3.0L2.5,-0.5"/>
                </g>
                <g id="arrowDown" xlink:href="#dirArrow" transform="rotate(180) translate(-30 -48)" onmousedown="handlePan(0,1)">
                  <use xlink:href="#rim" fill="#404040">
                        <set attributeName="fill" to="#808080" begin="arrowDown.mouseover" end="arrowDown.mouseout"/>
                  </use>
                  <path fill="none" stroke="white" stroke-width="1.5" d="M0,-3.0v7 M-2.5,-0.5L0,-3.0L2.5,-0.5"/>
                </g>
                <g id="arrowLeft" xlink:href="#dirArrow" transform="rotate(270) translate(-36 17)" onmousedown="handlePan(-1,0)">
                  <use xlink:href="#rim" fill="#404040">
                        <set attributeName="fill" to="#808080" begin="arrowLeft.mouseover" end="arrowLeft.mouseout"/>
                  </use>
                  <path fill="none" stroke="white" stroke-width="1.5" d="M0,-3.0v7 M-2.5,-0.5L0,-3.0L2.5,-0.5"/>
                </g>
        </g>
        <svg viewBox="0 0 15 15" width="100%" height="30px" preserveAspectRatio="xMaxYMin meet">
         <g id="arrow_out" transform="scale(0.3 0.3)">
          <a xlink:href="namespaceaopp__deconv__tool_1_1image__processing_1_1otsu__thresholding_a2413532439200b57adce2b8c5b50a785_icgraph_org.svg" target="_base">
           <rect id="button" ry="5" rx="5" y="6" x="6" height="38" width="38"
                fill="#f2f5e9" fill-opacity="0.5" stroke="#606060" stroke-width="1.0"/>
           <path id="arrow"
             d="M 11.500037,31.436501 C 11.940474,20.09759 22.043105,11.32322 32.158766,21.979434 L 37.068811,17.246167 C 37.068811,17.246167 37.088388,32 37.088388,32 L 22.160133,31.978069 C 22.160133,31.978069 26.997745,27.140456 26.997745,27.140456 C 18.528582,18.264221 13.291696,25.230495 11.500037,31.436501 z"
             style="fill:#404040;"/>
          </a>
         </g>
        </svg>
</svg>
