<?xml version="1.0" encoding="UTF-8" standalone="no"?>
<!DOCTYPE svg PUBLIC "-//W3C//DTD SVG 1.1//EN"
 "http://www.w3.org/Graphics/SVG/1.1/DTD/svg11.dtd">
<!-- Generated by graphviz version 2.43.0 (0)
 -->
<!-- Title: aopp_deconv_tool.image_processing.otsu_thresholding.threshold Pages: 1 -->
<svg width="668pt" height="256pt"
 viewBox="0.00 0.00 668.00 255.57" xmlns="http://www.w3.org/2000/svg" xmlns:xlink="http://www.w3.org/1999/xlink">
<g id="graph0" class="graph" transform="scale(1 1) rotate(0) translate(4 251.57)">
<title>aopp_deconv_tool.image_processing.otsu_thresholding.threshold</title>
<!-- Node1 -->
<g id="node1" class="node">
<title>Node1</title>
<g id="a_node1"><a xlink:title=" ">
<polygon fill="#bfbfbf" stroke="black" points="447,-91.57 447,-121.57 660,-121.57 660,-91.57 447,-91.57"/>
<text text-anchor="start" x="455" y="-109.57" font-family="Helvetica,sans-Serif" font-size="10.00">aopp_deconv_tool.image</text>
<text text-anchor="middle" x="553.5" y="-98.57" font-family="Helvetica,sans-Serif" font-size="10.00">_processing.otsu_thresholding.threshold</text>
</a>
</g>
</g>
<!-- Node2 -->
<g id="node2" class="node">
<title>Node2</title>
<g id="a_node2"><a xlink:href="../../d5/d78/namespaceaopp__deconv__tool_1_1image__processing_1_1otsu__thresholding.html#a22f5d4f005f2218b64302951d3873b9a" target="_top" xlink:title=" ">
<polygon fill="none" stroke="black" points="223.5,-206.07 223.5,-247.07 409.5,-247.07 409.5,-206.07 223.5,-206.07"/>
<text text-anchor="start" x="231.5" y="-235.07" font-family="Helvetica,sans-Serif" font-size="10.00">aopp_deconv_tool.image</text>
<text text-anchor="start" x="231.5" y="-224.07" font-family="Helvetica,sans-Serif" font-size="10.00">_processing.otsu_thresholding.frac</text>
<text text-anchor="middle" x="316.5" y="-213.07" font-family="Helvetica,sans-Serif" font-size="10.00">_per_fpix_threshold</text>
</a>
</g>
</g>
<!-- Node1&#45;&gt;Node2 -->
<g id="edge1" class="edge">
<title>Node1&#45;&gt;Node2</title>
<path fill="none" stroke="midnightblue" d="M523.95,-127.83C496.23,-147.71 452.39,-177.16 411,-196.57 403.75,-199.97 396,-203.14 388.2,-206.04"/>
<polygon fill="midnightblue" stroke="midnightblue" points="526.32,-130.44 532.36,-121.74 522.21,-124.77 526.32,-130.44"/>
</g>
<!-- Node3 -->
<g id="node3" class="node">
<title>Node3</title>
<g id="a_node3"><a xlink:href="../../d5/d78/namespaceaopp__deconv__tool_1_1image__processing_1_1otsu__thresholding.html#ab26822a35e0322a9f2d0f1de155814c9" target="_top" xlink:title=" ">
<polygon fill="none" stroke="black" points="222,-146.07 222,-187.07 411,-187.07 411,-146.07 222,-146.07"/>
<text text-anchor="start" x="230" y="-175.07" font-family="Helvetica,sans-Serif" font-size="10.00">aopp_deconv_tool.image</text>
<text text-anchor="start" x="230" y="-164.07" font-family="Helvetica,sans-Serif" font-size="10.00">_processing.otsu_thresholding.max</text>
<text text-anchor="middle" x="316.5" y="-153.07" font-family="Helvetica,sans-Serif" font-size="10.00">_frac_diff_threshold</text>
</a>
</g>
</g>
<!-- Node1&#45;&gt;Node3 -->
<g id="edge2" class="edge">
<title>Node1&#45;&gt;Node3</title>
<path fill="none" stroke="midnightblue" d="M483.79,-124.12C456.86,-130.99 425.79,-138.92 397.84,-146.06"/>
<polygon fill="midnightblue" stroke="midnightblue" points="484.68,-127.5 493.5,-121.63 482.95,-120.72 484.68,-127.5"/>
</g>
<!-- Node4 -->
<g id="node4" class="node">
<title>Node4</title>
<g id="a_node4"><a xlink:href="../../d5/d78/namespaceaopp__deconv__tool_1_1image__processing_1_1otsu__thresholding.html#a87f611c8cf03a9f630bc495f2e0cb411" target="_top" xlink:title=" ">
<polygon fill="none" stroke="black" points="222,-86.07 222,-127.07 411,-127.07 411,-86.07 222,-86.07"/>
<text text-anchor="start" x="230" y="-115.07" font-family="Helvetica,sans-Serif" font-size="10.00">aopp_deconv_tool.image</text>
<text text-anchor="start" x="230" y="-104.07" font-family="Helvetica,sans-Serif" font-size="10.00">_processing.otsu_thresholding.max</text>
<text text-anchor="middle" x="316.5" y="-93.07" font-family="Helvetica,sans-Serif" font-size="10.00">_frac_per_fpix_threshold</text>
</a>
</g>
</g>
<!-- Node1&#45;&gt;Node4 -->
<g id="edge3" class="edge">
<title>Node1&#45;&gt;Node4</title>
<path fill="none" stroke="midnightblue" d="M436.41,-106.57C427.97,-106.57 419.53,-106.57 411.24,-106.57"/>
<polygon fill="midnightblue" stroke="midnightblue" points="436.69,-110.07 446.69,-106.57 436.69,-103.07 436.69,-110.07"/>
</g>
<!-- Node5 -->
<g id="node5" class="node">
<title>Node5</title>
<g id="a_node5"><a xlink:href="../../d5/d78/namespaceaopp__deconv__tool_1_1image__processing_1_1otsu__thresholding.html#a207be5bc810a1726583a0e53a91a4dd8" target="_top" xlink:title=" ">
<polygon fill="none" stroke="black" points="230,-26.07 230,-67.07 403,-67.07 403,-26.07 230,-26.07"/>
<text text-anchor="start" x="238" y="-55.07" font-family="Helvetica,sans-Serif" font-size="10.00">aopp_deconv_tool.image</text>
<text text-anchor="start" x="238" y="-44.07" font-family="Helvetica,sans-Serif" font-size="10.00">_processing.otsu_thresholding.n</text>
<text text-anchor="middle" x="316.5" y="-33.07" font-family="Helvetica,sans-Serif" font-size="10.00">_thresholds</text>
</a>
</g>
</g>
<!-- Node1&#45;&gt;Node5 -->
<g id="edge4" class="edge">
<title>Node1&#45;&gt;Node5</title>
<path fill="none" stroke="midnightblue" d="M483.79,-89.03C456.86,-82.15 425.79,-74.22 397.84,-67.08"/>
<polygon fill="midnightblue" stroke="midnightblue" points="482.95,-92.43 493.5,-91.51 484.68,-85.64 482.95,-92.43"/>
</g>
<!-- Node6 -->
<g id="node6" class="node">
<title>Node6</title>
<g id="a_node6"><a xlink:href="../../d5/d78/namespaceaopp__deconv__tool_1_1image__processing_1_1otsu__thresholding.html#aa6ca62c3d059ab6a82b443936fdf40b3" target="_top" xlink:title=" ">
<polygon fill="none" stroke="black" points="0,-1.07 0,-42.07 186,-42.07 186,-1.07 0,-1.07"/>
<text text-anchor="start" x="8" y="-30.07" font-family="Helvetica,sans-Serif" font-size="10.00">aopp_deconv_tool.image</text>
<text text-anchor="start" x="8" y="-19.07" font-family="Helvetica,sans-Serif" font-size="10.00">_processing.otsu_thresholding.plot</text>
<text text-anchor="middle" x="93" y="-8.07" font-family="Helvetica,sans-Serif" font-size="10.00">_repeats</text>
</a>
</g>
</g>
<!-- Node1&#45;&gt;Node6 -->
<g id="edge6" class="edge">
<title>Node1&#45;&gt;Node6</title>
<path fill="none" stroke="midnightblue" d="M528.15,-84.87C501.54,-62.74 456.6,-29.84 411,-16.57 337.54,4.81 250.4,1.5 186.09,-5.99"/>
<polygon fill="midnightblue" stroke="midnightblue" points="525.91,-87.56 535.8,-91.36 530.43,-82.22 525.91,-87.56"/>
</g>
<!-- Node5&#45;&gt;Node6 -->
<g id="edge5" class="edge">
<title>Node5&#45;&gt;Node6</title>
<path fill="none" stroke="midnightblue" d="M219.68,-35.76C208.51,-34.5 197.13,-33.21 186.02,-31.96"/>
<polygon fill="midnightblue" stroke="midnightblue" points="219.53,-39.26 229.86,-36.91 220.32,-32.31 219.53,-39.26"/>
</g>
</g>
</svg>
