<?xml version="1.0" encoding="UTF-8" standalone="no"?>
<!DOCTYPE svg PUBLIC "-//W3C//DTD SVG 1.1//EN"
 "http://www.w3.org/Graphics/SVG/1.1/DTD/svg11.dtd">
<!-- Generated by graphviz version 2.43.0 (0)
 -->
<!-- Title: aopp_deconv_tool.image_processing.otsu_thresholding.n_exact Pages: 1 -->
<svg width="450pt" height="98pt"
 viewBox="0.00 0.00 450.00 97.50" xmlns="http://www.w3.org/2000/svg" xmlns:xlink="http://www.w3.org/1999/xlink">
<g id="graph0" class="graph" transform="scale(1 1) rotate(0) translate(4 93.5)">
<title>aopp_deconv_tool.image_processing.otsu_thresholding.n_exact</title>
<!-- Node1 -->
<g id="Node000001" class="node">
<title>Node1</title>
<g id="a_Node000001"><a xlink:title=" ">
<polygon fill="#999999" stroke="#666666" points="206,-62.5 0,-62.5 0,-32.5 206,-32.5 206,-62.5"/>
<text text-anchor="start" x="8" y="-50.5" font-family="Helvetica,sans-Serif" font-size="10.00">aopp_deconv_tool.image</text>
<text text-anchor="middle" x="103" y="-39.5" font-family="Helvetica,sans-Serif" font-size="10.00">_processing.otsu_thresholding.n_exact</text>
</a>
</g>
</g>
<!-- Node2 -->
<g id="Node000002" class="node">
<title>Node2</title>
<g id="a_Node000002"><a xlink:href="../../d5/d78/namespaceaopp__deconv__tool_1_1image__processing_1_1otsu__thresholding.html#affda7e94232440a9215ae9c066d29a32" target="_top" xlink:title=" ">
<polygon fill="white" stroke="#666666" points="439,-89.5 245,-89.5 245,-59.5 439,-59.5 439,-89.5"/>
<text text-anchor="start" x="253" y="-77.5" font-family="Helvetica,sans-Serif" font-size="10.00">aopp_deconv_tool.image</text>
<text text-anchor="middle" x="342" y="-66.5" font-family="Helvetica,sans-Serif" font-size="10.00">_processing.otsu_thresholding.exact</text>
</a>
</g>
</g>
<!-- Node1&#45;&gt;Node2 -->
<g id="edge1_Node000001_Node000002" class="edge">
<title>Node1&#45;&gt;Node2</title>
<g id="a_edge1_Node000001_Node000002"><a xlink:title=" ">
<path fill="none" stroke="#63b8ff" d="M206.23,-59.15C215.61,-60.22 225.14,-61.3 234.56,-62.37"/>
<polygon fill="#63b8ff" stroke="#63b8ff" points="234.4,-65.88 244.73,-63.53 235.19,-58.92 234.4,-65.88"/>
</a>
</g>
</g>
<!-- Node3 -->
<g id="Node000003" class="node">
<title>Node3</title>
<g id="a_Node000003"><a xlink:href="../../d5/d78/namespaceaopp__deconv__tool_1_1image__processing_1_1otsu__thresholding.html#af70cc9112e267103ea058f9416d11e00" target="_top" xlink:title=" ">
<polygon fill="white" stroke="#666666" points="442,-41 242,-41 242,0 442,0 442,-41"/>
<text text-anchor="start" x="250" y="-29" font-family="Helvetica,sans-Serif" font-size="10.00">aopp_deconv_tool.image</text>
<text text-anchor="start" x="250" y="-18" font-family="Helvetica,sans-Serif" font-size="10.00">_processing.otsu_thresholding.masks</text>
<text text-anchor="middle" x="342" y="-7" font-family="Helvetica,sans-Serif" font-size="10.00">_from_thresholds</text>
</a>
</g>
</g>
<!-- Node1&#45;&gt;Node3 -->
<g id="edge2_Node000001_Node000003" class="edge">
<title>Node1&#45;&gt;Node3</title>
<g id="a_edge2_Node000001_Node000003"><a xlink:title=" ">
<path fill="none" stroke="#63b8ff" d="M206.23,-35.85C214.69,-34.89 223.27,-33.91 231.78,-32.94"/>
<polygon fill="#63b8ff" stroke="#63b8ff" points="232.2,-36.42 241.74,-31.81 231.4,-29.46 232.2,-36.42"/>
</a>
</g>
</g>
</g>
</svg>
