<?xml version="1.0" encoding="UTF-8" standalone="no"?>
<!DOCTYPE svg PUBLIC "-//W3C//DTD SVG 1.1//EN"
 "http://www.w3.org/Graphics/SVG/1.1/DTD/svg11.dtd">
<!-- Generated by graphviz version 2.43.0 (0)
 -->
<!-- Title: aopp_deconv_tool.image_processing.otsu_thresholding.plot_repeats Pages: 1 -->
<svg width="652pt" height="86pt"
 viewBox="0.00 0.00 652.00 86.00" xmlns="http://www.w3.org/2000/svg" xmlns:xlink="http://www.w3.org/1999/xlink">
<g id="graph0" class="graph" transform="scale(1 1) rotate(0) translate(4 82)">
<title>aopp_deconv_tool.image_processing.otsu_thresholding.plot_repeats</title>
<!-- Node1 -->
<g id="Node000001" class="node">
<title>Node1</title>
<g id="a_Node000001"><a xlink:title=" ">
<polygon fill="#999999" stroke="#666666" points="186,-59.5 0,-59.5 0,-18.5 186,-18.5 186,-59.5"/>
<text text-anchor="start" x="8" y="-47.5" font-family="Helvetica,sans-Serif" font-size="10.00">aopp_deconv_tool.image</text>
<text text-anchor="start" x="8" y="-36.5" font-family="Helvetica,sans-Serif" font-size="10.00">_processing.otsu_thresholding.plot</text>
<text text-anchor="middle" x="93" y="-25.5" font-family="Helvetica,sans-Serif" font-size="10.00">_repeats</text>
</a>
</g>
</g>
<!-- Node2 -->
<g id="Node000002" class="node">
<title>Node2</title>
<g id="a_Node000002"><a xlink:href="../../d5/d78/namespaceaopp__deconv__tool_1_1image__processing_1_1otsu__thresholding.html#a1ce2d1a05a5eb1eb5fc31949931eb7d1" target="_top" xlink:title=" ">
<polygon fill="white" stroke="#666666" points="631,-78 444,-78 444,-48 631,-48 631,-78"/>
<text text-anchor="start" x="452" y="-66" font-family="Helvetica,sans-Serif" font-size="10.00">aopp_deconv_tool.image</text>
<text text-anchor="middle" x="537.5" y="-55" font-family="Helvetica,sans-Serif" font-size="10.00">_processing.otsu_thresholding.calc</text>
</a>
</g>
</g>
<!-- Node1&#45;&gt;Node2 -->
<g id="edge1_Node000001_Node000002" class="edge">
<title>Node1&#45;&gt;Node2</title>
<g id="a_edge1_Node000001_Node000002"><a xlink:title=" ">
<path fill="none" stroke="#63b8ff" d="M168.62,-59.53C186.01,-63.46 204.54,-66.98 222,-69 292.4,-77.14 372.25,-75.49 433.87,-71.87"/>
<polygon fill="#63b8ff" stroke="#63b8ff" points="434.22,-75.36 443.99,-71.25 433.79,-68.37 434.22,-75.36"/>
</a>
</g>
</g>
<!-- Node3 -->
<g id="Node000003" class="node">
<title>Node3</title>
<g id="a_Node000003"><a xlink:href="../../d5/d78/namespaceaopp__deconv__tool_1_1image__processing_1_1otsu__thresholding.html#ad0498bff3e80a86d7d89d53782b24ad8" target="_top" xlink:title=" ">
<polygon fill="white" stroke="#666666" points="395,-59.5 222,-59.5 222,-18.5 395,-18.5 395,-59.5"/>
<text text-anchor="start" x="230" y="-47.5" font-family="Helvetica,sans-Serif" font-size="10.00">aopp_deconv_tool.image</text>
<text text-anchor="start" x="230" y="-36.5" font-family="Helvetica,sans-Serif" font-size="10.00">_processing.otsu_thresholding.n</text>
<text text-anchor="middle" x="308.5" y="-25.5" font-family="Helvetica,sans-Serif" font-size="10.00">_thresholds</text>
</a>
</g>
</g>
<!-- Node1&#45;&gt;Node3 -->
<g id="edge2_Node000001_Node000003" class="edge">
<title>Node1&#45;&gt;Node3</title>
<g id="a_edge2_Node000001_Node000003"><a xlink:title=" ">
<path fill="none" stroke="#63b8ff" d="M186.09,-39C194.52,-39 203.07,-39 211.52,-39"/>
<polygon fill="#63b8ff" stroke="#63b8ff" points="211.78,-42.5 221.78,-39 211.78,-35.5 211.78,-42.5"/>
</a>
</g>
</g>
<!-- Node4 -->
<g id="Node000004" class="node">
<title>Node4</title>
<g id="a_Node000004"><a xlink:href="../../d5/d78/namespaceaopp__deconv__tool_1_1image__processing_1_1otsu__thresholding.html#ad53a3471d5210b85785e4688b1b1cf30" target="_top" xlink:title=" ">
<polygon fill="white" stroke="#666666" points="644,-30 431,-30 431,0 644,0 644,-30"/>
<text text-anchor="start" x="439" y="-18" font-family="Helvetica,sans-Serif" font-size="10.00">aopp_deconv_tool.image</text>
<text text-anchor="middle" x="537.5" y="-7" font-family="Helvetica,sans-Serif" font-size="10.00">_processing.otsu_thresholding.threshold</text>
</a>
</g>
</g>
<!-- Node1&#45;&gt;Node4 -->
<g id="edge5_Node000001_Node000004" class="edge">
<title>Node1&#45;&gt;Node4</title>
<g id="a_edge5_Node000001_Node000004"><a xlink:title=" ">
<path fill="none" stroke="#63b8ff" d="M168.62,-18.47C186.01,-14.54 204.54,-11.02 222,-9 287.51,-1.43 361.2,-2.33 420.78,-5.4"/>
<polygon fill="#63b8ff" stroke="#63b8ff" points="420.79,-8.91 430.97,-5.96 421.17,-1.92 420.79,-8.91"/>
</a>
</g>
</g>
<!-- Node3&#45;&gt;Node2 -->
<g id="edge3_Node000003_Node000002" class="edge">
<title>Node3&#45;&gt;Node2</title>
<g id="a_edge3_Node000003_Node000002"><a xlink:title=" ">
<path fill="none" stroke="#63b8ff" d="M395.32,-48.07C407.8,-49.39 420.76,-50.76 433.54,-52.11"/>
<polygon fill="#63b8ff" stroke="#63b8ff" points="433.42,-55.62 443.74,-53.19 434.16,-48.66 433.42,-55.62"/>
</a>
</g>
</g>
<!-- Node3&#45;&gt;Node4 -->
<g id="edge4_Node000003_Node000004" class="edge">
<title>Node3&#45;&gt;Node4</title>
<g id="a_edge4_Node000003_Node000004"><a xlink:title=" ">
<path fill="none" stroke="#63b8ff" d="M395.32,-29.93C403.62,-29.05 412.13,-28.15 420.66,-27.25"/>
<polygon fill="#63b8ff" stroke="#63b8ff" points="421.1,-30.72 430.67,-26.19 420.36,-23.76 421.1,-30.72"/>
</a>
</g>
</g>
</g>
</svg>
