<?xml version="1.0" encoding="UTF-8" standalone="no"?>
<!DOCTYPE svg PUBLIC "-//W3C//DTD SVG 1.1//EN"
 "http://www.w3.org/Graphics/SVG/1.1/DTD/svg11.dtd">
<!-- Generated by graphviz version 2.43.0 (0)
 -->
<!-- Title: aopp_deconv_tool.image_processing.otsu_thresholding.plot_repeats Pages: 1 -->
<svg width="652pt" height="100pt"
 viewBox="0.00 0.00 652.00 100.00" xmlns="http://www.w3.org/2000/svg" xmlns:xlink="http://www.w3.org/1999/xlink">
<g id="graph0" class="graph" transform="scale(1 1) rotate(0) translate(4 96)">
<title>aopp_deconv_tool.image_processing.otsu_thresholding.plot_repeats</title>
<!-- Node1 -->
<g id="node1" class="node">
<title>Node1</title>
<g id="a_node1"><a xlink:title=" ">
<polygon fill="#bfbfbf" stroke="black" points="0,-32 0,-73 186,-73 186,-32 0,-32"/>
<text text-anchor="start" x="8" y="-61" font-family="Helvetica,sans-Serif" font-size="10.00">aopp_deconv_tool.image</text>
<text text-anchor="start" x="8" y="-50" font-family="Helvetica,sans-Serif" font-size="10.00">_processing.otsu_thresholding.plot</text>
<text text-anchor="middle" x="93" y="-39" font-family="Helvetica,sans-Serif" font-size="10.00">_repeats</text>
</a>
</g>
</g>
<!-- Node2 -->
<g id="node2" class="node">
<title>Node2</title>
<g id="a_node2"><a xlink:href="../../d5/d78/namespaceaopp__deconv__tool_1_1image__processing_1_1otsu__thresholding.html#a2413532439200b57adce2b8c5b50a785" target="_top" xlink:title=" ">
<polygon fill="none" stroke="black" points="444,-61.5 444,-91.5 631,-91.5 631,-61.5 444,-61.5"/>
<text text-anchor="start" x="452" y="-79.5" font-family="Helvetica,sans-Serif" font-size="10.00">aopp_deconv_tool.image</text>
<text text-anchor="middle" x="537.5" y="-68.5" font-family="Helvetica,sans-Serif" font-size="10.00">_processing.otsu_thresholding.calc</text>
</a>
</g>
</g>
<!-- Node1&#45;&gt;Node2 -->
<g id="edge1" class="edge">
<title>Node1&#45;&gt;Node2</title>
<path fill="none" stroke="midnightblue" d="M168.62,-73.03C186.01,-76.96 204.54,-80.48 222,-82.5 292.4,-90.64 372.25,-88.99 433.87,-85.37"/>
<polygon fill="midnightblue" stroke="midnightblue" points="434.22,-88.86 443.99,-84.75 433.79,-81.87 434.22,-88.86"/>
</g>
<!-- Node3 -->
<g id="node3" class="node">
<title>Node3</title>
<g id="a_node3"><a xlink:href="../../d5/d78/namespaceaopp__deconv__tool_1_1image__processing_1_1otsu__thresholding.html#a207be5bc810a1726583a0e53a91a4dd8" target="_top" xlink:title=" ">
<polygon fill="none" stroke="black" points="222,-32 222,-73 395,-73 395,-32 222,-32"/>
<text text-anchor="start" x="230" y="-61" font-family="Helvetica,sans-Serif" font-size="10.00">aopp_deconv_tool.image</text>
<text text-anchor="start" x="230" y="-50" font-family="Helvetica,sans-Serif" font-size="10.00">_processing.otsu_thresholding.n</text>
<text text-anchor="middle" x="308.5" y="-39" font-family="Helvetica,sans-Serif" font-size="10.00">_thresholds</text>
</a>
</g>
</g>
<!-- Node1&#45;&gt;Node3 -->
<g id="edge2" class="edge">
<title>Node1&#45;&gt;Node3</title>
<path fill="none" stroke="midnightblue" d="M186.09,-52.5C194.52,-52.5 203.07,-52.5 211.52,-52.5"/>
<polygon fill="midnightblue" stroke="midnightblue" points="211.78,-56 221.78,-52.5 211.78,-49 211.78,-56"/>
</g>
<!-- Node4 -->
<g id="node4" class="node">
<title>Node4</title>
<g id="a_node4"><a xlink:href="../../d5/d78/namespaceaopp__deconv__tool_1_1image__processing_1_1otsu__thresholding.html#abdbe5216a6f3901aad2e2220cbf92b61" target="_top" xlink:title=" ">
<polygon fill="none" stroke="black" points="431,-0.5 431,-30.5 644,-30.5 644,-0.5 431,-0.5"/>
<text text-anchor="start" x="439" y="-18.5" font-family="Helvetica,sans-Serif" font-size="10.00">aopp_deconv_tool.image</text>
<text text-anchor="middle" x="537.5" y="-7.5" font-family="Helvetica,sans-Serif" font-size="10.00">_processing.otsu_thresholding.threshold</text>
</a>
</g>
</g>
<!-- Node1&#45;&gt;Node4 -->
<g id="edge5" class="edge">
<title>Node1&#45;&gt;Node4</title>
<path fill="none" stroke="midnightblue" d="M170.01,-31.95C187,-28.12 205.02,-24.66 222,-22.5 287.43,-14.2 361.11,-12.17 420.71,-12.34"/>
<polygon fill="midnightblue" stroke="midnightblue" points="420.89,-15.85 430.9,-12.4 420.92,-8.85 420.89,-15.85"/>
</g>
<!-- Node3&#45;&gt;Node2 -->
<g id="edge3" class="edge">
<title>Node3&#45;&gt;Node2</title>
<path fill="none" stroke="midnightblue" d="M395.32,-61.57C407.8,-62.89 420.76,-64.26 433.54,-65.61"/>
<polygon fill="midnightblue" stroke="midnightblue" points="433.42,-69.12 443.74,-66.69 434.16,-62.16 433.42,-69.12"/>
</g>
<!-- Node3&#45;&gt;Node4 -->
<g id="edge4" class="edge">
<title>Node3&#45;&gt;Node4</title>
<path fill="none" stroke="midnightblue" d="M395.32,-38.51C408.03,-36.44 421.22,-34.29 434.23,-32.17"/>
<polygon fill="midnightblue" stroke="midnightblue" points="434.81,-35.62 444.12,-30.56 433.68,-28.71 434.81,-35.62"/>
</g>
</g>
</svg>
