<?xml version="1.0" encoding="UTF-8" standalone="no"?>
<!DOCTYPE svg PUBLIC "-//W3C//DTD SVG 1.1//EN"
 "http://www.w3.org/Graphics/SVG/1.1/DTD/svg11.dtd">
<!-- Generated by graphviz version 2.43.0 (0)
 -->
<!-- Title: aopp_deconv_tool.image_processing.otsu_thresholding.calc Pages: 1 -->
<svg width="642pt" height="252pt"
 viewBox="0.00 0.00 642.00 252.34" xmlns="http://www.w3.org/2000/svg" xmlns:xlink="http://www.w3.org/1999/xlink">
<g id="graph0" class="graph" transform="scale(1 1) rotate(0) translate(4 248.34)">
<title>aopp_deconv_tool.image_processing.otsu_thresholding.calc</title>
<!-- Node1 -->
<g id="Node000001" class="node">
<title>Node1</title>
<g id="a_Node000001"><a xlink:title=" ">
<polygon fill="#999999" stroke="#666666" points="634,-120.84 447,-120.84 447,-90.84 634,-90.84 634,-120.84"/>
<text text-anchor="start" x="455" y="-108.84" font-family="Helvetica,sans-Serif" font-size="10.00">aopp_deconv_tool.image</text>
<text text-anchor="middle" x="540.5" y="-97.84" font-family="Helvetica,sans-Serif" font-size="10.00">_processing.otsu_thresholding.calc</text>
</a>
</g>
</g>
<!-- Node2 -->
<g id="Node000002" class="node">
<title>Node2</title>
<g id="a_Node000002"><a xlink:href="../../d5/d78/namespaceaopp__deconv__tool_1_1image__processing_1_1otsu__thresholding.html#a582b48bbda7425290d71b2b25b6c5611" target="_top" xlink:title=" ">
<polygon fill="white" stroke="#666666" points="409.5,-244.34 223.5,-244.34 223.5,-203.34 409.5,-203.34 409.5,-244.34"/>
<text text-anchor="start" x="231.5" y="-232.34" font-family="Helvetica,sans-Serif" font-size="10.00">aopp_deconv_tool.image</text>
<text text-anchor="start" x="231.5" y="-221.34" font-family="Helvetica,sans-Serif" font-size="10.00">_processing.otsu_thresholding.frac</text>
<text text-anchor="middle" x="316.5" y="-210.34" font-family="Helvetica,sans-Serif" font-size="10.00">_per_fpix_threshold</text>
</a>
</g>
</g>
<!-- Node1&#45;&gt;Node2 -->
<g id="edge1_Node000001_Node000002" class="edge">
<title>Node1&#45;&gt;Node2</title>
<g id="a_edge1_Node000001_Node000002"><a xlink:title=" ">
<path fill="none" stroke="#63b8ff" d="M513.58,-127.36C488.62,-147.18 449.14,-176.26 411,-194.84 404.74,-197.89 398.08,-200.71 391.32,-203.29"/>
<polygon fill="#63b8ff" stroke="#63b8ff" points="515.86,-130.01 521.46,-121.02 511.47,-124.56 515.86,-130.01"/>
</a>
</g>
</g>
<!-- Node3 -->
<g id="Node000003" class="node">
<title>Node3</title>
<g id="a_Node000003"><a xlink:href="../../d5/d78/namespaceaopp__deconv__tool_1_1image__processing_1_1otsu__thresholding.html#a0e2c8878cb805362010a1ef5e112e293" target="_top" xlink:title=" ">
<polygon fill="white" stroke="#666666" points="411,-185.34 222,-185.34 222,-144.34 411,-144.34 411,-185.34"/>
<text text-anchor="start" x="230" y="-173.34" font-family="Helvetica,sans-Serif" font-size="10.00">aopp_deconv_tool.image</text>
<text text-anchor="start" x="230" y="-162.34" font-family="Helvetica,sans-Serif" font-size="10.00">_processing.otsu_thresholding.max</text>
<text text-anchor="middle" x="316.5" y="-151.34" font-family="Helvetica,sans-Serif" font-size="10.00">_frac_diff_threshold</text>
</a>
</g>
</g>
<!-- Node1&#45;&gt;Node3 -->
<g id="edge2_Node000001_Node000003" class="edge">
<title>Node1&#45;&gt;Node3</title>
<g id="a_edge2_Node000001_Node000003"><a xlink:title=" ">
<path fill="none" stroke="#63b8ff" d="M472.97,-123.52C448.41,-130.05 420.37,-137.5 394.93,-144.26"/>
<polygon fill="#63b8ff" stroke="#63b8ff" points="474.14,-126.83 482.91,-120.88 472.34,-120.06 474.14,-126.83"/>
</a>
</g>
</g>
<!-- Node4 -->
<g id="Node000004" class="node">
<title>Node4</title>
<g id="a_Node000004"><a xlink:href="../../d5/d78/namespaceaopp__deconv__tool_1_1image__processing_1_1otsu__thresholding.html#a058b025811ccc923d1c63cbbea1e3fcf" target="_top" xlink:title=" ">
<polygon fill="white" stroke="#666666" points="411,-126.34 222,-126.34 222,-85.34 411,-85.34 411,-126.34"/>
<text text-anchor="start" x="230" y="-114.34" font-family="Helvetica,sans-Serif" font-size="10.00">aopp_deconv_tool.image</text>
<text text-anchor="start" x="230" y="-103.34" font-family="Helvetica,sans-Serif" font-size="10.00">_processing.otsu_thresholding.max</text>
<text text-anchor="middle" x="316.5" y="-92.34" font-family="Helvetica,sans-Serif" font-size="10.00">_frac_per_fpix_threshold</text>
</a>
</g>
</g>
<!-- Node1&#45;&gt;Node4 -->
<g id="edge3_Node000001_Node000004" class="edge">
<title>Node1&#45;&gt;Node4</title>
<g id="a_edge3_Node000001_Node000004"><a xlink:title=" ">
<path fill="none" stroke="#63b8ff" d="M436.69,-105.84C428.23,-105.84 419.71,-105.84 411.32,-105.84"/>
<polygon fill="#63b8ff" stroke="#63b8ff" points="436.96,-109.34 446.96,-105.84 436.96,-102.34 436.96,-109.34"/>
</a>
</g>
</g>
<!-- Node5 -->
<g id="Node000005" class="node">
<title>Node5</title>
<g id="a_Node000005"><a xlink:href="../../d5/d78/namespaceaopp__deconv__tool_1_1image__processing_1_1otsu__thresholding.html#ad0498bff3e80a86d7d89d53782b24ad8" target="_top" xlink:title=" ">
<polygon fill="white" stroke="#666666" points="403,-67.34 230,-67.34 230,-26.34 403,-26.34 403,-67.34"/>
<text text-anchor="start" x="238" y="-55.34" font-family="Helvetica,sans-Serif" font-size="10.00">aopp_deconv_tool.image</text>
<text text-anchor="start" x="238" y="-44.34" font-family="Helvetica,sans-Serif" font-size="10.00">_processing.otsu_thresholding.n</text>
<text text-anchor="middle" x="316.5" y="-33.34" font-family="Helvetica,sans-Serif" font-size="10.00">_thresholds</text>
</a>
</g>
</g>
<!-- Node1&#45;&gt;Node5 -->
<g id="edge4_Node000001_Node000005" class="edge">
<title>Node1&#45;&gt;Node5</title>
<g id="a_edge4_Node000001_Node000005"><a xlink:title=" ">
<path fill="none" stroke="#63b8ff" d="M472.97,-88.16C448.41,-81.63 420.37,-74.18 394.93,-67.42"/>
<polygon fill="#63b8ff" stroke="#63b8ff" points="472.34,-91.61 482.91,-90.8 474.14,-84.85 472.34,-91.61"/>
</a>
</g>
</g>
<!-- Node6 -->
<g id="Node000006" class="node">
<title>Node6</title>
<g id="a_Node000006"><a xlink:href="../../d5/d78/namespaceaopp__deconv__tool_1_1image__processing_1_1otsu__thresholding.html#a76b0936539bf3615df910e80f935de4e" target="_top" xlink:title=" ">
<polygon fill="white" stroke="#666666" points="186,-42.34 0,-42.34 0,-1.34 186,-1.34 186,-42.34"/>
<text text-anchor="start" x="8" y="-30.34" font-family="Helvetica,sans-Serif" font-size="10.00">aopp_deconv_tool.image</text>
<text text-anchor="start" x="8" y="-19.34" font-family="Helvetica,sans-Serif" font-size="10.00">_processing.otsu_thresholding.plot</text>
<text text-anchor="middle" x="93" y="-8.34" font-family="Helvetica,sans-Serif" font-size="10.00">_repeats</text>
</a>
</g>
</g>
<!-- Node1&#45;&gt;Node6 -->
<g id="edge6_Node000001_Node000006" class="edge">
<title>Node1&#45;&gt;Node6</title>
<g id="a_edge6_Node000001_Node000006"><a xlink:title=" ">
<path fill="none" stroke="#63b8ff" d="M516.65,-83.72C492.6,-62.13 452.54,-30.7 411,-17.84 337.92,4.79 250.74,1.66 186.32,-5.92"/>
<polygon fill="#63b8ff" stroke="#63b8ff" points="514.43,-86.44 524.17,-90.63 519.17,-81.29 514.43,-86.44"/>
</a>
</g>
</g>
<!-- Node5&#45;&gt;Node6 -->
<g id="edge5_Node000005_Node000006" class="edge">
<title>Node5&#45;&gt;Node6</title>
<g id="a_edge5_Node000005_Node000006"><a xlink:title=" ">
<path fill="none" stroke="#63b8ff" d="M219.68,-36.02C208.51,-34.76 197.13,-33.48 186.02,-32.22"/>
<polygon fill="#63b8ff" stroke="#63b8ff" points="219.53,-39.53 229.86,-37.17 220.32,-32.57 219.53,-39.53"/>
</a>
</g>
</g>
</g>
</svg>
