<?xml version="1.0" encoding="UTF-8" standalone="no"?>
<!DOCTYPE svg PUBLIC "-//W3C//DTD SVG 1.1//EN"
 "http://www.w3.org/Graphics/SVG/1.1/DTD/svg11.dtd">
<!-- Generated by graphviz version 2.43.0 (0)
 -->
<!-- Title: aopp_deconv_tool.image_processing.otsu_thresholding.threshold Pages: 1 -->
<svg width="668pt" height="251pt"
 viewBox="0.00 0.00 668.00 251.00" xmlns="http://www.w3.org/2000/svg" xmlns:xlink="http://www.w3.org/1999/xlink">
<g id="graph0" class="graph" transform="scale(1 1) rotate(0) translate(4 247)">
<title>aopp_deconv_tool.image_processing.otsu_thresholding.threshold</title>
<!-- Node1 -->
<g id="Node000001" class="node">
<title>Node1</title>
<g id="a_Node000001"><a xlink:title=" ">
<polygon fill="#999999" stroke="#666666" points="660,-119.5 447,-119.5 447,-89.5 660,-89.5 660,-119.5"/>
<text text-anchor="start" x="455" y="-107.5" font-family="Helvetica,sans-Serif" font-size="10.00">aopp_deconv_tool.image</text>
<text text-anchor="middle" x="553.5" y="-96.5" font-family="Helvetica,sans-Serif" font-size="10.00">_processing.otsu_thresholding.threshold</text>
</a>
</g>
</g>
<!-- Node2 -->
<g id="Node000002" class="node">
<title>Node2</title>
<g id="a_Node000002"><a xlink:href="../../d5/d78/namespaceaopp__deconv__tool_1_1image__processing_1_1otsu__thresholding.html#a582b48bbda7425290d71b2b25b6c5611" target="_top" xlink:title=" ">
<polygon fill="white" stroke="#666666" points="409.5,-243 223.5,-243 223.5,-202 409.5,-202 409.5,-243"/>
<text text-anchor="start" x="231.5" y="-231" font-family="Helvetica,sans-Serif" font-size="10.00">aopp_deconv_tool.image</text>
<text text-anchor="start" x="231.5" y="-220" font-family="Helvetica,sans-Serif" font-size="10.00">_processing.otsu_thresholding.frac</text>
<text text-anchor="middle" x="316.5" y="-209" font-family="Helvetica,sans-Serif" font-size="10.00">_per_fpix_threshold</text>
</a>
</g>
</g>
<!-- Node1&#45;&gt;Node2 -->
<g id="edge1_Node000001_Node000002" class="edge">
<title>Node1&#45;&gt;Node2</title>
<g id="a_edge1_Node000001_Node000002"><a xlink:title=" ">
<path fill="none" stroke="#63b8ff" d="M523.96,-125.59C496.24,-145.3 452.4,-174.46 411,-193.5 404.51,-196.48 397.64,-199.27 390.68,-201.84"/>
<polygon fill="#63b8ff" stroke="#63b8ff" points="526.29,-128.23 532.37,-119.55 522.2,-122.54 526.29,-128.23"/>
</a>
</g>
</g>
<!-- Node3 -->
<g id="Node000003" class="node">
<title>Node3</title>
<g id="a_Node000003"><a xlink:href="../../d5/d78/namespaceaopp__deconv__tool_1_1image__processing_1_1otsu__thresholding.html#a0e2c8878cb805362010a1ef5e112e293" target="_top" xlink:title=" ">
<polygon fill="white" stroke="#666666" points="411,-184 222,-184 222,-143 411,-143 411,-184"/>
<text text-anchor="start" x="230" y="-172" font-family="Helvetica,sans-Serif" font-size="10.00">aopp_deconv_tool.image</text>
<text text-anchor="start" x="230" y="-161" font-family="Helvetica,sans-Serif" font-size="10.00">_processing.otsu_thresholding.max</text>
<text text-anchor="middle" x="316.5" y="-150" font-family="Helvetica,sans-Serif" font-size="10.00">_frac_diff_threshold</text>
</a>
</g>
</g>
<!-- Node1&#45;&gt;Node3 -->
<g id="edge2_Node000001_Node000003" class="edge">
<title>Node1&#45;&gt;Node3</title>
<g id="a_edge2_Node000001_Node000003"><a xlink:title=" ">
<path fill="none" stroke="#63b8ff" d="M482.77,-122.01C456.6,-128.58 426.64,-136.1 399.46,-142.92"/>
<polygon fill="#63b8ff" stroke="#63b8ff" points="483.74,-125.37 492.59,-119.54 482.04,-118.58 483.74,-125.37"/>
</a>
</g>
</g>
<!-- Node4 -->
<g id="Node000004" class="node">
<title>Node4</title>
<g id="a_Node000004"><a xlink:href="../../d5/d78/namespaceaopp__deconv__tool_1_1image__processing_1_1otsu__thresholding.html#a058b025811ccc923d1c63cbbea1e3fcf" target="_top" xlink:title=" ">
<polygon fill="white" stroke="#666666" points="411,-125 222,-125 222,-84 411,-84 411,-125"/>
<text text-anchor="start" x="230" y="-113" font-family="Helvetica,sans-Serif" font-size="10.00">aopp_deconv_tool.image</text>
<text text-anchor="start" x="230" y="-102" font-family="Helvetica,sans-Serif" font-size="10.00">_processing.otsu_thresholding.max</text>
<text text-anchor="middle" x="316.5" y="-91" font-family="Helvetica,sans-Serif" font-size="10.00">_frac_per_fpix_threshold</text>
</a>
</g>
</g>
<!-- Node1&#45;&gt;Node4 -->
<g id="edge3_Node000001_Node000004" class="edge">
<title>Node1&#45;&gt;Node4</title>
<g id="a_edge3_Node000001_Node000004"><a xlink:title=" ">
<path fill="none" stroke="#63b8ff" d="M436.41,-104.5C427.97,-104.5 419.53,-104.5 411.24,-104.5"/>
<polygon fill="#63b8ff" stroke="#63b8ff" points="436.69,-108 446.69,-104.5 436.69,-101 436.69,-108"/>
</a>
</g>
</g>
<!-- Node5 -->
<g id="Node000005" class="node">
<title>Node5</title>
<g id="a_Node000005"><a xlink:href="../../d5/d78/namespaceaopp__deconv__tool_1_1image__processing_1_1otsu__thresholding.html#ad0498bff3e80a86d7d89d53782b24ad8" target="_top" xlink:title=" ">
<polygon fill="white" stroke="#666666" points="403,-66 230,-66 230,-25 403,-25 403,-66"/>
<text text-anchor="start" x="238" y="-54" font-family="Helvetica,sans-Serif" font-size="10.00">aopp_deconv_tool.image</text>
<text text-anchor="start" x="238" y="-43" font-family="Helvetica,sans-Serif" font-size="10.00">_processing.otsu_thresholding.n</text>
<text text-anchor="middle" x="316.5" y="-32" font-family="Helvetica,sans-Serif" font-size="10.00">_thresholds</text>
</a>
</g>
</g>
<!-- Node1&#45;&gt;Node5 -->
<g id="edge4_Node000001_Node000005" class="edge">
<title>Node1&#45;&gt;Node5</title>
<g id="a_edge4_Node000001_Node000005"><a xlink:title=" ">
<path fill="none" stroke="#63b8ff" d="M482.77,-86.99C456.6,-80.42 426.64,-72.9 399.46,-66.08"/>
<polygon fill="#63b8ff" stroke="#63b8ff" points="482.04,-90.42 492.59,-89.46 483.74,-83.63 482.04,-90.42"/>
</a>
</g>
</g>
<!-- Node6 -->
<g id="Node000006" class="node">
<title>Node6</title>
<g id="a_Node000006"><a xlink:href="../../d5/d78/namespaceaopp__deconv__tool_1_1image__processing_1_1otsu__thresholding.html#a76b0936539bf3615df910e80f935de4e" target="_top" xlink:title=" ">
<polygon fill="white" stroke="#666666" points="186,-41 0,-41 0,0 186,0 186,-41"/>
<text text-anchor="start" x="8" y="-29" font-family="Helvetica,sans-Serif" font-size="10.00">aopp_deconv_tool.image</text>
<text text-anchor="start" x="8" y="-18" font-family="Helvetica,sans-Serif" font-size="10.00">_processing.otsu_thresholding.plot</text>
<text text-anchor="middle" x="93" y="-7" font-family="Helvetica,sans-Serif" font-size="10.00">_repeats</text>
</a>
</g>
</g>
<!-- Node1&#45;&gt;Node6 -->
<g id="edge6_Node000001_Node000006" class="edge">
<title>Node1&#45;&gt;Node6</title>
<g id="a_edge6_Node000001_Node000006"><a xlink:title=" ">
<path fill="none" stroke="#63b8ff" d="M527.27,-82.63C500.49,-61 455.93,-29.33 411,-16.5 337.44,4.51 250.3,1.52 186.02,-5.59"/>
<polygon fill="#63b8ff" stroke="#63b8ff" points="525.37,-85.6 535.31,-89.26 529.82,-80.2 525.37,-85.6"/>
</a>
</g>
</g>
<!-- Node5&#45;&gt;Node6 -->
<g id="edge5_Node000005_Node000006" class="edge">
<title>Node5&#45;&gt;Node6</title>
<g id="a_edge5_Node000005_Node000006"><a xlink:title=" ">
<path fill="none" stroke="#63b8ff" d="M219.68,-34.68C208.51,-33.42 197.13,-32.14 186.02,-30.89"/>
<polygon fill="#63b8ff" stroke="#63b8ff" points="219.53,-38.19 229.86,-35.83 220.32,-31.23 219.53,-38.19"/>
</a>
</g>
</g>
</g>
</svg>
