<?xml version="1.0" encoding="UTF-8" standalone="no"?>
<!DOCTYPE svg PUBLIC "-//W3C//DTD SVG 1.1//EN"
 "http://www.w3.org/Graphics/SVG/1.1/DTD/svg11.dtd">
<!-- Generated by graphviz version 2.43.0 (0)
 -->
<!-- Title: aopp_deconv_tool.image_processing.otsu_thresholding.n_exact Pages: 1 -->
<svg width="450pt" height="100pt"
 viewBox="0.00 0.00 450.00 99.50" xmlns="http://www.w3.org/2000/svg" xmlns:xlink="http://www.w3.org/1999/xlink">
<g id="graph0" class="graph" transform="scale(1 1) rotate(0) translate(4 95.5)">
<title>aopp_deconv_tool.image_processing.otsu_thresholding.n_exact</title>
<!-- Node1 -->
<g id="node1" class="node">
<title>Node1</title>
<g id="a_node1"><a xlink:title=" ">
<polygon fill="#bfbfbf" stroke="black" points="0,-33 0,-63 206,-63 206,-33 0,-33"/>
<text text-anchor="start" x="8" y="-51" font-family="Helvetica,sans-Serif" font-size="10.00">aopp_deconv_tool.image</text>
<text text-anchor="middle" x="103" y="-40" font-family="Helvetica,sans-Serif" font-size="10.00">_processing.otsu_thresholding.n_exact</text>
</a>
</g>
</g>
<!-- Node2 -->
<g id="node2" class="node">
<title>Node2</title>
<g id="a_node2"><a xlink:href="../../d5/d78/namespaceaopp__deconv__tool_1_1image__processing_1_1otsu__thresholding.html#affda7e94232440a9215ae9c066d29a32" target="_top" xlink:title=" ">
<polygon fill="none" stroke="black" points="245,-61 245,-91 439,-91 439,-61 245,-61"/>
<text text-anchor="start" x="253" y="-79" font-family="Helvetica,sans-Serif" font-size="10.00">aopp_deconv_tool.image</text>
<text text-anchor="middle" x="342" y="-68" font-family="Helvetica,sans-Serif" font-size="10.00">_processing.otsu_thresholding.exact</text>
</a>
</g>
</g>
<!-- Node1&#45;&gt;Node2 -->
<g id="edge1" class="edge">
<title>Node1&#45;&gt;Node2</title>
<path fill="none" stroke="midnightblue" d="M206.23,-60.08C215.61,-61.19 225.14,-62.31 234.56,-63.42"/>
<polygon fill="midnightblue" stroke="midnightblue" points="234.39,-66.93 244.73,-64.63 235.21,-59.98 234.39,-66.93"/>
</g>
<!-- Node3 -->
<g id="node3" class="node">
<title>Node3</title>
<g id="a_node3"><a xlink:href="../../d5/d78/namespaceaopp__deconv__tool_1_1image__processing_1_1otsu__thresholding.html#abc8995dd8111ef5e7c08b0e68de01966" target="_top" xlink:title=" ">
<polygon fill="none" stroke="black" points="242,-0.5 242,-41.5 442,-41.5 442,-0.5 242,-0.5"/>
<text text-anchor="start" x="250" y="-29.5" font-family="Helvetica,sans-Serif" font-size="10.00">aopp_deconv_tool.image</text>
<text text-anchor="start" x="250" y="-18.5" font-family="Helvetica,sans-Serif" font-size="10.00">_processing.otsu_thresholding.masks</text>
<text text-anchor="middle" x="342" y="-7.5" font-family="Helvetica,sans-Serif" font-size="10.00">_from_thresholds</text>
</a>
</g>
</g>
<!-- Node1&#45;&gt;Node3 -->
<g id="edge2" class="edge">
<title>Node1&#45;&gt;Node3</title>
<path fill="none" stroke="midnightblue" d="M206.23,-36.35C214.69,-35.39 223.27,-34.41 231.78,-33.44"/>
<polygon fill="midnightblue" stroke="midnightblue" points="232.2,-36.92 241.74,-32.31 231.4,-29.96 232.2,-36.92"/>
</g>
</g>
</svg>
