<?xml version="1.0" encoding="UTF-8" standalone="no"?>
<!DOCTYPE svg PUBLIC "-//W3C//DTD SVG 1.1//EN"
 "http://www.w3.org/Graphics/SVG/1.1/DTD/svg11.dtd">
<!-- Generated by graphviz version 2.43.0 (0)
 -->
<!-- Title: aopp_deconv_tool.graphical_frontends.ssa_filtering.WidgetBase.set_active Pages: 1 -->
<svg width="964pt" height="86pt"
 viewBox="0.00 0.00 964.00 86.00" xmlns="http://www.w3.org/2000/svg" xmlns:xlink="http://www.w3.org/1999/xlink">
<g id="graph0" class="graph" transform="scale(1 1) rotate(0) translate(4 82)">
<title>aopp_deconv_tool.graphical_frontends.ssa_filtering.WidgetBase.set_active</title>
<!-- Node1 -->
<g id="Node000001" class="node">
<title>Node1</title>
<g id="a_Node000001"><a xlink:title=" ">
<polygon fill="#999999" stroke="#666666" points="956,-59.5 788,-59.5 788,-18.5 956,-18.5 956,-59.5"/>
<text text-anchor="start" x="796" y="-47.5" font-family="Helvetica,sans-Serif" font-size="10.00">aopp_deconv_tool.graphical</text>
<text text-anchor="start" x="796" y="-36.5" font-family="Helvetica,sans-Serif" font-size="10.00">_frontends.ssa_filtering.Widget</text>
<text text-anchor="middle" x="872" y="-25.5" font-family="Helvetica,sans-Serif" font-size="10.00">Base.set_active</text>
</a>
</g>
</g>
<!-- Node1&#45;&gt;Node1 -->
<g id="edge1_Node000001_Node000001" class="edge">
<title>Node1&#45;&gt;Node1</title>
<g id="a_edge1_Node000001_Node000001"><a xlink:title=" ">
<path fill="none" stroke="#63b8ff" d="M913.98,-69.46C907.74,-74.24 893.74,-77.5 872,-77.5 837.21,-77.5 822.26,-69.15 827.15,-59.6"/>
<polygon fill="#63b8ff" stroke="#63b8ff" points="917.42,-70.18 916.85,-59.6 910.69,-68.22 917.42,-70.18"/>
</a>
</g>
</g>
<!-- Node2 -->
<g id="Node000002" class="node">
<title>Node2</title>
<g id="a_Node000002"><a xlink:href="../../d9/d2e/classaopp__deconv__tool_1_1graphical__frontends_1_1ssa__filtering_1_1RadioButtons.html#a0657025ad2cdd49dc0c3d199a76f02e2" target="_top" xlink:title=" ">
<polygon fill="white" stroke="#666666" points="751,-78 502,-78 502,-48 751,-48 751,-78"/>
<text text-anchor="start" x="510" y="-66" font-family="Helvetica,sans-Serif" font-size="10.00">aopp_deconv_tool.graphical</text>
<text text-anchor="middle" x="626.5" y="-55" font-family="Helvetica,sans-Serif" font-size="10.00">_frontends.ssa_filtering.RadioButtons.set_value</text>
</a>
</g>
</g>
<!-- Node1&#45;&gt;Node2 -->
<g id="edge2_Node000001_Node000002" class="edge">
<title>Node1&#45;&gt;Node2</title>
<g id="a_edge2_Node000001_Node000002"><a xlink:title=" ">
<path fill="none" stroke="#63b8ff" d="M777.77,-48.19C769.06,-49.05 760.15,-49.93 751.22,-50.81"/>
<polygon fill="#63b8ff" stroke="#63b8ff" points="778.27,-51.66 787.88,-47.19 777.59,-44.69 778.27,-51.66"/>
</a>
</g>
</g>
<!-- Node6 -->
<g id="Node000006" class="node">
<title>Node6</title>
<g id="a_Node000006"><a xlink:href="../../d2/d2f/classaopp__deconv__tool_1_1graphical__frontends_1_1ssa__filtering_1_1CheckButtons.html#a7ec932ab45bcc9e3ca7ff7d33a38dc46" target="_top" xlink:title=" ">
<polygon fill="white" stroke="#666666" points="752,-30 501,-30 501,0 752,0 752,-30"/>
<text text-anchor="start" x="509" y="-18" font-family="Helvetica,sans-Serif" font-size="10.00">aopp_deconv_tool.graphical</text>
<text text-anchor="middle" x="626.5" y="-7" font-family="Helvetica,sans-Serif" font-size="10.00">_frontends.ssa_filtering.CheckButtons.set_value</text>
</a>
</g>
</g>
<!-- Node1&#45;&gt;Node6 -->
<g id="edge8_Node000001_Node000006" class="edge">
<title>Node1&#45;&gt;Node6</title>
<g id="a_edge8_Node000001_Node000006"><a xlink:title=" ">
<path fill="none" stroke="#63b8ff" d="M777.73,-29.81C769.32,-28.98 760.71,-28.13 752.09,-27.28"/>
<polygon fill="#63b8ff" stroke="#63b8ff" points="777.59,-33.31 787.88,-30.81 778.27,-26.34 777.59,-33.31"/>
</a>
</g>
</g>
<!-- Node3 -->
<g id="Node000003" class="node">
<title>Node3</title>
<g id="a_Node000003"><a xlink:href="../../d5/d53/classaopp__deconv__tool_1_1graphical__frontends_1_1ssa__filtering_1_1Slider.html#ac053deeaf27504aac90059d271548268" target="_top" xlink:title=" ">
<polygon fill="white" stroke="#666666" points="463.5,-78 251.5,-78 251.5,-48 463.5,-48 463.5,-78"/>
<text text-anchor="start" x="259.5" y="-66" font-family="Helvetica,sans-Serif" font-size="10.00">aopp_deconv_tool.graphical</text>
<text text-anchor="middle" x="357.5" y="-55" font-family="Helvetica,sans-Serif" font-size="10.00">_frontends.ssa_filtering.Slider.set_limits</text>
</a>
</g>
</g>
<!-- Node2&#45;&gt;Node3 -->
<g id="edge3_Node000002_Node000003" class="edge">
<title>Node2&#45;&gt;Node3</title>
<g id="a_edge3_Node000002_Node000003"><a xlink:title=" ">
<path fill="none" stroke="#63b8ff" d="M491.64,-63C482.31,-63 472.97,-63 463.82,-63"/>
<polygon fill="#63b8ff" stroke="#63b8ff" points="491.77,-66.5 501.77,-63 491.77,-59.5 491.77,-66.5"/>
</a>
</g>
</g>
<!-- Node5 -->
<g id="Node000005" class="node">
<title>Node5</title>
<g id="a_Node000005"><a xlink:href="../../dc/d2e/classaopp__deconv__tool_1_1graphical__frontends_1_1ssa__filtering_1_1Range.html#ad2d49047d340c025b38fe5f7a8ac6b17" target="_top" xlink:title=" ">
<polygon fill="white" stroke="#666666" points="465,-30 250,-30 250,0 465,0 465,-30"/>
<text text-anchor="start" x="258" y="-18" font-family="Helvetica,sans-Serif" font-size="10.00">aopp_deconv_tool.graphical</text>
<text text-anchor="middle" x="357.5" y="-7" font-family="Helvetica,sans-Serif" font-size="10.00">_frontends.ssa_filtering.Range.set_limits</text>
</a>
</g>
</g>
<!-- Node2&#45;&gt;Node5 -->
<g id="edge6_Node000002_Node000005" class="edge">
<title>Node2&#45;&gt;Node5</title>
<g id="a_edge6_Node000002_Node000005"><a xlink:title=" ">
<path fill="none" stroke="#63b8ff" d="M531.55,-46.11C502.35,-40.86 470.38,-35.11 441.95,-30"/>
<polygon fill="#63b8ff" stroke="#63b8ff" points="531.29,-49.62 541.75,-47.94 532.53,-42.73 531.29,-49.62"/>
</a>
</g>
</g>
<!-- Node4 -->
<g id="Node000004" class="node">
<title>Node4</title>
<g id="a_Node000004"><a xlink:href="../../d5/d53/classaopp__deconv__tool_1_1graphical__frontends_1_1ssa__filtering_1_1Slider.html#ac3e9379fd1ef597ccb25e7a848f9dbd6" target="_top" xlink:title=" ">
<polygon fill="white" stroke="#666666" points="214,-54 0,-54 0,-24 214,-24 214,-54"/>
<text text-anchor="start" x="8" y="-42" font-family="Helvetica,sans-Serif" font-size="10.00">aopp_deconv_tool.graphical</text>
<text text-anchor="middle" x="107" y="-31" font-family="Helvetica,sans-Serif" font-size="10.00">_frontends.ssa_filtering.Slider.set_active</text>
</a>
</g>
</g>
<!-- Node3&#45;&gt;Node4 -->
<g id="edge4_Node000003_Node000004" class="edge">
<title>Node3&#45;&gt;Node4</title>
<g id="a_edge4_Node000003_Node000004"><a xlink:title=" ">
<path fill="none" stroke="#63b8ff" d="M241.32,-51.88C232.29,-51 223.2,-50.13 214.24,-49.26"/>
<polygon fill="#63b8ff" stroke="#63b8ff" points="241.18,-55.38 251.47,-52.86 241.86,-48.41 241.18,-55.38"/>
</a>
</g>
</g>
<!-- Node4&#45;&gt;Node4 -->
<g id="edge5_Node000004_Node000004" class="edge">
<title>Node4&#45;&gt;Node4</title>
<g id="a_edge5_Node000004_Node000004"><a xlink:title=" ">
<path fill="none" stroke="#63b8ff" d="M150.76,-64.6C144.78,-68.97 130.19,-72 107,-72 67.94,-72 53.29,-63.41 63.05,-54.28"/>
<polygon fill="#63b8ff" stroke="#63b8ff" points="154.26,-64.34 150.95,-54.28 147.27,-64.21 154.26,-64.34"/>
</a>
</g>
</g>
<!-- Node5&#45;&gt;Node4 -->
<g id="edge7_Node000005_Node000004" class="edge">
<title>Node5&#45;&gt;Node4</title>
<g id="a_edge7_Node000005_Node000004"><a xlink:title=" ">
<path fill="none" stroke="#63b8ff" d="M239.48,-26.3C231.09,-27.11 222.66,-27.93 214.34,-28.73"/>
<polygon fill="#63b8ff" stroke="#63b8ff" points="240.05,-29.76 249.67,-25.32 239.38,-22.8 240.05,-29.76"/>
</a>
</g>
</g>
<!-- Node6&#45;&gt;Node3 -->
<g id="edge9_Node000006_Node000003" class="edge">
<title>Node6&#45;&gt;Node3</title>
<g id="a_edge9_Node000006_Node000003"><a xlink:title=" ">
<path fill="none" stroke="#63b8ff" d="M531.55,-31.89C502.35,-37.14 470.38,-42.89 441.95,-48"/>
<polygon fill="#63b8ff" stroke="#63b8ff" points="532.53,-35.27 541.75,-30.06 531.29,-28.38 532.53,-35.27"/>
</a>
</g>
</g>
<!-- Node6&#45;&gt;Node5 -->
<g id="edge10_Node000006_Node000005" class="edge">
<title>Node6&#45;&gt;Node5</title>
<g id="a_edge10_Node000006_Node000005"><a xlink:title=" ">
<path fill="none" stroke="#63b8ff" d="M490.88,-15C482.26,-15 473.65,-15 465.19,-15"/>
<polygon fill="#63b8ff" stroke="#63b8ff" points="490.99,-18.5 500.99,-15 490.99,-11.5 490.99,-18.5"/>
</a>
</g>
</g>
</g>
</svg>
