<?xml version="1.0" encoding="UTF-8" standalone="no"?>
<!DOCTYPE svg PUBLIC "-//W3C//DTD SVG 1.1//EN"
 "http://www.w3.org/Graphics/SVG/1.1/DTD/svg11.dtd">
<!-- Generated by graphviz version 2.43.0 (0)
 -->
<!-- Title: aopp_deconv_tool.graphical_frontends.ssa_filtering.WidgetBase.get_value Pages: 1 -->
<svg width="964pt" height="178pt"
 viewBox="0.00 0.00 964.00 177.50" xmlns="http://www.w3.org/2000/svg" xmlns:xlink="http://www.w3.org/1999/xlink">
<g id="graph0" class="graph" transform="scale(1 1) rotate(0) translate(4 173.5)">
<title>aopp_deconv_tool.graphical_frontends.ssa_filtering.WidgetBase.get_value</title>
<!-- Node1 -->
<g id="Node000001" class="node">
<title>Node1</title>
<g id="a_Node000001"><a xlink:title=" ">
<polygon fill="#999999" stroke="#666666" points="956,-80.5 788,-80.5 788,-39.5 956,-39.5 956,-80.5"/>
<text text-anchor="start" x="796" y="-68.5" font-family="Helvetica,sans-Serif" font-size="10.00">aopp_deconv_tool.graphical</text>
<text text-anchor="start" x="796" y="-57.5" font-family="Helvetica,sans-Serif" font-size="10.00">_frontends.ssa_filtering.Widget</text>
<text text-anchor="middle" x="872" y="-46.5" font-family="Helvetica,sans-Serif" font-size="10.00">Base.get_value</text>
</a>
</g>
</g>
<!-- Node2 -->
<g id="Node000002" class="node">
<title>Node2</title>
<g id="a_Node000002"><a xlink:href="../../d2/d2f/classaopp__deconv__tool_1_1graphical__frontends_1_1ssa__filtering_1_1CheckButtons.html#aa7b2c74c678f3e93797b319fe3014704" target="_top" xlink:title=" ">
<polygon fill="white" stroke="#666666" points="734.5,-151.5 518.5,-151.5 518.5,-110.5 734.5,-110.5 734.5,-151.5"/>
<text text-anchor="start" x="526.5" y="-139.5" font-family="Helvetica,sans-Serif" font-size="10.00">aopp_deconv_tool.graphical</text>
<text text-anchor="start" x="526.5" y="-128.5" font-family="Helvetica,sans-Serif" font-size="10.00">_frontends.ssa_filtering.CheckButtons.on</text>
<text text-anchor="middle" x="626.5" y="-117.5" font-family="Helvetica,sans-Serif" font-size="10.00">_clicked</text>
</a>
</g>
</g>
<!-- Node1&#45;&gt;Node2 -->
<g id="edge1_Node000001_Node000002" class="edge">
<title>Node1&#45;&gt;Node2</title>
<g id="a_edge1_Node000001_Node000002"><a xlink:title=" ">
<path fill="none" stroke="#63b8ff" d="M794.39,-83.42C780.31,-87.66 765.72,-92 752,-96 735.73,-100.75 718.22,-105.74 701.63,-110.42"/>
<polygon fill="#63b8ff" stroke="#63b8ff" points="795.48,-86.75 804.04,-80.51 793.46,-80.04 795.48,-86.75"/>
</a>
</g>
</g>
<!-- Node3 -->
<g id="Node000003" class="node">
<title>Node3</title>
<g id="a_Node000003"><a xlink:href="../../d5/d53/classaopp__deconv__tool_1_1graphical__frontends_1_1ssa__filtering_1_1Slider.html#ac053deeaf27504aac90059d271548268" target="_top" xlink:title=" ">
<polygon fill="white" stroke="#666666" points="463.5,-78 251.5,-78 251.5,-48 463.5,-48 463.5,-78"/>
<text text-anchor="start" x="259.5" y="-66" font-family="Helvetica,sans-Serif" font-size="10.00">aopp_deconv_tool.graphical</text>
<text text-anchor="middle" x="357.5" y="-55" font-family="Helvetica,sans-Serif" font-size="10.00">_frontends.ssa_filtering.Slider.set_limits</text>
</a>
</g>
</g>
<!-- Node1&#45;&gt;Node3 -->
<g id="edge3_Node000001_Node000003" class="edge">
<title>Node1&#45;&gt;Node3</title>
<g id="a_edge3_Node000001_Node000003"><a xlink:title=" ">
<path fill="none" stroke="#63b8ff" d="M777.62,-62.58C768.96,-62.75 760.32,-62.9 752,-63 654.32,-64.23 542.98,-64.09 463.73,-63.72"/>
<polygon fill="#63b8ff" stroke="#63b8ff" points="777.86,-66.07 787.78,-62.37 777.71,-59.07 777.86,-66.07"/>
</a>
</g>
</g>
<!-- Node5 -->
<g id="Node000005" class="node">
<title>Node5</title>
<g id="a_Node000005"><a xlink:href="../../dc/d2e/classaopp__deconv__tool_1_1graphical__frontends_1_1ssa__filtering_1_1Range.html#ad2d49047d340c025b38fe5f7a8ac6b17" target="_top" xlink:title=" ">
<polygon fill="white" stroke="#666666" points="465,-30 250,-30 250,0 465,0 465,-30"/>
<text text-anchor="start" x="258" y="-18" font-family="Helvetica,sans-Serif" font-size="10.00">aopp_deconv_tool.graphical</text>
<text text-anchor="middle" x="357.5" y="-7" font-family="Helvetica,sans-Serif" font-size="10.00">_frontends.ssa_filtering.Range.set_limits</text>
</a>
</g>
</g>
<!-- Node1&#45;&gt;Node5 -->
<g id="edge6_Node000001_Node000005" class="edge">
<title>Node1&#45;&gt;Node5</title>
<g id="a_edge6_Node000001_Node000005"><a xlink:title=" ">
<path fill="none" stroke="#63b8ff" d="M818.62,-35.52C798.29,-27.27 774.51,-19.11 752,-15 656.07,2.53 544.77,0.51 465.07,-4.71"/>
<polygon fill="#63b8ff" stroke="#63b8ff" points="817.43,-38.81 828,-39.43 820.12,-32.35 817.43,-38.81"/>
</a>
</g>
</g>
<!-- Node6 -->
<g id="Node000006" class="node">
<title>Node6</title>
<g id="a_Node000006"><a xlink:href="../../d2/d2f/classaopp__deconv__tool_1_1graphical__frontends_1_1ssa__filtering_1_1CheckButtons.html#a7ec932ab45bcc9e3ca7ff7d33a38dc46" target="_top" xlink:title=" ">
<polygon fill="white" stroke="#666666" points="752,-54 501,-54 501,-24 752,-24 752,-54"/>
<text text-anchor="start" x="509" y="-42" font-family="Helvetica,sans-Serif" font-size="10.00">aopp_deconv_tool.graphical</text>
<text text-anchor="middle" x="626.5" y="-31" font-family="Helvetica,sans-Serif" font-size="10.00">_frontends.ssa_filtering.CheckButtons.set_value</text>
</a>
</g>
</g>
<!-- Node1&#45;&gt;Node6 -->
<g id="edge8_Node000001_Node000006" class="edge">
<title>Node1&#45;&gt;Node6</title>
<g id="a_edge8_Node000001_Node000006"><a xlink:title=" ">
<path fill="none" stroke="#63b8ff" d="M777.73,-51.96C769.32,-51.23 760.71,-50.49 752.09,-49.74"/>
<polygon fill="#63b8ff" stroke="#63b8ff" points="777.62,-55.46 787.88,-52.83 778.22,-48.49 777.62,-55.46"/>
</a>
</g>
</g>
<!-- Node2&#45;&gt;Node2 -->
<g id="edge2_Node000002_Node000002" class="edge">
<title>Node2&#45;&gt;Node2</title>
<g id="a_edge2_Node000002_Node000002"><a xlink:title=" ">
<path fill="none" stroke="#63b8ff" d="M668.48,-161.46C662.24,-166.24 648.24,-169.5 626.5,-169.5 591.71,-169.5 576.76,-161.15 581.65,-151.6"/>
<polygon fill="#63b8ff" stroke="#63b8ff" points="671.92,-162.18 671.35,-151.6 665.19,-160.22 671.92,-162.18"/>
</a>
</g>
</g>
<!-- Node4 -->
<g id="Node000004" class="node">
<title>Node4</title>
<g id="a_Node000004"><a xlink:href="../../d5/d53/classaopp__deconv__tool_1_1graphical__frontends_1_1ssa__filtering_1_1Slider.html#ac3e9379fd1ef597ccb25e7a848f9dbd6" target="_top" xlink:title=" ">
<polygon fill="white" stroke="#666666" points="214,-54 0,-54 0,-24 214,-24 214,-54"/>
<text text-anchor="start" x="8" y="-42" font-family="Helvetica,sans-Serif" font-size="10.00">aopp_deconv_tool.graphical</text>
<text text-anchor="middle" x="107" y="-31" font-family="Helvetica,sans-Serif" font-size="10.00">_frontends.ssa_filtering.Slider.set_active</text>
</a>
</g>
</g>
<!-- Node3&#45;&gt;Node4 -->
<g id="edge4_Node000003_Node000004" class="edge">
<title>Node3&#45;&gt;Node4</title>
<g id="a_edge4_Node000003_Node000004"><a xlink:title=" ">
<path fill="none" stroke="#63b8ff" d="M241.32,-51.88C232.29,-51 223.2,-50.13 214.24,-49.26"/>
<polygon fill="#63b8ff" stroke="#63b8ff" points="241.18,-55.38 251.47,-52.86 241.86,-48.41 241.18,-55.38"/>
</a>
</g>
</g>
<!-- Node4&#45;&gt;Node4 -->
<g id="edge5_Node000004_Node000004" class="edge">
<title>Node4&#45;&gt;Node4</title>
<g id="a_edge5_Node000004_Node000004"><a xlink:title=" ">
<path fill="none" stroke="#63b8ff" d="M150.76,-64.6C144.78,-68.97 130.19,-72 107,-72 67.94,-72 53.29,-63.41 63.05,-54.28"/>
<polygon fill="#63b8ff" stroke="#63b8ff" points="154.26,-64.34 150.95,-54.28 147.27,-64.21 154.26,-64.34"/>
</a>
</g>
</g>
<!-- Node5&#45;&gt;Node4 -->
<g id="edge7_Node000005_Node000004" class="edge">
<title>Node5&#45;&gt;Node4</title>
<g id="a_edge7_Node000005_Node000004"><a xlink:title=" ">
<path fill="none" stroke="#63b8ff" d="M239.48,-26.3C231.09,-27.11 222.66,-27.93 214.34,-28.73"/>
<polygon fill="#63b8ff" stroke="#63b8ff" points="240.05,-29.76 249.67,-25.32 239.38,-22.8 240.05,-29.76"/>
</a>
</g>
</g>
<!-- Node6&#45;&gt;Node3 -->
<g id="edge9_Node000006_Node000003" class="edge">
<title>Node6&#45;&gt;Node3</title>
<g id="a_edge9_Node000006_Node000003"><a xlink:title=" ">
<path fill="none" stroke="#63b8ff" d="M491.01,-51.09C481.8,-51.92 472.61,-52.74 463.59,-53.55"/>
<polygon fill="#63b8ff" stroke="#63b8ff" points="491.34,-54.57 500.99,-50.19 490.72,-47.6 491.34,-54.57"/>
</a>
</g>
</g>
<!-- Node6&#45;&gt;Node5 -->
<g id="edge10_Node000006_Node000005" class="edge">
<title>Node6&#45;&gt;Node5</title>
<g id="a_edge10_Node000006_Node000005"><a xlink:title=" ">
<path fill="none" stroke="#63b8ff" d="M490.88,-26.9C482.26,-26.12 473.65,-25.35 465.19,-24.59"/>
<polygon fill="#63b8ff" stroke="#63b8ff" points="490.72,-30.4 500.99,-27.81 491.34,-23.43 490.72,-30.4"/>
</a>
</g>
</g>
</g>
</svg>
