<?xml version="1.0" encoding="UTF-8" standalone="no"?>
<!DOCTYPE svg PUBLIC "-//W3C//DTD SVG 1.1//EN"
 "http://www.w3.org/Graphics/SVG/1.1/DTD/svg11.dtd">
<!-- Generated by graphviz version 2.43.0 (0)
 -->
<!-- Title: aopp_deconv_tool.graphical_frontends.ssa_filtering.WidgetBase.remove Pages: 1 -->
<svg width="702pt" height="86pt"
 viewBox="0.00 0.00 702.00 86.00" xmlns="http://www.w3.org/2000/svg" xmlns:xlink="http://www.w3.org/1999/xlink">
<g id="graph0" class="graph" transform="scale(1 1) rotate(0) translate(4 82)">
<title>aopp_deconv_tool.graphical_frontends.ssa_filtering.WidgetBase.remove</title>
<!-- Node1 -->
<g id="Node000001" class="node">
<title>Node1</title>
<g id="a_Node000001"><a xlink:title=" ">
<polygon fill="#999999" stroke="#666666" points="694,-59.5 526,-59.5 526,-18.5 694,-18.5 694,-59.5"/>
<text text-anchor="start" x="534" y="-47.5" font-family="Helvetica,sans-Serif" font-size="10.00">aopp_deconv_tool.graphical</text>
<text text-anchor="start" x="534" y="-36.5" font-family="Helvetica,sans-Serif" font-size="10.00">_frontends.ssa_filtering.Widget</text>
<text text-anchor="middle" x="610" y="-25.5" font-family="Helvetica,sans-Serif" font-size="10.00">Base.remove</text>
</a>
</g>
</g>
<!-- Node1&#45;&gt;Node1 -->
<g id="edge1_Node000001_Node000001" class="edge">
<title>Node1&#45;&gt;Node1</title>
<g id="a_edge1_Node000001_Node000001"><a xlink:title=" ">
<path fill="none" stroke="#63b8ff" d="M650.26,-69.46C644.27,-74.24 630.85,-77.5 610,-77.5 576.64,-77.5 562.3,-69.15 566.99,-59.6"/>
<polygon fill="#63b8ff" stroke="#63b8ff" points="653.69,-70.17 653.01,-59.6 646.95,-68.29 653.69,-70.17"/>
</a>
</g>
</g>
<!-- Node2 -->
<g id="Node000002" class="node">
<title>Node2</title>
<g id="a_Node000002"><a xlink:href="../../db/dd6/classaopp__deconv__tool_1_1graphical__frontends_1_1ssa__filtering_1_1ImagePlot.html#aa2bda605c014c2b3193e8c4db3e4ecfb" target="_top" xlink:title=" ">
<polygon fill="white" stroke="#666666" points="490,-78 262,-78 262,-48 490,-48 490,-78"/>
<text text-anchor="start" x="270" y="-66" font-family="Helvetica,sans-Serif" font-size="10.00">aopp_deconv_tool.graphical</text>
<text text-anchor="middle" x="376" y="-55" font-family="Helvetica,sans-Serif" font-size="10.00">_frontends.ssa_filtering.ImagePlot.set_data</text>
</a>
</g>
</g>
<!-- Node1&#45;&gt;Node2 -->
<g id="edge2_Node000001_Node000002" class="edge">
<title>Node1&#45;&gt;Node2</title>
<g id="a_edge2_Node000001_Node000002"><a xlink:title=" ">
<path fill="none" stroke="#63b8ff" d="M515.76,-48.65C507.36,-49.51 498.81,-50.4 490.27,-51.28"/>
<polygon fill="#63b8ff" stroke="#63b8ff" points="516.31,-52.11 525.9,-47.6 515.59,-45.14 516.31,-52.11"/>
</a>
</g>
</g>
<!-- Node5 -->
<g id="Node000005" class="node">
<title>Node5</title>
<g id="a_Node000005"><a xlink:href="../../d1/d4b/classaopp__deconv__tool_1_1graphical__frontends_1_1ssa__filtering_1_1LinePlot.html#abbc55db75bf504c9785025cd364e77bf" target="_top" xlink:title=" ">
<polygon fill="white" stroke="#666666" points="485,-30 267,-30 267,0 485,0 485,-30"/>
<text text-anchor="start" x="275" y="-18" font-family="Helvetica,sans-Serif" font-size="10.00">aopp_deconv_tool.graphical</text>
<text text-anchor="middle" x="376" y="-7" font-family="Helvetica,sans-Serif" font-size="10.00">_frontends.ssa_filtering.LinePlot.set_data</text>
</a>
</g>
</g>
<!-- Node1&#45;&gt;Node5 -->
<g id="edge5_Node000001_Node000005" class="edge">
<title>Node1&#45;&gt;Node5</title>
<g id="a_edge5_Node000001_Node000005"><a xlink:title=" ">
<path fill="none" stroke="#63b8ff" d="M515.85,-29.36C505.7,-28.31 495.31,-27.24 485.01,-26.17"/>
<polygon fill="#63b8ff" stroke="#63b8ff" points="515.59,-32.86 525.9,-30.4 516.31,-25.89 515.59,-32.86"/>
</a>
</g>
</g>
<!-- Node3 -->
<g id="Node000003" class="node">
<title>Node3</title>
<g id="a_Node000003"><a xlink:href="../../d6/d1d/classaopp__deconv__tool_1_1graphical__frontends_1_1ssa__filtering_1_1ImageViewer.html#a3a362bcec191790684ab2d054db8042f" target="_top" xlink:title=" ">
<polygon fill="white" stroke="#666666" points="226,-78 0,-78 0,-48 226,-48 226,-78"/>
<text text-anchor="start" x="8" y="-66" font-family="Helvetica,sans-Serif" font-size="10.00">aopp_deconv_tool.graphical</text>
<text text-anchor="middle" x="113" y="-55" font-family="Helvetica,sans-Serif" font-size="10.00">_frontends.ssa_filtering.ImageViewer.show</text>
</a>
</g>
</g>
<!-- Node2&#45;&gt;Node3 -->
<g id="edge3_Node000002_Node000003" class="edge">
<title>Node2&#45;&gt;Node3</title>
<g id="a_edge3_Node000002_Node000003"><a xlink:title=" ">
<path fill="none" stroke="#63b8ff" d="M251.48,-63C243.11,-63 234.71,-63 226.4,-63"/>
<polygon fill="#63b8ff" stroke="#63b8ff" points="251.66,-66.5 261.66,-63 251.66,-59.5 251.66,-66.5"/>
</a>
</g>
</g>
<!-- Node4 -->
<g id="Node000004" class="node">
<title>Node4</title>
<g id="a_Node000004"><a xlink:href="../../dd/d48/classaopp__deconv__tool_1_1graphical__frontends_1_1ssa__filtering_1_1SSAViewer.html#aa5805401ffe03e9fed4dc9e4ee3c745e" target="_top" xlink:title=" ">
<polygon fill="white" stroke="#666666" points="220,-30 6,-30 6,0 220,0 220,-30"/>
<text text-anchor="start" x="14" y="-18" font-family="Helvetica,sans-Serif" font-size="10.00">aopp_deconv_tool.graphical</text>
<text text-anchor="middle" x="113" y="-7" font-family="Helvetica,sans-Serif" font-size="10.00">_frontends.ssa_filtering.SSAViewer.show</text>
</a>
</g>
</g>
<!-- Node2&#45;&gt;Node4 -->
<g id="edge4_Node000002_Node000004" class="edge">
<title>Node2&#45;&gt;Node4</title>
<g id="a_edge4_Node000002_Node000004"><a xlink:title=" ">
<path fill="none" stroke="#63b8ff" d="M283.16,-46.11C254.62,-40.86 223.37,-35.11 195.58,-30"/>
<polygon fill="#63b8ff" stroke="#63b8ff" points="282.67,-49.58 293.13,-47.94 283.93,-42.69 282.67,-49.58"/>
</a>
</g>
</g>
<!-- Node5&#45;&gt;Node3 -->
<g id="edge6_Node000005_Node000003" class="edge">
<title>Node5&#45;&gt;Node3</title>
<g id="a_edge6_Node000005_Node000003"><a xlink:title=" ">
<path fill="none" stroke="#63b8ff" d="M283.16,-31.89C254.62,-37.14 223.37,-42.89 195.58,-48"/>
<polygon fill="#63b8ff" stroke="#63b8ff" points="283.93,-35.31 293.13,-30.06 282.67,-28.42 283.93,-35.31"/>
</a>
</g>
</g>
<!-- Node5&#45;&gt;Node4 -->
<g id="edge7_Node000005_Node000004" class="edge">
<title>Node5&#45;&gt;Node4</title>
<g id="a_edge7_Node000005_Node000004"><a xlink:title=" ">
<path fill="none" stroke="#63b8ff" d="M256.78,-15C244.62,-15 232.31,-15 220.28,-15"/>
<polygon fill="#63b8ff" stroke="#63b8ff" points="256.96,-18.5 266.96,-15 256.96,-11.5 256.96,-18.5"/>
</a>
</g>
</g>
</g>
</svg>
