<?xml version="1.0" encoding="UTF-8" standalone="no"?>
<!DOCTYPE svg PUBLIC "-//W3C//DTD SVG 1.1//EN"
 "http://www.w3.org/Graphics/SVG/1.1/DTD/svg11.dtd">
<!-- Generated by graphviz version 2.43.0 (0)
 -->
<!-- Title: aopp_deconv_tool.optimise_compat.PriorParamSet.keys Pages: 1 -->
<svg width="619pt" height="86pt"
 viewBox="0.00 0.00 619.00 86.00" xmlns="http://www.w3.org/2000/svg" xmlns:xlink="http://www.w3.org/1999/xlink">
<g id="graph0" class="graph" transform="scale(1 1) rotate(0) translate(4 82)">
<title>aopp_deconv_tool.optimise_compat.PriorParamSet.keys</title>
<!-- Node1 -->
<g id="Node000001" class="node">
<title>Node1</title>
<g id="a_Node000001"><a xlink:title=" ">
<polygon fill="#999999" stroke="#666666" points="611,-54 455,-54 455,-24 611,-24 611,-54"/>
<text text-anchor="start" x="463" y="-42" font-family="Helvetica,sans-Serif" font-size="10.00">aopp_deconv_tool.optimise</text>
<text text-anchor="middle" x="533" y="-31" font-family="Helvetica,sans-Serif" font-size="10.00">_compat.PriorParamSet.keys</text>
</a>
</g>
</g>
<!-- Node2 -->
<g id="Node000002" class="node">
<title>Node2</title>
<g id="a_Node000002"><a xlink:href="../../d9/d34/classaopp__deconv__tool_1_1optimise__compat_1_1PriorParamSet.html#a400ad9b81ac89a9c579c5c7e5cb7f7c3" target="_top" xlink:title=" ">
<polygon fill="white" stroke="#666666" points="419,-78 201,-78 201,-48 419,-48 419,-78"/>
<text text-anchor="start" x="209" y="-66" font-family="Helvetica,sans-Serif" font-size="10.00">aopp_deconv_tool.optimise</text>
<text text-anchor="middle" x="310" y="-55" font-family="Helvetica,sans-Serif" font-size="10.00">_compat.PriorParamSet.constant_params</text>
</a>
</g>
</g>
<!-- Node1&#45;&gt;Node2 -->
<g id="edge1_Node000001_Node000002" class="edge">
<title>Node1&#45;&gt;Node2</title>
<g id="a_edge1_Node000001_Node000002"><a xlink:title=" ">
<path fill="none" stroke="#63b8ff" d="M444.66,-48.49C436.33,-49.39 427.83,-50.31 419.34,-51.24"/>
<polygon fill="#63b8ff" stroke="#63b8ff" points="445.14,-51.95 454.7,-47.39 444.39,-44.99 445.14,-51.95"/>
</a>
</g>
</g>
<!-- Node4 -->
<g id="Node000004" class="node">
<title>Node4</title>
<g id="a_Node000004"><a xlink:href="../../d9/d34/classaopp__deconv__tool_1_1optimise__compat_1_1PriorParamSet.html#ae004244a99da4b3535eb0b1cd501785b" target="_top" xlink:title=" ">
<polygon fill="white" stroke="#666666" points="417.5,-30 202.5,-30 202.5,0 417.5,0 417.5,-30"/>
<text text-anchor="start" x="210.5" y="-18" font-family="Helvetica,sans-Serif" font-size="10.00">aopp_deconv_tool.optimise</text>
<text text-anchor="middle" x="310" y="-7" font-family="Helvetica,sans-Serif" font-size="10.00">_compat.PriorParamSet.variable_params</text>
</a>
</g>
</g>
<!-- Node1&#45;&gt;Node4 -->
<g id="edge3_Node000001_Node000004" class="edge">
<title>Node1&#45;&gt;Node4</title>
<g id="a_edge3_Node000001_Node000004"><a xlink:title=" ">
<path fill="none" stroke="#63b8ff" d="M444.5,-29.5C435.72,-28.54 426.73,-27.57 417.78,-26.6"/>
<polygon fill="#63b8ff" stroke="#63b8ff" points="444.39,-33.01 454.7,-30.61 445.14,-26.05 444.39,-33.01"/>
</a>
</g>
</g>
<!-- Node3 -->
<g id="Node000003" class="node">
<title>Node3</title>
<g id="a_Node000003"><a xlink:href="../../d9/d34/classaopp__deconv__tool_1_1optimise__compat_1_1PriorParamSet.html#a4e1aed0cfd2942eb20faf8e8649415e7" target="_top" xlink:title=" ">
<polygon fill="white" stroke="#666666" points="165,-78 0,-78 0,-48 165,-48 165,-78"/>
<text text-anchor="start" x="8" y="-66" font-family="Helvetica,sans-Serif" font-size="10.00">aopp_deconv_tool.optimise</text>
<text text-anchor="middle" x="82.5" y="-55" font-family="Helvetica,sans-Serif" font-size="10.00">_compat.PriorParamSet.consts</text>
</a>
</g>
</g>
<!-- Node2&#45;&gt;Node3 -->
<g id="edge2_Node000002_Node000003" class="edge">
<title>Node2&#45;&gt;Node3</title>
<g id="a_edge2_Node000002_Node000003"><a xlink:title=" ">
<path fill="none" stroke="#63b8ff" d="M190.76,-63C182.15,-63 173.58,-63 165.26,-63"/>
<polygon fill="#63b8ff" stroke="#63b8ff" points="190.87,-66.5 200.87,-63 190.87,-59.5 190.87,-66.5"/>
</a>
</g>
</g>
</g>
</svg>
