<?xml version="1.0" encoding="UTF-8" standalone="no"?>
<!DOCTYPE svg PUBLIC "-//W3C//DTD SVG 1.1//EN"
 "http://www.w3.org/Graphics/SVG/1.1/DTD/svg11.dtd">
<!-- Generated by graphviz version 2.43.0 (0)
 -->
<!-- Title: aopp_deconv_tool.optimise_compat.PriorParamSet.all_params Pages: 1 -->
<svg width="643pt" height="88pt"
 viewBox="0.00 0.00 643.00 88.00" xmlns="http://www.w3.org/2000/svg" xmlns:xlink="http://www.w3.org/1999/xlink">
<g id="graph0" class="graph" transform="scale(1 1) rotate(0) translate(4 84)">
<title>aopp_deconv_tool.optimise_compat.PriorParamSet.all_params</title>
<!-- Node1 -->
<g id="node1" class="node">
<title>Node1</title>
<g id="a_node1"><a xlink:title=" ">
<polygon fill="#bfbfbf" stroke="black" points="0,-24.5 0,-54.5 188,-54.5 188,-24.5 0,-24.5"/>
<text text-anchor="start" x="8" y="-42.5" font-family="Helvetica,sans-Serif" font-size="10.00">aopp_deconv_tool.optimise</text>
<text text-anchor="middle" x="94" y="-31.5" font-family="Helvetica,sans-Serif" font-size="10.00">_compat.PriorParamSet.all_params</text>
</a>
</g>
</g>
<!-- Node2 -->
<g id="node2" class="node">
<title>Node2</title>
<g id="a_node2"><a xlink:href="../../d9/d34/classaopp__deconv__tool_1_1optimise__compat_1_1PriorParamSet.html#a1b3d9f725143419fa4bb7bdd1ada1f1d" target="_top" xlink:title=" ">
<polygon fill="none" stroke="black" points="224,-49.5 224,-79.5 442,-79.5 442,-49.5 224,-49.5"/>
<text text-anchor="start" x="232" y="-67.5" font-family="Helvetica,sans-Serif" font-size="10.00">aopp_deconv_tool.optimise</text>
<text text-anchor="middle" x="333" y="-56.5" font-family="Helvetica,sans-Serif" font-size="10.00">_compat.PriorParamSet.constant_params</text>
</a>
</g>
</g>
<!-- Node1&#45;&gt;Node2 -->
<g id="edge1" class="edge">
<title>Node1&#45;&gt;Node2</title>
<path fill="none" stroke="midnightblue" d="M188.33,-49.34C196.71,-50.23 205.26,-51.13 213.82,-52.03"/>
<polygon fill="midnightblue" stroke="midnightblue" points="213.53,-55.52 223.85,-53.09 214.27,-48.56 213.53,-55.52"/>
</g>
<!-- Node4 -->
<g id="node4" class="node">
<title>Node4</title>
<g id="a_node4"><a xlink:href="../../d9/d34/classaopp__deconv__tool_1_1optimise__compat_1_1PriorParamSet.html#a4a78eeca045be8a46db5bbaee4584472" target="_top" xlink:title=" ">
<polygon fill="none" stroke="black" points="225,-0.5 225,-30.5 441,-30.5 441,-0.5 225,-0.5"/>
<text text-anchor="start" x="233" y="-18.5" font-family="Helvetica,sans-Serif" font-size="10.00">aopp_deconv_tool.optimise</text>
<text text-anchor="middle" x="333" y="-7.5" font-family="Helvetica,sans-Serif" font-size="10.00">_compat.PriorParamSet.variable_params</text>
</a>
</g>
</g>
<!-- Node1&#45;&gt;Node4 -->
<g id="edge3" class="edge">
<title>Node1&#45;&gt;Node4</title>
<path fill="none" stroke="midnightblue" d="M188.33,-30.05C196.99,-29.17 205.83,-28.28 214.67,-27.38"/>
<polygon fill="midnightblue" stroke="midnightblue" points="215.04,-30.86 224.64,-26.37 214.33,-23.9 215.04,-30.86"/>
</g>
<!-- Node3 -->
<g id="node3" class="node">
<title>Node3</title>
<g id="a_node3"><a xlink:href="../../d9/d34/classaopp__deconv__tool_1_1optimise__compat_1_1PriorParamSet.html#a5f8955a0c0c2d986a96796ae12e0dc5d" target="_top" xlink:title=" ">
<polygon fill="none" stroke="black" points="478,-24.5 478,-54.5 635,-54.5 635,-24.5 478,-24.5"/>
<text text-anchor="start" x="486" y="-42.5" font-family="Helvetica,sans-Serif" font-size="10.00">aopp_deconv_tool.optimise</text>
<text text-anchor="middle" x="556.5" y="-31.5" font-family="Helvetica,sans-Serif" font-size="10.00">_compat.PriorParamSet.keys</text>
</a>
</g>
</g>
<!-- Node2&#45;&gt;Node3 -->
<g id="edge2" class="edge">
<title>Node2&#45;&gt;Node3</title>
<path fill="none" stroke="midnightblue" d="M442.15,-52.29C450.74,-51.32 459.35,-50.35 467.77,-49.4"/>
<polygon fill="midnightblue" stroke="midnightblue" points="468.4,-52.85 477.94,-48.25 467.61,-45.9 468.4,-52.85"/>
</g>
<!-- Node4&#45;&gt;Node3 -->
<g id="edge4" class="edge">
<title>Node4&#45;&gt;Node3</title>
<path fill="none" stroke="midnightblue" d="M441.18,-27.11C450.07,-28.08 458.99,-29.04 467.71,-29.99"/>
<polygon fill="midnightblue" stroke="midnightblue" points="467.53,-33.49 477.85,-31.09 468.28,-26.53 467.53,-33.49"/>
</g>
</g>
</svg>
