<?xml version="1.0" encoding="UTF-8" standalone="no"?>
<!DOCTYPE svg PUBLIC "-//W3C//DTD SVG 1.1//EN"
 "http://www.w3.org/Graphics/SVG/1.1/DTD/svg11.dtd">
<!-- Generated by graphviz version 2.43.0 (0)
 -->
<!-- Title: aopp_deconv_tool.optimise_compat.PriorParamSet.keys Pages: 1 -->
<svg width="643pt" height="88pt"
 viewBox="0.00 0.00 643.00 88.00" xmlns="http://www.w3.org/2000/svg" xmlns:xlink="http://www.w3.org/1999/xlink">
<g id="graph0" class="graph" transform="scale(1 1) rotate(0) translate(4 84)">
<title>aopp_deconv_tool.optimise_compat.PriorParamSet.keys</title>
<!-- Node1 -->
<g id="node1" class="node">
<title>Node1</title>
<g id="a_node1"><a xlink:title=" ">
<polygon fill="#bfbfbf" stroke="black" points="478,-24.5 478,-54.5 635,-54.5 635,-24.5 478,-24.5"/>
<text text-anchor="start" x="486" y="-42.5" font-family="Helvetica,sans-Serif" font-size="10.00">aopp_deconv_tool.optimise</text>
<text text-anchor="middle" x="556.5" y="-31.5" font-family="Helvetica,sans-Serif" font-size="10.00">_compat.PriorParamSet.keys</text>
</a>
</g>
</g>
<!-- Node2 -->
<g id="node2" class="node">
<title>Node2</title>
<g id="a_node2"><a xlink:href="../../d9/d34/classaopp__deconv__tool_1_1optimise__compat_1_1PriorParamSet.html#a1b3d9f725143419fa4bb7bdd1ada1f1d" target="_top" xlink:title=" ">
<polygon fill="none" stroke="black" points="224,-0.5 224,-30.5 442,-30.5 442,-0.5 224,-0.5"/>
<text text-anchor="start" x="232" y="-18.5" font-family="Helvetica,sans-Serif" font-size="10.00">aopp_deconv_tool.optimise</text>
<text text-anchor="middle" x="333" y="-7.5" font-family="Helvetica,sans-Serif" font-size="10.00">_compat.PriorParamSet.constant_params</text>
</a>
</g>
</g>
<!-- Node1&#45;&gt;Node2 -->
<g id="edge1" class="edge">
<title>Node1&#45;&gt;Node2</title>
<path fill="none" stroke="midnightblue" d="M467.66,-29.98C459.32,-29.08 450.81,-28.16 442.31,-27.24"/>
<polygon fill="midnightblue" stroke="midnightblue" points="467.4,-33.47 477.72,-31.07 468.15,-26.52 467.4,-33.47"/>
</g>
<!-- Node5 -->
<g id="node5" class="node">
<title>Node5</title>
<g id="a_node5"><a xlink:href="../../d9/d34/classaopp__deconv__tool_1_1optimise__compat_1_1PriorParamSet.html#a4a78eeca045be8a46db5bbaee4584472" target="_top" xlink:title=" ">
<polygon fill="none" stroke="black" points="225,-49.5 225,-79.5 441,-79.5 441,-49.5 225,-49.5"/>
<text text-anchor="start" x="233" y="-67.5" font-family="Helvetica,sans-Serif" font-size="10.00">aopp_deconv_tool.optimise</text>
<text text-anchor="middle" x="333" y="-56.5" font-family="Helvetica,sans-Serif" font-size="10.00">_compat.PriorParamSet.variable_params</text>
</a>
</g>
</g>
<!-- Node1&#45;&gt;Node5 -->
<g id="edge4" class="edge">
<title>Node1&#45;&gt;Node5</title>
<path fill="none" stroke="midnightblue" d="M467.61,-49.42C458.91,-50.4 450.01,-51.41 441.15,-52.41"/>
<polygon fill="midnightblue" stroke="midnightblue" points="468.17,-52.88 477.72,-48.28 467.39,-45.92 468.17,-52.88"/>
</g>
<!-- Node3 -->
<g id="node3" class="node">
<title>Node3</title>
<g id="a_node3"><a xlink:href="../../d9/d34/classaopp__deconv__tool_1_1optimise__compat_1_1PriorParamSet.html#acba24b9b0a914eb238be2c880bfa9f47" target="_top" xlink:title=" ">
<polygon fill="none" stroke="black" points="0,-49.5 0,-79.5 188,-79.5 188,-49.5 0,-49.5"/>
<text text-anchor="start" x="8" y="-67.5" font-family="Helvetica,sans-Serif" font-size="10.00">aopp_deconv_tool.optimise</text>
<text text-anchor="middle" x="94" y="-56.5" font-family="Helvetica,sans-Serif" font-size="10.00">_compat.PriorParamSet.all_params</text>
</a>
</g>
</g>
<!-- Node2&#45;&gt;Node3 -->
<g id="edge2" class="edge">
<title>Node2&#45;&gt;Node3</title>
<path fill="none" stroke="midnightblue" d="M249.23,-32.61C222.63,-38.11 193.39,-44.16 167.58,-49.49"/>
<polygon fill="midnightblue" stroke="midnightblue" points="250.2,-35.99 259.28,-30.53 248.78,-29.13 250.2,-35.99"/>
</g>
<!-- Node4 -->
<g id="node4" class="node">
<title>Node4</title>
<g id="a_node4"><a xlink:href="../../d9/d34/classaopp__deconv__tool_1_1optimise__compat_1_1PriorParamSet.html#ac9c4f8057a83fb85fa1327bd2a8b0ea3" target="_top" xlink:title=" ">
<polygon fill="none" stroke="black" points="11,-0.5 11,-30.5 177,-30.5 177,-0.5 11,-0.5"/>
<text text-anchor="start" x="19" y="-18.5" font-family="Helvetica,sans-Serif" font-size="10.00">aopp_deconv_tool.optimise</text>
<text text-anchor="middle" x="94" y="-7.5" font-family="Helvetica,sans-Serif" font-size="10.00">_compat.PriorParamSet.consts</text>
</a>
</g>
</g>
<!-- Node2&#45;&gt;Node4 -->
<g id="edge3" class="edge">
<title>Node2&#45;&gt;Node4</title>
<path fill="none" stroke="midnightblue" d="M213.54,-15.5C201.2,-15.5 188.85,-15.5 177.04,-15.5"/>
<polygon fill="midnightblue" stroke="midnightblue" points="213.9,-19 223.9,-15.5 213.9,-12 213.9,-19"/>
</g>
<!-- Node5&#45;&gt;Node3 -->
<g id="edge5" class="edge">
<title>Node5&#45;&gt;Node3</title>
<path fill="none" stroke="midnightblue" d="M214.85,-64.5C205.9,-64.5 196.94,-64.5 188.18,-64.5"/>
<polygon fill="midnightblue" stroke="midnightblue" points="214.94,-68 224.94,-64.5 214.94,-61 214.94,-68"/>
</g>
</g>
</svg>
