<?xml version="1.0" encoding="UTF-8" standalone="no"?>
<!DOCTYPE svg PUBLIC "-//W3C//DTD SVG 1.1//EN"
 "http://www.w3.org/Graphics/SVG/1.1/DTD/svg11.dtd">
<!-- Generated by graphviz version 2.43.0 (0)
 -->
<!-- Title: aopp_deconv_tool.optimise_compat.PriorParamSet.__getitem__ Pages: 1 -->
<svg width="520pt" height="157pt"
 viewBox="0.00 0.00 520.00 156.50" xmlns="http://www.w3.org/2000/svg" xmlns:xlink="http://www.w3.org/1999/xlink">
<g id="graph0" class="graph" transform="scale(1 1) rotate(0) translate(4 152.5)">
<title>aopp_deconv_tool.optimise_compat.PriorParamSet.__getitem__</title>
<!-- Node1 -->
<g id="Node000001" class="node">
<title>Node1</title>
<g id="a_Node000001"><a xlink:title=" ">
<polygon fill="#999999" stroke="#666666" points="512,-89.5 361,-89.5 361,-48.5 512,-48.5 512,-89.5"/>
<text text-anchor="start" x="369" y="-77.5" font-family="Helvetica,sans-Serif" font-size="10.00">aopp_deconv_tool.optimise</text>
<text text-anchor="start" x="369" y="-66.5" font-family="Helvetica,sans-Serif" font-size="10.00">_compat.PriorParamSet.</text>
<text text-anchor="middle" x="436.5" y="-55.5" font-family="Helvetica,sans-Serif" font-size="10.00">__getitem__</text>
</a>
</g>
</g>
<!-- Node2 -->
<g id="Node000002" class="node">
<title>Node2</title>
<g id="a_Node000002"><a xlink:href="../../d6/da1/classaopp__deconv__tool_1_1task__strat_1_1TaskStratSet.html#ad7d425601c3adf5f89372f5c7cd5fcb9" target="_top" xlink:title=" ">
<polygon fill="white" stroke="#666666" points="309.5,-148.5 180.5,-148.5 180.5,-107.5 309.5,-107.5 309.5,-148.5"/>
<text text-anchor="start" x="188.5" y="-136.5" font-family="Helvetica,sans-Serif" font-size="10.00">aopp_deconv_tool.task</text>
<text text-anchor="start" x="188.5" y="-125.5" font-family="Helvetica,sans-Serif" font-size="10.00">_strat.TaskStratSet.get</text>
<text text-anchor="middle" x="245" y="-114.5" font-family="Helvetica,sans-Serif" font-size="10.00">_callable</text>
</a>
</g>
</g>
<!-- Node1&#45;&gt;Node2 -->
<g id="edge1_Node000001_Node000002" class="edge">
<title>Node1&#45;&gt;Node2</title>
<g id="a_edge1_Node000001_Node000002"><a xlink:title=" ">
<path fill="none" stroke="#63b8ff" d="M359.79,-92.57C343.14,-97.76 325.66,-103.2 309.54,-108.22"/>
<polygon fill="#63b8ff" stroke="#63b8ff" points="360.98,-95.87 369.49,-89.55 358.9,-89.18 360.98,-95.87"/>
</a>
</g>
</g>
<!-- Node4 -->
<g id="Node000004" class="node">
<title>Node4</title>
<g id="a_Node000004"><a xlink:href="../../d6/da1/classaopp__deconv__tool_1_1task__strat_1_1TaskStratSet.html#ad0d15b5cff34e71befae57b1f326753a" target="_top" xlink:title=" ">
<polygon fill="white" stroke="#666666" points="309.5,-89.5 180.5,-89.5 180.5,-48.5 309.5,-48.5 309.5,-89.5"/>
<text text-anchor="start" x="188.5" y="-77.5" font-family="Helvetica,sans-Serif" font-size="10.00">aopp_deconv_tool.task</text>
<text text-anchor="start" x="188.5" y="-66.5" font-family="Helvetica,sans-Serif" font-size="10.00">_strat.TaskStratSet.get</text>
<text text-anchor="middle" x="245" y="-55.5" font-family="Helvetica,sans-Serif" font-size="10.00">_description</text>
</a>
</g>
</g>
<!-- Node1&#45;&gt;Node4 -->
<g id="edge3_Node000001_Node000004" class="edge">
<title>Node1&#45;&gt;Node4</title>
<g id="a_edge3_Node000001_Node000004"><a xlink:title=" ">
<path fill="none" stroke="#63b8ff" d="M350.84,-69C336.96,-69 322.78,-69 309.53,-69"/>
<polygon fill="#63b8ff" stroke="#63b8ff" points="350.88,-72.5 360.88,-69 350.88,-65.5 350.88,-72.5"/>
</a>
</g>
</g>
<!-- Node5 -->
<g id="Node000005" class="node">
<title>Node5</title>
<g id="a_Node000005"><a xlink:href="../../d6/da1/classaopp__deconv__tool_1_1task__strat_1_1TaskStratSet.html#aa904ac0f4514c2cedd25e66f229ca55a" target="_top" xlink:title=" ">
<polygon fill="white" stroke="#666666" points="325,-30 165,-30 165,0 325,0 325,-30"/>
<text text-anchor="start" x="173" y="-18" font-family="Helvetica,sans-Serif" font-size="10.00">aopp_deconv_tool.task</text>
<text text-anchor="middle" x="245" y="-7" font-family="Helvetica,sans-Serif" font-size="10.00">_strat.TaskStratSet.get_name</text>
</a>
</g>
</g>
<!-- Node1&#45;&gt;Node5 -->
<g id="edge4_Node000001_Node000005" class="edge">
<title>Node1&#45;&gt;Node5</title>
<g id="a_edge4_Node000001_Node000005"><a xlink:title=" ">
<path fill="none" stroke="#63b8ff" d="M353.68,-45.68C335.09,-40.39 315.83,-34.9 298.83,-30.05"/>
<polygon fill="#63b8ff" stroke="#63b8ff" points="352.74,-49.06 363.32,-48.43 354.66,-42.32 352.74,-49.06"/>
</a>
</g>
</g>
<!-- Node3 -->
<g id="Node000003" class="node">
<title>Node3</title>
<g id="a_Node000003"><a xlink:href="../../d6/da1/classaopp__deconv__tool_1_1task__strat_1_1TaskStratSet.html#ad5ecc70e3c731505ae6b552e5815f4ac" target="_top" xlink:title=" ">
<polygon fill="white" stroke="#666666" points="129,-148.5 0,-148.5 0,-107.5 129,-107.5 129,-148.5"/>
<text text-anchor="start" x="8" y="-136.5" font-family="Helvetica,sans-Serif" font-size="10.00">aopp_deconv_tool.task</text>
<text text-anchor="start" x="8" y="-125.5" font-family="Helvetica,sans-Serif" font-size="10.00">_strat.TaskStratSet.</text>
<text text-anchor="middle" x="64.5" y="-114.5" font-family="Helvetica,sans-Serif" font-size="10.00">__call__</text>
</a>
</g>
</g>
<!-- Node2&#45;&gt;Node3 -->
<g id="edge2_Node000002_Node000003" class="edge">
<title>Node2&#45;&gt;Node3</title>
<g id="a_edge2_Node000002_Node000003"><a xlink:title=" ">
<path fill="none" stroke="#63b8ff" d="M170.05,-128C156.47,-128 142.41,-128 129.16,-128"/>
<polygon fill="#63b8ff" stroke="#63b8ff" points="170.31,-131.5 180.31,-128 170.31,-124.5 170.31,-131.5"/>
</a>
</g>
</g>
</g>
</svg>
