<?xml version="1.0" encoding="UTF-8" standalone="no"?>
<!DOCTYPE svg PUBLIC "-//W3C//DTD SVG 1.1//EN"
 "http://www.w3.org/Graphics/SVG/1.1/DTD/svg11.dtd">
<!-- Generated by graphviz version 2.43.0 (0)
 -->
<!-- Title: aopp_deconv_tool.numpy_helper.array.shift.pacman Pages: 1 -->
<svg width="334pt" height="134pt"
 viewBox="0.00 0.00 334.00 134.00" xmlns="http://www.w3.org/2000/svg" xmlns:xlink="http://www.w3.org/1999/xlink">
<g id="graph0" class="graph" transform="scale(1 1) rotate(0) translate(4 130)">
<title>aopp_deconv_tool.numpy_helper.array.shift.pacman</title>
<!-- Node1 -->
<g id="Node000001" class="node">
<title>Node1</title>
<g id="a_Node000001"><a xlink:title=" ">
<polygon fill="#999999" stroke="#666666" points="326,-78 181,-78 181,-48 326,-48 326,-78"/>
<text text-anchor="start" x="189" y="-66" font-family="Helvetica,sans-Serif" font-size="10.00">aopp_deconv_tool.numpy</text>
<text text-anchor="middle" x="253.5" y="-55" font-family="Helvetica,sans-Serif" font-size="10.00">_helper.array.shift.pacman</text>
</a>
</g>
</g>
<!-- Node2 -->
<g id="Node000002" class="node">
<title>Node2</title>
<g id="a_Node000002"><a xlink:href="../../dd/d2c/namespaceaopp__deconv__tool_1_1numpy__helper_1_1array_1_1shift.html#a56589dd9a8f89f3edd7e1f6bc0304d4b" target="_top" xlink:title=" ">
<polygon fill="white" stroke="#666666" points="143.5,-126 1.5,-126 1.5,-96 143.5,-96 143.5,-126"/>
<text text-anchor="start" x="9.5" y="-114" font-family="Helvetica,sans-Serif" font-size="10.00">aopp_deconv_tool.numpy</text>
<text text-anchor="middle" x="72.5" y="-103" font-family="Helvetica,sans-Serif" font-size="10.00">_helper.array.shift.const</text>
</a>
</g>
</g>
<!-- Node1&#45;&gt;Node2 -->
<g id="edge1_Node000001_Node000002" class="edge">
<title>Node1&#45;&gt;Node2</title>
<g id="a_edge1_Node000001_Node000002"><a xlink:title=" ">
<path fill="none" stroke="#63b8ff" d="M186.68,-80.65C167.89,-85.69 147.59,-91.13 129.45,-96"/>
<polygon fill="#63b8ff" stroke="#63b8ff" points="187.6,-84.03 196.35,-78.06 185.79,-77.27 187.6,-84.03"/>
</a>
</g>
</g>
<!-- Node3 -->
<g id="Node000003" class="node">
<title>Node3</title>
<g id="a_Node000003"><a xlink:href="../../dd/d2c/namespaceaopp__deconv__tool_1_1numpy__helper_1_1array_1_1shift.html#ad3c9be9a23047e5c5971b298a7665777" target="_top" xlink:title=" ">
<polygon fill="white" stroke="#666666" points="145,-78 0,-78 0,-48 145,-48 145,-78"/>
<text text-anchor="start" x="8" y="-66" font-family="Helvetica,sans-Serif" font-size="10.00">aopp_deconv_tool.numpy</text>
<text text-anchor="middle" x="72.5" y="-55" font-family="Helvetica,sans-Serif" font-size="10.00">_helper.array.shift.periodic</text>
</a>
</g>
</g>
<!-- Node1&#45;&gt;Node3 -->
<g id="edge2_Node000001_Node000003" class="edge">
<title>Node1&#45;&gt;Node3</title>
<g id="a_edge2_Node000001_Node000003"><a xlink:title=" ">
<path fill="none" stroke="#63b8ff" d="M170.96,-63C162.36,-63 153.67,-63 145.2,-63"/>
<polygon fill="#63b8ff" stroke="#63b8ff" points="170.98,-66.5 180.98,-63 170.98,-59.5 170.98,-66.5"/>
</a>
</g>
</g>
<!-- Node4 -->
<g id="Node000004" class="node">
<title>Node4</title>
<g id="a_Node000004"><a xlink:href="../../dd/d2c/namespaceaopp__deconv__tool_1_1numpy__helper_1_1array_1_1shift.html#ae96ac9ff1636b517ad1030231c5c93b2" target="_top" xlink:title=" ">
<polygon fill="white" stroke="#666666" points="143.5,-30 1.5,-30 1.5,0 143.5,0 143.5,-30"/>
<text text-anchor="start" x="9.5" y="-18" font-family="Helvetica,sans-Serif" font-size="10.00">aopp_deconv_tool.numpy</text>
<text text-anchor="middle" x="72.5" y="-7" font-family="Helvetica,sans-Serif" font-size="10.00">_helper.array.shift.reflect</text>
</a>
</g>
</g>
<!-- Node1&#45;&gt;Node4 -->
<g id="edge3_Node000001_Node000004" class="edge">
<title>Node1&#45;&gt;Node4</title>
<g id="a_edge3_Node000001_Node000004"><a xlink:title=" ">
<path fill="none" stroke="#63b8ff" d="M186.68,-45.35C167.89,-40.31 147.59,-34.87 129.45,-30"/>
<polygon fill="#63b8ff" stroke="#63b8ff" points="185.79,-48.73 196.35,-47.94 187.6,-41.97 185.79,-48.73"/>
</a>
</g>
</g>
</g>
</svg>
