<?xml version="1.0" encoding="UTF-8" standalone="no"?>
<!DOCTYPE svg PUBLIC "-//W3C//DTD SVG 1.1//EN"
 "http://www.w3.org/Graphics/SVG/1.1/DTD/svg11.dtd">
<!-- Generated by graphviz version 2.43.0 (0)
 -->
<!-- Title: aopp_deconv_tool.numpy_helper.array.shift.pacman Pages: 1 -->
<svg width="336pt" height="137pt"
 viewBox="0.00 0.00 336.00 137.00" xmlns="http://www.w3.org/2000/svg" xmlns:xlink="http://www.w3.org/1999/xlink">
<g id="graph0" class="graph" transform="scale(1 1) rotate(0) translate(4 133)">
<title>aopp_deconv_tool.numpy_helper.array.shift.pacman</title>
<!-- Node1 -->
<g id="node1" class="node">
<title>Node1</title>
<g id="a_node1"><a xlink:title=" ">
<polygon fill="#bfbfbf" stroke="black" points="182,-49.5 182,-79.5 328,-79.5 328,-49.5 182,-49.5"/>
<text text-anchor="start" x="190" y="-67.5" font-family="Helvetica,sans-Serif" font-size="10.00">aopp_deconv_tool.numpy</text>
<text text-anchor="middle" x="255" y="-56.5" font-family="Helvetica,sans-Serif" font-size="10.00">_helper.array.shift.pacman</text>
</a>
</g>
</g>
<!-- Node2 -->
<g id="node2" class="node">
<title>Node2</title>
<g id="a_node2"><a xlink:href="../../dd/d2c/namespaceaopp__deconv__tool_1_1numpy__helper_1_1array_1_1shift.html#a56589dd9a8f89f3edd7e1f6bc0304d4b" target="_top" xlink:title=" ">
<polygon fill="none" stroke="black" points="2,-98.5 2,-128.5 144,-128.5 144,-98.5 2,-98.5"/>
<text text-anchor="start" x="10" y="-116.5" font-family="Helvetica,sans-Serif" font-size="10.00">aopp_deconv_tool.numpy</text>
<text text-anchor="middle" x="73" y="-105.5" font-family="Helvetica,sans-Serif" font-size="10.00">_helper.array.shift.const</text>
</a>
</g>
</g>
<!-- Node1&#45;&gt;Node2 -->
<g id="edge1" class="edge">
<title>Node1&#45;&gt;Node2</title>
<path fill="none" stroke="midnightblue" d="M188.8,-82.25C169.29,-87.56 148.1,-93.33 129.29,-98.45"/>
<polygon fill="midnightblue" stroke="midnightblue" points="189.8,-85.61 198.53,-79.6 187.96,-78.85 189.8,-85.61"/>
</g>
<!-- Node3 -->
<g id="node3" class="node">
<title>Node3</title>
<g id="a_node3"><a xlink:href="../../dd/d2c/namespaceaopp__deconv__tool_1_1numpy__helper_1_1array_1_1shift.html#ad3c9be9a23047e5c5971b298a7665777" target="_top" xlink:title=" ">
<polygon fill="none" stroke="black" points="0,-49.5 0,-79.5 146,-79.5 146,-49.5 0,-49.5"/>
<text text-anchor="start" x="8" y="-67.5" font-family="Helvetica,sans-Serif" font-size="10.00">aopp_deconv_tool.numpy</text>
<text text-anchor="middle" x="73" y="-56.5" font-family="Helvetica,sans-Serif" font-size="10.00">_helper.array.shift.periodic</text>
</a>
</g>
</g>
<!-- Node1&#45;&gt;Node3 -->
<g id="edge2" class="edge">
<title>Node1&#45;&gt;Node3</title>
<path fill="none" stroke="midnightblue" d="M171.56,-64.5C163.09,-64.5 154.54,-64.5 146.19,-64.5"/>
<polygon fill="midnightblue" stroke="midnightblue" points="171.82,-68 181.82,-64.5 171.82,-61 171.82,-68"/>
</g>
<!-- Node4 -->
<g id="node4" class="node">
<title>Node4</title>
<g id="a_node4"><a xlink:href="../../dd/d2c/namespaceaopp__deconv__tool_1_1numpy__helper_1_1array_1_1shift.html#ae96ac9ff1636b517ad1030231c5c93b2" target="_top" xlink:title=" ">
<polygon fill="none" stroke="black" points="2,-0.5 2,-30.5 144,-30.5 144,-0.5 2,-0.5"/>
<text text-anchor="start" x="10" y="-18.5" font-family="Helvetica,sans-Serif" font-size="10.00">aopp_deconv_tool.numpy</text>
<text text-anchor="middle" x="73" y="-7.5" font-family="Helvetica,sans-Serif" font-size="10.00">_helper.array.shift.reflect</text>
</a>
</g>
</g>
<!-- Node1&#45;&gt;Node4 -->
<g id="edge3" class="edge">
<title>Node1&#45;&gt;Node4</title>
<path fill="none" stroke="midnightblue" d="M188.8,-46.75C169.29,-41.44 148.1,-35.67 129.29,-30.55"/>
<polygon fill="midnightblue" stroke="midnightblue" points="187.96,-50.15 198.53,-49.4 189.8,-43.39 187.96,-50.15"/>
</g>
</g>
</svg>
