<?xml version="1.0" encoding="UTF-8" standalone="no"?>
<!DOCTYPE svg PUBLIC "-//W3C//DTD SVG 1.1//EN"
 "http://www.w3.org/Graphics/SVG/1.1/DTD/svg11.dtd">
<!-- Generated by graphviz version 2.43.0 (0)
 -->
<!-- Title: aopp_deconv_tool.graphical_frontends.ssa_filtering.WidgetBase Pages: 1 -->
<svg width="640pt" height="235pt"
 viewBox="0.00 0.00 640.00 235.00" xmlns="http://www.w3.org/2000/svg" xmlns:xlink="http://www.w3.org/1999/xlink">
<g id="graph0" class="graph" transform="scale(1 1) rotate(0) translate(4 231)">
<title>aopp_deconv_tool.graphical_frontends.ssa_filtering.WidgetBase</title>
<!-- Node1 -->
<g id="node1" class="node">
<title>Node1</title>
<g id="a_node1"><a xlink:title=" ">
<polygon fill="#bfbfbf" stroke="black" points="0,-98.5 0,-128.5 193,-128.5 193,-98.5 0,-98.5"/>
<text text-anchor="start" x="8" y="-116.5" font-family="Helvetica,sans-Serif" font-size="10.00">aopp_deconv_tool.graphical</text>
<text text-anchor="middle" x="96.5" y="-105.5" font-family="Helvetica,sans-Serif" font-size="10.00">_frontends.ssa_filtering.WidgetBase</text>
</a>
</g>
</g>
<!-- Node2 -->
<g id="node2" class="node">
<title>Node2</title>
<g id="a_node2"><a xlink:href="../../d8/d1e/classaopp__deconv__tool_1_1graphical__frontends_1_1ssa__filtering_1_1Button.html" target="_top" xlink:title=" ">
<polygon fill="none" stroke="black" points="246.5,-196.5 246.5,-226.5 413.5,-226.5 413.5,-196.5 246.5,-196.5"/>
<text text-anchor="start" x="254.5" y="-214.5" font-family="Helvetica,sans-Serif" font-size="10.00">aopp_deconv_tool.graphical</text>
<text text-anchor="middle" x="330" y="-203.5" font-family="Helvetica,sans-Serif" font-size="10.00">_frontends.ssa_filtering.Button</text>
</a>
</g>
</g>
<!-- Node1&#45;&gt;Node2 -->
<g id="edge1" class="edge">
<title>Node1&#45;&gt;Node2</title>
<path fill="none" stroke="midnightblue" d="M128.44,-134.17C154.34,-150.66 192.79,-173.29 229,-187.5 237.56,-190.86 246.72,-193.84 255.9,-196.45"/>
<polygon fill="midnightblue" stroke="midnightblue" points="130.12,-131.09 119.82,-128.62 126.33,-136.98 130.12,-131.09"/>
</g>
<!-- Node3 -->
<g id="node3" class="node">
<title>Node3</title>
<g id="a_node3"><a xlink:href="../../d2/d2f/classaopp__deconv__tool_1_1graphical__frontends_1_1ssa__filtering_1_1CheckButtons.html" target="_top" xlink:title=" ">
<polygon fill="none" stroke="black" points="229,-147.5 229,-177.5 431,-177.5 431,-147.5 229,-147.5"/>
<text text-anchor="start" x="237" y="-165.5" font-family="Helvetica,sans-Serif" font-size="10.00">aopp_deconv_tool.graphical</text>
<text text-anchor="middle" x="330" y="-154.5" font-family="Helvetica,sans-Serif" font-size="10.00">_frontends.ssa_filtering.CheckButtons</text>
</a>
</g>
</g>
<!-- Node1&#45;&gt;Node3 -->
<g id="edge2" class="edge">
<title>Node1&#45;&gt;Node3</title>
<path fill="none" stroke="midnightblue" d="M178.35,-130.61C204.33,-136.11 232.89,-142.16 258.1,-147.49"/>
<polygon fill="midnightblue" stroke="midnightblue" points="179.04,-127.18 168.53,-128.53 177.59,-134.03 179.04,-127.18"/>
</g>
<!-- Node4 -->
<g id="node4" class="node">
<title>Node4</title>
<g id="a_node4"><a xlink:href="../../d9/d2e/classaopp__deconv__tool_1_1graphical__frontends_1_1ssa__filtering_1_1RadioButtons.html" target="_top" xlink:title=" ">
<polygon fill="none" stroke="black" points="230,-98.5 230,-128.5 430,-128.5 430,-98.5 230,-98.5"/>
<text text-anchor="start" x="238" y="-116.5" font-family="Helvetica,sans-Serif" font-size="10.00">aopp_deconv_tool.graphical</text>
<text text-anchor="middle" x="330" y="-105.5" font-family="Helvetica,sans-Serif" font-size="10.00">_frontends.ssa_filtering.RadioButtons</text>
</a>
</g>
</g>
<!-- Node1&#45;&gt;Node4 -->
<g id="edge3" class="edge">
<title>Node1&#45;&gt;Node4</title>
<path fill="none" stroke="midnightblue" d="M203.57,-113.5C212.33,-113.5 221.17,-113.5 229.88,-113.5"/>
<polygon fill="midnightblue" stroke="midnightblue" points="203.33,-110 193.33,-113.5 203.33,-117 203.33,-110"/>
</g>
<!-- Node5 -->
<g id="node5" class="node">
<title>Node5</title>
<g id="a_node5"><a xlink:href="../../d5/d53/classaopp__deconv__tool_1_1graphical__frontends_1_1ssa__filtering_1_1Slider.html" target="_top" xlink:title=" ">
<polygon fill="none" stroke="black" points="249,-49.5 249,-79.5 411,-79.5 411,-49.5 249,-49.5"/>
<text text-anchor="start" x="257" y="-67.5" font-family="Helvetica,sans-Serif" font-size="10.00">aopp_deconv_tool.graphical</text>
<text text-anchor="middle" x="330" y="-56.5" font-family="Helvetica,sans-Serif" font-size="10.00">_frontends.ssa_filtering.Slider</text>
</a>
</g>
</g>
<!-- Node1&#45;&gt;Node5 -->
<g id="edge4" class="edge">
<title>Node1&#45;&gt;Node5</title>
<path fill="none" stroke="midnightblue" d="M178.35,-96.39C204.33,-90.89 232.89,-84.84 258.1,-79.51"/>
<polygon fill="midnightblue" stroke="midnightblue" points="177.59,-92.97 168.53,-98.47 179.04,-99.82 177.59,-92.97"/>
</g>
<!-- Node7 -->
<g id="node7" class="node">
<title>Node7</title>
<g id="a_node7"><a xlink:href="../../da/d4a/classaopp__deconv__tool_1_1graphical__frontends_1_1ssa__filtering_1_1TextBox.html" target="_top" xlink:title=" ">
<polygon fill="none" stroke="black" points="243.5,-0.5 243.5,-30.5 416.5,-30.5 416.5,-0.5 243.5,-0.5"/>
<text text-anchor="start" x="251.5" y="-18.5" font-family="Helvetica,sans-Serif" font-size="10.00">aopp_deconv_tool.graphical</text>
<text text-anchor="middle" x="330" y="-7.5" font-family="Helvetica,sans-Serif" font-size="10.00">_frontends.ssa_filtering.TextBox</text>
</a>
</g>
</g>
<!-- Node1&#45;&gt;Node7 -->
<g id="edge6" class="edge">
<title>Node1&#45;&gt;Node7</title>
<path fill="none" stroke="midnightblue" d="M128.98,-92.93C154.93,-76.75 193.15,-54.65 229,-40.5 238.49,-36.76 248.71,-33.44 258.87,-30.55"/>
<polygon fill="midnightblue" stroke="midnightblue" points="126.93,-90.08 120.34,-98.38 130.67,-96 126.93,-90.08"/>
</g>
<!-- Node6 -->
<g id="node6" class="node">
<title>Node6</title>
<g id="a_node6"><a xlink:href="../../dc/d2e/classaopp__deconv__tool_1_1graphical__frontends_1_1ssa__filtering_1_1Range.html" target="_top" xlink:title=" ">
<polygon fill="none" stroke="black" points="467,-49.5 467,-79.5 632,-79.5 632,-49.5 467,-49.5"/>
<text text-anchor="start" x="475" y="-67.5" font-family="Helvetica,sans-Serif" font-size="10.00">aopp_deconv_tool.graphical</text>
<text text-anchor="middle" x="549.5" y="-56.5" font-family="Helvetica,sans-Serif" font-size="10.00">_frontends.ssa_filtering.Range</text>
</a>
</g>
</g>
<!-- Node5&#45;&gt;Node6 -->
<g id="edge5" class="edge">
<title>Node5&#45;&gt;Node6</title>
<path fill="none" stroke="midnightblue" d="M421.39,-64.5C436.44,-64.5 451.97,-64.5 466.79,-64.5"/>
<polygon fill="midnightblue" stroke="midnightblue" points="421.06,-61 411.06,-64.5 421.06,-68 421.06,-61"/>
</g>
</g>
</svg>
