<?xml version="1.0" encoding="UTF-8" standalone="no"?>
<!DOCTYPE svg PUBLIC "-//W3C//DTD SVG 1.1//EN"
 "http://www.w3.org/Graphics/SVG/1.1/DTD/svg11.dtd">
<!-- Generated by graphviz version 2.43.0 (0)
 -->
<!-- Title: aopp_deconv_tool.graphical_frontends.ssa_filtering.Slider Pages: 1 -->
<svg width="200pt" height="170pt"
 viewBox="0.00 0.00 200.00 170.00" xmlns="http://www.w3.org/2000/svg" xmlns:xlink="http://www.w3.org/1999/xlink">
<g id="graph0" class="graph" transform="scale(1 1) rotate(0) translate(4 166)">
<title>aopp_deconv_tool.graphical_frontends.ssa_filtering.Slider</title>
<!-- Node1 -->
<g id="Node000001" class="node">
<title>Node1</title>
<g id="a_Node000001"><a xlink:title=" ">
<polygon fill="#999999" stroke="#666666" points="176.5,-96 15.5,-96 15.5,-66 176.5,-66 176.5,-96"/>
<text text-anchor="start" x="23.5" y="-84" font-family="Helvetica,sans-Serif" font-size="10.00">aopp_deconv_tool.graphical</text>
<text text-anchor="middle" x="96" y="-73" font-family="Helvetica,sans-Serif" font-size="10.00">_frontends.ssa_filtering.Slider</text>
</a>
</g>
</g>
<!-- Node3 -->
<g id="Node000003" class="node">
<title>Node3</title>
<g id="a_Node000003"><a xlink:href="../../dc/d2e/classaopp__deconv__tool_1_1graphical__frontends_1_1ssa__filtering_1_1Range.html" target="_top" xlink:title=" ">
<polygon fill="white" stroke="#666666" points="178,-30 14,-30 14,0 178,0 178,-30"/>
<text text-anchor="start" x="22" y="-18" font-family="Helvetica,sans-Serif" font-size="10.00">aopp_deconv_tool.graphical</text>
<text text-anchor="middle" x="96" y="-7" font-family="Helvetica,sans-Serif" font-size="10.00">_frontends.ssa_filtering.Range</text>
</a>
</g>
</g>
<!-- Node1&#45;&gt;Node3 -->
<g id="edge2_Node000001_Node000003" class="edge">
<title>Node1&#45;&gt;Node3</title>
<g id="a_edge2_Node000001_Node000003"><a xlink:title=" ">
<path fill="none" stroke="#63b8ff" d="M96,-55.54C96,-46.96 96,-37.61 96,-30.16"/>
<polygon fill="#63b8ff" stroke="#63b8ff" points="92.5,-55.8 96,-65.8 99.5,-55.8 92.5,-55.8"/>
</a>
</g>
</g>
<!-- Node2 -->
<g id="Node000002" class="node">
<title>Node2</title>
<g id="a_Node000002"><a xlink:href="../../da/d39/classaopp__deconv__tool_1_1graphical__frontends_1_1ssa__filtering_1_1WidgetBase.html" target="_top" xlink:title=" ">
<polygon fill="white" stroke="#666666" points="192,-162 0,-162 0,-132 192,-132 192,-162"/>
<text text-anchor="start" x="8" y="-150" font-family="Helvetica,sans-Serif" font-size="10.00">aopp_deconv_tool.graphical</text>
<text text-anchor="middle" x="96" y="-139" font-family="Helvetica,sans-Serif" font-size="10.00">_frontends.ssa_filtering.WidgetBase</text>
</a>
</g>
</g>
<!-- Node2&#45;&gt;Node1 -->
<g id="edge1_Node000001_Node000002" class="edge">
<title>Node2&#45;&gt;Node1</title>
<g id="a_edge1_Node000001_Node000002"><a xlink:title=" ">
<path fill="none" stroke="#63b8ff" d="M96,-121.54C96,-112.96 96,-103.61 96,-96.16"/>
<polygon fill="#63b8ff" stroke="#63b8ff" points="92.5,-121.8 96,-131.8 99.5,-121.8 92.5,-121.8"/>
</a>
</g>
</g>
</g>
</svg>
