<?xml version="1.0" encoding="UTF-8" standalone="no"?>
<!DOCTYPE svg PUBLIC "-//W3C//DTD SVG 1.1//EN"
 "http://www.w3.org/Graphics/SVG/1.1/DTD/svg11.dtd">
<!-- Generated by graphviz version 2.43.0 (0)
 -->
<!-- Title: specifier.parse Pages: 1 -->
<svg width="250pt" height="78pt"
 viewBox="0.00 0.00 250.00 77.50" xmlns="http://www.w3.org/2000/svg" xmlns:xlink="http://www.w3.org/1999/xlink">
<g id="graph0" class="graph" transform="scale(1 1) rotate(0) translate(4 73.5)">
<title>specifier.parse</title>
<!-- Node1 -->
<g id="node1" class="node">
<title>Node1</title>
<g id="a_node1"><a xlink:title=" ">
<polygon fill="#bfbfbf" stroke="black" points="0,-28 0,-47 89,-47 89,-28 0,-28"/>
<text text-anchor="middle" x="44.5" y="-35" font-family="Helvetica,sans-Serif" font-size="10.00">specifier.parse</text>
</a>
</g>
</g>
<!-- Node2 -->
<g id="node2" class="node">
<title>Node2</title>
<g id="a_node2"><a xlink:href="../../df/d33/namespacespecifier.html#ab9105ce40462520d5c00b6aeb9db7fab" target="_top" xlink:title=" ">
<polygon fill="none" stroke="black" points="131.5,-50 131.5,-69 235.5,-69 235.5,-50 131.5,-50"/>
<text text-anchor="middle" x="183.5" y="-57" font-family="Helvetica,sans-Serif" font-size="10.00">specifier.get_help</text>
</a>
</g>
</g>
<!-- Node1&#45;&gt;Node2 -->
<g id="edge1" class="edge">
<title>Node1&#45;&gt;Node2</title>
<path fill="none" stroke="midnightblue" d="M89.22,-44.52C99.31,-46.14 110.23,-47.89 120.92,-49.61"/>
<polygon fill="midnightblue" stroke="midnightblue" points="120.64,-53.11 131.06,-51.24 121.75,-46.2 120.64,-53.11"/>
</g>
<!-- Node3 -->
<g id="node3" class="node">
<title>Node3</title>
<g id="a_node3"><a xlink:href="../../df/d33/namespacespecifier.html#a249cecd3b7eadcc36e685f12887a527d" target="_top" xlink:title=" ">
<polygon fill="none" stroke="black" points="125,-0.5 125,-30.5 242,-30.5 242,-0.5 125,-0.5"/>
<text text-anchor="start" x="133" y="-18.5" font-family="Helvetica,sans-Serif" font-size="10.00">specifier.parse_axes</text>
<text text-anchor="middle" x="183.5" y="-7.5" font-family="Helvetica,sans-Serif" font-size="10.00">_type_list</text>
</a>
</g>
</g>
<!-- Node1&#45;&gt;Node3 -->
<g id="edge2" class="edge">
<title>Node1&#45;&gt;Node3</title>
<path fill="none" stroke="midnightblue" d="M89.22,-30.48C97.33,-29.18 105.97,-27.79 114.6,-26.4"/>
<polygon fill="midnightblue" stroke="midnightblue" points="115.37,-29.83 124.69,-24.78 114.26,-22.91 115.37,-29.83"/>
</g>
</g>
</svg>
