<?xml version="1.0" encoding="UTF-8" standalone="no"?>
<!DOCTYPE svg PUBLIC "-//W3C//DTD SVG 1.1//EN"
 "http://www.w3.org/Graphics/SVG/1.1/DTD/svg11.dtd">
<!-- Generated by graphviz version 2.43.0 (0)
 -->
<!-- Title: aopp_deconv_tool.algorithm.deconv.clean_modified.CleanModified.get_residual Pages: 1 -->
<svg width="489pt" height="100pt"
 viewBox="0.00 0.00 489.00 99.50" xmlns="http://www.w3.org/2000/svg" xmlns:xlink="http://www.w3.org/1999/xlink">
<g id="graph0" class="graph" transform="scale(1 1) rotate(0) translate(4 95.5)">
<title>aopp_deconv_tool.algorithm.deconv.clean_modified.CleanModified.get_residual</title>
<!-- Node1 -->
<g id="node1" class="node">
<title>Node1</title>
<g id="a_node1"><a xlink:title=" ">
<polygon fill="#bfbfbf" stroke="black" points="0,-33 0,-63 222,-63 222,-33 0,-33"/>
<text text-anchor="start" x="8" y="-51" font-family="Helvetica,sans-Serif" font-size="10.00">aopp_deconv_tool.algorithm.deconv.clean</text>
<text text-anchor="middle" x="111" y="-40" font-family="Helvetica,sans-Serif" font-size="10.00">_modified.CleanModified.get_residual</text>
</a>
</g>
</g>
<!-- Node2 -->
<g id="node2" class="node">
<title>Node2</title>
<g id="a_node2"><a xlink:href="../../dd/d03/classaopp__deconv__tool_1_1algorithm_1_1deconv_1_1clean__modified_1_1CleanModified.html#a0c2fdfd944e0af081c877de804fc8f78" target="_top" xlink:title=" ">
<polygon fill="none" stroke="black" points="258,-61 258,-91 481,-91 481,-61 258,-61"/>
<text text-anchor="start" x="266" y="-79" font-family="Helvetica,sans-Serif" font-size="10.00">aopp_deconv_tool.algorithm.deconv.clean</text>
<text text-anchor="middle" x="369.5" y="-68" font-family="Helvetica,sans-Serif" font-size="10.00">_modified.CleanModified.get_components</text>
</a>
</g>
</g>
<!-- Node1&#45;&gt;Node2 -->
<g id="edge1" class="edge">
<title>Node1&#45;&gt;Node2</title>
<path fill="none" stroke="midnightblue" d="M222.27,-60.04C230.76,-60.96 239.36,-61.9 247.91,-62.84"/>
<polygon fill="midnightblue" stroke="midnightblue" points="247.6,-66.32 257.92,-63.93 248.36,-59.36 247.6,-66.32"/>
</g>
<!-- Node3 -->
<g id="node3" class="node">
<title>Node3</title>
<g id="a_node3"><a xlink:href="../../d8/dc0/classaopp__deconv__tool_1_1algorithm_1_1deconv_1_1lucy__richardson_1_1LucyRichardson.html#a9738dad2d2ef1608eaa33bd4cae3b94f" target="_top" xlink:title=" ">
<polygon fill="none" stroke="black" points="261.5,-0.5 261.5,-41.5 477.5,-41.5 477.5,-0.5 261.5,-0.5"/>
<text text-anchor="start" x="269.5" y="-29.5" font-family="Helvetica,sans-Serif" font-size="10.00">aopp_deconv_tool.algorithm.deconv.lucy</text>
<text text-anchor="start" x="269.5" y="-18.5" font-family="Helvetica,sans-Serif" font-size="10.00">_richardson.LucyRichardson.get</text>
<text text-anchor="middle" x="369.5" y="-7.5" font-family="Helvetica,sans-Serif" font-size="10.00">_components</text>
</a>
</g>
</g>
<!-- Node1&#45;&gt;Node3 -->
<g id="edge2" class="edge">
<title>Node1&#45;&gt;Node3</title>
<path fill="none" stroke="midnightblue" d="M222.27,-36.39C231.84,-35.39 241.55,-34.36 251.18,-33.35"/>
<polygon fill="midnightblue" stroke="midnightblue" points="251.59,-36.83 261.17,-32.3 250.86,-29.86 251.59,-36.83"/>
</g>
</g>
</svg>
