<?xml version="1.0" encoding="UTF-8" standalone="no"?>
<!DOCTYPE svg PUBLIC "-//W3C//DTD SVG 1.1//EN"
 "http://www.w3.org/Graphics/SVG/1.1/DTD/svg11.dtd">
<!-- Generated by graphviz version 2.43.0 (0)
 -->
<!-- Title: aopp_deconv_tool.astropy_helper.fits.header.is_CDi_j_present Pages: 1 -->
<svg width="334pt" height="110pt"
 viewBox="0.00 0.00 334.00 110.00" xmlns="http://www.w3.org/2000/svg" xmlns:xlink="http://www.w3.org/1999/xlink">
<g id="graph0" class="graph" transform="scale(1 1) rotate(0) translate(4 106)">
<title>aopp_deconv_tool.astropy_helper.fits.header.is_CDi_j_present</title>
<!-- Node1 -->
<g id="node1" class="node">
<title>Node1</title>
<g id="a_node1"><a xlink:title=" ">
<polygon fill="#bfbfbf" stroke="black" points="181,-30.5 181,-71.5 326,-71.5 326,-30.5 181,-30.5"/>
<text text-anchor="start" x="189" y="-59.5" font-family="Helvetica,sans-Serif" font-size="10.00">aopp_deconv_tool.astropy</text>
<text text-anchor="start" x="189" y="-48.5" font-family="Helvetica,sans-Serif" font-size="10.00">_helper.fits.header.is</text>
<text text-anchor="middle" x="253.5" y="-37.5" font-family="Helvetica,sans-Serif" font-size="10.00">_CDi_j_present</text>
</a>
</g>
</g>
<!-- Node2 -->
<g id="node2" class="node">
<title>Node2</title>
<g id="a_node2"><a xlink:href="../../d0/d30/namespaceaopp__deconv__tool_1_1astropy__helper_1_1fits_1_1header.html#a86e14828dfb60c1ca5e7a983797bc6c0" target="_top" xlink:title=" ">
<polygon fill="none" stroke="black" points="0,-60.5 0,-101.5 145,-101.5 145,-60.5 0,-60.5"/>
<text text-anchor="start" x="8" y="-89.5" font-family="Helvetica,sans-Serif" font-size="10.00">aopp_deconv_tool.astropy</text>
<text text-anchor="start" x="8" y="-78.5" font-family="Helvetica,sans-Serif" font-size="10.00">_helper.fits.header.get</text>
<text text-anchor="middle" x="72.5" y="-67.5" font-family="Helvetica,sans-Serif" font-size="10.00">_iwc_matrix</text>
</a>
</g>
</g>
<!-- Node1&#45;&gt;Node2 -->
<g id="edge1" class="edge">
<title>Node1&#45;&gt;Node2</title>
<path fill="none" stroke="midnightblue" d="M170.96,-64.67C162.36,-66.11 153.67,-67.56 145.2,-68.98"/>
<polygon fill="midnightblue" stroke="midnightblue" points="171.7,-68.09 180.98,-62.99 170.54,-61.19 171.7,-68.09"/>
</g>
<!-- Node3 -->
<g id="node3" class="node">
<title>Node3</title>
<g id="a_node3"><a xlink:href="../../d0/d30/namespaceaopp__deconv__tool_1_1astropy__helper_1_1fits_1_1header.html#a2485ec4b67cc9512172f413a44d77c93" target="_top" xlink:title=" ">
<polygon fill="none" stroke="black" points="0,-0.5 0,-41.5 145,-41.5 145,-0.5 0,-0.5"/>
<text text-anchor="start" x="8" y="-29.5" font-family="Helvetica,sans-Serif" font-size="10.00">aopp_deconv_tool.astropy</text>
<text text-anchor="start" x="8" y="-18.5" font-family="Helvetica,sans-Serif" font-size="10.00">_helper.fits.header.set</text>
<text text-anchor="middle" x="72.5" y="-7.5" font-family="Helvetica,sans-Serif" font-size="10.00">_iwc_matrix</text>
</a>
</g>
</g>
<!-- Node1&#45;&gt;Node3 -->
<g id="edge2" class="edge">
<title>Node1&#45;&gt;Node3</title>
<path fill="none" stroke="midnightblue" d="M170.96,-37.33C162.36,-35.89 153.67,-34.44 145.2,-33.02"/>
<polygon fill="midnightblue" stroke="midnightblue" points="170.54,-40.81 180.98,-39.01 171.7,-33.91 170.54,-40.81"/>
</g>
</g>
</svg>
