<?xml version="1.0" encoding="UTF-8" standalone="no"?>
<!DOCTYPE svg PUBLIC "-//W3C//DTD SVG 1.1//EN"
 "http://www.w3.org/Graphics/SVG/1.1/DTD/svg11.dtd">
<!-- Generated by graphviz version 2.43.0 (0)
 -->
<!-- Title: specifier.FitsInfo.refresh Pages: 1 -->
<svg width="312pt" height="78pt"
 viewBox="0.00 0.00 312.00 77.50" xmlns="http://www.w3.org/2000/svg" xmlns:xlink="http://www.w3.org/1999/xlink">
<g id="graph0" class="graph" transform="scale(1 1) rotate(0) translate(4 73.5)">
<title>specifier.FitsInfo.refresh</title>
<!-- Node1 -->
<g id="node1" class="node">
<title>Node1</title>
<g id="a_node1"><a xlink:title=" ">
<polygon fill="#bfbfbf" stroke="black" points="170,-22.5 170,-41.5 304,-41.5 304,-22.5 170,-22.5"/>
<text text-anchor="middle" x="237" y="-29.5" font-family="Helvetica,sans-Serif" font-size="10.00">specifier.FitsInfo.refresh</text>
</a>
</g>
</g>
<!-- Node2 -->
<g id="node2" class="node">
<title>Node2</title>
<g id="a_node2"><a xlink:href="../../d3/db3/classspecifier_1_1FitsInfo.html#a9214e90692373824f8b1bdc25fe5dfcb" target="_top" xlink:title=" ">
<polygon fill="none" stroke="black" points="8,-39 8,-69 126,-69 126,-39 8,-39"/>
<text text-anchor="start" x="16" y="-57" font-family="Helvetica,sans-Serif" font-size="10.00">specifier.FitsInfo.hdu</text>
<text text-anchor="middle" x="67" y="-46" font-family="Helvetica,sans-Serif" font-size="10.00">_identifiers</text>
</a>
</g>
</g>
<!-- Node1&#45;&gt;Node2 -->
<g id="edge1" class="edge">
<title>Node1&#45;&gt;Node2</title>
<path fill="none" stroke="midnightblue" d="M159.38,-42.03C148.17,-43.5 136.79,-44.99 126.03,-46.4"/>
<polygon fill="midnightblue" stroke="midnightblue" points="160.14,-45.46 169.6,-40.69 159.23,-38.52 160.14,-45.46"/>
</g>
<!-- Node3 -->
<g id="node3" class="node">
<title>Node3</title>
<g id="a_node3"><a xlink:href="../../d3/db3/classspecifier_1_1FitsInfo.html#ae50d5ca290fa58f1cfac666cf74c7284" target="_top" xlink:title=" ">
<polygon fill="none" stroke="black" points="0,-0.5 0,-19.5 134,-19.5 134,-0.5 0,-0.5"/>
<text text-anchor="middle" x="67" y="-7.5" font-family="Helvetica,sans-Serif" font-size="10.00">specifier.FitsInfo.n_hdus</text>
</a>
</g>
</g>
<!-- Node1&#45;&gt;Node3 -->
<g id="edge2" class="edge">
<title>Node1&#45;&gt;Node3</title>
<path fill="none" stroke="midnightblue" d="M159.68,-22.01C151.17,-20.89 142.56,-19.76 134.19,-18.67"/>
<polygon fill="midnightblue" stroke="midnightblue" points="159.23,-25.48 169.6,-23.31 160.14,-18.54 159.23,-25.48"/>
</g>
</g>
</svg>
