<?xml version="1.0" encoding="UTF-8" standalone="no"?>
<!DOCTYPE svg PUBLIC "-//W3C//DTD SVG 1.1//EN"
 "http://www.w3.org/Graphics/SVG/1.1/DTD/svg11.dtd">
<!-- Generated by graphviz version 2.43.0 (0)
 -->
<!-- Title: src/aopp_deconv_tool Pages: 1 -->
<!--zoomable 94 -->

<svg id="main" version="1.1" xmlns="http://www.w3.org/2000/svg" xmlns:xlink="http://www.w3.org/1999/xlink" xml:space="preserve" onload="init(evt)">
<style type="text/css"><![CDATA[
.node, .edge {opacity: 0.7;}
.node.selected, .edge.selected {opacity: 1;}
.edge:hover path { stroke: red; }
.edge:hover polygon { stroke: red; fill: red; }
]]></style>

<defs>
  <circle id="rim" cx="0" cy="0" r="7"/>
  <circle id="rim2" cx="0" cy="0" r="3.5"/>
  <g id="zoomPlus">
    <use xlink:href="#rim" fill="#404040"><set attributeName="fill" to="#808080" begin="zoomplus.mouseover" end="zoomplus.mouseout"/></use>
    <path d="M-4,0h8M0,-4v8" fill="none" stroke="white" stroke-width="1.5" pointer-events="none"/>
  </g>
  <g id="zoomMin">
    <use xlink:href="#rim" fill="#404040"><set attributeName="fill" to="#808080" begin="zoomminus.mouseover" end="zoomminus.mouseout"/></use>
    <path d="M-4,0h8" fill="none" stroke="white" stroke-width="1.5" pointer-events="none"/>
  </g>
  <g id="arrowUp" transform="translate(30 24)">
    <use xlink:href="#rim"/>
    <path pointer-events="none" fill="none" stroke="white" stroke-width="1.5" d="M0,-3.0v7 M-2.5,-0.5L0,-3.0L2.5,-0.5"/>
  </g>
  <g id="arrowRight" transform="rotate(90) translate(36 -43)">
    <use xlink:href="#rim"/>
    <path pointer-events="none" fill="none" stroke="white" stroke-width="1.5" d="M0,-3.0v7 M-2.5,-0.5L0,-3.0L2.5,-0.5"/>
  </g>
  <g id="arrowDown" transform="rotate(180) translate(-30 -48)">
    <use xlink:href="#rim"/>
    <path pointer-events="none" fill="none" stroke="white" stroke-width="1.5" d="M0,-3.0v7 M-2.5,-0.5L0,-3.0L2.5,-0.5"/>
  </g>
  <g id="arrowLeft" transform="rotate(270) translate(-36 17)">
    <use xlink:href="#rim"/>
    <path pointer-events="none" fill="none" stroke="white" stroke-width="1.5" d="M0,-3.0v7 M-2.5,-0.5L0,-3.0L2.5,-0.5"/>
  </g>
  <g id="resetDef">
    <use xlink:href="#rim2" fill="#404040"><set attributeName="fill" to="#808080" begin="reset.mouseover" end="reset.mouseout"/></use>
  </g>
</defs>
<script type="application/ecmascript">
var viewWidth = 1718;
var viewHeight = 94;
var sectionId = 'dynsection-0';
</script>
<script type="application/ecmascript" xlink:href="svg.min.js"/>
<svg id="graph" class="graph">
<g id="viewport">
<title>src/aopp_deconv_tool</title>
<g id="clust1" class="cluster">
<title>clusterdir_68267d1309a1af8e8297ef4c3efbcdba</title>
<g id="a_clust1"><a xlink:href="dir_68267d1309a1af8e8297ef4c3efbcdba.html" target="_top" xlink:title="src">
<polygon fill="#edf0f7" stroke="#404040" stroke-dasharray="5,2" points="8,-8 8,-78 1702,-78 1702,-8 8,-8"/>
<text text-anchor="middle" x="855" y="-66" font-family="Helvetica,sans-Serif" font-size="10.00">src</text>
</a>
</g>
</g>
<g id="clust2" class="cluster">
<title>clusterdir_918410a5d35c29ada1bf17cd2a9539e7</title>
<g id="a_clust2"><a xlink:href="dir_918410a5d35c29ada1bf17cd2a9539e7.html" target="_top">
<polygon fill="#edf0f7" stroke="#404040" stroke-width="2" points="16,-16 16,-51 1694,-51 1694,-16 16,-16"/>
</a>
</g>
</g>
<!-- dir_918410a5d35c29ada1bf17cd2a9539e7 -->
<g id="node1" class="node">
<title>dir_918410a5d35c29ada1bf17cd2a9539e7</title>
<text text-anchor="middle" x="1633" y="-31" font-family="Helvetica,sans-Serif" font-size="10.00">aopp_deconv_tool</text>
</g>
<!-- dir_4af557b411aea070bb35a3e89761794f -->
<g id="node2" class="node">
<title>dir_4af557b411aea070bb35a3e89761794f</title>
<g id="a_node2"><a xlink:href="dir_4af557b411aea070bb35a3e89761794f.html" target="_top" xlink:title="algorithm">
<polygon fill="#a2b4d6" stroke="#404040" points="1562,-43 1498,-43 1498,-24 1562,-24 1562,-43"/>
<text text-anchor="middle" x="1530" y="-31" font-family="Helvetica,sans-Serif" font-size="10.00">algorithm</text>
</a>
</g>
</g>
<!-- dir_61b1a628e0e9bd114f0e45f4a88b6b5a -->
<g id="node3" class="node">
<title>dir_61b1a628e0e9bd114f0e45f4a88b6b5a</title>
<g id="a_node3"><a xlink:href="dir_61b1a628e0e9bd114f0e45f4a88b6b5a.html" target="_top" xlink:title="astropy_helper">
<polygon fill="#a2b4d6" stroke="#404040" points="1479.5,-43 1390.5,-43 1390.5,-24 1479.5,-24 1479.5,-43"/>
<text text-anchor="middle" x="1435" y="-31" font-family="Helvetica,sans-Serif" font-size="10.00">astropy_helper</text>
</a>
</g>
</g>
<!-- dir_beb8c5db31986f99a243590026feeac3 -->
<g id="node4" class="node">
<title>dir_beb8c5db31986f99a243590026feeac3</title>
<g id="a_node4"><a xlink:href="dir_beb8c5db31986f99a243590026feeac3.html" target="_top" xlink:title="cfg">
<polygon fill="#a2b4d6" stroke="#404040" points="1372,-43 1340,-43 1340,-24 1372,-24 1372,-43"/>
<text text-anchor="middle" x="1356" y="-31" font-family="Helvetica,sans-Serif" font-size="10.00">cfg</text>
</a>
</g>
</g>
<!-- dir_1bcc50b7e6f32162e30d30bb6daf8b2d -->
<g id="node5" class="node">
<title>dir_1bcc50b7e6f32162e30d30bb6daf8b2d</title>
<g id="a_node5"><a xlink:href="dir_1bcc50b7e6f32162e30d30bb6daf8b2d.html" target="_top" xlink:title="context">
<polygon fill="#a2b4d6" stroke="#404040" points="1321.5,-43 1268.5,-43 1268.5,-24 1321.5,-24 1321.5,-43"/>
<text text-anchor="middle" x="1295" y="-31" font-family="Helvetica,sans-Serif" font-size="10.00">context</text>
</a>
</g>
</g>
<!-- dir_3fff2ea167b1098d6425d7e90e31bedf -->
<g id="node6" class="node">
<title>dir_3fff2ea167b1098d6425d7e90e31bedf</title>
<g id="a_node6"><a xlink:href="dir_3fff2ea167b1098d6425d7e90e31bedf.html" target="_top" xlink:title="data_structures">
<polygon fill="#a2b4d6" stroke="#404040" points="1250,-43 1158,-43 1158,-24 1250,-24 1250,-43"/>
<text text-anchor="middle" x="1204" y="-31" font-family="Helvetica,sans-Serif" font-size="10.00">data_structures</text>
</a>
</g>
</g>
<!-- dir_3936b71f0be72e9960a6758497f8f9e1 -->
<g id="node7" class="node">
<title>dir_3936b71f0be72e9960a6758497f8f9e1</title>
<g id="a_node7"><a xlink:href="dir_3936b71f0be72e9960a6758497f8f9e1.html" target="_top" xlink:title="geometry">
<polygon fill="#a2b4d6" stroke="#404040" points="1140,-43 1076,-43 1076,-24 1140,-24 1140,-43"/>
<text text-anchor="middle" x="1108" y="-31" font-family="Helvetica,sans-Serif" font-size="10.00">geometry</text>
</a>
</g>
</g>
<!-- dir_b0504488dad1c5916e0885cae8b4f83c -->
<g id="node8" class="node">
<title>dir_b0504488dad1c5916e0885cae8b4f83c</title>
<g id="a_node8"><a xlink:href="dir_b0504488dad1c5916e0885cae8b4f83c.html" target="_top" xlink:title="graphical_frontends">
<polygon fill="#a2b4d6" stroke="#404040" points="1057.5,-43 944.5,-43 944.5,-24 1057.5,-24 1057.5,-43"/>
<text text-anchor="middle" x="1001" y="-31" font-family="Helvetica,sans-Serif" font-size="10.00">graphical_frontends</text>
</a>
</g>
</g>
<!-- dir_7afea3c2c915eb5fd72dff857d881045 -->
<g id="node9" class="node">
<title>dir_7afea3c2c915eb5fd72dff857d881045</title>
<g id="a_node9"><a xlink:href="dir_7afea3c2c915eb5fd72dff857d881045.html" target="_top" xlink:title="image_processing">
<polygon fill="#a2b4d6" stroke="#404040" points="926.5,-43 821.5,-43 821.5,-24 926.5,-24 926.5,-43"/>
<text text-anchor="middle" x="874" y="-31" font-family="Helvetica,sans-Serif" font-size="10.00">image_processing</text>
</a>
</g>
</g>
<!-- dir_9fe6007dd2a3f0a20c73f47d61e3af9a -->
<g id="node10" class="node">
<title>dir_9fe6007dd2a3f0a20c73f47d61e3af9a</title>
<g id="a_node10"><a xlink:href="dir_9fe6007dd2a3f0a20c73f47d61e3af9a.html" target="_top" xlink:title="instrument_model">
<polygon fill="#a2b4d6" stroke="#404040" points="803,-43 697,-43 697,-24 803,-24 803,-43"/>
<text text-anchor="middle" x="750" y="-31" font-family="Helvetica,sans-Serif" font-size="10.00">instrument_model</text>
</a>
</g>
</g>
<!-- dir_91573b9f780faec3b532b228226cfbcd -->
<g id="node11" class="node">
<title>dir_91573b9f780faec3b532b228226cfbcd</title>
<g id="a_node11"><a xlink:href="dir_91573b9f780faec3b532b228226cfbcd.html" target="_top" xlink:title="numpy_helper">
<polygon fill="#a2b4d6" stroke="#404040" points="679,-43 593,-43 593,-24 679,-24 679,-43"/>
<text text-anchor="middle" x="636" y="-31" font-family="Helvetica,sans-Serif" font-size="10.00">numpy_helper</text>
</a>
</g>
</g>
<!-- dir_5373da2436ee41859b58e090c5072d0c -->
<g id="node12" class="node">
<title>dir_5373da2436ee41859b58e090c5072d0c</title>
<g id="a_node12"><a xlink:href="dir_5373da2436ee41859b58e090c5072d0c.html" target="_top" xlink:title="optics">
<polygon fill="#a2b4d6" stroke="#404040" points="575,-43 529,-43 529,-24 575,-24 575,-43"/>
<text text-anchor="middle" x="552" y="-31" font-family="Helvetica,sans-Serif" font-size="10.00">optics</text>
</a>
</g>
</g>
<!-- dir_0a4561eb62e70eeb3ec694aa46516942 -->
<g id="node13" class="node">
<title>dir_0a4561eb62e70eeb3ec694aa46516942</title>
<g id="a_node13"><a xlink:href="dir_0a4561eb62e70eeb3ec694aa46516942.html" target="_top" xlink:title="optimise_compat">
<polygon fill="#a2b4d6" stroke="#404040" points="510.5,-43 409.5,-43 409.5,-24 510.5,-24 510.5,-43"/>
<text text-anchor="middle" x="460" y="-31" font-family="Helvetica,sans-Serif" font-size="10.00">optimise_compat</text>
</a>
</g>
</g>
<!-- dir_287aebf88f76255adfa248e3c584ec0d -->
<g id="node14" class="node">
<title>dir_287aebf88f76255adfa248e3c584ec0d</title>
<g id="a_node14"><a xlink:href="dir_287aebf88f76255adfa248e3c584ec0d.html" target="_top" xlink:title="plot_helper">
<polygon fill="#a2b4d6" stroke="#404040" points="391.5,-43 320.5,-43 320.5,-24 391.5,-24 391.5,-43"/>
<text text-anchor="middle" x="356" y="-31" font-family="Helvetica,sans-Serif" font-size="10.00">plot_helper</text>
</a>
</g>
</g>
<!-- dir_221d019119b29fdd26975a8bffb5e7c2 -->
<g id="node15" class="node">
<title>dir_221d019119b29fdd26975a8bffb5e7c2</title>
<g id="a_node15"><a xlink:href="dir_221d019119b29fdd26975a8bffb5e7c2.html" target="_top" xlink:title="psf_model">
<polygon fill="#a2b4d6" stroke="#404040" points="302,-43 234,-43 234,-24 302,-24 302,-43"/>
<text text-anchor="middle" x="268" y="-31" font-family="Helvetica,sans-Serif" font-size="10.00">psf_model</text>
</a>
</g>
</g>
<!-- dir_7435345343d4b0d048d3f474c91c83c6 -->
<g id="node16" class="node">
<title>dir_7435345343d4b0d048d3f474c91c83c6</title>
<g id="a_node16"><a xlink:href="dir_7435345343d4b0d048d3f474c91c83c6.html" target="_top" xlink:title="scipy_helper">
<polygon fill="#a2b4d6" stroke="#404040" points="216,-43 138,-43 138,-24 216,-24 216,-43"/>
<text text-anchor="middle" x="177" y="-31" font-family="Helvetica,sans-Serif" font-size="10.00">scipy_helper</text>
</a>
</g>
</g>
<!-- dir_e0f65fcecd51a4c6263a3dcf8f97514f -->
<g id="node17" class="node">
<title>dir_e0f65fcecd51a4c6263a3dcf8f97514f</title>
<g id="a_node17"><a xlink:href="dir_e0f65fcecd51a4c6263a3dcf8f97514f.html" target="_top" xlink:title="stats">
<polygon fill="#a2b4d6" stroke="#404040" points="119.5,-43 78.5,-43 78.5,-24 119.5,-24 119.5,-43"/>
<text text-anchor="middle" x="99" y="-31" font-family="Helvetica,sans-Serif" font-size="10.00">stats</text>
</a>
</g>
</g>
<!-- dir_a317c44deb0b31d5019dc47f1cc228c9 -->
<g id="node18" class="node">
<title>dir_a317c44deb0b31d5019dc47f1cc228c9</title>
<g id="a_node18"><a xlink:href="dir_a317c44deb0b31d5019dc47f1cc228c9.html" target="_top" xlink:title="text">
<polygon fill="#a2b4d6" stroke="#404040" points="60,-43 24,-43 24,-24 60,-24 60,-43"/>
<text text-anchor="middle" x="42" y="-31" font-family="Helvetica,sans-Serif" font-size="10.00">text</text>
</a>
</g>
</g>
</g>
</svg>

<g id="navigator" transform="translate(0 0)" fill="#404254">
  <rect fill="#f2f5e9" fill-opacity="0.5" stroke="#606060" stroke-width=".5" x="0" y="0" width="60" height="60"/>
  <use id="zoomplus" xlink:href="#zoomPlus" x="17" y="9" onmousedown="handleZoom(evt,'in')"/>
  <use id="zoomminus" xlink:href="#zoomMin" x="42" y="9" onmousedown="handleZoom(evt,'out')"/>
  <use id="reset" xlink:href="#resetDef" x="30" y="36" onmousedown="handleReset()"/>
   <use id="arrowup" xlink:href="#arrowUp" x="0" y="0" onmousedown="handlePan(0,-1)"/>
  <use id="arrowright" xlink:href="#arrowRight" x="0" y="0" onmousedown="handlePan(1,0)"/>
  <use id="arrowdown" xlink:href="#arrowDown" x="0" y="0" onmousedown="handlePan(0,1)"/>
  <use id="arrowleft" xlink:href="#arrowLeft" x="0" y="0" onmousedown="handlePan(-1,0)"/>
</g>
<svg viewBox="0 0 15 15" width="100%" height="30px" preserveAspectRatio="xMaxYMin meet">
 <g id="arrow_out" transform="scale(0.3 0.3)">
  <a xlink:href="dir_918410a5d35c29ada1bf17cd2a9539e7_dep_org.svg" target="_base">
   <rect id="button" ry="5" rx="5" y="6" x="6" height="38" width="38"
        fill="#f2f5e9" fill-opacity="0.5" stroke="#606060" stroke-width="1.0"/>
   <path id="arrow"
     d="M 11.500037,31.436501 C 11.940474,20.09759 22.043105,11.32322 32.158766,21.979434 L 37.068811,17.246167 C 37.068811,17.246167 37.088388,32 37.088388,32 L 22.160133,31.978069 C 22.160133,31.978069 26.997745,27.140456 26.997745,27.140456 C 18.528582,18.264221 13.291696,25.230495 11.500037,31.436501 z"
     style="fill:#404040;"/>
  </a>
 </g>
</svg>

<style type='text/css'>
<![CDATA[
[data-mouse-over-selected='false'] { opacity: 0.7; }
[data-mouse-over-selected='true']  { opacity: 1.0; }
]]>
</style>
<script type="application/ecmascript"><![CDATA[
document.addEventListener('DOMContentLoaded', (event) => {
  highlightEdges();
  highlightAdjacentNodes();
});
]]></script>
</svg>
