<?xml version="1.0" encoding="UTF-8" standalone="no"?>
<!DOCTYPE svg PUBLIC "-//W3C//DTD SVG 1.1//EN"
 "http://www.w3.org/Graphics/SVG/1.1/DTD/svg11.dtd">
<!-- Generated by graphviz version 2.43.0 (0)
 -->
<!-- Title: Graphical Class Hierarchy Pages: 1 -->
<svg width="329pt" height="161pt"
 viewBox="0.00 0.00 329.00 160.50" xmlns="http://www.w3.org/2000/svg" xmlns:xlink="http://www.w3.org/1999/xlink">
<g id="graph0" class="graph" transform="scale(1 1) rotate(0) translate(4 156.5)">
<title>Graphical Class Hierarchy</title>
<!-- Node0 -->
<g id="Node000000" class="node">
<title>Node0</title>
<g id="a_Node000000"><a xlink:href="dd/dde/classaopp__deconv__tool_1_1geo__array_1_1GeoArray.html" target="_top" xlink:title=" ">
<polygon fill="white" stroke="#666666" points="126,-82.5 0,-82.5 0,-52.5 126,-52.5 126,-82.5"/>
<text text-anchor="start" x="8" y="-70.5" font-family="Helvetica,sans-Serif" font-size="10.00">aopp_deconv_tool.geo</text>
<text text-anchor="middle" x="63" y="-59.5" font-family="Helvetica,sans-Serif" font-size="10.00">_array.GeoArray</text>
</a>
</g>
</g>
<!-- Node1 -->
<g id="Node000001" class="node">
<title>Node1</title>
<g id="a_Node000001"><a xlink:href="d2/d57/classfunction_1_1OpticalTransferFunction.html" target="_top" xlink:title=" ">
<polygon fill="white" stroke="#666666" points="308,-152.5 175,-152.5 175,-122.5 308,-122.5 308,-152.5"/>
<text text-anchor="start" x="183" y="-140.5" font-family="Helvetica,sans-Serif" font-size="10.00">function.OpticalTransfer</text>
<text text-anchor="middle" x="241.5" y="-129.5" font-family="Helvetica,sans-Serif" font-size="10.00">Function</text>
</a>
</g>
</g>
<!-- Node0&#45;&gt;Node1 -->
<g id="edge3_Node000000_Node000001" class="edge">
<title>Node0&#45;&gt;Node1</title>
<g id="a_edge3_Node000000_Node000001"><a xlink:title=" ">
<path fill="none" stroke="#63b8ff" d="M102.1,-86.93C120.02,-95.66 141.84,-105.73 162,-113.5 170.11,-116.63 178.82,-119.62 187.37,-122.38"/>
<polygon fill="#63b8ff" stroke="#63b8ff" points="103.63,-83.78 93.12,-82.5 100.54,-90.06 103.63,-83.78"/>
</a>
</g>
</g>
<!-- Node2 -->
<g id="Node000002" class="node">
<title>Node2</title>
<g id="a_Node000002"><a xlink:href="d8/dac/classfunction_1_1PhasePowerSpectralDensity.html" target="_top" xlink:title=" ">
<polygon fill="white" stroke="#666666" points="320.5,-104.5 162.5,-104.5 162.5,-74.5 320.5,-74.5 320.5,-104.5"/>
<text text-anchor="start" x="170.5" y="-92.5" font-family="Helvetica,sans-Serif" font-size="10.00">function.PhasePowerSpectral</text>
<text text-anchor="middle" x="241.5" y="-81.5" font-family="Helvetica,sans-Serif" font-size="10.00">Density</text>
</a>
</g>
</g>
<!-- Node0&#45;&gt;Node2 -->
<g id="edge4_Node000000_Node000002" class="edge">
<title>Node0&#45;&gt;Node2</title>
<g id="a_edge4_Node000000_Node000002"><a xlink:title=" ">
<path fill="none" stroke="#63b8ff" d="M136.25,-76.51C144.88,-77.58 153.73,-78.68 162.44,-79.77"/>
<polygon fill="#63b8ff" stroke="#63b8ff" points="136.58,-73.02 126.23,-75.26 135.72,-79.97 136.58,-73.02"/>
</a>
</g>
</g>
<!-- Node3 -->
<g id="Node000003" class="node">
<title>Node3</title>
<g id="a_Node000003"><a xlink:href="d1/dd8/classfunction_1_1PointSpreadFunction.html" target="_top" xlink:title=" ">
<polygon fill="white" stroke="#666666" points="321,-56 162,-56 162,-37 321,-37 321,-56"/>
<text text-anchor="middle" x="241.5" y="-44" font-family="Helvetica,sans-Serif" font-size="10.00">function.PointSpreadFunction</text>
</a>
</g>
</g>
<!-- Node0&#45;&gt;Node3 -->
<g id="edge5_Node000000_Node000003" class="edge">
<title>Node0&#45;&gt;Node3</title>
<g id="a_edge5_Node000000_Node000003"><a xlink:title=" ">
<path fill="none" stroke="#63b8ff" d="M136.35,-58.89C144.75,-57.89 153.35,-56.87 161.83,-55.86"/>
<polygon fill="#63b8ff" stroke="#63b8ff" points="135.74,-55.44 126.23,-60.1 136.57,-62.39 135.74,-55.44"/>
</a>
</g>
</g>
<!-- Node4 -->
<g id="Node000004" class="node">
<title>Node4</title>
<g id="a_Node000004"><a xlink:href="d0/dca/classfunction_1_1PupilFunction.html" target="_top" xlink:title=" ">
<polygon fill="white" stroke="#666666" points="304,-19 179,-19 179,0 304,0 304,-19"/>
<text text-anchor="middle" x="241.5" y="-7" font-family="Helvetica,sans-Serif" font-size="10.00">function.PupilFunction</text>
</a>
</g>
</g>
<!-- Node0&#45;&gt;Node4 -->
<g id="edge6_Node000000_Node000004" class="edge">
<title>Node0&#45;&gt;Node4</title>
<g id="a_edge6_Node000000_Node000004"><a xlink:title=" ">
<path fill="none" stroke="#63b8ff" d="M108,-48.45C124.72,-41.62 144.06,-34.21 162,-28.5 172.96,-25.01 184.95,-21.81 196.19,-19.07"/>
<polygon fill="#63b8ff" stroke="#63b8ff" points="106.39,-45.33 98.49,-52.39 109.07,-51.8 106.39,-45.33"/>
</a>
</g>
</g>
</g>
</svg>
