<?xml version="1.0" encoding="UTF-8" standalone="no"?>
<!DOCTYPE svg PUBLIC "-//W3C//DTD SVG 1.1//EN"
 "http://www.w3.org/Graphics/SVG/1.1/DTD/svg11.dtd">
<!-- Generated by graphviz version 2.43.0 (0)
 -->
<!-- Title: Graphical Class Hierarchy Pages: 1 -->
<svg width="512pt" height="88pt"
 viewBox="0.00 0.00 512.00 88.00" xmlns="http://www.w3.org/2000/svg" xmlns:xlink="http://www.w3.org/1999/xlink">
<g id="graph0" class="graph" transform="scale(1 1) rotate(0) translate(4 84)">
<title>Graphical Class Hierarchy</title>
<!-- Node0 -->
<g id="node1" class="node">
<title>Node0</title>
<g id="a_node1"><a xlink:href="d1/df9/classaopp__deconv__tool_1_1algorithm_1_1deconv_1_1base_1_1Base.html" target="_top" xlink:title=" ">
<polygon fill="none" stroke="black" points="0,-30 0,-49 246,-49 246,-30 0,-30"/>
<text text-anchor="middle" x="123" y="-37" font-family="Helvetica,sans-Serif" font-size="10.00">aopp_deconv_tool.algorithm.deconv.base.Base</text>
</a>
</g>
</g>
<!-- Node1 -->
<g id="node2" class="node">
<title>Node1</title>
<g id="a_node2"><a xlink:href="dd/d03/classaopp__deconv__tool_1_1algorithm_1_1deconv_1_1clean__modified_1_1CleanModified.html" target="_top" xlink:title=" ">
<polygon fill="none" stroke="black" points="282,-49.5 282,-79.5 504,-79.5 504,-49.5 282,-49.5"/>
<text text-anchor="start" x="290" y="-67.5" font-family="Helvetica,sans-Serif" font-size="10.00">aopp_deconv_tool.algorithm.deconv.clean</text>
<text text-anchor="middle" x="393" y="-56.5" font-family="Helvetica,sans-Serif" font-size="10.00">_modified.CleanModified</text>
</a>
</g>
</g>
<!-- Node0&#45;&gt;Node1 -->
<g id="edge1" class="edge">
<title>Node0&#45;&gt;Node1</title>
<path fill="none" stroke="midnightblue" d="M236.4,-49.98C251.39,-51.38 266.76,-52.82 281.72,-54.21"/>
<polygon fill="midnightblue" stroke="midnightblue" points="236.37,-46.47 226.08,-49.02 235.72,-53.44 236.37,-46.47"/>
</g>
<!-- Node2 -->
<g id="node3" class="node">
<title>Node2</title>
<g id="a_node3"><a xlink:href="d8/dc0/classaopp__deconv__tool_1_1algorithm_1_1deconv_1_1lucy__richardson_1_1LucyRichardson.html" target="_top" xlink:title=" ">
<polygon fill="none" stroke="black" points="285,-0.5 285,-30.5 501,-30.5 501,-0.5 285,-0.5"/>
<text text-anchor="start" x="293" y="-18.5" font-family="Helvetica,sans-Serif" font-size="10.00">aopp_deconv_tool.algorithm.deconv.lucy</text>
<text text-anchor="middle" x="393" y="-7.5" font-family="Helvetica,sans-Serif" font-size="10.00">_richardson.LucyRichardson</text>
</a>
</g>
</g>
<!-- Node0&#45;&gt;Node2 -->
<g id="edge2" class="edge">
<title>Node0&#45;&gt;Node2</title>
<path fill="none" stroke="midnightblue" d="M240.48,-29.07C255.26,-27.75 270.33,-26.4 284.95,-25.09"/>
<polygon fill="midnightblue" stroke="midnightblue" points="239.95,-25.6 230.31,-29.98 240.58,-32.57 239.95,-25.6"/>
</g>
</g>
</svg>
