<?xml version="1.0" encoding="UTF-8" standalone="no"?>
<!DOCTYPE svg PUBLIC "-//W3C//DTD SVG 1.1//EN"
 "http://www.w3.org/Graphics/SVG/1.1/DTD/svg11.dtd">
<!-- Generated by graphviz version 2.43.0 (0)
 -->
<!-- Title: Graphical Class Hierarchy Pages: 1 -->
<svg width="715pt" height="225pt"
 viewBox="0.00 0.00 715.00 225.00" xmlns="http://www.w3.org/2000/svg" xmlns:xlink="http://www.w3.org/1999/xlink">
<g id="graph0" class="graph" transform="scale(1 1) rotate(0) translate(4 221)">
<title>Graphical Class Hierarchy</title>
<!-- Node0 -->
<g id="Node000000" class="node">
<title>Node0</title>
<g id="a_Node000000"><a xlink:href="da/d4f/classaopp__deconv__tool_1_1graphical__frontends_1_1ssa__filtering_1_1BasePanel.html" target="_top" xlink:title=" ">
<polygon fill="white" stroke="#666666" points="193.5,-217 9.5,-217 9.5,-187 193.5,-187 193.5,-217"/>
<text text-anchor="start" x="17.5" y="-205" font-family="Helvetica,sans-Serif" font-size="10.00">aopp_deconv_tool.graphical</text>
<text text-anchor="middle" x="101.5" y="-194" font-family="Helvetica,sans-Serif" font-size="10.00">_frontends.ssa_filtering.BasePanel</text>
</a>
</g>
</g>
<!-- Node1 -->
<g id="Node000001" class="node">
<title>Node1</title>
<g id="a_Node000001"><a xlink:href="df/dfb/classaopp__deconv__tool_1_1graphical__frontends_1_1ssa__filtering_1_1LineRegionPanel.html" target="_top" xlink:title=" ">
<polygon fill="white" stroke="#666666" points="453,-217 239,-217 239,-187 453,-187 453,-217"/>
<text text-anchor="start" x="247" y="-205" font-family="Helvetica,sans-Serif" font-size="10.00">aopp_deconv_tool.graphical</text>
<text text-anchor="middle" x="346" y="-194" font-family="Helvetica,sans-Serif" font-size="10.00">_frontends.ssa_filtering.LineRegionPanel</text>
</a>
</g>
</g>
<!-- Node0&#45;&gt;Node1 -->
<g id="edge10_Node000000_Node000001" class="edge">
<title>Node0&#45;&gt;Node1</title>
<g id="a_edge10_Node000000_Node000001"><a xlink:title=" ">
<path fill="none" stroke="#63b8ff" d="M203.86,-202C215.36,-202 227.11,-202 238.67,-202"/>
<polygon fill="#63b8ff" stroke="#63b8ff" points="203.83,-198.5 193.83,-202 203.83,-205.5 203.83,-198.5"/>
</a>
</g>
</g>
<!-- Node7 -->
<g id="Node000007" class="node">
<title>Node7</title>
<g id="a_Node000007"><a xlink:href="d7/d1a/classaopp__deconv__tool_1_1graphical__frontends_1_1ssa__filtering_1_1BasePlot.html" target="_top" xlink:title=" ">
<polygon fill="white" stroke="#666666" points="189.5,-169 13.5,-169 13.5,-139 189.5,-139 189.5,-169"/>
<text text-anchor="start" x="21.5" y="-157" font-family="Helvetica,sans-Serif" font-size="10.00">aopp_deconv_tool.graphical</text>
<text text-anchor="middle" x="101.5" y="-146" font-family="Helvetica,sans-Serif" font-size="10.00">_frontends.ssa_filtering.BasePlot</text>
</a>
</g>
</g>
<!-- Node6 -->
<g id="Node000006" class="node">
<title>Node6</title>
<g id="a_Node000006"><a xlink:href="db/dd6/classaopp__deconv__tool_1_1graphical__frontends_1_1ssa__filtering_1_1ImagePlot.html" target="_top" xlink:title=" ">
<polygon fill="white" stroke="#666666" points="437.5,-121 254.5,-121 254.5,-91 437.5,-91 437.5,-121"/>
<text text-anchor="start" x="262.5" y="-109" font-family="Helvetica,sans-Serif" font-size="10.00">aopp_deconv_tool.graphical</text>
<text text-anchor="middle" x="346" y="-98" font-family="Helvetica,sans-Serif" font-size="10.00">_frontends.ssa_filtering.ImagePlot</text>
</a>
</g>
</g>
<!-- Node7&#45;&gt;Node6 -->
<g id="edge11_Node000007_Node000006" class="edge">
<title>Node7&#45;&gt;Node6</title>
<g id="a_edge11_Node000007_Node000006"><a xlink:title=" ">
<path fill="none" stroke="#63b8ff" d="M188.52,-136.97C214.85,-131.76 243.61,-126.07 269.21,-121"/>
<polygon fill="#63b8ff" stroke="#63b8ff" points="187.69,-133.57 178.56,-138.94 189.05,-140.44 187.69,-133.57"/>
</a>
</g>
</g>
<!-- Node8 -->
<g id="Node000008" class="node">
<title>Node8</title>
<g id="a_Node000008"><a xlink:href="d1/d4b/classaopp__deconv__tool_1_1graphical__frontends_1_1ssa__filtering_1_1LinePlot.html" target="_top" xlink:title=" ">
<polygon fill="white" stroke="#666666" points="432.5,-169 259.5,-169 259.5,-139 432.5,-139 432.5,-169"/>
<text text-anchor="start" x="267.5" y="-157" font-family="Helvetica,sans-Serif" font-size="10.00">aopp_deconv_tool.graphical</text>
<text text-anchor="middle" x="346" y="-146" font-family="Helvetica,sans-Serif" font-size="10.00">_frontends.ssa_filtering.LinePlot</text>
</a>
</g>
</g>
<!-- Node7&#45;&gt;Node8 -->
<g id="edge12_Node000007_Node000008" class="edge">
<title>Node7&#45;&gt;Node8</title>
<g id="a_edge12_Node000007_Node000008"><a xlink:title=" ">
<path fill="none" stroke="#63b8ff" d="M199.91,-154C219.59,-154 240.14,-154 259.38,-154"/>
<polygon fill="#63b8ff" stroke="#63b8ff" points="199.71,-150.5 189.71,-154 199.71,-157.5 199.71,-150.5"/>
</a>
</g>
</g>
<!-- Node2 -->
<g id="Node000002" class="node">
<title>Node2</title>
<g id="a_Node000002"><a xlink:href="d3/d42/classaopp__deconv__tool_1_1graphical__frontends_1_1ssa__filtering_1_1CallbackMixin.html" target="_top" xlink:title=" ">
<polygon fill="white" stroke="#666666" points="203,-121 0,-121 0,-91 203,-91 203,-121"/>
<text text-anchor="start" x="8" y="-109" font-family="Helvetica,sans-Serif" font-size="10.00">aopp_deconv_tool.graphical</text>
<text text-anchor="middle" x="101.5" y="-98" font-family="Helvetica,sans-Serif" font-size="10.00">_frontends.ssa_filtering.CallbackMixin</text>
</a>
</g>
</g>
<!-- Node2&#45;&gt;Node1 -->
<g id="edge19_Node000002_Node000001" class="edge">
<title>Node2&#45;&gt;Node1</title>
<g id="a_edge19_Node000002_Node000001"><a xlink:title=" ">
<path fill="none" stroke="#63b8ff" d="M195.35,-125.47C197.98,-126.88 200.54,-128.39 203,-130 225.29,-144.63 216.62,-163.5 239,-178 244.3,-181.44 250.04,-184.39 255.99,-186.92"/>
<polygon fill="#63b8ff" stroke="#63b8ff" points="196.67,-122.23 186.14,-121.07 193.66,-128.54 196.67,-122.23"/>
</a>
</g>
</g>
<!-- Node2&#45;&gt;Node6 -->
<g id="edge14_Node000002_Node000006" class="edge">
<title>Node2&#45;&gt;Node6</title>
<g id="a_edge14_Node000002_Node000006"><a xlink:title=" ">
<path fill="none" stroke="#63b8ff" d="M213.6,-106C227.21,-106 241,-106 254.26,-106"/>
<polygon fill="#63b8ff" stroke="#63b8ff" points="213.24,-102.5 203.24,-106 213.24,-109.5 213.24,-102.5"/>
</a>
</g>
</g>
<!-- Node2&#45;&gt;Node8 -->
<g id="edge18_Node000002_Node000008" class="edge">
<title>Node2&#45;&gt;Node8</title>
<g id="a_edge18_Node000002_Node000008"><a xlink:title=" ">
<path fill="none" stroke="#63b8ff" d="M188.52,-123.03C214.85,-128.24 243.61,-133.93 269.21,-139"/>
<polygon fill="#63b8ff" stroke="#63b8ff" points="189.05,-119.56 178.56,-121.06 187.69,-126.43 189.05,-119.56"/>
</a>
</g>
</g>
<!-- Node3 -->
<g id="Node000003" class="node">
<title>Node3</title>
<g id="a_Node000003"><a xlink:href="d8/dd5/classaopp__deconv__tool_1_1graphical__frontends_1_1ssa__filtering_1_1ImageAggregator.html" target="_top" xlink:title=" ">
<polygon fill="white" stroke="#666666" points="707,-30 489,-30 489,0 707,0 707,-30"/>
<text text-anchor="start" x="497" y="-18" font-family="Helvetica,sans-Serif" font-size="10.00">aopp_deconv_tool.graphical</text>
<text text-anchor="middle" x="598" y="-7" font-family="Helvetica,sans-Serif" font-size="10.00">_frontends.ssa_filtering.ImageAggregator</text>
</a>
</g>
</g>
<!-- Node2&#45;&gt;Node3 -->
<g id="edge13_Node000002_Node000003" class="edge">
<title>Node2&#45;&gt;Node3</title>
<g id="a_edge13_Node000002_Node000003"><a xlink:title=" ">
<path fill="none" stroke="#63b8ff" d="M132.43,-85.31C159.07,-68.13 199.78,-44.82 239,-34 320.75,-11.45 416.89,-7.52 488.94,-8.78"/>
<polygon fill="#63b8ff" stroke="#63b8ff" points="130.39,-82.46 123.96,-90.88 134.24,-88.31 130.39,-82.46"/>
</a>
</g>
</g>
<!-- Node4 -->
<g id="Node000004" class="node">
<title>Node4</title>
<g id="a_Node000004"><a xlink:href="d6/d1d/classaopp__deconv__tool_1_1graphical__frontends_1_1ssa__filtering_1_1ImageViewer.html" target="_top" xlink:title=" ">
<polygon fill="white" stroke="#666666" points="445,-73 247,-73 247,-43 445,-43 445,-73"/>
<text text-anchor="start" x="255" y="-61" font-family="Helvetica,sans-Serif" font-size="10.00">aopp_deconv_tool.graphical</text>
<text text-anchor="middle" x="346" y="-50" font-family="Helvetica,sans-Serif" font-size="10.00">_frontends.ssa_filtering.ImageViewer</text>
</a>
</g>
</g>
<!-- Node2&#45;&gt;Node4 -->
<g id="edge15_Node000002_Node000004" class="edge">
<title>Node2&#45;&gt;Node4</title>
<g id="a_edge15_Node000002_Node000004"><a xlink:title=" ">
<path fill="none" stroke="#63b8ff" d="M188.52,-88.97C214.85,-83.76 243.61,-78.07 269.21,-73"/>
<polygon fill="#63b8ff" stroke="#63b8ff" points="187.69,-85.57 178.56,-90.94 189.05,-92.44 187.69,-85.57"/>
</a>
</g>
</g>
<!-- Node4&#45;&gt;Node3 -->
<g id="edge16_Node000004_Node000003" class="edge">
<title>Node4&#45;&gt;Node3</title>
<g id="a_edge16_Node000004_Node000003"><a xlink:title=" ">
<path fill="none" stroke="#63b8ff" d="M444.54,-41.22C465.99,-37.53 488.58,-33.65 509.61,-30.03"/>
<polygon fill="#63b8ff" stroke="#63b8ff" points="443.7,-37.82 434.44,-42.96 444.89,-44.71 443.7,-37.82"/>
</a>
</g>
</g>
<!-- Node5 -->
<g id="Node000005" class="node">
<title>Node5</title>
<g id="a_Node000005"><a xlink:href="dd/df6/classaopp__deconv__tool_1_1graphical__frontends_1_1ssa__filtering_1_1ResidualViewer.html" target="_top" xlink:title=" ">
<polygon fill="white" stroke="#666666" points="686,-89.5 510,-89.5 510,-48.5 686,-48.5 686,-89.5"/>
<text text-anchor="start" x="518" y="-77.5" font-family="Helvetica,sans-Serif" font-size="10.00">aopp_deconv_tool.graphical</text>
<text text-anchor="start" x="518" y="-66.5" font-family="Helvetica,sans-Serif" font-size="10.00">_frontends.ssa_filtering.Residual</text>
<text text-anchor="middle" x="598" y="-55.5" font-family="Helvetica,sans-Serif" font-size="10.00">Viewer</text>
</a>
</g>
</g>
<!-- Node4&#45;&gt;Node5 -->
<g id="edge17_Node000004_Node000005" class="edge">
<title>Node4&#45;&gt;Node5</title>
<g id="a_edge17_Node000004_Node000005"><a xlink:title=" ">
<path fill="none" stroke="#63b8ff" d="M455.16,-62.76C473.4,-63.56 492.13,-64.39 509.75,-65.16"/>
<polygon fill="#63b8ff" stroke="#63b8ff" points="455.23,-59.26 445.09,-62.32 454.93,-66.25 455.23,-59.26"/>
</a>
</g>
</g>
</g>
</svg>
