<?xml version="1.0" encoding="UTF-8" standalone="no"?>
<!DOCTYPE svg PUBLIC "-//W3C//DTD SVG 1.1//EN"
 "http://www.w3.org/Graphics/SVG/1.1/DTD/svg11.dtd">
<!-- Generated by graphviz version 2.43.0 (0)
 -->
<!-- Title: Graphical Class Hierarchy Pages: 1 -->
<svg width="637pt" height="230pt"
 viewBox="0.00 0.00 637.00 230.00" xmlns="http://www.w3.org/2000/svg" xmlns:xlink="http://www.w3.org/1999/xlink">
<g id="graph0" class="graph" transform="scale(1 1) rotate(0) translate(4 226)">
<title>Graphical Class Hierarchy</title>
<!-- Node0 -->
<g id="Node000000" class="node">
<title>Node0</title>
<g id="a_Node000000"><a xlink:href="da/d39/classaopp__deconv__tool_1_1graphical__frontends_1_1ssa__filtering_1_1WidgetBase.html" target="_top" xlink:title=" ">
<polygon fill="white" stroke="#666666" points="192,-126 0,-126 0,-96 192,-96 192,-126"/>
<text text-anchor="start" x="8" y="-114" font-family="Helvetica,sans-Serif" font-size="10.00">aopp_deconv_tool.graphical</text>
<text text-anchor="middle" x="96" y="-103" font-family="Helvetica,sans-Serif" font-size="10.00">_frontends.ssa_filtering.WidgetBase</text>
</a>
</g>
</g>
<!-- Node1 -->
<g id="Node000001" class="node">
<title>Node1</title>
<g id="a_Node000001"><a xlink:href="d8/d1e/classaopp__deconv__tool_1_1graphical__frontends_1_1ssa__filtering_1_1Button.html" target="_top" xlink:title=" ">
<polygon fill="white" stroke="#666666" points="411.5,-222 245.5,-222 245.5,-192 411.5,-192 411.5,-222"/>
<text text-anchor="start" x="253.5" y="-210" font-family="Helvetica,sans-Serif" font-size="10.00">aopp_deconv_tool.graphical</text>
<text text-anchor="middle" x="328.5" y="-199" font-family="Helvetica,sans-Serif" font-size="10.00">_frontends.ssa_filtering.Button</text>
</a>
</g>
</g>
<!-- Node0&#45;&gt;Node1 -->
<g id="edge20_Node000000_Node000001" class="edge">
<title>Node0&#45;&gt;Node1</title>
<g id="a_edge20_Node000000_Node000001"><a xlink:title=" ">
<path fill="none" stroke="#63b8ff" d="M128.83,-131.64C154.67,-147.61 192.5,-169.25 228,-183 236.62,-186.34 245.84,-189.31 255.06,-191.93"/>
<polygon fill="#63b8ff" stroke="#63b8ff" points="130.55,-128.59 120.22,-126.26 126.84,-134.53 130.55,-128.59"/>
</a>
</g>
</g>
<!-- Node2 -->
<g id="Node000002" class="node">
<title>Node2</title>
<g id="a_Node000002"><a xlink:href="d2/d2f/classaopp__deconv__tool_1_1graphical__frontends_1_1ssa__filtering_1_1CheckButtons.html" target="_top" xlink:title=" ">
<polygon fill="white" stroke="#666666" points="429,-174 228,-174 228,-144 429,-144 429,-174"/>
<text text-anchor="start" x="236" y="-162" font-family="Helvetica,sans-Serif" font-size="10.00">aopp_deconv_tool.graphical</text>
<text text-anchor="middle" x="328.5" y="-151" font-family="Helvetica,sans-Serif" font-size="10.00">_frontends.ssa_filtering.CheckButtons</text>
</a>
</g>
</g>
<!-- Node0&#45;&gt;Node2 -->
<g id="edge21_Node000000_Node000002" class="edge">
<title>Node0&#45;&gt;Node2</title>
<g id="a_edge21_Node000000_Node000002"><a xlink:title=" ">
<path fill="none" stroke="#63b8ff" d="M179.1,-128.1C204.03,-133.29 231.23,-138.95 255.46,-144"/>
<polygon fill="#63b8ff" stroke="#63b8ff" points="179.8,-124.67 169.3,-126.06 178.38,-131.52 179.8,-124.67"/>
</a>
</g>
</g>
<!-- Node3 -->
<g id="Node000003" class="node">
<title>Node3</title>
<g id="a_Node000003"><a xlink:href="d9/d2e/classaopp__deconv__tool_1_1graphical__frontends_1_1ssa__filtering_1_1RadioButtons.html" target="_top" xlink:title=" ">
<polygon fill="white" stroke="#666666" points="428,-126 229,-126 229,-96 428,-96 428,-126"/>
<text text-anchor="start" x="237" y="-114" font-family="Helvetica,sans-Serif" font-size="10.00">aopp_deconv_tool.graphical</text>
<text text-anchor="middle" x="328.5" y="-103" font-family="Helvetica,sans-Serif" font-size="10.00">_frontends.ssa_filtering.RadioButtons</text>
</a>
</g>
</g>
<!-- Node0&#45;&gt;Node3 -->
<g id="edge22_Node000000_Node000003" class="edge">
<title>Node0&#45;&gt;Node3</title>
<g id="a_edge22_Node000000_Node000003"><a xlink:title=" ">
<path fill="none" stroke="#63b8ff" d="M202.11,-111C211.03,-111 220.04,-111 228.91,-111"/>
<polygon fill="#63b8ff" stroke="#63b8ff" points="202.08,-107.5 192.08,-111 202.08,-114.5 202.08,-107.5"/>
</a>
</g>
</g>
<!-- Node4 -->
<g id="Node000004" class="node">
<title>Node4</title>
<g id="a_Node000004"><a xlink:href="d5/d53/classaopp__deconv__tool_1_1graphical__frontends_1_1ssa__filtering_1_1Slider.html" target="_top" xlink:title=" ">
<polygon fill="white" stroke="#666666" points="409,-78 248,-78 248,-48 409,-48 409,-78"/>
<text text-anchor="start" x="256" y="-66" font-family="Helvetica,sans-Serif" font-size="10.00">aopp_deconv_tool.graphical</text>
<text text-anchor="middle" x="328.5" y="-55" font-family="Helvetica,sans-Serif" font-size="10.00">_frontends.ssa_filtering.Slider</text>
</a>
</g>
</g>
<!-- Node0&#45;&gt;Node4 -->
<g id="edge23_Node000000_Node000004" class="edge">
<title>Node0&#45;&gt;Node4</title>
<g id="a_edge23_Node000000_Node000004"><a xlink:title=" ">
<path fill="none" stroke="#63b8ff" d="M179.1,-93.9C204.03,-88.71 231.23,-83.05 255.46,-78"/>
<polygon fill="#63b8ff" stroke="#63b8ff" points="178.38,-90.48 169.3,-95.94 179.8,-97.33 178.38,-90.48"/>
</a>
</g>
</g>
<!-- Node6 -->
<g id="Node000006" class="node">
<title>Node6</title>
<g id="a_Node000006"><a xlink:href="da/d4a/classaopp__deconv__tool_1_1graphical__frontends_1_1ssa__filtering_1_1TextBox.html" target="_top" xlink:title=" ">
<polygon fill="white" stroke="#666666" points="415,-30 242,-30 242,0 415,0 415,-30"/>
<text text-anchor="start" x="250" y="-18" font-family="Helvetica,sans-Serif" font-size="10.00">aopp_deconv_tool.graphical</text>
<text text-anchor="middle" x="328.5" y="-7" font-family="Helvetica,sans-Serif" font-size="10.00">_frontends.ssa_filtering.TextBox</text>
</a>
</g>
</g>
<!-- Node0&#45;&gt;Node6 -->
<g id="edge25_Node000000_Node000006" class="edge">
<title>Node0&#45;&gt;Node6</title>
<g id="a_edge25_Node000000_Node000006"><a xlink:title=" ">
<path fill="none" stroke="#63b8ff" d="M128.83,-90.36C154.67,-74.39 192.5,-52.75 228,-39 236.62,-35.66 245.84,-32.69 255.06,-30.07"/>
<polygon fill="#63b8ff" stroke="#63b8ff" points="126.84,-87.47 120.22,-95.74 130.55,-93.41 126.84,-87.47"/>
</a>
</g>
</g>
<!-- Node5 -->
<g id="Node000005" class="node">
<title>Node5</title>
<g id="a_Node000005"><a xlink:href="dc/d2e/classaopp__deconv__tool_1_1graphical__frontends_1_1ssa__filtering_1_1Range.html" target="_top" xlink:title=" ">
<polygon fill="white" stroke="#666666" points="629,-78 465,-78 465,-48 629,-48 629,-78"/>
<text text-anchor="start" x="473" y="-66" font-family="Helvetica,sans-Serif" font-size="10.00">aopp_deconv_tool.graphical</text>
<text text-anchor="middle" x="547" y="-55" font-family="Helvetica,sans-Serif" font-size="10.00">_frontends.ssa_filtering.Range</text>
</a>
</g>
</g>
<!-- Node4&#45;&gt;Node5 -->
<g id="edge24_Node000004_Node000005" class="edge">
<title>Node4&#45;&gt;Node5</title>
<g id="a_edge24_Node000004_Node000005"><a xlink:title=" ">
<path fill="none" stroke="#63b8ff" d="M419.47,-63C434.45,-63 449.91,-63 464.66,-63"/>
<polygon fill="#63b8ff" stroke="#63b8ff" points="419.19,-59.5 409.19,-63 419.19,-66.5 419.19,-59.5"/>
</a>
</g>
</g>
</g>
</svg>
