<?xml version="1.0" encoding="UTF-8" standalone="no"?>
<!DOCTYPE svg PUBLIC "-//W3C//DTD SVG 1.1//EN"
 "http://www.w3.org/Graphics/SVG/1.1/DTD/svg11.dtd">
<!-- Generated by graphviz version 2.43.0 (0)
 -->
<!-- Title: Graphical Class Hierarchy Pages: 1 -->
<svg width="300pt" height="370pt"
 viewBox="0.00 0.00 300.00 369.50" xmlns="http://www.w3.org/2000/svg" xmlns:xlink="http://www.w3.org/1999/xlink">
<g id="graph0" class="graph" transform="scale(1 1) rotate(0) translate(4 365.5)">
<title>Graphical Class Hierarchy</title>
<!-- Node0 -->
<g id="node1" class="node">
<title>Node0</title>
<g id="a_node1"><a xlink:href="dd/d52/classIntVar.html" target="_top" xlink:title=" ">
<polygon fill="none" stroke="black" points="4,-212.5 4,-231.5 50,-231.5 50,-212.5 4,-212.5"/>
<text text-anchor="middle" x="27" y="-219.5" font-family="Helvetica,sans-Serif" font-size="10.00">IntVar</text>
</a>
</g>
</g>
<!-- Node1 -->
<g id="node2" class="node">
<title>Node1</title>
<g id="a_node2"><a xlink:href="d5/d03/classaopp__deconv__tool_1_1psf__data__ops_1_1S.html" target="_top" xlink:title=" ">
<polygon fill="none" stroke="black" points="129.5,-161 129.5,-191 252.5,-191 252.5,-161 129.5,-161"/>
<text text-anchor="start" x="137.5" y="-179" font-family="Helvetica,sans-Serif" font-size="10.00">aopp_deconv_tool.psf</text>
<text text-anchor="middle" x="191" y="-168" font-family="Helvetica,sans-Serif" font-size="10.00">_data_ops.S</text>
</a>
</g>
</g>
<!-- Node0&#45;&gt;Node1 -->
<g id="edge1" class="edge">
<title>Node0&#45;&gt;Node1</title>
<path fill="none" stroke="midnightblue" d="M59.85,-210.66C69.48,-207.38 80.13,-203.9 90,-201 102.62,-197.29 116.24,-193.65 129.24,-190.35"/>
<polygon fill="midnightblue" stroke="midnightblue" points="58.55,-207.4 50.24,-213.97 60.84,-214.02 58.55,-207.4"/>
</g>
<!-- Node2 -->
<g id="node3" class="node">
<title>Node2</title>
<g id="a_node3"><a xlink:href="d6/db6/classaopp__deconv__tool_1_1psf__data__ops_1_1S1.html" target="_top" xlink:title=" ">
<polygon fill="none" stroke="black" points="129.5,-112 129.5,-142 252.5,-142 252.5,-112 129.5,-112"/>
<text text-anchor="start" x="137.5" y="-130" font-family="Helvetica,sans-Serif" font-size="10.00">aopp_deconv_tool.psf</text>
<text text-anchor="middle" x="191" y="-119" font-family="Helvetica,sans-Serif" font-size="10.00">_data_ops.S1</text>
</a>
</g>
</g>
<!-- Node0&#45;&gt;Node2 -->
<g id="edge2" class="edge">
<title>Node0&#45;&gt;Node2</title>
<path fill="none" stroke="midnightblue" d="M44.6,-205.12C47.76,-201.8 51.02,-198.32 54,-195 70.65,-176.46 68.87,-165.23 90,-152 101.83,-144.59 115.74,-139.38 129.35,-135.71"/>
<polygon fill="midnightblue" stroke="midnightblue" points="41.99,-202.79 37.55,-212.41 47.02,-207.65 41.99,-202.79"/>
</g>
<!-- Node3 -->
<g id="node4" class="node">
<title>Node3</title>
<g id="a_node4"><a xlink:href="d9/d1a/classaopp__deconv__tool_1_1psf__model_1_1gaussian__psf__model_1_1S.html" target="_top" xlink:title=" ">
<polygon fill="none" stroke="black" points="109,-63 109,-93 273,-93 273,-63 109,-63"/>
<text text-anchor="start" x="117" y="-81" font-family="Helvetica,sans-Serif" font-size="10.00">aopp_deconv_tool.psf</text>
<text text-anchor="middle" x="191" y="-70" font-family="Helvetica,sans-Serif" font-size="10.00">_model.gaussian_psf_model.S</text>
</a>
</g>
</g>
<!-- Node0&#45;&gt;Node3 -->
<g id="edge3" class="edge">
<title>Node0&#45;&gt;Node3</title>
<path fill="none" stroke="midnightblue" d="M46.22,-205.05C49.05,-201.89 51.77,-198.48 54,-195 77.69,-158.03 57.03,-132 90,-103 95.51,-98.15 101.82,-94.22 108.53,-91.03"/>
<polygon fill="midnightblue" stroke="midnightblue" points="43.63,-202.7 39.17,-212.31 48.65,-207.58 43.63,-202.7"/>
</g>
<!-- Node4 -->
<g id="node5" class="node">
<title>Node4</title>
<g id="a_node5"><a xlink:href="da/dca/classaopp__deconv__tool_1_1psf__model_1_1gaussian__psf__model_1_1S1.html" target="_top" xlink:title=" ">
<polygon fill="none" stroke="black" points="106,-331 106,-361 276,-361 276,-331 106,-331"/>
<text text-anchor="start" x="114" y="-349" font-family="Helvetica,sans-Serif" font-size="10.00">aopp_deconv_tool.psf</text>
<text text-anchor="middle" x="191" y="-338" font-family="Helvetica,sans-Serif" font-size="10.00">_model.gaussian_psf_model.S1</text>
</a>
</g>
</g>
<!-- Node0&#45;&gt;Node4 -->
<g id="edge4" class="edge">
<title>Node0&#45;&gt;Node4</title>
<path fill="none" stroke="midnightblue" d="M34.83,-241.13C43.9,-263.7 62.09,-300.73 90,-321 95.36,-324.89 101.26,-328.18 107.43,-330.96"/>
<polygon fill="midnightblue" stroke="midnightblue" points="38.04,-239.71 31.21,-231.61 31.5,-242.2 38.04,-239.71"/>
</g>
<!-- Node5 -->
<g id="node6" class="node">
<title>Node5</title>
<g id="a_node6"><a xlink:href="d0/dd1/classaopp__deconv__tool_1_1psf__model_1_1turbulence__psf__model_1_1S.html" target="_top" xlink:title=" ">
<polygon fill="none" stroke="black" points="127,-270.5 127,-311.5 255,-311.5 255,-270.5 127,-270.5"/>
<text text-anchor="start" x="135" y="-299.5" font-family="Helvetica,sans-Serif" font-size="10.00">aopp_deconv_tool.psf</text>
<text text-anchor="start" x="135" y="-288.5" font-family="Helvetica,sans-Serif" font-size="10.00">_model.turbulence_psf</text>
<text text-anchor="middle" x="191" y="-277.5" font-family="Helvetica,sans-Serif" font-size="10.00">_model.S</text>
</a>
</g>
</g>
<!-- Node0&#45;&gt;Node5 -->
<g id="edge5" class="edge">
<title>Node0&#45;&gt;Node5</title>
<path fill="none" stroke="midnightblue" d="M49.71,-237.69C61.25,-245.5 75.93,-254.61 90,-261 101.63,-266.29 114.44,-270.94 126.9,-274.9"/>
<polygon fill="midnightblue" stroke="midnightblue" points="51.4,-234.61 41.19,-231.78 47.41,-240.36 51.4,-234.61"/>
</g>
<!-- Node6 -->
<g id="node7" class="node">
<title>Node6</title>
<g id="a_node7"><a xlink:href="df/d2f/classaopp__deconv__tool_1_1psf__model_1_1turbulence__psf__model_1_1S1.html" target="_top" xlink:title=" ">
<polygon fill="none" stroke="black" points="127,-210.5 127,-251.5 255,-251.5 255,-210.5 127,-210.5"/>
<text text-anchor="start" x="135" y="-239.5" font-family="Helvetica,sans-Serif" font-size="10.00">aopp_deconv_tool.psf</text>
<text text-anchor="start" x="135" y="-228.5" font-family="Helvetica,sans-Serif" font-size="10.00">_model.turbulence_psf</text>
<text text-anchor="middle" x="191" y="-217.5" font-family="Helvetica,sans-Serif" font-size="10.00">_model.S1</text>
</a>
</g>
</g>
<!-- Node0&#45;&gt;Node6 -->
<g id="edge6" class="edge">
<title>Node0&#45;&gt;Node6</title>
<path fill="none" stroke="midnightblue" d="M60.4,-223.8C79.44,-224.86 104.17,-226.23 126.91,-227.49"/>
<polygon fill="midnightblue" stroke="midnightblue" points="60.36,-220.29 50.19,-223.23 59.98,-227.28 60.36,-220.29"/>
</g>
<!-- Node99 -->
<g id="node8" class="node">
<title>Node99</title>
<g id="a_node8"><a xlink:href="d1/def/classT.html" target="_top" xlink:title=" ">
<polygon fill="none" stroke="black" points="12.5,-38.5 12.5,-57.5 41.5,-57.5 41.5,-38.5 12.5,-38.5"/>
<text text-anchor="middle" x="27" y="-45.5" font-family="Helvetica,sans-Serif" font-size="10.00">T</text>
</a>
</g>
</g>
<!-- Node100 -->
<g id="node9" class="node">
<title>Node100</title>
<g id="a_node9"><a xlink:href="d4/d16/classaopp__deconv__tool_1_1geometry_1_1bounding__box_1_1BoundingBox.html" target="_top" xlink:title=" ">
<polygon fill="none" stroke="black" points="90,-14 90,-44 292,-44 292,-14 90,-14"/>
<text text-anchor="start" x="98" y="-32" font-family="Helvetica,sans-Serif" font-size="10.00">aopp_deconv_tool.geometry.bounding</text>
<text text-anchor="middle" x="191" y="-21" font-family="Helvetica,sans-Serif" font-size="10.00">_box.BoundingBox</text>
</a>
</g>
</g>
<!-- Node99&#45;&gt;Node100 -->
<g id="edge7" class="edge">
<title>Node99&#45;&gt;Node100</title>
<path fill="none" stroke="midnightblue" d="M51.56,-45.24C62.2,-43.99 75.57,-42.42 89.78,-40.75"/>
<polygon fill="midnightblue" stroke="midnightblue" points="51.06,-41.77 41.53,-46.41 51.87,-48.72 51.06,-41.77"/>
</g>
<!-- Node103 -->
<g id="node10" class="node">
<title>Node103</title>
<g id="a_node10"><a xlink:title=" ">
<polygon fill="none" stroke="#bfbfbf" points="12.5,-0.5 12.5,-19.5 41.5,-19.5 41.5,-0.5 12.5,-0.5"/>
<text text-anchor="middle" x="27" y="-7.5" font-family="Helvetica,sans-Serif" font-size="10.00">N</text>
</a>
</g>
</g>
<!-- Node103&#45;&gt;Node100 -->
<g id="edge8" class="edge">
<title>Node103&#45;&gt;Node100</title>
<path fill="none" stroke="midnightblue" d="M51.56,-12.76C62.2,-14.01 75.57,-15.58 89.78,-17.25"/>
<polygon fill="midnightblue" stroke="midnightblue" points="51.87,-9.28 41.53,-11.59 51.06,-16.23 51.87,-9.28"/>
</g>
<!-- Node106 -->
<g id="node11" class="node">
<title>Node106</title>
<g id="a_node11"><a xlink:title=" ">
<polygon fill="none" stroke="#bfbfbf" points="0,-166.5 0,-185.5 54,-185.5 54,-166.5 0,-166.5"/>
<text text-anchor="middle" x="27" y="-173.5" font-family="Helvetica,sans-Serif" font-size="10.00">Generic</text>
</a>
</g>
</g>
<!-- Node106&#45;&gt;Node1 -->
<g id="edge10" class="edge">
<title>Node106&#45;&gt;Node1</title>
<path fill="none" stroke="midnightblue" d="M64.14,-176C83.33,-176 107.43,-176 129.38,-176"/>
<polygon fill="midnightblue" stroke="midnightblue" points="64.03,-172.5 54.03,-176 64.03,-179.5 64.03,-172.5"/>
</g>
<!-- Node106&#45;&gt;Node2 -->
<g id="edge11" class="edge">
<title>Node106&#45;&gt;Node2</title>
<path fill="none" stroke="midnightblue" d="M60.21,-162.66C69.72,-158.96 80.2,-155.11 90,-152 102.62,-148 116.3,-144.22 129.38,-140.87"/>
<polygon fill="midnightblue" stroke="midnightblue" points="58.73,-159.48 50.72,-166.42 61.31,-165.99 58.73,-159.48"/>
</g>
<!-- Node106&#45;&gt;Node3 -->
<g id="edge12" class="edge">
<title>Node106&#45;&gt;Node3</title>
<path fill="none" stroke="midnightblue" d="M39.01,-157.38C49.88,-140.64 68.04,-116.64 90,-103 96.23,-99.13 103.03,-95.86 110.06,-93.09"/>
<polygon fill="midnightblue" stroke="midnightblue" points="35.79,-155.93 33.48,-166.27 41.74,-159.63 35.79,-155.93"/>
</g>
<!-- Node106&#45;&gt;Node4 -->
<g id="edge13" class="edge">
<title>Node106&#45;&gt;Node4</title>
<path fill="none" stroke="midnightblue" d="M46.45,-192.81C49.26,-195.99 51.91,-199.44 54,-203 81.78,-250.27 50.25,-283.23 90,-321 94.67,-325.44 100,-329.12 105.72,-332.18"/>
<polygon fill="midnightblue" stroke="midnightblue" points="48.87,-190.28 39.39,-185.55 43.86,-195.16 48.87,-190.28"/>
</g>
<!-- Node106&#45;&gt;Node5 -->
<g id="edge14" class="edge">
<title>Node106&#45;&gt;Node5</title>
<path fill="none" stroke="midnightblue" d="M45.14,-192.72C48.22,-196.02 51.3,-199.53 54,-203 72.63,-226.95 65.91,-242.56 90,-261 100.79,-269.26 113.85,-275.26 126.91,-279.61"/>
<polygon fill="midnightblue" stroke="midnightblue" points="47.64,-190.27 38.16,-185.54 42.63,-195.15 47.64,-190.27"/>
</g>
<!-- Node106&#45;&gt;Node6 -->
<g id="edge15" class="edge">
<title>Node106&#45;&gt;Node6</title>
<path fill="none" stroke="midnightblue" d="M59.49,-189.35C69.2,-193.29 79.98,-197.48 90,-201 101.8,-205.14 114.51,-209.23 126.77,-212.99"/>
<polygon fill="midnightblue" stroke="midnightblue" points="60.78,-186.09 50.2,-185.53 58.11,-192.57 60.78,-186.09"/>
</g>
<!-- Node106&#45;&gt;Node100 -->
<g id="edge9" class="edge">
<title>Node106&#45;&gt;Node100</title>
<path fill="none" stroke="midnightblue" d="M32.41,-156.25C39.61,-128.8 56.55,-79.49 90,-53 94.34,-49.56 99.09,-46.61 104.1,-44.07"/>
<polygon fill="midnightblue" stroke="midnightblue" points="28.95,-155.7 29.98,-166.24 35.75,-157.36 28.95,-155.7"/>
</g>
</g>
</svg>
