<?xml version="1.0" encoding="UTF-8" standalone="no"?>
<!DOCTYPE svg PUBLIC "-//W3C//DTD SVG 1.1//EN"
 "http://www.w3.org/Graphics/SVG/1.1/DTD/svg11.dtd">
<!-- Generated by graphviz version 2.43.0 (0)
 -->
<!-- Title: Graphical Class Hierarchy Pages: 1 -->
<svg width="360pt" height="101pt"
 viewBox="0.00 0.00 360.00 101.00" xmlns="http://www.w3.org/2000/svg" xmlns:xlink="http://www.w3.org/1999/xlink">
<g id="graph0" class="graph" transform="scale(1 1) rotate(0) translate(4 97)">
<title>Graphical Class Hierarchy</title>
<!-- Node0 -->
<g id="Node000000" class="node">
<title>Node0</title>
<g id="a_Node000000"><a xlink:href="d5/dc2/classoptical__component_1_1OpticalComponent.html" target="_top" xlink:title=" ">
<polygon fill="white" stroke="#666666" points="147,-61.5 0,-61.5 0,-31.5 147,-31.5 147,-61.5"/>
<text text-anchor="start" x="8" y="-49.5" font-family="Helvetica,sans-Serif" font-size="10.00">optical_component.Optical</text>
<text text-anchor="middle" x="73.5" y="-38.5" font-family="Helvetica,sans-Serif" font-size="10.00">Component</text>
</a>
</g>
</g>
<!-- Node1 -->
<g id="Node000001" class="node">
<title>Node1</title>
<g id="a_Node000001"><a xlink:href="df/d27/classoptical__component_1_1Aperture.html" target="_top" xlink:title=" ">
<polygon fill="white" stroke="#666666" points="345,-93 190,-93 190,-74 345,-74 345,-93"/>
<text text-anchor="middle" x="267.5" y="-81" font-family="Helvetica,sans-Serif" font-size="10.00">optical_component.Aperture</text>
</a>
</g>
</g>
<!-- Node0&#45;&gt;Node1 -->
<g id="edge59_Node000000_Node000001" class="edge">
<title>Node0&#45;&gt;Node1</title>
<g id="a_edge59_Node000000_Node000001"><a xlink:title=" ">
<path fill="none" stroke="#63b8ff" d="M157.04,-62.41C177.49,-66.35 198.78,-70.45 217.08,-73.98"/>
<polygon fill="#63b8ff" stroke="#63b8ff" points="157.57,-58.94 147.09,-60.49 156.24,-65.82 157.57,-58.94"/>
</a>
</g>
</g>
<!-- Node2 -->
<g id="Node000002" class="node">
<title>Node2</title>
<g id="a_Node000002"><a xlink:href="d6/d5b/classoptical__component_1_1Obstruction.html" target="_top" xlink:title=" ">
<polygon fill="white" stroke="#666666" points="352,-56 183,-56 183,-37 352,-37 352,-56"/>
<text text-anchor="middle" x="267.5" y="-44" font-family="Helvetica,sans-Serif" font-size="10.00">optical_component.Obstruction</text>
</a>
</g>
</g>
<!-- Node0&#45;&gt;Node2 -->
<g id="edge60_Node000000_Node000002" class="edge">
<title>Node0&#45;&gt;Node2</title>
<g id="a_edge60_Node000000_Node000002"><a xlink:title=" ">
<path fill="none" stroke="#63b8ff" d="M157.32,-46.5C165.78,-46.5 174.39,-46.5 182.86,-46.5"/>
<polygon fill="#63b8ff" stroke="#63b8ff" points="157.09,-43 147.09,-46.5 157.09,-50 157.09,-43"/>
</a>
</g>
</g>
<!-- Node3 -->
<g id="Node000003" class="node">
<title>Node3</title>
<g id="a_Node000003"><a xlink:href="db/db5/classoptical__component_1_1Refractor.html" target="_top" xlink:title=" ">
<polygon fill="white" stroke="#666666" points="346.5,-19 188.5,-19 188.5,0 346.5,0 346.5,-19"/>
<text text-anchor="middle" x="267.5" y="-7" font-family="Helvetica,sans-Serif" font-size="10.00">optical_component.Refractor</text>
</a>
</g>
</g>
<!-- Node0&#45;&gt;Node3 -->
<g id="edge61_Node000000_Node000003" class="edge">
<title>Node0&#45;&gt;Node3</title>
<g id="a_edge61_Node000000_Node000003"><a xlink:title=" ">
<path fill="none" stroke="#63b8ff" d="M157.04,-30.59C177.49,-26.65 198.78,-22.55 217.08,-19.02"/>
<polygon fill="#63b8ff" stroke="#63b8ff" points="156.24,-27.18 147.09,-32.51 157.57,-34.06 156.24,-27.18"/>
</a>
</g>
</g>
</g>
</svg>
