<?xml version="1.0" encoding="UTF-8" standalone="no"?>
<!DOCTYPE svg PUBLIC "-//W3C//DTD SVG 1.1//EN"
 "http://www.w3.org/Graphics/SVG/1.1/DTD/svg11.dtd">
<!-- Generated by graphviz version 2.43.0 (0)
 -->
<!-- Title: Graphical Class Hierarchy Pages: 1 -->
<svg width="300pt" height="362pt"
 viewBox="0.00 0.00 300.00 361.50" xmlns="http://www.w3.org/2000/svg" xmlns:xlink="http://www.w3.org/1999/xlink">
<g id="graph0" class="graph" transform="scale(1 1) rotate(0) translate(4 357.5)">
<title>Graphical Class Hierarchy</title>
<!-- Node0 -->
<g id="Node000000" class="node">
<title>Node0</title>
<g id="a_Node000000"><a xlink:href="dd/d52/classIntVar.html" target="_top" xlink:title=" ">
<polygon fill="white" stroke="#666666" points="49.5,-226 4.5,-226 4.5,-207 49.5,-207 49.5,-226"/>
<text text-anchor="middle" x="27" y="-214" font-family="Helvetica,sans-Serif" font-size="10.00">IntVar</text>
</a>
</g>
</g>
<!-- Node1 -->
<g id="Node000001" class="node">
<title>Node1</title>
<g id="a_Node000001"><a xlink:href="d5/d03/classaopp__deconv__tool_1_1psf__data__ops_1_1S.html" target="_top" xlink:title=" ">
<polygon fill="white" stroke="#666666" points="252.5,-186.5 129.5,-186.5 129.5,-156.5 252.5,-156.5 252.5,-186.5"/>
<text text-anchor="start" x="137.5" y="-174.5" font-family="Helvetica,sans-Serif" font-size="10.00">aopp_deconv_tool.psf</text>
<text text-anchor="middle" x="191" y="-163.5" font-family="Helvetica,sans-Serif" font-size="10.00">_data_ops.S</text>
</a>
</g>
</g>
<!-- Node0&#45;&gt;Node1 -->
<g id="edge44_Node000000_Node000001" class="edge">
<title>Node0&#45;&gt;Node1</title>
<g id="a_edge44_Node000000_Node000001"><a xlink:title=" ">
<path fill="none" stroke="#63b8ff" d="M59.41,-205.92C69.17,-202.75 79.99,-199.36 90,-196.5 102.65,-192.88 116.27,-189.28 129.28,-185.99"/>
<polygon fill="#63b8ff" stroke="#63b8ff" points="58.11,-202.66 49.7,-209.11 60.29,-209.31 58.11,-202.66"/>
</a>
</g>
</g>
<!-- Node6 -->
<g id="Node000006" class="node">
<title>Node6</title>
<g id="a_Node000006"><a xlink:href="d6/db6/classaopp__deconv__tool_1_1psf__data__ops_1_1S1.html" target="_top" xlink:title=" ">
<polygon fill="white" stroke="#666666" points="252.5,-138.5 129.5,-138.5 129.5,-108.5 252.5,-108.5 252.5,-138.5"/>
<text text-anchor="start" x="137.5" y="-126.5" font-family="Helvetica,sans-Serif" font-size="10.00">aopp_deconv_tool.psf</text>
<text text-anchor="middle" x="191" y="-115.5" font-family="Helvetica,sans-Serif" font-size="10.00">_data_ops.S1</text>
</a>
</g>
</g>
<!-- Node0&#45;&gt;Node6 -->
<g id="edge45_Node000000_Node000006" class="edge">
<title>Node0&#45;&gt;Node6</title>
<g id="a_edge45_Node000000_Node000006"><a xlink:title=" ">
<path fill="none" stroke="#63b8ff" d="M45.61,-199.31C48.46,-196.41 51.34,-193.4 54,-190.5 70.83,-172.11 68.81,-160.63 90,-147.5 101.84,-140.17 115.75,-135.07 129.36,-131.54"/>
<polygon fill="#63b8ff" stroke="#63b8ff" points="42.94,-197.04 38.34,-206.58 47.89,-201.99 42.94,-197.04"/>
</a>
</g>
</g>
<!-- Node7 -->
<g id="Node000007" class="node">
<title>Node7</title>
<g id="a_Node000007"><a xlink:href="d9/d1a/classaopp__deconv__tool_1_1psf__model_1_1gaussian__psf__model_1_1S.html" target="_top" xlink:title=" ">
<polygon fill="white" stroke="#666666" points="273,-90.5 109,-90.5 109,-60.5 273,-60.5 273,-90.5"/>
<text text-anchor="start" x="117" y="-78.5" font-family="Helvetica,sans-Serif" font-size="10.00">aopp_deconv_tool.psf</text>
<text text-anchor="middle" x="191" y="-67.5" font-family="Helvetica,sans-Serif" font-size="10.00">_model.gaussian_psf_model.S</text>
</a>
</g>
</g>
<!-- Node0&#45;&gt;Node7 -->
<g id="edge46_Node000000_Node000007" class="edge">
<title>Node0&#45;&gt;Node7</title>
<g id="a_edge46_Node000000_Node000007"><a xlink:title=" ">
<path fill="none" stroke="#63b8ff" d="M46.61,-199.83C49.3,-196.89 51.88,-193.73 54,-190.5 77.87,-154.14 57.15,-128.01 90,-99.5 95.53,-94.7 101.85,-90.82 108.57,-87.7"/>
<polygon fill="#63b8ff" stroke="#63b8ff" points="44.04,-197.45 39.44,-206.99 48.99,-202.4 44.04,-197.45"/>
</a>
</g>
</g>
<!-- Node8 -->
<g id="Node000008" class="node">
<title>Node8</title>
<g id="a_Node000008"><a xlink:href="da/dca/classaopp__deconv__tool_1_1psf__model_1_1gaussian__psf__model_1_1S1.html" target="_top" xlink:title=" ">
<polygon fill="white" stroke="#666666" points="276,-353.5 106,-353.5 106,-323.5 276,-323.5 276,-353.5"/>
<text text-anchor="start" x="114" y="-341.5" font-family="Helvetica,sans-Serif" font-size="10.00">aopp_deconv_tool.psf</text>
<text text-anchor="middle" x="191" y="-330.5" font-family="Helvetica,sans-Serif" font-size="10.00">_model.gaussian_psf_model.S1</text>
</a>
</g>
</g>
<!-- Node0&#45;&gt;Node8 -->
<g id="edge47_Node000000_Node000008" class="edge">
<title>Node0&#45;&gt;Node8</title>
<g id="a_edge47_Node000000_Node000008"><a xlink:title=" ">
<path fill="none" stroke="#63b8ff" d="M34.86,-235.48C43.94,-257.87 62.16,-294.57 90,-314.5 94.94,-318.03 100.33,-321.05 105.96,-323.63"/>
<polygon fill="#63b8ff" stroke="#63b8ff" points="38.08,-234.11 31.22,-226.04 31.55,-236.63 38.08,-234.11"/>
</a>
</g>
</g>
<!-- Node9 -->
<g id="Node000009" class="node">
<title>Node9</title>
<g id="a_Node000009"><a xlink:href="d0/dd1/classaopp__deconv__tool_1_1psf__model_1_1turbulence__psf__model_1_1S.html" target="_top" xlink:title=" ">
<polygon fill="white" stroke="#666666" points="255,-305 127,-305 127,-264 255,-264 255,-305"/>
<text text-anchor="start" x="135" y="-293" font-family="Helvetica,sans-Serif" font-size="10.00">aopp_deconv_tool.psf</text>
<text text-anchor="start" x="135" y="-282" font-family="Helvetica,sans-Serif" font-size="10.00">_model.turbulence_psf</text>
<text text-anchor="middle" x="191" y="-271" font-family="Helvetica,sans-Serif" font-size="10.00">_model.S</text>
</a>
</g>
</g>
<!-- Node0&#45;&gt;Node9 -->
<g id="edge48_Node000000_Node000009" class="edge">
<title>Node0&#45;&gt;Node9</title>
<g id="a_edge48_Node000000_Node000009"><a xlink:title=" ">
<path fill="none" stroke="#63b8ff" d="M49.68,-232.24C61.22,-240.06 75.9,-249.17 90,-255.5 101.63,-260.72 114.43,-265.26 126.89,-269.11"/>
<polygon fill="#63b8ff" stroke="#63b8ff" points="51.38,-229.16 41.18,-226.32 47.38,-234.91 51.38,-229.16"/>
</a>
</g>
</g>
<!-- Node10 -->
<g id="Node000010" class="node">
<title>Node10</title>
<g id="a_Node000010"><a xlink:href="df/d2f/classaopp__deconv__tool_1_1psf__model_1_1turbulence__psf__model_1_1S1.html" target="_top" xlink:title=" ">
<polygon fill="white" stroke="#666666" points="255,-246 127,-246 127,-205 255,-205 255,-246"/>
<text text-anchor="start" x="135" y="-234" font-family="Helvetica,sans-Serif" font-size="10.00">aopp_deconv_tool.psf</text>
<text text-anchor="start" x="135" y="-223" font-family="Helvetica,sans-Serif" font-size="10.00">_model.turbulence_psf</text>
<text text-anchor="middle" x="191" y="-212" font-family="Helvetica,sans-Serif" font-size="10.00">_model.S1</text>
</a>
</g>
</g>
<!-- Node0&#45;&gt;Node10 -->
<g id="edge49_Node000000_Node000010" class="edge">
<title>Node0&#45;&gt;Node10</title>
<g id="a_edge49_Node000000_Node000010"><a xlink:title=" ">
<path fill="none" stroke="#63b8ff" d="M59.73,-218.26C78.82,-219.32 103.78,-220.71 126.75,-221.99"/>
<polygon fill="#63b8ff" stroke="#63b8ff" points="59.69,-214.76 49.51,-217.7 59.3,-221.74 59.69,-214.76"/>
</a>
</g>
</g>
<!-- Node4 -->
<g id="Node000004" class="node">
<title>Node4</title>
<g id="a_Node000004"><a xlink:href="d1/def/classT.html" target="_top" xlink:title=" ">
<polygon fill="white" stroke="#666666" points="41.5,-56 12.5,-56 12.5,-37 41.5,-37 41.5,-56"/>
<text text-anchor="middle" x="27" y="-44" font-family="Helvetica,sans-Serif" font-size="10.00">T</text>
</a>
</g>
</g>
<!-- Node3 -->
<g id="Node000003" class="node">
<title>Node3</title>
<g id="a_Node000003"><a xlink:href="d4/d16/classaopp__deconv__tool_1_1geometry_1_1bounding__box_1_1BoundingBox.html" target="_top" xlink:title=" ">
<polygon fill="white" stroke="#666666" points="292,-42.5 90,-42.5 90,-12.5 292,-12.5 292,-42.5"/>
<text text-anchor="start" x="98" y="-30.5" font-family="Helvetica,sans-Serif" font-size="10.00">aopp_deconv_tool.geometry.bounding</text>
<text text-anchor="middle" x="191" y="-19.5" font-family="Helvetica,sans-Serif" font-size="10.00">_box.BoundingBox</text>
</a>
</g>
</g>
<!-- Node4&#45;&gt;Node3 -->
<g id="edge50_Node000004_Node000003" class="edge">
<title>Node4&#45;&gt;Node3</title>
<g id="a_edge50_Node000004_Node000003"><a xlink:title=" ">
<path fill="none" stroke="#63b8ff" d="M51.56,-43.74C62.2,-42.49 75.57,-40.92 89.78,-39.25"/>
<polygon fill="#63b8ff" stroke="#63b8ff" points="51.06,-40.27 41.53,-44.91 51.87,-47.22 51.06,-40.27"/>
</a>
</g>
</g>
<!-- Node5 -->
<g id="Node000005" class="node">
<title>Node5</title>
<g id="a_Node000005"><a xlink:title=" ">
<polygon fill="#e0e0e0" stroke="#999999" points="41.5,-19 12.5,-19 12.5,0 41.5,0 41.5,-19"/>
<text text-anchor="middle" x="27" y="-7" font-family="Helvetica,sans-Serif" font-size="10.00">N</text>
</a>
</g>
</g>
<!-- Node5&#45;&gt;Node3 -->
<g id="edge51_Node000005_Node000003" class="edge">
<title>Node5&#45;&gt;Node3</title>
<g id="a_edge51_Node000005_Node000003"><a xlink:title=" ">
<path fill="none" stroke="#63b8ff" d="M51.56,-12.12C62.2,-13.3 75.57,-14.79 89.78,-16.36"/>
<polygon fill="#63b8ff" stroke="#63b8ff" points="51.86,-8.63 41.53,-11 51.09,-15.59 51.86,-8.63"/>
</a>
</g>
</g>
<!-- Node2 -->
<g id="Node000002" class="node">
<title>Node2</title>
<g id="a_Node000002"><a xlink:title=" ">
<polygon fill="#e0e0e0" stroke="#999999" points="54,-181 0,-181 0,-162 54,-162 54,-181"/>
<text text-anchor="middle" x="27" y="-169" font-family="Helvetica,sans-Serif" font-size="10.00">Generic</text>
</a>
</g>
</g>
<!-- Node2&#45;&gt;Node1 -->
<g id="edge53_Node000002_Node000001" class="edge">
<title>Node2&#45;&gt;Node1</title>
<g id="a_edge53_Node000002_Node000001"><a xlink:title=" ">
<path fill="none" stroke="#63b8ff" d="M64.14,-171.5C83.33,-171.5 107.43,-171.5 129.38,-171.5"/>
<polygon fill="#63b8ff" stroke="#63b8ff" points="64.03,-168 54.03,-171.5 64.03,-175 64.03,-168"/>
</a>
</g>
</g>
<!-- Node2&#45;&gt;Node6 -->
<g id="edge54_Node000002_Node000006" class="edge">
<title>Node2&#45;&gt;Node6</title>
<g id="a_edge54_Node000002_Node000006"><a xlink:title=" ">
<path fill="none" stroke="#63b8ff" d="M59.95,-158.19C69.52,-154.46 80.11,-150.59 90,-147.5 102.61,-143.56 116.29,-139.9 129.36,-136.68"/>
<polygon fill="#63b8ff" stroke="#63b8ff" points="58.41,-155.04 50.42,-161.99 61,-161.54 58.41,-155.04"/>
</a>
</g>
</g>
<!-- Node2&#45;&gt;Node7 -->
<g id="edge55_Node000002_Node000007" class="edge">
<title>Node2&#45;&gt;Node7</title>
<g id="a_edge55_Node000002_Node000007"><a xlink:title=" ">
<path fill="none" stroke="#63b8ff" d="M39.04,-153.09C49.93,-136.55 68.1,-112.86 90,-99.5 95.87,-95.92 102.23,-92.87 108.81,-90.28"/>
<polygon fill="#63b8ff" stroke="#63b8ff" points="35.88,-151.55 33.5,-161.88 41.79,-155.29 35.88,-151.55"/>
</a>
</g>
</g>
<!-- Node2&#45;&gt;Node8 -->
<g id="edge56_Node000002_Node000008" class="edge">
<title>Node2&#45;&gt;Node8</title>
<g id="a_edge56_Node000002_Node000008"><a xlink:title=" ">
<path fill="none" stroke="#63b8ff" d="M46.44,-188.32C49.24,-191.5 51.9,-194.95 54,-198.5 81.46,-244.97 50.6,-277.6 90,-314.5 94.69,-318.89 100.04,-322.53 105.77,-325.53"/>
<polygon fill="#63b8ff" stroke="#63b8ff" points="48.86,-185.79 39.38,-181.06 43.84,-190.67 48.86,-185.79"/>
</a>
</g>
</g>
<!-- Node2&#45;&gt;Node9 -->
<g id="edge57_Node000002_Node000009" class="edge">
<title>Node2&#45;&gt;Node9</title>
<g id="a_edge57_Node000002_Node000009"><a xlink:title=" ">
<path fill="none" stroke="#63b8ff" d="M45.12,-188.24C48.2,-191.53 51.29,-195.04 54,-198.5 72.49,-222.08 66.05,-237.49 90,-255.5 100.83,-263.65 113.9,-269.51 126.97,-273.73"/>
<polygon fill="#63b8ff" stroke="#63b8ff" points="47.62,-185.79 38.14,-181.06 42.6,-190.67 47.62,-185.79"/>
</a>
</g>
</g>
<!-- Node2&#45;&gt;Node10 -->
<g id="edge58_Node000002_Node000010" class="edge">
<title>Node2&#45;&gt;Node10</title>
<g id="a_edge58_Node000002_Node000010"><a xlink:title=" ">
<path fill="none" stroke="#63b8ff" d="M60.78,-184.74C70.16,-188.38 80.44,-192.22 90,-195.5 101.83,-199.56 114.55,-203.61 126.82,-207.36"/>
<polygon fill="#63b8ff" stroke="#63b8ff" points="61.98,-181.45 51.39,-181.05 59.42,-187.96 61.98,-181.45"/>
</a>
</g>
</g>
<!-- Node2&#45;&gt;Node3 -->
<g id="edge52_Node000002_Node000003" class="edge">
<title>Node2&#45;&gt;Node3</title>
<g id="a_edge52_Node000002_Node000003"><a xlink:title=" ">
<path fill="none" stroke="#63b8ff" d="M32.56,-152.23C39.93,-125.43 57.07,-77.31 90,-51.5 94.36,-48.09 99.12,-45.15 104.14,-42.62"/>
<polygon fill="#63b8ff" stroke="#63b8ff" points="29.15,-151.42 30.05,-161.98 35.93,-153.16 29.15,-151.42"/>
</a>
</g>
</g>
</g>
</svg>
