<?xml version="1.0" encoding="UTF-8" standalone="no"?>
<!DOCTYPE svg PUBLIC "-//W3C//DTD SVG 1.1//EN"
 "http://www.w3.org/Graphics/SVG/1.1/DTD/svg11.dtd">
<!-- Generated by graphviz version 2.43.0 (0)
 -->
<!-- Title: Graphical Class Hierarchy Pages: 1 -->
<svg width="569pt" height="270pt"
 viewBox="0.00 0.00 569.00 270.00" xmlns="http://www.w3.org/2000/svg" xmlns:xlink="http://www.w3.org/1999/xlink">
<g id="graph0" class="graph" transform="scale(1 1) rotate(0) translate(4 266)">
<title>Graphical Class Hierarchy</title>
<!-- Node0 -->
<g id="Node000000" class="node">
<title>Node0</title>
<g id="a_Node000000"><a xlink:href="d6/d94/classaopp__deconv__tool_1_1psf__model_1_1dependency__injector_1_1params__and__psf__model__di_1_1ba2ec6983774f489c0efd6a2ad6addb5.html" target="_top" xlink:title=" ">
<polygon fill="white" stroke="#666666" points="274,-157 0,-157 0,-105 274,-105 274,-157"/>
<text text-anchor="start" x="8" y="-145" font-family="Helvetica,sans-Serif" font-size="10.00">aopp_deconv_tool.psf</text>
<text text-anchor="start" x="8" y="-134" font-family="Helvetica,sans-Serif" font-size="10.00">_model.dependency_injector.params</text>
<text text-anchor="start" x="8" y="-123" font-family="Helvetica,sans-Serif" font-size="10.00">_and_psf_model_di.ParamsAndPsfModelDependency</text>
<text text-anchor="middle" x="137" y="-112" font-family="Helvetica,sans-Serif" font-size="10.00">Injector</text>
</a>
</g>
</g>
<!-- Node1 -->
<g id="Node000001" class="node">
<title>Node1</title>
<g id="a_Node000001"><a xlink:href="d1/d9c/classaopp__deconv__tool_1_1psf__model_1_1dependency__injector_1_1adaptive__optics__psf__model__d294521e194e6a71ff5836ee8df9e3bea.html" target="_top" xlink:title=" ">
<polygon fill="white" stroke="#666666" points="549,-262 322,-262 322,-210 549,-210 549,-262"/>
<text text-anchor="start" x="330" y="-250" font-family="Helvetica,sans-Serif" font-size="10.00">aopp_deconv_tool.psf</text>
<text text-anchor="start" x="330" y="-239" font-family="Helvetica,sans-Serif" font-size="10.00">_model.dependency_injector.adaptive</text>
<text text-anchor="start" x="330" y="-228" font-family="Helvetica,sans-Serif" font-size="10.00">_optics_psf_model_di.MUSEAdaptiveOptics</text>
<text text-anchor="middle" x="435.5" y="-217" font-family="Helvetica,sans-Serif" font-size="10.00">PSFModelDependencyInjector</text>
</a>
</g>
</g>
<!-- Node0&#45;&gt;Node1 -->
<g id="edge33_Node000000_Node000001" class="edge">
<title>Node0&#45;&gt;Node1</title>
<g id="a_edge33_Node000000_Node000001"><a xlink:title=" ">
<path fill="none" stroke="#63b8ff" d="M206.93,-161.12C238.1,-174.21 275.59,-189.2 310,-201 318.92,-204.06 328.26,-207.06 337.65,-209.93"/>
<polygon fill="#63b8ff" stroke="#63b8ff" points="208.05,-157.8 197.47,-157.13 205.32,-164.24 208.05,-157.8"/>
</a>
</g>
</g>
<!-- Node2 -->
<g id="Node000002" class="node">
<title>Node2</title>
<g id="a_Node000002"><a xlink:href="df/df8/classaopp__deconv__tool_1_1psf__model_1_1dependency__injector_1_1gaussian__psf__model__di_1_1GaussianPSFModelDependencyInjector.html" target="_top" xlink:title=" ">
<polygon fill="white" stroke="#666666" points="557.5,-192 313.5,-192 313.5,-140 557.5,-140 557.5,-192"/>
<text text-anchor="start" x="321.5" y="-180" font-family="Helvetica,sans-Serif" font-size="10.00">aopp_deconv_tool.psf</text>
<text text-anchor="start" x="321.5" y="-169" font-family="Helvetica,sans-Serif" font-size="10.00">_model.dependency_injector.gaussian</text>
<text text-anchor="start" x="321.5" y="-158" font-family="Helvetica,sans-Serif" font-size="10.00">_psf_model_di.GaussianPSFModelDependency</text>
<text text-anchor="middle" x="435.5" y="-147" font-family="Helvetica,sans-Serif" font-size="10.00">Injector</text>
</a>
</g>
</g>
<!-- Node0&#45;&gt;Node2 -->
<g id="edge34_Node000000_Node000002" class="edge">
<title>Node0&#45;&gt;Node2</title>
<g id="a_edge34_Node000000_Node000002"><a xlink:title=" ">
<path fill="none" stroke="#63b8ff" d="M284.25,-148.26C293.99,-149.41 303.75,-150.57 313.35,-151.7"/>
<polygon fill="#63b8ff" stroke="#63b8ff" points="284.44,-144.76 274.1,-147.07 283.62,-151.71 284.44,-144.76"/>
</a>
</g>
</g>
<!-- Node3 -->
<g id="Node000003" class="node">
<title>Node3</title>
<g id="a_Node000003"><a xlink:href="d4/de4/classaopp__deconv__tool_1_1psf__model_1_1dependency__injector_1_1radial__psf__model__di_1_1RadialPSFModelDependencyInjector.html" target="_top" xlink:title=" ">
<polygon fill="white" stroke="#666666" points="550.5,-122 320.5,-122 320.5,-70 550.5,-70 550.5,-122"/>
<text text-anchor="start" x="328.5" y="-110" font-family="Helvetica,sans-Serif" font-size="10.00">aopp_deconv_tool.psf</text>
<text text-anchor="start" x="328.5" y="-99" font-family="Helvetica,sans-Serif" font-size="10.00">_model.dependency_injector.radial</text>
<text text-anchor="start" x="328.5" y="-88" font-family="Helvetica,sans-Serif" font-size="10.00">_psf_model_di.RadialPSFModelDependency</text>
<text text-anchor="middle" x="435.5" y="-77" font-family="Helvetica,sans-Serif" font-size="10.00">Injector</text>
</a>
</g>
</g>
<!-- Node0&#45;&gt;Node3 -->
<g id="edge35_Node000000_Node000003" class="edge">
<title>Node0&#45;&gt;Node3</title>
<g id="a_edge35_Node000000_Node000003"><a xlink:title=" ">
<path fill="none" stroke="#63b8ff" d="M284.21,-113.74C296.26,-112.32 308.32,-110.89 320.09,-109.51"/>
<polygon fill="#63b8ff" stroke="#63b8ff" points="283.62,-110.29 274.1,-114.93 284.44,-117.24 283.62,-110.29"/>
</a>
</g>
</g>
<!-- Node4 -->
<g id="Node000004" class="node">
<title>Node4</title>
<g id="a_Node000004"><a xlink:href="da/dfa/classaopp__deconv__tool_1_1psf__model_1_1dependency__injector_1_1turbulence__psf__model__di_1_1T36ef1ba1189ed5977de0cafe54c1f0eb.html" target="_top" xlink:title=" ">
<polygon fill="white" stroke="#666666" points="561,-52 310,-52 310,0 561,0 561,-52"/>
<text text-anchor="start" x="318" y="-40" font-family="Helvetica,sans-Serif" font-size="10.00">aopp_deconv_tool.psf</text>
<text text-anchor="start" x="318" y="-29" font-family="Helvetica,sans-Serif" font-size="10.00">_model.dependency_injector.turbulence</text>
<text text-anchor="start" x="318" y="-18" font-family="Helvetica,sans-Serif" font-size="10.00">_psf_model_di.TurbulencePSFModelDependency</text>
<text text-anchor="middle" x="435.5" y="-7" font-family="Helvetica,sans-Serif" font-size="10.00">Injector</text>
</a>
</g>
</g>
<!-- Node0&#45;&gt;Node4 -->
<g id="edge36_Node000000_Node000004" class="edge">
<title>Node0&#45;&gt;Node4</title>
<g id="a_edge36_Node000000_Node000004"><a xlink:title=" ">
<path fill="none" stroke="#63b8ff" d="M206.93,-100.88C238.1,-87.79 275.59,-72.8 310,-61 318.92,-57.94 328.26,-54.94 337.65,-52.07"/>
<polygon fill="#63b8ff" stroke="#63b8ff" points="205.32,-97.76 197.47,-104.87 208.05,-104.2 205.32,-97.76"/>
</a>
</g>
</g>
</g>
</svg>
