<?xml version="1.0" encoding="UTF-8" standalone="no"?>
<!DOCTYPE svg PUBLIC "-//W3C//DTD SVG 1.1//EN"
 "http://www.w3.org/Graphics/SVG/1.1/DTD/svg11.dtd">
<!-- Generated by graphviz version 2.43.0 (0)
 -->
<!-- Title: Graphical Class Hierarchy Pages: 1 -->
<svg width="329pt" height="165pt"
 viewBox="0.00 0.00 329.00 164.50" xmlns="http://www.w3.org/2000/svg" xmlns:xlink="http://www.w3.org/1999/xlink">
<g id="graph0" class="graph" transform="scale(1 1) rotate(0) translate(4 160.5)">
<title>Graphical Class Hierarchy</title>
<!-- Node0 -->
<g id="node1" class="node">
<title>Node0</title>
<g id="a_node1"><a xlink:href="dd/dde/classaopp__deconv__tool_1_1geo__array_1_1GeoArray.html" target="_top" xlink:title=" ">
<polygon fill="none" stroke="black" points="0,-55 0,-85 126,-85 126,-55 0,-55"/>
<text text-anchor="start" x="8" y="-73" font-family="Helvetica,sans-Serif" font-size="10.00">aopp_deconv_tool.geo</text>
<text text-anchor="middle" x="63" y="-62" font-family="Helvetica,sans-Serif" font-size="10.00">_array.GeoArray</text>
</a>
</g>
</g>
<!-- Node1 -->
<g id="node2" class="node">
<title>Node1</title>
<g id="a_node2"><a xlink:href="d2/d57/classfunction_1_1OpticalTransferFunction.html" target="_top" xlink:title=" ">
<polygon fill="none" stroke="black" points="174.5,-126 174.5,-156 308.5,-156 308.5,-126 174.5,-126"/>
<text text-anchor="start" x="182.5" y="-144" font-family="Helvetica,sans-Serif" font-size="10.00">function.OpticalTransfer</text>
<text text-anchor="middle" x="241.5" y="-133" font-family="Helvetica,sans-Serif" font-size="10.00">Function</text>
</a>
</g>
</g>
<!-- Node0&#45;&gt;Node1 -->
<g id="edge1" class="edge">
<title>Node0&#45;&gt;Node1</title>
<path fill="none" stroke="midnightblue" d="M101.66,-89.7C119.65,-98.68 141.64,-109.06 162,-117 170.1,-120.16 178.8,-123.18 187.34,-125.94"/>
<polygon fill="midnightblue" stroke="midnightblue" points="103.16,-86.54 92.65,-85.15 100,-92.78 103.16,-86.54"/>
</g>
<!-- Node2 -->
<g id="node3" class="node">
<title>Node2</title>
<g id="a_node3"><a xlink:href="d8/dac/classfunction_1_1PhasePowerSpectralDensity.html" target="_top" xlink:title=" ">
<polygon fill="none" stroke="black" points="162.5,-77 162.5,-107 320.5,-107 320.5,-77 162.5,-77"/>
<text text-anchor="start" x="170.5" y="-95" font-family="Helvetica,sans-Serif" font-size="10.00">function.PhasePowerSpectral</text>
<text text-anchor="middle" x="241.5" y="-84" font-family="Helvetica,sans-Serif" font-size="10.00">Density</text>
</a>
</g>
</g>
<!-- Node0&#45;&gt;Node2 -->
<g id="edge2" class="edge">
<title>Node0&#45;&gt;Node2</title>
<path fill="none" stroke="midnightblue" d="M136.25,-79.01C144.88,-80.08 153.73,-81.18 162.44,-82.27"/>
<polygon fill="midnightblue" stroke="midnightblue" points="136.58,-75.52 126.23,-77.76 135.72,-82.47 136.58,-75.52"/>
</g>
<!-- Node3 -->
<g id="node4" class="node">
<title>Node3</title>
<g id="a_node4"><a xlink:href="d1/dd8/classfunction_1_1PointSpreadFunction.html" target="_top" xlink:title=" ">
<polygon fill="none" stroke="black" points="162,-38.5 162,-57.5 321,-57.5 321,-38.5 162,-38.5"/>
<text text-anchor="middle" x="241.5" y="-45.5" font-family="Helvetica,sans-Serif" font-size="10.00">function.PointSpreadFunction</text>
</a>
</g>
</g>
<!-- Node0&#45;&gt;Node3 -->
<g id="edge3" class="edge">
<title>Node0&#45;&gt;Node3</title>
<path fill="none" stroke="midnightblue" d="M136.38,-60.98C145.49,-59.84 154.82,-58.68 163.98,-57.54"/>
<polygon fill="midnightblue" stroke="midnightblue" points="135.72,-57.53 126.23,-62.24 136.58,-64.48 135.72,-57.53"/>
</g>
<!-- Node4 -->
<g id="node5" class="node">
<title>Node4</title>
<g id="a_node5"><a xlink:href="d0/dca/classfunction_1_1PupilFunction.html" target="_top" xlink:title=" ">
<polygon fill="none" stroke="black" points="179,-0.5 179,-19.5 304,-19.5 304,-0.5 179,-0.5"/>
<text text-anchor="middle" x="241.5" y="-7.5" font-family="Helvetica,sans-Serif" font-size="10.00">function.PupilFunction</text>
</a>
</g>
</g>
<!-- Node0&#45;&gt;Node4 -->
<g id="edge4" class="edge">
<title>Node0&#45;&gt;Node4</title>
<path fill="none" stroke="midnightblue" d="M105.82,-50.78C122.99,-43.34 143.22,-35.16 162,-29 172.79,-25.46 184.61,-22.26 195.73,-19.54"/>
<polygon fill="midnightblue" stroke="midnightblue" points="104.37,-47.6 96.62,-54.82 107.18,-54 104.37,-47.6"/>
</g>
</g>
</svg>
