<?xml version="1.0" encoding="UTF-8" standalone="no"?>
<!DOCTYPE svg PUBLIC "-//W3C//DTD SVG 1.1//EN"
 "http://www.w3.org/Graphics/SVG/1.1/DTD/svg11.dtd">
<!-- Generated by graphviz version 2.43.0 (0)
 -->
<!-- Title: Graphical Class Hierarchy Pages: 1 -->
<svg width="527pt" height="242pt"
 viewBox="0.00 0.00 527.00 242.00" xmlns="http://www.w3.org/2000/svg" xmlns:xlink="http://www.w3.org/1999/xlink">
<g id="graph0" class="graph" transform="scale(1 1) rotate(0) translate(4 238)">
<title>Graphical Class Hierarchy</title>
<!-- Node0 -->
<g id="Node000000" class="node">
<title>Node0</title>
<g id="a_Node000000"><a xlink:href="d4/d84/classaopp__deconv__tool_1_1plot__helper_1_1base_1_1Base.html" target="_top" xlink:title=" ">
<polygon fill="white" stroke="#666666" points="127,-138 0,-138 0,-108 127,-108 127,-138"/>
<text text-anchor="start" x="8" y="-126" font-family="Helvetica,sans-Serif" font-size="10.00">aopp_deconv_tool.plot</text>
<text text-anchor="middle" x="63.5" y="-115" font-family="Helvetica,sans-Serif" font-size="10.00">_helper.base.Base</text>
</a>
</g>
</g>
<!-- Node1 -->
<g id="Node000001" class="node">
<title>Node1</title>
<g id="a_Node000001"><a xlink:href="d3/ddd/classaopp__deconv__tool_1_1plot__helper_1_1plotters_1_1Histogram.html" target="_top" xlink:title=" ">
<polygon fill="white" stroke="#666666" points="319,-234 173,-234 173,-204 319,-204 319,-234"/>
<text text-anchor="start" x="181" y="-222" font-family="Helvetica,sans-Serif" font-size="10.00">aopp_deconv_tool.plot</text>
<text text-anchor="middle" x="246" y="-211" font-family="Helvetica,sans-Serif" font-size="10.00">_helper.plotters.Histogram</text>
</a>
</g>
</g>
<!-- Node0&#45;&gt;Node1 -->
<g id="edge26_Node000000_Node000001" class="edge">
<title>Node0&#45;&gt;Node1</title>
<g id="a_edge26_Node000000_Node000001"><a xlink:title=" ">
<path fill="none" stroke="#63b8ff" d="M89.31,-144.92C108.33,-160.75 135.86,-181.62 163,-195 169.79,-198.34 177.12,-201.31 184.52,-203.91"/>
<polygon fill="#63b8ff" stroke="#63b8ff" points="91.34,-142.05 81.45,-138.26 86.82,-147.4 91.34,-142.05"/>
</a>
</g>
</g>
<!-- Node2 -->
<g id="Node000002" class="node">
<title>Node2</title>
<g id="a_Node000002"><a xlink:href="d0/d38/classaopp__deconv__tool_1_1plot__helper_1_1plotters_1_1HorizontalLine.html" target="_top" xlink:title=" ">
<polygon fill="white" stroke="#666666" points="329,-186 163,-186 163,-156 329,-156 329,-186"/>
<text text-anchor="start" x="171" y="-174" font-family="Helvetica,sans-Serif" font-size="10.00">aopp_deconv_tool.plot</text>
<text text-anchor="middle" x="246" y="-163" font-family="Helvetica,sans-Serif" font-size="10.00">_helper.plotters.HorizontalLine</text>
</a>
</g>
</g>
<!-- Node0&#45;&gt;Node2 -->
<g id="edge27_Node000000_Node000002" class="edge">
<title>Node0&#45;&gt;Node2</title>
<g id="a_edge27_Node000000_Node000002"><a xlink:title=" ">
<path fill="none" stroke="#63b8ff" d="M130.87,-140.65C149.82,-145.69 170.29,-151.13 188.58,-156"/>
<polygon fill="#63b8ff" stroke="#63b8ff" points="131.68,-137.24 121.12,-138.06 129.88,-144.01 131.68,-137.24"/>
</a>
</g>
</g>
<!-- Node3 -->
<g id="Node000003" class="node">
<title>Node3</title>
<g id="a_Node000003"><a xlink:href="da/d2d/classaopp__deconv__tool_1_1plot__helper_1_1plotters_1_1Image.html" target="_top" xlink:title=" ">
<polygon fill="white" stroke="#666666" points="309.5,-138 182.5,-138 182.5,-108 309.5,-108 309.5,-138"/>
<text text-anchor="start" x="190.5" y="-126" font-family="Helvetica,sans-Serif" font-size="10.00">aopp_deconv_tool.plot</text>
<text text-anchor="middle" x="246" y="-115" font-family="Helvetica,sans-Serif" font-size="10.00">_helper.plotters.Image</text>
</a>
</g>
</g>
<!-- Node0&#45;&gt;Node3 -->
<g id="edge28_Node000000_Node000003" class="edge">
<title>Node0&#45;&gt;Node3</title>
<g id="a_edge28_Node000000_Node000003"><a xlink:title=" ">
<path fill="none" stroke="#63b8ff" d="M137.35,-123C152.31,-123 167.93,-123 182.49,-123"/>
<polygon fill="#63b8ff" stroke="#63b8ff" points="137.12,-119.5 127.12,-123 137.12,-126.5 137.12,-119.5"/>
</a>
</g>
</g>
<!-- Node4 -->
<g id="Node000004" class="node">
<title>Node4</title>
<g id="a_Node000004"><a xlink:href="d4/d23/classaopp__deconv__tool_1_1plot__helper_1_1plotters_1_1IterativeLineGraph.html" target="_top" xlink:title=" ">
<polygon fill="white" stroke="#666666" points="324.5,-89.5 167.5,-89.5 167.5,-48.5 324.5,-48.5 324.5,-89.5"/>
<text text-anchor="start" x="175.5" y="-77.5" font-family="Helvetica,sans-Serif" font-size="10.00">aopp_deconv_tool.plot</text>
<text text-anchor="start" x="175.5" y="-66.5" font-family="Helvetica,sans-Serif" font-size="10.00">_helper.plotters.IterativeLine</text>
<text text-anchor="middle" x="246" y="-55.5" font-family="Helvetica,sans-Serif" font-size="10.00">Graph</text>
</a>
</g>
</g>
<!-- Node0&#45;&gt;Node4 -->
<g id="edge29_Node000000_Node000004" class="edge">
<title>Node0&#45;&gt;Node4</title>
<g id="a_edge29_Node000000_Node000004"><a xlink:title=" ">
<path fill="none" stroke="#63b8ff" d="M124.4,-105.08C141.07,-100.09 159.31,-94.64 176.44,-89.51"/>
<polygon fill="#63b8ff" stroke="#63b8ff" points="123.36,-101.74 114.78,-107.96 125.36,-108.44 123.36,-101.74"/>
</a>
</g>
</g>
<!-- Node6 -->
<g id="Node000006" class="node">
<title>Node6</title>
<g id="a_Node000006"><a xlink:href="d0/dba/classaopp__deconv__tool_1_1plot__helper_1_1plotters_1_1VerticalLine.html" target="_top" xlink:title=" ">
<polygon fill="white" stroke="#666666" points="322,-30 170,-30 170,0 322,0 322,-30"/>
<text text-anchor="start" x="178" y="-18" font-family="Helvetica,sans-Serif" font-size="10.00">aopp_deconv_tool.plot</text>
<text text-anchor="middle" x="246" y="-7" font-family="Helvetica,sans-Serif" font-size="10.00">_helper.plotters.VerticalLine</text>
</a>
</g>
</g>
<!-- Node0&#45;&gt;Node6 -->
<g id="edge31_Node000000_Node000006" class="edge">
<title>Node0&#45;&gt;Node6</title>
<g id="a_edge31_Node000000_Node000006"><a xlink:title=" ">
<path fill="none" stroke="#63b8ff" d="M85.83,-100.52C104.59,-81.94 133.43,-56.08 163,-40 169.93,-36.23 177.5,-32.95 185.16,-30.12"/>
<polygon fill="#63b8ff" stroke="#63b8ff" points="82.99,-98.42 78.44,-107.99 87.96,-103.35 82.99,-98.42"/>
</a>
</g>
</g>
<!-- Node5 -->
<g id="Node000005" class="node">
<title>Node5</title>
<g id="a_Node000005"><a xlink:href="de/d0f/classaopp__deconv__tool_1_1plot__helper_1_1plotters_1_1IterativeLogLineGraph.html" target="_top" xlink:title=" ">
<polygon fill="white" stroke="#666666" points="519,-89.5 365,-89.5 365,-48.5 519,-48.5 519,-89.5"/>
<text text-anchor="start" x="373" y="-77.5" font-family="Helvetica,sans-Serif" font-size="10.00">aopp_deconv_tool.plot</text>
<text text-anchor="start" x="373" y="-66.5" font-family="Helvetica,sans-Serif" font-size="10.00">_helper.plotters.IterativeLog</text>
<text text-anchor="middle" x="442" y="-55.5" font-family="Helvetica,sans-Serif" font-size="10.00">LineGraph</text>
</a>
</g>
</g>
<!-- Node4&#45;&gt;Node5 -->
<g id="edge30_Node000004_Node000005" class="edge">
<title>Node4&#45;&gt;Node5</title>
<g id="a_edge30_Node000004_Node000005"><a xlink:title=" ">
<path fill="none" stroke="#63b8ff" d="M334.56,-69C344.68,-69 354.93,-69 364.88,-69"/>
<polygon fill="#63b8ff" stroke="#63b8ff" points="334.51,-65.5 324.51,-69 334.51,-72.5 334.51,-65.5"/>
</a>
</g>
</g>
</g>
</svg>
