<?xml version="1.0" encoding="UTF-8" standalone="no"?>
<!DOCTYPE svg PUBLIC "-//W3C//DTD SVG 1.1//EN"
 "http://www.w3.org/Graphics/SVG/1.1/DTD/svg11.dtd">
<!-- Generated by graphviz version 2.43.0 (0)
 -->
<!-- Title: Graphical Class Hierarchy Pages: 1 -->
<svg width="512pt" height="86pt"
 viewBox="0.00 0.00 512.00 86.00" xmlns="http://www.w3.org/2000/svg" xmlns:xlink="http://www.w3.org/1999/xlink">
<g id="graph0" class="graph" transform="scale(1 1) rotate(0) translate(4 82)">
<title>Graphical Class Hierarchy</title>
<!-- Node0 -->
<g id="Node000000" class="node">
<title>Node0</title>
<g id="a_Node000000"><a xlink:href="d1/df9/classaopp__deconv__tool_1_1algorithm_1_1deconv_1_1base_1_1Base.html" target="_top" xlink:title=" ">
<polygon fill="white" stroke="#666666" points="246,-48.5 0,-48.5 0,-29.5 246,-29.5 246,-48.5"/>
<text text-anchor="middle" x="123" y="-36.5" font-family="Helvetica,sans-Serif" font-size="10.00">aopp_deconv_tool.algorithm.deconv.base.Base</text>
</a>
</g>
</g>
<!-- Node1 -->
<g id="Node000001" class="node">
<title>Node1</title>
<g id="a_Node000001"><a xlink:href="dd/d03/classaopp__deconv__tool_1_1algorithm_1_1deconv_1_1clean__modified_1_1CleanModified.html" target="_top" xlink:title=" ">
<polygon fill="white" stroke="#666666" points="504,-78 282,-78 282,-48 504,-48 504,-78"/>
<text text-anchor="start" x="290" y="-66" font-family="Helvetica,sans-Serif" font-size="10.00">aopp_deconv_tool.algorithm.deconv.clean</text>
<text text-anchor="middle" x="393" y="-55" font-family="Helvetica,sans-Serif" font-size="10.00">_modified.CleanModified</text>
</a>
</g>
</g>
<!-- Node0&#45;&gt;Node1 -->
<g id="edge1_Node000000_Node000001" class="edge">
<title>Node0&#45;&gt;Node1</title>
<g id="a_edge1_Node000000_Node000001"><a xlink:title=" ">
<path fill="none" stroke="#63b8ff" d="M240.3,-49.41C254.1,-50.65 268.16,-51.91 281.87,-53.14"/>
<polygon fill="#63b8ff" stroke="#63b8ff" points="240.58,-45.93 230.31,-48.52 239.95,-52.9 240.58,-45.93"/>
</a>
</g>
</g>
<!-- Node2 -->
<g id="Node000002" class="node">
<title>Node2</title>
<g id="a_Node000002"><a xlink:href="d8/dc0/classaopp__deconv__tool_1_1algorithm_1_1deconv_1_1lucy__richardson_1_1LucyRichardson.html" target="_top" xlink:title=" ">
<polygon fill="white" stroke="#666666" points="501,-30 285,-30 285,0 501,0 501,-30"/>
<text text-anchor="start" x="293" y="-18" font-family="Helvetica,sans-Serif" font-size="10.00">aopp_deconv_tool.algorithm.deconv.lucy</text>
<text text-anchor="middle" x="393" y="-7" font-family="Helvetica,sans-Serif" font-size="10.00">_richardson.LucyRichardson</text>
</a>
</g>
</g>
<!-- Node0&#45;&gt;Node2 -->
<g id="edge2_Node000000_Node000002" class="edge">
<title>Node0&#45;&gt;Node2</title>
<g id="a_edge2_Node000000_Node000002"><a xlink:title=" ">
<path fill="none" stroke="#63b8ff" d="M240.48,-28.57C255.26,-27.25 270.33,-25.9 284.95,-24.59"/>
<polygon fill="#63b8ff" stroke="#63b8ff" points="239.95,-25.1 230.31,-29.48 240.58,-32.07 239.95,-25.1"/>
</a>
</g>
</g>
</g>
</svg>
