<?xml version="1.0" encoding="UTF-8" standalone="no"?>
<!DOCTYPE svg PUBLIC "-//W3C//DTD SVG 1.1//EN"
 "http://www.w3.org/Graphics/SVG/1.1/DTD/svg11.dtd">
<!-- Generated by graphviz version 2.43.0 (0)
 -->
<!-- Title: Graphical Class Hierarchy Pages: 1 -->
<svg width="717pt" height="230pt"
 viewBox="0.00 0.00 717.00 230.00" xmlns="http://www.w3.org/2000/svg" xmlns:xlink="http://www.w3.org/1999/xlink">
<g id="graph0" class="graph" transform="scale(1 1) rotate(0) translate(4 226)">
<title>Graphical Class Hierarchy</title>
<!-- Node0 -->
<g id="node1" class="node">
<title>Node0</title>
<g id="a_node1"><a xlink:href="da/d4f/classaopp__deconv__tool_1_1graphical__frontends_1_1ssa__filtering_1_1BasePanel.html" target="_top" xlink:title=" ">
<polygon fill="none" stroke="black" points="9,-191.5 9,-221.5 194,-221.5 194,-191.5 9,-191.5"/>
<text text-anchor="start" x="17" y="-209.5" font-family="Helvetica,sans-Serif" font-size="10.00">aopp_deconv_tool.graphical</text>
<text text-anchor="middle" x="101.5" y="-198.5" font-family="Helvetica,sans-Serif" font-size="10.00">_frontends.ssa_filtering.BasePanel</text>
</a>
</g>
</g>
<!-- Node1 -->
<g id="node2" class="node">
<title>Node1</title>
<g id="a_node2"><a xlink:href="df/dfb/classaopp__deconv__tool_1_1graphical__frontends_1_1ssa__filtering_1_1LineRegionPanel.html" target="_top" xlink:title=" ">
<polygon fill="none" stroke="black" points="239,-191.5 239,-221.5 454,-221.5 454,-191.5 239,-191.5"/>
<text text-anchor="start" x="247" y="-209.5" font-family="Helvetica,sans-Serif" font-size="10.00">aopp_deconv_tool.graphical</text>
<text text-anchor="middle" x="346.5" y="-198.5" font-family="Helvetica,sans-Serif" font-size="10.00">_frontends.ssa_filtering.LineRegionPanel</text>
</a>
</g>
</g>
<!-- Node0&#45;&gt;Node1 -->
<g id="edge1" class="edge">
<title>Node0&#45;&gt;Node1</title>
<path fill="none" stroke="midnightblue" d="M204.07,-206.5C215.6,-206.5 227.37,-206.5 238.95,-206.5"/>
<polygon fill="midnightblue" stroke="midnightblue" points="204.02,-203 194.02,-206.5 204.02,-210 204.02,-203"/>
</g>
<!-- Node23 -->
<g id="node3" class="node">
<title>Node23</title>
<g id="a_node3"><a xlink:href="d7/d1a/classaopp__deconv__tool_1_1graphical__frontends_1_1ssa__filtering_1_1BasePlot.html" target="_top" xlink:title=" ">
<polygon fill="none" stroke="black" points="13,-142.5 13,-172.5 190,-172.5 190,-142.5 13,-142.5"/>
<text text-anchor="start" x="21" y="-160.5" font-family="Helvetica,sans-Serif" font-size="10.00">aopp_deconv_tool.graphical</text>
<text text-anchor="middle" x="101.5" y="-149.5" font-family="Helvetica,sans-Serif" font-size="10.00">_frontends.ssa_filtering.BasePlot</text>
</a>
</g>
</g>
<!-- Node24 -->
<g id="node4" class="node">
<title>Node24</title>
<g id="a_node4"><a xlink:href="db/dd6/classaopp__deconv__tool_1_1graphical__frontends_1_1ssa__filtering_1_1ImagePlot.html" target="_top" xlink:title=" ">
<polygon fill="none" stroke="black" points="254.5,-93.5 254.5,-123.5 438.5,-123.5 438.5,-93.5 254.5,-93.5"/>
<text text-anchor="start" x="262.5" y="-111.5" font-family="Helvetica,sans-Serif" font-size="10.00">aopp_deconv_tool.graphical</text>
<text text-anchor="middle" x="346.5" y="-100.5" font-family="Helvetica,sans-Serif" font-size="10.00">_frontends.ssa_filtering.ImagePlot</text>
</a>
</g>
</g>
<!-- Node23&#45;&gt;Node24 -->
<g id="edge2" class="edge">
<title>Node23&#45;&gt;Node24</title>
<path fill="none" stroke="midnightblue" d="M187,-140.46C214.37,-134.94 244.5,-128.87 271.08,-123.51"/>
<polygon fill="midnightblue" stroke="midnightblue" points="186.17,-137.06 177.06,-142.47 187.55,-143.92 186.17,-137.06"/>
</g>
<!-- Node25 -->
<g id="node5" class="node">
<title>Node25</title>
<g id="a_node5"><a xlink:href="d1/d4b/classaopp__deconv__tool_1_1graphical__frontends_1_1ssa__filtering_1_1LinePlot.html" target="_top" xlink:title=" ">
<polygon fill="none" stroke="black" points="260,-142.5 260,-172.5 433,-172.5 433,-142.5 260,-142.5"/>
<text text-anchor="start" x="268" y="-160.5" font-family="Helvetica,sans-Serif" font-size="10.00">aopp_deconv_tool.graphical</text>
<text text-anchor="middle" x="346.5" y="-149.5" font-family="Helvetica,sans-Serif" font-size="10.00">_frontends.ssa_filtering.LinePlot</text>
</a>
</g>
</g>
<!-- Node23&#45;&gt;Node25 -->
<g id="edge3" class="edge">
<title>Node23&#45;&gt;Node25</title>
<path fill="none" stroke="midnightblue" d="M200.44,-157.5C220.14,-157.5 240.7,-157.5 259.93,-157.5"/>
<polygon fill="midnightblue" stroke="midnightblue" points="200.23,-154 190.23,-157.5 200.23,-161 200.23,-154"/>
</g>
<!-- Node26 -->
<g id="node6" class="node">
<title>Node26</title>
<g id="a_node6"><a xlink:href="d3/d42/classaopp__deconv__tool_1_1graphical__frontends_1_1ssa__filtering_1_1CallbackMixin.html" target="_top" xlink:title=" ">
<polygon fill="none" stroke="black" points="0,-93.5 0,-123.5 203,-123.5 203,-93.5 0,-93.5"/>
<text text-anchor="start" x="8" y="-111.5" font-family="Helvetica,sans-Serif" font-size="10.00">aopp_deconv_tool.graphical</text>
<text text-anchor="middle" x="101.5" y="-100.5" font-family="Helvetica,sans-Serif" font-size="10.00">_frontends.ssa_filtering.CallbackMixin</text>
</a>
</g>
</g>
<!-- Node26&#45;&gt;Node1 -->
<g id="edge10" class="edge">
<title>Node26&#45;&gt;Node1</title>
<path fill="none" stroke="midnightblue" d="M193.29,-127.78C196.65,-129.52 199.91,-131.43 203,-133.5 225.45,-148.55 216.39,-167.7 239,-182.5 244.23,-185.92 249.89,-188.87 255.77,-191.39"/>
<polygon fill="midnightblue" stroke="midnightblue" points="194.7,-124.58 184.16,-123.52 191.74,-130.92 194.7,-124.58"/>
</g>
<!-- Node26&#45;&gt;Node24 -->
<g id="edge5" class="edge">
<title>Node26&#45;&gt;Node24</title>
<path fill="none" stroke="midnightblue" d="M213.49,-108.5C227.16,-108.5 241,-108.5 254.32,-108.5"/>
<polygon fill="midnightblue" stroke="midnightblue" points="213.09,-105 203.09,-108.5 213.09,-112 213.09,-105"/>
</g>
<!-- Node26&#45;&gt;Node25 -->
<g id="edge9" class="edge">
<title>Node26&#45;&gt;Node25</title>
<path fill="none" stroke="midnightblue" d="M187,-125.54C214.37,-131.06 244.5,-137.13 271.08,-142.49"/>
<polygon fill="midnightblue" stroke="midnightblue" points="187.55,-122.08 177.06,-123.53 186.17,-128.94 187.55,-122.08"/>
</g>
<!-- Node27 -->
<g id="node7" class="node">
<title>Node27</title>
<g id="a_node7"><a xlink:href="d8/dd5/classaopp__deconv__tool_1_1graphical__frontends_1_1ssa__filtering_1_1ImageAggregator.html" target="_top" xlink:title=" ">
<polygon fill="none" stroke="black" points="490,-0.5 490,-30.5 709,-30.5 709,-0.5 490,-0.5"/>
<text text-anchor="start" x="498" y="-18.5" font-family="Helvetica,sans-Serif" font-size="10.00">aopp_deconv_tool.graphical</text>
<text text-anchor="middle" x="599.5" y="-7.5" font-family="Helvetica,sans-Serif" font-size="10.00">_frontends.ssa_filtering.ImageAggregator</text>
</a>
</g>
</g>
<!-- Node26&#45;&gt;Node27 -->
<g id="edge4" class="edge">
<title>Node26&#45;&gt;Node27</title>
<path fill="none" stroke="midnightblue" d="M131.92,-87.86C158.53,-70.42 199.48,-46.58 239,-35.5 321.01,-12.51 417.56,-8.33 489.94,-9.44"/>
<polygon fill="midnightblue" stroke="midnightblue" points="129.85,-85.03 123.47,-93.5 133.73,-90.86 129.85,-85.03"/>
</g>
<!-- Node28 -->
<g id="node8" class="node">
<title>Node28</title>
<g id="a_node8"><a xlink:href="d6/d1d/classaopp__deconv__tool_1_1graphical__frontends_1_1ssa__filtering_1_1ImageViewer.html" target="_top" xlink:title=" ">
<polygon fill="none" stroke="black" points="247,-44.5 247,-74.5 446,-74.5 446,-44.5 247,-44.5"/>
<text text-anchor="start" x="255" y="-62.5" font-family="Helvetica,sans-Serif" font-size="10.00">aopp_deconv_tool.graphical</text>
<text text-anchor="middle" x="346.5" y="-51.5" font-family="Helvetica,sans-Serif" font-size="10.00">_frontends.ssa_filtering.ImageViewer</text>
</a>
</g>
</g>
<!-- Node26&#45;&gt;Node28 -->
<g id="edge6" class="edge">
<title>Node26&#45;&gt;Node28</title>
<path fill="none" stroke="midnightblue" d="M187,-91.46C214.37,-85.94 244.5,-79.87 271.08,-74.51"/>
<polygon fill="midnightblue" stroke="midnightblue" points="186.17,-88.06 177.06,-93.47 187.55,-94.92 186.17,-88.06"/>
</g>
<!-- Node28&#45;&gt;Node27 -->
<g id="edge7" class="edge">
<title>Node28&#45;&gt;Node27</title>
<path fill="none" stroke="midnightblue" d="M443.23,-42.72C466.11,-38.71 490.39,-34.45 512.78,-30.53"/>
<polygon fill="midnightblue" stroke="midnightblue" points="442.42,-39.31 433.18,-44.48 443.63,-46.2 442.42,-39.31"/>
</g>
<!-- Node29 -->
<g id="node9" class="node">
<title>Node29</title>
<g id="a_node9"><a xlink:href="dd/df6/classaopp__deconv__tool_1_1graphical__frontends_1_1ssa__filtering_1_1ResidualViewer.html" target="_top" xlink:title=" ">
<polygon fill="none" stroke="black" points="511.5,-50 511.5,-91 687.5,-91 687.5,-50 511.5,-50"/>
<text text-anchor="start" x="519.5" y="-79" font-family="Helvetica,sans-Serif" font-size="10.00">aopp_deconv_tool.graphical</text>
<text text-anchor="start" x="519.5" y="-68" font-family="Helvetica,sans-Serif" font-size="10.00">_frontends.ssa_filtering.Residual</text>
<text text-anchor="middle" x="599.5" y="-57" font-family="Helvetica,sans-Serif" font-size="10.00">Viewer</text>
</a>
</g>
</g>
<!-- Node28&#45;&gt;Node29 -->
<g id="edge8" class="edge">
<title>Node28&#45;&gt;Node29</title>
<path fill="none" stroke="midnightblue" d="M456.44,-64.27C474.73,-65.08 493.5,-65.9 511.15,-66.67"/>
<polygon fill="midnightblue" stroke="midnightblue" points="456.49,-60.77 446.34,-63.83 456.18,-67.77 456.49,-60.77"/>
</g>
</g>
</svg>
