<?xml version="1.0" encoding="UTF-8" standalone="no"?>
<!DOCTYPE svg PUBLIC "-//W3C//DTD SVG 1.1//EN"
 "http://www.w3.org/Graphics/SVG/1.1/DTD/svg11.dtd">
<!-- Generated by graphviz version 2.43.0 (0)
 -->
<!-- Title: aopp_deconv_tool.geometry.shape.GeoShape Pages: 1 -->
<svg width="647pt" height="88pt"
 viewBox="0.00 0.00 647.00 88.00" xmlns="http://www.w3.org/2000/svg" xmlns:xlink="http://www.w3.org/1999/xlink">
<g id="graph0" class="graph" transform="scale(1 1) rotate(0) translate(4 84)">
<title>aopp_deconv_tool.geometry.shape.GeoShape</title>
<!-- Node1 -->
<g id="node1" class="node">
<title>Node1</title>
<g id="a_node1"><a xlink:title=" ">
<polygon fill="#bfbfbf" stroke="black" points="0,-24.5 0,-54.5 189,-54.5 189,-24.5 0,-24.5"/>
<text text-anchor="start" x="8" y="-42.5" font-family="Helvetica,sans-Serif" font-size="10.00">aopp_deconv_tool.geometry.shape.</text>
<text text-anchor="middle" x="94.5" y="-31.5" font-family="Helvetica,sans-Serif" font-size="10.00">GeoShape</text>
</a>
</g>
</g>
<!-- Node2 -->
<g id="node2" class="node">
<title>Node2</title>
<g id="a_node2"><a xlink:href="../../d4/d1b/classaopp__deconv__tool_1_1geometry_1_1shape_1_1CompoundShape.html" target="_top" xlink:title=" ">
<polygon fill="none" stroke="black" points="225,-49.5 225,-79.5 414,-79.5 414,-49.5 225,-49.5"/>
<text text-anchor="start" x="233" y="-67.5" font-family="Helvetica,sans-Serif" font-size="10.00">aopp_deconv_tool.geometry.shape.</text>
<text text-anchor="middle" x="319.5" y="-56.5" font-family="Helvetica,sans-Serif" font-size="10.00">CompoundShape</text>
</a>
</g>
</g>
<!-- Node1&#45;&gt;Node2 -->
<g id="edge1" class="edge">
<title>Node1&#45;&gt;Node2</title>
<path fill="none" stroke="midnightblue" d="M199.11,-51.12C207.67,-52.08 216.3,-53.04 224.78,-53.99"/>
<polygon fill="midnightblue" stroke="midnightblue" points="199.43,-47.63 189.1,-49.99 198.65,-54.59 199.43,-47.63"/>
</g>
<!-- Node3 -->
<g id="node3" class="node">
<title>Node3</title>
<g id="a_node3"><a xlink:href="../../dc/dde/classaopp__deconv__tool_1_1geometry_1_1shape_1_1PolyShape.html" target="_top" xlink:title=" ">
<polygon fill="none" stroke="black" points="225,-0.5 225,-30.5 414,-30.5 414,-0.5 225,-0.5"/>
<text text-anchor="start" x="233" y="-18.5" font-family="Helvetica,sans-Serif" font-size="10.00">aopp_deconv_tool.geometry.shape.</text>
<text text-anchor="middle" x="319.5" y="-7.5" font-family="Helvetica,sans-Serif" font-size="10.00">PolyShape</text>
</a>
</g>
</g>
<!-- Node1&#45;&gt;Node3 -->
<g id="edge2" class="edge">
<title>Node1&#45;&gt;Node3</title>
<path fill="none" stroke="midnightblue" d="M199.11,-28.35C207.67,-27.43 216.3,-26.5 224.78,-25.59"/>
<polygon fill="midnightblue" stroke="midnightblue" points="198.67,-24.88 189.1,-29.43 199.42,-31.84 198.67,-24.88"/>
</g>
<!-- Node4 -->
<g id="node4" class="node">
<title>Node4</title>
<g id="a_node4"><a xlink:href="../../d4/d36/classaopp__deconv__tool_1_1geometry_1_1shape_1_1Circle.html" target="_top" xlink:title=" ">
<polygon fill="none" stroke="black" points="450,-0.5 450,-30.5 639,-30.5 639,-0.5 450,-0.5"/>
<text text-anchor="start" x="458" y="-18.5" font-family="Helvetica,sans-Serif" font-size="10.00">aopp_deconv_tool.geometry.shape.</text>
<text text-anchor="middle" x="544.5" y="-7.5" font-family="Helvetica,sans-Serif" font-size="10.00">Circle</text>
</a>
</g>
</g>
<!-- Node3&#45;&gt;Node4 -->
<g id="edge3" class="edge">
<title>Node3&#45;&gt;Node4</title>
<path fill="none" stroke="midnightblue" d="M424.11,-15.5C432.67,-15.5 441.3,-15.5 449.78,-15.5"/>
<polygon fill="midnightblue" stroke="midnightblue" points="424.1,-12 414.1,-15.5 424.1,-19 424.1,-12"/>
</g>
</g>
</svg>
