<?xml version="1.0" encoding="UTF-8" standalone="no"?>
<!DOCTYPE svg PUBLIC "-//W3C//DTD SVG 1.1//EN"
 "http://www.w3.org/Graphics/SVG/1.1/DTD/svg11.dtd">
<!-- Generated by graphviz version 2.43.0 (0)
 -->
<!-- Title: aopp_deconv_tool.geometry.shape.GeoShape Pages: 1 -->
<svg width="647pt" height="86pt"
 viewBox="0.00 0.00 647.00 86.00" xmlns="http://www.w3.org/2000/svg" xmlns:xlink="http://www.w3.org/1999/xlink">
<g id="graph0" class="graph" transform="scale(1 1) rotate(0) translate(4 82)">
<title>aopp_deconv_tool.geometry.shape.GeoShape</title>
<!-- Node1 -->
<g id="Node000001" class="node">
<title>Node1</title>
<g id="a_Node000001"><a xlink:title=" ">
<polygon fill="#999999" stroke="#666666" points="189,-54 0,-54 0,-24 189,-24 189,-54"/>
<text text-anchor="start" x="8" y="-42" font-family="Helvetica,sans-Serif" font-size="10.00">aopp_deconv_tool.geometry.shape.</text>
<text text-anchor="middle" x="94.5" y="-31" font-family="Helvetica,sans-Serif" font-size="10.00">GeoShape</text>
</a>
</g>
</g>
<!-- Node2 -->
<g id="Node000002" class="node">
<title>Node2</title>
<g id="a_Node000002"><a xlink:href="../../d4/d1b/classaopp__deconv__tool_1_1geometry_1_1shape_1_1CompoundShape.html" target="_top" xlink:title=" ">
<polygon fill="white" stroke="#666666" points="414,-78 225,-78 225,-48 414,-48 414,-78"/>
<text text-anchor="start" x="233" y="-66" font-family="Helvetica,sans-Serif" font-size="10.00">aopp_deconv_tool.geometry.shape.</text>
<text text-anchor="middle" x="319.5" y="-55" font-family="Helvetica,sans-Serif" font-size="10.00">CompoundShape</text>
</a>
</g>
</g>
<!-- Node1&#45;&gt;Node2 -->
<g id="edge1_Node000001_Node000002" class="edge">
<title>Node1&#45;&gt;Node2</title>
<g id="a_edge1_Node000001_Node000002"><a xlink:title=" ">
<path fill="none" stroke="#63b8ff" d="M199.11,-50.15C207.67,-51.07 216.3,-52 224.78,-52.91"/>
<polygon fill="#63b8ff" stroke="#63b8ff" points="199.42,-46.66 189.1,-49.07 198.67,-53.62 199.42,-46.66"/>
</a>
</g>
</g>
<!-- Node3 -->
<g id="Node000003" class="node">
<title>Node3</title>
<g id="a_Node000003"><a xlink:href="../../dc/dde/classaopp__deconv__tool_1_1geometry_1_1shape_1_1PolyShape.html" target="_top" xlink:title=" ">
<polygon fill="white" stroke="#666666" points="414,-30 225,-30 225,0 414,0 414,-30"/>
<text text-anchor="start" x="233" y="-18" font-family="Helvetica,sans-Serif" font-size="10.00">aopp_deconv_tool.geometry.shape.</text>
<text text-anchor="middle" x="319.5" y="-7" font-family="Helvetica,sans-Serif" font-size="10.00">PolyShape</text>
</a>
</g>
</g>
<!-- Node1&#45;&gt;Node3 -->
<g id="edge2_Node000001_Node000003" class="edge">
<title>Node1&#45;&gt;Node3</title>
<g id="a_edge2_Node000001_Node000003"><a xlink:title=" ">
<path fill="none" stroke="#63b8ff" d="M199.11,-27.85C207.67,-26.93 216.3,-26 224.78,-25.09"/>
<polygon fill="#63b8ff" stroke="#63b8ff" points="198.67,-24.38 189.1,-28.93 199.42,-31.34 198.67,-24.38"/>
</a>
</g>
</g>
<!-- Node4 -->
<g id="Node000004" class="node">
<title>Node4</title>
<g id="a_Node000004"><a xlink:href="../../d4/d36/classaopp__deconv__tool_1_1geometry_1_1shape_1_1Circle.html" target="_top" xlink:title=" ">
<polygon fill="white" stroke="#666666" points="639,-30 450,-30 450,0 639,0 639,-30"/>
<text text-anchor="start" x="458" y="-18" font-family="Helvetica,sans-Serif" font-size="10.00">aopp_deconv_tool.geometry.shape.</text>
<text text-anchor="middle" x="544.5" y="-7" font-family="Helvetica,sans-Serif" font-size="10.00">Circle</text>
</a>
</g>
</g>
<!-- Node3&#45;&gt;Node4 -->
<g id="edge3_Node000003_Node000004" class="edge">
<title>Node3&#45;&gt;Node4</title>
<g id="a_edge3_Node000003_Node000004"><a xlink:title=" ">
<path fill="none" stroke="#63b8ff" d="M424.11,-15C432.67,-15 441.3,-15 449.78,-15"/>
<polygon fill="#63b8ff" stroke="#63b8ff" points="424.1,-11.5 414.1,-15 424.1,-18.5 424.1,-11.5"/>
</a>
</g>
</g>
</g>
</svg>
