<?xml version="1.0" encoding="UTF-8" standalone="no"?>
<!DOCTYPE svg PUBLIC "-//W3C//DTD SVG 1.1//EN"
 "http://www.w3.org/Graphics/SVG/1.1/DTD/svg11.dtd">
<!-- Generated by graphviz version 2.43.0 (0)
 -->
<!-- Title: aopp_deconv_tool.fit_psf_model.parse_args Pages: 1 -->
<svg width="547pt" height="214pt"
 viewBox="0.00 0.00 547.00 213.50" xmlns="http://www.w3.org/2000/svg" xmlns:xlink="http://www.w3.org/1999/xlink">
<g id="graph0" class="graph" transform="scale(1 1) rotate(0) translate(4 209.5)">
<title>aopp_deconv_tool.fit_psf_model.parse_args</title>
<!-- Node1 -->
<g id="node1" class="node">
<title>Node1</title>
<g id="a_node1"><a xlink:title=" ">
<polygon fill="#bfbfbf" stroke="black" points="0,-79.5 0,-109.5 129,-109.5 129,-79.5 0,-79.5"/>
<text text-anchor="start" x="8" y="-97.5" font-family="Helvetica,sans-Serif" font-size="10.00">aopp_deconv_tool.fit</text>
<text text-anchor="middle" x="64.5" y="-86.5" font-family="Helvetica,sans-Serif" font-size="10.00">_psf_model.parse_args</text>
</a>
</g>
</g>
<!-- Node2 -->
<g id="node2" class="node">
<title>Node2</title>
<g id="a_node2"><a xlink:href="../../dc/dc5/namespaceaopp__deconv__tool_1_1fit__psf__model.html#a10be6b099de8289f0bc8e17d4570f728" target="_top" xlink:title=" ">
<polygon fill="none" stroke="black" points="173.5,-164 173.5,-205 321.5,-205 321.5,-164 173.5,-164"/>
<text text-anchor="start" x="181.5" y="-193" font-family="Helvetica,sans-Serif" font-size="10.00">aopp_deconv_tool.fit</text>
<text text-anchor="start" x="181.5" y="-182" font-family="Helvetica,sans-Serif" font-size="10.00">_psf_model.get_psf_model</text>
<text text-anchor="middle" x="247.5" y="-171" font-family="Helvetica,sans-Serif" font-size="10.00">_dependency_injector</text>
</a>
</g>
</g>
<!-- Node1&#45;&gt;Node2 -->
<g id="edge1" class="edge">
<title>Node1&#45;&gt;Node2</title>
<path fill="none" stroke="midnightblue" d="M87.74,-109.59C107.46,-122.56 137.36,-141.23 165,-154.5 168.82,-156.34 172.79,-158.13 176.82,-159.87"/>
<polygon fill="midnightblue" stroke="midnightblue" points="175.74,-163.21 186.31,-163.83 178.43,-156.75 175.74,-163.21"/>
</g>
<!-- Node3 -->
<g id="node3" class="node">
<title>Node3</title>
<g id="a_node3"><a xlink:href="../../dc/dc5/namespaceaopp__deconv__tool_1_1fit__psf__model.html#a774ed440155b8dc83b5fb882f7ce8956" target="_top" xlink:title=" ">
<polygon fill="none" stroke="black" points="174,-104 174,-145 321,-145 321,-104 174,-104"/>
<text text-anchor="start" x="182" y="-133" font-family="Helvetica,sans-Serif" font-size="10.00">aopp_deconv_tool.fit</text>
<text text-anchor="start" x="182" y="-122" font-family="Helvetica,sans-Serif" font-size="10.00">_psf_model.set_psf_model</text>
<text text-anchor="middle" x="247.5" y="-111" font-family="Helvetica,sans-Serif" font-size="10.00">_dependency_injector</text>
</a>
</g>
</g>
<!-- Node1&#45;&gt;Node3 -->
<g id="edge2" class="edge">
<title>Node1&#45;&gt;Node3</title>
<path fill="none" stroke="midnightblue" d="M129.06,-105.03C140.25,-106.89 152.04,-108.84 163.66,-110.77"/>
<polygon fill="midnightblue" stroke="midnightblue" points="163.37,-114.27 173.81,-112.45 164.52,-107.36 163.37,-114.27"/>
</g>
<!-- Node4 -->
<g id="node4" class="node">
<title>Node4</title>
<g id="a_node4"><a xlink:href="../../dc/dc5/namespaceaopp__deconv__tool_1_1fit__psf__model.html#ac109592a0c27513206fa61f31b27a5e6" target="_top" xlink:title=" ">
<polygon fill="none" stroke="black" points="165,-44 165,-85 330,-85 330,-44 165,-44"/>
<text text-anchor="start" x="173" y="-73" font-family="Helvetica,sans-Serif" font-size="10.00">aopp_deconv_tool.fit</text>
<text text-anchor="start" x="173" y="-62" font-family="Helvetica,sans-Serif" font-size="10.00">_psf_model.set_psf_model</text>
<text text-anchor="middle" x="247.5" y="-51" font-family="Helvetica,sans-Serif" font-size="10.00">_dependency_injector_params</text>
</a>
</g>
</g>
<!-- Node1&#45;&gt;Node4 -->
<g id="edge3" class="edge">
<title>Node1&#45;&gt;Node4</title>
<path fill="none" stroke="midnightblue" d="M129.06,-83.97C137.5,-82.57 146.28,-81.11 155.07,-79.65"/>
<polygon fill="midnightblue" stroke="midnightblue" points="155.69,-83.1 164.98,-78.01 154.55,-76.19 155.69,-83.1"/>
</g>
<!-- Node5 -->
<g id="node5" class="node">
<title>Node5</title>
<g id="a_node5"><a xlink:href="../../d8/d5b/namespaceaopp__deconv__tool_1_1text.html#ae13da0dd246571ccd435ba5f64904bfe" target="_top" xlink:title=" ">
<polygon fill="none" stroke="black" points="170,-6 170,-25 325,-25 325,-6 170,-6"/>
<text text-anchor="middle" x="247.5" y="-13" font-family="Helvetica,sans-Serif" font-size="10.00">aopp_deconv_tool.text.wrap</text>
</a>
</g>
</g>
<!-- Node1&#45;&gt;Node5 -->
<g id="edge4" class="edge">
<title>Node1&#45;&gt;Node5</title>
<path fill="none" stroke="midnightblue" d="M86.22,-79.35C105.67,-65.78 136.03,-46.27 165,-34.5 171.24,-31.97 177.89,-29.73 184.6,-27.76"/>
<polygon fill="midnightblue" stroke="midnightblue" points="185.72,-31.08 194.44,-25.06 183.87,-24.33 185.72,-31.08"/>
</g>
<!-- Node6 -->
<g id="node6" class="node">
<title>Node6</title>
<g id="a_node6"><a xlink:href="../../d8/d5b/namespaceaopp__deconv__tool_1_1text.html#a5b208e43cdecac49460b4ced231aa4a6" target="_top" xlink:title=" ">
<polygon fill="none" stroke="black" points="366,-0.5 366,-30.5 539,-30.5 539,-0.5 366,-0.5"/>
<text text-anchor="start" x="374" y="-18.5" font-family="Helvetica,sans-Serif" font-size="10.00">aopp_deconv_tool.text.combine</text>
<text text-anchor="middle" x="452.5" y="-7.5" font-family="Helvetica,sans-Serif" font-size="10.00">_lines_with_same_indent</text>
</a>
</g>
</g>
<!-- Node5&#45;&gt;Node6 -->
<g id="edge5" class="edge">
<title>Node5&#45;&gt;Node6</title>
<path fill="none" stroke="midnightblue" d="M325.25,-15.5C335.18,-15.5 345.46,-15.5 355.65,-15.5"/>
<polygon fill="midnightblue" stroke="midnightblue" points="355.81,-19 365.81,-15.5 355.81,-12 355.81,-19"/>
</g>
</g>
</svg>
