<?xml version="1.0" encoding="UTF-8" standalone="no"?>
<!DOCTYPE svg PUBLIC "-//W3C//DTD SVG 1.1//EN"
 "http://www.w3.org/Graphics/SVG/1.1/DTD/svg11.dtd">
<!-- Generated by graphviz version 2.43.0 (0)
 -->
<!-- Title: aopp_deconv_tool.fit_psf_model.exec_with_args Pages: 1 -->
<svg width="749pt" height="378pt"
 viewBox="0.00 0.00 749.00 377.50" xmlns="http://www.w3.org/2000/svg" xmlns:xlink="http://www.w3.org/1999/xlink">
<g id="graph0" class="graph" transform="scale(1 1) rotate(0) translate(4 373.5)">
<title>aopp_deconv_tool.fit_psf_model.exec_with_args</title>
<!-- Node1 -->
<g id="node1" class="node">
<title>Node1</title>
<g id="a_node1"><a xlink:title=" ">
<polygon fill="#bfbfbf" stroke="black" points="0,-169.5 0,-199.5 152,-199.5 152,-169.5 0,-169.5"/>
<text text-anchor="start" x="8" y="-187.5" font-family="Helvetica,sans-Serif" font-size="10.00">aopp_deconv_tool.fit</text>
<text text-anchor="middle" x="76" y="-176.5" font-family="Helvetica,sans-Serif" font-size="10.00">_psf_model.exec_with_args</text>
</a>
</g>
</g>
<!-- Node2 -->
<g id="node2" class="node">
<title>Node2</title>
<g id="a_node2"><a xlink:href="../../dc/dc5/namespaceaopp__deconv__tool_1_1fit__psf__model.html#a2ff26f2f657884f9deaa3e1e84e508b6" target="_top" xlink:title=" ">
<polygon fill="none" stroke="black" points="188,-224.5 188,-254.5 317,-254.5 317,-224.5 188,-224.5"/>
<text text-anchor="start" x="196" y="-242.5" font-family="Helvetica,sans-Serif" font-size="10.00">aopp_deconv_tool.fit</text>
<text text-anchor="middle" x="252.5" y="-231.5" font-family="Helvetica,sans-Serif" font-size="10.00">_psf_model.parse_args</text>
</a>
</g>
</g>
<!-- Node1&#45;&gt;Node2 -->
<g id="edge1" class="edge">
<title>Node1&#45;&gt;Node2</title>
<path fill="none" stroke="midnightblue" d="M124.68,-199.53C146.13,-206.29 171.63,-214.32 194.11,-221.41"/>
<polygon fill="midnightblue" stroke="midnightblue" points="193.29,-224.82 203.87,-224.49 195.39,-218.14 193.29,-224.82"/>
</g>
<!-- Node8 -->
<g id="node8" class="node">
<title>Node8</title>
<g id="a_node8"><a xlink:href="../../dc/dc5/namespaceaopp__deconv__tool_1_1fit__psf__model.html#aeda2cf279f7cb31cc7f2f803f360eb48" target="_top" xlink:title=" ">
<polygon fill="none" stroke="black" points="193,-115.5 193,-145.5 312,-145.5 312,-115.5 193,-115.5"/>
<text text-anchor="start" x="201" y="-133.5" font-family="Helvetica,sans-Serif" font-size="10.00">aopp_deconv_tool.fit</text>
<text text-anchor="middle" x="252.5" y="-122.5" font-family="Helvetica,sans-Serif" font-size="10.00">_psf_model.run</text>
</a>
</g>
</g>
<!-- Node1&#45;&gt;Node8 -->
<g id="edge7" class="edge">
<title>Node1&#45;&gt;Node8</title>
<path fill="none" stroke="midnightblue" d="M125.61,-169.46C146.51,-162.99 171.12,-155.37 193.01,-148.6"/>
<polygon fill="midnightblue" stroke="midnightblue" points="194.33,-151.85 202.85,-145.55 192.26,-145.17 194.33,-151.85"/>
</g>
<!-- Node3 -->
<g id="node3" class="node">
<title>Node3</title>
<g id="a_node3"><a xlink:href="../../dc/dc5/namespaceaopp__deconv__tool_1_1fit__psf__model.html#a10be6b099de8289f0bc8e17d4570f728" target="_top" xlink:title=" ">
<polygon fill="none" stroke="black" points="368.5,-328 368.5,-369 516.5,-369 516.5,-328 368.5,-328"/>
<text text-anchor="start" x="376.5" y="-357" font-family="Helvetica,sans-Serif" font-size="10.00">aopp_deconv_tool.fit</text>
<text text-anchor="start" x="376.5" y="-346" font-family="Helvetica,sans-Serif" font-size="10.00">_psf_model.get_psf_model</text>
<text text-anchor="middle" x="442.5" y="-335" font-family="Helvetica,sans-Serif" font-size="10.00">_dependency_injector</text>
</a>
</g>
</g>
<!-- Node2&#45;&gt;Node3 -->
<g id="edge2" class="edge">
<title>Node2&#45;&gt;Node3</title>
<path fill="none" stroke="midnightblue" d="M269.15,-254.8C287.78,-272.29 320.46,-300.77 353,-318.5 356.43,-320.37 359.99,-322.15 363.64,-323.85"/>
<polygon fill="midnightblue" stroke="midnightblue" points="362.28,-327.07 372.84,-327.88 365.09,-320.66 362.28,-327.07"/>
</g>
<!-- Node4 -->
<g id="node4" class="node">
<title>Node4</title>
<g id="a_node4"><a xlink:href="../../dc/dc5/namespaceaopp__deconv__tool_1_1fit__psf__model.html#a774ed440155b8dc83b5fb882f7ce8956" target="_top" xlink:title=" ">
<polygon fill="none" stroke="black" points="369,-268 369,-309 516,-309 516,-268 369,-268"/>
<text text-anchor="start" x="377" y="-297" font-family="Helvetica,sans-Serif" font-size="10.00">aopp_deconv_tool.fit</text>
<text text-anchor="start" x="377" y="-286" font-family="Helvetica,sans-Serif" font-size="10.00">_psf_model.set_psf_model</text>
<text text-anchor="middle" x="442.5" y="-275" font-family="Helvetica,sans-Serif" font-size="10.00">_dependency_injector</text>
</a>
</g>
</g>
<!-- Node2&#45;&gt;Node4 -->
<g id="edge3" class="edge">
<title>Node2&#45;&gt;Node4</title>
<path fill="none" stroke="midnightblue" d="M311.18,-254.53C326.29,-258.47 342.87,-262.79 359,-267"/>
<polygon fill="midnightblue" stroke="midnightblue" points="358.41,-270.46 368.97,-269.59 360.17,-263.69 358.41,-270.46"/>
</g>
<!-- Node5 -->
<g id="node5" class="node">
<title>Node5</title>
<g id="a_node5"><a xlink:href="../../dc/dc5/namespaceaopp__deconv__tool_1_1fit__psf__model.html#ac109592a0c27513206fa61f31b27a5e6" target="_top" xlink:title=" ">
<polygon fill="none" stroke="black" points="360,-170 360,-211 525,-211 525,-170 360,-170"/>
<text text-anchor="start" x="368" y="-199" font-family="Helvetica,sans-Serif" font-size="10.00">aopp_deconv_tool.fit</text>
<text text-anchor="start" x="368" y="-188" font-family="Helvetica,sans-Serif" font-size="10.00">_psf_model.set_psf_model</text>
<text text-anchor="middle" x="442.5" y="-177" font-family="Helvetica,sans-Serif" font-size="10.00">_dependency_injector_params</text>
</a>
</g>
</g>
<!-- Node2&#45;&gt;Node5 -->
<g id="edge4" class="edge">
<title>Node2&#45;&gt;Node5</title>
<path fill="none" stroke="midnightblue" d="M311.18,-224.47C324.43,-221.01 338.81,-217.27 353.02,-213.56"/>
<polygon fill="midnightblue" stroke="midnightblue" points="354.02,-216.92 362.81,-211.01 352.25,-210.15 354.02,-216.92"/>
</g>
<!-- Node6 -->
<g id="node6" class="node">
<title>Node6</title>
<g id="a_node6"><a xlink:href="../../d8/d5b/namespaceaopp__deconv__tool_1_1text.html#ae13da0dd246571ccd435ba5f64904bfe" target="_top" xlink:title=" ">
<polygon fill="none" stroke="black" points="365,-230 365,-249 520,-249 520,-230 365,-230"/>
<text text-anchor="middle" x="442.5" y="-237" font-family="Helvetica,sans-Serif" font-size="10.00">aopp_deconv_tool.text.wrap</text>
</a>
</g>
</g>
<!-- Node2&#45;&gt;Node6 -->
<g id="edge5" class="edge">
<title>Node2&#45;&gt;Node6</title>
<path fill="none" stroke="midnightblue" d="M317.15,-239.5C329.25,-239.5 342.11,-239.5 354.79,-239.5"/>
<polygon fill="midnightblue" stroke="midnightblue" points="354.9,-243 364.9,-239.5 354.9,-236 354.9,-243"/>
</g>
<!-- Node7 -->
<g id="node7" class="node">
<title>Node7</title>
<g id="a_node7"><a xlink:href="../../d8/d5b/namespaceaopp__deconv__tool_1_1text.html#a5b208e43cdecac49460b4ced231aa4a6" target="_top" xlink:title=" ">
<polygon fill="none" stroke="black" points="568,-224.5 568,-254.5 741,-254.5 741,-224.5 568,-224.5"/>
<text text-anchor="start" x="576" y="-242.5" font-family="Helvetica,sans-Serif" font-size="10.00">aopp_deconv_tool.text.combine</text>
<text text-anchor="middle" x="654.5" y="-231.5" font-family="Helvetica,sans-Serif" font-size="10.00">_lines_with_same_indent</text>
</a>
</g>
</g>
<!-- Node6&#45;&gt;Node7 -->
<g id="edge6" class="edge">
<title>Node6&#45;&gt;Node7</title>
<path fill="none" stroke="midnightblue" d="M520.21,-239.5C532.41,-239.5 545.16,-239.5 557.74,-239.5"/>
<polygon fill="midnightblue" stroke="midnightblue" points="557.78,-243 567.77,-239.5 557.77,-236 557.78,-243"/>
</g>
<!-- Node8&#45;&gt;Node5 -->
<g id="edge12" class="edge">
<title>Node8&#45;&gt;Node5</title>
<path fill="none" stroke="midnightblue" d="M300.94,-145.64C321.03,-152.05 344.91,-159.67 367.24,-166.8"/>
<polygon fill="midnightblue" stroke="midnightblue" points="366.44,-170.22 377.03,-169.92 368.57,-163.55 366.44,-170.22"/>
</g>
<!-- Node9 -->
<g id="node9" class="node">
<title>Node9</title>
<g id="a_node9"><a xlink:href="../../d1/d0d/namespaceaopp__deconv__tool_1_1optimise__compat_1_1ultranest__compat.html#a41eac4baa2f2a3934983adcee045b072" target="_top" xlink:title=" ">
<polygon fill="none" stroke="black" points="353,-110 353,-151 532,-151 532,-110 353,-110"/>
<text text-anchor="start" x="361" y="-139" font-family="Helvetica,sans-Serif" font-size="10.00">aopp_deconv_tool.optimise</text>
<text text-anchor="start" x="361" y="-128" font-family="Helvetica,sans-Serif" font-size="10.00">_compat.ultranest_compat.fitting</text>
<text text-anchor="middle" x="442.5" y="-117" font-family="Helvetica,sans-Serif" font-size="10.00">_function_factory</text>
</a>
</g>
</g>
<!-- Node8&#45;&gt;Node9 -->
<g id="edge8" class="edge">
<title>Node8&#45;&gt;Node9</title>
<path fill="none" stroke="midnightblue" d="M312.21,-130.5C322.01,-130.5 332.4,-130.5 342.88,-130.5"/>
<polygon fill="midnightblue" stroke="midnightblue" points="342.92,-134 352.92,-130.5 342.92,-127 342.92,-134"/>
</g>
<!-- Node10 -->
<g id="node10" class="node">
<title>Node10</title>
<g id="a_node10"><a xlink:href="../../dc/dc5/namespaceaopp__deconv__tool_1_1fit__psf__model.html#a6b4604cf8f0fef48a3f722dd8d60ff78" target="_top" xlink:title=" ">
<polygon fill="none" stroke="black" points="363,-50 363,-91 522,-91 522,-50 363,-50"/>
<text text-anchor="start" x="371" y="-79" font-family="Helvetica,sans-Serif" font-size="10.00">aopp_deconv_tool.fit</text>
<text text-anchor="start" x="371" y="-68" font-family="Helvetica,sans-Serif" font-size="10.00">_psf_model.get_new_psf</text>
<text text-anchor="middle" x="442.5" y="-57" font-family="Helvetica,sans-Serif" font-size="10.00">_model_dependency_injector</text>
</a>
</g>
</g>
<!-- Node8&#45;&gt;Node10 -->
<g id="edge9" class="edge">
<title>Node8&#45;&gt;Node10</title>
<path fill="none" stroke="midnightblue" d="M300.94,-115.36C321.03,-108.95 344.91,-101.33 367.24,-94.2"/>
<polygon fill="midnightblue" stroke="midnightblue" points="368.57,-97.45 377.03,-91.08 366.44,-90.78 368.57,-97.45"/>
</g>
<!-- Node11 -->
<g id="node11" class="node">
<title>Node11</title>
<g id="a_node11"><a xlink:href="../../dc/dc5/namespaceaopp__deconv__tool_1_1fit__psf__model.html#a60e96d5e90494e5e63d1860dd3b3918c" target="_top" xlink:title=" ">
<polygon fill="none" stroke="black" points="378.5,-0.5 378.5,-30.5 506.5,-30.5 506.5,-0.5 378.5,-0.5"/>
<text text-anchor="start" x="386.5" y="-18.5" font-family="Helvetica,sans-Serif" font-size="10.00">aopp_deconv_tool.fit</text>
<text text-anchor="middle" x="442.5" y="-7.5" font-family="Helvetica,sans-Serif" font-size="10.00">_psf_model.plot_result</text>
</a>
</g>
</g>
<!-- Node8&#45;&gt;Node11 -->
<g id="edge10" class="edge">
<title>Node8&#45;&gt;Node11</title>
<path fill="none" stroke="midnightblue" d="M266.07,-115.44C283.55,-95.44 317.13,-60.34 353,-40.5 357.89,-37.79 363.1,-35.36 368.44,-33.18"/>
<polygon fill="midnightblue" stroke="midnightblue" points="370.05,-36.31 378.18,-29.51 367.59,-29.76 370.05,-36.31"/>
</g>
<!-- Node12 -->
<g id="node12" class="node">
<title>Node12</title>
<g id="a_node12"><a xlink:href="../../da/dfc/namespaceaopp__deconv__tool_1_1py__svd.html#a25823459e22f98cda9bd9a0b4cea09a1" target="_top" xlink:title=" ">
<polygon fill="none" stroke="black" points="594.5,-0.5 594.5,-30.5 714.5,-30.5 714.5,-0.5 594.5,-0.5"/>
<text text-anchor="start" x="602.5" y="-18.5" font-family="Helvetica,sans-Serif" font-size="10.00">aopp_deconv_tool.py</text>
<text text-anchor="middle" x="654.5" y="-7.5" font-family="Helvetica,sans-Serif" font-size="10.00">_svd.plot</text>
</a>
</g>
</g>
<!-- Node11&#45;&gt;Node12 -->
<g id="edge11" class="edge">
<title>Node11&#45;&gt;Node12</title>
<path fill="none" stroke="midnightblue" d="M506.51,-15.5C531.04,-15.5 559.22,-15.5 584.31,-15.5"/>
<polygon fill="midnightblue" stroke="midnightblue" points="584.49,-19 594.49,-15.5 584.49,-12 584.49,-19"/>
</g>
</g>
</svg>
