<?xml version="1.0" encoding="UTF-8" standalone="no"?>
<!DOCTYPE svg PUBLIC "-//W3C//DTD SVG 1.1//EN"
 "http://www.w3.org/Graphics/SVG/1.1/DTD/svg11.dtd">
<!-- Generated by graphviz version 2.43.0 (0)
 -->
<!-- Title: aopp_deconv_tool.fit_psf_model.set_psf_model_dependency_injector Pages: 1 -->
<svg width="661pt" height="62pt"
 viewBox="0.00 0.00 661.00 61.50" xmlns="http://www.w3.org/2000/svg" xmlns:xlink="http://www.w3.org/1999/xlink">
<g id="graph0" class="graph" transform="scale(1 1) rotate(0) translate(4 57.5)">
<title>aopp_deconv_tool.fit_psf_model.set_psf_model_dependency_injector</title>
<!-- Node1 -->
<g id="Node000001" class="node">
<title>Node1</title>
<g id="a_Node000001"><a xlink:title=" ">
<polygon fill="#999999" stroke="#666666" points="653,-41 506,-41 506,0 653,0 653,-41"/>
<text text-anchor="start" x="514" y="-29" font-family="Helvetica,sans-Serif" font-size="10.00">aopp_deconv_tool.fit</text>
<text text-anchor="start" x="514" y="-18" font-family="Helvetica,sans-Serif" font-size="10.00">_psf_model.set_psf_model</text>
<text text-anchor="middle" x="579.5" y="-7" font-family="Helvetica,sans-Serif" font-size="10.00">_dependency_injector</text>
</a>
</g>
</g>
<!-- Node2 -->
<g id="Node000002" class="node">
<title>Node2</title>
<g id="a_Node000002"><a xlink:href="../../dc/dc5/namespaceaopp__deconv__tool_1_1fit__psf__model.html#a87fd9094bb15e15471048a0ea76d6adc" target="_top" xlink:title=" ">
<polygon fill="white" stroke="#666666" points="470,-35.5 341,-35.5 341,-5.5 470,-5.5 470,-35.5"/>
<text text-anchor="start" x="349" y="-23.5" font-family="Helvetica,sans-Serif" font-size="10.00">aopp_deconv_tool.fit</text>
<text text-anchor="middle" x="405.5" y="-12.5" font-family="Helvetica,sans-Serif" font-size="10.00">_psf_model.parse_args</text>
</a>
</g>
</g>
<!-- Node1&#45;&gt;Node2 -->
<g id="edge1_Node000001_Node000002" class="edge">
<title>Node1&#45;&gt;Node2</title>
<g id="a_edge1_Node000001_Node000002"><a xlink:title=" ">
<path fill="none" stroke="#63b8ff" d="M495.53,-20.5C486.96,-20.5 478.35,-20.5 470.03,-20.5"/>
<polygon fill="#63b8ff" stroke="#63b8ff" points="495.56,-24 505.56,-20.5 495.56,-17 495.56,-24"/>
</a>
</g>
</g>
<!-- Node3 -->
<g id="Node000003" class="node">
<title>Node3</title>
<g id="a_Node000003"><a xlink:href="../../dc/dc5/namespaceaopp__deconv__tool_1_1fit__psf__model.html#a2c0d0ac24ff97340d04ba31dcb4b9c5f" target="_top" xlink:title=" ">
<polygon fill="white" stroke="#666666" points="305,-35.5 154,-35.5 154,-5.5 305,-5.5 305,-35.5"/>
<text text-anchor="start" x="162" y="-23.5" font-family="Helvetica,sans-Serif" font-size="10.00">aopp_deconv_tool.fit</text>
<text text-anchor="middle" x="229.5" y="-12.5" font-family="Helvetica,sans-Serif" font-size="10.00">_psf_model.exec_with_args</text>
</a>
</g>
</g>
<!-- Node2&#45;&gt;Node3 -->
<g id="edge2_Node000002_Node000003" class="edge">
<title>Node2&#45;&gt;Node3</title>
<g id="a_edge2_Node000002_Node000003"><a xlink:title=" ">
<path fill="none" stroke="#63b8ff" d="M330.56,-20.5C322.17,-20.5 313.61,-20.5 305.2,-20.5"/>
<polygon fill="#63b8ff" stroke="#63b8ff" points="330.7,-24 340.7,-20.5 330.7,-17 330.7,-24"/>
</a>
</g>
</g>
<!-- Node3&#45;&gt;Node3 -->
<g id="edge3_Node000003_Node000003" class="edge">
<title>Node3&#45;&gt;Node3</title>
<g id="a_edge3_Node000003_Node000003"><a xlink:title=" ">
<path fill="none" stroke="#63b8ff" d="M259.26,-46.1C255.19,-50.47 245.27,-53.5 229.5,-53.5 202.94,-53.5 192.98,-44.91 199.62,-35.78"/>
<polygon fill="#63b8ff" stroke="#63b8ff" points="262.76,-45.82 259.38,-35.78 255.76,-45.73 262.76,-45.82"/>
</a>
</g>
</g>
<!-- Node4 -->
<g id="Node000004" class="node">
<title>Node4</title>
<g id="a_Node000004"><a xlink:href="../../dc/dc5/namespaceaopp__deconv__tool_1_1fit__psf__model.html#aa00a098e5079cb102034a26b8a2834ef" target="_top" xlink:title=" ">
<polygon fill="white" stroke="#666666" points="118,-35.5 0,-35.5 0,-5.5 118,-5.5 118,-35.5"/>
<text text-anchor="start" x="8" y="-23.5" font-family="Helvetica,sans-Serif" font-size="10.00">aopp_deconv_tool.fit</text>
<text text-anchor="middle" x="59" y="-12.5" font-family="Helvetica,sans-Serif" font-size="10.00">_psf_model.go</text>
</a>
</g>
</g>
<!-- Node3&#45;&gt;Node4 -->
<g id="edge4_Node000003_Node000004" class="edge">
<title>Node3&#45;&gt;Node4</title>
<g id="a_edge4_Node000003_Node000004"><a xlink:title=" ">
<path fill="none" stroke="#63b8ff" d="M143.56,-20.5C134.99,-20.5 126.42,-20.5 118.22,-20.5"/>
<polygon fill="#63b8ff" stroke="#63b8ff" points="143.61,-24 153.61,-20.5 143.61,-17 143.61,-24"/>
</a>
</g>
</g>
</g>
</svg>
