<?xml version="1.0" encoding="UTF-8" standalone="no"?>
<!DOCTYPE svg PUBLIC "-//W3C//DTD SVG 1.1//EN"
 "http://www.w3.org/Graphics/SVG/1.1/DTD/svg11.dtd">
<!-- Generated by graphviz version 2.43.0 (0)
 -->
<!-- Title: aopp_deconv_tool.fit_psf_model.go Pages: 1 -->
<svg width="946pt" height="312pt"
 viewBox="0.00 0.00 946.00 311.50" xmlns="http://www.w3.org/2000/svg" xmlns:xlink="http://www.w3.org/1999/xlink">
<g id="graph0" class="graph" transform="scale(1 1) rotate(0) translate(4 307.5)">
<title>aopp_deconv_tool.fit_psf_model.go</title>
<!-- Node1 -->
<g id="Node000001" class="node">
<title>Node1</title>
<g id="a_Node000001"><a xlink:title=" ">
<polygon fill="#999999" stroke="#666666" points="118,-171 0,-171 0,-141 118,-141 118,-171"/>
<text text-anchor="start" x="8" y="-159" font-family="Helvetica,sans-Serif" font-size="10.00">aopp_deconv_tool.fit</text>
<text text-anchor="middle" x="59" y="-148" font-family="Helvetica,sans-Serif" font-size="10.00">_psf_model.go</text>
</a>
</g>
</g>
<!-- Node2 -->
<g id="Node000002" class="node">
<title>Node2</title>
<g id="a_Node000002"><a xlink:href="../../da/d5f/namespaceaopp__deconv__tool_1_1arguments.html#aec2c9d770d31aa257cf89a398d910714" target="_top" xlink:title=" ">
<polygon fill="white" stroke="#666666" points="363,-204 154,-204 154,-174 363,-174 363,-204"/>
<text text-anchor="start" x="162" y="-192" font-family="Helvetica,sans-Serif" font-size="10.00">aopp_deconv_tool.arguments.construct</text>
<text text-anchor="middle" x="258.5" y="-181" font-family="Helvetica,sans-Serif" font-size="10.00">_arglist_from_locals</text>
</a>
</g>
</g>
<!-- Node1&#45;&gt;Node2 -->
<g id="edge1_Node000001_Node000002" class="edge">
<title>Node1&#45;&gt;Node2</title>
<g id="a_edge1_Node000001_Node000002"><a xlink:title=" ">
<path fill="none" stroke="#63b8ff" d="M118.19,-165.72C130.52,-167.78 143.87,-170.01 157.26,-172.25"/>
<polygon fill="#63b8ff" stroke="#63b8ff" points="157.05,-175.76 167.49,-173.96 158.2,-168.86 157.05,-175.76"/>
</a>
</g>
</g>
<!-- Node3 -->
<g id="Node000003" class="node">
<title>Node3</title>
<g id="a_Node000003"><a xlink:href="../../dc/dc5/namespaceaopp__deconv__tool_1_1fit__psf__model.html#a2c0d0ac24ff97340d04ba31dcb4b9c5f" target="_top" xlink:title=" ">
<polygon fill="white" stroke="#666666" points="334,-138 183,-138 183,-108 334,-108 334,-138"/>
<text text-anchor="start" x="191" y="-126" font-family="Helvetica,sans-Serif" font-size="10.00">aopp_deconv_tool.fit</text>
<text text-anchor="middle" x="258.5" y="-115" font-family="Helvetica,sans-Serif" font-size="10.00">_psf_model.exec_with_args</text>
</a>
</g>
</g>
<!-- Node1&#45;&gt;Node3 -->
<g id="edge2_Node000001_Node000003" class="edge">
<title>Node1&#45;&gt;Node3</title>
<g id="a_edge2_Node000001_Node000003"><a xlink:title=" ">
<path fill="none" stroke="#63b8ff" d="M118.19,-146.28C135.36,-143.41 154.5,-140.21 172.97,-137.12"/>
<polygon fill="#63b8ff" stroke="#63b8ff" points="173.56,-140.57 182.85,-135.47 172.41,-133.67 173.56,-140.57"/>
</a>
</g>
</g>
<!-- Node3&#45;&gt;Node3 -->
<g id="edge3_Node000003_Node000003" class="edge">
<title>Node3&#45;&gt;Node3</title>
<g id="a_edge3_Node000003_Node000003"><a xlink:title=" ">
<path fill="none" stroke="#63b8ff" d="M223.7,-138.28C215.96,-147.41 227.56,-156 258.5,-156 276.87,-156 288.42,-152.97 293.16,-148.6"/>
<polygon fill="#63b8ff" stroke="#63b8ff" points="296.66,-148.32 293.3,-138.28 289.66,-148.22 296.66,-148.32"/>
</a>
</g>
</g>
<!-- Node4 -->
<g id="Node000004" class="node">
<title>Node4</title>
<g id="a_Node000004"><a xlink:href="../../dc/dc5/namespaceaopp__deconv__tool_1_1fit__psf__model.html#a87fd9094bb15e15471048a0ea76d6adc" target="_top" xlink:title=" ">
<polygon fill="white" stroke="#666666" points="528,-191 399,-191 399,-161 528,-161 528,-191"/>
<text text-anchor="start" x="407" y="-179" font-family="Helvetica,sans-Serif" font-size="10.00">aopp_deconv_tool.fit</text>
<text text-anchor="middle" x="463.5" y="-168" font-family="Helvetica,sans-Serif" font-size="10.00">_psf_model.parse_args</text>
</a>
</g>
</g>
<!-- Node3&#45;&gt;Node4 -->
<g id="edge4_Node000003_Node000004" class="edge">
<title>Node3&#45;&gt;Node4</title>
<g id="a_edge4_Node000003_Node000004"><a xlink:title=" ">
<path fill="none" stroke="#63b8ff" d="M317.13,-138.05C341.34,-144.37 369.68,-151.77 394.88,-158.34"/>
<polygon fill="#63b8ff" stroke="#63b8ff" points="394.17,-161.78 404.73,-160.92 395.94,-155 394.17,-161.78"/>
</a>
</g>
</g>
<!-- Node10 -->
<g id="Node000010" class="node">
<title>Node10</title>
<g id="a_Node000010"><a xlink:href="../../dc/dc5/namespaceaopp__deconv__tool_1_1fit__psf__model.html#a3c836441225c9c089d97d2a48b60ca90" target="_top" xlink:title=" ">
<polygon fill="white" stroke="#666666" points="522.5,-114 404.5,-114 404.5,-84 522.5,-84 522.5,-114"/>
<text text-anchor="start" x="412.5" y="-102" font-family="Helvetica,sans-Serif" font-size="10.00">aopp_deconv_tool.fit</text>
<text text-anchor="middle" x="463.5" y="-91" font-family="Helvetica,sans-Serif" font-size="10.00">_psf_model.run</text>
</a>
</g>
</g>
<!-- Node3&#45;&gt;Node10 -->
<g id="edge10_Node000003_Node000010" class="edge">
<title>Node3&#45;&gt;Node10</title>
<g id="a_edge10_Node000003_Node000010"><a xlink:title=" ">
<path fill="none" stroke="#63b8ff" d="M334.22,-114.17C353.96,-111.83 375.15,-109.33 394.51,-107.04"/>
<polygon fill="#63b8ff" stroke="#63b8ff" points="394.93,-110.51 404.45,-105.86 394.1,-103.56 394.93,-110.51"/>
</a>
</g>
</g>
<!-- Node5 -->
<g id="Node000005" class="node">
<title>Node5</title>
<g id="a_Node000005"><a xlink:href="../../dc/dc5/namespaceaopp__deconv__tool_1_1fit__psf__model.html#a9d5b77d804d5f9487aa2914e72386a19" target="_top" xlink:title=" ">
<polygon fill="white" stroke="#666666" points="720.5,-303.5 572.5,-303.5 572.5,-262.5 720.5,-262.5 720.5,-303.5"/>
<text text-anchor="start" x="580.5" y="-291.5" font-family="Helvetica,sans-Serif" font-size="10.00">aopp_deconv_tool.fit</text>
<text text-anchor="start" x="580.5" y="-280.5" font-family="Helvetica,sans-Serif" font-size="10.00">_psf_model.get_psf_model</text>
<text text-anchor="middle" x="646.5" y="-269.5" font-family="Helvetica,sans-Serif" font-size="10.00">_dependency_injector</text>
</a>
</g>
</g>
<!-- Node4&#45;&gt;Node5 -->
<g id="edge5_Node000004_Node000005" class="edge">
<title>Node4&#45;&gt;Node5</title>
<g id="a_edge5_Node000004_Node000005"><a xlink:title=" ">
<path fill="none" stroke="#63b8ff" d="M480.24,-191.01C498.94,-208.18 531.7,-236.21 564,-254 566.68,-255.47 569.44,-256.9 572.27,-258.27"/>
<polygon fill="#63b8ff" stroke="#63b8ff" points="570.89,-261.49 581.44,-262.46 573.81,-255.12 570.89,-261.49"/>
</a>
</g>
</g>
<!-- Node6 -->
<g id="Node000006" class="node">
<title>Node6</title>
<g id="a_Node000006"><a xlink:href="../../dc/dc5/namespaceaopp__deconv__tool_1_1fit__psf__model.html#a4e31ec77d376302228427328892ce2cc" target="_top" xlink:title=" ">
<polygon fill="white" stroke="#666666" points="720,-244.5 573,-244.5 573,-203.5 720,-203.5 720,-244.5"/>
<text text-anchor="start" x="581" y="-232.5" font-family="Helvetica,sans-Serif" font-size="10.00">aopp_deconv_tool.fit</text>
<text text-anchor="start" x="581" y="-221.5" font-family="Helvetica,sans-Serif" font-size="10.00">_psf_model.set_psf_model</text>
<text text-anchor="middle" x="646.5" y="-210.5" font-family="Helvetica,sans-Serif" font-size="10.00">_dependency_injector</text>
</a>
</g>
</g>
<!-- Node4&#45;&gt;Node6 -->
<g id="edge6_Node000004_Node000006" class="edge">
<title>Node4&#45;&gt;Node6</title>
<g id="a_edge6_Node000004_Node000006"><a xlink:title=" ">
<path fill="none" stroke="#63b8ff" d="M521.27,-191.06C534.58,-194.59 549.03,-198.42 563.2,-202.17"/>
<polygon fill="#63b8ff" stroke="#63b8ff" points="562.39,-205.58 572.95,-204.76 564.19,-198.81 562.39,-205.58"/>
</a>
</g>
</g>
<!-- Node7 -->
<g id="Node000007" class="node">
<title>Node7</title>
<g id="a_Node000007"><a xlink:href="../../dc/dc5/namespaceaopp__deconv__tool_1_1fit__psf__model.html#a7e905e9bff80fd3188fcb9dfb426d0f0" target="_top" xlink:title=" ">
<polygon fill="white" stroke="#666666" points="729,-148.5 564,-148.5 564,-107.5 729,-107.5 729,-148.5"/>
<text text-anchor="start" x="572" y="-136.5" font-family="Helvetica,sans-Serif" font-size="10.00">aopp_deconv_tool.fit</text>
<text text-anchor="start" x="572" y="-125.5" font-family="Helvetica,sans-Serif" font-size="10.00">_psf_model.set_psf_model</text>
<text text-anchor="middle" x="646.5" y="-114.5" font-family="Helvetica,sans-Serif" font-size="10.00">_dependency_injector_params</text>
</a>
</g>
</g>
<!-- Node4&#45;&gt;Node7 -->
<g id="edge7_Node000004_Node000007" class="edge">
<title>Node4&#45;&gt;Node7</title>
<g id="a_edge7_Node000004_Node000007"><a xlink:title=" ">
<path fill="none" stroke="#63b8ff" d="M521.27,-160.94C532.97,-157.84 545.55,-154.51 558.04,-151.19"/>
<polygon fill="#63b8ff" stroke="#63b8ff" points="559.26,-154.49 568.03,-148.54 557.47,-147.72 559.26,-154.49"/>
</a>
</g>
</g>
<!-- Node8 -->
<g id="Node000008" class="node">
<title>Node8</title>
<g id="a_Node000008"><a xlink:href="../../d8/d5b/namespaceaopp__deconv__tool_1_1text.html#a75d81e58c71da89b56473e2616edd1c6" target="_top" xlink:title=" ">
<polygon fill="white" stroke="#666666" points="724,-185.5 569,-185.5 569,-166.5 724,-166.5 724,-185.5"/>
<text text-anchor="middle" x="646.5" y="-173.5" font-family="Helvetica,sans-Serif" font-size="10.00">aopp_deconv_tool.text.wrap</text>
</a>
</g>
</g>
<!-- Node4&#45;&gt;Node8 -->
<g id="edge8_Node000004_Node000008" class="edge">
<title>Node4&#45;&gt;Node8</title>
<g id="a_edge8_Node000004_Node000008"><a xlink:title=" ">
<path fill="none" stroke="#63b8ff" d="M528.06,-176C537.91,-176 548.24,-176 558.5,-176"/>
<polygon fill="#63b8ff" stroke="#63b8ff" points="558.73,-179.5 568.73,-176 558.73,-172.5 558.73,-179.5"/>
</a>
</g>
</g>
<!-- Node9 -->
<g id="Node000009" class="node">
<title>Node9</title>
<g id="a_Node000009"><a xlink:href="../../d8/d5b/namespaceaopp__deconv__tool_1_1text.html#a1496cf89a275b1b851ff81f401628c27" target="_top" xlink:title=" ">
<polygon fill="white" stroke="#666666" points="938,-191 765,-191 765,-161 938,-161 938,-191"/>
<text text-anchor="start" x="773" y="-179" font-family="Helvetica,sans-Serif" font-size="10.00">aopp_deconv_tool.text.combine</text>
<text text-anchor="middle" x="851.5" y="-168" font-family="Helvetica,sans-Serif" font-size="10.00">_lines_with_same_indent</text>
</a>
</g>
</g>
<!-- Node8&#45;&gt;Node9 -->
<g id="edge9_Node000008_Node000009" class="edge">
<title>Node8&#45;&gt;Node9</title>
<g id="a_edge9_Node000008_Node000009"><a xlink:title=" ">
<path fill="none" stroke="#63b8ff" d="M724.25,-176C734.18,-176 744.46,-176 754.65,-176"/>
<polygon fill="#63b8ff" stroke="#63b8ff" points="754.81,-179.5 764.81,-176 754.81,-172.5 754.81,-179.5"/>
</a>
</g>
</g>
<!-- Node10&#45;&gt;Node7 -->
<g id="edge13_Node000010_Node000007" class="edge">
<title>Node10&#45;&gt;Node7</title>
<g id="a_edge13_Node000010_Node000007"><a xlink:title=" ">
<path fill="none" stroke="#63b8ff" d="M522.77,-108.34C532.71,-109.93 543.26,-111.62 553.82,-113.31"/>
<polygon fill="#63b8ff" stroke="#63b8ff" points="553.51,-116.81 563.94,-114.93 554.62,-109.89 553.51,-116.81"/>
</a>
</g>
</g>
<!-- Node11 -->
<g id="Node000011" class="node">
<title>Node11</title>
<g id="a_Node000011"><a xlink:href="../../dc/dc5/namespaceaopp__deconv__tool_1_1fit__psf__model.html#a1aec4e54ce24d146ec81b457a6bac94b" target="_top" xlink:title=" ">
<polygon fill="white" stroke="#666666" points="726,-89.5 567,-89.5 567,-48.5 726,-48.5 726,-89.5"/>
<text text-anchor="start" x="575" y="-77.5" font-family="Helvetica,sans-Serif" font-size="10.00">aopp_deconv_tool.fit</text>
<text text-anchor="start" x="575" y="-66.5" font-family="Helvetica,sans-Serif" font-size="10.00">_psf_model.get_new_psf</text>
<text text-anchor="middle" x="646.5" y="-55.5" font-family="Helvetica,sans-Serif" font-size="10.00">_model_dependency_injector</text>
</a>
</g>
</g>
<!-- Node10&#45;&gt;Node11 -->
<g id="edge11_Node000010_Node000011" class="edge">
<title>Node10&#45;&gt;Node11</title>
<g id="a_edge11_Node000010_Node000011"><a xlink:title=" ">
<path fill="none" stroke="#63b8ff" d="M522.77,-89.34C533.64,-87.54 545.22,-85.62 556.77,-83.71"/>
<polygon fill="#63b8ff" stroke="#63b8ff" points="557.59,-87.12 566.88,-82.03 556.45,-80.21 557.59,-87.12"/>
</a>
</g>
</g>
<!-- Node12 -->
<g id="Node000012" class="node">
<title>Node12</title>
<g id="a_Node000012"><a xlink:href="../../dc/dc5/namespaceaopp__deconv__tool_1_1fit__psf__model.html#a1a593efc94a4c078a3583f72d2c6c2af" target="_top" xlink:title=" ">
<polygon fill="white" stroke="#666666" points="710.5,-30 582.5,-30 582.5,0 710.5,0 710.5,-30"/>
<text text-anchor="start" x="590.5" y="-18" font-family="Helvetica,sans-Serif" font-size="10.00">aopp_deconv_tool.fit</text>
<text text-anchor="middle" x="646.5" y="-7" font-family="Helvetica,sans-Serif" font-size="10.00">_psf_model.plot_result</text>
</a>
</g>
</g>
<!-- Node10&#45;&gt;Node12 -->
<g id="edge12_Node000010_Node000012" class="edge">
<title>Node10&#45;&gt;Node12</title>
<g id="a_edge12_Node000010_Node000012"><a xlink:title=" ">
<path fill="none" stroke="#63b8ff" d="M486.6,-83.81C506.24,-70.83 536.08,-52.35 564,-40 569.29,-37.66 574.86,-35.45 580.51,-33.39"/>
<polygon fill="#63b8ff" stroke="#63b8ff" points="581.76,-36.66 590.05,-30.06 579.45,-30.05 581.76,-36.66"/>
</a>
</g>
</g>
</g>
</svg>
