<?xml version="1.0" encoding="UTF-8" standalone="no"?>
<!DOCTYPE svg PUBLIC "-//W3C//DTD SVG 1.1//EN"
 "http://www.w3.org/Graphics/SVG/1.1/DTD/svg11.dtd">
<!-- Generated by graphviz version 2.43.0 (0)
 -->
<!-- Title: aopp_deconv_tool.fit_psf_model.go Pages: 1 -->
<svg width="961pt" height="378pt"
 viewBox="0.00 0.00 961.00 377.50" xmlns="http://www.w3.org/2000/svg" xmlns:xlink="http://www.w3.org/1999/xlink">
<g id="graph0" class="graph" transform="scale(1 1) rotate(0) translate(4 373.5)">
<title>aopp_deconv_tool.fit_psf_model.go</title>
<!-- Node1 -->
<g id="node1" class="node">
<title>Node1</title>
<g id="a_node1"><a xlink:title=" ">
<polygon fill="#bfbfbf" stroke="black" points="0,-193.5 0,-223.5 119,-223.5 119,-193.5 0,-193.5"/>
<text text-anchor="start" x="8" y="-211.5" font-family="Helvetica,sans-Serif" font-size="10.00">aopp_deconv_tool.fit</text>
<text text-anchor="middle" x="59.5" y="-200.5" font-family="Helvetica,sans-Serif" font-size="10.00">_psf_model.go</text>
</a>
</g>
</g>
<!-- Node2 -->
<g id="node2" class="node">
<title>Node2</title>
<g id="a_node2"><a xlink:href="../../da/d5f/namespaceaopp__deconv__tool_1_1arguments.html#a206efe8090df20dc2ee1729424f5bb9f" target="_top" xlink:title=" ">
<polygon fill="none" stroke="black" points="155,-218.5 155,-248.5 364,-248.5 364,-218.5 155,-218.5"/>
<text text-anchor="start" x="163" y="-236.5" font-family="Helvetica,sans-Serif" font-size="10.00">aopp_deconv_tool.arguments.construct</text>
<text text-anchor="middle" x="259.5" y="-225.5" font-family="Helvetica,sans-Serif" font-size="10.00">_arglist_from_locals</text>
</a>
</g>
</g>
<!-- Node1&#45;&gt;Node2 -->
<g id="edge1" class="edge">
<title>Node1&#45;&gt;Node2</title>
<path fill="none" stroke="midnightblue" d="M119.1,-215.9C127.31,-216.94 135.95,-218.03 144.76,-219.14"/>
<polygon fill="midnightblue" stroke="midnightblue" points="144.4,-222.62 154.76,-220.4 145.28,-215.68 144.4,-222.62"/>
</g>
<!-- Node3 -->
<g id="node3" class="node">
<title>Node3</title>
<g id="a_node3"><a xlink:href="../../dc/dc5/namespaceaopp__deconv__tool_1_1fit__psf__model.html#a628509727f69f8b5e5d81e2ae1a11110" target="_top" xlink:title=" ">
<polygon fill="none" stroke="black" points="183.5,-169.5 183.5,-199.5 335.5,-199.5 335.5,-169.5 183.5,-169.5"/>
<text text-anchor="start" x="191.5" y="-187.5" font-family="Helvetica,sans-Serif" font-size="10.00">aopp_deconv_tool.fit</text>
<text text-anchor="middle" x="259.5" y="-176.5" font-family="Helvetica,sans-Serif" font-size="10.00">_psf_model.exec_with_args</text>
</a>
</g>
</g>
<!-- Node1&#45;&gt;Node3 -->
<g id="edge2" class="edge">
<title>Node1&#45;&gt;Node3</title>
<path fill="none" stroke="midnightblue" d="M119.1,-201.4C136.13,-199.33 155.09,-197.03 173.4,-194.82"/>
<polygon fill="midnightblue" stroke="midnightblue" points="173.98,-198.27 183.49,-193.59 173.14,-191.32 173.98,-198.27"/>
</g>
<!-- Node4 -->
<g id="node4" class="node">
<title>Node4</title>
<g id="a_node4"><a xlink:href="../../dc/dc5/namespaceaopp__deconv__tool_1_1fit__psf__model.html#a2ff26f2f657884f9deaa3e1e84e508b6" target="_top" xlink:title=" ">
<polygon fill="none" stroke="black" points="400,-224.5 400,-254.5 529,-254.5 529,-224.5 400,-224.5"/>
<text text-anchor="start" x="408" y="-242.5" font-family="Helvetica,sans-Serif" font-size="10.00">aopp_deconv_tool.fit</text>
<text text-anchor="middle" x="464.5" y="-231.5" font-family="Helvetica,sans-Serif" font-size="10.00">_psf_model.parse_args</text>
</a>
</g>
</g>
<!-- Node3&#45;&gt;Node4 -->
<g id="edge3" class="edge">
<title>Node3&#45;&gt;Node4</title>
<path fill="none" stroke="midnightblue" d="M325.24,-199.55C338.11,-202.71 351.51,-206.11 364,-209.5 377.59,-213.19 392.15,-217.42 405.81,-221.51"/>
<polygon fill="midnightblue" stroke="midnightblue" points="404.99,-224.92 415.58,-224.46 407.02,-218.22 404.99,-224.92"/>
</g>
<!-- Node10 -->
<g id="node10" class="node">
<title>Node10</title>
<g id="a_node10"><a xlink:href="../../dc/dc5/namespaceaopp__deconv__tool_1_1fit__psf__model.html#ae604716ccc026d24ff512636a3a4be02" target="_top" xlink:title=" ">
<polygon fill="none" stroke="black" points="405,-115.5 405,-145.5 524,-145.5 524,-115.5 405,-115.5"/>
<text text-anchor="start" x="413" y="-133.5" font-family="Helvetica,sans-Serif" font-size="10.00">aopp_deconv_tool.fit</text>
<text text-anchor="middle" x="464.5" y="-122.5" font-family="Helvetica,sans-Serif" font-size="10.00">_psf_model.run</text>
</a>
</g>
</g>
<!-- Node3&#45;&gt;Node10 -->
<g id="edge9" class="edge">
<title>Node3&#45;&gt;Node10</title>
<path fill="none" stroke="midnightblue" d="M317.05,-169.46C341.91,-162.84 371.28,-155.03 397.17,-148.14"/>
<polygon fill="midnightblue" stroke="midnightblue" points="398.14,-151.51 406.9,-145.55 396.34,-144.74 398.14,-151.51"/>
</g>
<!-- Node5 -->
<g id="node5" class="node">
<title>Node5</title>
<g id="a_node5"><a xlink:href="../../dc/dc5/namespaceaopp__deconv__tool_1_1fit__psf__model.html#a10be6b099de8289f0bc8e17d4570f728" target="_top" xlink:title=" ">
<polygon fill="none" stroke="black" points="580.5,-328 580.5,-369 728.5,-369 728.5,-328 580.5,-328"/>
<text text-anchor="start" x="588.5" y="-357" font-family="Helvetica,sans-Serif" font-size="10.00">aopp_deconv_tool.fit</text>
<text text-anchor="start" x="588.5" y="-346" font-family="Helvetica,sans-Serif" font-size="10.00">_psf_model.get_psf_model</text>
<text text-anchor="middle" x="654.5" y="-335" font-family="Helvetica,sans-Serif" font-size="10.00">_dependency_injector</text>
</a>
</g>
</g>
<!-- Node4&#45;&gt;Node5 -->
<g id="edge4" class="edge">
<title>Node4&#45;&gt;Node5</title>
<path fill="none" stroke="midnightblue" d="M481.15,-254.8C499.78,-272.29 532.46,-300.77 565,-318.5 568.43,-320.37 571.99,-322.15 575.64,-323.85"/>
<polygon fill="midnightblue" stroke="midnightblue" points="574.28,-327.07 584.84,-327.88 577.09,-320.66 574.28,-327.07"/>
</g>
<!-- Node6 -->
<g id="node6" class="node">
<title>Node6</title>
<g id="a_node6"><a xlink:href="../../dc/dc5/namespaceaopp__deconv__tool_1_1fit__psf__model.html#a774ed440155b8dc83b5fb882f7ce8956" target="_top" xlink:title=" ">
<polygon fill="none" stroke="black" points="581,-268 581,-309 728,-309 728,-268 581,-268"/>
<text text-anchor="start" x="589" y="-297" font-family="Helvetica,sans-Serif" font-size="10.00">aopp_deconv_tool.fit</text>
<text text-anchor="start" x="589" y="-286" font-family="Helvetica,sans-Serif" font-size="10.00">_psf_model.set_psf_model</text>
<text text-anchor="middle" x="654.5" y="-275" font-family="Helvetica,sans-Serif" font-size="10.00">_dependency_injector</text>
</a>
</g>
</g>
<!-- Node4&#45;&gt;Node6 -->
<g id="edge5" class="edge">
<title>Node4&#45;&gt;Node6</title>
<path fill="none" stroke="midnightblue" d="M523.18,-254.53C538.29,-258.47 554.87,-262.79 571,-267"/>
<polygon fill="midnightblue" stroke="midnightblue" points="570.41,-270.46 580.97,-269.59 572.17,-263.69 570.41,-270.46"/>
</g>
<!-- Node7 -->
<g id="node7" class="node">
<title>Node7</title>
<g id="a_node7"><a xlink:href="../../dc/dc5/namespaceaopp__deconv__tool_1_1fit__psf__model.html#ac109592a0c27513206fa61f31b27a5e6" target="_top" xlink:title=" ">
<polygon fill="none" stroke="black" points="572,-170 572,-211 737,-211 737,-170 572,-170"/>
<text text-anchor="start" x="580" y="-199" font-family="Helvetica,sans-Serif" font-size="10.00">aopp_deconv_tool.fit</text>
<text text-anchor="start" x="580" y="-188" font-family="Helvetica,sans-Serif" font-size="10.00">_psf_model.set_psf_model</text>
<text text-anchor="middle" x="654.5" y="-177" font-family="Helvetica,sans-Serif" font-size="10.00">_dependency_injector_params</text>
</a>
</g>
</g>
<!-- Node4&#45;&gt;Node7 -->
<g id="edge6" class="edge">
<title>Node4&#45;&gt;Node7</title>
<path fill="none" stroke="midnightblue" d="M523.18,-224.47C536.43,-221.01 550.81,-217.27 565.02,-213.56"/>
<polygon fill="midnightblue" stroke="midnightblue" points="566.02,-216.92 574.81,-211.01 564.25,-210.15 566.02,-216.92"/>
</g>
<!-- Node8 -->
<g id="node8" class="node">
<title>Node8</title>
<g id="a_node8"><a xlink:href="../../d8/d5b/namespaceaopp__deconv__tool_1_1text.html#ae13da0dd246571ccd435ba5f64904bfe" target="_top" xlink:title=" ">
<polygon fill="none" stroke="black" points="577,-230 577,-249 732,-249 732,-230 577,-230"/>
<text text-anchor="middle" x="654.5" y="-237" font-family="Helvetica,sans-Serif" font-size="10.00">aopp_deconv_tool.text.wrap</text>
</a>
</g>
</g>
<!-- Node4&#45;&gt;Node8 -->
<g id="edge7" class="edge">
<title>Node4&#45;&gt;Node8</title>
<path fill="none" stroke="midnightblue" d="M529.15,-239.5C541.25,-239.5 554.11,-239.5 566.79,-239.5"/>
<polygon fill="midnightblue" stroke="midnightblue" points="566.9,-243 576.9,-239.5 566.9,-236 566.9,-243"/>
</g>
<!-- Node9 -->
<g id="node9" class="node">
<title>Node9</title>
<g id="a_node9"><a xlink:href="../../d8/d5b/namespaceaopp__deconv__tool_1_1text.html#a5b208e43cdecac49460b4ced231aa4a6" target="_top" xlink:title=" ">
<polygon fill="none" stroke="black" points="780,-224.5 780,-254.5 953,-254.5 953,-224.5 780,-224.5"/>
<text text-anchor="start" x="788" y="-242.5" font-family="Helvetica,sans-Serif" font-size="10.00">aopp_deconv_tool.text.combine</text>
<text text-anchor="middle" x="866.5" y="-231.5" font-family="Helvetica,sans-Serif" font-size="10.00">_lines_with_same_indent</text>
</a>
</g>
</g>
<!-- Node8&#45;&gt;Node9 -->
<g id="edge8" class="edge">
<title>Node8&#45;&gt;Node9</title>
<path fill="none" stroke="midnightblue" d="M732.21,-239.5C744.41,-239.5 757.16,-239.5 769.74,-239.5"/>
<polygon fill="midnightblue" stroke="midnightblue" points="769.78,-243 779.77,-239.5 769.77,-236 769.78,-243"/>
</g>
<!-- Node10&#45;&gt;Node7 -->
<g id="edge14" class="edge">
<title>Node10&#45;&gt;Node7</title>
<path fill="none" stroke="midnightblue" d="M512.94,-145.64C533.03,-152.05 556.91,-159.67 579.24,-166.8"/>
<polygon fill="midnightblue" stroke="midnightblue" points="578.44,-170.22 589.03,-169.92 580.57,-163.55 578.44,-170.22"/>
</g>
<!-- Node11 -->
<g id="node11" class="node">
<title>Node11</title>
<g id="a_node11"><a xlink:href="../../d1/d0d/namespaceaopp__deconv__tool_1_1optimise__compat_1_1ultranest__compat.html#a41eac4baa2f2a3934983adcee045b072" target="_top" xlink:title=" ">
<polygon fill="none" stroke="black" points="565,-110 565,-151 744,-151 744,-110 565,-110"/>
<text text-anchor="start" x="573" y="-139" font-family="Helvetica,sans-Serif" font-size="10.00">aopp_deconv_tool.optimise</text>
<text text-anchor="start" x="573" y="-128" font-family="Helvetica,sans-Serif" font-size="10.00">_compat.ultranest_compat.fitting</text>
<text text-anchor="middle" x="654.5" y="-117" font-family="Helvetica,sans-Serif" font-size="10.00">_function_factory</text>
</a>
</g>
</g>
<!-- Node10&#45;&gt;Node11 -->
<g id="edge10" class="edge">
<title>Node10&#45;&gt;Node11</title>
<path fill="none" stroke="midnightblue" d="M524.21,-130.5C534.01,-130.5 544.4,-130.5 554.88,-130.5"/>
<polygon fill="midnightblue" stroke="midnightblue" points="554.92,-134 564.92,-130.5 554.92,-127 554.92,-134"/>
</g>
<!-- Node12 -->
<g id="node12" class="node">
<title>Node12</title>
<g id="a_node12"><a xlink:href="../../dc/dc5/namespaceaopp__deconv__tool_1_1fit__psf__model.html#a6b4604cf8f0fef48a3f722dd8d60ff78" target="_top" xlink:title=" ">
<polygon fill="none" stroke="black" points="575,-50 575,-91 734,-91 734,-50 575,-50"/>
<text text-anchor="start" x="583" y="-79" font-family="Helvetica,sans-Serif" font-size="10.00">aopp_deconv_tool.fit</text>
<text text-anchor="start" x="583" y="-68" font-family="Helvetica,sans-Serif" font-size="10.00">_psf_model.get_new_psf</text>
<text text-anchor="middle" x="654.5" y="-57" font-family="Helvetica,sans-Serif" font-size="10.00">_model_dependency_injector</text>
</a>
</g>
</g>
<!-- Node10&#45;&gt;Node12 -->
<g id="edge11" class="edge">
<title>Node10&#45;&gt;Node12</title>
<path fill="none" stroke="midnightblue" d="M512.94,-115.36C533.03,-108.95 556.91,-101.33 579.24,-94.2"/>
<polygon fill="midnightblue" stroke="midnightblue" points="580.57,-97.45 589.03,-91.08 578.44,-90.78 580.57,-97.45"/>
</g>
<!-- Node13 -->
<g id="node13" class="node">
<title>Node13</title>
<g id="a_node13"><a xlink:href="../../dc/dc5/namespaceaopp__deconv__tool_1_1fit__psf__model.html#a60e96d5e90494e5e63d1860dd3b3918c" target="_top" xlink:title=" ">
<polygon fill="none" stroke="black" points="590.5,-0.5 590.5,-30.5 718.5,-30.5 718.5,-0.5 590.5,-0.5"/>
<text text-anchor="start" x="598.5" y="-18.5" font-family="Helvetica,sans-Serif" font-size="10.00">aopp_deconv_tool.fit</text>
<text text-anchor="middle" x="654.5" y="-7.5" font-family="Helvetica,sans-Serif" font-size="10.00">_psf_model.plot_result</text>
</a>
</g>
</g>
<!-- Node10&#45;&gt;Node13 -->
<g id="edge12" class="edge">
<title>Node10&#45;&gt;Node13</title>
<path fill="none" stroke="midnightblue" d="M478.07,-115.44C495.55,-95.44 529.13,-60.34 565,-40.5 569.89,-37.79 575.1,-35.36 580.44,-33.18"/>
<polygon fill="midnightblue" stroke="midnightblue" points="582.05,-36.31 590.18,-29.51 579.59,-29.76 582.05,-36.31"/>
</g>
<!-- Node14 -->
<g id="node14" class="node">
<title>Node14</title>
<g id="a_node14"><a xlink:href="../../da/dfc/namespaceaopp__deconv__tool_1_1py__svd.html#a25823459e22f98cda9bd9a0b4cea09a1" target="_top" xlink:title=" ">
<polygon fill="none" stroke="black" points="806.5,-0.5 806.5,-30.5 926.5,-30.5 926.5,-0.5 806.5,-0.5"/>
<text text-anchor="start" x="814.5" y="-18.5" font-family="Helvetica,sans-Serif" font-size="10.00">aopp_deconv_tool.py</text>
<text text-anchor="middle" x="866.5" y="-7.5" font-family="Helvetica,sans-Serif" font-size="10.00">_svd.plot</text>
</a>
</g>
</g>
<!-- Node13&#45;&gt;Node14 -->
<g id="edge13" class="edge">
<title>Node13&#45;&gt;Node14</title>
<path fill="none" stroke="midnightblue" d="M718.51,-15.5C743.04,-15.5 771.22,-15.5 796.31,-15.5"/>
<polygon fill="midnightblue" stroke="midnightblue" points="796.49,-19 806.49,-15.5 796.49,-12 796.49,-19"/>
</g>
</g>
</svg>
