<?xml version="1.0" encoding="UTF-8" standalone="no"?>
<!DOCTYPE svg PUBLIC "-//W3C//DTD SVG 1.1//EN"
 "http://www.w3.org/Graphics/SVG/1.1/DTD/svg11.dtd">
<!-- Generated by graphviz version 2.43.0 (0)
 -->
<!-- Title: aopp_deconv_tool.fit_psf_model.exec_with_args Pages: 1 -->
<!--zoomable 312 -->

<svg id="main" version="1.1" xmlns="http://www.w3.org/2000/svg" xmlns:xlink="http://www.w3.org/1999/xlink" xml:space="preserve" onload="init(evt)">
<style type="text/css"><![CDATA[
.node, .edge {opacity: 0.7;}
.node.selected, .edge.selected {opacity: 1;}
.edge:hover path { stroke: red; }
.edge:hover polygon { stroke: red; fill: red; }
]]></style>

<defs>
  <circle id="rim" cx="0" cy="0" r="7"/>
  <circle id="rim2" cx="0" cy="0" r="3.5"/>
  <g id="zoomPlus">
    <use xlink:href="#rim" fill="#404040"><set attributeName="fill" to="#808080" begin="zoomplus.mouseover" end="zoomplus.mouseout"/></use>
    <path d="M-4,0h8M0,-4v8" fill="none" stroke="white" stroke-width="1.5" pointer-events="none"/>
  </g>
  <g id="zoomMin">
    <use xlink:href="#rim" fill="#404040"><set attributeName="fill" to="#808080" begin="zoomminus.mouseover" end="zoomminus.mouseout"/></use>
    <path d="M-4,0h8" fill="none" stroke="white" stroke-width="1.5" pointer-events="none"/>
  </g>
  <g id="arrowUp" transform="translate(30 24)">
    <use xlink:href="#rim"/>
    <path pointer-events="none" fill="none" stroke="white" stroke-width="1.5" d="M0,-3.0v7 M-2.5,-0.5L0,-3.0L2.5,-0.5"/>
  </g>
  <g id="arrowRight" transform="rotate(90) translate(36 -43)">
    <use xlink:href="#rim"/>
    <path pointer-events="none" fill="none" stroke="white" stroke-width="1.5" d="M0,-3.0v7 M-2.5,-0.5L0,-3.0L2.5,-0.5"/>
  </g>
  <g id="arrowDown" transform="rotate(180) translate(-30 -48)">
    <use xlink:href="#rim"/>
    <path pointer-events="none" fill="none" stroke="white" stroke-width="1.5" d="M0,-3.0v7 M-2.5,-0.5L0,-3.0L2.5,-0.5"/>
  </g>
  <g id="arrowLeft" transform="rotate(270) translate(-36 17)">
    <use xlink:href="#rim"/>
    <path pointer-events="none" fill="none" stroke="white" stroke-width="1.5" d="M0,-3.0v7 M-2.5,-0.5L0,-3.0L2.5,-0.5"/>
  </g>
  <g id="resetDef">
    <use xlink:href="#rim2" fill="#404040"><set attributeName="fill" to="#808080" begin="reset.mouseover" end="reset.mouseout"/></use>
  </g>
</defs>
<script type="application/ecmascript">
var viewWidth = 734;
var viewHeight = 312;
var sectionId = 'dynsection-0';
</script>
<script type="application/ecmascript" xlink:href="../../svg.min.js"/>
<svg id="graph" class="graph">
<g id="viewport">
<title>aopp_deconv_tool.fit_psf_model.exec_with_args</title>
<!-- Node1 -->
<g id="Node000001" class="node">
<title>Node1</title>
<g id="a_Node000001"><a xlink:title=" ">
<polygon fill="#999999" stroke="#666666" points="151,-138 0,-138 0,-108 151,-108 151,-138"/>
<text text-anchor="start" x="8" y="-126" font-family="Helvetica,sans-Serif" font-size="10.00">aopp_deconv_tool.fit</text>
<text text-anchor="middle" x="75.5" y="-115" font-family="Helvetica,sans-Serif" font-size="10.00">_psf_model.exec_with_args</text>
</a>
</g>
</g>
<!-- Node1&#45;&gt;Node1 -->
<g id="edge1_Node000001_Node000001" class="edge">
<title>Node1&#45;&gt;Node1</title>
<g id="a_edge1_Node000001_Node000001"><a xlink:title=" ">
<path fill="none" stroke="#63b8ff" d="M44.56,-138.28C37.69,-147.41 48,-156 75.5,-156 91.83,-156 102.1,-152.97 106.31,-148.6"/>
<polygon fill="#63b8ff" stroke="#63b8ff" points="109.81,-148.32 106.44,-138.28 102.81,-148.23 109.81,-148.32"/>
</a>
</g>
</g>
<!-- Node2 -->
<g id="Node000002" class="node">
<title>Node2</title>
<g id="a_Node000002"><a xlink:href="../../dc/dc5/namespaceaopp__deconv__tool_1_1fit__psf__model.html#a87fd9094bb15e15471048a0ea76d6adc" target="_top" xlink:title=" ">
<polygon fill="white" stroke="#666666" points="316,-191 187,-191 187,-161 316,-161 316,-191"/>
<text text-anchor="start" x="195" y="-179" font-family="Helvetica,sans-Serif" font-size="10.00">aopp_deconv_tool.fit</text>
<text text-anchor="middle" x="251.5" y="-168" font-family="Helvetica,sans-Serif" font-size="10.00">_psf_model.parse_args</text>
</a>
</g>
</g>
<!-- Node1&#45;&gt;Node2 -->
<g id="edge2_Node000001_Node000002" class="edge">
<title>Node1&#45;&gt;Node2</title>
<g id="a_edge2_Node000001_Node000002"><a xlink:title=" ">
<path fill="none" stroke="#63b8ff" d="M125.9,-138.05C146.28,-144.26 170.08,-151.51 191.39,-157.99"/>
<polygon fill="#63b8ff" stroke="#63b8ff" points="190.39,-161.35 200.98,-160.92 192.43,-154.65 190.39,-161.35"/>
</a>
</g>
</g>
<!-- Node8 -->
<g id="Node000008" class="node">
<title>Node8</title>
<g id="a_Node000008"><a xlink:href="../../dc/dc5/namespaceaopp__deconv__tool_1_1fit__psf__model.html#a3c836441225c9c089d97d2a48b60ca90" target="_top" xlink:title=" ">
<polygon fill="white" stroke="#666666" points="310.5,-114 192.5,-114 192.5,-84 310.5,-84 310.5,-114"/>
<text text-anchor="start" x="200.5" y="-102" font-family="Helvetica,sans-Serif" font-size="10.00">aopp_deconv_tool.fit</text>
<text text-anchor="middle" x="251.5" y="-91" font-family="Helvetica,sans-Serif" font-size="10.00">_psf_model.run</text>
</a>
</g>
</g>
<!-- Node1&#45;&gt;Node8 -->
<g id="edge8_Node000001_Node000008" class="edge">
<title>Node1&#45;&gt;Node8</title>
<g id="a_edge8_Node000001_Node000008"><a xlink:title=" ">
<path fill="none" stroke="#63b8ff" d="M151.05,-112.72C161.43,-111.29 172.04,-109.82 182.3,-108.41"/>
<polygon fill="#63b8ff" stroke="#63b8ff" points="182.98,-111.85 192.4,-107.01 182.02,-104.91 182.98,-111.85"/>
</a>
</g>
</g>
<!-- Node3 -->
<g id="Node000003" class="node">
<title>Node3</title>
<g id="a_Node000003"><a xlink:href="../../dc/dc5/namespaceaopp__deconv__tool_1_1fit__psf__model.html#a9d5b77d804d5f9487aa2914e72386a19" target="_top" xlink:title=" ">
<polygon fill="white" stroke="#666666" points="508.5,-303.5 360.5,-303.5 360.5,-262.5 508.5,-262.5 508.5,-303.5"/>
<text text-anchor="start" x="368.5" y="-291.5" font-family="Helvetica,sans-Serif" font-size="10.00">aopp_deconv_tool.fit</text>
<text text-anchor="start" x="368.5" y="-280.5" font-family="Helvetica,sans-Serif" font-size="10.00">_psf_model.get_psf_model</text>
<text text-anchor="middle" x="434.5" y="-269.5" font-family="Helvetica,sans-Serif" font-size="10.00">_dependency_injector</text>
</a>
</g>
</g>
<!-- Node2&#45;&gt;Node3 -->
<g id="edge3_Node000002_Node000003" class="edge">
<title>Node2&#45;&gt;Node3</title>
<g id="a_edge3_Node000002_Node000003"><a xlink:title=" ">
<path fill="none" stroke="#63b8ff" d="M268.24,-191.01C286.94,-208.18 319.7,-236.21 352,-254 354.68,-255.47 357.44,-256.9 360.27,-258.27"/>
<polygon fill="#63b8ff" stroke="#63b8ff" points="358.89,-261.49 369.44,-262.46 361.81,-255.12 358.89,-261.49"/>
</a>
</g>
</g>
<!-- Node4 -->
<g id="Node000004" class="node">
<title>Node4</title>
<g id="a_Node000004"><a xlink:href="../../dc/dc5/namespaceaopp__deconv__tool_1_1fit__psf__model.html#a4e31ec77d376302228427328892ce2cc" target="_top" xlink:title=" ">
<polygon fill="white" stroke="#666666" points="508,-244.5 361,-244.5 361,-203.5 508,-203.5 508,-244.5"/>
<text text-anchor="start" x="369" y="-232.5" font-family="Helvetica,sans-Serif" font-size="10.00">aopp_deconv_tool.fit</text>
<text text-anchor="start" x="369" y="-221.5" font-family="Helvetica,sans-Serif" font-size="10.00">_psf_model.set_psf_model</text>
<text text-anchor="middle" x="434.5" y="-210.5" font-family="Helvetica,sans-Serif" font-size="10.00">_dependency_injector</text>
</a>
</g>
</g>
<!-- Node2&#45;&gt;Node4 -->
<g id="edge4_Node000002_Node000004" class="edge">
<title>Node2&#45;&gt;Node4</title>
<g id="a_edge4_Node000002_Node000004"><a xlink:title=" ">
<path fill="none" stroke="#63b8ff" d="M309.27,-191.06C322.58,-194.59 337.03,-198.42 351.2,-202.17"/>
<polygon fill="#63b8ff" stroke="#63b8ff" points="350.39,-205.58 360.95,-204.76 352.19,-198.81 350.39,-205.58"/>
</a>
</g>
</g>
<!-- Node5 -->
<g id="Node000005" class="node">
<title>Node5</title>
<g id="a_Node000005"><a xlink:href="../../dc/dc5/namespaceaopp__deconv__tool_1_1fit__psf__model.html#a7e905e9bff80fd3188fcb9dfb426d0f0" target="_top" xlink:title=" ">
<polygon fill="white" stroke="#666666" points="517,-148.5 352,-148.5 352,-107.5 517,-107.5 517,-148.5"/>
<text text-anchor="start" x="360" y="-136.5" font-family="Helvetica,sans-Serif" font-size="10.00">aopp_deconv_tool.fit</text>
<text text-anchor="start" x="360" y="-125.5" font-family="Helvetica,sans-Serif" font-size="10.00">_psf_model.set_psf_model</text>
<text text-anchor="middle" x="434.5" y="-114.5" font-family="Helvetica,sans-Serif" font-size="10.00">_dependency_injector_params</text>
</a>
</g>
</g>
<!-- Node2&#45;&gt;Node5 -->
<g id="edge5_Node000002_Node000005" class="edge">
<title>Node2&#45;&gt;Node5</title>
<g id="a_edge5_Node000002_Node000005"><a xlink:title=" ">
<path fill="none" stroke="#63b8ff" d="M309.27,-160.94C320.97,-157.84 333.55,-154.51 346.04,-151.19"/>
<polygon fill="#63b8ff" stroke="#63b8ff" points="347.26,-154.49 356.03,-148.54 345.47,-147.72 347.26,-154.49"/>
</a>
</g>
</g>
<!-- Node6 -->
<g id="Node000006" class="node">
<title>Node6</title>
<g id="a_Node000006"><a xlink:href="../../d8/d5b/namespaceaopp__deconv__tool_1_1text.html#a75d81e58c71da89b56473e2616edd1c6" target="_top" xlink:title=" ">
<polygon fill="white" stroke="#666666" points="512,-185.5 357,-185.5 357,-166.5 512,-166.5 512,-185.5"/>
<text text-anchor="middle" x="434.5" y="-173.5" font-family="Helvetica,sans-Serif" font-size="10.00">aopp_deconv_tool.text.wrap</text>
</a>
</g>
</g>
<!-- Node2&#45;&gt;Node6 -->
<g id="edge6_Node000002_Node000006" class="edge">
<title>Node2&#45;&gt;Node6</title>
<g id="a_edge6_Node000002_Node000006"><a xlink:title=" ">
<path fill="none" stroke="#63b8ff" d="M316.06,-176C325.91,-176 336.24,-176 346.5,-176"/>
<polygon fill="#63b8ff" stroke="#63b8ff" points="346.73,-179.5 356.73,-176 346.73,-172.5 346.73,-179.5"/>
</a>
</g>
</g>
<!-- Node7 -->
<g id="Node000007" class="node">
<title>Node7</title>
<g id="a_Node000007"><a xlink:href="../../d8/d5b/namespaceaopp__deconv__tool_1_1text.html#a1496cf89a275b1b851ff81f401628c27" target="_top" xlink:title=" ">
<polygon fill="white" stroke="#666666" points="726,-191 553,-191 553,-161 726,-161 726,-191"/>
<text text-anchor="start" x="561" y="-179" font-family="Helvetica,sans-Serif" font-size="10.00">aopp_deconv_tool.text.combine</text>
<text text-anchor="middle" x="639.5" y="-168" font-family="Helvetica,sans-Serif" font-size="10.00">_lines_with_same_indent</text>
</a>
</g>
</g>
<!-- Node6&#45;&gt;Node7 -->
<g id="edge7_Node000006_Node000007" class="edge">
<title>Node6&#45;&gt;Node7</title>
<g id="a_edge7_Node000006_Node000007"><a xlink:title=" ">
<path fill="none" stroke="#63b8ff" d="M512.25,-176C522.18,-176 532.46,-176 542.65,-176"/>
<polygon fill="#63b8ff" stroke="#63b8ff" points="542.81,-179.5 552.81,-176 542.81,-172.5 542.81,-179.5"/>
</a>
</g>
</g>
<!-- Node8&#45;&gt;Node5 -->
<g id="edge11_Node000008_Node000005" class="edge">
<title>Node8&#45;&gt;Node5</title>
<g id="a_edge11_Node000008_Node000005"><a xlink:title=" ">
<path fill="none" stroke="#63b8ff" d="M310.77,-108.34C320.71,-109.93 331.26,-111.62 341.82,-113.31"/>
<polygon fill="#63b8ff" stroke="#63b8ff" points="341.51,-116.81 351.94,-114.93 342.62,-109.89 341.51,-116.81"/>
</a>
</g>
</g>
<!-- Node9 -->
<g id="Node000009" class="node">
<title>Node9</title>
<g id="a_Node000009"><a xlink:href="../../dc/dc5/namespaceaopp__deconv__tool_1_1fit__psf__model.html#a1aec4e54ce24d146ec81b457a6bac94b" target="_top" xlink:title=" ">
<polygon fill="white" stroke="#666666" points="514,-89.5 355,-89.5 355,-48.5 514,-48.5 514,-89.5"/>
<text text-anchor="start" x="363" y="-77.5" font-family="Helvetica,sans-Serif" font-size="10.00">aopp_deconv_tool.fit</text>
<text text-anchor="start" x="363" y="-66.5" font-family="Helvetica,sans-Serif" font-size="10.00">_psf_model.get_new_psf</text>
<text text-anchor="middle" x="434.5" y="-55.5" font-family="Helvetica,sans-Serif" font-size="10.00">_model_dependency_injector</text>
</a>
</g>
</g>
<!-- Node8&#45;&gt;Node9 -->
<g id="edge9_Node000008_Node000009" class="edge">
<title>Node8&#45;&gt;Node9</title>
<g id="a_edge9_Node000008_Node000009"><a xlink:title=" ">
<path fill="none" stroke="#63b8ff" d="M310.77,-89.34C321.64,-87.54 333.22,-85.62 344.77,-83.71"/>
<polygon fill="#63b8ff" stroke="#63b8ff" points="345.59,-87.12 354.88,-82.03 344.45,-80.21 345.59,-87.12"/>
</a>
</g>
</g>
<!-- Node10 -->
<g id="Node000010" class="node">
<title>Node10</title>
<g id="a_Node000010"><a xlink:href="../../dc/dc5/namespaceaopp__deconv__tool_1_1fit__psf__model.html#a1a593efc94a4c078a3583f72d2c6c2af" target="_top" xlink:title=" ">
<polygon fill="white" stroke="#666666" points="498.5,-30 370.5,-30 370.5,0 498.5,0 498.5,-30"/>
<text text-anchor="start" x="378.5" y="-18" font-family="Helvetica,sans-Serif" font-size="10.00">aopp_deconv_tool.fit</text>
<text text-anchor="middle" x="434.5" y="-7" font-family="Helvetica,sans-Serif" font-size="10.00">_psf_model.plot_result</text>
</a>
</g>
</g>
<!-- Node8&#45;&gt;Node10 -->
<g id="edge10_Node000008_Node000010" class="edge">
<title>Node8&#45;&gt;Node10</title>
<g id="a_edge10_Node000008_Node000010"><a xlink:title=" ">
<path fill="none" stroke="#63b8ff" d="M274.6,-83.81C294.24,-70.83 324.08,-52.35 352,-40 357.29,-37.66 362.86,-35.45 368.51,-33.39"/>
<polygon fill="#63b8ff" stroke="#63b8ff" points="369.76,-36.66 378.05,-30.06 367.45,-30.05 369.76,-36.66"/>
</a>
</g>
</g>
</g>
</svg>

<g id="navigator" transform="translate(0 0)" fill="#404254">
  <rect fill="#f2f5e9" fill-opacity="0.5" stroke="#606060" stroke-width=".5" x="0" y="0" width="60" height="60"/>
  <use id="zoomplus" xlink:href="#zoomPlus" x="17" y="9" onmousedown="handleZoom(evt,'in')"/>
  <use id="zoomminus" xlink:href="#zoomMin" x="42" y="9" onmousedown="handleZoom(evt,'out')"/>
  <use id="reset" xlink:href="#resetDef" x="30" y="36" onmousedown="handleReset()"/>
   <use id="arrowup" xlink:href="#arrowUp" x="0" y="0" onmousedown="handlePan(0,-1)"/>
  <use id="arrowright" xlink:href="#arrowRight" x="0" y="0" onmousedown="handlePan(1,0)"/>
  <use id="arrowdown" xlink:href="#arrowDown" x="0" y="0" onmousedown="handlePan(0,1)"/>
  <use id="arrowleft" xlink:href="#arrowLeft" x="0" y="0" onmousedown="handlePan(-1,0)"/>
</g>
<svg viewBox="0 0 15 15" width="100%" height="30px" preserveAspectRatio="xMaxYMin meet">
 <g id="arrow_out" transform="scale(0.3 0.3)">
  <a xlink:href="namespaceaopp__deconv__tool_1_1fit__psf__model_a2c0d0ac24ff97340d04ba31dcb4b9c5f_cgraph_org.svg" target="_base">
   <rect id="button" ry="5" rx="5" y="6" x="6" height="38" width="38"
        fill="#f2f5e9" fill-opacity="0.5" stroke="#606060" stroke-width="1.0"/>
   <path id="arrow"
     d="M 11.500037,31.436501 C 11.940474,20.09759 22.043105,11.32322 32.158766,21.979434 L 37.068811,17.246167 C 37.068811,17.246167 37.088388,32 37.088388,32 L 22.160133,31.978069 C 22.160133,31.978069 26.997745,27.140456 26.997745,27.140456 C 18.528582,18.264221 13.291696,25.230495 11.500037,31.436501 z"
     style="fill:#404040;"/>
  </a>
 </g>
</svg>

<style type='text/css'>
<![CDATA[
[data-mouse-over-selected='false'] { opacity: 0.7; }
[data-mouse-over-selected='true']  { opacity: 1.0; }
]]>
</style>
<script type="application/ecmascript"><![CDATA[
document.addEventListener('DOMContentLoaded', (event) => {
  highlightEdges();
  highlightAdjacentNodes();
});
]]></script>
</svg>
