<?xml version="1.0" encoding="UTF-8" standalone="no"?>
<!DOCTYPE svg PUBLIC "-//W3C//DTD SVG 1.1//EN"
 "http://www.w3.org/Graphics/SVG/1.1/DTD/svg11.dtd">
<!-- Generated by graphviz version 2.43.0 (0)
 -->
<!-- Title: aopp_deconv_tool.fit_psf_model.run Pages: 1 -->
<svg width="498pt" height="220pt"
 viewBox="0.00 0.00 498.00 220.00" xmlns="http://www.w3.org/2000/svg" xmlns:xlink="http://www.w3.org/1999/xlink">
<g id="graph0" class="graph" transform="scale(1 1) rotate(0) translate(4 216)">
<title>aopp_deconv_tool.fit_psf_model.run</title>
<!-- Node1 -->
<g id="node1" class="node">
<title>Node1</title>
<g id="a_node1"><a xlink:title=" ">
<polygon fill="#bfbfbf" stroke="black" points="0,-88 0,-118 119,-118 119,-88 0,-88"/>
<text text-anchor="start" x="8" y="-106" font-family="Helvetica,sans-Serif" font-size="10.00">aopp_deconv_tool.fit</text>
<text text-anchor="middle" x="59.5" y="-95" font-family="Helvetica,sans-Serif" font-size="10.00">_psf_model.run</text>
</a>
</g>
</g>
<!-- Node2 -->
<g id="node2" class="node">
<title>Node2</title>
<g id="a_node2"><a xlink:href="../../d1/d0d/namespaceaopp__deconv__tool_1_1optimise__compat_1_1ultranest__compat.html#a41eac4baa2f2a3934983adcee045b072" target="_top" xlink:title=" ">
<polygon fill="none" stroke="black" points="155,-170.5 155,-211.5 334,-211.5 334,-170.5 155,-170.5"/>
<text text-anchor="start" x="163" y="-199.5" font-family="Helvetica,sans-Serif" font-size="10.00">aopp_deconv_tool.optimise</text>
<text text-anchor="start" x="163" y="-188.5" font-family="Helvetica,sans-Serif" font-size="10.00">_compat.ultranest_compat.fitting</text>
<text text-anchor="middle" x="244.5" y="-177.5" font-family="Helvetica,sans-Serif" font-size="10.00">_function_factory</text>
</a>
</g>
</g>
<!-- Node1&#45;&gt;Node2 -->
<g id="edge1" class="edge">
<title>Node1&#45;&gt;Node2</title>
<path fill="none" stroke="midnightblue" d="M81.87,-118.04C100.54,-130.69 128.68,-148.65 155,-161 159.27,-163 163.72,-164.94 168.24,-166.8"/>
<polygon fill="midnightblue" stroke="midnightblue" points="167.02,-170.08 177.6,-170.5 169.59,-163.57 167.02,-170.08"/>
</g>
<!-- Node3 -->
<g id="node3" class="node">
<title>Node3</title>
<g id="a_node3"><a xlink:href="../../dc/dc5/namespaceaopp__deconv__tool_1_1fit__psf__model.html#a6b4604cf8f0fef48a3f722dd8d60ff78" target="_top" xlink:title=" ">
<polygon fill="none" stroke="black" points="165,-110.5 165,-151.5 324,-151.5 324,-110.5 165,-110.5"/>
<text text-anchor="start" x="173" y="-139.5" font-family="Helvetica,sans-Serif" font-size="10.00">aopp_deconv_tool.fit</text>
<text text-anchor="start" x="173" y="-128.5" font-family="Helvetica,sans-Serif" font-size="10.00">_psf_model.get_new_psf</text>
<text text-anchor="middle" x="244.5" y="-117.5" font-family="Helvetica,sans-Serif" font-size="10.00">_model_dependency_injector</text>
</a>
</g>
</g>
<!-- Node1&#45;&gt;Node3 -->
<g id="edge2" class="edge">
<title>Node1&#45;&gt;Node3</title>
<path fill="none" stroke="midnightblue" d="M119.16,-111.97C130.51,-113.71 142.64,-115.57 154.71,-117.41"/>
<polygon fill="midnightblue" stroke="midnightblue" points="154.4,-120.91 164.81,-118.96 155.46,-113.99 154.4,-120.91"/>
</g>
<!-- Node4 -->
<g id="node4" class="node">
<title>Node4</title>
<g id="a_node4"><a xlink:href="../../dc/dc5/namespaceaopp__deconv__tool_1_1fit__psf__model.html#a60e96d5e90494e5e63d1860dd3b3918c" target="_top" xlink:title=" ">
<polygon fill="none" stroke="black" points="180.5,-61 180.5,-91 308.5,-91 308.5,-61 180.5,-61"/>
<text text-anchor="start" x="188.5" y="-79" font-family="Helvetica,sans-Serif" font-size="10.00">aopp_deconv_tool.fit</text>
<text text-anchor="middle" x="244.5" y="-68" font-family="Helvetica,sans-Serif" font-size="10.00">_psf_model.plot_result</text>
</a>
</g>
</g>
<!-- Node1&#45;&gt;Node4 -->
<g id="edge3" class="edge">
<title>Node1&#45;&gt;Node4</title>
<path fill="none" stroke="midnightblue" d="M119.16,-94.35C135.5,-91.93 153.45,-89.29 170.51,-86.77"/>
<polygon fill="midnightblue" stroke="midnightblue" points="171.05,-90.23 180.43,-85.3 170.03,-83.3 171.05,-90.23"/>
</g>
<!-- Node6 -->
<g id="node6" class="node">
<title>Node6</title>
<g id="a_node6"><a xlink:href="../../dc/dc5/namespaceaopp__deconv__tool_1_1fit__psf__model.html#ac109592a0c27513206fa61f31b27a5e6" target="_top" xlink:title=" ">
<polygon fill="none" stroke="black" points="162,-0.5 162,-41.5 327,-41.5 327,-0.5 162,-0.5"/>
<text text-anchor="start" x="170" y="-29.5" font-family="Helvetica,sans-Serif" font-size="10.00">aopp_deconv_tool.fit</text>
<text text-anchor="start" x="170" y="-18.5" font-family="Helvetica,sans-Serif" font-size="10.00">_psf_model.set_psf_model</text>
<text text-anchor="middle" x="244.5" y="-7.5" font-family="Helvetica,sans-Serif" font-size="10.00">_dependency_injector_params</text>
</a>
</g>
</g>
<!-- Node1&#45;&gt;Node6 -->
<g id="edge5" class="edge">
<title>Node1&#45;&gt;Node6</title>
<path fill="none" stroke="midnightblue" d="M86.02,-87.8C104.73,-77.01 130.95,-62.62 155,-52 160.25,-49.68 165.73,-47.42 171.27,-45.23"/>
<polygon fill="midnightblue" stroke="midnightblue" points="172.57,-48.48 180.65,-41.63 170.06,-41.95 172.57,-48.48"/>
</g>
<!-- Node5 -->
<g id="node5" class="node">
<title>Node5</title>
<g id="a_node5"><a xlink:href="../../da/dfc/namespaceaopp__deconv__tool_1_1py__svd.html#a25823459e22f98cda9bd9a0b4cea09a1" target="_top" xlink:title=" ">
<polygon fill="none" stroke="black" points="370,-61 370,-91 490,-91 490,-61 370,-61"/>
<text text-anchor="start" x="378" y="-79" font-family="Helvetica,sans-Serif" font-size="10.00">aopp_deconv_tool.py</text>
<text text-anchor="middle" x="430" y="-68" font-family="Helvetica,sans-Serif" font-size="10.00">_svd.plot</text>
</a>
</g>
</g>
<!-- Node4&#45;&gt;Node5 -->
<g id="edge4" class="edge">
<title>Node4&#45;&gt;Node5</title>
<path fill="none" stroke="midnightblue" d="M308.65,-76C325.05,-76 342.8,-76 359.51,-76"/>
<polygon fill="midnightblue" stroke="midnightblue" points="359.75,-79.5 369.75,-76 359.75,-72.5 359.75,-79.5"/>
</g>
</g>
</svg>
