<?xml version="1.0" encoding="UTF-8" standalone="no"?>
<!DOCTYPE svg PUBLIC "-//W3C//DTD SVG 1.1//EN"
 "http://www.w3.org/Graphics/SVG/1.1/DTD/svg11.dtd">
<!-- Generated by graphviz version 2.43.0 (0)
 -->
<!-- Title: aopp_deconv_tool.graphical_frontends.ssa_filtering.RadioButtons.set_value Pages: 1 -->
<svg width="758pt" height="86pt"
 viewBox="0.00 0.00 758.00 86.00" xmlns="http://www.w3.org/2000/svg" xmlns:xlink="http://www.w3.org/1999/xlink">
<g id="graph0" class="graph" transform="scale(1 1) rotate(0) translate(4 82)">
<title>aopp_deconv_tool.graphical_frontends.ssa_filtering.RadioButtons.set_value</title>
<!-- Node1 -->
<g id="Node000001" class="node">
<title>Node1</title>
<g id="a_Node000001"><a xlink:title=" ">
<polygon fill="#999999" stroke="#666666" points="750,-54 501,-54 501,-24 750,-24 750,-54"/>
<text text-anchor="start" x="509" y="-42" font-family="Helvetica,sans-Serif" font-size="10.00">aopp_deconv_tool.graphical</text>
<text text-anchor="middle" x="625.5" y="-31" font-family="Helvetica,sans-Serif" font-size="10.00">_frontends.ssa_filtering.RadioButtons.set_value</text>
</a>
</g>
</g>
<!-- Node2 -->
<g id="Node000002" class="node">
<title>Node2</title>
<g id="a_Node000002"><a xlink:href="../../d5/d53/classaopp__deconv__tool_1_1graphical__frontends_1_1ssa__filtering_1_1Slider.html#ac053deeaf27504aac90059d271548268" target="_top" xlink:title=" ">
<polygon fill="white" stroke="#666666" points="463.5,-78 251.5,-78 251.5,-48 463.5,-48 463.5,-78"/>
<text text-anchor="start" x="259.5" y="-66" font-family="Helvetica,sans-Serif" font-size="10.00">aopp_deconv_tool.graphical</text>
<text text-anchor="middle" x="357.5" y="-55" font-family="Helvetica,sans-Serif" font-size="10.00">_frontends.ssa_filtering.Slider.set_limits</text>
</a>
</g>
</g>
<!-- Node1&#45;&gt;Node2 -->
<g id="edge1_Node000001_Node000002" class="edge">
<title>Node1&#45;&gt;Node2</title>
<g id="a_edge1_Node000001_Node000002"><a xlink:title=" ">
<path fill="none" stroke="#63b8ff" d="M490.88,-51.06C481.7,-51.88 472.51,-52.71 463.51,-53.53"/>
<polygon fill="#63b8ff" stroke="#63b8ff" points="491.2,-54.54 500.84,-50.16 490.57,-47.57 491.2,-54.54"/>
</a>
</g>
</g>
<!-- Node4 -->
<g id="Node000004" class="node">
<title>Node4</title>
<g id="a_Node000004"><a xlink:href="../../dc/d2e/classaopp__deconv__tool_1_1graphical__frontends_1_1ssa__filtering_1_1Range.html#ad2d49047d340c025b38fe5f7a8ac6b17" target="_top" xlink:title=" ">
<polygon fill="white" stroke="#666666" points="465,-30 250,-30 250,0 465,0 465,-30"/>
<text text-anchor="start" x="258" y="-18" font-family="Helvetica,sans-Serif" font-size="10.00">aopp_deconv_tool.graphical</text>
<text text-anchor="middle" x="357.5" y="-7" font-family="Helvetica,sans-Serif" font-size="10.00">_frontends.ssa_filtering.Range.set_limits</text>
</a>
</g>
</g>
<!-- Node1&#45;&gt;Node4 -->
<g id="edge4_Node000001_Node000004" class="edge">
<title>Node1&#45;&gt;Node4</title>
<g id="a_edge4_Node000001_Node000004"><a xlink:title=" ">
<path fill="none" stroke="#63b8ff" d="M490.76,-26.93C482.16,-26.16 473.56,-25.38 465.11,-24.62"/>
<polygon fill="#63b8ff" stroke="#63b8ff" points="490.57,-30.43 500.84,-27.84 491.2,-23.46 490.57,-30.43"/>
</a>
</g>
</g>
<!-- Node3 -->
<g id="Node000003" class="node">
<title>Node3</title>
<g id="a_Node000003"><a xlink:href="../../d5/d53/classaopp__deconv__tool_1_1graphical__frontends_1_1ssa__filtering_1_1Slider.html#ac3e9379fd1ef597ccb25e7a848f9dbd6" target="_top" xlink:title=" ">
<polygon fill="white" stroke="#666666" points="214,-54 0,-54 0,-24 214,-24 214,-54"/>
<text text-anchor="start" x="8" y="-42" font-family="Helvetica,sans-Serif" font-size="10.00">aopp_deconv_tool.graphical</text>
<text text-anchor="middle" x="107" y="-31" font-family="Helvetica,sans-Serif" font-size="10.00">_frontends.ssa_filtering.Slider.set_active</text>
</a>
</g>
</g>
<!-- Node2&#45;&gt;Node3 -->
<g id="edge2_Node000002_Node000003" class="edge">
<title>Node2&#45;&gt;Node3</title>
<g id="a_edge2_Node000002_Node000003"><a xlink:title=" ">
<path fill="none" stroke="#63b8ff" d="M241.32,-51.88C232.29,-51 223.2,-50.13 214.24,-49.26"/>
<polygon fill="#63b8ff" stroke="#63b8ff" points="241.18,-55.38 251.47,-52.86 241.86,-48.41 241.18,-55.38"/>
</a>
</g>
</g>
<!-- Node3&#45;&gt;Node3 -->
<g id="edge3_Node000003_Node000003" class="edge">
<title>Node3&#45;&gt;Node3</title>
<g id="a_edge3_Node000003_Node000003"><a xlink:title=" ">
<path fill="none" stroke="#63b8ff" d="M150.76,-64.6C144.78,-68.97 130.19,-72 107,-72 67.94,-72 53.29,-63.41 63.05,-54.28"/>
<polygon fill="#63b8ff" stroke="#63b8ff" points="154.26,-64.34 150.95,-54.28 147.27,-64.21 154.26,-64.34"/>
</a>
</g>
</g>
<!-- Node4&#45;&gt;Node3 -->
<g id="edge5_Node000004_Node000003" class="edge">
<title>Node4&#45;&gt;Node3</title>
<g id="a_edge5_Node000004_Node000003"><a xlink:title=" ">
<path fill="none" stroke="#63b8ff" d="M239.48,-26.3C231.09,-27.11 222.66,-27.93 214.34,-28.73"/>
<polygon fill="#63b8ff" stroke="#63b8ff" points="240.05,-29.76 249.67,-25.32 239.38,-22.8 240.05,-29.76"/>
</a>
</g>
</g>
</g>
</svg>
