<?xml version="1.0" encoding="UTF-8" standalone="no"?>
<!DOCTYPE svg PUBLIC "-//W3C//DTD SVG 1.1//EN"
 "http://www.w3.org/Graphics/SVG/1.1/DTD/svg11.dtd">
<!-- Generated by graphviz version 2.43.0 (0)
 -->
<!-- Title: aopp_deconv_tool.graphical_frontends.ssa_filtering.RadioButtons.get_value Pages: 1 -->
<svg width="1050pt" height="163pt"
 viewBox="0.00 0.00 1050.00 162.50" xmlns="http://www.w3.org/2000/svg" xmlns:xlink="http://www.w3.org/1999/xlink">
<g id="graph0" class="graph" transform="scale(1 1) rotate(0) translate(4 158.5)">
<title>aopp_deconv_tool.graphical_frontends.ssa_filtering.RadioButtons.get_value</title>
<!-- Node1 -->
<g id="node1" class="node">
<title>Node1</title>
<g id="a_node1"><a xlink:title=" ">
<polygon fill="#bfbfbf" stroke="black" points="791,-47.5 791,-77.5 1042,-77.5 1042,-47.5 791,-47.5"/>
<text text-anchor="start" x="799" y="-65.5" font-family="Helvetica,sans-Serif" font-size="10.00">aopp_deconv_tool.graphical</text>
<text text-anchor="middle" x="916.5" y="-54.5" font-family="Helvetica,sans-Serif" font-size="10.00">_frontends.ssa_filtering.RadioButtons.get_value</text>
</a>
</g>
</g>
<!-- Node2 -->
<g id="node2" class="node">
<title>Node2</title>
<g id="a_node2"><a xlink:href="../../d2/d2f/classaopp__deconv__tool_1_1graphical__frontends_1_1ssa__filtering_1_1CheckButtons.html#a52acbae3dc5ad39b177e3b49b9fa5eb5" target="_top" xlink:title=" ">
<polygon fill="none" stroke="black" points="520.5,-113 520.5,-154 737.5,-154 737.5,-113 520.5,-113"/>
<text text-anchor="start" x="528.5" y="-142" font-family="Helvetica,sans-Serif" font-size="10.00">aopp_deconv_tool.graphical</text>
<text text-anchor="start" x="528.5" y="-131" font-family="Helvetica,sans-Serif" font-size="10.00">_frontends.ssa_filtering.CheckButtons.on</text>
<text text-anchor="middle" x="629" y="-120" font-family="Helvetica,sans-Serif" font-size="10.00">_clicked</text>
</a>
</g>
</g>
<!-- Node1&#45;&gt;Node2 -->
<g id="edge1" class="edge">
<title>Node1&#45;&gt;Node2</title>
<path fill="none" stroke="midnightblue" d="M845,-80.03C804.94,-89.99 754.58,-102.52 712.66,-112.94"/>
<polygon fill="midnightblue" stroke="midnightblue" points="846.09,-83.37 854.95,-77.56 844.4,-76.57 846.09,-83.37"/>
</g>
<!-- Node3 -->
<g id="node3" class="node">
<title>Node3</title>
<g id="a_node3"><a xlink:href="../../d5/d53/classaopp__deconv__tool_1_1graphical__frontends_1_1ssa__filtering_1_1Slider.html#a5478390a8acd2e82c176345e7f6a9ef3" target="_top" xlink:title=" ">
<polygon fill="none" stroke="black" points="252.5,-49.5 252.5,-79.5 465.5,-79.5 465.5,-49.5 252.5,-49.5"/>
<text text-anchor="start" x="260.5" y="-67.5" font-family="Helvetica,sans-Serif" font-size="10.00">aopp_deconv_tool.graphical</text>
<text text-anchor="middle" x="359" y="-56.5" font-family="Helvetica,sans-Serif" font-size="10.00">_frontends.ssa_filtering.Slider.set_limits</text>
</a>
</g>
</g>
<!-- Node1&#45;&gt;Node3 -->
<g id="edge2" class="edge">
<title>Node1&#45;&gt;Node3</title>
<path fill="none" stroke="midnightblue" d="M780.49,-64.3C771.87,-64.38 763.31,-64.45 755,-64.5 656.94,-65.11 545.18,-65.04 465.62,-64.86"/>
<polygon fill="midnightblue" stroke="midnightblue" points="780.68,-67.8 790.64,-64.21 780.61,-60.8 780.68,-67.8"/>
</g>
<!-- Node5 -->
<g id="node5" class="node">
<title>Node5</title>
<g id="a_node5"><a xlink:href="../../dc/d2e/classaopp__deconv__tool_1_1graphical__frontends_1_1ssa__filtering_1_1Range.html#a756766852c014c8d0e404adc35cb042e" target="_top" xlink:title=" ">
<polygon fill="none" stroke="black" points="251,-0.5 251,-30.5 467,-30.5 467,-0.5 251,-0.5"/>
<text text-anchor="start" x="259" y="-18.5" font-family="Helvetica,sans-Serif" font-size="10.00">aopp_deconv_tool.graphical</text>
<text text-anchor="middle" x="359" y="-7.5" font-family="Helvetica,sans-Serif" font-size="10.00">_frontends.ssa_filtering.Range.set_limits</text>
</a>
</g>
</g>
<!-- Node1&#45;&gt;Node5 -->
<g id="edge4" class="edge">
<title>Node1&#45;&gt;Node5</title>
<path fill="none" stroke="midnightblue" d="M866.17,-44.09C834.83,-33.39 793.12,-20.97 755,-15.5 658.27,-1.63 546.84,-3.2 467.04,-7.32"/>
<polygon fill="midnightblue" stroke="midnightblue" points="865.37,-47.51 875.96,-47.49 867.67,-40.9 865.37,-47.51"/>
</g>
<!-- Node6 -->
<g id="node6" class="node">
<title>Node6</title>
<g id="a_node6"><a xlink:href="../../d2/d2f/classaopp__deconv__tool_1_1graphical__frontends_1_1ssa__filtering_1_1CheckButtons.html#a83863b3a66516dfbfb8b24ae4c16e49e" target="_top" xlink:title=" ">
<polygon fill="none" stroke="black" points="503,-25.5 503,-55.5 755,-55.5 755,-25.5 503,-25.5"/>
<text text-anchor="start" x="511" y="-43.5" font-family="Helvetica,sans-Serif" font-size="10.00">aopp_deconv_tool.graphical</text>
<text text-anchor="middle" x="629" y="-32.5" font-family="Helvetica,sans-Serif" font-size="10.00">_frontends.ssa_filtering.CheckButtons.set_value</text>
</a>
</g>
</g>
<!-- Node1&#45;&gt;Node6 -->
<g id="edge6" class="edge">
<title>Node1&#45;&gt;Node6</title>
<path fill="none" stroke="midnightblue" d="M780.51,-52.1C772.14,-51.45 763.74,-50.81 755.41,-50.16"/>
<polygon fill="midnightblue" stroke="midnightblue" points="780.45,-55.6 790.69,-52.88 780.99,-48.62 780.45,-55.6"/>
</g>
<!-- Node4 -->
<g id="node4" class="node">
<title>Node4</title>
<g id="a_node4"><a xlink:href="../../d5/d53/classaopp__deconv__tool_1_1graphical__frontends_1_1ssa__filtering_1_1Slider.html#a45f75660c170690f2f336e1f51766a45" target="_top" xlink:title=" ">
<polygon fill="none" stroke="black" points="0,-24.5 0,-54.5 215,-54.5 215,-24.5 0,-24.5"/>
<text text-anchor="start" x="8" y="-42.5" font-family="Helvetica,sans-Serif" font-size="10.00">aopp_deconv_tool.graphical</text>
<text text-anchor="middle" x="107.5" y="-31.5" font-family="Helvetica,sans-Serif" font-size="10.00">_frontends.ssa_filtering.Slider.set_active</text>
</a>
</g>
</g>
<!-- Node3&#45;&gt;Node4 -->
<g id="edge3" class="edge">
<title>Node3&#45;&gt;Node4</title>
<path fill="none" stroke="midnightblue" d="M242.12,-52.89C233.17,-51.99 224.16,-51.09 215.27,-50.2"/>
<polygon fill="midnightblue" stroke="midnightblue" points="241.89,-56.38 252.19,-53.9 242.59,-49.42 241.89,-56.38"/>
</g>
<!-- Node5&#45;&gt;Node4 -->
<g id="edge5" class="edge">
<title>Node5&#45;&gt;Node4</title>
<path fill="none" stroke="midnightblue" d="M240.78,-26.78C232.27,-27.59 223.72,-28.42 215.27,-29.23"/>
<polygon fill="midnightblue" stroke="midnightblue" points="241.12,-30.26 250.74,-25.82 240.45,-23.29 241.12,-30.26"/>
</g>
<!-- Node6&#45;&gt;Node3 -->
<g id="edge7" class="edge">
<title>Node6&#45;&gt;Node3</title>
<path fill="none" stroke="midnightblue" d="M492.45,-52.64C483.43,-53.45 474.41,-54.25 465.57,-55.05"/>
<polygon fill="midnightblue" stroke="midnightblue" points="492.98,-56.11 502.63,-51.73 492.36,-49.13 492.98,-56.11"/>
</g>
<!-- Node6&#45;&gt;Node5 -->
<g id="edge8" class="edge">
<title>Node6&#45;&gt;Node5</title>
<path fill="none" stroke="midnightblue" d="M492.62,-27.87C484.08,-27.08 475.56,-26.28 467.18,-25.5"/>
<polygon fill="midnightblue" stroke="midnightblue" points="492.35,-31.36 502.63,-28.81 493,-24.39 492.35,-31.36"/>
</g>
</g>
</svg>
