<?xml version="1.0" encoding="UTF-8" standalone="no"?>
<!DOCTYPE svg PUBLIC "-//W3C//DTD SVG 1.1//EN"
 "http://www.w3.org/Graphics/SVG/1.1/DTD/svg11.dtd">
<!-- Generated by graphviz version 2.43.0 (0)
 -->
<!-- Title: aopp_deconv_tool.geometry.shape.Circle Pages: 1 -->
<svg width="326pt" height="258pt"
 viewBox="0.00 0.00 326.00 258.00" xmlns="http://www.w3.org/2000/svg" xmlns:xlink="http://www.w3.org/1999/xlink">
<g id="graph0" class="graph" transform="scale(1 1) rotate(0) translate(4 254)">
<title>aopp_deconv_tool.geometry.shape.Circle</title>
<!-- Node1 -->
<g id="Node000001" class="node">
<title>Node1</title>
<g id="a_Node000001"><a xlink:title=" ">
<polygon fill="#999999" stroke="#666666" points="318,-30 129,-30 129,0 318,0 318,-30"/>
<text text-anchor="start" x="137" y="-18" font-family="Helvetica,sans-Serif" font-size="10.00">aopp_deconv_tool.geometry.shape.</text>
<text text-anchor="middle" x="223.5" y="-7" font-family="Helvetica,sans-Serif" font-size="10.00">Circle</text>
</a>
</g>
</g>
<!-- Node2 -->
<g id="Node000002" class="node">
<title>Node2</title>
<g id="a_Node000002"><a xlink:href="../../dc/dde/classaopp__deconv__tool_1_1geometry_1_1shape_1_1PolyShape.html" target="_top" xlink:title=" ">
<polygon fill="white" stroke="#666666" points="252,-107 63,-107 63,-77 252,-77 252,-107"/>
<text text-anchor="start" x="71" y="-95" font-family="Helvetica,sans-Serif" font-size="10.00">aopp_deconv_tool.geometry.shape.</text>
<text text-anchor="middle" x="157.5" y="-84" font-family="Helvetica,sans-Serif" font-size="10.00">PolyShape</text>
</a>
</g>
</g>
<!-- Node2&#45;&gt;Node1 -->
<g id="edge1_Node000001_Node000002" class="edge">
<title>Node2&#45;&gt;Node1</title>
<g id="a_edge1_Node000001_Node000002"><a xlink:title=" ">
<path fill="none" stroke="#63b8ff" d="M176.77,-69.1C187.87,-56.49 201.48,-41.03 211.14,-30.04"/>
<polygon fill="#63b8ff" stroke="#63b8ff" points="173.89,-67.07 169.91,-76.89 179.15,-71.7 173.89,-67.07"/>
</a>
</g>
</g>
<!-- Node3 -->
<g id="Node000003" class="node">
<title>Node3</title>
<g id="a_Node000003"><a xlink:href="../../d2/dbe/classaopp__deconv__tool_1_1geometry_1_1shape_1_1GeoShape.html" target="_top" xlink:title=" ">
<polygon fill="white" stroke="#666666" points="189,-184 0,-184 0,-154 189,-154 189,-184"/>
<text text-anchor="start" x="8" y="-172" font-family="Helvetica,sans-Serif" font-size="10.00">aopp_deconv_tool.geometry.shape.</text>
<text text-anchor="middle" x="94.5" y="-161" font-family="Helvetica,sans-Serif" font-size="10.00">GeoShape</text>
</a>
</g>
</g>
<!-- Node3&#45;&gt;Node2 -->
<g id="edge2_Node000002_Node000003" class="edge">
<title>Node3&#45;&gt;Node2</title>
<g id="a_edge2_Node000002_Node000003"><a xlink:title=" ">
<path fill="none" stroke="#63b8ff" d="M112.9,-146.1C123.49,-133.49 136.48,-118.03 145.7,-107.04"/>
<polygon fill="#63b8ff" stroke="#63b8ff" points="110.1,-143.98 106.35,-153.89 115.46,-148.49 110.1,-143.98"/>
</a>
</g>
</g>
<!-- Node4 -->
<g id="Node000004" class="node">
<title>Node4</title>
<g id="a_Node000004"><a xlink:title=" ">
<polygon fill="white" stroke="#666666" points="122.5,-250 66.5,-250 66.5,-231 122.5,-231 122.5,-250"/>
<text text-anchor="middle" x="94.5" y="-238" font-family="Helvetica,sans-Serif" font-size="10.00">Callable</text>
</a>
</g>
</g>
<!-- Node4&#45;&gt;Node3 -->
<g id="edge3_Node000003_Node000004" class="edge">
<title>Node4&#45;&gt;Node3</title>
<g id="a_edge3_Node000003_Node000004"><a xlink:title=" ">
<path fill="none" stroke="#9a32cd" stroke-dasharray="5,2" d="M94.5,-220.71C94.5,-209.19 94.5,-194.68 94.5,-184.14"/>
<polygon fill="#9a32cd" stroke="#9a32cd" points="91,-220.98 94.5,-230.98 98,-220.98 91,-220.98"/>
</a>
</g>
<text text-anchor="middle" x="112" y="-205" font-family="Helvetica,sans-Serif" font-size="10.00" fill="grey"> metric</text>
</g>
<!-- Node5 -->
<g id="Node000005" class="node">
<title>Node5</title>
<g id="a_Node000005"><a xlink:title=" ">
<polygon fill="white" stroke="#666666" points="236,-178.5 207,-178.5 207,-159.5 236,-159.5 236,-178.5"/>
<text text-anchor="middle" x="221.5" y="-166.5" font-family="Helvetica,sans-Serif" font-size="10.00">np</text>
</a>
</g>
</g>
<!-- Node5&#45;&gt;Node2 -->
<g id="edge4_Node000002_Node000005" class="edge">
<title>Node5&#45;&gt;Node2</title>
<g id="a_edge4_Node000002_Node000005"><a xlink:title=" ">
<path fill="none" stroke="#9a32cd" stroke-dasharray="5,2" d="M207.44,-151.53C196.1,-138.23 180.31,-119.73 169.54,-107.11"/>
<polygon fill="#9a32cd" stroke="#9a32cd" points="205,-154.06 214.16,-159.4 210.33,-149.52 205,-154.06"/>
</a>
</g>
<text text-anchor="middle" x="210.5" y="-128" font-family="Helvetica,sans-Serif" font-size="10.00" fill="grey"> centre</text>
</g>
<!-- Node6 -->
<g id="Node000006" class="node">
<title>Node6</title>
<g id="a_Node000006"><a xlink:title=" ">
<polygon fill="white" stroke="#666666" points="308.5,-101.5 270.5,-101.5 270.5,-82.5 308.5,-82.5 308.5,-101.5"/>
<text text-anchor="middle" x="289.5" y="-89.5" font-family="Helvetica,sans-Serif" font-size="10.00">float</text>
</a>
</g>
</g>
<!-- Node6&#45;&gt;Node1 -->
<g id="edge5_Node000001_Node000006" class="edge">
<title>Node6&#45;&gt;Node1</title>
<g id="a_edge5_Node000001_Node000006"><a xlink:title=" ">
<path fill="none" stroke="#9a32cd" stroke-dasharray="5,2" d="M275,-74.53C263.31,-61.23 247.02,-42.73 235.92,-30.11"/>
<polygon fill="#9a32cd" stroke="#9a32cd" points="272.7,-77.2 281.93,-82.4 277.95,-72.58 272.7,-77.2"/>
</a>
</g>
<text text-anchor="middle" x="276.5" y="-51" font-family="Helvetica,sans-Serif" font-size="10.00" fill="grey"> radius</text>
</g>
</g>
</svg>
