<?xml version="1.0" encoding="UTF-8" standalone="no"?>
<!DOCTYPE svg PUBLIC "-//W3C//DTD SVG 1.1//EN"
 "http://www.w3.org/Graphics/SVG/1.1/DTD/svg11.dtd">
<!-- Generated by graphviz version 2.43.0 (0)
 -->
<!-- Title: aopp_deconv_tool.create_bad_pixel_mask.Attr Pages: 1 -->
<svg width="147pt" height="104pt"
 viewBox="0.00 0.00 147.00 104.00" xmlns="http://www.w3.org/2000/svg" xmlns:xlink="http://www.w3.org/1999/xlink">
<g id="graph0" class="graph" transform="scale(1 1) rotate(0) translate(4 100)">
<title>aopp_deconv_tool.create_bad_pixel_mask.Attr</title>
<!-- Node1 -->
<g id="Node000001" class="node">
<title>Node1</title>
<g id="a_Node000001"><a xlink:title=" ">
<polygon fill="#999999" stroke="#666666" points="139,-30 0,-30 0,0 139,0 139,-30"/>
<text text-anchor="start" x="8" y="-18" font-family="Helvetica,sans-Serif" font-size="10.00">aopp_deconv_tool.create</text>
<text text-anchor="middle" x="69.5" y="-7" font-family="Helvetica,sans-Serif" font-size="10.00">_bad_pixel_mask.Attr</text>
</a>
</g>
</g>
<!-- Node2 -->
<g id="Node000002" class="node">
<title>Node2</title>
<g id="a_Node000002"><a xlink:title=" ">
<polygon fill="white" stroke="#666666" points="63,-96 24,-96 24,-77 63,-77 63,-96"/>
<text text-anchor="middle" x="43.5" y="-84" font-family="Helvetica,sans-Serif" font-size="10.00">Type</text>
</a>
</g>
</g>
<!-- Node2&#45;&gt;Node1 -->
<g id="edge1_Node000001_Node000002" class="edge">
<title>Node2&#45;&gt;Node1</title>
<g id="a_edge1_Node000001_Node000002"><a xlink:title=" ">
<path fill="none" stroke="#9a32cd" stroke-dasharray="5,2" d="M44.33,-66.84C45.04,-60.69 46.29,-53.92 48.5,-48 50.82,-41.77 54.53,-35.53 58.19,-30.23"/>
<polygon fill="#9a32cd" stroke="#9a32cd" points="40.84,-66.66 43.57,-76.9 47.82,-67.19 40.84,-66.66"/>
</a>
</g>
<text text-anchor="middle" x="61" y="-51" font-family="Helvetica,sans-Serif" font-size="10.00" fill="grey"> type</text>
</g>
<!-- Node3 -->
<g id="Node000003" class="node">
<title>Node3</title>
<g id="a_Node000003"><a xlink:title=" ">
<polygon fill="white" stroke="#666666" points="110,-96 81,-96 81,-77 110,-77 110,-96"/>
<text text-anchor="middle" x="95.5" y="-84" font-family="Helvetica,sans-Serif" font-size="10.00">np</text>
</a>
</g>
</g>
<!-- Node3&#45;&gt;Node1 -->
<g id="edge2_Node000001_Node000003" class="edge">
<title>Node3&#45;&gt;Node1</title>
<g id="a_edge2_Node000001_Node000003"><a xlink:title=" ">
<path fill="none" stroke="#9a32cd" stroke-dasharray="5,2" d="M88.74,-67.43C84.39,-55.8 78.82,-40.9 74.79,-30.14"/>
<polygon fill="#9a32cd" stroke="#9a32cd" points="85.53,-68.84 92.31,-76.98 92.09,-66.39 85.53,-68.84"/>
</a>
</g>
<text text-anchor="middle" x="102.5" y="-51" font-family="Helvetica,sans-Serif" font-size="10.00" fill="grey"> values</text>
</g>
</g>
</svg>
