<?xml version="1.0" encoding="UTF-8" standalone="no"?>
<!DOCTYPE svg PUBLIC "-//W3C//DTD SVG 1.1//EN"
 "http://www.w3.org/Graphics/SVG/1.1/DTD/svg11.dtd">
<!-- Generated by graphviz version 2.43.0 (0)
 -->
<!-- Title: aopp_deconv_tool.plot_helper.plotters.IterativeLogLineGraph Pages: 1 -->
<svg width="969pt" height="292pt"
 viewBox="0.00 0.00 968.52 292.00" xmlns="http://www.w3.org/2000/svg" xmlns:xlink="http://www.w3.org/1999/xlink">
<g id="graph0" class="graph" transform="scale(1 1) rotate(0) translate(4 288)">
<title>aopp_deconv_tool.plot_helper.plotters.IterativeLogLineGraph</title>
<!-- Node1 -->
<g id="Node000001" class="node">
<title>Node1</title>
<g id="a_Node000001"><a xlink:title=" ">
<polygon fill="#999999" stroke="#666666" points="319.52,-41 165.52,-41 165.52,0 319.52,0 319.52,-41"/>
<text text-anchor="start" x="173.52" y="-29" font-family="Helvetica,sans-Serif" font-size="10.00">aopp_deconv_tool.plot</text>
<text text-anchor="start" x="173.52" y="-18" font-family="Helvetica,sans-Serif" font-size="10.00">_helper.plotters.IterativeLog</text>
<text text-anchor="middle" x="242.52" y="-7" font-family="Helvetica,sans-Serif" font-size="10.00">LineGraph</text>
</a>
</g>
</g>
<!-- Node2 -->
<g id="Node000002" class="node">
<title>Node2</title>
<g id="a_Node000002"><a xlink:href="../../d4/d23/classaopp__deconv__tool_1_1plot__helper_1_1plotters_1_1IterativeLineGraph.html" target="_top" xlink:title=" ">
<polygon fill="white" stroke="#666666" points="321.02,-119 164.02,-119 164.02,-78 321.02,-78 321.02,-119"/>
<text text-anchor="start" x="172.02" y="-107" font-family="Helvetica,sans-Serif" font-size="10.00">aopp_deconv_tool.plot</text>
<text text-anchor="start" x="172.02" y="-96" font-family="Helvetica,sans-Serif" font-size="10.00">_helper.plotters.IterativeLine</text>
<text text-anchor="middle" x="242.52" y="-85" font-family="Helvetica,sans-Serif" font-size="10.00">Graph</text>
</a>
</g>
</g>
<!-- Node2&#45;&gt;Node1 -->
<g id="edge1_Node000001_Node000002" class="edge">
<title>Node2&#45;&gt;Node1</title>
<g id="a_edge1_Node000001_Node000002"><a xlink:title=" ">
<path fill="none" stroke="#63b8ff" d="M242.52,-67.8C242.52,-58.8 242.52,-49.15 242.52,-41.01"/>
<polygon fill="#63b8ff" stroke="#63b8ff" points="239.02,-67.93 242.52,-77.93 246.02,-67.93 239.02,-67.93"/>
</a>
</g>
</g>
<!-- Node3 -->
<g id="Node000003" class="node">
<title>Node3</title>
<g id="a_Node000003"><a xlink:href="../../d4/d84/classaopp__deconv__tool_1_1plot__helper_1_1base_1_1Base.html" target="_top" xlink:title=" ">
<polygon fill="white" stroke="#666666" points="546.02,-207 419.02,-207 419.02,-177 546.02,-177 546.02,-207"/>
<text text-anchor="start" x="427.02" y="-195" font-family="Helvetica,sans-Serif" font-size="10.00">aopp_deconv_tool.plot</text>
<text text-anchor="middle" x="482.52" y="-184" font-family="Helvetica,sans-Serif" font-size="10.00">_helper.base.Base</text>
</a>
</g>
</g>
<!-- Node3&#45;&gt;Node2 -->
<g id="edge2_Node000002_Node000003" class="edge">
<title>Node3&#45;&gt;Node2</title>
<g id="a_edge2_Node000002_Node000003"><a xlink:title=" ">
<path fill="none" stroke="#63b8ff" d="M436.1,-173.3C395.29,-157.75 335.99,-135.14 293.79,-119.05"/>
<polygon fill="#63b8ff" stroke="#63b8ff" points="434.95,-176.61 445.54,-176.9 437.44,-170.07 434.95,-176.61"/>
</a>
</g>
</g>
<!-- Node4 -->
<g id="Node000004" class="node">
<title>Node4</title>
<g id="a_Node000004"><a xlink:title=" ">
<polygon fill="white" stroke="#666666" points="50.02,-284 21.02,-284 21.02,-265 50.02,-265 50.02,-284"/>
<text text-anchor="middle" x="35.52" y="-272" font-family="Helvetica,sans-Serif" font-size="10.00">str</text>
</a>
</g>
</g>
<!-- Node4&#45;&gt;Node1 -->
<g id="edge15_Node000001_Node000004" class="edge">
<title>Node4&#45;&gt;Node1</title>
<g id="a_edge15_Node000001_Node000004"><a xlink:title=" ">
<path fill="none" stroke="#9a32cd" stroke-dasharray="5,2" d="M43.18,-255.32C59.39,-218.45 100.2,-133.64 154.52,-78 168.72,-63.45 187.34,-50.82 203.79,-41.21"/>
<polygon fill="#9a32cd" stroke="#9a32cd" points="39.85,-254.2 39.1,-264.77 46.28,-256.97 39.85,-254.2"/>
</a>
</g>
<text text-anchor="middle" x="153.02" y="-151" font-family="Helvetica,sans-Serif" font-size="10.00" fill="grey"> datasource_name</text>
<text text-anchor="middle" x="153.02" y="-140" font-family="Helvetica,sans-Serif" font-size="10.00" fill="grey">title</text>
</g>
<!-- Node4&#45;&gt;Node2 -->
<g id="edge12_Node000002_Node000004" class="edge">
<title>Node4&#45;&gt;Node2</title>
<g id="a_edge12_Node000002_Node000004"><a xlink:title=" ">
<path fill="none" stroke="#9a32cd" stroke-dasharray="5,2" d="M25.01,-256.12C9.34,-227.7 -15.4,-171.04 13.52,-137 32.69,-114.43 105.35,-105.42 163.75,-101.83"/>
<polygon fill="#9a32cd" stroke="#9a32cd" points="22.05,-258 30.08,-264.92 28.12,-254.5 22.05,-258"/>
</a>
</g>
<text text-anchor="middle" x="50.02" y="-195" font-family="Helvetica,sans-Serif" font-size="10.00" fill="grey"> datasource_name</text>
<text text-anchor="middle" x="50.02" y="-184" font-family="Helvetica,sans-Serif" font-size="10.00" fill="grey">title</text>
</g>
<!-- Node4&#45;&gt;Node3 -->
<g id="edge3_Node000003_Node000004" class="edge">
<title>Node4&#45;&gt;Node3</title>
<g id="a_edge3_Node000003_Node000004"><a xlink:title=" ">
<path fill="none" stroke="#9a32cd" stroke-dasharray="5,2" d="M53.64,-258.34C68.27,-247.03 89.91,-232.33 111.52,-225 125.81,-220.15 316.68,-205.35 418.9,-197.69"/>
<polygon fill="#9a32cd" stroke="#9a32cd" points="51.13,-255.87 45.5,-264.84 55.5,-261.34 51.13,-255.87"/>
</a>
</g>
<text text-anchor="middle" x="157.02" y="-239" font-family="Helvetica,sans-Serif" font-size="10.00" fill="grey"> datasource_name</text>
<text text-anchor="middle" x="157.02" y="-228" font-family="Helvetica,sans-Serif" font-size="10.00" fill="grey">title</text>
</g>
<!-- Node5 -->
<g id="Node000005" class="node">
<title>Node5</title>
<g id="a_Node000005"><a xlink:title=" ">
<polygon fill="white" stroke="#666666" points="211.02,-284 170.02,-284 170.02,-265 211.02,-265 211.02,-284"/>
<text text-anchor="middle" x="190.52" y="-272" font-family="Helvetica,sans-Serif" font-size="10.00">tuple</text>
</a>
</g>
</g>
<!-- Node5&#45;&gt;Node2 -->
<g id="edge13_Node000002_Node000005" class="edge">
<title>Node5&#45;&gt;Node2</title>
<g id="a_edge13_Node000002_Node000005"><a xlink:title=" ">
<path fill="none" stroke="#9a32cd" stroke-dasharray="5,2" d="M194.79,-255C196.96,-245.93 199.73,-234.85 202.52,-225 213.16,-187.37 227.43,-144.02 235.73,-119.37"/>
<polygon fill="#9a32cd" stroke="#9a32cd" points="191.35,-254.33 192.47,-264.87 198.17,-255.94 191.35,-254.33"/>
</a>
</g>
<text text-anchor="middle" x="268.52" y="-189.5" font-family="Helvetica,sans-Serif" font-size="10.00" fill="grey"> axis_data_mappings</text>
</g>
<!-- Node5&#45;&gt;Node3 -->
<g id="edge4_Node000003_Node000005" class="edge">
<title>Node5&#45;&gt;Node3</title>
<g id="a_edge4_Node000003_Node000005"><a xlink:title=" ">
<path fill="none" stroke="#9a32cd" stroke-dasharray="5,2" d="M199.58,-255.95C206.11,-245.17 215.98,-232.11 228.52,-225 260.03,-207.13 354.39,-199.05 418.78,-195.53"/>
<polygon fill="#9a32cd" stroke="#9a32cd" points="196.36,-254.54 194.53,-264.97 202.47,-257.95 196.36,-254.54"/>
</a>
</g>
<text text-anchor="middle" x="280.52" y="-239" font-family="Helvetica,sans-Serif" font-size="10.00" fill="grey"> axis_data_mappings</text>
<text text-anchor="middle" x="280.52" y="-228" font-family="Helvetica,sans-Serif" font-size="10.00" fill="grey">axis_labels</text>
</g>
<!-- Node6 -->
<g id="Node000006" class="node">
<title>Node6</title>
<g id="a_Node000006"><a xlink:title=" ">
<polygon fill="white" stroke="#666666" points="353.52,-284 315.52,-284 315.52,-265 353.52,-265 353.52,-284"/>
<text text-anchor="middle" x="334.52" y="-272" font-family="Helvetica,sans-Serif" font-size="10.00">bool</text>
</a>
</g>
</g>
<!-- Node6&#45;&gt;Node3 -->
<g id="edge5_Node000003_Node000006" class="edge">
<title>Node6&#45;&gt;Node3</title>
<g id="a_edge5_Node000003_Node000006"><a xlink:title=" ">
<path fill="none" stroke="#9a32cd" stroke-dasharray="5,2" d="M334.67,-254.38C335.77,-244.36 338.81,-232.62 346.52,-225 357.08,-214.56 388.68,-206.78 418.76,-201.51"/>
<polygon fill="#9a32cd" stroke="#9a32cd" points="331.16,-254.48 334.12,-264.65 338.15,-254.85 331.16,-254.48"/>
</a>
</g>
<text text-anchor="middle" x="379.02" y="-233.5" font-family="Helvetica,sans-Serif" font-size="10.00" fill="grey"> static_frame</text>
</g>
<!-- Node7 -->
<g id="Node000007" class="node">
<title>Node7</title>
<g id="a_Node000007"><a xlink:title=" ">
<polygon fill="white" stroke="#666666" points="440.02,-284 405.02,-284 405.02,-265 440.02,-265 440.02,-284"/>
<text text-anchor="middle" x="422.52" y="-272" font-family="Helvetica,sans-Serif" font-size="10.00">dict</text>
</a>
</g>
</g>
<!-- Node7&#45;&gt;Node3 -->
<g id="edge6_Node000003_Node000007" class="edge">
<title>Node7&#45;&gt;Node3</title>
<g id="a_edge6_Node000003_Node000007"><a xlink:title=" ">
<path fill="none" stroke="#9a32cd" stroke-dasharray="5,2" d="M416.56,-255.11C414.57,-245.48 414.07,-233.88 419.52,-225 424.14,-217.47 431.14,-211.65 438.82,-207.16"/>
<polygon fill="#9a32cd" stroke="#9a32cd" points="413.21,-256.15 419.19,-264.9 419.97,-254.33 413.21,-256.15"/>
</a>
</g>
<text text-anchor="middle" x="468.52" y="-239" font-family="Helvetica,sans-Serif" font-size="10.00" fill="grey"> plt_kwargs</text>
<text text-anchor="middle" x="468.52" y="-228" font-family="Helvetica,sans-Serif" font-size="10.00" fill="grey">show_limits_in_title</text>
</g>
<!-- Node8 -->
<g id="Node000008" class="node">
<title>Node8</title>
<g id="a_Node000008"><a xlink:title=" ">
<polygon fill="white" stroke="#666666" points="960.52,-284 928.52,-284 928.52,-265 960.52,-265 960.52,-284"/>
<text text-anchor="middle" x="944.52" y="-272" font-family="Helvetica,sans-Serif" font-size="10.00">list</text>
</a>
</g>
</g>
<!-- Node8&#45;&gt;Node1 -->
<g id="edge16_Node000001_Node000008" class="edge">
<title>Node8&#45;&gt;Node1</title>
<g id="a_edge16_Node000001_Node000008"><a xlink:title=" ">
<path fill="none" stroke="#9a32cd" stroke-dasharray="5,2" d="M949.64,-254.81C951.34,-245.68 952.2,-234.62 949.52,-225 942.83,-200.99 940.71,-191.61 920.52,-177 824.39,-107.44 476.37,-53.05 319.79,-31.52"/>
<polygon fill="#9a32cd" stroke="#9a32cd" points="946.19,-254.22 947.33,-264.75 953.01,-255.8 946.19,-254.22"/>
</a>
</g>
<text text-anchor="middle" x="912.02" y="-145.5" font-family="Helvetica,sans-Serif" font-size="10.00" fill="grey"> ax_funcs</text>
</g>
<!-- Node8&#45;&gt;Node2 -->
<g id="edge14_Node000002_Node000008" class="edge">
<title>Node8&#45;&gt;Node2</title>
<g id="a_edge14_Node000002_Node000008"><a xlink:title=" ">
<path fill="none" stroke="#9a32cd" stroke-dasharray="5,2" d="M943.75,-254.84C942.32,-244.61 938.82,-232.51 930.52,-225 841.81,-144.79 482.21,-113.71 321.17,-103.64"/>
<polygon fill="#9a32cd" stroke="#9a32cd" points="940.27,-255.24 944.61,-264.91 947.25,-254.65 940.27,-255.24"/>
</a>
</g>
<text text-anchor="middle" x="909.02" y="-195" font-family="Helvetica,sans-Serif" font-size="10.00" fill="grey"> _x</text>
<text text-anchor="middle" x="909.02" y="-184" font-family="Helvetica,sans-Serif" font-size="10.00" fill="grey">_y</text>
</g>
<!-- Node8&#45;&gt;Node3 -->
<g id="edge7_Node000003_Node000008" class="edge">
<title>Node8&#45;&gt;Node3</title>
<g id="a_edge7_Node000003_Node000008"><a xlink:title=" ">
<path fill="none" stroke="#9a32cd" stroke-dasharray="5,2" d="M918.72,-263.69C907.63,-259.12 894.68,-253.3 883.52,-247 868.8,-238.7 868.38,-230.82 852.52,-225 797.96,-204.98 636.8,-197.29 546.2,-194.49"/>
<polygon fill="#9a32cd" stroke="#9a32cd" points="917.7,-267.05 928.28,-267.51 920.3,-260.55 917.7,-267.05"/>
</a>
</g>
<text text-anchor="middle" x="907.02" y="-233.5" font-family="Helvetica,sans-Serif" font-size="10.00" fill="grey"> ax_funcs</text>
</g>
<!-- Node9 -->
<g id="Node000009" class="node">
<title>Node9</title>
<g id="a_Node000009"><a xlink:title=" ">
<polygon fill="white" stroke="#666666" points="554.02,-284 519.02,-284 519.02,-265 554.02,-265 554.02,-284"/>
<text text-anchor="middle" x="536.52" y="-272" font-family="Helvetica,sans-Serif" font-size="10.00">mpl</text>
</a>
</g>
</g>
<!-- Node9&#45;&gt;Node3 -->
<g id="edge8_Node000003_Node000009" class="edge">
<title>Node9&#45;&gt;Node3</title>
<g id="a_edge8_Node000003_Node000009"><a xlink:title=" ">
<path fill="none" stroke="#9a32cd" stroke-dasharray="5,2" d="M533.43,-254.93C531.21,-245.39 527.52,-233.94 521.52,-225 516.92,-218.17 510.45,-212.04 504.09,-207.02"/>
<polygon fill="#9a32cd" stroke="#9a32cd" points="530.04,-255.83 535.4,-264.97 536.91,-254.48 530.04,-255.83"/>
</a>
</g>
<text text-anchor="middle" x="539.52" y="-233.5" font-family="Helvetica,sans-Serif" font-size="10.00" fill="grey"> ax</text>
</g>
<!-- Node10 -->
<g id="Node000010" class="node">
<title>Node10</title>
<g id="a_Node000010"><a xlink:title=" ">
<polygon fill="white" stroke="#666666" points="607.02,-284 572.02,-284 572.02,-265 607.02,-265 607.02,-284"/>
<text text-anchor="middle" x="589.52" y="-272" font-family="Helvetica,sans-Serif" font-size="10.00">Any</text>
</a>
</g>
</g>
<!-- Node10&#45;&gt;Node3 -->
<g id="edge9_Node000003_Node000010" class="edge">
<title>Node10&#45;&gt;Node3</title>
<g id="a_edge9_Node000003_Node000010"><a xlink:title=" ">
<path fill="none" stroke="#9a32cd" stroke-dasharray="5,2" d="M579.15,-256.49C572.29,-246.33 562.56,-233.75 551.52,-225 542.51,-217.86 531.66,-211.88 521.25,-207.09"/>
<polygon fill="#9a32cd" stroke="#9a32cd" points="576.23,-258.43 584.58,-264.95 582.12,-254.65 576.23,-258.43"/>
</a>
</g>
<text text-anchor="middle" x="601.52" y="-239" font-family="Helvetica,sans-Serif" font-size="10.00" fill="grey"> datasource</text>
<text text-anchor="middle" x="601.52" y="-228" font-family="Helvetica,sans-Serif" font-size="10.00" fill="grey">hdl</text>
</g>
<!-- Node11 -->
<g id="Node000011" class="node">
<title>Node11</title>
<g id="a_Node000011"><a xlink:title=" ">
<polygon fill="white" stroke="#666666" points="691.52,-284 635.52,-284 635.52,-265 691.52,-265 691.52,-284"/>
<text text-anchor="middle" x="663.52" y="-272" font-family="Helvetica,sans-Serif" font-size="10.00">Callable</text>
</a>
</g>
</g>
<!-- Node11&#45;&gt;Node3 -->
<g id="edge10_Node000003_Node000011" class="edge">
<title>Node11&#45;&gt;Node3</title>
<g id="a_edge10_Node000003_Node000011"><a xlink:title=" ">
<path fill="none" stroke="#9a32cd" stroke-dasharray="5,2" d="M656.96,-255.32C652.27,-244.89 644.94,-232.44 634.52,-225 609.05,-206.83 575.45,-198.56 546.32,-194.94"/>
<polygon fill="#9a32cd" stroke="#9a32cd" points="653.79,-256.84 660.77,-264.81 660.29,-254.23 653.79,-256.84"/>
</a>
</g>
<text text-anchor="middle" x="712.02" y="-233.5" font-family="Helvetica,sans-Serif" font-size="10.00" fill="grey"> datasource_data_getter</text>
</g>
<!-- Node12 -->
<g id="Node000012" class="node">
<title>Node12</title>
<g id="a_Node000012"><a xlink:title=" ">
<polygon fill="white" stroke="#666666" points="820.02,-284 791.02,-284 791.02,-265 820.02,-265 820.02,-284"/>
<text text-anchor="middle" x="805.52" y="-272" font-family="Helvetica,sans-Serif" font-size="10.00">int</text>
</a>
</g>
</g>
<!-- Node12&#45;&gt;Node3 -->
<g id="edge11_Node000003_Node000012" class="edge">
<title>Node12&#45;&gt;Node3</title>
<g id="a_edge11_Node000003_Node000012"><a xlink:title=" ">
<path fill="none" stroke="#9a32cd" stroke-dasharray="5,2" d="M799.15,-255.63C794.36,-244.91 786.68,-232.05 775.52,-225 738.57,-201.69 620.56,-195.24 546.06,-193.53"/>
<polygon fill="#9a32cd" stroke="#9a32cd" points="795.92,-256.98 802.88,-264.98 802.42,-254.39 795.92,-256.98"/>
</a>
</g>
<text text-anchor="middle" x="821.52" y="-233.5" font-family="Helvetica,sans-Serif" font-size="10.00" fill="grey"> n_updates</text>
</g>
</g>
</svg>
