<?xml version="1.0" encoding="UTF-8" standalone="no"?>
<!DOCTYPE svg PUBLIC "-//W3C//DTD SVG 1.1//EN"
 "http://www.w3.org/Graphics/SVG/1.1/DTD/svg11.dtd">
<!-- Generated by graphviz version 2.43.0 (0)
 -->
<!-- Title: aopp_deconv_tool.spectral_rebin.exec_with_args Pages: 1 -->
<svg width="1135pt" height="198pt"
 viewBox="0.00 0.00 1135.00 197.50" xmlns="http://www.w3.org/2000/svg" xmlns:xlink="http://www.w3.org/1999/xlink">
<g id="graph0" class="graph" transform="scale(1 1) rotate(0) translate(4 193.5)">
<title>aopp_deconv_tool.spectral_rebin.exec_with_args</title>
<!-- Node1 -->
<g id="node1" class="node">
<title>Node1</title>
<g id="a_node1"><a xlink:title=" ">
<polygon fill="#bfbfbf" stroke="black" points="0,-91 0,-121 147,-121 147,-91 0,-91"/>
<text text-anchor="start" x="8" y="-109" font-family="Helvetica,sans-Serif" font-size="10.00">aopp_deconv_tool.spectral</text>
<text text-anchor="middle" x="73.5" y="-98" font-family="Helvetica,sans-Serif" font-size="10.00">_rebin.exec_with_args</text>
</a>
</g>
</g>
<!-- Node2 -->
<g id="node2" class="node">
<title>Node2</title>
<g id="a_node2"><a xlink:href="../../d1/d3b/namespaceaopp__deconv__tool_1_1spectral__rebin.html#af5488a9645335a937fcbea8b0efe6e91" target="_top" xlink:title=" ">
<polygon fill="none" stroke="black" points="183,-128 183,-158 330,-158 330,-128 183,-128"/>
<text text-anchor="start" x="191" y="-146" font-family="Helvetica,sans-Serif" font-size="10.00">aopp_deconv_tool.spectral</text>
<text text-anchor="middle" x="256.5" y="-135" font-family="Helvetica,sans-Serif" font-size="10.00">_rebin.parse_args</text>
</a>
</g>
</g>
<!-- Node1&#45;&gt;Node2 -->
<g id="edge1" class="edge">
<title>Node1&#45;&gt;Node2</title>
<path fill="none" stroke="midnightblue" d="M147.08,-120.84C155.56,-122.57 164.26,-124.35 172.87,-126.11"/>
<polygon fill="midnightblue" stroke="midnightblue" points="172.41,-129.59 182.91,-128.16 173.81,-122.73 172.41,-129.59"/>
</g>
<!-- Node5 -->
<g id="node5" class="node">
<title>Node5</title>
<g id="a_node5"><a xlink:href="../../d1/d3b/namespaceaopp__deconv__tool_1_1spectral__rebin.html#ac95d1740ef0a7b916f187d8f74000edd" target="_top" xlink:title=" ">
<polygon fill="none" stroke="black" points="183,-67 183,-97 330,-97 330,-67 183,-67"/>
<text text-anchor="start" x="191" y="-85" font-family="Helvetica,sans-Serif" font-size="10.00">aopp_deconv_tool.spectral</text>
<text text-anchor="middle" x="256.5" y="-74" font-family="Helvetica,sans-Serif" font-size="10.00">_rebin.run</text>
</a>
</g>
</g>
<!-- Node1&#45;&gt;Node5 -->
<g id="edge4" class="edge">
<title>Node1&#45;&gt;Node5</title>
<path fill="none" stroke="midnightblue" d="M147.08,-96.38C155.56,-95.25 164.26,-94.1 172.87,-92.96"/>
<polygon fill="midnightblue" stroke="midnightblue" points="173.45,-96.41 182.91,-91.63 172.53,-89.47 173.45,-96.41"/>
</g>
<!-- Node3 -->
<g id="node3" class="node">
<title>Node3</title>
<g id="a_node3"><a xlink:href="../../d8/d5b/namespaceaopp__deconv__tool_1_1text.html#ae13da0dd246571ccd435ba5f64904bfe" target="_top" xlink:title=" ">
<polygon fill="none" stroke="black" points="366,-157.5 366,-176.5 521,-176.5 521,-157.5 366,-157.5"/>
<text text-anchor="middle" x="443.5" y="-164.5" font-family="Helvetica,sans-Serif" font-size="10.00">aopp_deconv_tool.text.wrap</text>
</a>
</g>
</g>
<!-- Node2&#45;&gt;Node3 -->
<g id="edge2" class="edge">
<title>Node2&#45;&gt;Node3</title>
<path fill="none" stroke="midnightblue" d="M330.09,-152.42C339.63,-153.65 349.47,-154.93 359.17,-156.19"/>
<polygon fill="midnightblue" stroke="midnightblue" points="358.84,-159.68 369.21,-157.49 359.75,-152.73 358.84,-159.68"/>
</g>
<!-- Node4 -->
<g id="node4" class="node">
<title>Node4</title>
<g id="a_node4"><a xlink:href="../../d8/d5b/namespaceaopp__deconv__tool_1_1text.html#a5b208e43cdecac49460b4ced231aa4a6" target="_top" xlink:title=" ">
<polygon fill="none" stroke="black" points="557,-159 557,-189 730,-189 730,-159 557,-159"/>
<text text-anchor="start" x="565" y="-177" font-family="Helvetica,sans-Serif" font-size="10.00">aopp_deconv_tool.text.combine</text>
<text text-anchor="middle" x="643.5" y="-166" font-family="Helvetica,sans-Serif" font-size="10.00">_lines_with_same_indent</text>
</a>
</g>
</g>
<!-- Node3&#45;&gt;Node4 -->
<g id="edge3" class="edge">
<title>Node3&#45;&gt;Node4</title>
<path fill="none" stroke="midnightblue" d="M521.05,-169.71C529.5,-170.01 538.18,-170.31 546.82,-170.62"/>
<polygon fill="midnightblue" stroke="midnightblue" points="546.82,-174.12 556.94,-170.98 547.07,-167.12 546.82,-174.12"/>
</g>
<!-- Node6 -->
<g id="node6" class="node">
<title>Node6</title>
<g id="a_node6"><a xlink:href="../../d1/d3b/namespaceaopp__deconv__tool_1_1spectral__rebin.html#a462c8ccf7c78154d2321174ad4174cd2" target="_top" xlink:title=" ">
<polygon fill="none" stroke="black" points="368.5,-61.5 368.5,-102.5 518.5,-102.5 518.5,-61.5 368.5,-61.5"/>
<text text-anchor="start" x="376.5" y="-90.5" font-family="Helvetica,sans-Serif" font-size="10.00">aopp_deconv_tool.spectral</text>
<text text-anchor="start" x="376.5" y="-79.5" font-family="Helvetica,sans-Serif" font-size="10.00">_rebin.rebin_hdu_over_axis</text>
<text text-anchor="middle" x="443.5" y="-68.5" font-family="Helvetica,sans-Serif" font-size="10.00">_with_response_function</text>
</a>
</g>
</g>
<!-- Node5&#45;&gt;Node6 -->
<g id="edge5" class="edge">
<title>Node5&#45;&gt;Node6</title>
<path fill="none" stroke="midnightblue" d="M330.09,-82C339.3,-82 348.8,-82 358.18,-82"/>
<polygon fill="midnightblue" stroke="midnightblue" points="358.3,-85.5 368.3,-82 358.3,-78.5 358.3,-85.5"/>
</g>
<!-- Node12 -->
<g id="node12" class="node">
<title>Node12</title>
<g id="a_node12"><a xlink:href="../../dc/df7/namespaceaopp__deconv__tool_1_1cast.html#a300dcf30516e450d08415e15f572bfbe" target="_top" xlink:title=" ">
<polygon fill="none" stroke="black" points="373,-23.5 373,-42.5 514,-42.5 514,-23.5 373,-23.5"/>
<text text-anchor="middle" x="443.5" y="-30.5" font-family="Helvetica,sans-Serif" font-size="10.00">aopp_deconv_tool.cast.to</text>
</a>
</g>
</g>
<!-- Node5&#45;&gt;Node12 -->
<g id="edge11" class="edge">
<title>Node5&#45;&gt;Node12</title>
<path fill="none" stroke="midnightblue" d="M310.68,-67C328.26,-62.11 347.95,-56.74 366,-52 374.85,-49.68 384.29,-47.28 393.41,-44.99"/>
<polygon fill="midnightblue" stroke="midnightblue" points="394.28,-48.38 403.14,-42.57 392.59,-41.59 394.28,-48.38"/>
</g>
<!-- Node7 -->
<g id="node7" class="node">
<title>Node7</title>
<g id="a_node7"><a xlink:href="../../d1/d3b/namespaceaopp__deconv__tool_1_1spectral__rebin.html#a4e174b0f84cf2d54a37155ffc8f15c40" target="_top" xlink:title=" ">
<polygon fill="none" stroke="black" points="570,-110 570,-140 717,-140 717,-110 570,-110"/>
<text text-anchor="start" x="578" y="-128" font-family="Helvetica,sans-Serif" font-size="10.00">aopp_deconv_tool.spectral</text>
<text text-anchor="middle" x="643.5" y="-117" font-family="Helvetica,sans-Serif" font-size="10.00">_rebin.lin_interp</text>
</a>
</g>
</g>
<!-- Node6&#45;&gt;Node7 -->
<g id="edge6" class="edge">
<title>Node6&#45;&gt;Node7</title>
<path fill="none" stroke="midnightblue" d="M518.51,-98.07C533.06,-101.23 548.37,-104.56 563.09,-107.75"/>
<polygon fill="midnightblue" stroke="midnightblue" points="562.65,-111.24 573.17,-109.94 564.14,-104.4 562.65,-111.24"/>
</g>
<!-- Node8 -->
<g id="node8" class="node">
<title>Node8</title>
<g id="a_node8"><a xlink:href="../../d1/d3b/namespaceaopp__deconv__tool_1_1spectral__rebin.html#a75f176aa453b954c58427a9ccb24ab9b" target="_top" xlink:title=" ">
<polygon fill="none" stroke="black" points="564,-61 564,-91 723,-91 723,-61 564,-61"/>
<text text-anchor="start" x="572" y="-79" font-family="Helvetica,sans-Serif" font-size="10.00">aopp_deconv_tool.spectral</text>
<text text-anchor="middle" x="643.5" y="-68" font-family="Helvetica,sans-Serif" font-size="10.00">_rebin.overlap_add_convolve</text>
</a>
</g>
</g>
<!-- Node6&#45;&gt;Node8 -->
<g id="edge7" class="edge">
<title>Node6&#45;&gt;Node8</title>
<path fill="none" stroke="midnightblue" d="M518.51,-79.76C529.98,-79.41 541.93,-79.05 553.68,-78.69"/>
<polygon fill="midnightblue" stroke="midnightblue" points="554.05,-82.18 563.94,-78.38 553.84,-75.19 554.05,-82.18"/>
</g>
<!-- Node11 -->
<g id="node11" class="node">
<title>Node11</title>
<g id="a_node11"><a xlink:href="../../d1/d3b/namespaceaopp__deconv__tool_1_1spectral__rebin.html#a22a287aa9d55cf8a29bdf4cbe79371d4" target="_top" xlink:title=" ">
<polygon fill="none" stroke="black" points="569.5,-0.5 569.5,-41.5 717.5,-41.5 717.5,-0.5 569.5,-0.5"/>
<text text-anchor="start" x="577.5" y="-29.5" font-family="Helvetica,sans-Serif" font-size="10.00">aopp_deconv_tool.spectral</text>
<text text-anchor="start" x="577.5" y="-18.5" font-family="Helvetica,sans-Serif" font-size="10.00">_rebin.plot_rebin_response</text>
<text text-anchor="middle" x="643.5" y="-7.5" font-family="Helvetica,sans-Serif" font-size="10.00">_function</text>
</a>
</g>
</g>
<!-- Node6&#45;&gt;Node11 -->
<g id="edge10" class="edge">
<title>Node6&#45;&gt;Node11</title>
<path fill="none" stroke="midnightblue" d="M511.26,-61.43C528.78,-56.03 547.82,-50.17 565.82,-44.62"/>
<polygon fill="midnightblue" stroke="midnightblue" points="567.17,-47.87 575.7,-41.58 565.11,-41.18 567.17,-47.87"/>
</g>
<!-- Node9 -->
<g id="node9" class="node">
<title>Node9</title>
<g id="a_node9"><a xlink:href="../../d1/d3b/namespaceaopp__deconv__tool_1_1spectral__rebin.html#ad2d029f9bded4dbfcf3df6fd649dc198" target="_top" xlink:title=" ">
<polygon fill="none" stroke="black" points="766,-61 766,-91 924,-91 924,-61 766,-61"/>
<text text-anchor="start" x="774" y="-79" font-family="Helvetica,sans-Serif" font-size="10.00">aopp_deconv_tool.spectral</text>
<text text-anchor="middle" x="845" y="-68" font-family="Helvetica,sans-Serif" font-size="10.00">_rebin.array_const_boundary</text>
</a>
</g>
</g>
<!-- Node8&#45;&gt;Node9 -->
<g id="edge8" class="edge">
<title>Node8&#45;&gt;Node9</title>
<path fill="none" stroke="midnightblue" d="M723.06,-76C733.72,-76 744.72,-76 755.54,-76"/>
<polygon fill="midnightblue" stroke="midnightblue" points="755.84,-79.5 765.84,-76 755.84,-72.5 755.84,-79.5"/>
</g>
<!-- Node10 -->
<g id="node10" class="node">
<title>Node10</title>
<g id="a_node10"><a xlink:href="../../d1/d3b/namespaceaopp__deconv__tool_1_1spectral__rebin.html#a23c60b2215405487c73ccdd8f4e6d083" target="_top" xlink:title=" ">
<polygon fill="none" stroke="black" points="960,-61 960,-91 1127,-91 1127,-61 960,-61"/>
<text text-anchor="start" x="968" y="-79" font-family="Helvetica,sans-Serif" font-size="10.00">aopp_deconv_tool.spectral</text>
<text text-anchor="middle" x="1043.5" y="-68" font-family="Helvetica,sans-Serif" font-size="10.00">_rebin.indices_const_boundary</text>
</a>
</g>
</g>
<!-- Node9&#45;&gt;Node10 -->
<g id="edge9" class="edge">
<title>Node9&#45;&gt;Node10</title>
<path fill="none" stroke="midnightblue" d="M924.23,-76C932.52,-76 941.01,-76 949.45,-76"/>
<polygon fill="midnightblue" stroke="midnightblue" points="949.71,-79.5 959.71,-76 949.71,-72.5 949.71,-79.5"/>
</g>
</g>
</svg>
