<?xml version="1.0" encoding="UTF-8" standalone="no"?>
<!DOCTYPE svg PUBLIC "-//W3C//DTD SVG 1.1//EN"
 "http://www.w3.org/Graphics/SVG/1.1/DTD/svg11.dtd">
<!-- Generated by graphviz version 2.43.0 (0)
 -->
<!-- Title: aopp_deconv_tool.spectral_rebin.array_const_boundary Pages: 1 -->
<svg width="1096pt" height="50pt"
 viewBox="0.00 0.00 1096.00 50.00" xmlns="http://www.w3.org/2000/svg" xmlns:xlink="http://www.w3.org/1999/xlink">
<g id="graph0" class="graph" transform="scale(1 1) rotate(0) translate(4 46)">
<title>aopp_deconv_tool.spectral_rebin.array_const_boundary</title>
<!-- Node1 -->
<g id="node1" class="node">
<title>Node1</title>
<g id="a_node1"><a xlink:title=" ">
<polygon fill="#bfbfbf" stroke="black" points="930,-6 930,-36 1088,-36 1088,-6 930,-6"/>
<text text-anchor="start" x="938" y="-24" font-family="Helvetica,sans-Serif" font-size="10.00">aopp_deconv_tool.spectral</text>
<text text-anchor="middle" x="1009" y="-13" font-family="Helvetica,sans-Serif" font-size="10.00">_rebin.array_const_boundary</text>
</a>
</g>
</g>
<!-- Node2 -->
<g id="node2" class="node">
<title>Node2</title>
<g id="a_node2"><a xlink:href="../../d1/d3b/namespaceaopp__deconv__tool_1_1spectral__rebin.html#a75f176aa453b954c58427a9ccb24ab9b" target="_top" xlink:title=" ">
<polygon fill="none" stroke="black" points="735,-6 735,-36 894,-36 894,-6 735,-6"/>
<text text-anchor="start" x="743" y="-24" font-family="Helvetica,sans-Serif" font-size="10.00">aopp_deconv_tool.spectral</text>
<text text-anchor="middle" x="814.5" y="-13" font-family="Helvetica,sans-Serif" font-size="10.00">_rebin.overlap_add_convolve</text>
</a>
</g>
</g>
<!-- Node1&#45;&gt;Node2 -->
<g id="edge1" class="edge">
<title>Node1&#45;&gt;Node2</title>
<path fill="none" stroke="midnightblue" d="M919.97,-21C911.4,-21 902.73,-21 894.26,-21"/>
<polygon fill="midnightblue" stroke="midnightblue" points="919.98,-24.5 929.98,-21 919.98,-17.5 919.98,-24.5"/>
</g>
<!-- Node3 -->
<g id="node3" class="node">
<title>Node3</title>
<g id="a_node3"><a xlink:href="../../d1/d3b/namespaceaopp__deconv__tool_1_1spectral__rebin.html#a462c8ccf7c78154d2321174ad4174cd2" target="_top" xlink:title=" ">
<polygon fill="none" stroke="black" points="549,-0.5 549,-41.5 699,-41.5 699,-0.5 549,-0.5"/>
<text text-anchor="start" x="557" y="-29.5" font-family="Helvetica,sans-Serif" font-size="10.00">aopp_deconv_tool.spectral</text>
<text text-anchor="start" x="557" y="-18.5" font-family="Helvetica,sans-Serif" font-size="10.00">_rebin.rebin_hdu_over_axis</text>
<text text-anchor="middle" x="624" y="-7.5" font-family="Helvetica,sans-Serif" font-size="10.00">_with_response_function</text>
</a>
</g>
</g>
<!-- Node2&#45;&gt;Node3 -->
<g id="edge2" class="edge">
<title>Node2&#45;&gt;Node3</title>
<path fill="none" stroke="midnightblue" d="M724.89,-21C716.3,-21 707.65,-21 699.22,-21"/>
<polygon fill="midnightblue" stroke="midnightblue" points="724.92,-24.5 734.92,-21 724.92,-17.5 724.92,-24.5"/>
</g>
<!-- Node4 -->
<g id="node4" class="node">
<title>Node4</title>
<g id="a_node4"><a xlink:href="../../d1/d3b/namespaceaopp__deconv__tool_1_1spectral__rebin.html#ac95d1740ef0a7b916f187d8f74000edd" target="_top" xlink:title=" ">
<polygon fill="none" stroke="black" points="366,-6 366,-36 513,-36 513,-6 366,-6"/>
<text text-anchor="start" x="374" y="-24" font-family="Helvetica,sans-Serif" font-size="10.00">aopp_deconv_tool.spectral</text>
<text text-anchor="middle" x="439.5" y="-13" font-family="Helvetica,sans-Serif" font-size="10.00">_rebin.run</text>
</a>
</g>
</g>
<!-- Node3&#45;&gt;Node4 -->
<g id="edge3" class="edge">
<title>Node3&#45;&gt;Node4</title>
<path fill="none" stroke="midnightblue" d="M538.51,-21C530.05,-21 521.51,-21 513.19,-21"/>
<polygon fill="midnightblue" stroke="midnightblue" points="538.77,-24.5 548.77,-21 538.77,-17.5 538.77,-24.5"/>
</g>
<!-- Node5 -->
<g id="node5" class="node">
<title>Node5</title>
<g id="a_node5"><a xlink:href="../../d1/d3b/namespaceaopp__deconv__tool_1_1spectral__rebin.html#a16e0912cc6435aef773275c035b89969" target="_top" xlink:title=" ">
<polygon fill="none" stroke="black" points="183,-6 183,-36 330,-36 330,-6 183,-6"/>
<text text-anchor="start" x="191" y="-24" font-family="Helvetica,sans-Serif" font-size="10.00">aopp_deconv_tool.spectral</text>
<text text-anchor="middle" x="256.5" y="-13" font-family="Helvetica,sans-Serif" font-size="10.00">_rebin.exec_with_args</text>
</a>
</g>
</g>
<!-- Node4&#45;&gt;Node5 -->
<g id="edge4" class="edge">
<title>Node4&#45;&gt;Node5</title>
<path fill="none" stroke="midnightblue" d="M355.88,-21C347.28,-21 338.58,-21 330.09,-21"/>
<polygon fill="midnightblue" stroke="midnightblue" points="355.92,-24.5 365.92,-21 355.92,-17.5 355.92,-24.5"/>
</g>
<!-- Node6 -->
<g id="node6" class="node">
<title>Node6</title>
<g id="a_node6"><a xlink:href="../../d1/d3b/namespaceaopp__deconv__tool_1_1spectral__rebin.html#a805c759d8363bb2c9ffdec21bf5d19f7" target="_top" xlink:title=" ">
<polygon fill="none" stroke="black" points="0,-6 0,-36 147,-36 147,-6 0,-6"/>
<text text-anchor="start" x="8" y="-24" font-family="Helvetica,sans-Serif" font-size="10.00">aopp_deconv_tool.spectral</text>
<text text-anchor="middle" x="73.5" y="-13" font-family="Helvetica,sans-Serif" font-size="10.00">_rebin.go</text>
</a>
</g>
</g>
<!-- Node5&#45;&gt;Node6 -->
<g id="edge5" class="edge">
<title>Node5&#45;&gt;Node6</title>
<path fill="none" stroke="midnightblue" d="M172.88,-21C164.28,-21 155.58,-21 147.09,-21"/>
<polygon fill="midnightblue" stroke="midnightblue" points="172.92,-24.5 182.92,-21 172.92,-17.5 172.92,-24.5"/>
</g>
</g>
</svg>
