<?xml version="1.0" encoding="UTF-8" standalone="no"?>
<!DOCTYPE svg PUBLIC "-//W3C//DTD SVG 1.1//EN"
 "http://www.w3.org/Graphics/SVG/1.1/DTD/svg11.dtd">
<!-- Generated by graphviz version 2.43.0 (0)
 -->
<!-- Title: aopp_deconv_tool.spectral_rebin.overlap_add_convolve Pages: 1 -->
<!--zoomable 50 -->
<svg id="main" version="1.1" xmlns="http://www.w3.org/2000/svg" xmlns:xlink="http://www.w3.org/1999/xlink" xml:space="preserve" onload="init(evt)">
<style type="text/css"><![CDATA[
.edge:hover path { stroke: red; }
.edge:hover polygon { stroke: red; fill: red; }
]]></style>
<script type="text/javascript"><![CDATA[
var edges = document.getElementsByTagName('g');
if (edges && edges.length) {
  for (var i=0;i<edges.length;i++) {
    if (edges[i].id.substr(0,4)=='edge') {
      edges[i].setAttribute('class','edge');
    }
  }
}
]]></script>
        <defs>
                <circle id="rim" cx="0" cy="0" r="7"/>
                <circle id="rim2" cx="0" cy="0" r="3.5"/>
                <g id="zoomPlus">
                        <use xlink:href="#rim" fill="#404040">
                                <set attributeName="fill" to="#808080" begin="zoomplus.mouseover" end="zoomplus.mouseout"/>
                        </use>
                        <path d="M-4,0h8M0,-4v8" fill="none" stroke="white" stroke-width="1.5" pointer-events="none"/>
                </g>
                <g id="zoomMin">
                        <use xlink:href="#rim" fill="#404040">
                                <set attributeName="fill" to="#808080" begin="zoomminus.mouseover" end="zoomminus.mouseout"/>
                        </use>
                        <path d="M-4,0h8" fill="none" stroke="white" stroke-width="1.5" pointer-events="none"/>
                </g>
                <g id="dirArrow">
                        <path fill="none" stroke="white" stroke-width="1.5" d="M0,-3.0v7 M-2.5,-0.5L0,-3.0L2.5,-0.5"/>
                </g>
               <g id="resetDef">
                       <use xlink:href="#rim2" fill="#404040">
                               <set attributeName="fill" to="#808080" begin="reset.mouseover" end="reset.mouseout"/>
                       </use>
               </g>
        </defs>

<script type="text/javascript">
var viewWidth = 902;
var viewHeight = 50;
var sectionId = 'dynsection-8';
</script>
<script xlink:href="../../svgpan.js"/>
<svg id="graph" class="graph">
<g id="viewport">
<title>aopp_deconv_tool.spectral_rebin.overlap_add_convolve</title>
<!-- Node1 -->
<g id="node1" class="node">
<title>Node1</title>
<g id="a_node1"><a xlink:title=" ">
<polygon fill="#bfbfbf" stroke="black" points="735,-6 735,-36 894,-36 894,-6 735,-6"/>
<text text-anchor="start" x="743" y="-24" font-family="Helvetica,sans-Serif" font-size="10.00">aopp_deconv_tool.spectral</text>
<text text-anchor="middle" x="814.5" y="-13" font-family="Helvetica,sans-Serif" font-size="10.00">_rebin.overlap_add_convolve</text>
</a>
</g>
</g>
<!-- Node2 -->
<g id="node2" class="node">
<title>Node2</title>
<g id="a_node2"><a xlink:href="../../d1/d3b/namespaceaopp__deconv__tool_1_1spectral__rebin.html#a462c8ccf7c78154d2321174ad4174cd2" target="_top" xlink:title=" ">
<polygon fill="none" stroke="black" points="549,-0.5 549,-41.5 699,-41.5 699,-0.5 549,-0.5"/>
<text text-anchor="start" x="557" y="-29.5" font-family="Helvetica,sans-Serif" font-size="10.00">aopp_deconv_tool.spectral</text>
<text text-anchor="start" x="557" y="-18.5" font-family="Helvetica,sans-Serif" font-size="10.00">_rebin.rebin_hdu_over_axis</text>
<text text-anchor="middle" x="624" y="-7.5" font-family="Helvetica,sans-Serif" font-size="10.00">_with_response_function</text>
</a>
</g>
</g>
<!-- Node1&#45;&gt;Node2 -->
<g id="edge1" class="edge">
<title>Node1&#45;&gt;Node2</title>
<path fill="none" stroke="midnightblue" d="M724.89,-21C716.3,-21 707.65,-21 699.22,-21"/>
<polygon fill="midnightblue" stroke="midnightblue" points="724.92,-24.5 734.92,-21 724.92,-17.5 724.92,-24.5"/>
</g>
<!-- Node3 -->
<g id="node3" class="node">
<title>Node3</title>
<g id="a_node3"><a xlink:href="../../d1/d3b/namespaceaopp__deconv__tool_1_1spectral__rebin.html#ac95d1740ef0a7b916f187d8f74000edd" target="_top" xlink:title=" ">
<polygon fill="none" stroke="black" points="366,-6 366,-36 513,-36 513,-6 366,-6"/>
<text text-anchor="start" x="374" y="-24" font-family="Helvetica,sans-Serif" font-size="10.00">aopp_deconv_tool.spectral</text>
<text text-anchor="middle" x="439.5" y="-13" font-family="Helvetica,sans-Serif" font-size="10.00">_rebin.run</text>
</a>
</g>
</g>
<!-- Node2&#45;&gt;Node3 -->
<g id="edge2" class="edge">
<title>Node2&#45;&gt;Node3</title>
<path fill="none" stroke="midnightblue" d="M538.51,-21C530.05,-21 521.51,-21 513.19,-21"/>
<polygon fill="midnightblue" stroke="midnightblue" points="538.77,-24.5 548.77,-21 538.77,-17.5 538.77,-24.5"/>
</g>
<!-- Node4 -->
<g id="node4" class="node">
<title>Node4</title>
<g id="a_node4"><a xlink:href="../../d1/d3b/namespaceaopp__deconv__tool_1_1spectral__rebin.html#a16e0912cc6435aef773275c035b89969" target="_top" xlink:title=" ">
<polygon fill="none" stroke="black" points="183,-6 183,-36 330,-36 330,-6 183,-6"/>
<text text-anchor="start" x="191" y="-24" font-family="Helvetica,sans-Serif" font-size="10.00">aopp_deconv_tool.spectral</text>
<text text-anchor="middle" x="256.5" y="-13" font-family="Helvetica,sans-Serif" font-size="10.00">_rebin.exec_with_args</text>
</a>
</g>
</g>
<!-- Node3&#45;&gt;Node4 -->
<g id="edge3" class="edge">
<title>Node3&#45;&gt;Node4</title>
<path fill="none" stroke="midnightblue" d="M355.88,-21C347.28,-21 338.58,-21 330.09,-21"/>
<polygon fill="midnightblue" stroke="midnightblue" points="355.92,-24.5 365.92,-21 355.92,-17.5 355.92,-24.5"/>
</g>
<!-- Node5 -->
<g id="node5" class="node">
<title>Node5</title>
<g id="a_node5"><a xlink:href="../../d1/d3b/namespaceaopp__deconv__tool_1_1spectral__rebin.html#a805c759d8363bb2c9ffdec21bf5d19f7" target="_top" xlink:title=" ">
<polygon fill="none" stroke="black" points="0,-6 0,-36 147,-36 147,-6 0,-6"/>
<text text-anchor="start" x="8" y="-24" font-family="Helvetica,sans-Serif" font-size="10.00">aopp_deconv_tool.spectral</text>
<text text-anchor="middle" x="73.5" y="-13" font-family="Helvetica,sans-Serif" font-size="10.00">_rebin.go</text>
</a>
</g>
</g>
<!-- Node4&#45;&gt;Node5 -->
<g id="edge4" class="edge">
<title>Node4&#45;&gt;Node5</title>
<path fill="none" stroke="midnightblue" d="M172.88,-21C164.28,-21 155.58,-21 147.09,-21"/>
<polygon fill="midnightblue" stroke="midnightblue" points="172.92,-24.5 182.92,-21 172.92,-17.5 172.92,-24.5"/>
</g>
</g>
</svg>
        <g id="navigator" transform="translate(0 0)" fill="#404254">
                <rect fill="#f2f5e9" fill-opacity="0.5" stroke="#606060" stroke-width=".5" x="0" y="0" width="60" height="60"/>
                <use id="zoomplus" xlink:href="#zoomPlus" x="17" y="9" onmousedown="handleZoom(evt,'in')"/>
                <use id="zoomminus" xlink:href="#zoomMin" x="42" y="9" onmousedown="handleZoom(evt,'out')"/>
                <use id="reset" xlink:href="#resetDef" x="30" y="36" onmousedown="handleReset()"/>
                <g id="arrowUp" xlink:href="#dirArrow" transform="translate(30 24)" onmousedown="handlePan(0,-1)">
                  <use xlink:href="#rim" fill="#404040">
                        <set attributeName="fill" to="#808080" begin="arrowUp.mouseover" end="arrowUp.mouseout"/>
                  </use>
                  <path fill="none" stroke="white" stroke-width="1.5" d="M0,-3.0v7 M-2.5,-0.5L0,-3.0L2.5,-0.5"/>
                </g>
                <g id="arrowRight" xlink:href="#dirArrow" transform="rotate(90) translate(36 -43)" onmousedown="handlePan(1,0)">
                  <use xlink:href="#rim" fill="#404040">
                        <set attributeName="fill" to="#808080" begin="arrowRight.mouseover" end="arrowRight.mouseout"/>
                  </use>
                  <path fill="none" stroke="white" stroke-width="1.5" d="M0,-3.0v7 M-2.5,-0.5L0,-3.0L2.5,-0.5"/>
                </g>
                <g id="arrowDown" xlink:href="#dirArrow" transform="rotate(180) translate(-30 -48)" onmousedown="handlePan(0,1)">
                  <use xlink:href="#rim" fill="#404040">
                        <set attributeName="fill" to="#808080" begin="arrowDown.mouseover" end="arrowDown.mouseout"/>
                  </use>
                  <path fill="none" stroke="white" stroke-width="1.5" d="M0,-3.0v7 M-2.5,-0.5L0,-3.0L2.5,-0.5"/>
                </g>
                <g id="arrowLeft" xlink:href="#dirArrow" transform="rotate(270) translate(-36 17)" onmousedown="handlePan(-1,0)">
                  <use xlink:href="#rim" fill="#404040">
                        <set attributeName="fill" to="#808080" begin="arrowLeft.mouseover" end="arrowLeft.mouseout"/>
                  </use>
                  <path fill="none" stroke="white" stroke-width="1.5" d="M0,-3.0v7 M-2.5,-0.5L0,-3.0L2.5,-0.5"/>
                </g>
        </g>
        <svg viewBox="0 0 15 15" width="100%" height="30px" preserveAspectRatio="xMaxYMin meet">
         <g id="arrow_out" transform="scale(0.3 0.3)">
          <a xlink:href="namespaceaopp__deconv__tool_1_1spectral__rebin_a75f176aa453b954c58427a9ccb24ab9b_icgraph_org.svg" target="_base">
           <rect id="button" ry="5" rx="5" y="6" x="6" height="38" width="38"
                fill="#f2f5e9" fill-opacity="0.5" stroke="#606060" stroke-width="1.0"/>
           <path id="arrow"
             d="M 11.500037,31.436501 C 11.940474,20.09759 22.043105,11.32322 32.158766,21.979434 L 37.068811,17.246167 C 37.068811,17.246167 37.088388,32 37.088388,32 L 22.160133,31.978069 C 22.160133,31.978069 26.997745,27.140456 26.997745,27.140456 C 18.528582,18.264221 13.291696,25.230495 11.500037,31.436501 z"
             style="fill:#404040;"/>
          </a>
         </g>
        </svg>
</svg>
