<?xml version="1.0" encoding="UTF-8" standalone="no"?>
<!DOCTYPE svg PUBLIC "-//W3C//DTD SVG 1.1//EN"
 "http://www.w3.org/Graphics/SVG/1.1/DTD/svg11.dtd">
<!-- Generated by graphviz version 2.43.0 (0)
 -->
<!-- Title: aopp_deconv_tool.spectral_rebin.indices_const_boundary Pages: 1 -->
<!--zoomable 62 -->

<svg id="main" version="1.1" xmlns="http://www.w3.org/2000/svg" xmlns:xlink="http://www.w3.org/1999/xlink" xml:space="preserve" onload="init(evt)">
<style type="text/css"><![CDATA[
.node, .edge {opacity: 0.7;}
.node.selected, .edge.selected {opacity: 1;}
.edge:hover path { stroke: red; }
.edge:hover polygon { stroke: red; fill: red; }
]]></style>

<defs>
  <circle id="rim" cx="0" cy="0" r="7"/>
  <circle id="rim2" cx="0" cy="0" r="3.5"/>
  <g id="zoomPlus">
    <use xlink:href="#rim" fill="#404040"><set attributeName="fill" to="#808080" begin="zoomplus.mouseover" end="zoomplus.mouseout"/></use>
    <path d="M-4,0h8M0,-4v8" fill="none" stroke="white" stroke-width="1.5" pointer-events="none"/>
  </g>
  <g id="zoomMin">
    <use xlink:href="#rim" fill="#404040"><set attributeName="fill" to="#808080" begin="zoomminus.mouseover" end="zoomminus.mouseout"/></use>
    <path d="M-4,0h8" fill="none" stroke="white" stroke-width="1.5" pointer-events="none"/>
  </g>
  <g id="arrowUp" transform="translate(30 24)">
    <use xlink:href="#rim"/>
    <path pointer-events="none" fill="none" stroke="white" stroke-width="1.5" d="M0,-3.0v7 M-2.5,-0.5L0,-3.0L2.5,-0.5"/>
  </g>
  <g id="arrowRight" transform="rotate(90) translate(36 -43)">
    <use xlink:href="#rim"/>
    <path pointer-events="none" fill="none" stroke="white" stroke-width="1.5" d="M0,-3.0v7 M-2.5,-0.5L0,-3.0L2.5,-0.5"/>
  </g>
  <g id="arrowDown" transform="rotate(180) translate(-30 -48)">
    <use xlink:href="#rim"/>
    <path pointer-events="none" fill="none" stroke="white" stroke-width="1.5" d="M0,-3.0v7 M-2.5,-0.5L0,-3.0L2.5,-0.5"/>
  </g>
  <g id="arrowLeft" transform="rotate(270) translate(-36 17)">
    <use xlink:href="#rim"/>
    <path pointer-events="none" fill="none" stroke="white" stroke-width="1.5" d="M0,-3.0v7 M-2.5,-0.5L0,-3.0L2.5,-0.5"/>
  </g>
  <g id="resetDef">
    <use xlink:href="#rim2" fill="#404040"><set attributeName="fill" to="#808080" begin="reset.mouseover" end="reset.mouseout"/></use>
  </g>
</defs>
<script type="application/ecmascript">
var viewWidth = 1299;
var viewHeight = 62;
var sectionId = 'dynsection-5';
</script>
<script type="application/ecmascript" xlink:href="../../svg.min.js"/>
<svg id="graph" class="graph">
<g id="viewport">
<title>aopp_deconv_tool.spectral_rebin.indices_const_boundary</title>
<!-- Node1 -->
<g id="Node000001" class="node">
<title>Node1</title>
<g id="a_Node000001"><a xlink:title=" ">
<polygon fill="#999999" stroke="#666666" points="1291,-35.5 1124,-35.5 1124,-5.5 1291,-5.5 1291,-35.5"/>
<text text-anchor="start" x="1132" y="-23.5" font-family="Helvetica,sans-Serif" font-size="10.00">aopp_deconv_tool.spectral</text>
<text text-anchor="middle" x="1207.5" y="-12.5" font-family="Helvetica,sans-Serif" font-size="10.00">_rebin.indices_const_boundary</text>
</a>
</g>
</g>
<!-- Node2 -->
<g id="Node000002" class="node">
<title>Node2</title>
<g id="a_Node000002"><a xlink:href="../../d1/d3b/namespaceaopp__deconv__tool_1_1spectral__rebin.html#ad2d029f9bded4dbfcf3df6fd649dc198" target="_top" xlink:title=" ">
<polygon fill="white" stroke="#666666" points="1088,-35.5 930,-35.5 930,-5.5 1088,-5.5 1088,-35.5"/>
<text text-anchor="start" x="938" y="-23.5" font-family="Helvetica,sans-Serif" font-size="10.00">aopp_deconv_tool.spectral</text>
<text text-anchor="middle" x="1009" y="-12.5" font-family="Helvetica,sans-Serif" font-size="10.00">_rebin.array_const_boundary</text>
</a>
</g>
</g>
<!-- Node1&#45;&gt;Node2 -->
<g id="edge1_Node000001_Node000002" class="edge">
<title>Node1&#45;&gt;Node2</title>
<g id="a_edge1_Node000001_Node000002"><a xlink:title=" ">
<path fill="none" stroke="#63b8ff" d="M1113.49,-20.5C1105.05,-20.5 1096.57,-20.5 1088.28,-20.5"/>
<polygon fill="#63b8ff" stroke="#63b8ff" points="1113.74,-24 1123.74,-20.5 1113.74,-17 1113.74,-24"/>
</a>
</g>
</g>
<!-- Node3 -->
<g id="Node000003" class="node">
<title>Node3</title>
<g id="a_Node000003"><a xlink:href="../../d1/d3b/namespaceaopp__deconv__tool_1_1spectral__rebin.html#a75f176aa453b954c58427a9ccb24ab9b" target="_top" xlink:title=" ">
<polygon fill="white" stroke="#666666" points="894,-35.5 735,-35.5 735,-5.5 894,-5.5 894,-35.5"/>
<text text-anchor="start" x="743" y="-23.5" font-family="Helvetica,sans-Serif" font-size="10.00">aopp_deconv_tool.spectral</text>
<text text-anchor="middle" x="814.5" y="-12.5" font-family="Helvetica,sans-Serif" font-size="10.00">_rebin.overlap_add_convolve</text>
</a>
</g>
</g>
<!-- Node2&#45;&gt;Node3 -->
<g id="edge2_Node000002_Node000003" class="edge">
<title>Node2&#45;&gt;Node3</title>
<g id="a_edge2_Node000002_Node000003"><a xlink:title=" ">
<path fill="none" stroke="#63b8ff" d="M919.97,-20.5C911.4,-20.5 902.73,-20.5 894.26,-20.5"/>
<polygon fill="#63b8ff" stroke="#63b8ff" points="919.98,-24 929.98,-20.5 919.98,-17 919.98,-24"/>
</a>
</g>
</g>
<!-- Node4 -->
<g id="Node000004" class="node">
<title>Node4</title>
<g id="a_Node000004"><a xlink:href="../../d1/d3b/namespaceaopp__deconv__tool_1_1spectral__rebin.html#a462c8ccf7c78154d2321174ad4174cd2" target="_top" xlink:title=" ">
<polygon fill="white" stroke="#666666" points="699,-41 549,-41 549,0 699,0 699,-41"/>
<text text-anchor="start" x="557" y="-29" font-family="Helvetica,sans-Serif" font-size="10.00">aopp_deconv_tool.spectral</text>
<text text-anchor="start" x="557" y="-18" font-family="Helvetica,sans-Serif" font-size="10.00">_rebin.rebin_hdu_over_axis</text>
<text text-anchor="middle" x="624" y="-7" font-family="Helvetica,sans-Serif" font-size="10.00">_with_response_function</text>
</a>
</g>
</g>
<!-- Node3&#45;&gt;Node4 -->
<g id="edge3_Node000003_Node000004" class="edge">
<title>Node3&#45;&gt;Node4</title>
<g id="a_edge3_Node000003_Node000004"><a xlink:title=" ">
<path fill="none" stroke="#63b8ff" d="M724.89,-20.5C716.3,-20.5 707.65,-20.5 699.22,-20.5"/>
<polygon fill="#63b8ff" stroke="#63b8ff" points="724.92,-24 734.92,-20.5 724.92,-17 724.92,-24"/>
</a>
</g>
</g>
<!-- Node5 -->
<g id="Node000005" class="node">
<title>Node5</title>
<g id="a_Node000005"><a xlink:href="../../d1/d3b/namespaceaopp__deconv__tool_1_1spectral__rebin.html#ac95d1740ef0a7b916f187d8f74000edd" target="_top" xlink:title=" ">
<polygon fill="white" stroke="#666666" points="513,-35.5 366,-35.5 366,-5.5 513,-5.5 513,-35.5"/>
<text text-anchor="start" x="374" y="-23.5" font-family="Helvetica,sans-Serif" font-size="10.00">aopp_deconv_tool.spectral</text>
<text text-anchor="middle" x="439.5" y="-12.5" font-family="Helvetica,sans-Serif" font-size="10.00">_rebin.run</text>
</a>
</g>
</g>
<!-- Node4&#45;&gt;Node5 -->
<g id="edge4_Node000004_Node000005" class="edge">
<title>Node4&#45;&gt;Node5</title>
<g id="a_edge4_Node000004_Node000005"><a xlink:title=" ">
<path fill="none" stroke="#63b8ff" d="M538.51,-20.5C530.05,-20.5 521.51,-20.5 513.19,-20.5"/>
<polygon fill="#63b8ff" stroke="#63b8ff" points="538.77,-24 548.77,-20.5 538.77,-17 538.77,-24"/>
</a>
</g>
</g>
<!-- Node6 -->
<g id="Node000006" class="node">
<title>Node6</title>
<g id="a_Node000006"><a xlink:href="../../d1/d3b/namespaceaopp__deconv__tool_1_1spectral__rebin.html#aa9bdd6efd3db7b645aaefcdbad5e2842" target="_top" xlink:title=" ">
<polygon fill="white" stroke="#666666" points="330,-35.5 183,-35.5 183,-5.5 330,-5.5 330,-35.5"/>
<text text-anchor="start" x="191" y="-23.5" font-family="Helvetica,sans-Serif" font-size="10.00">aopp_deconv_tool.spectral</text>
<text text-anchor="middle" x="256.5" y="-12.5" font-family="Helvetica,sans-Serif" font-size="10.00">_rebin.exec_with_args</text>
</a>
</g>
</g>
<!-- Node5&#45;&gt;Node6 -->
<g id="edge5_Node000005_Node000006" class="edge">
<title>Node5&#45;&gt;Node6</title>
<g id="a_edge5_Node000005_Node000006"><a xlink:title=" ">
<path fill="none" stroke="#63b8ff" d="M355.88,-20.5C347.28,-20.5 338.58,-20.5 330.09,-20.5"/>
<polygon fill="#63b8ff" stroke="#63b8ff" points="355.92,-24 365.92,-20.5 355.92,-17 355.92,-24"/>
</a>
</g>
</g>
<!-- Node6&#45;&gt;Node6 -->
<g id="edge6_Node000006_Node000006" class="edge">
<title>Node6&#45;&gt;Node6</title>
<g id="a_edge6_Node000006_Node000006"><a xlink:title=" ">
<path fill="none" stroke="#63b8ff" d="M288.36,-46.1C284,-50.47 273.38,-53.5 256.5,-53.5 228.06,-53.5 217.4,-44.91 224.51,-35.78"/>
<polygon fill="#63b8ff" stroke="#63b8ff" points="291.86,-45.82 288.49,-35.78 284.86,-45.73 291.86,-45.82"/>
</a>
</g>
</g>
<!-- Node7 -->
<g id="Node000007" class="node">
<title>Node7</title>
<g id="a_Node000007"><a xlink:href="../../d1/d3b/namespaceaopp__deconv__tool_1_1spectral__rebin.html#a049527339bf134575025af61a86c25d6" target="_top" xlink:title=" ">
<polygon fill="white" stroke="#666666" points="147,-35.5 0,-35.5 0,-5.5 147,-5.5 147,-35.5"/>
<text text-anchor="start" x="8" y="-23.5" font-family="Helvetica,sans-Serif" font-size="10.00">aopp_deconv_tool.spectral</text>
<text text-anchor="middle" x="73.5" y="-12.5" font-family="Helvetica,sans-Serif" font-size="10.00">_rebin.go</text>
</a>
</g>
</g>
<!-- Node6&#45;&gt;Node7 -->
<g id="edge7_Node000006_Node000007" class="edge">
<title>Node6&#45;&gt;Node7</title>
<g id="a_edge7_Node000006_Node000007"><a xlink:title=" ">
<path fill="none" stroke="#63b8ff" d="M172.88,-20.5C164.28,-20.5 155.58,-20.5 147.09,-20.5"/>
<polygon fill="#63b8ff" stroke="#63b8ff" points="172.92,-24 182.92,-20.5 172.92,-17 172.92,-24"/>
</a>
</g>
</g>
</g>
</svg>

<g id="navigator" transform="translate(0 0)" fill="#404254">
  <rect fill="#f2f5e9" fill-opacity="0.5" stroke="#606060" stroke-width=".5" x="0" y="0" width="60" height="60"/>
  <use id="zoomplus" xlink:href="#zoomPlus" x="17" y="9" onmousedown="handleZoom(evt,'in')"/>
  <use id="zoomminus" xlink:href="#zoomMin" x="42" y="9" onmousedown="handleZoom(evt,'out')"/>
  <use id="reset" xlink:href="#resetDef" x="30" y="36" onmousedown="handleReset()"/>
   <use id="arrowup" xlink:href="#arrowUp" x="0" y="0" onmousedown="handlePan(0,-1)"/>
  <use id="arrowright" xlink:href="#arrowRight" x="0" y="0" onmousedown="handlePan(1,0)"/>
  <use id="arrowdown" xlink:href="#arrowDown" x="0" y="0" onmousedown="handlePan(0,1)"/>
  <use id="arrowleft" xlink:href="#arrowLeft" x="0" y="0" onmousedown="handlePan(-1,0)"/>
</g>
<svg viewBox="0 0 15 15" width="100%" height="30px" preserveAspectRatio="xMaxYMin meet">
 <g id="arrow_out" transform="scale(0.3 0.3)">
  <a xlink:href="namespaceaopp__deconv__tool_1_1spectral__rebin_a23c60b2215405487c73ccdd8f4e6d083_icgraph_org.svg" target="_base">
   <rect id="button" ry="5" rx="5" y="6" x="6" height="38" width="38"
        fill="#f2f5e9" fill-opacity="0.5" stroke="#606060" stroke-width="1.0"/>
   <path id="arrow"
     d="M 11.500037,31.436501 C 11.940474,20.09759 22.043105,11.32322 32.158766,21.979434 L 37.068811,17.246167 C 37.068811,17.246167 37.088388,32 37.088388,32 L 22.160133,31.978069 C 22.160133,31.978069 26.997745,27.140456 26.997745,27.140456 C 18.528582,18.264221 13.291696,25.230495 11.500037,31.436501 z"
     style="fill:#404040;"/>
  </a>
 </g>
</svg>

<style type='text/css'>
<![CDATA[
[data-mouse-over-selected='false'] { opacity: 0.7; }
[data-mouse-over-selected='true']  { opacity: 1.0; }
]]>
</style>
<script type="application/ecmascript"><![CDATA[
document.addEventListener('DOMContentLoaded', (event) => {
  highlightEdges();
  highlightAdjacentNodes();
});
]]></script>
</svg>
