<?xml version="1.0" encoding="UTF-8" standalone="no"?>
<!DOCTYPE svg PUBLIC "-//W3C//DTD SVG 1.1//EN"
 "http://www.w3.org/Graphics/SVG/1.1/DTD/svg11.dtd">
<!-- Generated by graphviz version 2.43.0 (0)
 -->
<!-- Title: aopp_deconv_tool.spectral_rebin.overlap_add_convolve Pages: 1 -->
<svg width="564pt" height="38pt"
 viewBox="0.00 0.00 564.00 38.00" xmlns="http://www.w3.org/2000/svg" xmlns:xlink="http://www.w3.org/1999/xlink">
<g id="graph0" class="graph" transform="scale(1 1) rotate(0) translate(4 34)">
<title>aopp_deconv_tool.spectral_rebin.overlap_add_convolve</title>
<!-- Node1 -->
<g id="Node000001" class="node">
<title>Node1</title>
<g id="a_Node000001"><a xlink:title=" ">
<polygon fill="#999999" stroke="#666666" points="159,-30 0,-30 0,0 159,0 159,-30"/>
<text text-anchor="start" x="8" y="-18" font-family="Helvetica,sans-Serif" font-size="10.00">aopp_deconv_tool.spectral</text>
<text text-anchor="middle" x="79.5" y="-7" font-family="Helvetica,sans-Serif" font-size="10.00">_rebin.overlap_add_convolve</text>
</a>
</g>
</g>
<!-- Node2 -->
<g id="Node000002" class="node">
<title>Node2</title>
<g id="a_Node000002"><a xlink:href="../../d1/d3b/namespaceaopp__deconv__tool_1_1spectral__rebin.html#ad2d029f9bded4dbfcf3df6fd649dc198" target="_top" xlink:title=" ">
<polygon fill="white" stroke="#666666" points="353,-30 195,-30 195,0 353,0 353,-30"/>
<text text-anchor="start" x="203" y="-18" font-family="Helvetica,sans-Serif" font-size="10.00">aopp_deconv_tool.spectral</text>
<text text-anchor="middle" x="274" y="-7" font-family="Helvetica,sans-Serif" font-size="10.00">_rebin.array_const_boundary</text>
</a>
</g>
</g>
<!-- Node1&#45;&gt;Node2 -->
<g id="edge1_Node000001_Node000002" class="edge">
<title>Node1&#45;&gt;Node2</title>
<g id="a_edge1_Node000001_Node000002"><a xlink:title=" ">
<path fill="none" stroke="#63b8ff" d="M159.07,-15C167.59,-15 176.3,-15 184.92,-15"/>
<polygon fill="#63b8ff" stroke="#63b8ff" points="184.99,-18.5 194.99,-15 184.99,-11.5 184.99,-18.5"/>
</a>
</g>
</g>
<!-- Node3 -->
<g id="Node000003" class="node">
<title>Node3</title>
<g id="a_Node000003"><a xlink:href="../../d1/d3b/namespaceaopp__deconv__tool_1_1spectral__rebin.html#a23c60b2215405487c73ccdd8f4e6d083" target="_top" xlink:title=" ">
<polygon fill="white" stroke="#666666" points="556,-30 389,-30 389,0 556,0 556,-30"/>
<text text-anchor="start" x="397" y="-18" font-family="Helvetica,sans-Serif" font-size="10.00">aopp_deconv_tool.spectral</text>
<text text-anchor="middle" x="472.5" y="-7" font-family="Helvetica,sans-Serif" font-size="10.00">_rebin.indices_const_boundary</text>
</a>
</g>
</g>
<!-- Node2&#45;&gt;Node3 -->
<g id="edge2_Node000002_Node000003" class="edge">
<title>Node2&#45;&gt;Node3</title>
<g id="a_edge2_Node000002_Node000003"><a xlink:title=" ">
<path fill="none" stroke="#63b8ff" d="M353.23,-15C361.52,-15 370.01,-15 378.45,-15"/>
<polygon fill="#63b8ff" stroke="#63b8ff" points="378.71,-18.5 388.71,-15 378.71,-11.5 378.71,-18.5"/>
</a>
</g>
</g>
</g>
</svg>
