<?xml version="1.0" encoding="UTF-8" standalone="no"?>
<!DOCTYPE svg PUBLIC "-//W3C//DTD SVG 1.1//EN"
 "http://www.w3.org/Graphics/SVG/1.1/DTD/svg11.dtd">
<!-- Generated by graphviz version 2.43.0 (0)
 -->
<!-- Title: aopp_deconv_tool.spectral_rebin.exec_with_args Pages: 1 -->
<svg width="1135pt" height="194pt"
 viewBox="0.00 0.00 1135.00 193.50" xmlns="http://www.w3.org/2000/svg" xmlns:xlink="http://www.w3.org/1999/xlink">
<g id="graph0" class="graph" transform="scale(1 1) rotate(0) translate(4 189.5)">
<title>aopp_deconv_tool.spectral_rebin.exec_with_args</title>
<!-- Node1 -->
<g id="Node000001" class="node">
<title>Node1</title>
<g id="a_Node000001"><a xlink:title=" ">
<polygon fill="#999999" stroke="#666666" points="147,-137.5 0,-137.5 0,-107.5 147,-107.5 147,-137.5"/>
<text text-anchor="start" x="8" y="-125.5" font-family="Helvetica,sans-Serif" font-size="10.00">aopp_deconv_tool.spectral</text>
<text text-anchor="middle" x="73.5" y="-114.5" font-family="Helvetica,sans-Serif" font-size="10.00">_rebin.exec_with_args</text>
</a>
</g>
</g>
<!-- Node1&#45;&gt;Node1 -->
<g id="edge1_Node000001_Node000001" class="edge">
<title>Node1&#45;&gt;Node1</title>
<g id="a_edge1_Node000001_Node000001"><a xlink:title=" ">
<path fill="none" stroke="#63b8ff" d="M41.51,-137.78C34.4,-146.91 45.06,-155.5 73.5,-155.5 90.38,-155.5 101,-152.47 105.36,-148.1"/>
<polygon fill="#63b8ff" stroke="#63b8ff" points="108.86,-147.82 105.49,-137.78 101.86,-147.73 108.86,-147.82"/>
</a>
</g>
</g>
<!-- Node2 -->
<g id="Node000002" class="node">
<title>Node2</title>
<g id="a_Node000002"><a xlink:href="../../d1/d3b/namespaceaopp__deconv__tool_1_1spectral__rebin.html#ace5a0ce85a7cdb93418aa575a5aa336a" target="_top" xlink:title=" ">
<polygon fill="white" stroke="#666666" points="330,-161.5 183,-161.5 183,-131.5 330,-131.5 330,-161.5"/>
<text text-anchor="start" x="191" y="-149.5" font-family="Helvetica,sans-Serif" font-size="10.00">aopp_deconv_tool.spectral</text>
<text text-anchor="middle" x="256.5" y="-138.5" font-family="Helvetica,sans-Serif" font-size="10.00">_rebin.parse_args</text>
</a>
</g>
</g>
<!-- Node1&#45;&gt;Node2 -->
<g id="edge2_Node000001_Node000002" class="edge">
<title>Node1&#45;&gt;Node2</title>
<g id="a_edge2_Node000001_Node000002"><a xlink:title=" ">
<path fill="none" stroke="#63b8ff" d="M147.08,-132.12C155.56,-133.25 164.26,-134.4 172.87,-135.54"/>
<polygon fill="#63b8ff" stroke="#63b8ff" points="172.53,-139.03 182.91,-136.87 173.45,-132.09 172.53,-139.03"/>
</a>
</g>
</g>
<!-- Node5 -->
<g id="Node000005" class="node">
<title>Node5</title>
<g id="a_Node000005"><a xlink:href="../../d1/d3b/namespaceaopp__deconv__tool_1_1spectral__rebin.html#ac95d1740ef0a7b916f187d8f74000edd" target="_top" xlink:title=" ">
<polygon fill="white" stroke="#666666" points="330,-113.5 183,-113.5 183,-83.5 330,-83.5 330,-113.5"/>
<text text-anchor="start" x="191" y="-101.5" font-family="Helvetica,sans-Serif" font-size="10.00">aopp_deconv_tool.spectral</text>
<text text-anchor="middle" x="256.5" y="-90.5" font-family="Helvetica,sans-Serif" font-size="10.00">_rebin.run</text>
</a>
</g>
</g>
<!-- Node1&#45;&gt;Node5 -->
<g id="edge5_Node000001_Node000005" class="edge">
<title>Node1&#45;&gt;Node5</title>
<g id="a_edge5_Node000001_Node000005"><a xlink:title=" ">
<path fill="none" stroke="#63b8ff" d="M147.08,-112.88C155.56,-111.75 164.26,-110.6 172.87,-109.46"/>
<polygon fill="#63b8ff" stroke="#63b8ff" points="173.45,-112.91 182.91,-108.13 172.53,-105.97 173.45,-112.91"/>
</a>
</g>
</g>
<!-- Node3 -->
<g id="Node000003" class="node">
<title>Node3</title>
<g id="a_Node000003"><a xlink:href="../../d8/d5b/namespaceaopp__deconv__tool_1_1text.html#a75d81e58c71da89b56473e2616edd1c6" target="_top" xlink:title=" ">
<polygon fill="white" stroke="#666666" points="521,-168 366,-168 366,-149 521,-149 521,-168"/>
<text text-anchor="middle" x="443.5" y="-156" font-family="Helvetica,sans-Serif" font-size="10.00">aopp_deconv_tool.text.wrap</text>
</a>
</g>
</g>
<!-- Node2&#45;&gt;Node3 -->
<g id="edge3_Node000002_Node000003" class="edge">
<title>Node2&#45;&gt;Node3</title>
<g id="a_edge3_Node000002_Node000003"><a xlink:title=" ">
<path fill="none" stroke="#63b8ff" d="M330.09,-151.21C338.53,-151.76 347.2,-152.32 355.8,-152.88"/>
<polygon fill="#63b8ff" stroke="#63b8ff" points="355.65,-156.37 365.86,-153.53 356.1,-149.39 355.65,-156.37"/>
</a>
</g>
</g>
<!-- Node4 -->
<g id="Node000004" class="node">
<title>Node4</title>
<g id="a_Node000004"><a xlink:href="../../d8/d5b/namespaceaopp__deconv__tool_1_1text.html#a1496cf89a275b1b851ff81f401628c27" target="_top" xlink:title=" ">
<polygon fill="white" stroke="#666666" points="730,-185.5 557,-185.5 557,-155.5 730,-155.5 730,-185.5"/>
<text text-anchor="start" x="565" y="-173.5" font-family="Helvetica,sans-Serif" font-size="10.00">aopp_deconv_tool.text.combine</text>
<text text-anchor="middle" x="643.5" y="-162.5" font-family="Helvetica,sans-Serif" font-size="10.00">_lines_with_same_indent</text>
</a>
</g>
</g>
<!-- Node3&#45;&gt;Node4 -->
<g id="edge4_Node000003_Node000004" class="edge">
<title>Node3&#45;&gt;Node4</title>
<g id="a_edge4_Node000003_Node000004"><a xlink:title=" ">
<path fill="none" stroke="#63b8ff" d="M521.05,-163.14C529.5,-163.65 538.18,-164.18 546.82,-164.7"/>
<polygon fill="#63b8ff" stroke="#63b8ff" points="546.74,-168.2 556.94,-165.31 547.17,-161.22 546.74,-168.2"/>
</a>
</g>
</g>
<!-- Node6 -->
<g id="Node000006" class="node">
<title>Node6</title>
<g id="a_Node000006"><a xlink:href="../../d1/d3b/namespaceaopp__deconv__tool_1_1spectral__rebin.html#a462c8ccf7c78154d2321174ad4174cd2" target="_top" xlink:title=" ">
<polygon fill="white" stroke="#666666" points="518.5,-119 368.5,-119 368.5,-78 518.5,-78 518.5,-119"/>
<text text-anchor="start" x="376.5" y="-107" font-family="Helvetica,sans-Serif" font-size="10.00">aopp_deconv_tool.spectral</text>
<text text-anchor="start" x="376.5" y="-96" font-family="Helvetica,sans-Serif" font-size="10.00">_rebin.rebin_hdu_over_axis</text>
<text text-anchor="middle" x="443.5" y="-85" font-family="Helvetica,sans-Serif" font-size="10.00">_with_response_function</text>
</a>
</g>
</g>
<!-- Node5&#45;&gt;Node6 -->
<g id="edge6_Node000005_Node000006" class="edge">
<title>Node5&#45;&gt;Node6</title>
<g id="a_edge6_Node000005_Node000006"><a xlink:title=" ">
<path fill="none" stroke="#63b8ff" d="M330.09,-98.5C339.3,-98.5 348.8,-98.5 358.18,-98.5"/>
<polygon fill="#63b8ff" stroke="#63b8ff" points="358.3,-102 368.3,-98.5 358.3,-95 358.3,-102"/>
</a>
</g>
</g>
<!-- Node7 -->
<g id="Node000007" class="node">
<title>Node7</title>
<g id="a_Node000007"><a xlink:href="../../d1/d3b/namespaceaopp__deconv__tool_1_1spectral__rebin.html#a4e174b0f84cf2d54a37155ffc8f15c40" target="_top" xlink:title=" ">
<polygon fill="white" stroke="#666666" points="717,-137.5 570,-137.5 570,-107.5 717,-107.5 717,-137.5"/>
<text text-anchor="start" x="578" y="-125.5" font-family="Helvetica,sans-Serif" font-size="10.00">aopp_deconv_tool.spectral</text>
<text text-anchor="middle" x="643.5" y="-114.5" font-family="Helvetica,sans-Serif" font-size="10.00">_rebin.lin_interp</text>
</a>
</g>
</g>
<!-- Node6&#45;&gt;Node7 -->
<g id="edge7_Node000006_Node000007" class="edge">
<title>Node6&#45;&gt;Node7</title>
<g id="a_edge7_Node000006_Node000007"><a xlink:title=" ">
<path fill="none" stroke="#63b8ff" d="M518.51,-107.47C531.9,-109.09 545.95,-110.8 559.57,-112.45"/>
<polygon fill="#63b8ff" stroke="#63b8ff" points="559.55,-115.97 569.9,-113.7 560.39,-109.02 559.55,-115.97"/>
</a>
</g>
</g>
<!-- Node8 -->
<g id="Node000008" class="node">
<title>Node8</title>
<g id="a_Node000008"><a xlink:href="../../d1/d3b/namespaceaopp__deconv__tool_1_1spectral__rebin.html#a75f176aa453b954c58427a9ccb24ab9b" target="_top" xlink:title=" ">
<polygon fill="white" stroke="#666666" points="723,-89.5 564,-89.5 564,-59.5 723,-59.5 723,-89.5"/>
<text text-anchor="start" x="572" y="-77.5" font-family="Helvetica,sans-Serif" font-size="10.00">aopp_deconv_tool.spectral</text>
<text text-anchor="middle" x="643.5" y="-66.5" font-family="Helvetica,sans-Serif" font-size="10.00">_rebin.overlap_add_convolve</text>
</a>
</g>
</g>
<!-- Node6&#45;&gt;Node8 -->
<g id="edge8_Node000006_Node000008" class="edge">
<title>Node6&#45;&gt;Node8</title>
<g id="a_edge8_Node000006_Node000008"><a xlink:title=" ">
<path fill="none" stroke="#63b8ff" d="M518.51,-89.53C529.98,-88.14 541.93,-86.69 553.68,-85.27"/>
<polygon fill="#63b8ff" stroke="#63b8ff" points="554.44,-88.7 563.94,-84.02 553.6,-81.75 554.44,-88.7"/>
</a>
</g>
</g>
<!-- Node11 -->
<g id="Node000011" class="node">
<title>Node11</title>
<g id="a_Node000011"><a xlink:href="../../d1/d3b/namespaceaopp__deconv__tool_1_1spectral__rebin.html#a8b4568cf198b4e461e422728312cb8c2" target="_top" xlink:title=" ">
<polygon fill="white" stroke="#666666" points="717.5,-41 569.5,-41 569.5,0 717.5,0 717.5,-41"/>
<text text-anchor="start" x="577.5" y="-29" font-family="Helvetica,sans-Serif" font-size="10.00">aopp_deconv_tool.spectral</text>
<text text-anchor="start" x="577.5" y="-18" font-family="Helvetica,sans-Serif" font-size="10.00">_rebin.plot_rebin_response</text>
<text text-anchor="middle" x="643.5" y="-7" font-family="Helvetica,sans-Serif" font-size="10.00">_function</text>
</a>
</g>
</g>
<!-- Node6&#45;&gt;Node11 -->
<g id="edge11_Node000006_Node000011" class="edge">
<title>Node6&#45;&gt;Node11</title>
<g id="a_edge11_Node000006_Node000011"><a xlink:title=" ">
<path fill="none" stroke="#63b8ff" d="M490.74,-77.96C510.96,-69.19 535.03,-59.03 557,-50.5 562.04,-48.54 567.27,-46.57 572.54,-44.62"/>
<polygon fill="#63b8ff" stroke="#63b8ff" points="573.87,-47.87 582.06,-41.15 571.47,-41.29 573.87,-47.87"/>
</a>
</g>
</g>
<!-- Node9 -->
<g id="Node000009" class="node">
<title>Node9</title>
<g id="a_Node000009"><a xlink:href="../../d1/d3b/namespaceaopp__deconv__tool_1_1spectral__rebin.html#ad2d029f9bded4dbfcf3df6fd649dc198" target="_top" xlink:title=" ">
<polygon fill="white" stroke="#666666" points="924,-89.5 766,-89.5 766,-59.5 924,-59.5 924,-89.5"/>
<text text-anchor="start" x="774" y="-77.5" font-family="Helvetica,sans-Serif" font-size="10.00">aopp_deconv_tool.spectral</text>
<text text-anchor="middle" x="845" y="-66.5" font-family="Helvetica,sans-Serif" font-size="10.00">_rebin.array_const_boundary</text>
</a>
</g>
</g>
<!-- Node8&#45;&gt;Node9 -->
<g id="edge9_Node000008_Node000009" class="edge">
<title>Node8&#45;&gt;Node9</title>
<g id="a_edge9_Node000008_Node000009"><a xlink:title=" ">
<path fill="none" stroke="#63b8ff" d="M723.06,-74.5C733.72,-74.5 744.72,-74.5 755.54,-74.5"/>
<polygon fill="#63b8ff" stroke="#63b8ff" points="755.84,-78 765.84,-74.5 755.84,-71 755.84,-78"/>
</a>
</g>
</g>
<!-- Node10 -->
<g id="Node000010" class="node">
<title>Node10</title>
<g id="a_Node000010"><a xlink:href="../../d1/d3b/namespaceaopp__deconv__tool_1_1spectral__rebin.html#a23c60b2215405487c73ccdd8f4e6d083" target="_top" xlink:title=" ">
<polygon fill="white" stroke="#666666" points="1127,-89.5 960,-89.5 960,-59.5 1127,-59.5 1127,-89.5"/>
<text text-anchor="start" x="968" y="-77.5" font-family="Helvetica,sans-Serif" font-size="10.00">aopp_deconv_tool.spectral</text>
<text text-anchor="middle" x="1043.5" y="-66.5" font-family="Helvetica,sans-Serif" font-size="10.00">_rebin.indices_const_boundary</text>
</a>
</g>
</g>
<!-- Node9&#45;&gt;Node10 -->
<g id="edge10_Node000009_Node000010" class="edge">
<title>Node9&#45;&gt;Node10</title>
<g id="a_edge10_Node000009_Node000010"><a xlink:title=" ">
<path fill="none" stroke="#63b8ff" d="M924.23,-74.5C932.52,-74.5 941.01,-74.5 949.45,-74.5"/>
<polygon fill="#63b8ff" stroke="#63b8ff" points="949.71,-78 959.71,-74.5 949.71,-71 949.71,-78"/>
</a>
</g>
</g>
</g>
</svg>
