<?xml version="1.0" encoding="UTF-8" standalone="no"?>
<!DOCTYPE svg PUBLIC "-//W3C//DTD SVG 1.1//EN"
 "http://www.w3.org/Graphics/SVG/1.1/DTD/svg11.dtd">
<!-- Generated by graphviz version 2.43.0 (0)
 -->
<!-- Title: aopp_deconv_tool.py_svd.plot Pages: 1 -->
<svg width="877pt" height="259pt"
 viewBox="0.00 0.00 877.00 258.50" xmlns="http://www.w3.org/2000/svg" xmlns:xlink="http://www.w3.org/1999/xlink">
<g id="graph0" class="graph" transform="scale(1 1) rotate(0) translate(4 254.5)">
<title>aopp_deconv_tool.py_svd.plot</title>
<!-- Node1 -->
<g id="node1" class="node">
<title>Node1</title>
<g id="a_node1"><a xlink:title=" ">
<polygon fill="#bfbfbf" stroke="black" points="749,-116 749,-146 869,-146 869,-116 749,-116"/>
<text text-anchor="start" x="757" y="-134" font-family="Helvetica,sans-Serif" font-size="10.00">aopp_deconv_tool.py</text>
<text text-anchor="middle" x="809" y="-123" font-family="Helvetica,sans-Serif" font-size="10.00">_svd.plot</text>
</a>
</g>
</g>
<!-- Node2 -->
<g id="node2" class="node">
<title>Node2</title>
<g id="a_node2"><a xlink:href="../../de/daa/namespaceaopp__deconv__tool_1_1psf__data__ops.html#a1748b457fcbf82cab1d62a64a5a10c77" target="_top" xlink:title=" ">
<polygon fill="none" stroke="black" points="553,-220 553,-250 676,-250 676,-220 553,-220"/>
<text text-anchor="start" x="561" y="-238" font-family="Helvetica,sans-Serif" font-size="10.00">aopp_deconv_tool.psf</text>
<text text-anchor="middle" x="614.5" y="-227" font-family="Helvetica,sans-Serif" font-size="10.00">_data_ops.fit_to_data</text>
</a>
</g>
</g>
<!-- Node1&#45;&gt;Node2 -->
<g id="edge1" class="edge">
<title>Node1&#45;&gt;Node2</title>
<path fill="none" stroke="midnightblue" d="M787.32,-153.38C769.35,-171.51 741.75,-196.37 713,-211 701.58,-216.81 688.68,-221.26 676.09,-224.66"/>
<polygon fill="midnightblue" stroke="midnightblue" points="789.96,-155.69 794.4,-146.07 784.93,-150.82 789.96,-155.69"/>
</g>
<!-- Node3 -->
<g id="node3" class="node">
<title>Node3</title>
<g id="a_node3"><a xlink:href="../../de/d99/namespaceaopp__deconv__tool_1_1geo__array.html#a300fb220a527967dcb71fd53a8ca2a92" target="_top" xlink:title=" ">
<polygon fill="none" stroke="black" points="551.5,-171 551.5,-201 677.5,-201 677.5,-171 551.5,-171"/>
<text text-anchor="start" x="559.5" y="-189" font-family="Helvetica,sans-Serif" font-size="10.00">aopp_deconv_tool.geo</text>
<text text-anchor="middle" x="614.5" y="-178" font-family="Helvetica,sans-Serif" font-size="10.00">_array.plot_ga</text>
</a>
</g>
</g>
<!-- Node1&#45;&gt;Node3 -->
<g id="edge2" class="edge">
<title>Node1&#45;&gt;Node3</title>
<path fill="none" stroke="midnightblue" d="M752.54,-149.07C739.61,-153.13 725.85,-157.33 713,-161 701.15,-164.39 688.44,-167.8 676.23,-170.98"/>
<polygon fill="midnightblue" stroke="midnightblue" points="753.77,-152.36 762.25,-146.01 751.66,-145.68 753.77,-152.36"/>
</g>
<!-- Node5 -->
<g id="node5" class="node">
<title>Node5</title>
<g id="a_node5"><a xlink:href="../../d2/d5e/classaopp__deconv__tool_1_1optimise__compat_1_1ultranest__compat_1_1UltranestResultSet.html#a60379b92d22d46d219194d47499b0825" target="_top" xlink:title=" ">
<polygon fill="none" stroke="black" points="516,-110.5 516,-151.5 713,-151.5 713,-110.5 516,-110.5"/>
<text text-anchor="start" x="524" y="-139.5" font-family="Helvetica,sans-Serif" font-size="10.00">aopp_deconv_tool.optimise</text>
<text text-anchor="start" x="524" y="-128.5" font-family="Helvetica,sans-Serif" font-size="10.00">_compat.ultranest_compat.Ultranest</text>
<text text-anchor="middle" x="614.5" y="-117.5" font-family="Helvetica,sans-Serif" font-size="10.00">ResultSet.plot_params_vs_run_index</text>
</a>
</g>
</g>
<!-- Node1&#45;&gt;Node5 -->
<g id="edge4" class="edge">
<title>Node1&#45;&gt;Node5</title>
<path fill="none" stroke="midnightblue" d="M738.88,-131C730.49,-131 721.81,-131 713.12,-131"/>
<polygon fill="midnightblue" stroke="midnightblue" points="738.94,-134.5 748.94,-131 738.94,-127.5 738.94,-134.5"/>
</g>
<!-- Node6 -->
<g id="node6" class="node">
<title>Node6</title>
<g id="a_node6"><a xlink:href="../../dc/dc5/namespaceaopp__deconv__tool_1_1fit__psf__model.html#a60e96d5e90494e5e63d1860dd3b3918c" target="_top" xlink:title=" ">
<polygon fill="none" stroke="black" points="550.5,-61 550.5,-91 678.5,-91 678.5,-61 550.5,-61"/>
<text text-anchor="start" x="558.5" y="-79" font-family="Helvetica,sans-Serif" font-size="10.00">aopp_deconv_tool.fit</text>
<text text-anchor="middle" x="614.5" y="-68" font-family="Helvetica,sans-Serif" font-size="10.00">_psf_model.plot_result</text>
</a>
</g>
</g>
<!-- Node1&#45;&gt;Node6 -->
<g id="edge5" class="edge">
<title>Node1&#45;&gt;Node6</title>
<path fill="none" stroke="midnightblue" d="M752.54,-112.93C739.61,-108.87 725.85,-104.67 713,-101 701.15,-97.61 688.44,-94.2 676.23,-91.02"/>
<polygon fill="midnightblue" stroke="midnightblue" points="751.66,-116.32 762.25,-115.99 753.77,-109.64 751.66,-116.32"/>
</g>
<!-- Node10 -->
<g id="node10" class="node">
<title>Node10</title>
<g id="a_node10"><a xlink:href="../../d3/dde/namespaceaopp__deconv__tool_1_1algorithm_1_1bad__pixels_1_1ssa__sum__prob.html#a7b58f544ed0295af5dc8b81e398fd640" target="_top" xlink:title=" ">
<polygon fill="none" stroke="black" points="526.5,-0.5 526.5,-41.5 702.5,-41.5 702.5,-0.5 526.5,-0.5"/>
<text text-anchor="start" x="534.5" y="-29.5" font-family="Helvetica,sans-Serif" font-size="10.00">aopp_deconv_tool.algorithm.bad</text>
<text text-anchor="start" x="534.5" y="-18.5" font-family="Helvetica,sans-Serif" font-size="10.00">_pixels.ssa_sum_prob.ssa2d</text>
<text text-anchor="middle" x="614.5" y="-7.5" font-family="Helvetica,sans-Serif" font-size="10.00">_sum_prob_map</text>
</a>
</g>
</g>
<!-- Node1&#45;&gt;Node10 -->
<g id="edge9" class="edge">
<title>Node1&#45;&gt;Node10</title>
<path fill="none" stroke="midnightblue" d="M786.78,-108.73C768.67,-90.88 741.16,-66.35 713,-51 706.62,-47.52 699.79,-44.39 692.81,-41.58"/>
<polygon fill="midnightblue" stroke="midnightblue" points="784.4,-111.3 793.94,-115.92 789.36,-106.36 784.4,-111.3"/>
</g>
<!-- Node4 -->
<g id="node4" class="node">
<title>Node4</title>
<g id="a_node4"><a xlink:href="../../d5/de7/classaopp__deconv__tool_1_1psf__model_1_1adaptive__optics__psf__model_1_1PSFModel.html#a06d0c27d6d99db1295c53769cb5ae7c6" target="_top" xlink:title=" ">
<polygon fill="none" stroke="black" points="343,-165.5 343,-206.5 480,-206.5 480,-165.5 343,-165.5"/>
<text text-anchor="start" x="351" y="-194.5" font-family="Helvetica,sans-Serif" font-size="10.00">aopp_deconv_tool.psf</text>
<text text-anchor="start" x="351" y="-183.5" font-family="Helvetica,sans-Serif" font-size="10.00">_model.adaptive_optics</text>
<text text-anchor="middle" x="411.5" y="-172.5" font-family="Helvetica,sans-Serif" font-size="10.00">_psf_model.PSFModel.at</text>
</a>
</g>
</g>
<!-- Node3&#45;&gt;Node4 -->
<g id="edge3" class="edge">
<title>Node3&#45;&gt;Node4</title>
<path fill="none" stroke="midnightblue" d="M541.03,-186C521.13,-186 499.63,-186 480.01,-186"/>
<polygon fill="midnightblue" stroke="midnightblue" points="541.28,-189.5 551.28,-186 541.28,-182.5 541.28,-189.5"/>
</g>
<!-- Node7 -->
<g id="node7" class="node">
<title>Node7</title>
<g id="a_node7"><a xlink:href="../../dc/dc5/namespaceaopp__deconv__tool_1_1fit__psf__model.html#ae604716ccc026d24ff512636a3a4be02" target="_top" xlink:title=" ">
<polygon fill="none" stroke="black" points="352,-61 352,-91 471,-91 471,-61 352,-61"/>
<text text-anchor="start" x="360" y="-79" font-family="Helvetica,sans-Serif" font-size="10.00">aopp_deconv_tool.fit</text>
<text text-anchor="middle" x="411.5" y="-68" font-family="Helvetica,sans-Serif" font-size="10.00">_psf_model.run</text>
</a>
</g>
</g>
<!-- Node6&#45;&gt;Node7 -->
<g id="edge6" class="edge">
<title>Node6&#45;&gt;Node7</title>
<path fill="none" stroke="midnightblue" d="M540.18,-76C517.49,-76 492.79,-76 471.22,-76"/>
<polygon fill="midnightblue" stroke="midnightblue" points="540.45,-79.5 550.45,-76 540.45,-72.5 540.45,-79.5"/>
</g>
<!-- Node8 -->
<g id="node8" class="node">
<title>Node8</title>
<g id="a_node8"><a xlink:href="../../dc/dc5/namespaceaopp__deconv__tool_1_1fit__psf__model.html#a628509727f69f8b5e5d81e2ae1a11110" target="_top" xlink:title=" ">
<polygon fill="none" stroke="black" points="155,-61 155,-91 307,-91 307,-61 155,-61"/>
<text text-anchor="start" x="163" y="-79" font-family="Helvetica,sans-Serif" font-size="10.00">aopp_deconv_tool.fit</text>
<text text-anchor="middle" x="231" y="-68" font-family="Helvetica,sans-Serif" font-size="10.00">_psf_model.exec_with_args</text>
</a>
</g>
</g>
<!-- Node7&#45;&gt;Node8 -->
<g id="edge7" class="edge">
<title>Node7&#45;&gt;Node8</title>
<path fill="none" stroke="midnightblue" d="M341.39,-76C330.16,-76 318.48,-76 307.11,-76"/>
<polygon fill="midnightblue" stroke="midnightblue" points="341.56,-79.5 351.56,-76 341.56,-72.5 341.56,-79.5"/>
</g>
<!-- Node9 -->
<g id="node9" class="node">
<title>Node9</title>
<g id="a_node9"><a xlink:href="../../dc/dc5/namespaceaopp__deconv__tool_1_1fit__psf__model.html#a88a4d3ec1a38814c98721c5144c3ecdd" target="_top" xlink:title=" ">
<polygon fill="none" stroke="black" points="0,-61 0,-91 119,-91 119,-61 0,-61"/>
<text text-anchor="start" x="8" y="-79" font-family="Helvetica,sans-Serif" font-size="10.00">aopp_deconv_tool.fit</text>
<text text-anchor="middle" x="59.5" y="-68" font-family="Helvetica,sans-Serif" font-size="10.00">_psf_model.go</text>
</a>
</g>
</g>
<!-- Node8&#45;&gt;Node9 -->
<g id="edge8" class="edge">
<title>Node8&#45;&gt;Node9</title>
<path fill="none" stroke="midnightblue" d="M144.56,-76C135.93,-76 127.31,-76 119.06,-76"/>
<polygon fill="midnightblue" stroke="midnightblue" points="144.67,-79.5 154.67,-76 144.67,-72.5 144.67,-79.5"/>
</g>
</g>
</svg>
