<?xml version="1.0" encoding="UTF-8" standalone="no"?>
<!DOCTYPE svg PUBLIC "-//W3C//DTD SVG 1.1//EN"
 "http://www.w3.org/Graphics/SVG/1.1/DTD/svg11.dtd">
<!-- Generated by graphviz version 2.43.0 (0)
 -->
<!-- Title: aopp_deconv_tool.algorithm.deconv.lucy_richardson.LucyRichardson Pages: 1 -->
<svg width="632pt" height="316pt"
 viewBox="0.00 0.00 632.19 316.00" xmlns="http://www.w3.org/2000/svg" xmlns:xlink="http://www.w3.org/1999/xlink">
<g id="graph0" class="graph" transform="scale(1 1) rotate(0) translate(4 312)">
<title>aopp_deconv_tool.algorithm.deconv.lucy_richardson.LucyRichardson</title>
<!-- Node1 -->
<g id="Node000001" class="node">
<title>Node1</title>
<g id="a_Node000001"><a xlink:title=" ">
<polygon fill="#999999" stroke="#666666" points="475.19,-30 259.19,-30 259.19,0 475.19,0 475.19,-30"/>
<text text-anchor="start" x="267.19" y="-18" font-family="Helvetica,sans-Serif" font-size="10.00">aopp_deconv_tool.algorithm.deconv.lucy</text>
<text text-anchor="middle" x="367.19" y="-7" font-family="Helvetica,sans-Serif" font-size="10.00">_richardson.LucyRichardson</text>
</a>
</g>
</g>
<!-- Node2 -->
<g id="Node000002" class="node">
<title>Node2</title>
<g id="a_Node000002"><a xlink:href="../../d1/df9/classaopp__deconv__tool_1_1algorithm_1_1deconv_1_1base_1_1Base.html" target="_top" xlink:title=" ">
<polygon fill="white" stroke="#666666" points="346.19,-196.5 100.19,-196.5 100.19,-177.5 346.19,-177.5 346.19,-196.5"/>
<text text-anchor="middle" x="223.19" y="-184.5" font-family="Helvetica,sans-Serif" font-size="10.00">aopp_deconv_tool.algorithm.deconv.base.Base</text>
</a>
</g>
</g>
<!-- Node2&#45;&gt;Node1 -->
<g id="edge1_Node000001_Node000002" class="edge">
<title>Node2&#45;&gt;Node1</title>
<g id="a_edge1_Node000001_Node000002"><a xlink:title=" ">
<path fill="none" stroke="#63b8ff" d="M237.21,-169.45C265.47,-136.08 328.82,-61.3 355.25,-30.1"/>
<polygon fill="#63b8ff" stroke="#63b8ff" points="234.32,-167.44 230.53,-177.34 239.66,-171.97 234.32,-167.44"/>
</a>
</g>
</g>
<!-- Node3 -->
<g id="Node000003" class="node">
<title>Node3</title>
<g id="a_Node000003"><a xlink:title=" ">
<polygon fill="white" stroke="#666666" points="357.69,-308 328.69,-308 328.69,-289 357.69,-289 357.69,-308"/>
<text text-anchor="middle" x="343.19" y="-296" font-family="Helvetica,sans-Serif" font-size="10.00">int</text>
</a>
</g>
</g>
<!-- Node3&#45;&gt;Node2 -->
<g id="edge2_Node000002_Node000003" class="edge">
<title>Node3&#45;&gt;Node2</title>
<g id="a_edge2_Node000002_Node000003"><a xlink:title=" ">
<path fill="none" stroke="#9a32cd" stroke-dasharray="5,2" d="M339.99,-278.81C336.99,-266.05 331.38,-249.46 321.19,-238 302.92,-217.44 274.19,-204.19 252.56,-196.53"/>
<polygon fill="#9a32cd" stroke="#9a32cd" points="336.6,-279.69 342.01,-288.8 343.46,-278.3 336.6,-279.69"/>
</a>
</g>
<text text-anchor="middle" x="373.69" y="-263" font-family="Helvetica,sans-Serif" font-size="10.00" fill="grey"> _i</text>
<text text-anchor="middle" x="373.69" y="-252" font-family="Helvetica,sans-Serif" font-size="10.00" fill="grey">n_iter</text>
<text text-anchor="middle" x="373.69" y="-241" font-family="Helvetica,sans-Serif" font-size="10.00" fill="grey">n_iter_stopped</text>
</g>
<!-- Node4 -->
<g id="Node000004" class="node">
<title>Node4</title>
<g id="a_Node000004"><a xlink:title=" ">
<polygon fill="white" stroke="#666666" points="144.69,-308 115.69,-308 115.69,-289 144.69,-289 144.69,-308"/>
<text text-anchor="middle" x="130.19" y="-296" font-family="Helvetica,sans-Serif" font-size="10.00">str</text>
</a>
</g>
</g>
<!-- Node4&#45;&gt;Node2 -->
<g id="edge3_Node000002_Node000004" class="edge">
<title>Node4&#45;&gt;Node2</title>
<g id="a_edge3_Node000002_Node000004"><a xlink:title=" ">
<path fill="none" stroke="#9a32cd" stroke-dasharray="5,2" d="M131.35,-278.78C132.92,-266.25 136.61,-249.92 145.19,-238 159.28,-218.42 183.64,-204.62 201.4,-196.55"/>
<polygon fill="#9a32cd" stroke="#9a32cd" points="127.84,-278.72 130.41,-289 134.81,-279.36 127.84,-278.72"/>
</a>
</g>
<text text-anchor="middle" x="184.69" y="-252" font-family="Helvetica,sans-Serif" font-size="10.00" fill="grey"> progress_string</text>
</g>
<!-- Node5 -->
<g id="Node000005" class="node">
<title>Node5</title>
<g id="a_Node000005"><a xlink:title=" ">
<polygon fill="white" stroke="#666666" points="36.69,-308 7.69,-308 7.69,-289 36.69,-289 36.69,-308"/>
<text text-anchor="middle" x="22.19" y="-296" font-family="Helvetica,sans-Serif" font-size="10.00">np</text>
</a>
</g>
</g>
<!-- Node5&#45;&gt;Node1 -->
<g id="edge9_Node000001_Node000005" class="edge">
<title>Node5&#45;&gt;Node1</title>
<g id="a_edge9_Node000001_Node000005"><a xlink:title=" ">
<path fill="none" stroke="#9a32cd" stroke-dasharray="5,2" d="M14.72,-279.13C4.17,-249.96 -11.16,-192.41 14.19,-154 67.57,-73.14 176.33,-39.64 259.1,-25.77"/>
<polygon fill="#9a32cd" stroke="#9a32cd" points="11.59,-280.74 18.44,-288.83 18.13,-278.24 11.59,-280.74"/>
</a>
</g>
<text text-anchor="middle" x="52.69" y="-212" font-family="Helvetica,sans-Serif" font-size="10.00" fill="grey"> _blurred_est</text>
<text text-anchor="middle" x="52.69" y="-201" font-family="Helvetica,sans-Serif" font-size="10.00" fill="grey">_cf</text>
<text text-anchor="middle" x="52.69" y="-190" font-family="Helvetica,sans-Serif" font-size="10.00" fill="grey">_obs_per_est</text>
<text text-anchor="start" x="14.19" y="-179" font-family="Helvetica,sans-Serif" font-size="10.00" fill="grey">_out_of_bounds</text>
<text text-anchor="middle" x="52.69" y="-168" font-family="Helvetica,sans-Serif" font-size="10.00" fill="grey">_mask</text>
<text text-anchor="middle" x="52.69" y="-157" font-family="Helvetica,sans-Serif" font-size="10.00" fill="grey">_psf_reversed</text>
</g>
<!-- Node5&#45;&gt;Node2 -->
<g id="edge4_Node000002_Node000005" class="edge">
<title>Node5&#45;&gt;Node2</title>
<g id="a_edge4_Node000002_Node000005"><a xlink:title=" ">
<path fill="none" stroke="#9a32cd" stroke-dasharray="5,2" d="M29.63,-279.32C35.93,-266.08 46.18,-248.65 60.19,-238 89.29,-215.88 128.25,-203.46 160.78,-196.54"/>
<polygon fill="#9a32cd" stroke="#9a32cd" points="26.26,-278.28 25.43,-288.84 32.67,-281.11 26.26,-278.28"/>
</a>
</g>
<text text-anchor="middle" x="94.69" y="-257.5" font-family="Helvetica,sans-Serif" font-size="10.00" fill="grey"> _components</text>
<text text-anchor="middle" x="94.69" y="-246.5" font-family="Helvetica,sans-Serif" font-size="10.00" fill="grey">_residual</text>
</g>
<!-- Node6 -->
<g id="Node000006" class="node">
<title>Node6</title>
<g id="a_Node000006"><a xlink:title=" ">
<polygon fill="white" stroke="#666666" points="249.69,-308 214.69,-308 214.69,-289 249.69,-289 249.69,-308"/>
<text text-anchor="middle" x="232.19" y="-296" font-family="Helvetica,sans-Serif" font-size="10.00">dict</text>
</a>
</g>
</g>
<!-- Node6&#45;&gt;Node2 -->
<g id="edge5_Node000002_Node000006" class="edge">
<title>Node6&#45;&gt;Node2</title>
<g id="a_edge5_Node000002_Node000006"><a xlink:title=" ">
<path fill="none" stroke="#9a32cd" stroke-dasharray="5,2" d="M230.66,-278.93C228.69,-254.95 225.34,-214.19 223.89,-196.55"/>
<polygon fill="#9a32cd" stroke="#9a32cd" points="227.18,-279.23 231.48,-288.91 234.15,-278.65 227.18,-279.23"/>
</a>
</g>
<text text-anchor="middle" x="274.19" y="-252" font-family="Helvetica,sans-Serif" font-size="10.00" fill="grey"> _last_parameters</text>
</g>
<!-- Node7 -->
<g id="Node000007" class="node">
<title>Node7</title>
<g id="a_Node000007"><a xlink:title=" ">
<polygon fill="white" stroke="#666666" points="402.19,-196.5 364.19,-196.5 364.19,-177.5 402.19,-177.5 402.19,-196.5"/>
<text text-anchor="middle" x="383.19" y="-184.5" font-family="Helvetica,sans-Serif" font-size="10.00">float</text>
</a>
</g>
</g>
<!-- Node7&#45;&gt;Node1 -->
<g id="edge6_Node000001_Node000007" class="edge">
<title>Node7&#45;&gt;Node1</title>
<g id="a_edge6_Node000001_Node000007"><a xlink:title=" ">
<path fill="none" stroke="#9a32cd" stroke-dasharray="5,2" d="M376.31,-167.6C373.17,-158.28 369.81,-146.69 368.19,-136 362.47,-98.1 364.45,-52.69 366.02,-30.14"/>
<polygon fill="#9a32cd" stroke="#9a32cd" points="373.12,-169.07 379.77,-177.32 379.71,-166.73 373.12,-169.07"/>
</a>
</g>
<text text-anchor="middle" x="400.19" y="-128" font-family="Helvetica,sans-Serif" font-size="10.00" fill="grey"> _dirty_img</text>
<text text-anchor="middle" x="400.19" y="-117" font-family="Helvetica,sans-Serif" font-size="10.00" fill="grey">_nudge</text>
<text text-anchor="middle" x="400.19" y="-106" font-family="Helvetica,sans-Serif" font-size="10.00" fill="grey">_offset</text>
<text text-anchor="middle" x="400.19" y="-95" font-family="Helvetica,sans-Serif" font-size="10.00" fill="grey">cf_lclip</text>
<text text-anchor="middle" x="400.19" y="-84" font-family="Helvetica,sans-Serif" font-size="10.00" fill="grey">cf_limit</text>
<text text-anchor="middle" x="400.19" y="-73" font-family="Helvetica,sans-Serif" font-size="10.00" fill="grey">cf_uclip</text>
<text text-anchor="middle" x="400.19" y="-62" font-family="Helvetica,sans-Serif" font-size="10.00" fill="grey">nudge_factor</text>
<text text-anchor="middle" x="400.19" y="-51" font-family="Helvetica,sans-Serif" font-size="10.00" fill="grey">strength</text>
</g>
<!-- Node8 -->
<g id="Node000008" class="node">
<title>Node8</title>
<g id="a_Node000008"><a xlink:title=" ">
<polygon fill="white" stroke="#666666" points="473.19,-196.5 435.19,-196.5 435.19,-177.5 473.19,-177.5 473.19,-196.5"/>
<text text-anchor="middle" x="454.19" y="-184.5" font-family="Helvetica,sans-Serif" font-size="10.00">bool</text>
</a>
</g>
</g>
<!-- Node8&#45;&gt;Node1 -->
<g id="edge7_Node000001_Node000008" class="edge">
<title>Node8&#45;&gt;Node1</title>
<g id="a_edge7_Node000001_Node000008"><a xlink:title=" ">
<path fill="none" stroke="#9a32cd" stroke-dasharray="5,2" d="M453.3,-167.19C451.4,-133.96 445.91,-66.6 432.19,-48 426.66,-40.51 418.9,-34.68 410.66,-30.17"/>
<polygon fill="#9a32cd" stroke="#9a32cd" points="449.82,-167.58 453.84,-177.39 456.81,-167.22 449.82,-167.58"/>
</a>
</g>
<text text-anchor="middle" x="491.19" y="-100.5" font-family="Helvetica,sans-Serif" font-size="10.00" fill="grey"> cf_negative_fix</text>
<text text-anchor="middle" x="491.19" y="-89.5" font-family="Helvetica,sans-Serif" font-size="10.00" fill="grey">offset_obs</text>
<text text-anchor="middle" x="491.19" y="-78.5" font-family="Helvetica,sans-Serif" font-size="10.00" fill="grey">pad_observation</text>
</g>
<!-- Node9 -->
<g id="Node000009" class="node">
<title>Node9</title>
<g id="a_Node000009"><a xlink:title=" ">
<polygon fill="white" stroke="#666666" points="579.69,-196.5 538.69,-196.5 538.69,-177.5 579.69,-177.5 579.69,-196.5"/>
<text text-anchor="middle" x="559.19" y="-184.5" font-family="Helvetica,sans-Serif" font-size="10.00">tuple</text>
</a>
</g>
</g>
<!-- Node9&#45;&gt;Node1 -->
<g id="edge8_Node000001_Node000009" class="edge">
<title>Node9&#45;&gt;Node1</title>
<g id="a_edge8_Node000001_Node000009"><a xlink:title=" ">
<path fill="none" stroke="#9a32cd" stroke-dasharray="5,2" d="M562.14,-167.22C565.64,-137.58 567.53,-80.04 536.19,-48 526.69,-38.29 502.59,-31.44 475.47,-26.64"/>
<polygon fill="#9a32cd" stroke="#9a32cd" points="558.64,-167.04 560.74,-177.42 565.57,-167.99 558.64,-167.04"/>
</a>
</g>
<text text-anchor="middle" x="593.69" y="-89.5" font-family="Helvetica,sans-Serif" font-size="10.00" fill="grey"> _obs_shape</text>
</g>
</g>
</svg>
