<?xml version="1.0" encoding="UTF-8" standalone="no"?>
<!DOCTYPE svg PUBLIC "-//W3C//DTD SVG 1.1//EN"
 "http://www.w3.org/Graphics/SVG/1.1/DTD/svg11.dtd">
<!-- Generated by graphviz version 2.43.0 (0)
 -->
<!-- Title: aopp_deconv_tool.arguments.construct_arglist_from_locals Pages: 1 -->
<svg width="432pt" height="545pt"
 viewBox="0.00 0.00 432.00 545.00" xmlns="http://www.w3.org/2000/svg" xmlns:xlink="http://www.w3.org/1999/xlink">
<g id="graph0" class="graph" transform="scale(1 1) rotate(0) translate(4 541)">
<title>aopp_deconv_tool.arguments.construct_arglist_from_locals</title>
<!-- Node1 -->
<g id="Node000001" class="node">
<title>Node1</title>
<g id="a_Node000001"><a xlink:title=" ">
<polygon fill="#999999" stroke="#666666" points="424,-283.5 215,-283.5 215,-253.5 424,-253.5 424,-283.5"/>
<text text-anchor="start" x="223" y="-271.5" font-family="Helvetica,sans-Serif" font-size="10.00">aopp_deconv_tool.arguments.construct</text>
<text text-anchor="middle" x="319.5" y="-260.5" font-family="Helvetica,sans-Serif" font-size="10.00">_arglist_from_locals</text>
</a>
</g>
</g>
<!-- Node2 -->
<g id="Node000002" class="node">
<title>Node2</title>
<g id="a_Node000002"><a xlink:href="../../d5/ddb/namespaceaopp__deconv__tool_1_1interpolate.html#af9d74de473c70ee0b7ec7a720c1b3088" target="_top" xlink:title=" ">
<polygon fill="white" stroke="#666666" points="177.5,-537 1.5,-537 1.5,-518 177.5,-518 177.5,-537"/>
<text text-anchor="middle" x="89.5" y="-525" font-family="Helvetica,sans-Serif" font-size="10.00">aopp_deconv_tool.interpolate.go</text>
</a>
</g>
</g>
<!-- Node1&#45;&gt;Node2 -->
<g id="edge1_Node000001_Node000002" class="edge">
<title>Node1&#45;&gt;Node2</title>
<g id="a_edge1_Node000001_Node000002"><a xlink:title=" ">
<path fill="none" stroke="#63b8ff" d="M311.51,-293.35C296.26,-342.74 255.12,-453.24 179,-508.5 173.66,-512.38 167.69,-515.49 161.44,-517.99"/>
<polygon fill="#63b8ff" stroke="#63b8ff" points="314.94,-294.09 314.45,-283.51 308.23,-292.09 314.94,-294.09"/>
</a>
</g>
</g>
<!-- Node3 -->
<g id="Node000003" class="node">
<title>Node3</title>
<g id="a_Node000003"><a xlink:href="../../d4/d1f/namespaceaopp__deconv__tool_1_1fits__copy__wcs.html#a5f4a23414edd7fdb1073babc32fb823f" target="_top" xlink:title=" ">
<polygon fill="white" stroke="#666666" points="151,-499.5 28,-499.5 28,-469.5 151,-469.5 151,-499.5"/>
<text text-anchor="start" x="36" y="-487.5" font-family="Helvetica,sans-Serif" font-size="10.00">aopp_deconv_tool.fits</text>
<text text-anchor="middle" x="89.5" y="-476.5" font-family="Helvetica,sans-Serif" font-size="10.00">_copy_wcs.go</text>
</a>
</g>
</g>
<!-- Node1&#45;&gt;Node3 -->
<g id="edge2_Node000001_Node000003" class="edge">
<title>Node1&#45;&gt;Node3</title>
<g id="a_edge2_Node000001_Node000003"><a xlink:title=" ">
<path fill="none" stroke="#63b8ff" d="M307.55,-292.94C287.89,-334 242.61,-416.64 179,-460.5 170.61,-466.28 160.89,-470.68 151.02,-474.01"/>
<polygon fill="#63b8ff" stroke="#63b8ff" points="310.82,-294.22 311.89,-283.68 304.48,-291.25 310.82,-294.22"/>
</a>
</g>
</g>
<!-- Node4 -->
<g id="Node000004" class="node">
<title>Node4</title>
<g id="a_Node000004"><a xlink:href="../../d6/d01/namespaceaopp__deconv__tool_1_1fits__slice.html#a69728c3bf8ba785d1debb85a0e2ba7cb" target="_top" xlink:title=" ">
<polygon fill="white" stroke="#666666" points="151,-451.5 28,-451.5 28,-421.5 151,-421.5 151,-451.5"/>
<text text-anchor="start" x="36" y="-439.5" font-family="Helvetica,sans-Serif" font-size="10.00">aopp_deconv_tool.fits</text>
<text text-anchor="middle" x="89.5" y="-428.5" font-family="Helvetica,sans-Serif" font-size="10.00">_slice.go</text>
</a>
</g>
</g>
<!-- Node1&#45;&gt;Node4 -->
<g id="edge3_Node000001_Node000004" class="edge">
<title>Node1&#45;&gt;Node4</title>
<g id="a_edge3_Node000001_Node000004"><a xlink:title=" ">
<path fill="none" stroke="#63b8ff" d="M302.14,-292.05C278.61,-324.13 232.16,-381.13 179,-412.5 170.5,-417.52 160.93,-421.51 151.3,-424.68"/>
<polygon fill="#63b8ff" stroke="#63b8ff" points="305.14,-293.87 308.15,-283.71 299.46,-289.78 305.14,-293.87"/>
</a>
</g>
</g>
<!-- Node5 -->
<g id="Node000005" class="node">
<title>Node5</title>
<g id="a_Node000005"><a xlink:href="../../dc/dc5/namespaceaopp__deconv__tool_1_1fit__psf__model.html#aa00a098e5079cb102034a26b8a2834ef" target="_top" xlink:title=" ">
<polygon fill="white" stroke="#666666" points="148.5,-403.5 30.5,-403.5 30.5,-373.5 148.5,-373.5 148.5,-403.5"/>
<text text-anchor="start" x="38.5" y="-391.5" font-family="Helvetica,sans-Serif" font-size="10.00">aopp_deconv_tool.fit</text>
<text text-anchor="middle" x="89.5" y="-380.5" font-family="Helvetica,sans-Serif" font-size="10.00">_psf_model.go</text>
</a>
</g>
</g>
<!-- Node1&#45;&gt;Node5 -->
<g id="edge4_Node000001_Node000005" class="edge">
<title>Node1&#45;&gt;Node5</title>
<g id="a_edge4_Node000001_Node000005"><a xlink:title=" ">
<path fill="none" stroke="#63b8ff" d="M292.68,-290.28C265.84,-311.92 221.85,-344.65 179,-364.5 169.47,-368.92 158.97,-372.65 148.63,-375.76"/>
<polygon fill="#63b8ff" stroke="#63b8ff" points="295.23,-292.72 300.76,-283.68 290.81,-287.29 295.23,-292.72"/>
</a>
</g>
</g>
<!-- Node6 -->
<g id="Node000006" class="node">
<title>Node6</title>
<g id="a_Node000006"><a xlink:href="../../d5/d6e/namespaceaopp__deconv__tool_1_1spatial__rebin.html#a2b2adb8d3e917f0f1e2a1a15a893572a" target="_top" xlink:title=" ">
<polygon fill="white" stroke="#666666" points="160,-355.5 19,-355.5 19,-325.5 160,-325.5 160,-355.5"/>
<text text-anchor="start" x="27" y="-343.5" font-family="Helvetica,sans-Serif" font-size="10.00">aopp_deconv_tool.spatial</text>
<text text-anchor="middle" x="89.5" y="-332.5" font-family="Helvetica,sans-Serif" font-size="10.00">_rebin.go</text>
</a>
</g>
</g>
<!-- Node1&#45;&gt;Node6 -->
<g id="edge5_Node000001_Node000006" class="edge">
<title>Node1&#45;&gt;Node6</title>
<g id="a_edge5_Node000001_Node000006"><a xlink:title=" ">
<path fill="none" stroke="#63b8ff" d="M267.48,-286.97C241.19,-296.25 208.52,-307.43 179,-316.5 169.11,-319.54 158.53,-322.58 148.26,-325.43"/>
<polygon fill="#63b8ff" stroke="#63b8ff" points="268.97,-290.15 277.23,-283.51 266.63,-283.55 268.97,-290.15"/>
</a>
</g>
</g>
<!-- Node7 -->
<g id="Node000007" class="node">
<title>Node7</title>
<g id="a_Node000007"><a xlink:href="../../d1/d3b/namespaceaopp__deconv__tool_1_1spectral__rebin.html#a049527339bf134575025af61a86c25d6" target="_top" xlink:title=" ">
<polygon fill="white" stroke="#666666" points="163,-307.5 16,-307.5 16,-277.5 163,-277.5 163,-307.5"/>
<text text-anchor="start" x="24" y="-295.5" font-family="Helvetica,sans-Serif" font-size="10.00">aopp_deconv_tool.spectral</text>
<text text-anchor="middle" x="89.5" y="-284.5" font-family="Helvetica,sans-Serif" font-size="10.00">_rebin.go</text>
</a>
</g>
</g>
<!-- Node1&#45;&gt;Node7 -->
<g id="edge6_Node000001_Node000007" class="edge">
<title>Node1&#45;&gt;Node7</title>
<g id="a_edge6_Node000001_Node000007"><a xlink:title=" ">
<path fill="none" stroke="#63b8ff" d="M204.61,-280.49C190.55,-281.97 176.49,-283.45 163.28,-284.84"/>
<polygon fill="#63b8ff" stroke="#63b8ff" points="205.26,-283.94 214.84,-279.41 204.53,-276.98 205.26,-283.94"/>
</a>
</g>
</g>
<!-- Node8 -->
<g id="Node000008" class="node">
<title>Node8</title>
<g id="a_Node000008"><a xlink:href="../../dd/d4d/namespaceaopp__deconv__tool_1_1artefact__detection.html#a87f271a8aa2a92f2943244eb29d02ca6" target="_top" xlink:title=" ">
<polygon fill="white" stroke="#666666" points="162.5,-259.5 16.5,-259.5 16.5,-229.5 162.5,-229.5 162.5,-259.5"/>
<text text-anchor="start" x="24.5" y="-247.5" font-family="Helvetica,sans-Serif" font-size="10.00">aopp_deconv_tool.artefact</text>
<text text-anchor="middle" x="89.5" y="-236.5" font-family="Helvetica,sans-Serif" font-size="10.00">_detection.go</text>
</a>
</g>
</g>
<!-- Node1&#45;&gt;Node8 -->
<g id="edge7_Node000001_Node000008" class="edge">
<title>Node1&#45;&gt;Node8</title>
<g id="a_edge7_Node000001_Node000008"><a xlink:title=" ">
<path fill="none" stroke="#63b8ff" d="M204.89,-256.54C190.5,-255.03 176.1,-253.51 162.61,-252.09"/>
<polygon fill="#63b8ff" stroke="#63b8ff" points="204.53,-260.02 214.84,-257.59 205.26,-253.06 204.53,-260.02"/>
</a>
</g>
</g>
<!-- Node9 -->
<g id="Node000009" class="node">
<title>Node9</title>
<g id="a_Node000009"><a xlink:href="../../da/de2/namespaceaopp__deconv__tool_1_1psf__normalise.html#a7bf25e1913f827299d046172625dd4f5" target="_top" xlink:title=" ">
<polygon fill="white" stroke="#666666" points="151,-211.5 28,-211.5 28,-181.5 151,-181.5 151,-211.5"/>
<text text-anchor="start" x="36" y="-199.5" font-family="Helvetica,sans-Serif" font-size="10.00">aopp_deconv_tool.psf</text>
<text text-anchor="middle" x="89.5" y="-188.5" font-family="Helvetica,sans-Serif" font-size="10.00">_normalise.go</text>
</a>
</g>
</g>
<!-- Node1&#45;&gt;Node9 -->
<g id="edge8_Node000001_Node000009" class="edge">
<title>Node1&#45;&gt;Node9</title>
<g id="a_edge8_Node000001_Node000009"><a xlink:title=" ">
<path fill="none" stroke="#63b8ff" d="M267.48,-250.03C241.19,-240.75 208.52,-229.57 179,-220.5 169.11,-217.46 158.53,-214.42 148.26,-211.57"/>
<polygon fill="#63b8ff" stroke="#63b8ff" points="266.63,-253.45 277.23,-253.49 268.97,-246.85 266.63,-253.45"/>
</a>
</g>
</g>
<!-- Node10 -->
<g id="Node000010" class="node">
<title>Node10</title>
<g id="a_Node000010"><a xlink:href="../../d1/d07/namespaceaopp__deconv__tool_1_1create__bad__pixel__mask.html#a5f856e8b1feca41397f810042306f140" target="_top" xlink:title=" ">
<polygon fill="white" stroke="#666666" points="159,-163.5 20,-163.5 20,-133.5 159,-133.5 159,-163.5"/>
<text text-anchor="start" x="28" y="-151.5" font-family="Helvetica,sans-Serif" font-size="10.00">aopp_deconv_tool.create</text>
<text text-anchor="middle" x="89.5" y="-140.5" font-family="Helvetica,sans-Serif" font-size="10.00">_bad_pixel_mask.go</text>
</a>
</g>
</g>
<!-- Node1&#45;&gt;Node10 -->
<g id="edge9_Node000001_Node000010" class="edge">
<title>Node1&#45;&gt;Node10</title>
<g id="a_edge9_Node000001_Node000010"><a xlink:title=" ">
<path fill="none" stroke="#63b8ff" d="M292.68,-246.72C265.84,-225.08 221.85,-192.35 179,-172.5 171.78,-169.15 164,-166.2 156.16,-163.61"/>
<polygon fill="#63b8ff" stroke="#63b8ff" points="290.81,-249.71 300.76,-253.32 295.23,-244.28 290.81,-249.71"/>
</a>
</g>
</g>
<!-- Node11 -->
<g id="Node000011" class="node">
<title>Node11</title>
<g id="a_Node000011"><a xlink:href="../../dc/dd6/namespaceaopp__deconv__tool_1_1extract__sources.html#a8fb4f3b3f5c3db5a9ec1ab735c86715e" target="_top" xlink:title=" ">
<polygon fill="white" stroke="#666666" points="161,-115.5 18,-115.5 18,-85.5 161,-85.5 161,-115.5"/>
<text text-anchor="start" x="26" y="-103.5" font-family="Helvetica,sans-Serif" font-size="10.00">aopp_deconv_tool.extract</text>
<text text-anchor="middle" x="89.5" y="-92.5" font-family="Helvetica,sans-Serif" font-size="10.00">_sources.go</text>
</a>
</g>
</g>
<!-- Node1&#45;&gt;Node11 -->
<g id="edge10_Node000001_Node000011" class="edge">
<title>Node1&#45;&gt;Node11</title>
<g id="a_edge10_Node000001_Node000011"><a xlink:title=" ">
<path fill="none" stroke="#63b8ff" d="M302.14,-244.95C278.61,-212.87 232.16,-155.87 179,-124.5 173.24,-121.1 166.99,-118.17 160.56,-115.65"/>
<polygon fill="#63b8ff" stroke="#63b8ff" points="299.46,-247.22 308.15,-253.29 305.14,-243.13 299.46,-247.22"/>
</a>
</g>
</g>
<!-- Node12 -->
<g id="Node000012" class="node">
<title>Node12</title>
<g id="a_Node000012"><a xlink:href="../../d9/d77/namespaceaopp__deconv__tool_1_1to__fits.html#a46b9e841b4debbe3f33b61ab43e0d5d3" target="_top" xlink:title=" ">
<polygon fill="white" stroke="#666666" points="148.5,-67.5 30.5,-67.5 30.5,-37.5 148.5,-37.5 148.5,-67.5"/>
<text text-anchor="start" x="38.5" y="-55.5" font-family="Helvetica,sans-Serif" font-size="10.00">aopp_deconv_tool.to</text>
<text text-anchor="middle" x="89.5" y="-44.5" font-family="Helvetica,sans-Serif" font-size="10.00">_fits.go</text>
</a>
</g>
</g>
<!-- Node1&#45;&gt;Node12 -->
<g id="edge11_Node000001_Node000012" class="edge">
<title>Node1&#45;&gt;Node12</title>
<g id="a_edge11_Node000001_Node000012"><a xlink:title=" ">
<path fill="none" stroke="#63b8ff" d="M307.55,-244.06C287.89,-203 242.61,-120.36 179,-76.5 169.96,-70.26 159.36,-65.65 148.7,-62.23"/>
<polygon fill="#63b8ff" stroke="#63b8ff" points="304.48,-245.75 311.89,-253.32 310.82,-242.78 304.48,-245.75"/>
</a>
</g>
</g>
<!-- Node13 -->
<g id="Node000013" class="node">
<title>Node13</title>
<g id="a_Node000013"><a xlink:href="../../d6/de2/namespaceaopp__deconv__tool_1_1deconvolve.html#a202bd6f9934dee3e90074864830108dd" target="_top" xlink:title=" ">
<polygon fill="white" stroke="#666666" points="179,-19 0,-19 0,0 179,0 179,-19"/>
<text text-anchor="middle" x="89.5" y="-7" font-family="Helvetica,sans-Serif" font-size="10.00">aopp_deconv_tool.deconvolve.go</text>
</a>
</g>
</g>
<!-- Node1&#45;&gt;Node13 -->
<g id="edge12_Node000001_Node000013" class="edge">
<title>Node1&#45;&gt;Node13</title>
<g id="a_edge12_Node000001_Node000013"><a xlink:title=" ">
<path fill="none" stroke="#63b8ff" d="M311.51,-243.65C296.26,-194.26 255.12,-83.76 179,-28.5 173.66,-24.62 167.69,-21.51 161.44,-19.01"/>
<polygon fill="#63b8ff" stroke="#63b8ff" points="308.23,-244.91 314.45,-253.49 314.94,-242.91 308.23,-244.91"/>
</a>
</g>
</g>
</g>
</svg>
