<?xml version="1.0" encoding="UTF-8" standalone="no"?>
<!DOCTYPE svg PUBLIC "-//W3C//DTD SVG 1.1//EN"
 "http://www.w3.org/Graphics/SVG/1.1/DTD/svg11.dtd">
<!-- Generated by graphviz version 2.43.0 (0)
 -->
<!-- Title: aopp_deconv_tool.arguments.construct_arglist_from_locals Pages: 1 -->
<!--zoomable 508 -->
<svg id="main" version="1.1" xmlns="http://www.w3.org/2000/svg" xmlns:xlink="http://www.w3.org/1999/xlink" xml:space="preserve" onload="init(evt)">
<style type="text/css"><![CDATA[
.edge:hover path { stroke: red; }
.edge:hover polygon { stroke: red; fill: red; }
]]></style>
<script type="text/javascript"><![CDATA[
var edges = document.getElementsByTagName('g');
if (edges && edges.length) {
  for (var i=0;i<edges.length;i++) {
    if (edges[i].id.substr(0,4)=='edge') {
      edges[i].setAttribute('class','edge');
    }
  }
}
]]></script>
        <defs>
                <circle id="rim" cx="0" cy="0" r="7"/>
                <circle id="rim2" cx="0" cy="0" r="3.5"/>
                <g id="zoomPlus">
                        <use xlink:href="#rim" fill="#404040">
                                <set attributeName="fill" to="#808080" begin="zoomplus.mouseover" end="zoomplus.mouseout"/>
                        </use>
                        <path d="M-4,0h8M0,-4v8" fill="none" stroke="white" stroke-width="1.5" pointer-events="none"/>
                </g>
                <g id="zoomMin">
                        <use xlink:href="#rim" fill="#404040">
                                <set attributeName="fill" to="#808080" begin="zoomminus.mouseover" end="zoomminus.mouseout"/>
                        </use>
                        <path d="M-4,0h8" fill="none" stroke="white" stroke-width="1.5" pointer-events="none"/>
                </g>
                <g id="dirArrow">
                        <path fill="none" stroke="white" stroke-width="1.5" d="M0,-3.0v7 M-2.5,-0.5L0,-3.0L2.5,-0.5"/>
                </g>
               <g id="resetDef">
                       <use xlink:href="#rim2" fill="#404040">
                               <set attributeName="fill" to="#808080" begin="reset.mouseover" end="reset.mouseout"/>
                       </use>
               </g>
        </defs>

<script type="text/javascript">
var viewWidth = 432;
var viewHeight = 508;
var sectionId = 'dynsection-0';
</script>
<script xlink:href="../../svgpan.js"/>
<svg id="graph" class="graph">
<g id="viewport">
<title>aopp_deconv_tool.arguments.construct_arglist_from_locals</title>
<!-- Node1 -->
<g id="node1" class="node">
<title>Node1</title>
<g id="a_node1"><a xlink:title=" ">
<polygon fill="#bfbfbf" stroke="black" points="215,-235 215,-265 424,-265 424,-235 215,-235"/>
<text text-anchor="start" x="223" y="-253" font-family="Helvetica,sans-Serif" font-size="10.00">aopp_deconv_tool.arguments.construct</text>
<text text-anchor="middle" x="319.5" y="-242" font-family="Helvetica,sans-Serif" font-size="10.00">_arglist_from_locals</text>
</a>
</g>
</g>
<!-- Node2 -->
<g id="node2" class="node">
<title>Node2</title>
<g id="a_node2"><a xlink:href="../../d5/ddb/namespaceaopp__deconv__tool_1_1interpolate.html#a90751da03483cf837084f4aa70cdb1d4" target="_top" xlink:title=" ">
<polygon fill="none" stroke="black" points="1.5,-480.5 1.5,-499.5 177.5,-499.5 177.5,-480.5 1.5,-480.5"/>
<text text-anchor="middle" x="89.5" y="-487.5" font-family="Helvetica,sans-Serif" font-size="10.00">aopp_deconv_tool.interpolate.go</text>
</a>
</g>
</g>
<!-- Node1&#45;&gt;Node2 -->
<g id="edge1" class="edge">
<title>Node1&#45;&gt;Node2</title>
<path fill="none" stroke="midnightblue" d="M310.21,-274.86C293.38,-321.29 250.59,-421.01 179,-471 173.46,-474.87 167.28,-477.97 160.84,-480.46"/>
<polygon fill="midnightblue" stroke="midnightblue" points="313.56,-275.87 313.59,-265.28 306.96,-273.55 313.56,-275.87"/>
</g>
<!-- Node3 -->
<g id="node3" class="node">
<title>Node3</title>
<g id="a_node3"><a xlink:href="../../d4/d1f/namespaceaopp__deconv__tool_1_1fits__copy__wcs.html#a82034ade942267b34d143e6a96450416" target="_top" xlink:title=" ">
<polygon fill="none" stroke="black" points="27.5,-431 27.5,-461 151.5,-461 151.5,-431 27.5,-431"/>
<text text-anchor="start" x="35.5" y="-449" font-family="Helvetica,sans-Serif" font-size="10.00">aopp_deconv_tool.fits</text>
<text text-anchor="middle" x="89.5" y="-438" font-family="Helvetica,sans-Serif" font-size="10.00">_copy_wcs.go</text>
</a>
</g>
</g>
<!-- Node1&#45;&gt;Node3 -->
<g id="edge2" class="edge">
<title>Node1&#45;&gt;Node3</title>
<path fill="none" stroke="midnightblue" d="M305.53,-274.25C284.21,-311.75 238.16,-383.49 179,-422 170.73,-427.38 161.27,-431.57 151.69,-434.82"/>
<polygon fill="midnightblue" stroke="midnightblue" points="308.84,-275.51 310.65,-265.07 302.72,-272.1 308.84,-275.51"/>
</g>
<!-- Node4 -->
<g id="node4" class="node">
<title>Node4</title>
<g id="a_node4"><a xlink:href="../../d6/d01/namespaceaopp__deconv__tool_1_1fits__slice.html#a887d4865850a9f67f37d1ac7c3ffd052" target="_top" xlink:title=" ">
<polygon fill="none" stroke="black" points="27.5,-382 27.5,-412 151.5,-412 151.5,-382 27.5,-382"/>
<text text-anchor="start" x="35.5" y="-400" font-family="Helvetica,sans-Serif" font-size="10.00">aopp_deconv_tool.fits</text>
<text text-anchor="middle" x="89.5" y="-389" font-family="Helvetica,sans-Serif" font-size="10.00">_slice.go</text>
</a>
</g>
</g>
<!-- Node1&#45;&gt;Node4 -->
<g id="edge3" class="edge">
<title>Node1&#45;&gt;Node4</title>
<path fill="none" stroke="midnightblue" d="M298.7,-272.97C273.59,-300.68 227.65,-346.82 179,-373 170.59,-377.53 161.26,-381.25 151.9,-384.3"/>
<polygon fill="midnightblue" stroke="midnightblue" points="301.47,-275.13 305.52,-265.34 296.25,-270.47 301.47,-275.13"/>
</g>
<!-- Node5 -->
<g id="node5" class="node">
<title>Node5</title>
<g id="a_node5"><a xlink:href="../../dc/dc5/namespaceaopp__deconv__tool_1_1fit__psf__model.html#a88a4d3ec1a38814c98721c5144c3ecdd" target="_top" xlink:title=" ">
<polygon fill="none" stroke="black" points="30,-333 30,-363 149,-363 149,-333 30,-333"/>
<text text-anchor="start" x="38" y="-351" font-family="Helvetica,sans-Serif" font-size="10.00">aopp_deconv_tool.fit</text>
<text text-anchor="middle" x="89.5" y="-340" font-family="Helvetica,sans-Serif" font-size="10.00">_psf_model.go</text>
</a>
</g>
</g>
<!-- Node1&#45;&gt;Node5 -->
<g id="edge4" class="edge">
<title>Node1&#45;&gt;Node5</title>
<path fill="none" stroke="midnightblue" d="M285.25,-270.36C257.6,-286.61 216.8,-309.07 179,-324 169.52,-327.74 159.26,-331.12 149.18,-334.07"/>
<polygon fill="midnightblue" stroke="midnightblue" points="287.29,-273.22 294.1,-265.1 283.71,-267.2 287.29,-273.22"/>
</g>
<!-- Node6 -->
<g id="node6" class="node">
<title>Node6</title>
<g id="a_node6"><a xlink:href="../../d5/d6e/namespaceaopp__deconv__tool_1_1spatial__rebin.html#aab7cb0364ede9bd5a9ee5fe3eb6d534c" target="_top" xlink:title=" ">
<polygon fill="none" stroke="black" points="19,-284 19,-314 160,-314 160,-284 19,-284"/>
<text text-anchor="start" x="27" y="-302" font-family="Helvetica,sans-Serif" font-size="10.00">aopp_deconv_tool.spatial</text>
<text text-anchor="middle" x="89.5" y="-291" font-family="Helvetica,sans-Serif" font-size="10.00">_rebin.go</text>
</a>
</g>
</g>
<!-- Node1&#45;&gt;Node6 -->
<g id="edge5" class="edge">
<title>Node1&#45;&gt;Node6</title>
<path fill="none" stroke="midnightblue" d="M238.54,-267.19C213.04,-272.66 185.04,-278.68 160.32,-283.99"/>
<polygon fill="midnightblue" stroke="midnightblue" points="239.5,-270.56 248.54,-265.03 238.03,-263.71 239.5,-270.56"/>
</g>
<!-- Node7 -->
<g id="node7" class="node">
<title>Node7</title>
<g id="a_node7"><a xlink:href="../../d1/d3b/namespaceaopp__deconv__tool_1_1spectral__rebin.html#a805c759d8363bb2c9ffdec21bf5d19f7" target="_top" xlink:title=" ">
<polygon fill="none" stroke="black" points="16,-235 16,-265 163,-265 163,-235 16,-235"/>
<text text-anchor="start" x="24" y="-253" font-family="Helvetica,sans-Serif" font-size="10.00">aopp_deconv_tool.spectral</text>
<text text-anchor="middle" x="89.5" y="-242" font-family="Helvetica,sans-Serif" font-size="10.00">_rebin.go</text>
</a>
</g>
</g>
<!-- Node1&#45;&gt;Node7 -->
<g id="edge6" class="edge">
<title>Node1&#45;&gt;Node7</title>
<path fill="none" stroke="midnightblue" d="M204.61,-250C190.55,-250 176.49,-250 163.28,-250"/>
<polygon fill="midnightblue" stroke="midnightblue" points="204.84,-253.5 214.84,-250 204.84,-246.5 204.84,-253.5"/>
</g>
<!-- Node8 -->
<g id="node8" class="node">
<title>Node8</title>
<g id="a_node8"><a xlink:href="../../dd/d4d/namespaceaopp__deconv__tool_1_1artefact__detection.html#aaa1d90cc56b5fc1c1e8ce8b043465d95" target="_top" xlink:title=" ">
<polygon fill="none" stroke="black" points="16.5,-186 16.5,-216 162.5,-216 162.5,-186 16.5,-186"/>
<text text-anchor="start" x="24.5" y="-204" font-family="Helvetica,sans-Serif" font-size="10.00">aopp_deconv_tool.artefact</text>
<text text-anchor="middle" x="89.5" y="-193" font-family="Helvetica,sans-Serif" font-size="10.00">_detection.go</text>
</a>
</g>
</g>
<!-- Node1&#45;&gt;Node8 -->
<g id="edge7" class="edge">
<title>Node1&#45;&gt;Node8</title>
<path fill="none" stroke="midnightblue" d="M238.54,-232.81C213.04,-227.34 185.04,-221.32 160.32,-216.01"/>
<polygon fill="midnightblue" stroke="midnightblue" points="238.03,-236.29 248.54,-234.97 239.5,-229.44 238.03,-236.29"/>
</g>
<!-- Node9 -->
<g id="node9" class="node">
<title>Node9</title>
<g id="a_node9"><a xlink:href="../../da/de2/namespaceaopp__deconv__tool_1_1psf__normalise.html#a97a76320cb70504d32f75a398f4635a0" target="_top" xlink:title=" ">
<polygon fill="none" stroke="black" points="28,-137 28,-167 151,-167 151,-137 28,-137"/>
<text text-anchor="start" x="36" y="-155" font-family="Helvetica,sans-Serif" font-size="10.00">aopp_deconv_tool.psf</text>
<text text-anchor="middle" x="89.5" y="-144" font-family="Helvetica,sans-Serif" font-size="10.00">_normalise.go</text>
</a>
</g>
</g>
<!-- Node1&#45;&gt;Node9 -->
<g id="edge8" class="edge">
<title>Node1&#45;&gt;Node9</title>
<path fill="none" stroke="midnightblue" d="M284.67,-229.76C256.98,-213.82 216.42,-191.89 179,-177 169.8,-173.34 159.87,-169.99 150.1,-167.01"/>
<polygon fill="midnightblue" stroke="midnightblue" points="283.13,-232.92 293.54,-234.91 286.65,-226.86 283.13,-232.92"/>
</g>
<!-- Node10 -->
<g id="node10" class="node">
<title>Node10</title>
<g id="a_node10"><a xlink:href="../../d1/d07/namespaceaopp__deconv__tool_1_1create__bad__pixel__mask.html#a8dd3e186d7fb2632f6636b4697448f7e" target="_top" xlink:title=" ">
<polygon fill="none" stroke="black" points="20,-88 20,-118 159,-118 159,-88 20,-88"/>
<text text-anchor="start" x="28" y="-106" font-family="Helvetica,sans-Serif" font-size="10.00">aopp_deconv_tool.create</text>
<text text-anchor="middle" x="89.5" y="-95" font-family="Helvetica,sans-Serif" font-size="10.00">_bad_pixel_mask.go</text>
</a>
</g>
</g>
<!-- Node1&#45;&gt;Node10 -->
<g id="edge9" class="edge">
<title>Node1&#45;&gt;Node10</title>
<path fill="none" stroke="midnightblue" d="M298.62,-227.31C273.42,-199.91 227.39,-154.25 179,-128 171.98,-124.19 164.33,-120.92 156.56,-118.12"/>
<polygon fill="midnightblue" stroke="midnightblue" points="296.15,-229.79 305.46,-234.85 301.33,-225.09 296.15,-229.79"/>
</g>
<!-- Node11 -->
<g id="node11" class="node">
<title>Node11</title>
<g id="a_node11"><a xlink:href="../../d9/d77/namespaceaopp__deconv__tool_1_1to__fits.html#a87097fceba8f90adb787bc73b37ef743" target="_top" xlink:title=" ">
<polygon fill="none" stroke="black" points="30.5,-39 30.5,-69 148.5,-69 148.5,-39 30.5,-39"/>
<text text-anchor="start" x="38.5" y="-57" font-family="Helvetica,sans-Serif" font-size="10.00">aopp_deconv_tool.to</text>
<text text-anchor="middle" x="89.5" y="-46" font-family="Helvetica,sans-Serif" font-size="10.00">_fits.go</text>
</a>
</g>
</g>
<!-- Node1&#45;&gt;Node11 -->
<g id="edge10" class="edge">
<title>Node1&#45;&gt;Node11</title>
<path fill="none" stroke="midnightblue" d="M305.28,-225.68C283.78,-188.43 237.66,-117.51 179,-79 169.92,-73.04 159.43,-68.49 148.9,-65.01"/>
<polygon fill="midnightblue" stroke="midnightblue" points="302.48,-227.84 310.45,-234.82 308.57,-224.39 302.48,-227.84"/>
</g>
<!-- Node12 -->
<g id="node12" class="node">
<title>Node12</title>
<g id="a_node12"><a xlink:href="../../d6/de2/namespaceaopp__deconv__tool_1_1deconvolve.html#af6bd8fd6e2c673853b1544085c2bf222" target="_top" xlink:title=" ">
<polygon fill="none" stroke="black" points="0,-0.5 0,-19.5 179,-19.5 179,-0.5 0,-0.5"/>
<text text-anchor="middle" x="89.5" y="-7.5" font-family="Helvetica,sans-Serif" font-size="10.00">aopp_deconv_tool.deconvolve.go</text>
</a>
</g>
</g>
<!-- Node1&#45;&gt;Node12 -->
<g id="edge11" class="edge">
<title>Node1&#45;&gt;Node12</title>
<path fill="none" stroke="midnightblue" d="M310.13,-225.33C293.16,-179.22 250.14,-80.14 179,-30 172.82,-25.64 165.85,-22.22 158.59,-19.53"/>
<polygon fill="midnightblue" stroke="midnightblue" points="306.87,-226.6 313.53,-234.83 313.46,-224.24 306.87,-226.6"/>
</g>
</g>
</svg>
        <g id="navigator" transform="translate(0 0)" fill="#404254">
                <rect fill="#f2f5e9" fill-opacity="0.5" stroke="#606060" stroke-width=".5" x="0" y="0" width="60" height="60"/>
                <use id="zoomplus" xlink:href="#zoomPlus" x="17" y="9" onmousedown="handleZoom(evt,'in')"/>
                <use id="zoomminus" xlink:href="#zoomMin" x="42" y="9" onmousedown="handleZoom(evt,'out')"/>
                <use id="reset" xlink:href="#resetDef" x="30" y="36" onmousedown="handleReset()"/>
                <g id="arrowUp" xlink:href="#dirArrow" transform="translate(30 24)" onmousedown="handlePan(0,-1)">
                  <use xlink:href="#rim" fill="#404040">
                        <set attributeName="fill" to="#808080" begin="arrowUp.mouseover" end="arrowUp.mouseout"/>
                  </use>
                  <path fill="none" stroke="white" stroke-width="1.5" d="M0,-3.0v7 M-2.5,-0.5L0,-3.0L2.5,-0.5"/>
                </g>
                <g id="arrowRight" xlink:href="#dirArrow" transform="rotate(90) translate(36 -43)" onmousedown="handlePan(1,0)">
                  <use xlink:href="#rim" fill="#404040">
                        <set attributeName="fill" to="#808080" begin="arrowRight.mouseover" end="arrowRight.mouseout"/>
                  </use>
                  <path fill="none" stroke="white" stroke-width="1.5" d="M0,-3.0v7 M-2.5,-0.5L0,-3.0L2.5,-0.5"/>
                </g>
                <g id="arrowDown" xlink:href="#dirArrow" transform="rotate(180) translate(-30 -48)" onmousedown="handlePan(0,1)">
                  <use xlink:href="#rim" fill="#404040">
                        <set attributeName="fill" to="#808080" begin="arrowDown.mouseover" end="arrowDown.mouseout"/>
                  </use>
                  <path fill="none" stroke="white" stroke-width="1.5" d="M0,-3.0v7 M-2.5,-0.5L0,-3.0L2.5,-0.5"/>
                </g>
                <g id="arrowLeft" xlink:href="#dirArrow" transform="rotate(270) translate(-36 17)" onmousedown="handlePan(-1,0)">
                  <use xlink:href="#rim" fill="#404040">
                        <set attributeName="fill" to="#808080" begin="arrowLeft.mouseover" end="arrowLeft.mouseout"/>
                  </use>
                  <path fill="none" stroke="white" stroke-width="1.5" d="M0,-3.0v7 M-2.5,-0.5L0,-3.0L2.5,-0.5"/>
                </g>
        </g>
        <svg viewBox="0 0 15 15" width="100%" height="30px" preserveAspectRatio="xMaxYMin meet">
         <g id="arrow_out" transform="scale(0.3 0.3)">
          <a xlink:href="namespaceaopp__deconv__tool_1_1arguments_a206efe8090df20dc2ee1729424f5bb9f_icgraph_org.svg" target="_base">
           <rect id="button" ry="5" rx="5" y="6" x="6" height="38" width="38"
                fill="#f2f5e9" fill-opacity="0.5" stroke="#606060" stroke-width="1.0"/>
           <path id="arrow"
             d="M 11.500037,31.436501 C 11.940474,20.09759 22.043105,11.32322 32.158766,21.979434 L 37.068811,17.246167 C 37.068811,17.246167 37.088388,32 37.088388,32 L 22.160133,31.978069 C 22.160133,31.978069 26.997745,27.140456 26.997745,27.140456 C 18.528582,18.264221 13.291696,25.230495 11.500037,31.436501 z"
             style="fill:#404040;"/>
          </a>
         </g>
        </svg>
</svg>
