<?xml version="1.0" encoding="UTF-8" standalone="no"?>
<!DOCTYPE svg PUBLIC "-//W3C//DTD SVG 1.1//EN"
 "http://www.w3.org/Graphics/SVG/1.1/DTD/svg11.dtd">
<!-- Generated by graphviz version 2.43.0 (0)
 -->
<!-- Title: aopp_deconv_tool.arguments.parse_args_of_dataclass Pages: 1 -->
<svg width="599pt" height="39pt"
 viewBox="0.00 0.00 599.00 39.00" xmlns="http://www.w3.org/2000/svg" xmlns:xlink="http://www.w3.org/1999/xlink">
<g id="graph0" class="graph" transform="scale(1 1) rotate(0) translate(4 35)">
<title>aopp_deconv_tool.arguments.parse_args_of_dataclass</title>
<!-- Node1 -->
<g id="node1" class="node">
<title>Node1</title>
<g id="a_node1"><a xlink:title=" ">
<polygon fill="#bfbfbf" stroke="black" points="0,-0.5 0,-30.5 191,-30.5 191,-0.5 0,-0.5"/>
<text text-anchor="start" x="8" y="-18.5" font-family="Helvetica,sans-Serif" font-size="10.00">aopp_deconv_tool.arguments.parse</text>
<text text-anchor="middle" x="95.5" y="-7.5" font-family="Helvetica,sans-Serif" font-size="10.00">_args_of_dataclass</text>
</a>
</g>
</g>
<!-- Node2 -->
<g id="node2" class="node">
<title>Node2</title>
<g id="a_node2"><a xlink:href="../../d8/d5b/namespaceaopp__deconv__tool_1_1text.html#ae13da0dd246571ccd435ba5f64904bfe" target="_top" xlink:title=" ">
<polygon fill="none" stroke="black" points="227,-6 227,-25 382,-25 382,-6 227,-6"/>
<text text-anchor="middle" x="304.5" y="-13" font-family="Helvetica,sans-Serif" font-size="10.00">aopp_deconv_tool.text.wrap</text>
</a>
</g>
</g>
<!-- Node1&#45;&gt;Node2 -->
<g id="edge1" class="edge">
<title>Node1&#45;&gt;Node2</title>
<path fill="none" stroke="midnightblue" d="M191.22,-15.5C199.69,-15.5 208.25,-15.5 216.65,-15.5"/>
<polygon fill="midnightblue" stroke="midnightblue" points="216.82,-19 226.82,-15.5 216.82,-12 216.82,-19"/>
</g>
<!-- Node3 -->
<g id="node3" class="node">
<title>Node3</title>
<g id="a_node3"><a xlink:href="../../d8/d5b/namespaceaopp__deconv__tool_1_1text.html#a5b208e43cdecac49460b4ced231aa4a6" target="_top" xlink:title=" ">
<polygon fill="none" stroke="black" points="418,-0.5 418,-30.5 591,-30.5 591,-0.5 418,-0.5"/>
<text text-anchor="start" x="426" y="-18.5" font-family="Helvetica,sans-Serif" font-size="10.00">aopp_deconv_tool.text.combine</text>
<text text-anchor="middle" x="504.5" y="-7.5" font-family="Helvetica,sans-Serif" font-size="10.00">_lines_with_same_indent</text>
</a>
</g>
</g>
<!-- Node2&#45;&gt;Node3 -->
<g id="edge2" class="edge">
<title>Node2&#45;&gt;Node3</title>
<path fill="none" stroke="midnightblue" d="M382.05,-15.5C390.5,-15.5 399.18,-15.5 407.82,-15.5"/>
<polygon fill="midnightblue" stroke="midnightblue" points="407.94,-19 417.94,-15.5 407.94,-12 407.94,-19"/>
</g>
</g>
</svg>
