<?xml version="1.0" encoding="UTF-8" standalone="no"?>
<!DOCTYPE svg PUBLIC "-//W3C//DTD SVG 1.1//EN"
 "http://www.w3.org/Graphics/SVG/1.1/DTD/svg11.dtd">
<!-- Generated by graphviz version 2.43.0 (0)
 -->
<!-- Title: aopp_deconv_tool.fits_slice.exec_with_args Pages: 1 -->
<svg width="690pt" height="86pt"
 viewBox="0.00 0.00 690.00 86.00" xmlns="http://www.w3.org/2000/svg" xmlns:xlink="http://www.w3.org/1999/xlink">
<g id="graph0" class="graph" transform="scale(1 1) rotate(0) translate(4 82)">
<title>aopp_deconv_tool.fits_slice.exec_with_args</title>
<!-- Node1 -->
<g id="Node000001" class="node">
<title>Node1</title>
<g id="a_Node000001"><a xlink:title=" ">
<polygon fill="#999999" stroke="#666666" points="123,-54 0,-54 0,-24 123,-24 123,-54"/>
<text text-anchor="start" x="8" y="-42" font-family="Helvetica,sans-Serif" font-size="10.00">aopp_deconv_tool.fits</text>
<text text-anchor="middle" x="61.5" y="-31" font-family="Helvetica,sans-Serif" font-size="10.00">_slice.exec_with_args</text>
</a>
</g>
</g>
<!-- Node1&#45;&gt;Node1 -->
<g id="edge1_Node000001_Node000001" class="edge">
<title>Node1&#45;&gt;Node1</title>
<g id="a_edge1_Node000001_Node000001"><a xlink:title=" ">
<path fill="none" stroke="#63b8ff" d="M33.73,-54.28C27.55,-63.41 36.81,-72 61.5,-72 76.16,-72 85.38,-68.97 89.16,-64.6"/>
<polygon fill="#63b8ff" stroke="#63b8ff" points="92.66,-64.31 89.27,-54.28 85.66,-64.23 92.66,-64.31"/>
</a>
</g>
</g>
<!-- Node2 -->
<g id="Node000002" class="node">
<title>Node2</title>
<g id="a_Node000002"><a xlink:href="../../d6/d01/namespaceaopp__deconv__tool_1_1fits__slice.html#a07e531c1e706bd0a972662aab71208a8" target="_top" xlink:title=" ">
<polygon fill="white" stroke="#666666" points="282,-78 159,-78 159,-48 282,-48 282,-78"/>
<text text-anchor="start" x="167" y="-66" font-family="Helvetica,sans-Serif" font-size="10.00">aopp_deconv_tool.fits</text>
<text text-anchor="middle" x="220.5" y="-55" font-family="Helvetica,sans-Serif" font-size="10.00">_slice.parse_args</text>
</a>
</g>
</g>
<!-- Node1&#45;&gt;Node2 -->
<g id="edge2_Node000001_Node000002" class="edge">
<title>Node1&#45;&gt;Node2</title>
<g id="a_edge2_Node000001_Node000002"><a xlink:title=" ">
<path fill="none" stroke="#63b8ff" d="M123.2,-48.28C131.64,-49.57 140.36,-50.9 148.95,-52.22"/>
<polygon fill="#63b8ff" stroke="#63b8ff" points="148.55,-55.69 158.96,-53.75 149.6,-48.77 148.55,-55.69"/>
</a>
</g>
</g>
<!-- Node5 -->
<g id="Node000005" class="node">
<title>Node5</title>
<g id="a_Node000005"><a xlink:href="../../d6/d01/namespaceaopp__deconv__tool_1_1fits__slice.html#a8e80cea11fbef7df02ee4343d76b5526" target="_top" xlink:title=" ">
<polygon fill="white" stroke="#666666" points="282,-30 159,-30 159,0 282,0 282,-30"/>
<text text-anchor="start" x="167" y="-18" font-family="Helvetica,sans-Serif" font-size="10.00">aopp_deconv_tool.fits</text>
<text text-anchor="middle" x="220.5" y="-7" font-family="Helvetica,sans-Serif" font-size="10.00">_slice.run</text>
</a>
</g>
</g>
<!-- Node1&#45;&gt;Node5 -->
<g id="edge5_Node000001_Node000005" class="edge">
<title>Node1&#45;&gt;Node5</title>
<g id="a_edge5_Node000001_Node000005"><a xlink:title=" ">
<path fill="none" stroke="#63b8ff" d="M123.2,-29.72C131.64,-28.43 140.36,-27.1 148.95,-25.78"/>
<polygon fill="#63b8ff" stroke="#63b8ff" points="149.6,-29.23 158.96,-24.25 148.55,-22.31 149.6,-29.23"/>
</a>
</g>
</g>
<!-- Node3 -->
<g id="Node000003" class="node">
<title>Node3</title>
<g id="a_Node000003"><a xlink:href="../../d8/d5b/namespaceaopp__deconv__tool_1_1text.html#a75d81e58c71da89b56473e2616edd1c6" target="_top" xlink:title=" ">
<polygon fill="white" stroke="#666666" points="473,-72.5 318,-72.5 318,-53.5 473,-53.5 473,-72.5"/>
<text text-anchor="middle" x="395.5" y="-60.5" font-family="Helvetica,sans-Serif" font-size="10.00">aopp_deconv_tool.text.wrap</text>
</a>
</g>
</g>
<!-- Node2&#45;&gt;Node3 -->
<g id="edge3_Node000002_Node000003" class="edge">
<title>Node2&#45;&gt;Node3</title>
<g id="a_edge3_Node000002_Node000003"><a xlink:title=" ">
<path fill="none" stroke="#63b8ff" d="M282.01,-63C290.34,-63 299.03,-63 307.72,-63"/>
<polygon fill="#63b8ff" stroke="#63b8ff" points="307.91,-66.5 317.91,-63 307.91,-59.5 307.91,-66.5"/>
</a>
</g>
</g>
<!-- Node4 -->
<g id="Node000004" class="node">
<title>Node4</title>
<g id="a_Node000004"><a xlink:href="../../d8/d5b/namespaceaopp__deconv__tool_1_1text.html#a1496cf89a275b1b851ff81f401628c27" target="_top" xlink:title=" ">
<polygon fill="white" stroke="#666666" points="682,-78 509,-78 509,-48 682,-48 682,-78"/>
<text text-anchor="start" x="517" y="-66" font-family="Helvetica,sans-Serif" font-size="10.00">aopp_deconv_tool.text.combine</text>
<text text-anchor="middle" x="595.5" y="-55" font-family="Helvetica,sans-Serif" font-size="10.00">_lines_with_same_indent</text>
</a>
</g>
</g>
<!-- Node3&#45;&gt;Node4 -->
<g id="edge4_Node000003_Node000004" class="edge">
<title>Node3&#45;&gt;Node4</title>
<g id="a_edge4_Node000003_Node000004"><a xlink:title=" ">
<path fill="none" stroke="#63b8ff" d="M473.05,-63C481.5,-63 490.18,-63 498.82,-63"/>
<polygon fill="#63b8ff" stroke="#63b8ff" points="498.94,-66.5 508.94,-63 498.94,-59.5 498.94,-66.5"/>
</a>
</g>
</g>
</g>
</svg>
