<?xml version="1.0" encoding="UTF-8" standalone="no"?>
<!DOCTYPE svg PUBLIC "-//W3C//DTD SVG 1.1//EN"
 "http://www.w3.org/Graphics/SVG/1.1/DTD/svg11.dtd">
<!-- Generated by graphviz version 2.43.0 (0)
 -->
<!-- Title: aopp_deconv_tool.fits_slice.go Pages: 1 -->
<svg width="935pt" height="128pt"
 viewBox="0.00 0.00 935.00 128.00" xmlns="http://www.w3.org/2000/svg" xmlns:xlink="http://www.w3.org/1999/xlink">
<g id="graph0" class="graph" transform="scale(1 1) rotate(0) translate(4 124)">
<title>aopp_deconv_tool.fits_slice.go</title>
<!-- Node1 -->
<g id="Node000001" class="node">
<title>Node1</title>
<g id="a_Node000001"><a xlink:title=" ">
<polygon fill="#999999" stroke="#666666" points="123,-87 0,-87 0,-57 123,-57 123,-87"/>
<text text-anchor="start" x="8" y="-75" font-family="Helvetica,sans-Serif" font-size="10.00">aopp_deconv_tool.fits</text>
<text text-anchor="middle" x="61.5" y="-64" font-family="Helvetica,sans-Serif" font-size="10.00">_slice.go</text>
</a>
</g>
</g>
<!-- Node2 -->
<g id="Node000002" class="node">
<title>Node2</title>
<g id="a_Node000002"><a xlink:href="../../da/d5f/namespaceaopp__deconv__tool_1_1arguments.html#aec2c9d770d31aa257cf89a398d910714" target="_top" xlink:title=" ">
<polygon fill="white" stroke="#666666" points="368,-120 159,-120 159,-90 368,-90 368,-120"/>
<text text-anchor="start" x="167" y="-108" font-family="Helvetica,sans-Serif" font-size="10.00">aopp_deconv_tool.arguments.construct</text>
<text text-anchor="middle" x="263.5" y="-97" font-family="Helvetica,sans-Serif" font-size="10.00">_arglist_from_locals</text>
</a>
</g>
</g>
<!-- Node1&#45;&gt;Node2 -->
<g id="edge1_Node000001_Node000002" class="edge">
<title>Node1&#45;&gt;Node2</title>
<g id="a_edge1_Node000001_Node000002"><a xlink:title=" ">
<path fill="none" stroke="#63b8ff" d="M123.05,-81.99C135.23,-84 148.35,-86.17 161.49,-88.33"/>
<polygon fill="#63b8ff" stroke="#63b8ff" points="161.09,-91.81 171.53,-89.99 162.23,-84.91 161.09,-91.81"/>
</a>
</g>
</g>
<!-- Node3 -->
<g id="Node000003" class="node">
<title>Node3</title>
<g id="a_Node000003"><a xlink:href="../../d6/d01/namespaceaopp__deconv__tool_1_1fits__slice.html#a22c48d7ced086dab4c8658964fc83178" target="_top" xlink:title=" ">
<polygon fill="white" stroke="#666666" points="325,-54 202,-54 202,-24 325,-24 325,-54"/>
<text text-anchor="start" x="210" y="-42" font-family="Helvetica,sans-Serif" font-size="10.00">aopp_deconv_tool.fits</text>
<text text-anchor="middle" x="263.5" y="-31" font-family="Helvetica,sans-Serif" font-size="10.00">_slice.exec_with_args</text>
</a>
</g>
</g>
<!-- Node1&#45;&gt;Node3 -->
<g id="edge2_Node000001_Node000003" class="edge">
<title>Node1&#45;&gt;Node3</title>
<g id="a_edge2_Node000001_Node000003"><a xlink:title=" ">
<path fill="none" stroke="#63b8ff" d="M123.05,-62.01C144.68,-58.44 169.25,-54.39 191.68,-50.69"/>
<polygon fill="#63b8ff" stroke="#63b8ff" points="192.51,-54.09 201.81,-49.01 191.38,-47.19 192.51,-54.09"/>
</a>
</g>
</g>
<!-- Node3&#45;&gt;Node3 -->
<g id="edge3_Node000003_Node000003" class="edge">
<title>Node3&#45;&gt;Node3</title>
<g id="a_edge3_Node000003_Node000003"><a xlink:title=" ">
<path fill="none" stroke="#63b8ff" d="M227.99,-54.28C220.1,-63.41 231.94,-72 263.5,-72 282.24,-72 294.03,-68.97 298.86,-64.6"/>
<polygon fill="#63b8ff" stroke="#63b8ff" points="302.36,-64.33 299.01,-54.28 295.36,-64.22 302.36,-64.33"/>
</a>
</g>
</g>
<!-- Node4 -->
<g id="Node000004" class="node">
<title>Node4</title>
<g id="a_Node000004"><a xlink:href="../../d6/d01/namespaceaopp__deconv__tool_1_1fits__slice.html#a07e531c1e706bd0a972662aab71208a8" target="_top" xlink:title=" ">
<polygon fill="white" stroke="#666666" points="527,-78 404,-78 404,-48 527,-48 527,-78"/>
<text text-anchor="start" x="412" y="-66" font-family="Helvetica,sans-Serif" font-size="10.00">aopp_deconv_tool.fits</text>
<text text-anchor="middle" x="465.5" y="-55" font-family="Helvetica,sans-Serif" font-size="10.00">_slice.parse_args</text>
</a>
</g>
</g>
<!-- Node3&#45;&gt;Node4 -->
<g id="edge4_Node000003_Node000004" class="edge">
<title>Node3&#45;&gt;Node4</title>
<g id="a_edge4_Node000003_Node000004"><a xlink:title=" ">
<path fill="none" stroke="#63b8ff" d="M325.05,-46.27C346.68,-48.86 371.25,-51.81 393.68,-54.5"/>
<polygon fill="#63b8ff" stroke="#63b8ff" points="393.47,-58 403.81,-55.72 394.3,-51.05 393.47,-58"/>
</a>
</g>
</g>
<!-- Node7 -->
<g id="Node000007" class="node">
<title>Node7</title>
<g id="a_Node000007"><a xlink:href="../../d6/d01/namespaceaopp__deconv__tool_1_1fits__slice.html#a8e80cea11fbef7df02ee4343d76b5526" target="_top" xlink:title=" ">
<polygon fill="white" stroke="#666666" points="527,-30 404,-30 404,0 527,0 527,-30"/>
<text text-anchor="start" x="412" y="-18" font-family="Helvetica,sans-Serif" font-size="10.00">aopp_deconv_tool.fits</text>
<text text-anchor="middle" x="465.5" y="-7" font-family="Helvetica,sans-Serif" font-size="10.00">_slice.run</text>
</a>
</g>
</g>
<!-- Node3&#45;&gt;Node7 -->
<g id="edge7_Node000003_Node000007" class="edge">
<title>Node3&#45;&gt;Node7</title>
<g id="a_edge7_Node000003_Node000007"><a xlink:title=" ">
<path fill="none" stroke="#63b8ff" d="M325.05,-31.73C346.68,-29.14 371.25,-26.19 393.68,-23.5"/>
<polygon fill="#63b8ff" stroke="#63b8ff" points="394.3,-26.95 403.81,-22.28 393.47,-20 394.3,-26.95"/>
</a>
</g>
</g>
<!-- Node5 -->
<g id="Node000005" class="node">
<title>Node5</title>
<g id="a_Node000005"><a xlink:href="../../d8/d5b/namespaceaopp__deconv__tool_1_1text.html#a75d81e58c71da89b56473e2616edd1c6" target="_top" xlink:title=" ">
<polygon fill="white" stroke="#666666" points="718,-72.5 563,-72.5 563,-53.5 718,-53.5 718,-72.5"/>
<text text-anchor="middle" x="640.5" y="-60.5" font-family="Helvetica,sans-Serif" font-size="10.00">aopp_deconv_tool.text.wrap</text>
</a>
</g>
</g>
<!-- Node4&#45;&gt;Node5 -->
<g id="edge5_Node000004_Node000005" class="edge">
<title>Node4&#45;&gt;Node5</title>
<g id="a_edge5_Node000004_Node000005"><a xlink:title=" ">
<path fill="none" stroke="#63b8ff" d="M527.01,-63C535.34,-63 544.03,-63 552.72,-63"/>
<polygon fill="#63b8ff" stroke="#63b8ff" points="552.91,-66.5 562.91,-63 552.91,-59.5 552.91,-66.5"/>
</a>
</g>
</g>
<!-- Node6 -->
<g id="Node000006" class="node">
<title>Node6</title>
<g id="a_Node000006"><a xlink:href="../../d8/d5b/namespaceaopp__deconv__tool_1_1text.html#a1496cf89a275b1b851ff81f401628c27" target="_top" xlink:title=" ">
<polygon fill="white" stroke="#666666" points="927,-78 754,-78 754,-48 927,-48 927,-78"/>
<text text-anchor="start" x="762" y="-66" font-family="Helvetica,sans-Serif" font-size="10.00">aopp_deconv_tool.text.combine</text>
<text text-anchor="middle" x="840.5" y="-55" font-family="Helvetica,sans-Serif" font-size="10.00">_lines_with_same_indent</text>
</a>
</g>
</g>
<!-- Node5&#45;&gt;Node6 -->
<g id="edge6_Node000005_Node000006" class="edge">
<title>Node5&#45;&gt;Node6</title>
<g id="a_edge6_Node000005_Node000006"><a xlink:title=" ">
<path fill="none" stroke="#63b8ff" d="M718.05,-63C726.5,-63 735.18,-63 743.82,-63"/>
<polygon fill="#63b8ff" stroke="#63b8ff" points="743.94,-66.5 753.94,-63 743.94,-59.5 743.94,-66.5"/>
</a>
</g>
</g>
</g>
</svg>
