<?xml version="1.0" encoding="UTF-8" standalone="no"?>
<!DOCTYPE svg PUBLIC "-//W3C//DTD SVG 1.1//EN"
 "http://www.w3.org/Graphics/SVG/1.1/DTD/svg11.dtd">
<!-- Generated by graphviz version 2.43.0 (0)
 -->
<!-- Title: aopp_deconv_tool.to_fits.exec_with_args Pages: 1 -->
<svg width="438pt" height="155pt"
 viewBox="0.00 0.00 438.00 154.50" xmlns="http://www.w3.org/2000/svg" xmlns:xlink="http://www.w3.org/1999/xlink">
<g id="graph0" class="graph" transform="scale(1 1) rotate(0) translate(4 150.5)">
<title>aopp_deconv_tool.to_fits.exec_with_args</title>
<!-- Node1 -->
<g id="node1" class="node">
<title>Node1</title>
<g id="a_node1"><a xlink:title=" ">
<polygon fill="#bfbfbf" stroke="black" points="0,-55.5 0,-85.5 118,-85.5 118,-55.5 0,-55.5"/>
<text text-anchor="start" x="8" y="-73.5" font-family="Helvetica,sans-Serif" font-size="10.00">aopp_deconv_tool.to</text>
<text text-anchor="middle" x="59" y="-62.5" font-family="Helvetica,sans-Serif" font-size="10.00">_fits.exec_with_args</text>
</a>
</g>
</g>
<!-- Node2 -->
<g id="node2" class="node">
<title>Node2</title>
<g id="a_node2"><a xlink:href="../../d9/d77/namespaceaopp__deconv__tool_1_1to__fits.html#ad4c4603783a05469f1baa0c973f3fdf9" target="_top" xlink:title=" ">
<polygon fill="none" stroke="black" points="156,-110.5 156,-140.5 274,-140.5 274,-110.5 156,-110.5"/>
<text text-anchor="start" x="164" y="-128.5" font-family="Helvetica,sans-Serif" font-size="10.00">aopp_deconv_tool.to</text>
<text text-anchor="middle" x="215" y="-117.5" font-family="Helvetica,sans-Serif" font-size="10.00">_fits.parse_args</text>
</a>
</g>
</g>
<!-- Node1&#45;&gt;Node2 -->
<g id="edge1" class="edge">
<title>Node1&#45;&gt;Node2</title>
<path fill="none" stroke="midnightblue" d="M102.08,-85.53C120.76,-92.2 142.91,-100.11 162.55,-107.13"/>
<polygon fill="midnightblue" stroke="midnightblue" points="161.38,-110.42 171.97,-110.49 163.73,-103.83 161.38,-110.42"/>
</g>
<!-- Node4 -->
<g id="node4" class="node">
<title>Node4</title>
<g id="a_node4"><a xlink:href="../../d9/d77/namespaceaopp__deconv__tool_1_1to__fits.html#ad659ee84e52aad3a61927e3f264a6506" target="_top" xlink:title=" ">
<polygon fill="none" stroke="black" points="154,-50 154,-91 276,-91 276,-50 154,-50"/>
<text text-anchor="start" x="162" y="-79" font-family="Helvetica,sans-Serif" font-size="10.00">aopp_deconv_tool.to</text>
<text text-anchor="start" x="162" y="-68" font-family="Helvetica,sans-Serif" font-size="10.00">_fits.read_image_into</text>
<text text-anchor="middle" x="215" y="-57" font-family="Helvetica,sans-Serif" font-size="10.00">_data_bundle</text>
</a>
</g>
</g>
<!-- Node1&#45;&gt;Node4 -->
<g id="edge3" class="edge">
<title>Node1&#45;&gt;Node4</title>
<path fill="none" stroke="midnightblue" d="M118.22,-70.5C126.61,-70.5 135.31,-70.5 143.9,-70.5"/>
<polygon fill="midnightblue" stroke="midnightblue" points="143.9,-74 153.9,-70.5 143.9,-67 143.9,-74"/>
</g>
<!-- Node6 -->
<g id="node6" class="node">
<title>Node6</title>
<g id="a_node6"><a xlink:href="../../d9/d77/namespaceaopp__deconv__tool_1_1to__fits.html#a4e0bceb3cf46c65ab8bdf7bafb378574" target="_top" xlink:title=" ">
<polygon fill="none" stroke="black" points="156,-0.5 156,-30.5 274,-30.5 274,-0.5 156,-0.5"/>
<text text-anchor="start" x="164" y="-18.5" font-family="Helvetica,sans-Serif" font-size="10.00">aopp_deconv_tool.to</text>
<text text-anchor="middle" x="215" y="-7.5" font-family="Helvetica,sans-Serif" font-size="10.00">_fits.save_as_fits</text>
</a>
</g>
</g>
<!-- Node1&#45;&gt;Node6 -->
<g id="edge5" class="edge">
<title>Node1&#45;&gt;Node6</title>
<path fill="none" stroke="midnightblue" d="M102.08,-55.47C120.76,-48.8 142.91,-40.89 162.55,-33.87"/>
<polygon fill="midnightblue" stroke="midnightblue" points="163.73,-37.17 171.97,-30.51 161.38,-30.58 163.73,-37.17"/>
</g>
<!-- Node3 -->
<g id="node3" class="node">
<title>Node3</title>
<g id="a_node3"><a xlink:href="../../d9/d77/namespaceaopp__deconv__tool_1_1to__fits.html#a6a925ca2fd5c2bbdfe0135cef7c2c80d" target="_top" xlink:title=" ">
<polygon fill="none" stroke="black" points="312,-105 312,-146 430,-146 430,-105 312,-105"/>
<text text-anchor="start" x="320" y="-134" font-family="Helvetica,sans-Serif" font-size="10.00">aopp_deconv_tool.to</text>
<text text-anchor="start" x="320" y="-123" font-family="Helvetica,sans-Serif" font-size="10.00">_fits.get_supported</text>
<text text-anchor="middle" x="371" y="-112" font-family="Helvetica,sans-Serif" font-size="10.00">_formats</text>
</a>
</g>
</g>
<!-- Node2&#45;&gt;Node3 -->
<g id="edge2" class="edge">
<title>Node2&#45;&gt;Node3</title>
<path fill="none" stroke="midnightblue" d="M274.22,-125.5C283.19,-125.5 292.53,-125.5 301.7,-125.5"/>
<polygon fill="midnightblue" stroke="midnightblue" points="301.95,-129 311.95,-125.5 301.95,-122 301.95,-129"/>
</g>
<!-- Node5 -->
<g id="node5" class="node">
<title>Node5</title>
<g id="a_node5"><a xlink:href="../../d9/d77/namespaceaopp__deconv__tool_1_1to__fits.html#a08f2c3ba863b4b6961f1b272b0e9a6e9" target="_top" xlink:title=" ">
<polygon fill="none" stroke="black" points="312,-55.5 312,-85.5 430,-85.5 430,-55.5 312,-55.5"/>
<text text-anchor="start" x="320" y="-73.5" font-family="Helvetica,sans-Serif" font-size="10.00">aopp_deconv_tool.to</text>
<text text-anchor="middle" x="371" y="-62.5" font-family="Helvetica,sans-Serif" font-size="10.00">_fits.read_exif</text>
</a>
</g>
</g>
<!-- Node4&#45;&gt;Node5 -->
<g id="edge4" class="edge">
<title>Node4&#45;&gt;Node5</title>
<path fill="none" stroke="midnightblue" d="M276.42,-70.5C284.69,-70.5 293.23,-70.5 301.62,-70.5"/>
<polygon fill="midnightblue" stroke="midnightblue" points="301.77,-74 311.77,-70.5 301.77,-67 301.77,-74"/>
</g>
</g>
</svg>
