<?xml version="1.0" encoding="UTF-8" standalone="no"?>
<!DOCTYPE svg PUBLIC "-//W3C//DTD SVG 1.1//EN"
 "http://www.w3.org/Graphics/SVG/1.1/DTD/svg11.dtd">
<!-- Generated by graphviz version 2.43.0 (0)
 -->
<!-- Title: aopp_deconv_tool.to_fits.go Pages: 1 -->
<svg width="683pt" height="155pt"
 viewBox="0.00 0.00 683.00 154.50" xmlns="http://www.w3.org/2000/svg" xmlns:xlink="http://www.w3.org/1999/xlink">
<g id="graph0" class="graph" transform="scale(1 1) rotate(0) translate(4 150.5)">
<title>aopp_deconv_tool.to_fits.go</title>
<!-- Node1 -->
<g id="node1" class="node">
<title>Node1</title>
<g id="a_node1"><a xlink:title=" ">
<polygon fill="#bfbfbf" stroke="black" points="0,-79.5 0,-109.5 118,-109.5 118,-79.5 0,-79.5"/>
<text text-anchor="start" x="8" y="-97.5" font-family="Helvetica,sans-Serif" font-size="10.00">aopp_deconv_tool.to</text>
<text text-anchor="middle" x="59" y="-86.5" font-family="Helvetica,sans-Serif" font-size="10.00">_fits.go</text>
</a>
</g>
</g>
<!-- Node2 -->
<g id="node2" class="node">
<title>Node2</title>
<g id="a_node2"><a xlink:href="../../da/d5f/namespaceaopp__deconv__tool_1_1arguments.html#a206efe8090df20dc2ee1729424f5bb9f" target="_top" xlink:title=" ">
<polygon fill="none" stroke="black" points="154,-104.5 154,-134.5 363,-134.5 363,-104.5 154,-104.5"/>
<text text-anchor="start" x="162" y="-122.5" font-family="Helvetica,sans-Serif" font-size="10.00">aopp_deconv_tool.arguments.construct</text>
<text text-anchor="middle" x="258.5" y="-111.5" font-family="Helvetica,sans-Serif" font-size="10.00">_arglist_from_locals</text>
</a>
</g>
</g>
<!-- Node1&#45;&gt;Node2 -->
<g id="edge1" class="edge">
<title>Node1&#45;&gt;Node2</title>
<path fill="none" stroke="midnightblue" d="M118.19,-101.87C126.37,-102.9 135.01,-103.99 143.8,-105.11"/>
<polygon fill="midnightblue" stroke="midnightblue" points="143.43,-108.59 153.79,-106.37 144.31,-101.64 143.43,-108.59"/>
</g>
<!-- Node3 -->
<g id="node3" class="node">
<title>Node3</title>
<g id="a_node3"><a xlink:href="../../d9/d77/namespaceaopp__deconv__tool_1_1to__fits.html#aa3e8c7d6cf6c33134f75ae9e720fe2bb" target="_top" xlink:title=" ">
<polygon fill="none" stroke="black" points="199.5,-55.5 199.5,-85.5 317.5,-85.5 317.5,-55.5 199.5,-55.5"/>
<text text-anchor="start" x="207.5" y="-73.5" font-family="Helvetica,sans-Serif" font-size="10.00">aopp_deconv_tool.to</text>
<text text-anchor="middle" x="258.5" y="-62.5" font-family="Helvetica,sans-Serif" font-size="10.00">_fits.exec_with_args</text>
</a>
</g>
</g>
<!-- Node1&#45;&gt;Node3 -->
<g id="edge2" class="edge">
<title>Node1&#45;&gt;Node3</title>
<path fill="none" stroke="midnightblue" d="M118.19,-87.43C140.49,-84.72 166.13,-81.6 189.29,-78.79"/>
<polygon fill="midnightblue" stroke="midnightblue" points="189.88,-82.24 199.39,-77.56 189.04,-75.29 189.88,-82.24"/>
</g>
<!-- Node4 -->
<g id="node4" class="node">
<title>Node4</title>
<g id="a_node4"><a xlink:href="../../d9/d77/namespaceaopp__deconv__tool_1_1to__fits.html#ad4c4603783a05469f1baa0c973f3fdf9" target="_top" xlink:title=" ">
<polygon fill="none" stroke="black" points="401,-110.5 401,-140.5 519,-140.5 519,-110.5 401,-110.5"/>
<text text-anchor="start" x="409" y="-128.5" font-family="Helvetica,sans-Serif" font-size="10.00">aopp_deconv_tool.to</text>
<text text-anchor="middle" x="460" y="-117.5" font-family="Helvetica,sans-Serif" font-size="10.00">_fits.parse_args</text>
</a>
</g>
</g>
<!-- Node3&#45;&gt;Node4 -->
<g id="edge3" class="edge">
<title>Node3&#45;&gt;Node4</title>
<path fill="none" stroke="midnightblue" d="M317.74,-83.1C332.57,-86.55 348.42,-90.46 363,-94.5 376.72,-98.3 391.4,-102.81 405.06,-107.2"/>
<polygon fill="midnightblue" stroke="midnightblue" points="404.19,-110.6 414.79,-110.36 406.36,-103.94 404.19,-110.6"/>
</g>
<!-- Node6 -->
<g id="node6" class="node">
<title>Node6</title>
<g id="a_node6"><a xlink:href="../../d9/d77/namespaceaopp__deconv__tool_1_1to__fits.html#a9acfde95bf056b8694da268228b6583a" target="_top" xlink:title=" ">
<polygon fill="none" stroke="black" points="399,-50 399,-91 521,-91 521,-50 399,-50"/>
<text text-anchor="start" x="407" y="-79" font-family="Helvetica,sans-Serif" font-size="10.00">aopp_deconv_tool.to</text>
<text text-anchor="start" x="407" y="-68" font-family="Helvetica,sans-Serif" font-size="10.00">_fits.read_image_into</text>
<text text-anchor="middle" x="460" y="-57" font-family="Helvetica,sans-Serif" font-size="10.00">_numpy_array</text>
</a>
</g>
</g>
<!-- Node3&#45;&gt;Node6 -->
<g id="edge5" class="edge">
<title>Node3&#45;&gt;Node6</title>
<path fill="none" stroke="midnightblue" d="M317.74,-70.5C339.98,-70.5 365.57,-70.5 388.81,-70.5"/>
<polygon fill="midnightblue" stroke="midnightblue" points="388.96,-74 398.96,-70.5 388.96,-67 388.96,-74"/>
</g>
<!-- Node8 -->
<g id="node8" class="node">
<title>Node8</title>
<g id="a_node8"><a xlink:href="../../d9/d77/namespaceaopp__deconv__tool_1_1to__fits.html#a4e0bceb3cf46c65ab8bdf7bafb378574" target="_top" xlink:title=" ">
<polygon fill="none" stroke="black" points="401,-0.5 401,-30.5 519,-30.5 519,-0.5 401,-0.5"/>
<text text-anchor="start" x="409" y="-18.5" font-family="Helvetica,sans-Serif" font-size="10.00">aopp_deconv_tool.to</text>
<text text-anchor="middle" x="460" y="-7.5" font-family="Helvetica,sans-Serif" font-size="10.00">_fits.save_as_fits</text>
</a>
</g>
</g>
<!-- Node3&#45;&gt;Node8 -->
<g id="edge7" class="edge">
<title>Node3&#45;&gt;Node8</title>
<path fill="none" stroke="midnightblue" d="M314.01,-55.47C338.98,-48.59 368.73,-40.39 394.77,-33.21"/>
<polygon fill="midnightblue" stroke="midnightblue" points="395.84,-36.54 404.55,-30.51 393.98,-29.79 395.84,-36.54"/>
</g>
<!-- Node5 -->
<g id="node5" class="node">
<title>Node5</title>
<g id="a_node5"><a xlink:href="../../d9/d77/namespaceaopp__deconv__tool_1_1to__fits.html#a6a925ca2fd5c2bbdfe0135cef7c2c80d" target="_top" xlink:title=" ">
<polygon fill="none" stroke="black" points="557,-105 557,-146 675,-146 675,-105 557,-105"/>
<text text-anchor="start" x="565" y="-134" font-family="Helvetica,sans-Serif" font-size="10.00">aopp_deconv_tool.to</text>
<text text-anchor="start" x="565" y="-123" font-family="Helvetica,sans-Serif" font-size="10.00">_fits.get_supported</text>
<text text-anchor="middle" x="616" y="-112" font-family="Helvetica,sans-Serif" font-size="10.00">_formats</text>
</a>
</g>
</g>
<!-- Node4&#45;&gt;Node5 -->
<g id="edge4" class="edge">
<title>Node4&#45;&gt;Node5</title>
<path fill="none" stroke="midnightblue" d="M519.22,-125.5C528.19,-125.5 537.53,-125.5 546.7,-125.5"/>
<polygon fill="midnightblue" stroke="midnightblue" points="546.95,-129 556.95,-125.5 546.95,-122 546.95,-129"/>
</g>
<!-- Node7 -->
<g id="node7" class="node">
<title>Node7</title>
<g id="a_node7"><a xlink:href="../../d9/d77/namespaceaopp__deconv__tool_1_1to__fits.html#a08f2c3ba863b4b6961f1b272b0e9a6e9" target="_top" xlink:title=" ">
<polygon fill="none" stroke="black" points="557,-55.5 557,-85.5 675,-85.5 675,-55.5 557,-55.5"/>
<text text-anchor="start" x="565" y="-73.5" font-family="Helvetica,sans-Serif" font-size="10.00">aopp_deconv_tool.to</text>
<text text-anchor="middle" x="616" y="-62.5" font-family="Helvetica,sans-Serif" font-size="10.00">_fits.read_exif</text>
</a>
</g>
</g>
<!-- Node6&#45;&gt;Node7 -->
<g id="edge6" class="edge">
<title>Node6&#45;&gt;Node7</title>
<path fill="none" stroke="midnightblue" d="M521.42,-70.5C529.69,-70.5 538.23,-70.5 546.62,-70.5"/>
<polygon fill="midnightblue" stroke="midnightblue" points="546.77,-74 556.77,-70.5 546.77,-67 546.77,-74"/>
</g>
</g>
</svg>
