<?xml version="1.0" encoding="UTF-8" standalone="no"?>
<!DOCTYPE svg PUBLIC "-//W3C//DTD SVG 1.1//EN"
 "http://www.w3.org/Graphics/SVG/1.1/DTD/svg11.dtd">
<!-- Generated by graphviz version 2.43.0 (0)
 -->
<!-- Title: aopp_deconv_tool.to_fits.go Pages: 1 -->
<!--zoomable 158 -->

<svg id="main" version="1.1" xmlns="http://www.w3.org/2000/svg" xmlns:xlink="http://www.w3.org/1999/xlink" xml:space="preserve" onload="init(evt)">
<style type="text/css"><![CDATA[
.node, .edge {opacity: 0.7;}
.node.selected, .edge.selected {opacity: 1;}
.edge:hover path { stroke: red; }
.edge:hover polygon { stroke: red; fill: red; }
]]></style>

<defs>
  <circle id="rim" cx="0" cy="0" r="7"/>
  <circle id="rim2" cx="0" cy="0" r="3.5"/>
  <g id="zoomPlus">
    <use xlink:href="#rim" fill="#404040"><set attributeName="fill" to="#808080" begin="zoomplus.mouseover" end="zoomplus.mouseout"/></use>
    <path d="M-4,0h8M0,-4v8" fill="none" stroke="white" stroke-width="1.5" pointer-events="none"/>
  </g>
  <g id="zoomMin">
    <use xlink:href="#rim" fill="#404040"><set attributeName="fill" to="#808080" begin="zoomminus.mouseover" end="zoomminus.mouseout"/></use>
    <path d="M-4,0h8" fill="none" stroke="white" stroke-width="1.5" pointer-events="none"/>
  </g>
  <g id="arrowUp" transform="translate(30 24)">
    <use xlink:href="#rim"/>
    <path pointer-events="none" fill="none" stroke="white" stroke-width="1.5" d="M0,-3.0v7 M-2.5,-0.5L0,-3.0L2.5,-0.5"/>
  </g>
  <g id="arrowRight" transform="rotate(90) translate(36 -43)">
    <use xlink:href="#rim"/>
    <path pointer-events="none" fill="none" stroke="white" stroke-width="1.5" d="M0,-3.0v7 M-2.5,-0.5L0,-3.0L2.5,-0.5"/>
  </g>
  <g id="arrowDown" transform="rotate(180) translate(-30 -48)">
    <use xlink:href="#rim"/>
    <path pointer-events="none" fill="none" stroke="white" stroke-width="1.5" d="M0,-3.0v7 M-2.5,-0.5L0,-3.0L2.5,-0.5"/>
  </g>
  <g id="arrowLeft" transform="rotate(270) translate(-36 17)">
    <use xlink:href="#rim"/>
    <path pointer-events="none" fill="none" stroke="white" stroke-width="1.5" d="M0,-3.0v7 M-2.5,-0.5L0,-3.0L2.5,-0.5"/>
  </g>
  <g id="resetDef">
    <use xlink:href="#rim2" fill="#404040"><set attributeName="fill" to="#808080" begin="reset.mouseover" end="reset.mouseout"/></use>
  </g>
</defs>
<script type="application/ecmascript">
var viewWidth = 683;
var viewHeight = 158;
var sectionId = 'dynsection-3';
</script>
<script type="application/ecmascript" xlink:href="../../svg.min.js"/>
<svg id="graph" class="graph">
<g id="viewport">
<title>aopp_deconv_tool.to_fits.go</title>
<!-- Node1 -->
<g id="Node000001" class="node">
<title>Node1</title>
<g id="a_Node000001"><a xlink:title=" ">
<polygon fill="#999999" stroke="#666666" points="118,-117 0,-117 0,-87 118,-87 118,-117"/>
<text text-anchor="start" x="8" y="-105" font-family="Helvetica,sans-Serif" font-size="10.00">aopp_deconv_tool.to</text>
<text text-anchor="middle" x="59" y="-94" font-family="Helvetica,sans-Serif" font-size="10.00">_fits.go</text>
</a>
</g>
</g>
<!-- Node2 -->
<g id="Node000002" class="node">
<title>Node2</title>
<g id="a_Node000002"><a xlink:href="../../da/d5f/namespaceaopp__deconv__tool_1_1arguments.html#aec2c9d770d31aa257cf89a398d910714" target="_top" xlink:title=" ">
<polygon fill="white" stroke="#666666" points="363,-150 154,-150 154,-120 363,-120 363,-150"/>
<text text-anchor="start" x="162" y="-138" font-family="Helvetica,sans-Serif" font-size="10.00">aopp_deconv_tool.arguments.construct</text>
<text text-anchor="middle" x="258.5" y="-127" font-family="Helvetica,sans-Serif" font-size="10.00">_arglist_from_locals</text>
</a>
</g>
</g>
<!-- Node1&#45;&gt;Node2 -->
<g id="edge1_Node000001_Node000002" class="edge">
<title>Node1&#45;&gt;Node2</title>
<g id="a_edge1_Node000001_Node000002"><a xlink:title=" ">
<path fill="none" stroke="#63b8ff" d="M118.19,-111.72C130.52,-113.78 143.87,-116.01 157.26,-118.25"/>
<polygon fill="#63b8ff" stroke="#63b8ff" points="157.05,-121.76 167.49,-119.96 158.2,-114.86 157.05,-121.76"/>
</a>
</g>
</g>
<!-- Node3 -->
<g id="Node000003" class="node">
<title>Node3</title>
<g id="a_Node000003"><a xlink:href="../../d9/d77/namespaceaopp__deconv__tool_1_1to__fits.html#a8b96332211de6e1520aa954995b627c8" target="_top" xlink:title=" ">
<polygon fill="white" stroke="#666666" points="317.5,-84 199.5,-84 199.5,-54 317.5,-54 317.5,-84"/>
<text text-anchor="start" x="207.5" y="-72" font-family="Helvetica,sans-Serif" font-size="10.00">aopp_deconv_tool.to</text>
<text text-anchor="middle" x="258.5" y="-61" font-family="Helvetica,sans-Serif" font-size="10.00">_fits.exec_with_args</text>
</a>
</g>
</g>
<!-- Node1&#45;&gt;Node3 -->
<g id="edge2_Node000001_Node000003" class="edge">
<title>Node1&#45;&gt;Node3</title>
<g id="a_edge2_Node000001_Node000003"><a xlink:title=" ">
<path fill="none" stroke="#63b8ff" d="M118.19,-92.28C140.49,-88.55 166.13,-84.27 189.29,-80.4"/>
<polygon fill="#63b8ff" stroke="#63b8ff" points="190.1,-83.81 199.39,-78.71 188.95,-76.91 190.1,-83.81"/>
</a>
</g>
</g>
<!-- Node3&#45;&gt;Node3 -->
<g id="edge3_Node000003_Node000003" class="edge">
<title>Node3&#45;&gt;Node3</title>
<g id="a_edge3_Node000003_Node000003"><a xlink:title=" ">
<path fill="none" stroke="#63b8ff" d="M223.7,-84.28C215.96,-93.41 227.56,-102 258.5,-102 276.87,-102 288.42,-98.97 293.16,-94.6"/>
<polygon fill="#63b8ff" stroke="#63b8ff" points="296.66,-94.32 293.3,-84.28 289.66,-94.22 296.66,-94.32"/>
</a>
</g>
</g>
<!-- Node4 -->
<g id="Node000004" class="node">
<title>Node4</title>
<g id="a_Node000004"><a xlink:href="../../d9/d77/namespaceaopp__deconv__tool_1_1to__fits.html#a3d6ea059cbbafecaf0e960a74019c8d4" target="_top" xlink:title=" ">
<polygon fill="white" stroke="#666666" points="519,-138 401,-138 401,-108 519,-108 519,-138"/>
<text text-anchor="start" x="409" y="-126" font-family="Helvetica,sans-Serif" font-size="10.00">aopp_deconv_tool.to</text>
<text text-anchor="middle" x="460" y="-115" font-family="Helvetica,sans-Serif" font-size="10.00">_fits.parse_args</text>
</a>
</g>
</g>
<!-- Node3&#45;&gt;Node4 -->
<g id="edge4_Node000003_Node000004" class="edge">
<title>Node3&#45;&gt;Node4</title>
<g id="a_edge4_Node000003_Node000004"><a xlink:title=" ">
<path fill="none" stroke="#63b8ff" d="M315.07,-84.04C339.4,-90.63 368.12,-98.4 393.48,-105.26"/>
<polygon fill="#63b8ff" stroke="#63b8ff" points="392.81,-108.71 403.38,-107.95 394.64,-101.95 392.81,-108.71"/>
</a>
</g>
</g>
<!-- Node6 -->
<g id="Node000006" class="node">
<title>Node6</title>
<g id="a_Node000006"><a xlink:href="../../d9/d77/namespaceaopp__deconv__tool_1_1to__fits.html#ad659ee84e52aad3a61927e3f264a6506" target="_top" xlink:title=" ">
<polygon fill="white" stroke="#666666" points="521,-89.5 399,-89.5 399,-48.5 521,-48.5 521,-89.5"/>
<text text-anchor="start" x="407" y="-77.5" font-family="Helvetica,sans-Serif" font-size="10.00">aopp_deconv_tool.to</text>
<text text-anchor="start" x="407" y="-66.5" font-family="Helvetica,sans-Serif" font-size="10.00">_fits.read_image_into</text>
<text text-anchor="middle" x="460" y="-55.5" font-family="Helvetica,sans-Serif" font-size="10.00">_data_bundle</text>
</a>
</g>
</g>
<!-- Node3&#45;&gt;Node6 -->
<g id="edge6_Node000003_Node000006" class="edge">
<title>Node3&#45;&gt;Node6</title>
<g id="a_edge6_Node000003_Node000006"><a xlink:title=" ">
<path fill="none" stroke="#63b8ff" d="M317.74,-69C339.98,-69 365.57,-69 388.81,-69"/>
<polygon fill="#63b8ff" stroke="#63b8ff" points="388.96,-72.5 398.96,-69 388.96,-65.5 388.96,-72.5"/>
</a>
</g>
</g>
<!-- Node8 -->
<g id="Node000008" class="node">
<title>Node8</title>
<g id="a_Node000008"><a xlink:href="../../d9/d77/namespaceaopp__deconv__tool_1_1to__fits.html#a564ebdad3b554d975ef4554f93b70faf" target="_top" xlink:title=" ">
<polygon fill="white" stroke="#666666" points="519,-30 401,-30 401,0 519,0 519,-30"/>
<text text-anchor="start" x="409" y="-18" font-family="Helvetica,sans-Serif" font-size="10.00">aopp_deconv_tool.to</text>
<text text-anchor="middle" x="460" y="-7" font-family="Helvetica,sans-Serif" font-size="10.00">_fits.save_as_fits</text>
</a>
</g>
</g>
<!-- Node3&#45;&gt;Node8 -->
<g id="edge8_Node000003_Node000008" class="edge">
<title>Node3&#45;&gt;Node8</title>
<g id="a_edge8_Node000003_Node000008"><a xlink:title=" ">
<path fill="none" stroke="#63b8ff" d="M315.07,-53.96C339.4,-47.37 368.12,-39.6 393.48,-32.74"/>
<polygon fill="#63b8ff" stroke="#63b8ff" points="394.64,-36.05 403.38,-30.05 392.81,-29.29 394.64,-36.05"/>
</a>
</g>
</g>
<!-- Node5 -->
<g id="Node000005" class="node">
<title>Node5</title>
<g id="a_Node000005"><a xlink:href="../../d9/d77/namespaceaopp__deconv__tool_1_1to__fits.html#afa8a56923d801cf29e0a24560f44377b" target="_top" xlink:title=" ">
<polygon fill="white" stroke="#666666" points="675,-143.5 557,-143.5 557,-102.5 675,-102.5 675,-143.5"/>
<text text-anchor="start" x="565" y="-131.5" font-family="Helvetica,sans-Serif" font-size="10.00">aopp_deconv_tool.to</text>
<text text-anchor="start" x="565" y="-120.5" font-family="Helvetica,sans-Serif" font-size="10.00">_fits.get_supported</text>
<text text-anchor="middle" x="616" y="-109.5" font-family="Helvetica,sans-Serif" font-size="10.00">_formats</text>
</a>
</g>
</g>
<!-- Node4&#45;&gt;Node5 -->
<g id="edge5_Node000004_Node000005" class="edge">
<title>Node4&#45;&gt;Node5</title>
<g id="a_edge5_Node000004_Node000005"><a xlink:title=" ">
<path fill="none" stroke="#63b8ff" d="M519.22,-123C528.19,-123 537.53,-123 546.7,-123"/>
<polygon fill="#63b8ff" stroke="#63b8ff" points="546.95,-126.5 556.95,-123 546.95,-119.5 546.95,-126.5"/>
</a>
</g>
</g>
<!-- Node7 -->
<g id="Node000007" class="node">
<title>Node7</title>
<g id="a_Node000007"><a xlink:href="../../d9/d77/namespaceaopp__deconv__tool_1_1to__fits.html#a606b7793353ac04a7eb4cf12d274d251" target="_top" xlink:title=" ">
<polygon fill="white" stroke="#666666" points="675,-84 557,-84 557,-54 675,-54 675,-84"/>
<text text-anchor="start" x="565" y="-72" font-family="Helvetica,sans-Serif" font-size="10.00">aopp_deconv_tool.to</text>
<text text-anchor="middle" x="616" y="-61" font-family="Helvetica,sans-Serif" font-size="10.00">_fits.read_exif</text>
</a>
</g>
</g>
<!-- Node6&#45;&gt;Node7 -->
<g id="edge7_Node000006_Node000007" class="edge">
<title>Node6&#45;&gt;Node7</title>
<g id="a_edge7_Node000006_Node000007"><a xlink:title=" ">
<path fill="none" stroke="#63b8ff" d="M521.42,-69C529.69,-69 538.23,-69 546.62,-69"/>
<polygon fill="#63b8ff" stroke="#63b8ff" points="546.77,-72.5 556.77,-69 546.77,-65.5 546.77,-72.5"/>
</a>
</g>
</g>
</g>
</svg>

<g id="navigator" transform="translate(0 0)" fill="#404254">
  <rect fill="#f2f5e9" fill-opacity="0.5" stroke="#606060" stroke-width=".5" x="0" y="0" width="60" height="60"/>
  <use id="zoomplus" xlink:href="#zoomPlus" x="17" y="9" onmousedown="handleZoom(evt,'in')"/>
  <use id="zoomminus" xlink:href="#zoomMin" x="42" y="9" onmousedown="handleZoom(evt,'out')"/>
  <use id="reset" xlink:href="#resetDef" x="30" y="36" onmousedown="handleReset()"/>
   <use id="arrowup" xlink:href="#arrowUp" x="0" y="0" onmousedown="handlePan(0,-1)"/>
  <use id="arrowright" xlink:href="#arrowRight" x="0" y="0" onmousedown="handlePan(1,0)"/>
  <use id="arrowdown" xlink:href="#arrowDown" x="0" y="0" onmousedown="handlePan(0,1)"/>
  <use id="arrowleft" xlink:href="#arrowLeft" x="0" y="0" onmousedown="handlePan(-1,0)"/>
</g>
<svg viewBox="0 0 15 15" width="100%" height="30px" preserveAspectRatio="xMaxYMin meet">
 <g id="arrow_out" transform="scale(0.3 0.3)">
  <a xlink:href="namespaceaopp__deconv__tool_1_1to__fits_a46b9e841b4debbe3f33b61ab43e0d5d3_cgraph_org.svg" target="_base">
   <rect id="button" ry="5" rx="5" y="6" x="6" height="38" width="38"
        fill="#f2f5e9" fill-opacity="0.5" stroke="#606060" stroke-width="1.0"/>
   <path id="arrow"
     d="M 11.500037,31.436501 C 11.940474,20.09759 22.043105,11.32322 32.158766,21.979434 L 37.068811,17.246167 C 37.068811,17.246167 37.088388,32 37.088388,32 L 22.160133,31.978069 C 22.160133,31.978069 26.997745,27.140456 26.997745,27.140456 C 18.528582,18.264221 13.291696,25.230495 11.500037,31.436501 z"
     style="fill:#404040;"/>
  </a>
 </g>
</svg>

<style type='text/css'>
<![CDATA[
[data-mouse-over-selected='false'] { opacity: 0.7; }
[data-mouse-over-selected='true']  { opacity: 1.0; }
]]>
</style>
<script type="application/ecmascript"><![CDATA[
document.addEventListener('DOMContentLoaded', (event) => {
  highlightEdges();
  highlightAdjacentNodes();
});
]]></script>
</svg>
