<?xml version="1.0" encoding="UTF-8" standalone="no"?>
<!DOCTYPE svg PUBLIC "-//W3C//DTD SVG 1.1//EN"
 "http://www.w3.org/Graphics/SVG/1.1/DTD/svg11.dtd">
<!-- Generated by graphviz version 2.43.0 (0)
 -->
<!-- Title: aopp_deconv_tool.to_fits.get_supported_formats Pages: 1 -->
<svg width="588pt" height="50pt"
 viewBox="0.00 0.00 588.00 50.00" xmlns="http://www.w3.org/2000/svg" xmlns:xlink="http://www.w3.org/1999/xlink">
<g id="graph0" class="graph" transform="scale(1 1) rotate(0) translate(4 46)">
<title>aopp_deconv_tool.to_fits.get_supported_formats</title>
<!-- Node1 -->
<g id="node1" class="node">
<title>Node1</title>
<g id="a_node1"><a xlink:title=" ">
<polygon fill="#bfbfbf" stroke="black" points="462,-0.5 462,-41.5 580,-41.5 580,-0.5 462,-0.5"/>
<text text-anchor="start" x="470" y="-29.5" font-family="Helvetica,sans-Serif" font-size="10.00">aopp_deconv_tool.to</text>
<text text-anchor="start" x="470" y="-18.5" font-family="Helvetica,sans-Serif" font-size="10.00">_fits.get_supported</text>
<text text-anchor="middle" x="521" y="-7.5" font-family="Helvetica,sans-Serif" font-size="10.00">_formats</text>
</a>
</g>
</g>
<!-- Node2 -->
<g id="node2" class="node">
<title>Node2</title>
<g id="a_node2"><a xlink:href="../../d9/d77/namespaceaopp__deconv__tool_1_1to__fits.html#ad4c4603783a05469f1baa0c973f3fdf9" target="_top" xlink:title=" ">
<polygon fill="none" stroke="black" points="308,-6 308,-36 426,-36 426,-6 308,-6"/>
<text text-anchor="start" x="316" y="-24" font-family="Helvetica,sans-Serif" font-size="10.00">aopp_deconv_tool.to</text>
<text text-anchor="middle" x="367" y="-13" font-family="Helvetica,sans-Serif" font-size="10.00">_fits.parse_args</text>
</a>
</g>
</g>
<!-- Node1&#45;&gt;Node2 -->
<g id="edge1" class="edge">
<title>Node1&#45;&gt;Node2</title>
<path fill="none" stroke="midnightblue" d="M451.46,-21C443.01,-21 434.45,-21 426.18,-21"/>
<polygon fill="midnightblue" stroke="midnightblue" points="451.67,-24.5 461.67,-21 451.67,-17.5 451.67,-24.5"/>
</g>
<!-- Node3 -->
<g id="node3" class="node">
<title>Node3</title>
<g id="a_node3"><a xlink:href="../../d9/d77/namespaceaopp__deconv__tool_1_1to__fits.html#aa3e8c7d6cf6c33134f75ae9e720fe2bb" target="_top" xlink:title=" ">
<polygon fill="none" stroke="black" points="154,-6 154,-36 272,-36 272,-6 154,-6"/>
<text text-anchor="start" x="162" y="-24" font-family="Helvetica,sans-Serif" font-size="10.00">aopp_deconv_tool.to</text>
<text text-anchor="middle" x="213" y="-13" font-family="Helvetica,sans-Serif" font-size="10.00">_fits.exec_with_args</text>
</a>
</g>
</g>
<!-- Node2&#45;&gt;Node3 -->
<g id="edge2" class="edge">
<title>Node2&#45;&gt;Node3</title>
<path fill="none" stroke="midnightblue" d="M297.46,-21C289.01,-21 280.45,-21 272.18,-21"/>
<polygon fill="midnightblue" stroke="midnightblue" points="297.67,-24.5 307.67,-21 297.67,-17.5 297.67,-24.5"/>
</g>
<!-- Node4 -->
<g id="node4" class="node">
<title>Node4</title>
<g id="a_node4"><a xlink:href="../../d9/d77/namespaceaopp__deconv__tool_1_1to__fits.html#a87097fceba8f90adb787bc73b37ef743" target="_top" xlink:title=" ">
<polygon fill="none" stroke="black" points="0,-6 0,-36 118,-36 118,-6 0,-6"/>
<text text-anchor="start" x="8" y="-24" font-family="Helvetica,sans-Serif" font-size="10.00">aopp_deconv_tool.to</text>
<text text-anchor="middle" x="59" y="-13" font-family="Helvetica,sans-Serif" font-size="10.00">_fits.go</text>
</a>
</g>
</g>
<!-- Node3&#45;&gt;Node4 -->
<g id="edge3" class="edge">
<title>Node3&#45;&gt;Node4</title>
<path fill="none" stroke="midnightblue" d="M143.46,-21C135.01,-21 126.45,-21 118.18,-21"/>
<polygon fill="midnightblue" stroke="midnightblue" points="143.67,-24.5 153.67,-21 143.67,-17.5 143.67,-24.5"/>
</g>
</g>
</svg>
