<?xml version="1.0" encoding="UTF-8" standalone="no"?>
<!DOCTYPE svg PUBLIC "-//W3C//DTD SVG 1.1//EN"
 "http://www.w3.org/Graphics/SVG/1.1/DTD/svg11.dtd">
<!-- Generated by graphviz version 2.43.0 (0)
 -->
<!-- Title: aopp_deconv_tool.to_fits.exec_with_args Pages: 1 -->
<svg width="438pt" height="152pt"
 viewBox="0.00 0.00 438.00 151.50" xmlns="http://www.w3.org/2000/svg" xmlns:xlink="http://www.w3.org/1999/xlink">

<svg id="main" version="1.1" xmlns="http://www.w3.org/2000/svg" xmlns:xlink="http://www.w3.org/1999/xlink" xml:space="preserve" onload="init(evt)">
<style type="text/css"><![CDATA[
.node, .edge {opacity: 0.7;}
.node.selected, .edge.selected {opacity: 1;}
.edge:hover path { stroke: red; }
.edge:hover polygon { stroke: red; fill: red; }
]]></style>
<script type="application/ecmascript" xlink:href="../../svg.min.js"/>
<svg id="graph" class="graph">
<g id="graph0" class="graph" transform="scale(1 1) rotate(0) translate(4 147.5)">
<title>aopp_deconv_tool.to_fits.exec_with_args</title>
<!-- Node1 -->
<g id="Node000001" class="node">
<title>Node1</title>
<g id="a_Node000001"><a xlink:title=" ">
<polygon fill="#999999" stroke="#666666" points="118,-84 0,-84 0,-54 118,-54 118,-84"/>
<text text-anchor="start" x="8" y="-72" font-family="Helvetica,sans-Serif" font-size="10.00">aopp_deconv_tool.to</text>
<text text-anchor="middle" x="59" y="-61" font-family="Helvetica,sans-Serif" font-size="10.00">_fits.exec_with_args</text>
</a>
</g>
</g>
<!-- Node1&#45;&gt;Node1 -->
<g id="edge1_Node000001_Node000001" class="edge">
<title>Node1&#45;&gt;Node1</title>
<g id="a_edge1_Node000001_Node000001"><a xlink:title=" ">
<path fill="none" stroke="#63b8ff" d="M31.58,-84.28C25.48,-93.41 34.62,-102 59,-102 73.47,-102 82.57,-98.97 86.31,-94.6"/>
<polygon fill="#63b8ff" stroke="#63b8ff" points="89.81,-94.31 86.42,-84.28 82.81,-94.24 89.81,-94.31"/>
</a>
</g>
</g>
<!-- Node2 -->
<g id="Node000002" class="node">
<title>Node2</title>
<g id="a_Node000002"><a xlink:href="../../d9/d77/namespaceaopp__deconv__tool_1_1to__fits.html#a3d6ea059cbbafecaf0e960a74019c8d4" target="_top" xlink:title=" ">
<polygon fill="white" stroke="#666666" points="274,-138 156,-138 156,-108 274,-108 274,-138"/>
<text text-anchor="start" x="164" y="-126" font-family="Helvetica,sans-Serif" font-size="10.00">aopp_deconv_tool.to</text>
<text text-anchor="middle" x="215" y="-115" font-family="Helvetica,sans-Serif" font-size="10.00">_fits.parse_args</text>
</a>
</g>
</g>
<!-- Node1&#45;&gt;Node2 -->
<g id="edge2_Node000001_Node000002" class="edge">
<title>Node1&#45;&gt;Node2</title>
<g id="a_edge2_Node000001_Node000002"><a xlink:title=" ">
<path fill="none" stroke="#63b8ff" d="M102.9,-84.04C121.09,-90.42 142.47,-97.92 161.59,-104.62"/>
<polygon fill="#63b8ff" stroke="#63b8ff" points="160.47,-107.94 171.07,-107.95 162.79,-101.33 160.47,-107.94"/>
</a>
</g>
</g>
<!-- Node4 -->
<g id="Node000004" class="node">
<title>Node4</title>
<g id="a_Node000004"><a xlink:href="../../d9/d77/namespaceaopp__deconv__tool_1_1to__fits.html#ad659ee84e52aad3a61927e3f264a6506" target="_top" xlink:title=" ">
<polygon fill="white" stroke="#666666" points="276,-89.5 154,-89.5 154,-48.5 276,-48.5 276,-89.5"/>
<text text-anchor="start" x="162" y="-77.5" font-family="Helvetica,sans-Serif" font-size="10.00">aopp_deconv_tool.to</text>
<text text-anchor="start" x="162" y="-66.5" font-family="Helvetica,sans-Serif" font-size="10.00">_fits.read_image_into</text>
<text text-anchor="middle" x="215" y="-55.5" font-family="Helvetica,sans-Serif" font-size="10.00">_data_bundle</text>
</a>
</g>
</g>
<!-- Node1&#45;&gt;Node4 -->
<g id="edge4_Node000001_Node000004" class="edge">
<title>Node1&#45;&gt;Node4</title>
<g id="a_edge4_Node000001_Node000004"><a xlink:title=" ">
<path fill="none" stroke="#63b8ff" d="M118.22,-69C126.61,-69 135.31,-69 143.9,-69"/>
<polygon fill="#63b8ff" stroke="#63b8ff" points="143.9,-72.5 153.9,-69 143.9,-65.5 143.9,-72.5"/>
</a>
</g>
</g>
<!-- Node6 -->
<g id="Node000006" class="node">
<title>Node6</title>
<g id="a_Node000006"><a xlink:href="../../d9/d77/namespaceaopp__deconv__tool_1_1to__fits.html#a564ebdad3b554d975ef4554f93b70faf" target="_top" xlink:title=" ">
<polygon fill="white" stroke="#666666" points="274,-30 156,-30 156,0 274,0 274,-30"/>
<text text-anchor="start" x="164" y="-18" font-family="Helvetica,sans-Serif" font-size="10.00">aopp_deconv_tool.to</text>
<text text-anchor="middle" x="215" y="-7" font-family="Helvetica,sans-Serif" font-size="10.00">_fits.save_as_fits</text>
</a>
</g>
</g>
<!-- Node1&#45;&gt;Node6 -->
<g id="edge6_Node000001_Node000006" class="edge">
<title>Node1&#45;&gt;Node6</title>
<g id="a_edge6_Node000001_Node000006"><a xlink:title=" ">
<path fill="none" stroke="#63b8ff" d="M102.9,-53.96C121.09,-47.58 142.47,-40.08 161.59,-33.38"/>
<polygon fill="#63b8ff" stroke="#63b8ff" points="162.79,-36.67 171.07,-30.05 160.47,-30.06 162.79,-36.67"/>
</a>
</g>
</g>
<!-- Node3 -->
<g id="Node000003" class="node">
<title>Node3</title>
<g id="a_Node000003"><a xlink:href="../../d9/d77/namespaceaopp__deconv__tool_1_1to__fits.html#afa8a56923d801cf29e0a24560f44377b" target="_top" xlink:title=" ">
<polygon fill="white" stroke="#666666" points="430,-143.5 312,-143.5 312,-102.5 430,-102.5 430,-143.5"/>
<text text-anchor="start" x="320" y="-131.5" font-family="Helvetica,sans-Serif" font-size="10.00">aopp_deconv_tool.to</text>
<text text-anchor="start" x="320" y="-120.5" font-family="Helvetica,sans-Serif" font-size="10.00">_fits.get_supported</text>
<text text-anchor="middle" x="371" y="-109.5" font-family="Helvetica,sans-Serif" font-size="10.00">_formats</text>
</a>
</g>
</g>
<!-- Node2&#45;&gt;Node3 -->
<g id="edge3_Node000002_Node000003" class="edge">
<title>Node2&#45;&gt;Node3</title>
<g id="a_edge3_Node000002_Node000003"><a xlink:title=" ">
<path fill="none" stroke="#63b8ff" d="M274.22,-123C283.19,-123 292.53,-123 301.7,-123"/>
<polygon fill="#63b8ff" stroke="#63b8ff" points="301.95,-126.5 311.95,-123 301.95,-119.5 301.95,-126.5"/>
</a>
</g>
</g>
<!-- Node5 -->
<g id="Node000005" class="node">
<title>Node5</title>
<g id="a_Node000005"><a xlink:href="../../d9/d77/namespaceaopp__deconv__tool_1_1to__fits.html#a606b7793353ac04a7eb4cf12d274d251" target="_top" xlink:title=" ">
<polygon fill="white" stroke="#666666" points="430,-84 312,-84 312,-54 430,-54 430,-84"/>
<text text-anchor="start" x="320" y="-72" font-family="Helvetica,sans-Serif" font-size="10.00">aopp_deconv_tool.to</text>
<text text-anchor="middle" x="371" y="-61" font-family="Helvetica,sans-Serif" font-size="10.00">_fits.read_exif</text>
</a>
</g>
</g>
<!-- Node4&#45;&gt;Node5 -->
<g id="edge5_Node000004_Node000005" class="edge">
<title>Node4&#45;&gt;Node5</title>
<g id="a_edge5_Node000004_Node000005"><a xlink:title=" ">
<path fill="none" stroke="#63b8ff" d="M276.42,-69C284.69,-69 293.23,-69 301.62,-69"/>
<polygon fill="#63b8ff" stroke="#63b8ff" points="301.77,-72.5 311.77,-69 301.77,-65.5 301.77,-72.5"/>
</a>
</g>
</g>
</g>
</svg>
</svg>

<style type='text/css'>
<![CDATA[
[data-mouse-over-selected='false'] { opacity: 0.7; }
[data-mouse-over-selected='true']  { opacity: 1.0; }
]]>
</style>
<script type="application/ecmascript"><![CDATA[
document.addEventListener('DOMContentLoaded', (event) => {
  highlightEdges();
  highlightAdjacentNodes();
});
]]></script>
</svg>
