<?xml version="1.0" encoding="UTF-8" standalone="no"?>
<!DOCTYPE svg PUBLIC "-//W3C//DTD SVG 1.1//EN"
 "http://www.w3.org/Graphics/SVG/1.1/DTD/svg11.dtd">
<!-- Generated by graphviz version 2.43.0 (0)
 -->
<!-- Title: aopp_deconv_tool.to_fits.get_supported_formats Pages: 1 -->
<svg width="588pt" height="62pt"
 viewBox="0.00 0.00 588.00 61.50" xmlns="http://www.w3.org/2000/svg" xmlns:xlink="http://www.w3.org/1999/xlink">
<g id="graph0" class="graph" transform="scale(1 1) rotate(0) translate(4 57.5)">
<title>aopp_deconv_tool.to_fits.get_supported_formats</title>
<!-- Node1 -->
<g id="Node000001" class="node">
<title>Node1</title>
<g id="a_Node000001"><a xlink:title=" ">
<polygon fill="#999999" stroke="#666666" points="580,-41 462,-41 462,0 580,0 580,-41"/>
<text text-anchor="start" x="470" y="-29" font-family="Helvetica,sans-Serif" font-size="10.00">aopp_deconv_tool.to</text>
<text text-anchor="start" x="470" y="-18" font-family="Helvetica,sans-Serif" font-size="10.00">_fits.get_supported</text>
<text text-anchor="middle" x="521" y="-7" font-family="Helvetica,sans-Serif" font-size="10.00">_formats</text>
</a>
</g>
</g>
<!-- Node2 -->
<g id="Node000002" class="node">
<title>Node2</title>
<g id="a_Node000002"><a xlink:href="../../d9/d77/namespaceaopp__deconv__tool_1_1to__fits.html#a3d6ea059cbbafecaf0e960a74019c8d4" target="_top" xlink:title=" ">
<polygon fill="white" stroke="#666666" points="426,-35.5 308,-35.5 308,-5.5 426,-5.5 426,-35.5"/>
<text text-anchor="start" x="316" y="-23.5" font-family="Helvetica,sans-Serif" font-size="10.00">aopp_deconv_tool.to</text>
<text text-anchor="middle" x="367" y="-12.5" font-family="Helvetica,sans-Serif" font-size="10.00">_fits.parse_args</text>
</a>
</g>
</g>
<!-- Node1&#45;&gt;Node2 -->
<g id="edge1_Node000001_Node000002" class="edge">
<title>Node1&#45;&gt;Node2</title>
<g id="a_edge1_Node000001_Node000002"><a xlink:title=" ">
<path fill="none" stroke="#63b8ff" d="M451.46,-20.5C443.01,-20.5 434.45,-20.5 426.18,-20.5"/>
<polygon fill="#63b8ff" stroke="#63b8ff" points="451.67,-24 461.67,-20.5 451.67,-17 451.67,-24"/>
</a>
</g>
</g>
<!-- Node3 -->
<g id="Node000003" class="node">
<title>Node3</title>
<g id="a_Node000003"><a xlink:href="../../d9/d77/namespaceaopp__deconv__tool_1_1to__fits.html#a8b96332211de6e1520aa954995b627c8" target="_top" xlink:title=" ">
<polygon fill="white" stroke="#666666" points="272,-35.5 154,-35.5 154,-5.5 272,-5.5 272,-35.5"/>
<text text-anchor="start" x="162" y="-23.5" font-family="Helvetica,sans-Serif" font-size="10.00">aopp_deconv_tool.to</text>
<text text-anchor="middle" x="213" y="-12.5" font-family="Helvetica,sans-Serif" font-size="10.00">_fits.exec_with_args</text>
</a>
</g>
</g>
<!-- Node2&#45;&gt;Node3 -->
<g id="edge2_Node000002_Node000003" class="edge">
<title>Node2&#45;&gt;Node3</title>
<g id="a_edge2_Node000002_Node000003"><a xlink:title=" ">
<path fill="none" stroke="#63b8ff" d="M297.46,-20.5C289.01,-20.5 280.45,-20.5 272.18,-20.5"/>
<polygon fill="#63b8ff" stroke="#63b8ff" points="297.67,-24 307.67,-20.5 297.67,-17 297.67,-24"/>
</a>
</g>
</g>
<!-- Node3&#45;&gt;Node3 -->
<g id="edge3_Node000003_Node000003" class="edge">
<title>Node3&#45;&gt;Node3</title>
<g id="a_edge3_Node000003_Node000003"><a xlink:title=" ">
<path fill="none" stroke="#63b8ff" d="M239.96,-46.1C236.27,-50.47 227.29,-53.5 213,-53.5 188.94,-53.5 179.91,-44.91 185.93,-35.78"/>
<polygon fill="#63b8ff" stroke="#63b8ff" points="243.46,-45.81 240.07,-35.78 236.46,-45.74 243.46,-45.81"/>
</a>
</g>
</g>
<!-- Node4 -->
<g id="Node000004" class="node">
<title>Node4</title>
<g id="a_Node000004"><a xlink:href="../../d9/d77/namespaceaopp__deconv__tool_1_1to__fits.html#a46b9e841b4debbe3f33b61ab43e0d5d3" target="_top" xlink:title=" ">
<polygon fill="white" stroke="#666666" points="118,-35.5 0,-35.5 0,-5.5 118,-5.5 118,-35.5"/>
<text text-anchor="start" x="8" y="-23.5" font-family="Helvetica,sans-Serif" font-size="10.00">aopp_deconv_tool.to</text>
<text text-anchor="middle" x="59" y="-12.5" font-family="Helvetica,sans-Serif" font-size="10.00">_fits.go</text>
</a>
</g>
</g>
<!-- Node3&#45;&gt;Node4 -->
<g id="edge4_Node000003_Node000004" class="edge">
<title>Node3&#45;&gt;Node4</title>
<g id="a_edge4_Node000003_Node000004"><a xlink:title=" ">
<path fill="none" stroke="#63b8ff" d="M143.46,-20.5C135.01,-20.5 126.45,-20.5 118.18,-20.5"/>
<polygon fill="#63b8ff" stroke="#63b8ff" points="143.67,-24 153.67,-20.5 143.67,-17 143.67,-24"/>
</a>
</g>
</g>
</g>
</svg>
