<?xml version="1.0" encoding="UTF-8" standalone="no"?>
<!DOCTYPE svg PUBLIC "-//W3C//DTD SVG 1.1//EN"
 "http://www.w3.org/Graphics/SVG/1.1/DTD/svg11.dtd">
<!-- Generated by graphviz version 2.43.0 (0)
 -->
<!-- Title: aopp_deconv_tool.to_fits.read_exif Pages: 1 -->
<svg width="614pt" height="88pt"
 viewBox="0.00 0.00 614.00 88.00" xmlns="http://www.w3.org/2000/svg" xmlns:xlink="http://www.w3.org/1999/xlink">
<g id="graph0" class="graph" transform="scale(1 1) rotate(0) translate(4 84)">
<title>aopp_deconv_tool.to_fits.read_exif</title>
<!-- Node1 -->
<g id="node1" class="node">
<title>Node1</title>
<g id="a_node1"><a xlink:title=" ">
<polygon fill="#bfbfbf" stroke="black" points="488,-24.5 488,-54.5 606,-54.5 606,-24.5 488,-24.5"/>
<text text-anchor="start" x="496" y="-42.5" font-family="Helvetica,sans-Serif" font-size="10.00">aopp_deconv_tool.to</text>
<text text-anchor="middle" x="547" y="-31.5" font-family="Helvetica,sans-Serif" font-size="10.00">_fits.read_exif</text>
</a>
</g>
</g>
<!-- Node2 -->
<g id="node2" class="node">
<title>Node2</title>
<g id="a_node2"><a xlink:href="../../d9/d77/namespaceaopp__deconv__tool_1_1to__fits.html#ad659ee84e52aad3a61927e3f264a6506" target="_top" xlink:title=" ">
<polygon fill="none" stroke="black" points="330,-19 330,-60 452,-60 452,-19 330,-19"/>
<text text-anchor="start" x="338" y="-48" font-family="Helvetica,sans-Serif" font-size="10.00">aopp_deconv_tool.to</text>
<text text-anchor="start" x="338" y="-37" font-family="Helvetica,sans-Serif" font-size="10.00">_fits.read_image_into</text>
<text text-anchor="middle" x="391" y="-26" font-family="Helvetica,sans-Serif" font-size="10.00">_data_bundle</text>
</a>
</g>
</g>
<!-- Node1&#45;&gt;Node2 -->
<g id="edge1" class="edge">
<title>Node1&#45;&gt;Node2</title>
<path fill="none" stroke="midnightblue" d="M477.53,-39.5C469.06,-39.5 460.44,-39.5 452.1,-39.5"/>
<polygon fill="midnightblue" stroke="midnightblue" points="477.78,-43 487.78,-39.5 477.78,-36 477.78,-43"/>
</g>
<!-- Node3 -->
<g id="node3" class="node">
<title>Node3</title>
<g id="a_node3"><a xlink:href="../../d9/d77/namespaceaopp__deconv__tool_1_1to__fits.html#aa3e8c7d6cf6c33134f75ae9e720fe2bb" target="_top" xlink:title=" ">
<polygon fill="none" stroke="black" points="165,-49.5 165,-79.5 283,-79.5 283,-49.5 165,-49.5"/>
<text text-anchor="start" x="173" y="-67.5" font-family="Helvetica,sans-Serif" font-size="10.00">aopp_deconv_tool.to</text>
<text text-anchor="middle" x="224" y="-56.5" font-family="Helvetica,sans-Serif" font-size="10.00">_fits.exec_with_args</text>
</a>
</g>
</g>
<!-- Node2&#45;&gt;Node3 -->
<g id="edge2" class="edge">
<title>Node2&#45;&gt;Node3</title>
<path fill="none" stroke="midnightblue" d="M319.79,-50.14C307.55,-51.99 294.93,-53.9 283.06,-55.7"/>
<polygon fill="midnightblue" stroke="midnightblue" points="320.6,-53.55 329.96,-48.6 319.55,-46.63 320.6,-53.55"/>
</g>
<!-- Node5 -->
<g id="node5" class="node">
<title>Node5</title>
<g id="a_node5"><a xlink:href="../../d9/d77/namespaceaopp__deconv__tool_1_1to__fits.html#aa59ff5aafa0a1cf924e85b64cbc8fc33" target="_top" xlink:title=" ">
<polygon fill="none" stroke="black" points="154,-0.5 154,-30.5 294,-30.5 294,-0.5 154,-0.5"/>
<text text-anchor="start" x="162" y="-18.5" font-family="Helvetica,sans-Serif" font-size="10.00">aopp_deconv_tool.to</text>
<text text-anchor="middle" x="224" y="-7.5" font-family="Helvetica,sans-Serif" font-size="10.00">_fits.plot_image_and_fits</text>
</a>
</g>
</g>
<!-- Node2&#45;&gt;Node5 -->
<g id="edge4" class="edge">
<title>Node2&#45;&gt;Node5</title>
<path fill="none" stroke="midnightblue" d="M320.04,-29.32C311.49,-28.08 302.76,-26.81 294.23,-25.57"/>
<polygon fill="midnightblue" stroke="midnightblue" points="319.56,-32.79 329.96,-30.77 320.57,-25.86 319.56,-32.79"/>
</g>
<!-- Node4 -->
<g id="node4" class="node">
<title>Node4</title>
<g id="a_node4"><a xlink:href="../../d9/d77/namespaceaopp__deconv__tool_1_1to__fits.html#a3b8c4b8711a10fe9badf4cbe1af0a316" target="_top" xlink:title=" ">
<polygon fill="none" stroke="black" points="0,-49.5 0,-79.5 118,-79.5 118,-49.5 0,-49.5"/>
<text text-anchor="start" x="8" y="-67.5" font-family="Helvetica,sans-Serif" font-size="10.00">aopp_deconv_tool.to</text>
<text text-anchor="middle" x="59" y="-56.5" font-family="Helvetica,sans-Serif" font-size="10.00">_fits.go</text>
</a>
</g>
</g>
<!-- Node3&#45;&gt;Node4 -->
<g id="edge3" class="edge">
<title>Node3&#45;&gt;Node4</title>
<path fill="none" stroke="midnightblue" d="M154.58,-64.5C142.5,-64.5 130.02,-64.5 118.25,-64.5"/>
<polygon fill="midnightblue" stroke="midnightblue" points="154.61,-68 164.61,-64.5 154.61,-61 154.61,-68"/>
</g>
</g>
</svg>
