<?xml version="1.0" encoding="UTF-8" standalone="no"?>
<!DOCTYPE svg PUBLIC "-//W3C//DTD SVG 1.1//EN"
 "http://www.w3.org/Graphics/SVG/1.1/DTD/svg11.dtd">
<!-- Generated by graphviz version 2.43.0 (0)
 -->
<!-- Title: aopp_deconv_tool.plot_helper.plotters.Histogram Pages: 1 -->
<!--zoomable 203 -->

<svg id="main" version="1.1" xmlns="http://www.w3.org/2000/svg" xmlns:xlink="http://www.w3.org/1999/xlink" xml:space="preserve" onload="init(evt)">
<style type="text/css"><![CDATA[
.node, .edge {opacity: 0.7;}
.node.selected, .edge.selected {opacity: 1;}
.edge:hover path { stroke: red; }
.edge:hover polygon { stroke: red; fill: red; }
]]></style>

<defs>
  <circle id="rim" cx="0" cy="0" r="7"/>
  <circle id="rim2" cx="0" cy="0" r="3.5"/>
  <g id="zoomPlus">
    <use xlink:href="#rim" fill="#404040"><set attributeName="fill" to="#808080" begin="zoomplus.mouseover" end="zoomplus.mouseout"/></use>
    <path d="M-4,0h8M0,-4v8" fill="none" stroke="white" stroke-width="1.5" pointer-events="none"/>
  </g>
  <g id="zoomMin">
    <use xlink:href="#rim" fill="#404040"><set attributeName="fill" to="#808080" begin="zoomminus.mouseover" end="zoomminus.mouseout"/></use>
    <path d="M-4,0h8" fill="none" stroke="white" stroke-width="1.5" pointer-events="none"/>
  </g>
  <g id="arrowUp" transform="translate(30 24)">
    <use xlink:href="#rim"/>
    <path pointer-events="none" fill="none" stroke="white" stroke-width="1.5" d="M0,-3.0v7 M-2.5,-0.5L0,-3.0L2.5,-0.5"/>
  </g>
  <g id="arrowRight" transform="rotate(90) translate(36 -43)">
    <use xlink:href="#rim"/>
    <path pointer-events="none" fill="none" stroke="white" stroke-width="1.5" d="M0,-3.0v7 M-2.5,-0.5L0,-3.0L2.5,-0.5"/>
  </g>
  <g id="arrowDown" transform="rotate(180) translate(-30 -48)">
    <use xlink:href="#rim"/>
    <path pointer-events="none" fill="none" stroke="white" stroke-width="1.5" d="M0,-3.0v7 M-2.5,-0.5L0,-3.0L2.5,-0.5"/>
  </g>
  <g id="arrowLeft" transform="rotate(270) translate(-36 17)">
    <use xlink:href="#rim"/>
    <path pointer-events="none" fill="none" stroke="white" stroke-width="1.5" d="M0,-3.0v7 M-2.5,-0.5L0,-3.0L2.5,-0.5"/>
  </g>
  <g id="resetDef">
    <use xlink:href="#rim2" fill="#404040"><set attributeName="fill" to="#808080" begin="reset.mouseover" end="reset.mouseout"/></use>
  </g>
</defs>
<script type="application/ecmascript">
var viewWidth = 992;
var viewHeight = 203;
var sectionId = 'dynsection-1';
</script>
<script type="application/ecmascript" xlink:href="../../svg.min.js"/>
<svg id="graph" class="graph">
<g id="viewport">
<title>aopp_deconv_tool.plot_helper.plotters.Histogram</title>
<!-- Node1 -->
<g id="Node000001" class="node">
<title>Node1</title>
<g id="a_Node000001"><a xlink:title=" ">
<polygon fill="#999999" stroke="#666666" points="578.5,-30 432.5,-30 432.5,0 578.5,0 578.5,-30"/>
<text text-anchor="start" x="440.5" y="-18" font-family="Helvetica,sans-Serif" font-size="10.00">aopp_deconv_tool.plot</text>
<text text-anchor="middle" x="505.5" y="-7" font-family="Helvetica,sans-Serif" font-size="10.00">_helper.plotters.Histogram</text>
</a>
</g>
</g>
<!-- Node2 -->
<g id="Node000002" class="node">
<title>Node2</title>
<g id="a_Node000002"><a xlink:href="../../d4/d84/classaopp__deconv__tool_1_1plot__helper_1_1base_1_1Base.html" target="_top" xlink:title=" ">
<polygon fill="white" stroke="#666666" points="569,-118 442,-118 442,-88 569,-88 569,-118"/>
<text text-anchor="start" x="450" y="-106" font-family="Helvetica,sans-Serif" font-size="10.00">aopp_deconv_tool.plot</text>
<text text-anchor="middle" x="505.5" y="-95" font-family="Helvetica,sans-Serif" font-size="10.00">_helper.base.Base</text>
</a>
</g>
</g>
<!-- Node2&#45;&gt;Node1 -->
<g id="edge1_Node000001_Node000002" class="edge">
<title>Node2&#45;&gt;Node1</title>
<g id="a_edge1_Node000001_Node000002"><a xlink:title=" ">
<path fill="none" stroke="#63b8ff" d="M505.5,-77.49C505.5,-62.2 505.5,-43.05 505.5,-30.22"/>
<polygon fill="#63b8ff" stroke="#63b8ff" points="502,-77.8 505.5,-87.8 509,-77.8 502,-77.8"/>
</a>
</g>
</g>
<!-- Node3 -->
<g id="Node000003" class="node">
<title>Node3</title>
<g id="a_Node000003"><a xlink:title=" ">
<polygon fill="white" stroke="#666666" points="29,-195 0,-195 0,-176 29,-176 29,-195"/>
<text text-anchor="middle" x="14.5" y="-183" font-family="Helvetica,sans-Serif" font-size="10.00">str</text>
</a>
</g>
</g>
<!-- Node3&#45;&gt;Node1 -->
<g id="edge11_Node000001_Node000003" class="edge">
<title>Node3&#45;&gt;Node1</title>
<g id="a_edge11_Node000001_Node000003"><a xlink:title=" ">
<path fill="none" stroke="#9a32cd" stroke-dasharray="5,2" d="M21.49,-166.36C25.64,-156.81 31.47,-145.21 38.5,-136 57.98,-110.47 64.02,-102.83 92.5,-88 201.43,-31.26 346.21,-18.04 432.24,-15.62"/>
<polygon fill="#9a32cd" stroke="#9a32cd" points="18.21,-165.11 17.66,-175.7 24.69,-167.77 18.21,-165.11"/>
</a>
</g>
<text text-anchor="middle" x="138" y="-106" font-family="Helvetica,sans-Serif" font-size="10.00" fill="grey"> datasource_name</text>
<text text-anchor="middle" x="138" y="-95" font-family="Helvetica,sans-Serif" font-size="10.00" fill="grey">title</text>
</g>
<!-- Node3&#45;&gt;Node2 -->
<g id="edge2_Node000002_Node000003" class="edge">
<title>Node3&#45;&gt;Node2</title>
<g id="a_edge2_Node000002_Node000003"><a xlink:title=" ">
<path fill="none" stroke="#9a32cd" stroke-dasharray="5,2" d="M29.42,-168.61C41.06,-157.36 58.27,-143.05 76.5,-136 93.22,-129.53 326.17,-114.77 441.6,-107.79"/>
<polygon fill="#9a32cd" stroke="#9a32cd" points="26.86,-166.23 22.31,-175.79 31.83,-171.15 26.86,-166.23"/>
</a>
</g>
<text text-anchor="middle" x="122" y="-150" font-family="Helvetica,sans-Serif" font-size="10.00" fill="grey"> datasource_name</text>
<text text-anchor="middle" x="122" y="-139" font-family="Helvetica,sans-Serif" font-size="10.00" fill="grey">title</text>
</g>
<!-- Node4 -->
<g id="Node000004" class="node">
<title>Node4</title>
<g id="a_Node000004"><a xlink:title=" ">
<polygon fill="white" stroke="#666666" points="173,-195 132,-195 132,-176 173,-176 173,-195"/>
<text text-anchor="middle" x="152.5" y="-183" font-family="Helvetica,sans-Serif" font-size="10.00">tuple</text>
</a>
</g>
</g>
<!-- Node4&#45;&gt;Node1 -->
<g id="edge12_Node000001_Node000004" class="edge">
<title>Node4&#45;&gt;Node1</title>
<g id="a_edge12_Node000001_Node000004"><a xlink:title=" ">
<path fill="none" stroke="#9a32cd" stroke-dasharray="5,2" d="M154.27,-165.63C156.12,-155.69 159.87,-143.95 167.5,-136 237.88,-62.65 355.95,-34.05 432.26,-22.96"/>
<polygon fill="#9a32cd" stroke="#9a32cd" points="150.77,-165.41 152.89,-175.79 157.71,-166.36 150.77,-165.41"/>
</a>
</g>
<text text-anchor="middle" x="278.5" y="-100.5" font-family="Helvetica,sans-Serif" font-size="10.00" fill="grey"> axis_data_mappings</text>
</g>
<!-- Node4&#45;&gt;Node2 -->
<g id="edge3_Node000002_Node000004" class="edge">
<title>Node4&#45;&gt;Node2</title>
<g id="a_edge3_Node000002_Node000004"><a xlink:title=" ">
<path fill="none" stroke="#9a32cd" stroke-dasharray="5,2" d="M163.42,-167.48C171.44,-156.52 183.37,-143.06 197.5,-136 238.98,-115.28 364.41,-107.96 441.81,-105.38"/>
<polygon fill="#9a32cd" stroke="#9a32cd" points="160.41,-165.67 157.64,-175.9 166.18,-169.63 160.41,-165.67"/>
</a>
</g>
<text text-anchor="middle" x="249.5" y="-150" font-family="Helvetica,sans-Serif" font-size="10.00" fill="grey"> axis_data_mappings</text>
<text text-anchor="middle" x="249.5" y="-139" font-family="Helvetica,sans-Serif" font-size="10.00" fill="grey">axis_labels</text>
</g>
<!-- Node5 -->
<g id="Node000005" class="node">
<title>Node5</title>
<g id="a_Node000005"><a xlink:title=" ">
<polygon fill="white" stroke="#666666" points="315.5,-195 277.5,-195 277.5,-176 315.5,-176 315.5,-195"/>
<text text-anchor="middle" x="296.5" y="-183" font-family="Helvetica,sans-Serif" font-size="10.00">bool</text>
</a>
</g>
</g>
<!-- Node5&#45;&gt;Node2 -->
<g id="edge4_Node000002_Node000005" class="edge">
<title>Node5&#45;&gt;Node2</title>
<g id="a_edge4_Node000002_Node000005"><a xlink:title=" ">
<path fill="none" stroke="#9a32cd" stroke-dasharray="5,2" d="M301.57,-165.91C305.37,-155.52 311.64,-143.24 321.5,-136 340.38,-122.13 396.57,-113.72 441.94,-109.03"/>
<polygon fill="#9a32cd" stroke="#9a32cd" points="298.13,-165.17 298.46,-175.76 304.81,-167.28 298.13,-165.17"/>
</a>
</g>
<text text-anchor="middle" x="354" y="-144.5" font-family="Helvetica,sans-Serif" font-size="10.00" fill="grey"> static_frame</text>
</g>
<!-- Node6 -->
<g id="Node000006" class="node">
<title>Node6</title>
<g id="a_Node000006"><a xlink:title=" ">
<polygon fill="white" stroke="#666666" points="402,-195 367,-195 367,-176 402,-176 402,-195"/>
<text text-anchor="middle" x="384.5" y="-183" font-family="Helvetica,sans-Serif" font-size="10.00">dict</text>
</a>
</g>
</g>
<!-- Node6&#45;&gt;Node2 -->
<g id="edge5_Node000002_Node000006" class="edge">
<title>Node6&#45;&gt;Node2</title>
<g id="a_edge5_Node000002_Node000006"><a xlink:title=" ">
<path fill="none" stroke="#9a32cd" stroke-dasharray="5,2" d="M387.76,-165.77C390.41,-155.7 395.15,-143.79 403.5,-136 414.15,-126.06 427.86,-119.21 441.75,-114.48"/>
<polygon fill="#9a32cd" stroke="#9a32cd" points="384.31,-165.18 385.62,-175.69 391.15,-166.65 384.31,-165.18"/>
</a>
</g>
<text text-anchor="middle" x="452.5" y="-150" font-family="Helvetica,sans-Serif" font-size="10.00" fill="grey"> plt_kwargs</text>
<text text-anchor="middle" x="452.5" y="-139" font-family="Helvetica,sans-Serif" font-size="10.00" fill="grey">show_limits_in_title</text>
</g>
<!-- Node7 -->
<g id="Node000007" class="node">
<title>Node7</title>
<g id="a_Node000007"><a xlink:title=" ">
<polygon fill="white" stroke="#666666" points="521.5,-195 489.5,-195 489.5,-176 521.5,-176 521.5,-195"/>
<text text-anchor="middle" x="505.5" y="-183" font-family="Helvetica,sans-Serif" font-size="10.00">list</text>
</a>
</g>
</g>
<!-- Node7&#45;&gt;Node2 -->
<g id="edge6_Node000002_Node000007" class="edge">
<title>Node7&#45;&gt;Node2</title>
<g id="a_edge6_Node000002_Node000007"><a xlink:title=" ">
<path fill="none" stroke="#9a32cd" stroke-dasharray="5,2" d="M505.5,-165.6C505.5,-151.1 505.5,-131.4 505.5,-118.22"/>
<polygon fill="#9a32cd" stroke="#9a32cd" points="502,-165.89 505.5,-175.89 509,-165.89 502,-165.89"/>
</a>
</g>
<text text-anchor="middle" x="529" y="-144.5" font-family="Helvetica,sans-Serif" font-size="10.00" fill="grey"> ax_funcs</text>
</g>
<!-- Node8 -->
<g id="Node000008" class="node">
<title>Node8</title>
<g id="a_Node000008"><a xlink:title=" ">
<polygon fill="white" stroke="#666666" points="586,-195 551,-195 551,-176 586,-176 586,-195"/>
<text text-anchor="middle" x="568.5" y="-183" font-family="Helvetica,sans-Serif" font-size="10.00">mpl</text>
</a>
</g>
</g>
<!-- Node8&#45;&gt;Node2 -->
<g id="edge7_Node000002_Node000008" class="edge">
<title>Node8&#45;&gt;Node2</title>
<g id="a_edge7_Node000002_Node000008"><a xlink:title=" ">
<path fill="none" stroke="#9a32cd" stroke-dasharray="5,2" d="M565.77,-165.67C563.65,-156.07 559.94,-144.63 553.5,-136 548.23,-128.94 540.91,-122.95 533.57,-118.13"/>
<polygon fill="#9a32cd" stroke="#9a32cd" points="562.38,-166.6 567.59,-175.82 569.27,-165.36 562.38,-166.6"/>
</a>
</g>
<text text-anchor="middle" x="572.5" y="-144.5" font-family="Helvetica,sans-Serif" font-size="10.00" fill="grey"> ax</text>
</g>
<!-- Node9 -->
<g id="Node000009" class="node">
<title>Node9</title>
<g id="a_Node000009"><a xlink:title=" ">
<polygon fill="white" stroke="#666666" points="639,-195 604,-195 604,-176 639,-176 639,-195"/>
<text text-anchor="middle" x="621.5" y="-183" font-family="Helvetica,sans-Serif" font-size="10.00">Any</text>
</a>
</g>
</g>
<!-- Node9&#45;&gt;Node2 -->
<g id="edge8_Node000002_Node000009" class="edge">
<title>Node9&#45;&gt;Node2</title>
<g id="a_edge8_Node000002_Node000009"><a xlink:title=" ">
<path fill="none" stroke="#9a32cd" stroke-dasharray="5,2" d="M611.64,-167.28C605.06,-157.05 595.59,-144.46 584.5,-136 574.85,-128.64 563.28,-122.71 552.01,-118.05"/>
<polygon fill="#9a32cd" stroke="#9a32cd" points="608.65,-169.11 616.84,-175.83 614.63,-165.47 608.65,-169.11"/>
</a>
</g>
<text text-anchor="middle" x="634.5" y="-150" font-family="Helvetica,sans-Serif" font-size="10.00" fill="grey"> datasource</text>
<text text-anchor="middle" x="634.5" y="-139" font-family="Helvetica,sans-Serif" font-size="10.00" fill="grey">hdl</text>
</g>
<!-- Node10 -->
<g id="Node000010" class="node">
<title>Node10</title>
<g id="a_Node000010"><a xlink:title=" ">
<polygon fill="white" stroke="#666666" points="723.5,-195 667.5,-195 667.5,-176 723.5,-176 723.5,-195"/>
<text text-anchor="middle" x="695.5" y="-183" font-family="Helvetica,sans-Serif" font-size="10.00">Callable</text>
</a>
</g>
</g>
<!-- Node10&#45;&gt;Node2 -->
<g id="edge9_Node000002_Node000010" class="edge">
<title>Node10&#45;&gt;Node2</title>
<g id="a_edge9_Node000002_Node000010"><a xlink:title=" ">
<path fill="none" stroke="#9a32cd" stroke-dasharray="5,2" d="M689.35,-166.28C684.89,-155.84 677.82,-143.38 667.5,-136 651.76,-124.74 607.57,-116.46 569.32,-111.14"/>
<polygon fill="#9a32cd" stroke="#9a32cd" points="686.14,-167.68 692.96,-175.79 692.68,-165.2 686.14,-167.68"/>
</a>
</g>
<text text-anchor="middle" x="745" y="-144.5" font-family="Helvetica,sans-Serif" font-size="10.00" fill="grey"> datasource_data_getter</text>
</g>
<!-- Node11 -->
<g id="Node000011" class="node">
<title>Node11</title>
<g id="a_Node000011"><a xlink:title=" ">
<polygon fill="white" stroke="#666666" points="886,-195 857,-195 857,-176 886,-176 886,-195"/>
<text text-anchor="middle" x="871.5" y="-183" font-family="Helvetica,sans-Serif" font-size="10.00">int</text>
</a>
</g>
</g>
<!-- Node11&#45;&gt;Node1 -->
<g id="edge13_Node000001_Node000011" class="edge">
<title>Node11&#45;&gt;Node1</title>
<g id="a_edge13_Node000001_Node000011"><a xlink:title=" ">
<path fill="none" stroke="#9a32cd" stroke-dasharray="5,2" d="M886.91,-167.78C894.06,-157.95 899.57,-145.6 892.5,-136 855.1,-85.25 680.34,-46.73 578.91,-28.2"/>
<polygon fill="#9a32cd" stroke="#9a32cd" points="884.1,-165.69 880.48,-175.65 889.52,-170.12 884.1,-165.69"/>
</a>
</g>
<text text-anchor="middle" x="886.5" y="-100.5" font-family="Helvetica,sans-Serif" font-size="10.00" fill="grey"> nbins</text>
</g>
<!-- Node11&#45;&gt;Node2 -->
<g id="edge10_Node000002_Node000011" class="edge">
<title>Node11&#45;&gt;Node2</title>
<g id="a_edge10_Node000002_Node000011"><a xlink:title=" ">
<path fill="none" stroke="#9a32cd" stroke-dasharray="5,2" d="M852.6,-169.55C834.98,-155.68 811.06,-137.02 808.5,-136 766.45,-119.17 645.07,-110.54 569.31,-106.67"/>
<polygon fill="#9a32cd" stroke="#9a32cd" points="850.59,-172.43 860.61,-175.87 854.93,-166.93 850.59,-172.43"/>
</a>
</g>
<text text-anchor="middle" x="863.5" y="-144.5" font-family="Helvetica,sans-Serif" font-size="10.00" fill="grey"> n_updates</text>
</g>
<!-- Node12 -->
<g id="Node000012" class="node">
<title>Node12</title>
<g id="a_Node000012"><a xlink:title=" ">
<polygon fill="white" stroke="#666666" points="984,-112.5 955,-112.5 955,-93.5 984,-93.5 984,-112.5"/>
<text text-anchor="middle" x="969.5" y="-100.5" font-family="Helvetica,sans-Serif" font-size="10.00">np</text>
</a>
</g>
</g>
<!-- Node12&#45;&gt;Node1 -->
<g id="edge14_Node000001_Node000012" class="edge">
<title>Node12&#45;&gt;Node1</title>
<g id="a_edge14_Node000001_Node000012"><a xlink:title=" ">
<path fill="none" stroke="#9a32cd" stroke-dasharray="5,2" d="M958.87,-84.49C950.22,-71.98 936.81,-55.99 920.5,-48 862.26,-19.47 681.66,-15.22 578.92,-15.22"/>
<polygon fill="#9a32cd" stroke="#9a32cd" points="956.14,-86.72 964.52,-93.2 962.01,-82.9 956.14,-86.72"/>
</a>
</g>
<text text-anchor="middle" x="961" y="-62" font-family="Helvetica,sans-Serif" font-size="10.00" fill="grey"> _bins</text>
<text text-anchor="middle" x="961" y="-51" font-family="Helvetica,sans-Serif" font-size="10.00" fill="grey">_hist</text>
</g>
</g>
</svg>

<g id="navigator" transform="translate(0 0)" fill="#404254">
  <rect fill="#f2f5e9" fill-opacity="0.5" stroke="#606060" stroke-width=".5" x="0" y="0" width="60" height="60"/>
  <use id="zoomplus" xlink:href="#zoomPlus" x="17" y="9" onmousedown="handleZoom(evt,'in')"/>
  <use id="zoomminus" xlink:href="#zoomMin" x="42" y="9" onmousedown="handleZoom(evt,'out')"/>
  <use id="reset" xlink:href="#resetDef" x="30" y="36" onmousedown="handleReset()"/>
   <use id="arrowup" xlink:href="#arrowUp" x="0" y="0" onmousedown="handlePan(0,-1)"/>
  <use id="arrowright" xlink:href="#arrowRight" x="0" y="0" onmousedown="handlePan(1,0)"/>
  <use id="arrowdown" xlink:href="#arrowDown" x="0" y="0" onmousedown="handlePan(0,1)"/>
  <use id="arrowleft" xlink:href="#arrowLeft" x="0" y="0" onmousedown="handlePan(-1,0)"/>
</g>
<svg viewBox="0 0 15 15" width="100%" height="30px" preserveAspectRatio="xMaxYMin meet">
 <g id="arrow_out" transform="scale(0.3 0.3)">
  <a xlink:href="classaopp__deconv__tool_1_1plot__helper_1_1plotters_1_1Histogram__coll__graph_org.svg" target="_base">
   <rect id="button" ry="5" rx="5" y="6" x="6" height="38" width="38"
        fill="#f2f5e9" fill-opacity="0.5" stroke="#606060" stroke-width="1.0"/>
   <path id="arrow"
     d="M 11.500037,31.436501 C 11.940474,20.09759 22.043105,11.32322 32.158766,21.979434 L 37.068811,17.246167 C 37.068811,17.246167 37.088388,32 37.088388,32 L 22.160133,31.978069 C 22.160133,31.978069 26.997745,27.140456 26.997745,27.140456 C 18.528582,18.264221 13.291696,25.230495 11.500037,31.436501 z"
     style="fill:#404040;"/>
  </a>
 </g>
</svg>

<style type='text/css'>
<![CDATA[
[data-mouse-over-selected='false'] { opacity: 0.7; }
[data-mouse-over-selected='true']  { opacity: 1.0; }
]]>
</style>
<script type="application/ecmascript"><![CDATA[
document.addEventListener('DOMContentLoaded', (event) => {
  highlightEdges();
  highlightAdjacentNodes();
});
]]></script>
</svg>
