<?xml version="1.0" encoding="UTF-8" standalone="no"?>
<!DOCTYPE svg PUBLIC "-//W3C//DTD SVG 1.1//EN"
 "http://www.w3.org/Graphics/SVG/1.1/DTD/svg11.dtd">
<!-- Generated by graphviz version 2.43.0 (0)
 -->
<!-- Title: aopp_deconv_tool.plot_helper.plotters.Histogram.bins Pages: 1 -->
<svg width="384pt" height="56pt"
 viewBox="0.00 0.00 384.00 56.00" xmlns="http://www.w3.org/2000/svg" xmlns:xlink="http://www.w3.org/1999/xlink">
<g id="graph0" class="graph" transform="scale(1 1) rotate(0) translate(4 52)">
<title>aopp_deconv_tool.plot_helper.plotters.Histogram.bins</title>
<!-- Node1 -->
<g id="Node000001" class="node">
<title>Node1</title>
<g id="a_Node000001"><a xlink:title=" ">
<polygon fill="#999999" stroke="#666666" points="170,-30 0,-30 0,0 170,0 170,-30"/>
<text text-anchor="start" x="8" y="-18" font-family="Helvetica,sans-Serif" font-size="10.00">aopp_deconv_tool.plot</text>
<text text-anchor="middle" x="85" y="-7" font-family="Helvetica,sans-Serif" font-size="10.00">_helper.plotters.Histogram.bins</text>
</a>
</g>
</g>
<!-- Node1&#45;&gt;Node1 -->
<g id="edge2_Node000001_Node000001" class="edge">
<title>Node1&#45;&gt;Node1</title>
<g id="a_edge2_Node000001_Node000001"><a xlink:title=" ">
<path fill="none" stroke="#63b8ff" d="M48.79,-30.28C40.74,-39.41 52.81,-48 85,-48 104.11,-48 116.13,-44.97 121.06,-40.6"/>
<polygon fill="#63b8ff" stroke="#63b8ff" points="124.56,-40.33 121.21,-30.28 117.56,-40.22 124.56,-40.33"/>
</a>
</g>
</g>
<!-- Node2 -->
<g id="Node000002" class="node">
<title>Node2</title>
<g id="a_Node000002"><a xlink:href="../../d3/ddd/classaopp__deconv__tool_1_1plot__helper_1_1plotters_1_1Histogram.html#a3db0cd9c491d7478142b31f6a1fb63e7" target="_top" xlink:title=" ">
<polygon fill="white" stroke="#666666" points="376,-30 206,-30 206,0 376,0 376,-30"/>
<text text-anchor="start" x="214" y="-18" font-family="Helvetica,sans-Serif" font-size="10.00">aopp_deconv_tool.plot</text>
<text text-anchor="middle" x="291" y="-7" font-family="Helvetica,sans-Serif" font-size="10.00">_helper.plotters.Histogram.bins</text>
</a>
</g>
</g>
<!-- Node1&#45;&gt;Node2 -->
<g id="edge1_Node000001_Node000002" class="edge">
<title>Node1&#45;&gt;Node2</title>
<g id="a_edge1_Node000001_Node000002"><a xlink:title=" ">
<path fill="none" stroke="#63b8ff" d="M170.15,-15C178.5,-15 187.02,-15 195.46,-15"/>
<polygon fill="#63b8ff" stroke="#63b8ff" points="195.71,-18.5 205.71,-15 195.71,-11.5 195.71,-18.5"/>
</a>
</g>
</g>
</g>
</svg>
