<?xml version="1.0" encoding="UTF-8" standalone="no"?>
<!DOCTYPE svg PUBLIC "-//W3C//DTD SVG 1.1//EN"
 "http://www.w3.org/Graphics/SVG/1.1/DTD/svg11.dtd">
<!-- Generated by graphviz version 2.43.0 (0)
 -->
<!-- Title: aopp_deconv_tool.graphical_frontends.ssa_filtering.CallbackMixin.call_callbacks Pages: 1 -->
<svg width="457pt" height="160pt"
 viewBox="0.00 0.00 457.00 160.00" xmlns="http://www.w3.org/2000/svg" xmlns:xlink="http://www.w3.org/1999/xlink">
<g id="graph0" class="graph" transform="scale(1 1) rotate(0) translate(4 156)">
<title>aopp_deconv_tool.graphical_frontends.ssa_filtering.CallbackMixin.call_callbacks</title>
<!-- Node1 -->
<g id="node1" class="node">
<title>Node1</title>
<g id="a_node1"><a xlink:title=" ">
<polygon fill="#bfbfbf" stroke="black" points="273,-55.5 273,-96.5 449,-96.5 449,-55.5 273,-55.5"/>
<text text-anchor="start" x="281" y="-84.5" font-family="Helvetica,sans-Serif" font-size="10.00">aopp_deconv_tool.graphical</text>
<text text-anchor="start" x="281" y="-73.5" font-family="Helvetica,sans-Serif" font-size="10.00">_frontends.ssa_filtering.Callback</text>
<text text-anchor="middle" x="361" y="-62.5" font-family="Helvetica,sans-Serif" font-size="10.00">Mixin.call_callbacks</text>
</a>
</g>
</g>
<!-- Node2 -->
<g id="node2" class="node">
<title>Node2</title>
<g id="a_node2"><a xlink:href="../../df/dfb/classaopp__deconv__tool_1_1graphical__frontends_1_1ssa__filtering_1_1LineRegionPanel.html#a3d08829f40709844fd76236d30086b3a" target="_top" xlink:title=" ">
<polygon fill="none" stroke="black" points="24.5,-110.5 24.5,-151.5 212.5,-151.5 212.5,-110.5 24.5,-110.5"/>
<text text-anchor="start" x="32.5" y="-139.5" font-family="Helvetica,sans-Serif" font-size="10.00">aopp_deconv_tool.graphical</text>
<text text-anchor="start" x="32.5" y="-128.5" font-family="Helvetica,sans-Serif" font-size="10.00">_frontends.ssa_filtering.LineRegion</text>
<text text-anchor="middle" x="118.5" y="-117.5" font-family="Helvetica,sans-Serif" font-size="10.00">Panel.region_changed</text>
</a>
</g>
</g>
<!-- Node1&#45;&gt;Node2 -->
<g id="edge1" class="edge">
<title>Node1&#45;&gt;Node2</title>
<path fill="none" stroke="midnightblue" d="M263.04,-98.17C245.25,-102.24 226.76,-106.47 209.2,-110.49"/>
<polygon fill="midnightblue" stroke="midnightblue" points="263.87,-101.58 272.83,-95.93 262.31,-94.75 263.87,-101.58"/>
</g>
<!-- Node3 -->
<g id="node3" class="node">
<title>Node3</title>
<g id="a_node3"><a xlink:href="../../db/dd6/classaopp__deconv__tool_1_1graphical__frontends_1_1ssa__filtering_1_1ImagePlot.html#a55fdd2c9f49a15cb0fe39ef9e3060f19" target="_top" xlink:title=" ">
<polygon fill="none" stroke="black" points="4.5,-61 4.5,-91 232.5,-91 232.5,-61 4.5,-61"/>
<text text-anchor="start" x="12.5" y="-79" font-family="Helvetica,sans-Serif" font-size="10.00">aopp_deconv_tool.graphical</text>
<text text-anchor="middle" x="118.5" y="-68" font-family="Helvetica,sans-Serif" font-size="10.00">_frontends.ssa_filtering.ImagePlot.set_clim</text>
</a>
</g>
</g>
<!-- Node1&#45;&gt;Node3 -->
<g id="edge2" class="edge">
<title>Node1&#45;&gt;Node3</title>
<path fill="none" stroke="midnightblue" d="M262.65,-76C252.79,-76 242.72,-76 232.71,-76"/>
<polygon fill="midnightblue" stroke="midnightblue" points="262.83,-79.5 272.83,-76 262.83,-72.5 262.83,-79.5"/>
</g>
<!-- Node4 -->
<g id="node4" class="node">
<title>Node4</title>
<g id="a_node4"><a xlink:href="../../d8/dd5/classaopp__deconv__tool_1_1graphical__frontends_1_1ssa__filtering_1_1ImageAggregator.html#aeaf8eb80579b07b078419468ab172311" target="_top" xlink:title=" ">
<polygon fill="none" stroke="black" points="0,-0.5 0,-41.5 237,-41.5 237,-0.5 0,-0.5"/>
<text text-anchor="start" x="8" y="-29.5" font-family="Helvetica,sans-Serif" font-size="10.00">aopp_deconv_tool.graphical</text>
<text text-anchor="start" x="8" y="-18.5" font-family="Helvetica,sans-Serif" font-size="10.00">_frontends.ssa_filtering.ImageAggregator.set</text>
<text text-anchor="middle" x="118.5" y="-7.5" font-family="Helvetica,sans-Serif" font-size="10.00">_image_agg_planes</text>
</a>
</g>
</g>
<!-- Node1&#45;&gt;Node4 -->
<g id="edge3" class="edge">
<title>Node1&#45;&gt;Node4</title>
<path fill="none" stroke="midnightblue" d="M263.04,-53.83C245.25,-49.76 226.76,-45.53 209.2,-41.51"/>
<polygon fill="midnightblue" stroke="midnightblue" points="262.31,-57.25 272.83,-56.07 263.87,-50.42 262.31,-57.25"/>
</g>
</g>
</svg>
