<?xml version="1.0" encoding="UTF-8" standalone="no"?>
<!DOCTYPE svg PUBLIC "-//W3C//DTD SVG 1.1//EN"
 "http://www.w3.org/Graphics/SVG/1.1/DTD/svg11.dtd">
<!-- Generated by graphviz version 2.43.0 (0)
 -->
<!-- Title: aopp_deconv_tool.graphical_frontends.ssa_filtering.CallbackMixin.call_callbacks Pages: 1 -->
<svg width="456pt" height="157pt"
 viewBox="0.00 0.00 456.00 157.00" xmlns="http://www.w3.org/2000/svg" xmlns:xlink="http://www.w3.org/1999/xlink">
<g id="graph0" class="graph" transform="scale(1 1) rotate(0) translate(4 153)">
<title>aopp_deconv_tool.graphical_frontends.ssa_filtering.CallbackMixin.call_callbacks</title>
<!-- Node1 -->
<g id="Node000001" class="node">
<title>Node1</title>
<g id="a_Node000001"><a xlink:title=" ">
<polygon fill="#999999" stroke="#666666" points="448,-95 272,-95 272,-54 448,-54 448,-95"/>
<text text-anchor="start" x="280" y="-83" font-family="Helvetica,sans-Serif" font-size="10.00">aopp_deconv_tool.graphical</text>
<text text-anchor="start" x="280" y="-72" font-family="Helvetica,sans-Serif" font-size="10.00">_frontends.ssa_filtering.Callback</text>
<text text-anchor="middle" x="360" y="-61" font-family="Helvetica,sans-Serif" font-size="10.00">Mixin.call_callbacks</text>
</a>
</g>
</g>
<!-- Node2 -->
<g id="Node000002" class="node">
<title>Node2</title>
<g id="a_Node000002"><a xlink:href="../../df/dfb/classaopp__deconv__tool_1_1graphical__frontends_1_1ssa__filtering_1_1LineRegionPanel.html#a3d08829f40709844fd76236d30086b3a" target="_top" xlink:title=" ">
<polygon fill="white" stroke="#666666" points="212,-149 24,-149 24,-108 212,-108 212,-149"/>
<text text-anchor="start" x="32" y="-137" font-family="Helvetica,sans-Serif" font-size="10.00">aopp_deconv_tool.graphical</text>
<text text-anchor="start" x="32" y="-126" font-family="Helvetica,sans-Serif" font-size="10.00">_frontends.ssa_filtering.LineRegion</text>
<text text-anchor="middle" x="118" y="-115" font-family="Helvetica,sans-Serif" font-size="10.00">Panel.region_changed</text>
</a>
</g>
</g>
<!-- Node1&#45;&gt;Node2 -->
<g id="edge1_Node000001_Node000002" class="edge">
<title>Node1&#45;&gt;Node2</title>
<g id="a_edge1_Node000001_Node000002"><a xlink:title=" ">
<path fill="none" stroke="#63b8ff" d="M261.75,-96.38C244.75,-100.21 227.13,-104.17 210.3,-107.96"/>
<polygon fill="#63b8ff" stroke="#63b8ff" points="262.69,-99.76 271.68,-94.15 261.15,-92.93 262.69,-99.76"/>
</a>
</g>
</g>
<!-- Node3 -->
<g id="Node000003" class="node">
<title>Node3</title>
<g id="a_Node000003"><a xlink:href="../../db/dd6/classaopp__deconv__tool_1_1graphical__frontends_1_1ssa__filtering_1_1ImagePlot.html#a6efe3b1f036f6eead386ba59d3a15078" target="_top" xlink:title=" ">
<polygon fill="white" stroke="#666666" points="231.5,-89.5 4.5,-89.5 4.5,-59.5 231.5,-59.5 231.5,-89.5"/>
<text text-anchor="start" x="12.5" y="-77.5" font-family="Helvetica,sans-Serif" font-size="10.00">aopp_deconv_tool.graphical</text>
<text text-anchor="middle" x="118" y="-66.5" font-family="Helvetica,sans-Serif" font-size="10.00">_frontends.ssa_filtering.ImagePlot.set_clim</text>
</a>
</g>
</g>
<!-- Node1&#45;&gt;Node3 -->
<g id="edge2_Node000001_Node000003" class="edge">
<title>Node1&#45;&gt;Node3</title>
<g id="a_edge2_Node000001_Node000003"><a xlink:title=" ">
<path fill="none" stroke="#63b8ff" d="M261.52,-74.5C251.69,-74.5 241.66,-74.5 231.69,-74.5"/>
<polygon fill="#63b8ff" stroke="#63b8ff" points="261.68,-78 271.68,-74.5 261.68,-71 261.68,-78"/>
</a>
</g>
</g>
<!-- Node4 -->
<g id="Node000004" class="node">
<title>Node4</title>
<g id="a_Node000004"><a xlink:href="../../d8/dd5/classaopp__deconv__tool_1_1graphical__frontends_1_1ssa__filtering_1_1ImageAggregator.html#ae11d233967e34917edcecaaa164d5354" target="_top" xlink:title=" ">
<polygon fill="white" stroke="#666666" points="236,-41 0,-41 0,0 236,0 236,-41"/>
<text text-anchor="start" x="8" y="-29" font-family="Helvetica,sans-Serif" font-size="10.00">aopp_deconv_tool.graphical</text>
<text text-anchor="start" x="8" y="-18" font-family="Helvetica,sans-Serif" font-size="10.00">_frontends.ssa_filtering.ImageAggregator.set</text>
<text text-anchor="middle" x="118" y="-7" font-family="Helvetica,sans-Serif" font-size="10.00">_image_agg_planes</text>
</a>
</g>
</g>
<!-- Node1&#45;&gt;Node4 -->
<g id="edge3_Node000001_Node000004" class="edge">
<title>Node1&#45;&gt;Node4</title>
<g id="a_edge3_Node000001_Node000004"><a xlink:title=" ">
<path fill="none" stroke="#63b8ff" d="M261.75,-52.62C244.75,-48.79 227.13,-44.83 210.3,-41.04"/>
<polygon fill="#63b8ff" stroke="#63b8ff" points="261.15,-56.07 271.68,-54.85 262.69,-49.24 261.15,-56.07"/>
</a>
</g>
</g>
</g>
</svg>
