<?xml version="1.0" encoding="UTF-8" standalone="no"?>
<!DOCTYPE svg PUBLIC "-//W3C//DTD SVG 1.1//EN"
 "http://www.w3.org/Graphics/SVG/1.1/DTD/svg11.dtd">
<!-- Generated by graphviz version 2.43.0 (0)
 -->
<!-- Title: instrument_base.InstrumentBase.optical_transfer_function Pages: 1 -->
<svg width="508pt" height="50pt"
 viewBox="0.00 0.00 508.00 50.00" xmlns="http://www.w3.org/2000/svg" xmlns:xlink="http://www.w3.org/1999/xlink">
<g id="graph0" class="graph" transform="scale(1 1) rotate(0) translate(4 46)">
<title>instrument_base.InstrumentBase.optical_transfer_function</title>
<!-- Node1 -->
<g id="node1" class="node">
<title>Node1</title>
<g id="a_node1"><a xlink:title=" ">
<polygon fill="#bfbfbf" stroke="black" points="0,-6 0,-36 165,-36 165,-6 0,-6"/>
<text text-anchor="start" x="8" y="-24" font-family="Helvetica,sans-Serif" font-size="10.00">instrument_base.Instrument</text>
<text text-anchor="middle" x="82.5" y="-13" font-family="Helvetica,sans-Serif" font-size="10.00">Base.optical_transfer_function</text>
</a>
</g>
</g>
<!-- Node2 -->
<g id="node2" class="node">
<title>Node2</title>
<g id="a_node2"><a xlink:href="../../d4/db8/namespacetelescope__model.html#acac9f5c5baa801a10dfef579988251fd" target="_top" xlink:title=" ">
<polygon fill="none" stroke="black" points="201,-0.5 201,-41.5 337,-41.5 337,-0.5 201,-0.5"/>
<text text-anchor="start" x="209" y="-29.5" font-family="Helvetica,sans-Serif" font-size="10.00">telescope_model.optical</text>
<text text-anchor="start" x="209" y="-18.5" font-family="Helvetica,sans-Serif" font-size="10.00">_transfer_function_of</text>
<text text-anchor="middle" x="269" y="-7.5" font-family="Helvetica,sans-Serif" font-size="10.00">_optical_component_set</text>
</a>
</g>
</g>
<!-- Node1&#45;&gt;Node2 -->
<g id="edge1" class="edge">
<title>Node1&#45;&gt;Node2</title>
<path fill="none" stroke="midnightblue" d="M165.23,-21C173.73,-21 182.35,-21 190.79,-21"/>
<polygon fill="midnightblue" stroke="midnightblue" points="190.99,-24.5 200.99,-21 190.99,-17.5 190.99,-24.5"/>
</g>
<!-- Node3 -->
<g id="node3" class="node">
<title>Node3</title>
<g id="a_node3"><a xlink:href="../../d4/db8/namespacetelescope__model.html#ac02e36830e812047fe3f82f0613e2156" target="_top" xlink:title=" ">
<polygon fill="none" stroke="black" points="373,-0.5 373,-41.5 500,-41.5 500,-0.5 373,-0.5"/>
<text text-anchor="start" x="381" y="-29.5" font-family="Helvetica,sans-Serif" font-size="10.00">telescope_model.pupil</text>
<text text-anchor="start" x="381" y="-18.5" font-family="Helvetica,sans-Serif" font-size="10.00">_function_of_optical</text>
<text text-anchor="middle" x="436.5" y="-7.5" font-family="Helvetica,sans-Serif" font-size="10.00">_component_set</text>
</a>
</g>
</g>
<!-- Node2&#45;&gt;Node3 -->
<g id="edge2" class="edge">
<title>Node2&#45;&gt;Node3</title>
<path fill="none" stroke="midnightblue" d="M337.32,-21C345.65,-21 354.2,-21 362.61,-21"/>
<polygon fill="midnightblue" stroke="midnightblue" points="362.78,-24.5 372.78,-21 362.78,-17.5 362.78,-24.5"/>
</g>
</g>
</svg>
