<?xml version="1.0" encoding="UTF-8" standalone="no"?>
<!DOCTYPE svg PUBLIC "-//W3C//DTD SVG 1.1//EN"
 "http://www.w3.org/Graphics/SVG/1.1/DTD/svg11.dtd">
<!-- Generated by graphviz version 2.43.0 (0)
 -->
<!-- Title: aopp_deconv_tool.graphical_frontends.ssa_filtering.LinePlot.set_data Pages: 1 -->
<svg width="678pt" height="559pt"
 viewBox="0.00 0.00 678.00 559.00" xmlns="http://www.w3.org/2000/svg" xmlns:xlink="http://www.w3.org/1999/xlink">
<g id="graph0" class="graph" transform="scale(1 1) rotate(0) translate(4 555)">
<title>aopp_deconv_tool.graphical_frontends.ssa_filtering.LinePlot.set_data</title>
<!-- Node1 -->
<g id="Node000001" class="node">
<title>Node1</title>
<g id="a_Node000001"><a xlink:title=" ">
<polygon fill="#999999" stroke="#666666" points="218,-285 0,-285 0,-255 218,-255 218,-285"/>
<text text-anchor="start" x="8" y="-273" font-family="Helvetica,sans-Serif" font-size="10.00">aopp_deconv_tool.graphical</text>
<text text-anchor="middle" x="109" y="-262" font-family="Helvetica,sans-Serif" font-size="10.00">_frontends.ssa_filtering.LinePlot.set_data</text>
</a>
</g>
</g>
<!-- Node2 -->
<g id="Node000002" class="node">
<title>Node2</title>
<g id="a_Node000002"><a xlink:href="../../db/dd6/classaopp__deconv__tool_1_1graphical__frontends_1_1ssa__filtering_1_1ImagePlot.html#ab02e0d96d535d8e3efe5892c326f6de9" target="_top" xlink:title=" ">
<polygon fill="white" stroke="#666666" points="488,-551 271,-551 271,-521 488,-521 488,-551"/>
<text text-anchor="start" x="279" y="-539" font-family="Helvetica,sans-Serif" font-size="10.00">aopp_deconv_tool.graphical</text>
<text text-anchor="middle" x="379.5" y="-528" font-family="Helvetica,sans-Serif" font-size="10.00">_frontends.ssa_filtering.ImagePlot.create</text>
</a>
</g>
</g>
<!-- Node1&#45;&gt;Node2 -->
<g id="edge1_Node000001_Node000002" class="edge">
<title>Node1&#45;&gt;Node2</title>
<g id="a_edge1_Node000001_Node000002"><a xlink:title=" ">
<path fill="none" stroke="#63b8ff" d="M114.23,-285.23C127.11,-328.55 170.18,-453.14 254,-512 256.45,-513.72 258.99,-515.32 261.6,-516.82"/>
<polygon fill="#63b8ff" stroke="#63b8ff" points="260.26,-520.06 270.75,-521.51 263.45,-513.83 260.26,-520.06"/>
</a>
</g>
</g>
<!-- Node3 -->
<g id="Node000003" class="node">
<title>Node3</title>
<g id="a_Node000003"><a xlink:href="../../d1/d4b/classaopp__deconv__tool_1_1graphical__frontends_1_1ssa__filtering_1_1LinePlot.html#a86c5b305fb1693d23c4099d4a7dd2688" target="_top" xlink:title=" ">
<polygon fill="white" stroke="#666666" points="482.5,-503 276.5,-503 276.5,-473 482.5,-473 482.5,-503"/>
<text text-anchor="start" x="284.5" y="-491" font-family="Helvetica,sans-Serif" font-size="10.00">aopp_deconv_tool.graphical</text>
<text text-anchor="middle" x="379.5" y="-480" font-family="Helvetica,sans-Serif" font-size="10.00">_frontends.ssa_filtering.LinePlot.create</text>
</a>
</g>
</g>
<!-- Node1&#45;&gt;Node3 -->
<g id="edge2_Node000001_Node000003" class="edge">
<title>Node1&#45;&gt;Node3</title>
<g id="a_edge2_Node000001_Node000003"><a xlink:title=" ">
<path fill="none" stroke="#63b8ff" d="M116.44,-285.12C133.13,-322.3 181.56,-418.45 254,-464 258.09,-466.57 262.4,-468.88 266.86,-470.95"/>
<polygon fill="#63b8ff" stroke="#63b8ff" points="265.61,-474.23 276.19,-474.88 268.33,-467.78 265.61,-474.23"/>
</a>
</g>
</g>
<!-- Node4 -->
<g id="Node000004" class="node">
<title>Node4</title>
<g id="a_Node000004"><a xlink:href="../../db/dd6/classaopp__deconv__tool_1_1graphical__frontends_1_1ssa__filtering_1_1ImagePlot.html#acda8236fbaf8ab2a3d65ad9042849a25" target="_top" xlink:title=" ">
<polygon fill="white" stroke="#666666" points="476.5,-454.5 282.5,-454.5 282.5,-413.5 476.5,-413.5 476.5,-454.5"/>
<text text-anchor="start" x="290.5" y="-442.5" font-family="Helvetica,sans-Serif" font-size="10.00">aopp_deconv_tool.graphical</text>
<text text-anchor="start" x="290.5" y="-431.5" font-family="Helvetica,sans-Serif" font-size="10.00">_frontends.ssa_filtering.ImagePlot.is</text>
<text text-anchor="middle" x="379.5" y="-420.5" font-family="Helvetica,sans-Serif" font-size="10.00">_new_data_compatible</text>
</a>
</g>
</g>
<!-- Node1&#45;&gt;Node4 -->
<g id="edge3_Node000001_Node000004" class="edge">
<title>Node1&#45;&gt;Node4</title>
<g id="a_edge3_Node000001_Node000004"><a xlink:title=" ">
<path fill="none" stroke="#63b8ff" d="M121.62,-285.28C143.99,-313.55 195.98,-373.98 254,-405 259.98,-408.2 266.31,-411.05 272.82,-413.58"/>
<polygon fill="#63b8ff" stroke="#63b8ff" points="271.87,-416.96 282.46,-417.08 274.26,-410.38 271.87,-416.96"/>
</a>
</g>
</g>
<!-- Node5 -->
<g id="Node000005" class="node">
<title>Node5</title>
<g id="a_Node000005"><a xlink:href="../../d1/d4b/classaopp__deconv__tool_1_1graphical__frontends_1_1ssa__filtering_1_1LinePlot.html#a012d15fe4bdccdd70a661ffddfadb5a5" target="_top" xlink:title=" ">
<polygon fill="white" stroke="#666666" points="471.5,-395.5 287.5,-395.5 287.5,-354.5 471.5,-354.5 471.5,-395.5"/>
<text text-anchor="start" x="295.5" y="-383.5" font-family="Helvetica,sans-Serif" font-size="10.00">aopp_deconv_tool.graphical</text>
<text text-anchor="start" x="295.5" y="-372.5" font-family="Helvetica,sans-Serif" font-size="10.00">_frontends.ssa_filtering.LinePlot.is</text>
<text text-anchor="middle" x="379.5" y="-361.5" font-family="Helvetica,sans-Serif" font-size="10.00">_new_data_compatible</text>
</a>
</g>
</g>
<!-- Node1&#45;&gt;Node5 -->
<g id="edge4_Node000001_Node000005" class="edge">
<title>Node1&#45;&gt;Node5</title>
<g id="a_edge4_Node000001_Node000005"><a xlink:title=" ">
<path fill="none" stroke="#63b8ff" d="M134.38,-285.06C162.36,-301.77 210.05,-328.54 254,-345 261.55,-347.83 269.46,-350.46 277.47,-352.88"/>
<polygon fill="#63b8ff" stroke="#63b8ff" points="276.7,-356.31 287.28,-355.75 278.66,-349.59 276.7,-356.31"/>
</a>
</g>
</g>
<!-- Node6 -->
<g id="Node000006" class="node">
<title>Node6</title>
<g id="a_Node000006"><a xlink:href="../../d7/d1a/classaopp__deconv__tool_1_1graphical__frontends_1_1ssa__filtering_1_1BasePlot.html#ac5b6b4a92ca9aa6a96cea9d16217b831" target="_top" xlink:title=" ">
<polygon fill="white" stroke="#666666" points="488,-318 271,-318 271,-288 488,-288 488,-318"/>
<text text-anchor="start" x="279" y="-306" font-family="Helvetica,sans-Serif" font-size="10.00">aopp_deconv_tool.graphical</text>
<text text-anchor="middle" x="379.5" y="-295" font-family="Helvetica,sans-Serif" font-size="10.00">_frontends.ssa_filtering.BasePlot.remove</text>
</a>
</g>
</g>
<!-- Node1&#45;&gt;Node6 -->
<g id="edge5_Node000001_Node000006" class="edge">
<title>Node1&#45;&gt;Node6</title>
<g id="a_edge5_Node000001_Node000006"><a xlink:title=" ">
<path fill="none" stroke="#63b8ff" d="M218.05,-283.28C232,-284.99 246.35,-286.76 260.45,-288.49"/>
<polygon fill="#63b8ff" stroke="#63b8ff" points="260.32,-292 270.67,-289.75 261.17,-285.05 260.32,-292"/>
</a>
</g>
</g>
<!-- Node7 -->
<g id="Node000007" class="node">
<title>Node7</title>
<g id="a_Node000007"><a xlink:href="../../db/dd6/classaopp__deconv__tool_1_1graphical__frontends_1_1ssa__filtering_1_1ImagePlot.html#ac6cf2549f230815f44eabb01fefe2a69" target="_top" xlink:title=" ">
<polygon fill="white" stroke="#666666" points="491.5,-252 267.5,-252 267.5,-222 491.5,-222 491.5,-252"/>
<text text-anchor="start" x="275.5" y="-240" font-family="Helvetica,sans-Serif" font-size="10.00">aopp_deconv_tool.graphical</text>
<text text-anchor="middle" x="379.5" y="-229" font-family="Helvetica,sans-Serif" font-size="10.00">_frontends.ssa_filtering.ImagePlot.remove</text>
</a>
</g>
</g>
<!-- Node1&#45;&gt;Node7 -->
<g id="edge7_Node000001_Node000007" class="edge">
<title>Node1&#45;&gt;Node7</title>
<g id="a_edge7_Node000001_Node000007"><a xlink:title=" ">
<path fill="none" stroke="#63b8ff" d="M218.05,-256.72C230.94,-255.14 244.16,-253.51 257.22,-251.91"/>
<polygon fill="#63b8ff" stroke="#63b8ff" points="257.67,-255.38 267.17,-250.68 256.82,-248.43 257.67,-255.38"/>
</a>
</g>
</g>
<!-- Node8 -->
<g id="Node000008" class="node">
<title>Node8</title>
<g id="a_Node000008"><a xlink:href="../../da/d39/classaopp__deconv__tool_1_1graphical__frontends_1_1ssa__filtering_1_1WidgetBase.html#af6aef2730715bf5f18f8ecd23dc615dc" target="_top" xlink:title=" ">
<polygon fill="white" stroke="#666666" points="463.5,-185.5 295.5,-185.5 295.5,-144.5 463.5,-144.5 463.5,-185.5"/>
<text text-anchor="start" x="303.5" y="-173.5" font-family="Helvetica,sans-Serif" font-size="10.00">aopp_deconv_tool.graphical</text>
<text text-anchor="start" x="303.5" y="-162.5" font-family="Helvetica,sans-Serif" font-size="10.00">_frontends.ssa_filtering.Widget</text>
<text text-anchor="middle" x="379.5" y="-151.5" font-family="Helvetica,sans-Serif" font-size="10.00">Base.remove</text>
</a>
</g>
</g>
<!-- Node1&#45;&gt;Node8 -->
<g id="edge9_Node000001_Node000008" class="edge">
<title>Node1&#45;&gt;Node8</title>
<g id="a_edge9_Node000001_Node000008"><a xlink:title=" ">
<path fill="none" stroke="#63b8ff" d="M147.86,-254.91C176.88,-243.36 217.94,-227.09 254,-213 273.93,-205.21 295.69,-196.79 315.37,-189.22"/>
<polygon fill="#63b8ff" stroke="#63b8ff" points="316.76,-192.43 324.84,-185.57 314.25,-185.9 316.76,-192.43"/>
</a>
</g>
</g>
<!-- Node9 -->
<g id="Node000009" class="node">
<title>Node9</title>
<g id="a_Node000009"><a xlink:href="../../d6/da1/classaopp__deconv__tool_1_1task__strat_1_1TaskStratSet.html#a089f805d274ef3be0b64217e99ffed9d" target="_top" xlink:title=" ">
<polygon fill="white" stroke="#666666" points="454,-126 305,-126 305,-96 454,-96 454,-126"/>
<text text-anchor="start" x="313" y="-114" font-family="Helvetica,sans-Serif" font-size="10.00">aopp_deconv_tool.task</text>
<text text-anchor="middle" x="379.5" y="-103" font-family="Helvetica,sans-Serif" font-size="10.00">_strat.TaskStratSet.remove</text>
</a>
</g>
</g>
<!-- Node1&#45;&gt;Node9 -->
<g id="edge11_Node000001_Node000009" class="edge">
<title>Node1&#45;&gt;Node9</title>
<g id="a_edge11_Node000001_Node000009"><a xlink:title=" ">
<path fill="none" stroke="#63b8ff" d="M121.56,-254.67C143.83,-226.33 195.66,-165.92 254,-136 266.67,-129.5 280.87,-124.69 295.03,-121.13"/>
<polygon fill="#63b8ff" stroke="#63b8ff" points="295.85,-124.53 304.8,-118.86 294.27,-117.71 295.85,-124.53"/>
</a>
</g>
</g>
<!-- Node11 -->
<g id="Node000011" class="node">
<title>Node11</title>
<g id="a_Node000011"><a xlink:href="../../db/dd6/classaopp__deconv__tool_1_1graphical__frontends_1_1ssa__filtering_1_1ImagePlot.html#aae07fedf2cff11e37b6496dfad51bb92" target="_top" xlink:title=" ">
<polygon fill="white" stroke="#666666" points="505,-78 254,-78 254,-48 505,-48 505,-78"/>
<text text-anchor="start" x="262" y="-66" font-family="Helvetica,sans-Serif" font-size="10.00">aopp_deconv_tool.graphical</text>
<text text-anchor="middle" x="379.5" y="-55" font-family="Helvetica,sans-Serif" font-size="10.00">_frontends.ssa_filtering.ImagePlot.sanitise_data</text>
</a>
</g>
</g>
<!-- Node1&#45;&gt;Node11 -->
<g id="edge13_Node000001_Node000011" class="edge">
<title>Node1&#45;&gt;Node11</title>
<g id="a_edge13_Node000001_Node000011"><a xlink:title=" ">
<path fill="none" stroke="#63b8ff" d="M117.08,-254.94C134.68,-219.31 184.09,-129.6 254,-87 256.82,-85.28 259.74,-83.68 262.73,-82.19"/>
<polygon fill="#63b8ff" stroke="#63b8ff" points="264.24,-85.35 271.91,-78.05 261.36,-78.97 264.24,-85.35"/>
</a>
</g>
</g>
<!-- Node12 -->
<g id="Node000012" class="node">
<title>Node12</title>
<g id="a_Node000012"><a xlink:href="../../d1/d4b/classaopp__deconv__tool_1_1graphical__frontends_1_1ssa__filtering_1_1LinePlot.html#ac35e5fa64883848195e0bf919d84b177" target="_top" xlink:title=" ">
<polygon fill="white" stroke="#666666" points="500,-30 259,-30 259,0 500,0 500,-30"/>
<text text-anchor="start" x="267" y="-18" font-family="Helvetica,sans-Serif" font-size="10.00">aopp_deconv_tool.graphical</text>
<text text-anchor="middle" x="379.5" y="-7" font-family="Helvetica,sans-Serif" font-size="10.00">_frontends.ssa_filtering.LinePlot.sanitise_data</text>
</a>
</g>
</g>
<!-- Node1&#45;&gt;Node12 -->
<g id="edge14_Node000001_Node000012" class="edge">
<title>Node1&#45;&gt;Node12</title>
<g id="a_edge14_Node000001_Node000012"><a xlink:title=" ">
<path fill="none" stroke="#63b8ff" d="M114.64,-254.86C128.34,-212.93 172.78,-94.79 254,-39 256.18,-37.5 258.44,-36.09 260.75,-34.76"/>
<polygon fill="#63b8ff" stroke="#63b8ff" points="262.64,-37.72 269.93,-30.04 259.43,-31.5 262.64,-37.72"/>
</a>
</g>
</g>
<!-- Node6&#45;&gt;Node6 -->
<g id="edge6_Node000006_Node000006" class="edge">
<title>Node6&#45;&gt;Node6</title>
<g id="a_edge6_Node000006_Node000006"><a xlink:title=" ">
<path fill="none" stroke="#63b8ff" d="M339.77,-318.28C330.95,-327.41 344.19,-336 379.5,-336 400.47,-336 413.65,-332.97 419.06,-328.6"/>
<polygon fill="#63b8ff" stroke="#63b8ff" points="422.56,-328.33 419.23,-318.28 415.56,-328.22 422.56,-328.33"/>
</a>
</g>
</g>
<!-- Node7&#45;&gt;Node7 -->
<g id="edge8_Node000007_Node000007" class="edge">
<title>Node7&#45;&gt;Node7</title>
<g id="a_edge8_Node000007_Node000007"><a xlink:title=" ">
<path fill="none" stroke="#63b8ff" d="M339.77,-252.28C330.95,-261.41 344.19,-270 379.5,-270 400.47,-270 413.65,-266.97 419.06,-262.6"/>
<polygon fill="#63b8ff" stroke="#63b8ff" points="422.56,-262.33 419.23,-252.28 415.56,-262.22 422.56,-262.33"/>
</a>
</g>
</g>
<!-- Node8&#45;&gt;Node8 -->
<g id="edge10_Node000008_Node000008" class="edge">
<title>Node8&#45;&gt;Node8</title>
<g id="a_edge10_Node000008_Node000008"><a xlink:title=" ">
<path fill="none" stroke="#63b8ff" d="M337.96,-185.6C333.43,-195.15 347.28,-203.5 379.5,-203.5 399.64,-203.5 412.6,-200.24 418.38,-195.46"/>
<polygon fill="#63b8ff" stroke="#63b8ff" points="421.82,-196.16 421.04,-185.6 415.06,-194.34 421.82,-196.16"/>
</a>
</g>
</g>
<!-- Node10 -->
<g id="Node000010" class="node">
<title>Node10</title>
<g id="a_Node000010"><a xlink:href="../../d6/da1/classaopp__deconv__tool_1_1task__strat_1_1TaskStratSet.html#a9c869a7fb815955cc1bb5666e5ebe08f" target="_top" xlink:title=" ">
<polygon fill="white" stroke="#666666" points="670,-131.5 541,-131.5 541,-90.5 670,-90.5 670,-131.5"/>
<text text-anchor="start" x="549" y="-119.5" font-family="Helvetica,sans-Serif" font-size="10.00">aopp_deconv_tool.task</text>
<text text-anchor="start" x="549" y="-108.5" font-family="Helvetica,sans-Serif" font-size="10.00">_strat.TaskStratSet.</text>
<text text-anchor="middle" x="605.5" y="-97.5" font-family="Helvetica,sans-Serif" font-size="10.00">_del_item</text>
</a>
</g>
</g>
<!-- Node9&#45;&gt;Node10 -->
<g id="edge12_Node000009_Node000010" class="edge">
<title>Node9&#45;&gt;Node10</title>
<g id="a_edge12_Node000009_Node000010"><a xlink:title=" ">
<path fill="none" stroke="#63b8ff" d="M454.16,-111C478.81,-111 506.29,-111 530.94,-111"/>
<polygon fill="#63b8ff" stroke="#63b8ff" points="530.95,-114.5 540.95,-111 530.95,-107.5 530.95,-114.5"/>
</a>
</g>
</g>
</g>
</svg>
