<?xml version="1.0" encoding="UTF-8" standalone="no"?>
<!DOCTYPE svg PUBLIC "-//W3C//DTD SVG 1.1//EN"
 "http://www.w3.org/Graphics/SVG/1.1/DTD/svg11.dtd">
<!-- Generated by graphviz version 2.43.0 (0)
 -->
<!-- Title: aopp_deconv_tool.graphical_frontends.ssa_filtering.LinePlot.set_data Pages: 1 -->
<svg width="679pt" height="417pt"
 viewBox="0.00 0.00 679.00 416.50" xmlns="http://www.w3.org/2000/svg" xmlns:xlink="http://www.w3.org/1999/xlink">
<g id="graph0" class="graph" transform="scale(1 1) rotate(0) translate(4 412.5)">
<title>aopp_deconv_tool.graphical_frontends.ssa_filtering.LinePlot.set_data</title>
<!-- Node1 -->
<g id="node1" class="node">
<title>Node1</title>
<g id="a_node1"><a xlink:title=" ">
<polygon fill="#bfbfbf" stroke="black" points="0,-180.5 0,-210.5 218,-210.5 218,-180.5 0,-180.5"/>
<text text-anchor="start" x="8" y="-198.5" font-family="Helvetica,sans-Serif" font-size="10.00">aopp_deconv_tool.graphical</text>
<text text-anchor="middle" x="109" y="-187.5" font-family="Helvetica,sans-Serif" font-size="10.00">_frontends.ssa_filtering.LinePlot.set_data</text>
</a>
</g>
</g>
<!-- Node2 -->
<g id="node2" class="node">
<title>Node2</title>
<g id="a_node2"><a xlink:href="../../db/dd6/classaopp__deconv__tool_1_1graphical__frontends_1_1ssa__filtering_1_1ImagePlot.html#a224bbaf901632786c84c7cff4372cdf0" target="_top" xlink:title=" ">
<polygon fill="none" stroke="black" points="282.5,-367 282.5,-408 477.5,-408 477.5,-367 282.5,-367"/>
<text text-anchor="start" x="290.5" y="-396" font-family="Helvetica,sans-Serif" font-size="10.00">aopp_deconv_tool.graphical</text>
<text text-anchor="start" x="290.5" y="-385" font-family="Helvetica,sans-Serif" font-size="10.00">_frontends.ssa_filtering.ImagePlot.is</text>
<text text-anchor="middle" x="380" y="-374" font-family="Helvetica,sans-Serif" font-size="10.00">_new_data_compatible</text>
</a>
</g>
</g>
<!-- Node1&#45;&gt;Node2 -->
<g id="edge1" class="edge">
<title>Node1&#45;&gt;Node2</title>
<path fill="none" stroke="midnightblue" d="M118.98,-210.78C138.9,-243.24 190.09,-319.2 254,-357.5 259.92,-361.05 266.23,-364.17 272.75,-366.93"/>
<polygon fill="midnightblue" stroke="midnightblue" points="271.85,-370.33 282.43,-370.71 274.39,-363.81 271.85,-370.33"/>
</g>
<!-- Node3 -->
<g id="node3" class="node">
<title>Node3</title>
<g id="a_node3"><a xlink:href="../../d1/d4b/classaopp__deconv__tool_1_1graphical__frontends_1_1ssa__filtering_1_1LinePlot.html#a3aff404bd0c47aa0e5eb4189987a0094" target="_top" xlink:title=" ">
<polygon fill="none" stroke="black" points="287.5,-307 287.5,-348 472.5,-348 472.5,-307 287.5,-307"/>
<text text-anchor="start" x="295.5" y="-336" font-family="Helvetica,sans-Serif" font-size="10.00">aopp_deconv_tool.graphical</text>
<text text-anchor="start" x="295.5" y="-325" font-family="Helvetica,sans-Serif" font-size="10.00">_frontends.ssa_filtering.LinePlot.is</text>
<text text-anchor="middle" x="380" y="-314" font-family="Helvetica,sans-Serif" font-size="10.00">_new_data_compatible</text>
</a>
</g>
</g>
<!-- Node1&#45;&gt;Node3 -->
<g id="edge2" class="edge">
<title>Node1&#45;&gt;Node3</title>
<path fill="none" stroke="midnightblue" d="M126.83,-210.74C152.43,-233.09 203.5,-274.59 254,-297.5 261.52,-300.91 269.48,-303.97 277.6,-306.69"/>
<polygon fill="midnightblue" stroke="midnightblue" points="276.59,-310.04 287.18,-309.74 278.71,-303.37 276.59,-310.04"/>
</g>
<!-- Node4 -->
<g id="node4" class="node">
<title>Node4</title>
<g id="a_node4"><a xlink:href="../../d7/d1a/classaopp__deconv__tool_1_1graphical__frontends_1_1ssa__filtering_1_1BasePlot.html#ab90f403d403358f326201c91c4b4ba5d" target="_top" xlink:title=" ">
<polygon fill="none" stroke="black" points="271,-257.5 271,-287.5 489,-287.5 489,-257.5 271,-257.5"/>
<text text-anchor="start" x="279" y="-275.5" font-family="Helvetica,sans-Serif" font-size="10.00">aopp_deconv_tool.graphical</text>
<text text-anchor="middle" x="380" y="-264.5" font-family="Helvetica,sans-Serif" font-size="10.00">_frontends.ssa_filtering.BasePlot.remove</text>
</a>
</g>
</g>
<!-- Node1&#45;&gt;Node4 -->
<g id="edge3" class="edge">
<title>Node1&#45;&gt;Node4</title>
<path fill="none" stroke="midnightblue" d="M145.86,-210.56C174.68,-222.2 216.4,-238.05 254,-248.5 262.68,-250.91 271.76,-253.17 280.9,-255.25"/>
<polygon fill="midnightblue" stroke="midnightblue" points="280.3,-258.7 290.82,-257.44 281.81,-251.87 280.3,-258.7"/>
</g>
<!-- Node5 -->
<g id="node5" class="node">
<title>Node5</title>
<g id="a_node5"><a xlink:href="../../db/dd6/classaopp__deconv__tool_1_1graphical__frontends_1_1ssa__filtering_1_1ImagePlot.html#a311d5b0b53753851d7df74f8b229a3a1" target="_top" xlink:title=" ">
<polygon fill="none" stroke="black" points="268,-208.5 268,-238.5 492,-238.5 492,-208.5 268,-208.5"/>
<text text-anchor="start" x="276" y="-226.5" font-family="Helvetica,sans-Serif" font-size="10.00">aopp_deconv_tool.graphical</text>
<text text-anchor="middle" x="380" y="-215.5" font-family="Helvetica,sans-Serif" font-size="10.00">_frontends.ssa_filtering.ImagePlot.remove</text>
</a>
</g>
</g>
<!-- Node1&#45;&gt;Node5 -->
<g id="edge4" class="edge">
<title>Node1&#45;&gt;Node5</title>
<path fill="none" stroke="midnightblue" d="M218.25,-206.77C231.28,-208.12 244.65,-209.52 257.85,-210.89"/>
<polygon fill="midnightblue" stroke="midnightblue" points="257.59,-214.38 267.9,-211.94 258.32,-207.42 257.59,-214.38"/>
</g>
<!-- Node6 -->
<g id="node6" class="node">
<title>Node6</title>
<g id="a_node6"><a xlink:href="../../da/d39/classaopp__deconv__tool_1_1graphical__frontends_1_1ssa__filtering_1_1WidgetBase.html#add9d9e8935a19806390602a571c746b6" target="_top" xlink:title=" ">
<polygon fill="none" stroke="black" points="295.5,-148 295.5,-189 464.5,-189 464.5,-148 295.5,-148"/>
<text text-anchor="start" x="303.5" y="-177" font-family="Helvetica,sans-Serif" font-size="10.00">aopp_deconv_tool.graphical</text>
<text text-anchor="start" x="303.5" y="-166" font-family="Helvetica,sans-Serif" font-size="10.00">_frontends.ssa_filtering.Widget</text>
<text text-anchor="middle" x="380" y="-155" font-family="Helvetica,sans-Serif" font-size="10.00">Base.remove</text>
</a>
</g>
</g>
<!-- Node1&#45;&gt;Node6 -->
<g id="edge5" class="edge">
<title>Node1&#45;&gt;Node6</title>
<path fill="none" stroke="midnightblue" d="M218.25,-184.63C240.43,-182.41 263.6,-180.08 285.23,-177.91"/>
<polygon fill="midnightblue" stroke="midnightblue" points="285.77,-181.38 295.37,-176.89 285.07,-174.41 285.77,-181.38"/>
</g>
<!-- Node7 -->
<g id="node7" class="node">
<title>Node7</title>
<g id="a_node7"><a xlink:href="../../d6/da1/classaopp__deconv__tool_1_1task__strat_1_1TaskStratSet.html#a089f805d274ef3be0b64217e99ffed9d" target="_top" xlink:title=" ">
<polygon fill="none" stroke="black" points="305.5,-98.5 305.5,-128.5 454.5,-128.5 454.5,-98.5 305.5,-98.5"/>
<text text-anchor="start" x="313.5" y="-116.5" font-family="Helvetica,sans-Serif" font-size="10.00">aopp_deconv_tool.task</text>
<text text-anchor="middle" x="380" y="-105.5" font-family="Helvetica,sans-Serif" font-size="10.00">_strat.TaskStratSet.remove</text>
</a>
</g>
</g>
<!-- Node1&#45;&gt;Node7 -->
<g id="edge6" class="edge">
<title>Node1&#45;&gt;Node7</title>
<path fill="none" stroke="midnightblue" d="M143.15,-180.4C171.96,-167.76 215.06,-150 254,-138.5 267.24,-134.59 281.44,-131.1 295.36,-128.06"/>
<polygon fill="midnightblue" stroke="midnightblue" points="296.37,-131.43 305.42,-125.93 294.92,-124.58 296.37,-131.43"/>
</g>
<!-- Node9 -->
<g id="node9" class="node">
<title>Node9</title>
<g id="a_node9"><a xlink:href="../../db/dd6/classaopp__deconv__tool_1_1graphical__frontends_1_1ssa__filtering_1_1ImagePlot.html#a24d4cfa969821f6eef9e608178a0b12f" target="_top" xlink:title=" ">
<polygon fill="none" stroke="black" points="254,-49.5 254,-79.5 506,-79.5 506,-49.5 254,-49.5"/>
<text text-anchor="start" x="262" y="-67.5" font-family="Helvetica,sans-Serif" font-size="10.00">aopp_deconv_tool.graphical</text>
<text text-anchor="middle" x="380" y="-56.5" font-family="Helvetica,sans-Serif" font-size="10.00">_frontends.ssa_filtering.ImagePlot.sanitise_data</text>
</a>
</g>
</g>
<!-- Node1&#45;&gt;Node9 -->
<g id="edge8" class="edge">
<title>Node1&#45;&gt;Node9</title>
<path fill="none" stroke="midnightblue" d="M125.77,-180.16C150.78,-156.76 202.04,-112.46 254,-89.5 259.78,-86.95 265.82,-84.65 272,-82.59"/>
<polygon fill="midnightblue" stroke="midnightblue" points="273.3,-85.85 281.8,-79.54 271.22,-79.17 273.3,-85.85"/>
</g>
<!-- Node10 -->
<g id="node10" class="node">
<title>Node10</title>
<g id="a_node10"><a xlink:href="../../d1/d4b/classaopp__deconv__tool_1_1graphical__frontends_1_1ssa__filtering_1_1LinePlot.html#ab47bbe68324258fda7c8375944f12531" target="_top" xlink:title=" ">
<polygon fill="none" stroke="black" points="259,-0.5 259,-30.5 501,-30.5 501,-0.5 259,-0.5"/>
<text text-anchor="start" x="267" y="-18.5" font-family="Helvetica,sans-Serif" font-size="10.00">aopp_deconv_tool.graphical</text>
<text text-anchor="middle" x="380" y="-7.5" font-family="Helvetica,sans-Serif" font-size="10.00">_frontends.ssa_filtering.LinePlot.sanitise_data</text>
</a>
</g>
</g>
<!-- Node1&#45;&gt;Node10 -->
<g id="edge9" class="edge">
<title>Node1&#45;&gt;Node10</title>
<path fill="none" stroke="midnightblue" d="M119.36,-180.22C139.61,-148.56 190.84,-75.81 254,-40.5 258.02,-38.25 262.21,-36.2 266.52,-34.34"/>
<polygon fill="midnightblue" stroke="midnightblue" points="268.12,-37.47 276.13,-30.54 265.54,-30.96 268.12,-37.47"/>
</g>
<!-- Node8 -->
<g id="node8" class="node">
<title>Node8</title>
<g id="a_node8"><a xlink:href="../../d6/da1/classaopp__deconv__tool_1_1task__strat_1_1TaskStratSet.html#a9c869a7fb815955cc1bb5666e5ebe08f" target="_top" xlink:title=" ">
<polygon fill="none" stroke="black" points="542,-93 542,-134 671,-134 671,-93 542,-93"/>
<text text-anchor="start" x="550" y="-122" font-family="Helvetica,sans-Serif" font-size="10.00">aopp_deconv_tool.task</text>
<text text-anchor="start" x="550" y="-111" font-family="Helvetica,sans-Serif" font-size="10.00">_strat.TaskStratSet.</text>
<text text-anchor="middle" x="606.5" y="-100" font-family="Helvetica,sans-Serif" font-size="10.00">_del_item</text>
</a>
</g>
</g>
<!-- Node7&#45;&gt;Node8 -->
<g id="edge7" class="edge">
<title>Node7&#45;&gt;Node8</title>
<path fill="none" stroke="midnightblue" d="M454.51,-113.5C479.24,-113.5 506.82,-113.5 531.58,-113.5"/>
<polygon fill="midnightblue" stroke="midnightblue" points="531.64,-117 541.64,-113.5 531.64,-110 531.64,-117"/>
</g>
</g>
</svg>
