<?xml version="1.0" encoding="UTF-8" standalone="no"?>
<!DOCTYPE svg PUBLIC "-//W3C//DTD SVG 1.1//EN"
 "http://www.w3.org/Graphics/SVG/1.1/DTD/svg11.dtd">
<!-- Generated by graphviz version 2.43.0 (0)
 -->
<!-- Title: aopp_deconv_tool.numpy_helper.slice.iter_indices_with_slices Pages: 1 -->
<svg width="506pt" height="49pt"
 viewBox="0.00 0.00 506.00 49.00" xmlns="http://www.w3.org/2000/svg" xmlns:xlink="http://www.w3.org/1999/xlink">
<g id="graph0" class="graph" transform="scale(1 1) rotate(0) translate(4 45)">
<title>aopp_deconv_tool.numpy_helper.slice.iter_indices_with_slices</title>
<!-- Node1 -->
<g id="Node000001" class="node">
<title>Node1</title>
<g id="a_Node000001"><a xlink:title=" ">
<polygon fill="#999999" stroke="#666666" points="142,-41 0,-41 0,0 142,0 142,-41"/>
<text text-anchor="start" x="8" y="-29" font-family="Helvetica,sans-Serif" font-size="10.00">aopp_deconv_tool.numpy</text>
<text text-anchor="start" x="8" y="-18" font-family="Helvetica,sans-Serif" font-size="10.00">_helper.slice.iter_indices</text>
<text text-anchor="middle" x="71" y="-7" font-family="Helvetica,sans-Serif" font-size="10.00">_with_slices</text>
</a>
</g>
</g>
<!-- Node2 -->
<g id="Node000002" class="node">
<title>Node2</title>
<g id="a_Node000002"><a xlink:href="../../d5/d85/namespaceaopp__deconv__tool_1_1numpy__helper_1_1slice.html#a31664111efe15833f2c03b326136d4c0" target="_top" xlink:title=" ">
<polygon fill="white" stroke="#666666" points="320,-35.5 178,-35.5 178,-5.5 320,-5.5 320,-35.5"/>
<text text-anchor="start" x="186" y="-23.5" font-family="Helvetica,sans-Serif" font-size="10.00">aopp_deconv_tool.numpy</text>
<text text-anchor="middle" x="249" y="-12.5" font-family="Helvetica,sans-Serif" font-size="10.00">_helper.slice.get_indices</text>
</a>
</g>
</g>
<!-- Node1&#45;&gt;Node2 -->
<g id="edge1_Node000001_Node000002" class="edge">
<title>Node1&#45;&gt;Node2</title>
<g id="a_edge1_Node000001_Node000002"><a xlink:title=" ">
<path fill="none" stroke="#63b8ff" d="M142.07,-20.5C150.54,-20.5 159.25,-20.5 167.85,-20.5"/>
<polygon fill="#63b8ff" stroke="#63b8ff" points="167.89,-24 177.89,-20.5 167.89,-17 167.89,-24"/>
</a>
</g>
</g>
<!-- Node3 -->
<g id="Node000003" class="node">
<title>Node3</title>
<g id="a_Node000003"><a xlink:href="../../d5/d85/namespaceaopp__deconv__tool_1_1numpy__helper_1_1slice.html#a0fed71080749b83c2f20d225928d5821" target="_top" xlink:title=" ">
<polygon fill="white" stroke="#666666" points="498,-35.5 356,-35.5 356,-5.5 498,-5.5 498,-35.5"/>
<text text-anchor="start" x="364" y="-23.5" font-family="Helvetica,sans-Serif" font-size="10.00">aopp_deconv_tool.numpy</text>
<text text-anchor="middle" x="427" y="-12.5" font-family="Helvetica,sans-Serif" font-size="10.00">_helper.slice.unsqueeze</text>
</a>
</g>
</g>
<!-- Node2&#45;&gt;Node3 -->
<g id="edge2_Node000002_Node000003" class="edge">
<title>Node2&#45;&gt;Node3</title>
<g id="a_edge2_Node000002_Node000003"><a xlink:title=" ">
<path fill="none" stroke="#63b8ff" d="M320.07,-20.5C328.54,-20.5 337.25,-20.5 345.85,-20.5"/>
<polygon fill="#63b8ff" stroke="#63b8ff" points="345.89,-24 355.89,-20.5 345.89,-17 345.89,-24"/>
</a>
</g>
</g>
</g>
</svg>
