<?xml version="1.0" encoding="UTF-8" standalone="no"?>
<!DOCTYPE svg PUBLIC "-//W3C//DTD SVG 1.1//EN"
 "http://www.w3.org/Graphics/SVG/1.1/DTD/svg11.dtd">
<!-- Generated by graphviz version 2.43.0 (0)
 -->
<!-- Title: aopp_deconv_tool.numpy_helper.slice.get_indices Pages: 1 -->
<svg width="328pt" height="98pt"
 viewBox="0.00 0.00 328.00 97.50" xmlns="http://www.w3.org/2000/svg" xmlns:xlink="http://www.w3.org/1999/xlink">
<g id="graph0" class="graph" transform="scale(1 1) rotate(0) translate(4 93.5)">
<title>aopp_deconv_tool.numpy_helper.slice.get_indices</title>
<!-- Node1 -->
<g id="Node000001" class="node">
<title>Node1</title>
<g id="a_Node000001"><a xlink:title=" ">
<polygon fill="#999999" stroke="#666666" points="320,-62.5 178,-62.5 178,-32.5 320,-32.5 320,-62.5"/>
<text text-anchor="start" x="186" y="-50.5" font-family="Helvetica,sans-Serif" font-size="10.00">aopp_deconv_tool.numpy</text>
<text text-anchor="middle" x="249" y="-39.5" font-family="Helvetica,sans-Serif" font-size="10.00">_helper.slice.get_indices</text>
</a>
</g>
</g>
<!-- Node2 -->
<g id="Node000002" class="node">
<title>Node2</title>
<g id="a_Node000002"><a xlink:href="../../d5/d85/namespaceaopp__deconv__tool_1_1numpy__helper_1_1slice.html#a4d7e39fb71fc5850a311f2a6959b1a25" target="_top" xlink:title=" ">
<polygon fill="white" stroke="#666666" points="142,-89.5 0,-89.5 0,-59.5 142,-59.5 142,-89.5"/>
<text text-anchor="start" x="8" y="-77.5" font-family="Helvetica,sans-Serif" font-size="10.00">aopp_deconv_tool.numpy</text>
<text text-anchor="middle" x="71" y="-66.5" font-family="Helvetica,sans-Serif" font-size="10.00">_helper.slice.iter_indices</text>
</a>
</g>
</g>
<!-- Node1&#45;&gt;Node2 -->
<g id="edge1_Node000001_Node000002" class="edge">
<title>Node1&#45;&gt;Node2</title>
<g id="a_edge1_Node000001_Node000002"><a xlink:title=" ">
<path fill="none" stroke="#63b8ff" d="M167.9,-59.79C159.29,-61.11 150.59,-62.44 142.11,-63.74"/>
<polygon fill="#63b8ff" stroke="#63b8ff" points="168.58,-63.22 177.93,-58.25 167.52,-56.31 168.58,-63.22"/>
</a>
</g>
</g>
<!-- Node3 -->
<g id="Node000003" class="node">
<title>Node3</title>
<g id="a_Node000003"><a xlink:href="../../d5/d85/namespaceaopp__deconv__tool_1_1numpy__helper_1_1slice.html#a281eea275e9ab86e9609eb9f5ec588a9" target="_top" xlink:title=" ">
<polygon fill="white" stroke="#666666" points="142,-41 0,-41 0,0 142,0 142,-41"/>
<text text-anchor="start" x="8" y="-29" font-family="Helvetica,sans-Serif" font-size="10.00">aopp_deconv_tool.numpy</text>
<text text-anchor="start" x="8" y="-18" font-family="Helvetica,sans-Serif" font-size="10.00">_helper.slice.iter_indices</text>
<text text-anchor="middle" x="71" y="-7" font-family="Helvetica,sans-Serif" font-size="10.00">_with_slices</text>
</a>
</g>
</g>
<!-- Node1&#45;&gt;Node3 -->
<g id="edge2_Node000001_Node000003" class="edge">
<title>Node1&#45;&gt;Node3</title>
<g id="a_edge2_Node000001_Node000003"><a xlink:title=" ">
<path fill="none" stroke="#63b8ff" d="M167.9,-35.21C159.29,-33.89 150.59,-32.56 142.11,-31.26"/>
<polygon fill="#63b8ff" stroke="#63b8ff" points="167.52,-38.69 177.93,-36.75 168.58,-31.78 167.52,-38.69"/>
</a>
</g>
</g>
</g>
</svg>
